<?xml version="1.0" standalone="no"?>
<!DOCTYPE svg PUBLIC "-//W3C//DTD SVG 1.1//EN" "http://www.w3.org/Graphics/SVG/1.1/DTD/svg11.dtd" >
<svg xmlns="http://www.w3.org/2000/svg" xmlns:xlink="http://www.w3.org/1999/xlink" version="1.1">
<metadata>
Created by FontForge 20170924 at Mon Feb 13 15:47:46 2017
 By www-data
Copyright (c) 2017. All rights reserved. Helsinki Grotesk is a customized version of Graebenbach for the City of Helsinki. Graebenbach is a design by Wolfgang Schwaerzler, published by Camelot Typefaces. www.camelot-typefaces.com
</metadata>
<defs>
<font id="HelsinkiGrotesk-MediumItalic" horiz-adv-x="600" >
  <font-face 
    font-family="Helsinki Grotesk Medium"
    font-weight="500"
    font-style="italic"
    font-stretch="normal"
    units-per-em="1000"
    panose-1="2 11 0 3 4 2 2 0 0 3"
    ascent="736"
    descent="-264"
    x-height="504"
    cap-height="692"
    bbox="-214 -260 1261 975"
    underline-thickness="50"
    underline-position="-200"
    slope="-12"
    stemh="89"
    stemv="110"
    unicode-range="U+0020-FEFF"
  />
<missing-glyph 
d="M19 0l147 692h458l-147 -692h-458zM514 606h-211l116 -449zM223 527l-94 -442h211z" />
    <glyph glyph-name="f_j" unicode="fj" horiz-adv-x="559" 
d="M52 0l88 415h-83l19 89h83l7 30c32 145 117 202 229 202c82 0 145 -39 169 -104l-107 -58v6c0 39 -25 67 -70 67c-55 0 -97 -37 -114 -117l-5 -26h112l-19 -89h-112l-88 -415h-109zM261 -208l-88 74c100 18 142 60 165 170l100 468h111l-107 -503
c-25 -120 -83 -192 -181 -209z" />
    <glyph glyph-name="f_adieresis" unicode="f&#xe4;" horiz-adv-x="903" 
d="M400 587c0 37 -16 59 -48 59c-42 0 -60 -32 -72 -87l-12 -55h115l-19 -89h-115l-88 -415h-109l88 415h-83l19 89h83l14 61c26 115 87 171 182 171c72 0 110 -41 125 -80l-80 -73v4zM624 516c79 0 123 -57 138 -99h2l19 87h110l-81 -386c-8 -37 -15 -70 -15 -93
c0 -12 2 -25 2 -25h-86c-10 18 -14 36 -14 56v14h-1c-26 -39 -70 -82 -149 -82c-108 0 -176 94 -176 211c0 160 102 317 251 317zM587 79c98 0 152 121 152 222c0 72 -35 124 -104 124c-98 0 -152 -121 -152 -222c0 -72 35 -124 104 -124zM527 635c0 42 29 74 74 74
c37 0 61 -24 61 -58c0 -42 -30 -74 -75 -74c-36 0 -60 24 -60 58zM717 635c0 42 29 74 74 74c37 0 61 -24 61 -58c0 -42 -30 -74 -75 -74c-36 0 -60 24 -60 58z" />
    <glyph glyph-name="f_odieresis" unicode="f&#xf6;" horiz-adv-x="883" 
d="M400 587c0 37 -16 59 -48 59c-42 0 -60 -32 -72 -87l-12 -55h115l-19 -89h-115l-88 -415h-109l88 415h-83l19 89h83l14 61c26 115 87 171 182 171c72 0 110 -41 125 -80l-80 -73v4zM371 201c0 166 106 315 276 315c122 0 205 -91 205 -213c0 -166 -105 -315 -276 -315
c-122 0 -205 91 -205 213zM481 199c0 -70 37 -122 102 -122c102 0 159 124 159 228c0 70 -37 122 -102 122c-102 0 -159 -124 -159 -228zM523 635c0 42 29 74 74 74c37 0 61 -24 61 -58c0 -42 -30 -74 -75 -74c-36 0 -60 24 -60 58zM713 635c0 42 29 74 74 74
c37 0 61 -24 61 -58c0 -42 -30 -74 -75 -74c-36 0 -60 24 -60 58z" />
    <glyph glyph-name="f_udieresis" unicode="f&#xfc;" horiz-adv-x="903" 
d="M400 587c0 37 -16 59 -48 59c-42 0 -60 -32 -72 -87l-12 -55h115l-19 -89h-115l-88 -415h-109l88 415h-83l19 89h83l14 61c26 115 87 171 182 171c72 0 110 -41 125 -80l-80 -73v4zM411 208l63 296h111l-63 -297c-4 -18 -6 -35 -6 -49c0 -47 24 -76 73 -76
c71 0 115 59 131 134l61 288h111l-107 -504h-111l27 86h-3c-29 -50 -81 -98 -162 -98c-88 0 -135 57 -135 143c0 18 5 55 10 77zM543 635c0 42 29 74 74 74c37 0 61 -24 61 -58c0 -42 -30 -74 -75 -74c-36 0 -60 24 -60 58zM733 635c0 42 29 74 74 74c37 0 61 -24 61 -58
c0 -42 -30 -74 -75 -74c-36 0 -60 24 -60 58z" />
    <glyph glyph-name="f_b" unicode="fb" horiz-adv-x="943" 
d="M400 587c0 37 -16 59 -48 59c-42 0 -60 -32 -72 -87l-12 -55h115l-19 -89h-115l-88 -415h-109l88 415h-83l19 89h83l14 61c26 115 87 171 182 171c72 0 110 -41 125 -80l-80 -73v4zM542 724h111l-37 -176c-10 -47 -35 -121 -35 -121h3c28 40 71 89 150 89
c108 0 176 -94 176 -211c0 -160 -102 -317 -251 -317c-80 0 -125 57 -141 101h-2l-20 -89h-108zM696 425c-98 0 -152 -121 -152 -222c0 -72 35 -124 104 -124c98 0 152 121 152 222c0 72 -35 124 -104 124z" />
    <glyph glyph-name="f_h" unicode="fh" horiz-adv-x="927" 
d="M400 587c0 37 -16 59 -48 59c-42 0 -60 -32 -72 -87l-12 -55h115l-19 -89h-115l-88 -415h-109l88 415h-83l19 89h83l14 61c26 115 87 171 182 171c72 0 110 -41 125 -80l-80 -73v4zM877 296l-63 -296h-111l64 297c3 18 5 35 5 49c0 47 -29 76 -78 76
c-71 0 -118 -59 -134 -134l-61 -288h-111l154 724h111l-38 -182c-11 -49 -36 -124 -36 -124h3c29 50 84 98 165 98c88 0 140 -57 140 -143c0 -18 -5 -55 -10 -77z" />
    <glyph glyph-name="f_k" unicode="fk" horiz-adv-x="891" 
d="M400 587c0 37 -16 59 -48 59c-42 0 -60 -32 -72 -87l-12 -55h115l-19 -89h-115l-88 -415h-109l88 415h-83l19 89h83l14 61c26 115 87 171 182 171c72 0 110 -41 125 -80l-80 -73v4zM931 504l-214 -202l127 -302h-117l-95 225l-108 -106l-25 -119h-111l154 724h111
l-73 -345c-13 -61 -33 -125 -33 -125h2s47 54 87 94l159 156h136z" />
    <glyph glyph-name="f_t" unicode="ft" horiz-adv-x="684" 
d="M597 121l37 -84c-19 -19 -64 -49 -123 -49c-68 0 -112 33 -112 97c0 14 3 35 7 53l59 277h-72l19 89h72l23 110l123 64l-38 -174h123l-19 -89h-122l-59 -275c-2 -10 -4 -20 -4 -29c0 -22 12 -30 29 -30c27 0 45 24 57 40zM400 598c0 27 -12 50 -47 50
c-42 0 -61 -33 -73 -88l-12 -56h98l-18 -89h-99l-88 -415h-109l88 415h-83l19 89h83l13 61c25 115 88 171 184 171c77 0 118 -48 131 -90l-88 -63s1 7 1 15z" />
    <glyph glyph-name="t_t" unicode="tt" horiz-adv-x="691" 
d="M269 121l37 -84c-19 -19 -64 -49 -123 -49c-68 0 -112 33 -112 97c0 14 3 35 7 53l59 277h-86l18 89h87l23 110l123 64l-37 -174h102l-18 -89h-103l-59 -275c-2 -10 -4 -20 -4 -29c0 -22 12 -30 29 -30c27 0 45 24 57 40zM606 121l37 -84c-19 -19 -64 -49 -122 -49
c-68 0 -112 33 -112 97c0 14 2 35 6 53l60 277h-80l18 89h80l24 110l122 64l-37 -174h120l-19 -89h-120l-59 -275c-2 -10 -3 -20 -3 -29c0 -22 11 -30 28 -30c28 0 45 24 57 40z" />
    <glyph glyph-name="f_f_j" unicode="ffj" horiz-adv-x="946" 
d="M400 598c0 27 -12 50 -47 50c-42 0 -61 -33 -73 -88l-12 -56h104l-18 -89h-105l-88 -415h-109l88 415h-83l19 89h83l13 61c25 115 88 171 184 171c77 0 118 -48 131 -90l-88 -63s1 7 1 15zM731 587c0 37 -16 59 -48 59c-42 0 -60 -32 -72 -87l-12 -55h119l-19 -89h-119
l-88 -415h-109l88 415h-72l19 89h72l14 61c26 115 87 171 182 171c72 0 110 -41 125 -80l-80 -73v4zM649 -208l-88 74c100 18 142 60 165 170l100 468h111l-107 -503c-25 -120 -83 -192 -181 -209zM837 637c0 43 30 75 78 75c37 0 64 -26 64 -61c0 -42 -31 -74 -78 -74
c-38 0 -64 25 -64 60z" />
    <glyph glyph-name="f_f_adieresis" unicode="ff&#xe4;" horiz-adv-x="1233" 
d="M400 598c0 27 -12 50 -47 50c-42 0 -61 -33 -73 -88l-12 -56h104l-18 -89h-105l-88 -415h-109l88 415h-83l19 89h83l13 61c25 115 88 171 184 171c77 0 118 -48 131 -90l-88 -63s1 7 1 15zM731 587c0 37 -16 59 -48 59c-42 0 -60 -32 -72 -87l-12 -55h119l-19 -89h-119
l-88 -415h-109l88 415h-72l19 89h72l14 61c26 115 87 171 182 171c72 0 110 -41 125 -80l-80 -73v4zM954 516c79 0 123 -57 138 -99h2l19 87h110l-81 -386c-8 -37 -15 -70 -15 -93c0 -12 2 -25 2 -25h-86c-10 18 -14 36 -14 56v14h-1c-26 -39 -70 -82 -149 -82
c-108 0 -176 94 -176 211c0 160 102 317 251 317zM917 79c98 0 152 121 152 222c0 72 -35 124 -104 124c-98 0 -152 -121 -152 -222c0 -72 35 -124 104 -124zM857 635c0 42 29 74 74 74c37 0 61 -24 61 -58c0 -42 -30 -74 -75 -74c-36 0 -60 24 -60 58zM1047 635
c0 42 29 74 74 74c37 0 61 -24 61 -58c0 -42 -30 -74 -75 -74c-36 0 -60 24 -60 58z" />
    <glyph glyph-name="f_f_odieresis" unicode="ff&#xf6;" horiz-adv-x="1218" 
d="M400 598c0 27 -12 50 -47 50c-42 0 -61 -33 -73 -88l-12 -56h104l-18 -89h-105l-88 -415h-109l88 415h-83l19 89h83l13 61c25 115 88 171 184 171c77 0 118 -48 131 -90l-88 -63s1 7 1 15zM731 587c0 37 -16 59 -48 59c-42 0 -60 -32 -72 -87l-12 -55h119l-19 -89h-119
l-88 -415h-109l88 415h-72l19 89h72l14 61c26 115 87 171 182 171c72 0 110 -41 125 -80l-80 -73v4zM707 201c0 166 106 315 276 315c122 0 205 -91 205 -213c0 -166 -105 -315 -276 -315c-122 0 -205 91 -205 213zM817 199c0 -70 37 -122 102 -122c102 0 159 124 159 228
c0 70 -37 122 -102 122c-102 0 -159 -124 -159 -228zM859 635c0 42 29 74 74 74c37 0 61 -24 61 -58c0 -42 -30 -74 -75 -74c-36 0 -60 24 -60 58zM1049 635c0 42 29 74 74 74c37 0 61 -24 61 -58c0 -42 -30 -74 -75 -74c-36 0 -60 24 -60 58z" />
    <glyph glyph-name="f_f_udieresis" unicode="ff&#xfc;" horiz-adv-x="1233" 
d="M400 598c0 27 -12 50 -47 50c-42 0 -61 -33 -73 -88l-12 -56h104l-18 -89h-105l-88 -415h-109l88 415h-83l19 89h83l13 61c25 115 88 171 184 171c77 0 118 -48 131 -90l-88 -63s1 7 1 15zM731 587c0 37 -16 59 -48 59c-42 0 -60 -32 -72 -87l-12 -55h119l-19 -89h-119
l-88 -415h-109l88 415h-72l19 89h72l14 61c26 115 87 171 182 171c72 0 110 -41 125 -80l-80 -73v4zM741 208l63 296h111l-63 -297c-4 -18 -6 -35 -6 -49c0 -47 24 -76 73 -76c71 0 115 59 131 134l61 288h111l-107 -504h-111l27 86h-3c-29 -50 -81 -98 -162 -98
c-88 0 -135 57 -135 143c0 18 5 55 10 77zM873 635c0 42 29 74 74 74c37 0 61 -24 61 -58c0 -42 -30 -74 -75 -74c-36 0 -60 24 -60 58zM1063 635c0 42 29 74 74 74c37 0 61 -24 61 -58c0 -42 -30 -74 -75 -74c-36 0 -60 24 -60 58z" />
    <glyph glyph-name="f_f_b" unicode="ffb" horiz-adv-x="1273" 
d="M400 598c0 27 -12 50 -47 50c-42 0 -61 -33 -73 -88l-12 -56h104l-18 -89h-105l-88 -415h-109l88 415h-83l19 89h83l13 61c25 115 88 171 184 171c77 0 118 -48 131 -90l-88 -63s1 7 1 15zM731 587c0 37 -16 59 -48 59c-42 0 -60 -32 -72 -87l-12 -55h119l-19 -89h-119
l-88 -415h-109l88 415h-72l19 89h72l14 61c26 115 87 171 182 171c72 0 110 -41 125 -80l-80 -73v4zM872 724h111l-37 -176c-10 -47 -35 -121 -35 -121h3c28 40 71 89 150 89c108 0 176 -94 176 -211c0 -160 -102 -317 -251 -317c-80 0 -125 57 -141 101h-2l-20 -89h-108z
M1026 425c-98 0 -152 -121 -152 -222c0 -72 35 -124 104 -124c98 0 152 121 152 222c0 72 -35 124 -104 124z" />
    <glyph glyph-name="f_f_h" unicode="ffh" horiz-adv-x="1257" 
d="M400 598c0 27 -12 50 -47 50c-42 0 -61 -33 -73 -88l-12 -56h104l-18 -89h-105l-88 -415h-109l88 415h-83l19 89h83l13 61c25 115 88 171 184 171c77 0 118 -48 131 -90l-88 -63s1 7 1 15zM731 587c0 37 -16 59 -48 59c-42 0 -60 -32 -72 -87l-12 -55h119l-19 -89h-119
l-88 -415h-109l88 415h-72l19 89h72l14 61c26 115 87 171 182 171c72 0 110 -41 125 -80l-80 -73v4zM1207 296l-63 -296h-111l64 297c3 18 5 35 5 49c0 47 -29 76 -78 76c-71 0 -118 -59 -134 -134l-61 -288h-111l154 724h111l-38 -182c-11 -49 -36 -124 -36 -124h3
c29 50 84 98 165 98c88 0 140 -57 140 -143c0 -18 -5 -55 -10 -77z" />
    <glyph glyph-name="f_f_k" unicode="ffk" horiz-adv-x="1221" 
d="M400 598c0 27 -12 50 -47 50c-42 0 -61 -33 -73 -88l-12 -56h104l-18 -89h-105l-88 -415h-109l88 415h-83l19 89h83l13 61c25 115 88 171 184 171c77 0 118 -48 131 -90l-88 -63s1 7 1 15zM731 587c0 37 -16 59 -48 59c-42 0 -60 -32 -72 -87l-12 -55h119l-19 -89h-119
l-88 -415h-109l88 415h-72l19 89h72l14 61c26 115 87 171 182 171c72 0 110 -41 125 -80l-80 -73v4zM1261 504l-214 -202l127 -302h-117l-95 225l-108 -106l-25 -119h-111l154 724h111l-73 -345c-13 -61 -33 -125 -33 -125h2s47 54 87 94l159 156h136z" />
    <glyph glyph-name="f_f_t" unicode="fft" horiz-adv-x="1015" 
d="M400 598c0 27 -12 50 -47 50c-42 0 -61 -33 -73 -88l-12 -56h104l-18 -89h-105l-88 -415h-109l88 415h-83l19 89h83l13 61c25 115 88 171 184 171c77 0 118 -48 131 -90l-88 -63s1 7 1 15zM928 121l37 -84c-19 -19 -64 -49 -123 -49c-68 0 -112 33 -112 97
c0 14 3 35 7 53l59 277h-72l19 89h72l23 110l123 64l-38 -174h123l-19 -89h-122l-59 -275c-2 -10 -4 -20 -4 -29c0 -22 12 -30 29 -30c27 0 45 24 57 40zM731 598c0 27 -12 50 -47 50c-42 0 -61 -33 -73 -88l-12 -56h98l-18 -89h-99l-88 -415h-109l88 415h-72l19 89h72
l13 61c25 115 88 171 184 171c77 0 118 -48 131 -90l-88 -63s1 7 1 15z" />
    <glyph glyph-name="f_f" unicode="ff" horiz-adv-x="683" 
d="M736 599c0 26 -16 49 -49 49c-42 0 -64 -33 -76 -88l-12 -56h115l-19 -89h-115l-88 -415h-109l88 415h-72l19 89h72l13 61c25 115 91 171 189 171c82 0 131 -52 143 -100l-101 -55c1 3 2 11 2 18zM400 598c0 27 -12 50 -47 50c-42 0 -61 -33 -73 -88l-12 -56h104l-18 -89
h-105l-88 -415h-109l88 415h-83l19 89h83l13 61c25 115 88 171 184 171c77 0 118 -48 131 -90l-88 -63s1 7 1 15z" />
    <glyph glyph-name="f_f_i" unicode="ffi" horiz-adv-x="946" 
d="M400 598c0 27 -12 50 -47 50c-42 0 -61 -33 -73 -88l-12 -56h104l-18 -89h-105l-88 -415h-109l88 415h-83l19 89h83l13 61c25 115 88 171 184 171c77 0 118 -48 131 -90l-88 -63s1 7 1 15zM731 587c0 37 -16 59 -48 59c-42 0 -60 -32 -72 -87l-12 -55h119l-19 -89h-119
l-88 -415h-109l88 415h-72l19 89h72l14 61c26 115 87 171 182 171c72 0 110 -41 125 -80l-80 -73v4zM718 0l107 504h112l-107 -504h-112zM837 637c0 43 30 75 78 75c37 0 64 -26 64 -61c0 -42 -31 -74 -78 -74c-38 0 -64 25 -64 60z" />
    <glyph glyph-name="f_f_l" unicode="ffl" horiz-adv-x="946" 
d="M400 598c0 27 -12 50 -47 50c-42 0 -61 -33 -73 -88l-12 -56h104l-18 -89h-105l-88 -415h-109l88 415h-83l19 89h83l13 61c25 115 88 171 184 171c77 0 118 -48 131 -90l-88 -63s1 7 1 15zM731 587c0 37 -16 59 -48 59c-42 0 -60 -32 -72 -87l-12 -55h119l-19 -89h-119
l-88 -415h-109l88 415h-72l19 89h72l14 61c26 115 87 171 182 171c72 0 110 -41 125 -80l-80 -73v4zM718 0l154 724h112l-154 -724h-112z" />
    <glyph glyph-name="f_i" unicode="fi" horiz-adv-x="559" 
d="M52 0l88 415h-83l19 89h83l7 30c32 145 117 202 229 202c82 0 145 -39 169 -104l-107 -58v6c0 39 -25 67 -70 67c-55 0 -97 -37 -114 -117l-5 -26h110l-18 -89h-111l-88 -415h-109zM331 0l107 504h111l-107 -504h-111z" />
    <glyph glyph-name="f_l" unicode="fl" horiz-adv-x="566" 
d="M337 0l117 546c3 15 4 26 4 36c0 43 -31 65 -74 65c-56 0 -93 -34 -109 -110l-7 -33h112l-19 -89h-112l-88 -415h-109l88 415h-83l19 89h83l10 48c27 128 102 184 193 184c63 0 102 -35 117 -67h4l12 55h108l-154 -724h-112z" />
    <glyph glyph-name=".notdef" 
d="M19 0l147 692h458l-147 -692h-458zM514 606h-211l116 -449zM223 527l-94 -442h211z" />
    <glyph glyph-name="space" unicode=" " horiz-adv-x="227" 
 />
    <glyph glyph-name="at" unicode="@" horiz-adv-x="861" 
d="M434 448c53 0 82 -32 94 -57h2l11 49h93l-48 -229c-2 -10 -4 -19 -4 -27c0 -23 9 -37 35 -37c84 0 119 126 119 193c0 136 -94 224 -240 224c-206 0 -360 -167 -360 -366c0 -149 101 -252 244 -252c102 0 177 37 224 93l83 -57c-60 -55 -160 -116 -314 -116
c-191 0 -330 134 -330 327c0 251 198 453 461 453c189 0 324 -125 324 -302c0 -121 -71 -271 -228 -271c-47 0 -91 15 -106 54h-2c-16 -23 -55 -54 -111 -54c-82 0 -131 66 -131 150c0 106 72 225 184 225zM405 146c70 0 105 82 105 151c0 41 -18 76 -59 76
c-70 0 -106 -82 -106 -150c0 -42 19 -77 60 -77z" />
    <glyph glyph-name="A" unicode="A" horiz-adv-x="651" 
d="M478 0l-24 178h-274l-99 -178h-124l395 692h138l101 -692h-113zM349 482l-115 -207h207l-27 207c-5 35 -11 99 -11 99h-2s-31 -62 -52 -99z" />
    <glyph glyph-name="B" unicode="B" horiz-adv-x="629" 
d="M21 0l147 692h249c127 0 213 -67 213 -164c0 -86 -62 -147 -138 -169v-3c45 -15 98 -58 98 -132c0 -146 -123 -224 -283 -224h-286zM373 404c79 0 140 39 140 112c0 49 -37 77 -99 77h-152l-41 -189h152zM328 99c85 0 147 45 147 122c0 53 -35 86 -98 86h-177l-44 -208
h172z" />
    <glyph glyph-name="C" unicode="C" horiz-adv-x="663" 
d="M422 704c147 0 254 -102 254 -218v-9l-117 -64s3 15 3 35c0 84 -48 153 -148 153c-153 0 -240 -163 -240 -322c0 -108 56 -188 160 -188c114 0 178 93 195 193l102 -71c-30 -107 -137 -225 -307 -225c-164 0 -268 126 -268 287c0 224 142 429 366 429z" />
    <glyph glyph-name="D" unicode="D" horiz-adv-x="693" 
d="M282 0h-261l147 692h216c179 0 296 -119 296 -276c0 -223 -145 -416 -398 -416zM301 102c173 0 261 159 261 310c0 105 -64 178 -177 178h-124l-103 -488h143z" />
    <glyph glyph-name="E" unicode="E" horiz-adv-x="571" 
d="M21 0l147 692h452l-22 -102h-337l-40 -185h321l-22 -101h-320l-43 -202h345l-21 -102h-460z" />
    <glyph glyph-name="F" unicode="F" horiz-adv-x="547" 
d="M21 0l147 692h443l-22 -102h-328l-40 -191h310l-21 -101h-311l-63 -298h-115z" />
    <glyph glyph-name="G" unicode="G" horiz-adv-x="699" 
d="M304 -12c-152 0 -248 121 -248 283c0 227 145 433 374 433c150 0 262 -93 262 -197l-116 -64s1 9 1 21c0 78 -59 137 -155 137c-158 0 -248 -163 -248 -322c0 -110 50 -189 158 -189c102 0 178 79 199 184l2 11h-223l21 100h333l-82 -385h-107l31 101h-2
c-35 -57 -99 -113 -200 -113z" />
    <glyph glyph-name="H" unicode="H" horiz-adv-x="692" 
d="M452 0l64 303h-316l-65 -303h-115l147 692h115l-60 -286h316l61 286h115l-147 -692h-115z" />
    <glyph glyph-name="I" unicode="I" horiz-adv-x="262" 
d="M21 0l147 692h117l-147 -692h-117z" />
    <glyph glyph-name="J" unicode="J" horiz-adv-x="555" 
d="M51 271l132 66c-16 -45 -39 -93 -39 -154c0 -56 30 -92 90 -92c84 0 124 74 145 172l91 429h115l-91 -427c-37 -175 -113 -277 -269 -277c-123 0 -194 75 -194 186c0 43 12 80 20 97z" />
    <glyph glyph-name="K" unicode="K" horiz-adv-x="631" 
d="M21 0l147 692h114l-48 -225c-14 -66 -30 -129 -30 -129h2s49 61 112 123l235 231h146l-287 -279l170 -413h-122l-136 329l-151 -147l-38 -182h-114z" />
    <glyph glyph-name="L" unicode="L" horiz-adv-x="519" 
d="M21 0l147 692h116l-125 -588h318l-22 -104h-434z" />
    <glyph glyph-name="M" unicode="M" horiz-adv-x="842" 
d="M395 141h3s28 63 57 116l236 435h174l-147 -692h-111l90 425c15 66 32 132 32 132h-3s-33 -62 -62 -114l-242 -443h-108l-52 443c-6 52 -12 117 -12 117h-3s-12 -69 -26 -135l-90 -425h-110l147 692h167l51 -435c7 -52 9 -116 9 -116z" />
    <glyph glyph-name="N" unicode="N" horiz-adv-x="702" 
d="M578 0h-151l-140 436c-15 47 -37 129 -37 129l-3 -1c-1 -3 -12 -74 -26 -138l-90 -426h-110l147 692h151l140 -436c15 -47 38 -129 38 -129h3c0 4 10 74 25 139l90 426h110z" />
    <glyph glyph-name="O" unicode="O" horiz-adv-x="715" 
d="M331 -12c-167 0 -275 126 -275 287c0 224 145 429 372 429c167 0 275 -126 275 -287c0 -224 -145 -429 -372 -429zM174 279c0 -108 59 -188 165 -188c157 0 247 163 247 322c0 108 -59 188 -166 188c-156 0 -246 -163 -246 -322z" />
    <glyph glyph-name="P" unicode="P" horiz-adv-x="624" 
d="M21 0l147 692h267c132 0 226 -71 226 -183c0 -148 -124 -235 -288 -235h-179l-58 -274h-115zM393 376c87 0 151 47 151 125c0 59 -45 89 -113 89h-169l-46 -214h177z" />
    <glyph glyph-name="Q" unicode="Q" horiz-adv-x="716" 
d="M330 -12c-167 0 -274 126 -274 287c0 224 146 429 374 429c166 0 273 -126 273 -287c0 -165 -80 -312 -212 -379v-1c4 1 8 2 16 2c64 0 130 -29 157 -79l-90 -82c-23 54 -88 110 -244 110zM174 279c0 -108 59 -188 165 -188c157 0 247 163 247 322
c0 108 -59 188 -166 188c-156 0 -246 -163 -246 -322z" />
    <glyph glyph-name="R" unicode="R" horiz-adv-x="633" 
d="M21 0l147 692h259c131 0 225 -67 225 -180c0 -118 -79 -194 -195 -219l110 -293h-119l-106 284h-146l-61 -284h-114zM384 383c87 0 151 45 151 123c0 59 -44 86 -112 86h-162l-44 -209h167z" />
    <glyph glyph-name="S" unicode="S" horiz-adv-x="615" 
d="M455 192c0 65 -86 97 -171 130c-79 30 -171 86 -171 183c0 122 107 199 237 199c132 0 254 -79 275 -196l-112 -62v5c0 86 -69 155 -164 155c-63 0 -120 -32 -120 -91c0 -64 86 -84 169 -121c92 -40 172 -89 172 -190c0 -130 -109 -216 -258 -216s-276 89 -286 226
l112 62v-10c0 -100 72 -180 182 -180c76 0 135 38 135 106z" />
    <glyph glyph-name="T" unicode="T" horiz-adv-x="549" 
d="M78 588l23 104h538l-22 -104h-211l-125 -588h-116l125 588h-212z" />
    <glyph glyph-name="U" unicode="U" horiz-adv-x="673" 
d="M615 277c-43 -191 -139 -289 -320 -289c-135 0 -230 81 -230 213c0 31 5 65 12 98l84 393h115l-88 -413c-6 -28 -8 -49 -8 -71c0 -78 48 -117 126 -117c113 0 168 67 193 184l89 417h116z" />
    <glyph glyph-name="V" unicode="V" horiz-adv-x="638" 
d="M222 692l55 -467c4 -38 9 -104 9 -104h3s32 67 52 104l255 467h128l-388 -692h-139l-94 692h119z" />
    <glyph glyph-name="W" unicode="W" horiz-adv-x="848" 
d="M582 692l5 -467c0 -35 -2 -81 -3 -106h3s18 64 33 102l188 471h123l-290 -692h-144l-7 452c-1 41 2 86 3 112h-2s-20 -60 -43 -112l-200 -452h-144l5 692h117l-14 -471c-1 -38 -8 -102 -8 -102h3s24 68 40 106l204 467h131z" />
    <glyph glyph-name="X" unicode="X" horiz-adv-x="617" 
d="M315 282h-2s-29 -43 -61 -83l-160 -199h-135l303 367l-138 325h124l69 -171c16 -41 31 -83 31 -83h3s28 38 60 78l141 176h133l-282 -341l154 -351h-123l-85 199c-16 39 -32 83 -32 83z" />
    <glyph glyph-name="Y" unicode="Y" horiz-adv-x="583" 
d="M189 0l55 263l-150 429h119l78 -235c15 -46 27 -92 27 -92h3s27 45 60 90l171 237h129l-321 -430l-55 -262h-116z" />
    <glyph glyph-name="Z" unicode="Z" horiz-adv-x="567" 
d="M-25 0l16 76l460 513h-345l22 103h504l-17 -79l-456 -510h355l-22 -103h-517z" />
    <glyph glyph-name="ampersand" unicode="&#x26;" horiz-adv-x="669" 
d="M322 338c22 -69 57 -130 90 -176c52 55 95 136 120 241l93 -60c-34 -92 -88 -172 -160 -239c13 -13 28 -24 53 -24c29 0 46 21 55 42l42 -87c-24 -24 -66 -47 -115 -47c-55 0 -89 24 -113 49c-43 -27 -97 -49 -164 -49c-119 0 -201 61 -201 161c0 109 90 177 184 225
c-7 35 -11 69 -11 102c0 121 72 228 210 228c83 0 145 -55 145 -131c0 -114 -128 -180 -228 -235zM331 98c-42 58 -79 127 -104 199c-48 -33 -91 -75 -91 -131c0 -58 44 -91 106 -91c36 0 64 10 89 23zM298 480c0 -24 2 -47 6 -70c59 33 148 84 148 149c0 35 -22 58 -57 58
c-64 -1 -97 -70 -97 -137z" />
    <glyph glyph-name="AE" unicode="&#xc6;" horiz-adv-x="898" 
d="M394 0l37 177h-221l-133 -177h-135l526 692h479l-22 -99h-293l-40 -190h276l-20 -97h-277l-44 -207h301l-20 -99h-414zM457 506l-176 -234h170l69 321h-3s-30 -47 -60 -87z" />
    <glyph glyph-name="OE" unicode="&#x152;" horiz-adv-x="912" 
d="M430 704c36 0 75 -4 111 -12h420l-21 -99h-294l-39 -190h276l-21 -97h-276l-45 -207h302l-21 -99h-411c-26 -7 -54 -12 -84 -12c-165 0 -271 126 -271 287c0 224 146 429 374 429zM532 582c-27 14 -62 23 -106 23c-156 0 -253 -167 -253 -326c0 -108 60 -192 166 -192
c34 0 64 7 92 19z" />
    <glyph glyph-name="Eth" unicode="&#xd0;" horiz-adv-x="739" 
d="M329 0h-262l66 312h-93l18 84h93l63 296h223c173 0 289 -118 289 -275c0 -223 -145 -417 -397 -417zM348 102c172 0 261 159 261 310c0 105 -67 178 -177 178h-126l-41 -194h152l-18 -84h-152l-45 -210h146z" />
    <glyph glyph-name="Dcroat" unicode="&#x110;" horiz-adv-x="739" 
d="M329 0h-262l66 312h-93l18 84h93l63 296h223c173 0 289 -118 289 -275c0 -223 -145 -417 -397 -417zM348 102c172 0 261 159 261 310c0 105 -67 178 -177 178h-126l-41 -194h152l-18 -84h-152l-45 -210h146z" />
    <glyph glyph-name="Hbar" unicode="&#x126;" horiz-adv-x="782" 
d="M810 497h-92l-105 -497h-113l63 298h-322l-63 -298h-113l105 497h-91l18 84h91l24 111h113l-24 -111h322l24 111h113l-24 -111h92zM263 398h322l21 99h-322z" />
    <glyph glyph-name="IJ" unicode="&#x132;" horiz-adv-x="585" 
d="M70 267l91 425h115l-90 -425h-116zM62 165l114 46c-1 -9 -4 -22 -4 -39c0 -48 33 -81 94 -81c83 0 122 74 142 168l92 433h115l-90 -426c-39 -180 -116 -278 -270 -278c-123 0 -194 70 -194 160c0 9 1 17 1 17z" />
    <glyph glyph-name="Lslash" unicode="&#x141;" horiz-adv-x="562" 
d="M60 0l48 227l-77 -35l-34 84l135 61l75 355h113l-63 -298l153 70l34 -84l-211 -96l-38 -181h321l-22 -103h-434z" />
    <glyph glyph-name="Ldot" unicode="&#x13f;" horiz-adv-x="523" 
d="M298 346c0 43 30 75 78 75c37 0 64 -26 64 -61c0 -42 -31 -74 -78 -74c-38 0 -64 25 -64 60zM21 0l147 692h116l-125 -588h318l-22 -104h-434z" />
    <glyph glyph-name="Lcaron" unicode="&#x13d;" horiz-adv-x="532" 
d="M21 0l147 692h116l-125 -588h318l-22 -104h-434zM364 543c33 5 72 18 87 57h-8c-27 0 -46 16 -46 43c0 36 28 59 64 59c40 0 55 -34 55 -66c0 -67 -36 -119 -90 -138z" />
    <glyph glyph-name="Eng" unicode="&#x14a;" horiz-adv-x="708" 
d="M198 -96l102 69c4 -40 16 -82 69 -82c49 0 84 44 99 113l1 3l-173 436c-18 45 -46 127 -46 127l-3 -1c-1 -3 -11 -74 -25 -139l-91 -430h-110l147 692h145l159 -396c19 -48 37 -103 37 -103h3s13 73 26 139l77 360h110l-142 -668c-35 -165 -110 -232 -224 -232
c-81 0 -147 49 -161 112z" />
    <glyph glyph-name="Oslash" unicode="&#xd8;" horiz-adv-x="727" 
d="M332 -12c-68 0 -126 21 -171 57l-72 -74l-69 68l78 80c-25 45 -39 98 -39 156c0 224 146 429 373 429c69 0 127 -22 172 -58l71 74l70 -68l-78 -81c24 -44 38 -97 38 -154c0 -224 -145 -429 -373 -429zM171 280c0 -30 4 -56 11 -80l351 370c-27 23 -63 36 -109 36
c-158 0 -253 -166 -253 -326zM232 121c27 -23 63 -35 109 -35c158 0 253 166 253 326c0 29 -4 56 -11 79z" />
    <glyph glyph-name="Tbar" unicode="&#x166;" horiz-adv-x="563" 
d="M86 589l21 103h539l-21 -103h-212l-44 -205h122l-18 -85h-122l-63 -299h-116l63 299h-122l18 85h122l44 205h-211z" />
    <glyph glyph-name="Thorn" unicode="&#xde;" horiz-adv-x="624" 
d="M21 0l147 692h116l-23 -105h152c131 0 225 -71 225 -183c0 -148 -124 -235 -287 -235h-179l-36 -169h-115zM370 271c87 0 151 47 151 125c0 59 -44 90 -112 90h-170l-45 -215h176z" />
    <glyph glyph-name="Uogonek" unicode="&#x172;" horiz-adv-x="673" 
d="M615 277c-43 -191 -121 -226 -169 -265c-30 -24 -99 -78 -99 -121c0 -16 13 -27 29 -27c27 0 49 22 58 51l69 -51c-23 -37 -68 -72 -139 -72c-57 0 -102 33 -102 82c0 47 39 87 80 115v2c-15 -2 -31 -3 -47 -3c-135 0 -230 81 -230 213c0 31 5 65 12 98l84 393h115
l-88 -413c-6 -28 -8 -49 -8 -71c0 -78 48 -117 126 -117c113 0 168 67 193 184l89 417h116z" />
    <glyph glyph-name="a" unicode="a" horiz-adv-x="567" 
d="M288 516c79 0 123 -57 138 -99h2l19 87h110l-81 -386c-8 -37 -15 -70 -15 -93c0 -12 2 -25 2 -25h-86c-10 18 -14 36 -14 56v14h-1c-26 -39 -70 -82 -149 -82c-108 0 -176 94 -176 211c0 160 102 317 251 317zM251 79c98 0 152 121 152 222c0 72 -35 124 -104 124
c-98 0 -152 -121 -152 -222c0 -72 35 -124 104 -124z" />
    <glyph glyph-name="b" unicode="b" horiz-adv-x="570" 
d="M168 724h111l-37 -176c-10 -47 -35 -121 -35 -121h3c28 40 71 89 150 89c108 0 176 -94 176 -211c0 -160 -102 -317 -251 -317c-80 0 -125 57 -141 101h-2l-20 -89h-108zM322 425c-98 0 -152 -121 -152 -222c0 -72 35 -124 104 -124c98 0 152 121 152 222
c0 72 -35 124 -104 124z" />
    <glyph glyph-name="c" unicode="c" horiz-adv-x="509" 
d="M300 427c-99 0 -153 -123 -153 -226c0 -71 30 -124 98 -124c72 0 116 67 125 134l95 -58c-18 -73 -105 -165 -227 -165c-125 0 -201 89 -201 215c0 166 102 313 270 313c115 0 190 -80 190 -167v-3l-111 -53c2 10 5 25 5 43c0 49 -30 91 -91 91z" />
    <glyph glyph-name="d" unicode="d" horiz-adv-x="569" 
d="M365 77h-2c-27 -40 -71 -89 -150 -89c-108 0 -176 94 -176 211c0 160 102 317 251 317c79 0 124 -56 139 -99h2l66 307h111l-154 -724h-111zM251 79c98 0 152 121 152 222c0 72 -35 124 -104 124c-98 0 -152 -121 -152 -222c0 -72 35 -124 104 -124z" />
    <glyph glyph-name="e" unicode="e" horiz-adv-x="526" 
d="M478 224h-336c-1 -9 -1 -17 -1 -25c0 -73 33 -124 109 -124c67 0 105 46 120 100l95 -59c-35 -69 -119 -128 -217 -128c-138 0 -210 84 -210 216c0 165 102 312 276 312c117 0 191 -74 191 -184c0 -42 -14 -79 -27 -108zM306 431c-73 0 -122 -59 -146 -127h238
c2 9 4 18 4 31c0 54 -31 96 -96 96z" />
    <glyph glyph-name="f" unicode="f" horiz-adv-x="353" 
d="M405 599c0 26 -16 49 -49 49c-42 0 -64 -33 -76 -88l-12 -56h115l-19 -89h-115l-88 -415h-109l88 415h-83l19 89h83l13 61c25 115 91 171 190 171c81 0 130 -52 142 -100l-101 -55c1 3 2 11 2 18z" />
    <glyph glyph-name="g" unicode="g" horiz-adv-x="538" 
d="M73 33l1 2c-28 9 -53 34 -53 67c0 65 72 98 132 107l1 2c-37 20 -72 66 -72 122c0 114 101 183 217 183c47 0 81 -13 121 -13c57 0 62 51 65 98l95 -60c-8 -52 -41 -93 -96 -93c-17 0 -33 3 -45 7l-1 -3c20 -16 44 -52 44 -97c0 -114 -111 -180 -223 -180
c-56 0 -134 -16 -134 -57c0 -21 22 -29 60 -29c45 0 82 6 137 6c88 0 158 -41 158 -117c0 -145 -160 -184 -304 -184c-129 0 -231 40 -231 121c0 69 68 106 128 118zM254 4c-82 0 -209 -8 -209 -75c0 -38 62 -57 138 -57c61 0 187 14 187 81c0 44 -50 51 -116 51zM293 437
c-59 0 -110 -40 -110 -104c0 -50 41 -79 89 -79c58 0 110 39 110 103c0 50 -42 80 -89 80z" />
    <glyph glyph-name="h" unicode="h" horiz-adv-x="553" 
d="M503 296l-63 -296h-111l64 297c3 18 5 35 5 49c0 47 -29 76 -78 76c-71 0 -118 -59 -134 -134l-61 -288h-111l154 724h111l-38 -182c-11 -49 -36 -124 -36 -124h3c29 50 84 98 165 98c88 0 140 -57 140 -143c0 -18 -5 -55 -10 -77z" />
    <glyph glyph-name="i" unicode="i" horiz-adv-x="242" 
d="M14 0l107 504h112l-107 -504h-112zM133 637c0 43 30 75 78 75c37 0 64 -26 64 -61c0 -42 -31 -74 -78 -74c-38 0 -64 25 -64 60z" />
    <glyph glyph-name="j" unicode="j" horiz-adv-x="250" 
d="M-48 -208l-88 74c100 18 142 60 165 170l100 468h111l-107 -503c-25 -120 -83 -192 -181 -209zM141 637c0 43 30 75 78 75c37 0 64 -26 64 -61c0 -42 -31 -74 -78 -74c-38 0 -64 25 -64 60z" />
    <glyph glyph-name="k" unicode="k" horiz-adv-x="517" 
d="M557 504l-214 -202l127 -302h-117l-95 225l-108 -106l-25 -119h-111l154 724h111l-73 -345c-13 -61 -33 -125 -33 -125h2s47 54 87 94l159 156h136z" />
    <glyph glyph-name="l" unicode="l" horiz-adv-x="242" 
d="M14 0l154 724h112l-154 -724h-112z" />
    <glyph glyph-name="m" unicode="m" horiz-adv-x="826" 
d="M776 296l-63 -296h-110l63 297c4 18 6 35 6 49c0 47 -24 76 -69 76c-67 0 -107 -60 -123 -134l-61 -288h-110l63 297c4 19 6 35 6 49c0 47 -24 76 -69 76c-68 0 -108 -59 -124 -134l-61 -288h-110l107 504h111l-27 -86h2c29 50 79 98 157 98c68 0 108 -39 121 -97h3
c29 50 79 97 162 97c90 0 136 -57 136 -143c0 -18 -5 -55 -10 -77z" />
    <glyph glyph-name="n" unicode="n" horiz-adv-x="553" 
d="M503 296l-63 -296h-111l64 297c4 18 5 35 5 49c0 47 -29 76 -78 76c-71 0 -118 -59 -134 -134l-61 -288h-111l107 504h111l-27 -86h3c29 50 84 98 165 98c88 0 140 -57 140 -143c0 -18 -5 -55 -10 -77z" />
    <glyph glyph-name="o" unicode="o" horiz-adv-x="547" 
d="M36 201c0 166 106 315 276 315c122 0 205 -91 205 -213c0 -166 -105 -315 -276 -315c-122 0 -205 91 -205 213zM146 199c0 -70 37 -122 102 -122c102 0 159 124 159 228c0 70 -37 122 -102 122c-102 0 -159 -124 -159 -228z" />
    <glyph glyph-name="p" unicode="p" horiz-adv-x="570" 
d="M208 427h2c28 40 71 89 150 89c108 0 176 -94 176 -211c0 -160 -102 -317 -251 -317c-79 0 -124 56 -139 99h-2l-61 -283h-111l149 700h111zM322 425c-98 0 -152 -121 -152 -222c0 -72 35 -124 104 -124c98 0 152 121 152 222c0 72 -35 124 -104 124z" />
    <glyph glyph-name="q" unicode="q" horiz-adv-x="570" 
d="M432 417l18 87h109l-149 -700h-111l34 156c13 61 32 117 32 117h-2c-27 -40 -71 -89 -150 -89c-108 0 -176 94 -176 211c0 160 102 317 251 317c80 0 126 -57 141 -99h3zM251 79c98 0 152 121 152 222c0 72 -35 124 -104 124c-98 0 -152 -121 -152 -222
c0 -72 35 -124 104 -124z" />
    <glyph glyph-name="r" unicode="r" horiz-adv-x="427" 
d="M14 0l107 504h111l-27 -86h3c30 51 79 95 139 95c59 0 94 -43 94 -101c0 -36 -10 -64 -18 -86l-119 -62c16 34 32 73 32 108c0 28 -15 45 -43 45c-56 0 -94 -68 -109 -140l-59 -277h-111z" />
    <glyph glyph-name="s" unicode="s" horiz-adv-x="502" 
d="M112 190c11 -73 58 -118 133 -118c45 0 90 24 90 67c0 48 -61 63 -119 84c-65 23 -137 58 -137 135c0 101 94 158 196 158c98 0 184 -45 214 -131l-100 -51c-8 64 -58 98 -118 98c-41 0 -82 -22 -82 -62c0 -41 64 -53 129 -80c66 -27 127 -58 127 -139
c0 -101 -95 -163 -205 -163c-124 0 -208 62 -228 150z" />
    <glyph glyph-name="t" unicode="t" horiz-adv-x="353" 
d="M269 121l37 -84c-19 -19 -64 -49 -123 -49c-68 0 -112 33 -112 97c0 14 3 35 7 53l59 277h-87l19 89h87l23 110l123 64l-37 -174h119l-19 -89h-119l-59 -275c-2 -10 -4 -20 -4 -29c0 -22 12 -30 29 -30c27 0 45 24 57 40z" />
    <glyph glyph-name="u" unicode="u" horiz-adv-x="546" 
d="M54 208l63 296h111l-63 -297c-4 -18 -6 -35 -6 -49c0 -47 24 -76 73 -76c71 0 115 59 131 134l61 288h111l-107 -504h-111l27 86h-3c-29 -50 -81 -98 -162 -98c-88 0 -135 57 -135 143c0 18 5 55 10 77z" />
    <glyph glyph-name="v" unicode="v" horiz-adv-x="486" 
d="M133 0l-72 504h112l27 -240c7 -62 14 -150 14 -150h3s39 85 73 150l123 240h119l-275 -504h-124z" />
    <glyph glyph-name="w" unicode="w" horiz-adv-x="728" 
d="M397 396c0 0 -44 -97 -76 -166l-106 -230h-133l-6 504h111l-4 -196c-2 -73 -7 -194 -7 -194h2s51 121 85 193l94 197h123l9 -196c3 -73 3 -194 3 -194h3s47 121 76 194l79 196h113l-220 -504h-130l-8 230c-3 69 -6 166 -6 166h-2z" />
    <glyph glyph-name="x" unicode="x" horiz-adv-x="483" 
d="M230 197c0 0 -18 -29 -54 -75l-98 -122h-126l219 264l-101 240h116l35 -95c18 -49 33 -92 33 -92h3s24 36 61 84l79 103h126l-209 -252l113 -252h-117l-51 120c-19 45 -27 77 -27 77h-2z" />
    <glyph glyph-name="y" unicode="y" horiz-adv-x="479" 
d="M217 132h2s36 79 67 139l121 233h119l-288 -527c-39 -70 -92 -160 -183 -185l-84 80c67 14 122 50 157 115l11 21l-76 496h112l28 -231c7 -56 14 -141 14 -141z" />
    <glyph glyph-name="z" unicode="z" horiz-adv-x="469" 
d="M79 415l18 89h385l-13 -65l-317 -350h251l-19 -89h-398l14 65l316 350h-237z" />
    <glyph glyph-name="ae" unicode="&#xe6;" horiz-adv-x="851" 
d="M801 224h-319c-1 -11 -1 -21 -1 -30c0 -72 37 -119 102 -119c64 0 94 44 110 100l94 -59c-33 -72 -101 -128 -199 -128c-61 0 -108 28 -131 76h-2l-14 -65h-107l15 65h-3c-24 -37 -65 -76 -138 -76c-105 0 -171 94 -171 211c0 160 98 317 244 317c76 0 116 -43 135 -91h3
l17 78h107l-14 -62h4c35 44 81 75 140 75c93 0 155 -73 155 -168c0 -44 -8 -83 -27 -124zM246 79c96 0 146 121 146 222c0 72 -31 124 -98 124c-97 0 -147 -121 -147 -222c0 -72 31 -124 99 -124zM639 431c-71 0 -116 -60 -139 -127h220c0 2 4 17 4 35c0 50 -24 92 -85 92z
" />
    <glyph glyph-name="oe" unicode="&#x153;" horiz-adv-x="847" 
d="M37 201c0 166 101 315 260 315c73 0 129 -37 159 -96c43 58 107 96 189 96c113 0 181 -74 181 -184c0 -42 -13 -79 -26 -108h-318c-1 -9 -1 -17 -1 -25c0 -73 28 -124 100 -124c64 0 96 46 111 100l95 -59c-34 -69 -113 -128 -208 -128c-81 0 -135 34 -164 94
c-43 -57 -105 -94 -181 -94c-118 0 -197 91 -197 213zM147 199c0 -70 33 -122 97 -122c92 0 145 124 145 228c0 70 -34 122 -97 122c-93 0 -145 -124 -145 -228zM637 431c-71 0 -116 -59 -139 -127h221c3 9 5 18 5 31c0 54 -26 96 -87 96z" />
    <glyph glyph-name="germandbls" unicode="&#xdf;" horiz-adv-x="562" 
d="M300 367l19 86c67 17 122 58 122 120c0 46 -29 74 -81 74c-59 0 -106 -40 -124 -127l-111 -520h-111l111 523c32 153 125 213 244 213c100 0 181 -61 181 -148c0 -81 -63 -139 -133 -163l-1 -3c56 -21 109 -75 109 -169c0 -142 -87 -265 -222 -265c-66 0 -115 28 -134 62
l59 80c8 -20 30 -51 70 -51c84 0 117 102 117 174c0 67 -39 109 -115 114z" />
    <glyph glyph-name="dotlessi" unicode="&#x131;" horiz-adv-x="242" 
d="M14 0l107 504h112l-107 -504h-112z" />
    <glyph glyph-name="dotlessj" unicode="&#xf6be;" horiz-adv-x="253" 
d="M-45 -208l-88 74c100 18 142 60 165 170l100 468h111l-107 -503c-25 -120 -83 -192 -181 -209z" />
    <glyph glyph-name="eth" unicode="&#xf0;" horiz-adv-x="557" 
d="M554 653l-87 -45c43 -59 68 -132 68 -216c0 -179 -81 -404 -296 -404c-123 0 -206 84 -206 206c0 136 93 282 254 282c68 0 126 -38 145 -84l3 1c0 65 -22 124 -59 168l-114 -59l-39 68l96 50c-29 23 -62 42 -96 58l95 58c36 -20 69 -41 97 -66l99 52zM294 388
c-101 0 -153 -102 -153 -194c0 -71 39 -117 110 -117c101 0 153 105 153 198c0 71 -39 113 -110 113z" />
    <glyph glyph-name="dcroat" unicode="&#x111;" horiz-adv-x="589" 
d="M365 77h-2c-27 -40 -71 -89 -150 -89c-108 0 -176 94 -176 211c0 160 102 317 251 317c79 0 124 -56 139 -99h3l30 140h-107l17 79h107l19 88h108l-19 -88h90l-17 -79h-90l-118 -557h-109zM251 79c98 0 152 121 152 222c0 72 -35 124 -104 124c-98 0 -152 -121 -152 -222
c0 -72 35 -124 104 -124z" />
    <glyph glyph-name="dcaron" unicode="&#x10f;" horiz-adv-x="719" 
d="M365 77h-2c-27 -40 -71 -89 -150 -89c-108 0 -176 94 -176 211c0 160 102 317 251 317c79 0 124 -56 139 -99h2l66 307h111l-154 -724h-111zM251 79c98 0 152 121 152 222c0 72 -35 124 -104 124c-98 0 -152 -121 -152 -222c0 -72 35 -124 104 -124zM638 576
c33 5 72 18 87 57h-8c-27 0 -46 16 -46 43c0 36 28 59 64 59c40 0 55 -34 55 -66c0 -67 -36 -119 -90 -138z" />
    <glyph glyph-name="hbar" unicode="&#x127;" horiz-adv-x="559" 
d="M371 636l-17 -79h-115l-3 -15c-11 -49 -33 -124 -33 -124h2c30 50 85 98 165 98c89 0 141 -57 141 -143c0 -18 -5 -55 -10 -77l-63 -296h-111l63 297c4 18 6 35 6 49c0 47 -29 76 -78 76c-71 0 -118 -59 -134 -134l-61 -288h-111l118 557h-81l16 79h82l19 88h108l-19 -88
h116z" />
    <glyph glyph-name="ij" unicode="&#x133;" horiz-adv-x="484" 
d="M14 0l107 504h112l-107 -504h-112zM186 -208l-88 74c100 18 142 60 165 170l100 468h111l-107 -503c-25 -120 -83 -192 -181 -209zM133 637c0 43 30 75 78 75c37 0 64 -26 64 -61c0 -42 -31 -74 -78 -74c-38 0 -64 25 -64 60zM375 637c0 43 30 75 78 75
c37 0 64 -26 64 -61c0 -42 -31 -74 -78 -74c-38 0 -64 25 -64 60z" />
    <glyph glyph-name="lslash" unicode="&#x142;" horiz-adv-x="375" 
d="M407 374l-155 -71l-64 -303h-109l53 248l-90 -41l-35 81l148 67l78 369h109l-67 -314l97 45z" />
    <glyph glyph-name="ldot" unicode="&#x140;" horiz-adv-x="422" 
d="M14 0l154 724h112l-154 -724h-112zM266 302c0 43 30 75 78 75c37 0 64 -26 64 -61c0 -42 -31 -74 -78 -74c-38 0 -64 25 -64 60z" />
    <glyph glyph-name="lcaron" unicode="&#x13e;" horiz-adv-x="392" 
d="M14 0l154 724h112l-154 -724h-112zM303 576c33 5 72 18 87 57h-8c-27 0 -46 16 -46 43c0 36 28 59 64 59c40 0 55 -34 55 -66c0 -67 -36 -119 -90 -138z" />
    <glyph glyph-name="eng" unicode="&#x14b;" horiz-adv-x="548" 
d="M259 -208l-87 74c100 18 142 60 165 170l56 261c4 18 5 35 5 49c0 47 -29 76 -78 76c-71 0 -118 -59 -134 -134l-61 -288h-111l107 504h111l-27 -86h3c29 50 84 98 165 98c88 0 140 -57 140 -143c0 -18 -5 -55 -10 -77l-62 -295c-26 -120 -83 -192 -182 -209z" />
    <glyph glyph-name="oslash" unicode="&#xf8;" horiz-adv-x="557" 
d="M67 -29l-63 66l61 60c-14 30 -22 66 -22 104c0 166 104 315 269 315c49 0 92 -14 126 -39l56 56l63 -65l-61 -61c15 -31 23 -66 23 -104c0 -166 -105 -315 -269 -315c-51 0 -94 14 -127 39zM183 97c18 -15 41 -23 73 -23c103 0 160 126 160 231c0 9 -1 18 -2 27zM146 199
c0 -10 0 -19 1 -27l230 235c-18 15 -41 23 -72 23c-103 0 -159 -126 -159 -231z" />
    <glyph glyph-name="longs" unicode="&#x17f;" horiz-adv-x="251" 
d="M367 599c0 26 -16 49 -49 49c-42 0 -62 -33 -74 -88l-119 -560h-111l120 565c25 115 91 171 189 171c81 0 131 -52 143 -100l-101 -55c1 3 2 11 2 18z" />
    <glyph glyph-name="thorn" unicode="&#xfe;" horiz-adv-x="570" 
d="M241 542c-13 -61 -33 -115 -33 -115h2c28 40 71 89 150 89c108 0 176 -94 176 -211c0 -160 -102 -317 -251 -317c-79 0 -124 56 -139 99h-3l-60 -283h-111l196 920h111zM322 425c-98 0 -152 -121 -152 -222c0 -72 35 -124 104 -124c98 0 152 121 152 222
c0 72 -35 124 -104 124z" />
    <glyph glyph-name="tcaron" unicode="&#x165;" horiz-adv-x="477" 
d="M269 121l37 -84c-19 -19 -64 -49 -123 -49c-68 0 -112 33 -112 97c0 14 3 35 7 53l59 277h-87l19 89h87l23 110l123 64l-37 -174h119l-19 -89h-119l-59 -275c-2 -10 -4 -20 -4 -29c0 -22 12 -30 29 -30c27 0 45 24 57 40zM418 549c33 5 72 18 87 57h-8
c-27 0 -46 16 -46 43c0 36 28 59 64 59c40 0 55 -34 55 -66c0 -67 -36 -119 -90 -138z" />
    <glyph glyph-name="tbar" unicode="&#x167;" horiz-adv-x="380" 
d="M25 245l17 79h96l20 92h-87l18 88h87l24 110l120 64l-37 -174h122l-19 -88h-122l-20 -92h129l-17 -79h-129l-22 -105c-2 -10 -4 -20 -4 -29c0 -22 14 -30 31 -30c27 0 46 24 58 40l36 -84c-18 -19 -64 -49 -122 -49c-68 0 -112 33 -112 97c0 14 3 35 7 53l22 107h-96z
" />
    <glyph glyph-name="eogonek" unicode="&#x119;" horiz-adv-x="526" 
d="M171 -127c0 53 49 90 79 112v3h-2c-138 0 -211 84 -211 216c0 165 103 312 277 312c117 0 191 -74 191 -184c0 -42 -13 -79 -26 -108h-337c-1 -9 -1 -17 -1 -25c0 -73 33 -124 109 -124c67 0 105 46 121 100l3 -2v2l91 -59c-24 -46 -52 -68 -98 -101
c-44 -32 -111 -81 -111 -124c0 -16 12 -27 29 -27c26 0 46 20 56 46l65 -55c-25 -35 -72 -63 -131 -63c-58 0 -104 34 -104 81zM306 431c-73 0 -122 -59 -146 -127h238c2 9 4 18 4 31c0 54 -31 96 -96 96z" />
    <glyph glyph-name="uniFB00" unicode="&#xfb00;" horiz-adv-x="683" 
d="M736 599c0 26 -16 49 -49 49c-42 0 -64 -33 -76 -88l-12 -56h115l-19 -89h-115l-88 -415h-109l88 415h-72l19 89h72l13 61c25 115 91 171 189 171c82 0 131 -52 143 -100l-101 -55c1 3 2 11 2 18zM400 598c0 27 -12 50 -47 50c-42 0 -61 -33 -73 -88l-12 -56h104l-18 -89
h-105l-88 -415h-109l88 415h-83l19 89h83l13 61c25 115 88 171 184 171c77 0 118 -48 131 -90l-88 -63s1 7 1 15z" />
    <glyph glyph-name="fi" unicode="&#xfb01;" horiz-adv-x="559" 
d="M52 0l88 415h-83l19 89h83l7 30c32 145 117 202 229 202c82 0 145 -39 169 -104l-107 -58v6c0 39 -25 67 -70 67c-55 0 -97 -37 -114 -117l-5 -26h110l-18 -89h-111l-88 -415h-109zM331 0l107 504h111l-107 -504h-111z" />
    <glyph glyph-name="fl" unicode="&#xfb02;" horiz-adv-x="566" 
d="M337 0l117 546c3 15 4 26 4 36c0 43 -31 65 -74 65c-56 0 -93 -34 -109 -110l-7 -33h112l-19 -89h-112l-88 -415h-109l88 415h-83l19 89h83l10 48c27 128 102 184 193 184c63 0 102 -35 117 -67h4l12 55h108l-154 -724h-112z" />
    <glyph glyph-name="uniFB03" unicode="&#xfb03;" horiz-adv-x="946" 
d="M400 598c0 27 -12 50 -47 50c-42 0 -61 -33 -73 -88l-12 -56h104l-18 -89h-105l-88 -415h-109l88 415h-83l19 89h83l13 61c25 115 88 171 184 171c77 0 118 -48 131 -90l-88 -63s1 7 1 15zM731 587c0 37 -16 59 -48 59c-42 0 -60 -32 -72 -87l-12 -55h119l-19 -89h-119
l-88 -415h-109l88 415h-72l19 89h72l14 61c26 115 87 171 182 171c72 0 110 -41 125 -80l-80 -73v4zM718 0l107 504h112l-107 -504h-112zM837 637c0 43 30 75 78 75c37 0 64 -26 64 -61c0 -42 -31 -74 -78 -74c-38 0 -64 25 -64 60z" />
    <glyph glyph-name="uniFB04" unicode="&#xfb04;" horiz-adv-x="946" 
d="M400 598c0 27 -12 50 -47 50c-42 0 -61 -33 -73 -88l-12 -56h104l-18 -89h-105l-88 -415h-109l88 415h-83l19 89h83l13 61c25 115 88 171 184 171c77 0 118 -48 131 -90l-88 -63s1 7 1 15zM731 587c0 37 -16 59 -48 59c-42 0 -60 -32 -72 -87l-12 -55h119l-19 -89h-119
l-88 -415h-109l88 415h-72l19 89h72l14 61c26 115 87 171 182 171c72 0 110 -41 125 -80l-80 -73v4zM718 0l154 724h112l-154 -724h-112z" />
    <glyph glyph-name="t_f" horiz-adv-x="698" 
d="M269 121l37 -84c-19 -19 -64 -49 -123 -49c-68 0 -112 33 -112 97c0 14 3 35 7 53l59 277h-87l19 89h87l23 110l123 64l-37 -174h109l-19 -89h-109l-59 -275c-2 -10 -4 -20 -4 -29c0 -22 12 -30 29 -30c27 0 45 24 57 40zM751 599c0 26 -16 49 -49 49
c-42 0 -64 -33 -76 -88l-12 -56h118l-18 -89h-119l-88 -415h-109l88 415h-77l19 89h77l13 61c25 115 91 171 189 171c81 0 131 -52 143 -100l-101 -55c1 3 2 11 2 18z" />
    <glyph glyph-name="grave" unicode="`" horiz-adv-x="547" 
d="M402 593l-51 -39c-53 27 -117 78 -150 135l87 66c21 -55 67 -121 114 -162z" />
    <glyph glyph-name="acute" unicode="&#xb4;" horiz-adv-x="547" 
d="M329 554l-39 47c66 43 113 95 151 154l71 -79c-48 -55 -115 -98 -183 -122z" />
    <glyph glyph-name="hungarumlaut" unicode="&#x2dd;" horiz-adv-x="547" 
d="M247 554l-37 44c66 46 107 99 145 158l69 -74c-48 -56 -111 -100 -177 -128zM423 554l-37 44c65 46 108 99 146 158l69 -74c-48 -56 -112 -100 -178 -128z" />
    <glyph glyph-name="dotaccent" unicode="&#x2d9;" horiz-adv-x="547" 
d="M282 637c0 43 30 75 78 75c37 0 64 -26 64 -61c0 -42 -31 -74 -78 -74c-38 0 -64 25 -64 60z" />
    <glyph glyph-name="dieresis" unicode="&#xa8;" horiz-adv-x="547" 
d="M194 635c0 42 29 74 74 74c37 0 61 -24 61 -58c0 -42 -30 -74 -75 -74c-36 0 -60 24 -60 58zM384 635c0 42 29 74 74 74c37 0 61 -24 61 -58c0 -42 -30 -74 -75 -74c-36 0 -60 24 -60 58z" />
    <glyph glyph-name="circumflex" unicode="&#x2c6;" horiz-adv-x="547" 
d="M354 637h-2c-31 -35 -74 -70 -119 -87l-53 73c63 26 102 47 143 91h75c27 -42 61 -70 114 -99l-61 -66c-41 21 -75 56 -97 88z" />
    <glyph glyph-name="caron" unicode="&#x2c7;" horiz-adv-x="547" 
d="M347 638h3c30 36 73 70 119 88l52 -73c-62 -26 -102 -47 -142 -91h-75c-27 41 -62 70 -115 98l62 66c40 -20 74 -56 96 -88z" />
    <glyph glyph-name="macron" unicode="&#xaf;" horiz-adv-x="547" 
d="M219 593l19 90h260l-19 -90h-260z" />
    <glyph glyph-name="tilde" unicode="&#x2dc;" horiz-adv-x="547" 
d="M528 667c-12 -48 -53 -97 -106 -97c-63 0 -83 54 -122 54c-25 0 -35 -29 -40 -54l-71 43c12 48 53 97 106 97c63 0 83 -53 122 -53c25 0 35 28 40 53z" />
    <glyph glyph-name="breve" unicode="&#x2d8;" horiz-adv-x="547" 
d="M422 711l86 -31c-19 -73 -82 -121 -165 -121c-68 0 -125 41 -125 112c0 5 1 9 1 9l86 31c-1 -3 -4 -14 -4 -26c0 -29 17 -49 51 -49c45 0 67 33 70 75z" />
    <glyph glyph-name="ring" unicode="&#x2da;" horiz-adv-x="547" 
d="M244 651c0 63 53 118 127 118c59 0 106 -43 106 -99c0 -63 -54 -117 -127 -117c-60 0 -106 42 -106 98zM367 708c-32 0 -54 -26 -54 -55c0 -23 15 -40 41 -40c31 0 53 26 53 55c0 23 -15 40 -40 40z" />
    <glyph glyph-name="caronquoteleft" horiz-adv-x="547" 
d="M442 711c-34 -6 -73 -18 -88 -58c3 1 6 1 10 1c26 0 46 -16 46 -43c0 -36 -28 -59 -65 -59c-39 0 -55 34 -55 66c0 67 37 119 90 138z" />
    <glyph glyph-name="caronquoteright" horiz-adv-x="547" 
d="M278 597c33 5 72 18 87 57h-8c-27 0 -46 16 -46 43c0 36 28 59 64 59c40 0 55 -34 55 -66c0 -67 -36 -119 -90 -138z" />
    <glyph glyph-name="uni0326" unicode="&#x326;" horiz-adv-x="547" 
d="M111 -215c33 5 72 18 87 58c-3 -1 -6 -1 -9 -1c-26 0 -46 16 -46 43c0 36 29 58 65 58c39 0 55 -33 55 -66c0 -66 -36 -118 -90 -137z" />
    <glyph glyph-name="cedilla" unicode="&#xb8;" horiz-adv-x="547" 
d="M205 15l58 -8l-22 -45c39 -7 73 -32 73 -76c0 -55 -57 -94 -117 -94c-57 0 -94 27 -110 59l64 39c6 -20 21 -41 50 -41c24 0 40 14 40 36c0 16 -13 29 -30 29c-16 0 -27 -9 -27 -9l-37 41z" />
    <glyph glyph-name="ogonek" unicode="&#x2db;" horiz-adv-x="547" 
d="M289 -90l65 -55c-25 -35 -72 -63 -131 -63c-58 0 -104 35 -104 82c0 51 43 85 88 115l55 35l62 -24l-48 -33c-36 -26 -72 -48 -72 -76c0 -16 12 -27 29 -27c26 0 46 20 56 46z" />
    <glyph glyph-name="zero" unicode="0" horiz-adv-x="608" 
d="M374 603c-141 0 -205 -241 -205 -360c0 -91 28 -154 109 -154c141 0 204 241 204 360c0 91 -28 154 -108 154zM53 239c0 202 106 465 332 465c140 0 214 -112 214 -251c0 -202 -106 -465 -333 -465c-139 0 -213 112 -213 251z" />
    <glyph glyph-name="one" unicode="1" horiz-adv-x="372" 
d="M250 539h-2c-28 -32 -79 -59 -126 -69l-43 98c92 23 175 68 227 124h85l-147 -692h-113l93 436c11 53 26 103 26 103z" />
    <glyph glyph-name="two" unicode="2" horiz-adv-x="540" 
d="M215 358l-107 59s-6 18 -6 46c0 137 99 241 244 241c119 0 208 -82 208 -194c0 -227 -315 -323 -379 -405v-3h293l-22 -102h-428v7c0 227 421 290 421 498c0 56 -38 101 -98 101c-97 0 -133 -90 -133 -183c0 -25 5 -53 7 -65z" />
    <glyph glyph-name="three" unicode="3" horiz-adv-x="538" 
d="M238 -12c-127 0 -212 76 -217 180l108 56s-1 -9 -1 -22c0 -65 41 -116 116 -116c85 0 143 75 143 159c0 63 -39 107 -103 107c-51 0 -87 -18 -118 -35l-22 100l243 174h-255l22 101h423l-16 -85l-165 -118c-44 -30 -107 -64 -107 -64l1 -2s13 4 27 4
c110 0 182 -77 182 -184c0 -140 -107 -255 -261 -255z" />
    <glyph glyph-name="four" unicode="4" horiz-adv-x="563" 
d="M328 186h-283l-13 71c109 131 191 274 224 447l103 -58c-39 -157 -120 -268 -194 -360h184l86 406h109l-86 -406h91l-21 -100h-91l-40 -186h-109z" />
    <glyph glyph-name="five" unicode="5" horiz-adv-x="546" 
d="M239 -12c-126 0 -212 76 -217 180l109 56s-1 -9 -1 -22c0 -65 40 -116 115 -116c96 1 155 95 155 184c0 67 -32 115 -102 115c-58 0 -102 -40 -126 -88l-93 49l120 346h359l-22 -101h-265l-32 -92c-16 -46 -35 -82 -35 -82h1c26 29 76 58 133 58c115 0 175 -97 175 -205
c0 -149 -111 -282 -274 -282z" />
    <glyph glyph-name="six" unicode="6" horiz-adv-x="567" 
d="M399 704c95 0 178 -60 186 -144l-107 -59s1 6 1 13c0 51 -33 93 -93 93c-88 0 -168 -90 -205 -224h3c35 52 98 81 162 81c108 0 189 -81 189 -201c0 -145 -108 -275 -267 -275c-148 0 -216 102 -216 241c0 211 109 475 347 475zM272 82c93 0 153 86 153 180
c0 68 -41 113 -110 113c-94 0 -155 -76 -155 -170c0 -71 42 -123 112 -123z" />
    <glyph glyph-name="seven" unicode="7" horiz-adv-x="512" 
d="M597 692l-15 -78c-144 -174 -262 -388 -324 -614h-128c66 234 197 440 321 590h-242l-34 -159l-93 57l43 204h472z" />
    <glyph glyph-name="eight" unicode="8" horiz-adv-x="574" 
d="M254 -12c-125 0 -225 75 -225 187c0 113 93 181 181 200v2c-53 27 -89 73 -89 132c0 118 119 195 248 195c108 0 199 -72 199 -168c0 -89 -70 -151 -152 -171v-3c42 -18 110 -62 110 -154c0 -131 -128 -220 -272 -220zM140 185c0 -61 53 -103 123 -103
c81 0 154 53 154 135c0 61 -54 103 -123 103c-82 0 -154 -53 -154 -135zM227 499c0 -49 41 -85 103 -85c65 0 132 40 132 110c0 49 -41 86 -103 86c-65 0 -132 -41 -132 -111z" />
    <glyph glyph-name="nine" unicode="9" horiz-adv-x="565" 
d="M246 -12c-100 0 -188 60 -195 150l107 58s-1 -6 -1 -12c0 -57 36 -99 98 -99c95 0 151 101 180 238h-2c-33 -54 -98 -84 -163 -84c-115 0 -195 86 -195 203c0 142 107 262 260 262c148 0 222 -101 222 -243c0 -189 -70 -473 -311 -473zM333 610c-88 0 -149 -77 -149 -167
c0 -71 43 -115 115 -115c88 0 149 71 149 162c0 68 -43 120 -115 120z" />
    <glyph glyph-name="zero.zero" horiz-adv-x="608" 
d="M374 606c-143 0 -208 -243 -208 -363c0 -92 30 -157 112 -157c143 0 208 243 208 363c0 92 -30 157 -112 157zM53 239c0 202 106 465 332 465c140 0 214 -112 214 -251c0 -202 -106 -465 -333 -465c-139 0 -213 112 -213 251zM254 337c0 49 33 87 81 87
c38 0 64 -28 64 -65c0 -49 -33 -87 -81 -87c-38 0 -64 28 -64 65z" />
    <glyph glyph-name="currency" unicode="&#xa4;" 
d="M525 381c0 -51 -20 -100 -52 -139l71 -86l-75 -60l-70 85c-30 -15 -64 -24 -99 -24c-36 0 -70 11 -99 31l-97 -81l-61 71l97 80c-10 21 -15 44 -15 68c0 49 18 95 47 134l-71 87l76 61l68 -85c31 17 67 28 105 28c36 0 70 -12 99 -32l94 79l60 -70l-94 -79
c10 -21 16 -44 16 -68zM308 245c72 0 119 64 119 133c0 50 -33 84 -86 84c-72 0 -119 -64 -119 -133c0 -50 33 -84 86 -84z" />
    <glyph glyph-name="dollar" unicode="$" horiz-adv-x="606" 
d="M195 -92l22 104c-103 25 -182 94 -187 201l107 59s-1 -5 -1 -16c0 -70 36 -129 104 -153l44 211c-82 31 -171 83 -171 184c0 117 112 191 242 191h6l20 93h95l-23 -107c88 -26 158 -87 169 -167l-108 -59s1 5 1 13c0 56 -33 101 -84 123l-41 -193
c90 -39 176 -80 176 -188c0 -118 -107 -199 -256 -201l-20 -95h-95zM458 193c0 50 -39 78 -89 99l-43 -200c78 4 132 43 132 101zM222 508c0 -46 35 -70 84 -91l39 183c-65 -3 -123 -37 -123 -92z" />
    <glyph glyph-name="cent" unicode="&#xa2;" horiz-adv-x="572" 
d="M181 -92l21 102c-95 21 -154 94 -154 199c0 150 103 279 260 297l21 96h96l-21 -101c91 -20 146 -82 146 -143c0 -7 -1 -11 -1 -11l-104 -51c3 10 4 21 4 35c0 37 -23 71 -67 84l-69 -321c64 15 103 64 113 116l91 -56c-22 -66 -106 -136 -220 -148l-20 -98h-96zM153 208
c0 -54 23 -95 71 -111l68 319c-87 -24 -139 -117 -139 -208z" />
    <glyph glyph-name="Euro" unicode="&#x20ac;" horiz-adv-x="650" 
d="M456 373h-196c-5 -22 -9 -43 -12 -64h175l-46 -82h-133c2 -82 31 -144 115 -144c86 0 138 80 150 165l97 -68c-28 -93 -122 -192 -255 -192c-134 0 -214 86 -218 239h-89l17 82h76c2 21 6 42 11 64h-73l18 83h79c49 133 146 248 298 248c116 0 199 -78 203 -189l-110 -59
c1 9 4 25 4 41c0 58 -31 111 -105 111c-83 0 -141 -68 -176 -152h215z" />
    <glyph glyph-name="yen" unicode="&#xa5;" horiz-adv-x="611" 
d="M533 182h-186l-38 -182h-110l38 182h-185l17 82h185v2l-21 64h-149l17 82h105l-94 280h118l69 -233c14 -47 27 -97 27 -97h2s32 49 65 96l168 234h129l-214 -280h106l-18 -82h-150l-49 -64v-2h185z" />
    <glyph glyph-name="sterling" unicode="&#xa3;" horiz-adv-x="574" 
d="M407 293h-132v-9c0 -81 -33 -142 -89 -183h321l-21 -101h-465l17 80c83 42 126 116 126 212v1h-115l19 89h88c-2 20 -3 41 -3 61c0 157 85 261 243 261c114 0 201 -74 207 -182l-106 -55c1 6 2 16 2 27c0 65 -35 113 -103 113c-95 0 -132 -70 -132 -166
c0 -20 1 -39 3 -59h188z" />
    <glyph glyph-name="florin" unicode="&#x192;" horiz-adv-x="549" 
d="M130 32l82 328h-93l18 89h97l15 58c36 144 120 197 219 197c77 0 142 -41 159 -108l-101 -55v7c0 39 -22 67 -63 67c-46 0 -82 -32 -101 -109l-15 -57h169l-47 -89h-144l-83 -330c-35 -137 -111 -191 -208 -191c-74 0 -133 39 -147 100l101 55v-4c0 -35 17 -62 51 -62
c41 0 72 30 91 104z" />
    <glyph glyph-name="zero.tf" 
d="M370 603c-134 0 -196 -242 -196 -362c0 -89 26 -152 99 -152c134 0 195 242 195 362c0 89 -26 152 -98 152zM59 239c0 204 101 465 322 465c134 0 203 -111 203 -251c0 -204 -101 -465 -323 -465c-134 0 -202 111 -202 251z" />
    <glyph glyph-name="one.tf" 
d="M351 538h-2c-37 -42 -105 -78 -165 -90l-43 99c108 27 211 80 266 145h85l-127 -595h163l-21 -97h-443l20 97h168l73 339c11 53 26 102 26 102z" />
    <glyph glyph-name="two.tf" 
d="M242 358l-107 59s-6 18 -6 46c0 137 99 241 244 241c119 0 208 -82 208 -194c0 -227 -315 -323 -379 -405v-3h293l-22 -102h-428v7c0 227 421 290 421 498c0 56 -38 101 -98 101c-97 0 -133 -90 -133 -183c0 -25 5 -53 7 -65z" />
    <glyph glyph-name="three.tf" 
d="M267 -12c-127 0 -212 76 -217 180l108 56s-1 -9 -1 -22c0 -65 41 -116 116 -116c85 0 143 75 143 159c0 63 -39 107 -103 107c-51 0 -87 -18 -118 -35l-22 100l243 174h-255l22 101h423l-16 -85l-165 -118c-44 -30 -107 -64 -107 -64l1 -2s13 4 27 4
c110 0 182 -77 182 -184c0 -140 -107 -255 -261 -255z" />
    <glyph glyph-name="four.tf" 
d="M334 186h-274l-13 71c103 131 183 274 214 447l103 -58c-36 -156 -116 -273 -185 -360h176l86 406h109l-86 -406h91l-21 -100h-91l-40 -186h-109z" />
    <glyph glyph-name="five.tf" 
d="M272 -12c-126 0 -212 76 -217 180l109 56s-1 -9 -1 -22c0 -65 40 -116 115 -116c96 1 155 95 155 184c0 67 -32 115 -102 115c-58 0 -102 -40 -126 -88l-93 49l120 346h359l-22 -101h-265l-32 -92c-16 -46 -35 -82 -35 -82h1c26 29 76 58 133 58c115 0 175 -97 175 -205
c0 -149 -111 -282 -274 -282z" />
    <glyph glyph-name="six.tf" 
d="M417 704c93 0 177 -60 184 -144l-107 -59s1 6 1 13c0 51 -34 93 -92 93c-87 0 -169 -89 -205 -224h4c33 52 97 81 160 81c106 0 187 -81 187 -201c0 -145 -107 -275 -265 -275c-147 0 -214 102 -214 241c0 211 110 475 347 475zM288 82c92 0 152 86 152 180
c0 68 -41 113 -109 113c-92 0 -154 -76 -154 -170c0 -71 43 -123 111 -123z" />
    <glyph glyph-name="seven.tf" 
d="M656 692l-16 -78c-148 -174 -268 -388 -332 -614h-128c68 234 202 440 329 590h-258l-34 -159l-93 57l43 204h489z" />
    <glyph glyph-name="eight.tf" 
d="M267 -12c-125 0 -223 75 -223 187c0 113 91 181 179 200v2c-53 27 -88 73 -88 132c0 118 118 195 247 195c108 0 198 -72 198 -168c0 -89 -69 -150 -151 -171l-1 -2c43 -19 110 -63 110 -155c0 -131 -127 -220 -271 -220zM154 185c0 -61 52 -103 121 -103
c82 0 153 53 153 135c0 61 -52 103 -121 103c-82 0 -153 -53 -153 -135zM241 499c0 -49 40 -85 102 -85c65 0 131 40 131 110c0 49 -40 86 -102 86c-66 0 -131 -41 -131 -111z" />
    <glyph glyph-name="nine.tf" 
d="M264 -12c-100 0 -187 60 -195 150l107 58s-1 -6 -1 -12c0 -57 36 -99 98 -99c92 0 148 101 177 238h-3c-32 -54 -95 -84 -158 -84c-115 0 -196 86 -196 203c0 142 107 262 258 262c146 0 219 -101 219 -243c0 -189 -69 -473 -306 -473zM349 610c-86 0 -146 -77 -146 -167
c0 -71 41 -115 112 -115c87 0 147 71 147 162c0 68 -42 120 -113 120z" />
    <glyph glyph-name="zero.tf.zero" 
d="M254 337c0 49 33 87 81 87c38 0 63 -28 63 -65c0 -49 -33 -87 -80 -87c-38 0 -64 28 -64 65zM370 606c-136 0 -202 -245 -202 -365c0 -91 28 -155 105 -155c136 0 201 245 201 365c0 91 -28 155 -104 155zM59 239c0 204 101 465 322 465c134 0 203 -111 203 -251
c0 -204 -101 -465 -323 -465c-134 0 -202 111 -202 251z" />
    <glyph glyph-name="currency.tf" 
d="M525 381c0 -51 -20 -100 -52 -139l71 -86l-75 -60l-70 85c-30 -15 -64 -24 -99 -24c-36 0 -70 11 -99 31l-97 -81l-61 71l97 80c-10 21 -15 44 -15 68c0 49 18 95 47 134l-71 87l76 61l68 -85c31 17 67 28 105 28c36 0 70 -12 99 -32l94 79l60 -70l-94 -79
c10 -21 16 -44 16 -68zM308 245c72 0 119 64 119 133c0 50 -33 84 -86 84c-72 0 -119 -64 -119 -133c0 -50 33 -84 86 -84z" />
    <glyph glyph-name="dollar.tf" 
d="M194 -92l22 106c-95 25 -168 94 -173 199l107 59s-1 -5 -1 -16c0 -68 31 -126 90 -151l45 210c-75 29 -158 83 -158 183c0 117 109 191 234 191l20 93h95l-23 -108c81 -26 146 -86 157 -166l-108 -59s1 5 1 13c0 55 -28 99 -72 121l-41 -192c83 -39 165 -79 165 -187
c0 -117 -105 -199 -245 -201l-20 -95h-95zM446 193c0 48 -34 75 -79 97l-42 -198c70 5 121 43 121 101zM235 508c0 -44 29 -68 71 -89l38 180c-58 -5 -109 -38 -109 -91z" />
    <glyph glyph-name="cent.tf" 
d="M190 -92l21 102c-95 21 -154 94 -154 199c0 150 103 279 260 297l21 96h96l-21 -101c91 -20 146 -82 146 -143c0 -7 -1 -11 -1 -11l-104 -51c3 10 4 21 4 35c0 37 -23 71 -67 84l-69 -321c64 15 103 64 113 116l91 -56c-22 -66 -106 -136 -220 -148l-20 -98h-96zM162 208
c0 -54 23 -95 71 -111l68 319c-87 -24 -139 -117 -139 -208z" />
    <glyph glyph-name="Euro.tf" 
d="M410 373h-178c-5 -22 -8 -43 -11 -64h157l-45 -82h-116c1 -82 23 -144 103 -144c79 0 126 80 136 165l96 -68c-27 -92 -113 -192 -241 -192c-131 0 -198 88 -201 239h-75l17 82h62c2 21 5 42 9 64h-57l18 83h62c45 133 135 248 282 248c111 0 186 -79 190 -189l-109 -59
c1 9 4 26 4 43c0 57 -27 109 -93 109c-78 0 -131 -68 -164 -152h198z" />
    <glyph glyph-name="yen.tf" 
d="M526 177h-185l-37 -177h-111l37 177h-185l18 82h185l1 4l-18 62h-154l17 82h114l-80 285h118l52 -222c11 -48 22 -108 22 -108h2s35 60 67 108l146 222h128l-201 -285h113l-17 -82h-154l-44 -62l-1 -4h184z" />
    <glyph glyph-name="sterling.tf" 
d="M418 293h-132v-9c0 -81 -33 -142 -89 -183h321l-21 -101h-465l17 80c83 42 126 116 126 212v1h-115l19 89h88c-2 20 -3 41 -3 61c0 157 85 261 243 261c114 0 201 -74 207 -182l-106 -55c1 6 2 16 2 27c0 65 -35 113 -103 113c-95 0 -132 -70 -132 -166
c0 -20 1 -39 3 -59h188z" />
    <glyph glyph-name="florin.tf" 
d="M155 32l82 328h-93l18 89h97l15 58c36 144 120 197 219 197c77 0 142 -41 159 -108l-101 -55v7c0 39 -22 67 -63 67c-46 0 -82 -32 -101 -109l-15 -57h169l-47 -89h-144l-83 -330c-35 -137 -111 -191 -208 -191c-74 0 -133 39 -147 100l101 55v-4c0 -35 17 -62 51 -62
c41 0 72 30 91 104z" />
    <glyph glyph-name="plus" unicode="+" 
d="M209 55l48 224h-206l21 98h205l47 220h103l-47 -220h206l-21 -98h-206l-48 -224h-102z" />
    <glyph glyph-name="minus" unicode="&#x2212;" 
d="M551 278h-487l21 100h487z" />
    <glyph glyph-name="multiply" unicode="&#xd7;" 
d="M94 82l-61 74l218 177l-138 175l76 61l136 -175l209 173l62 -73l-214 -174l144 -178l-76 -61l-141 178z" />
    <glyph glyph-name="divide" unicode="&#xf7;" 
d="M550 279h-486l20 98h487zM200 121c0 46 34 80 82 80c39 0 68 -28 68 -65c0 -45 -34 -79 -82 -79c-39 0 -68 28 -68 64zM284 521c0 46 34 80 82 80c39 0 67 -28 67 -65c0 -45 -34 -79 -82 -79c-39 0 -67 27 -67 64z" />
    <glyph glyph-name="equal" unicode="=" 
d="M528 184h-481l20 95h481zM568 374h-480l20 95h481z" />
    <glyph glyph-name="less" unicode="&#x3c;" 
d="M589 488l-389 -169l317 -159l-50 -90l-392 208l20 96l456 207z" />
    <glyph glyph-name="greater" unicode="&#x3e;" 
d="M45 164l389 169l-317 159l50 90l392 -208l-20 -96l-456 -207z" />
    <glyph glyph-name="plusminus" unicode="&#xb1;" 
d="M250 240l35 165h-194l19 91h195l35 168h98l-35 -168h195l-20 -91h-194l-36 -165h-98zM509 82h-486l19 93h487z" />
    <glyph glyph-name="lessequal" unicode="&#x2264;" 
d="M505 217l-407 141l21 101l439 148l29 -93l-347 -110l301 -95zM501 82h-465l19 93h465z" />
    <glyph glyph-name="greaterequal" unicode="&#x2265;" 
d="M172 607l406 -148l-22 -101l-437 -141l-29 93l346 104l-300 101zM501 82h-465l19 93h465z" />
    <glyph glyph-name="notequal" unicode="&#x2260;" 
d="M592 472l-20 -92h-163l-71 -101h213l-20 -92h-258l-109 -155l-75 50l74 105h-117l20 92h162l71 101h-212l20 92h257l109 155l76 -49l-75 -106h118z" />
    <glyph glyph-name="logicalnot" unicode="&#xac;" 
d="M86 395h486l-57 -269h-102l36 169h-385z" />
    <glyph glyph-name="asciicircum" unicode="^" 
d="M87 404l269 288h79l155 -305l-88 -44l-119 239l-222 -242z" />
    <glyph glyph-name="asciitilde" unicode="~" 
d="M570 353c-29 -64 -78 -120 -152 -120c-91 0 -135 83 -195 83c-39 0 -63 -39 -75 -81l-83 63c28 65 78 120 152 120c91 0 135 -83 195 -83c39 0 63 39 75 80z" />
    <glyph glyph-name="approxequal" unicode="&#x2248;" 
d="M549 245c-29 -57 -78 -102 -152 -102c-91 0 -135 68 -195 68c-39 0 -63 -30 -75 -66l-83 63c28 58 78 101 152 101c91 0 135 -67 195 -67c39 0 63 27 75 62zM591 443c-28 -58 -78 -104 -152 -104c-91 0 -135 67 -195 67c-39 0 -63 -28 -75 -63l-83 63c29 56 78 99 153 99
c90 0 135 -68 194 -68c40 0 63 28 75 65z" />
    <glyph glyph-name="infinity" unicode="&#x221e;" horiz-adv-x="873" 
d="M279 519c87 0 147 -55 184 -118h3c54 62 127 118 209 118c100 0 170 -74 170 -168c0 -114 -95 -214 -215 -214c-88 0 -148 54 -184 118h-3c-55 -63 -126 -118 -209 -118c-99 0 -170 74 -170 168c0 113 95 214 215 214zM506 326c20 -39 50 -92 117 -92
c60 0 117 47 117 109c0 46 -30 79 -77 79c-73 0 -118 -59 -157 -96zM403 330c-20 39 -50 92 -117 92c-60 0 -117 -47 -117 -109c0 -46 30 -79 77 -79c73 0 117 59 157 96z" />
    <glyph glyph-name="numbersign" unicode="#" horiz-adv-x="693" 
d="M501 508l74 184h102l-73 -184h108l-19 -88h-124l-55 -138h122l-19 -88h-138l-77 -194h-103l77 194h-140l-77 -194h-103l77 194h-106l19 88h122l55 138h-121l19 88h137l73 184h103l-73 -184h140zM326 420l-55 -138h140l55 138h-140z" />
    <glyph glyph-name="radical" unicode="&#x221a;" horiz-adv-x="657" 
d="M35 275l21 98h185l6 -212c2 -65 1 -154 1 -154h3s39 84 74 149l317 592h120l-462 -856h-144l-14 383h-107z" />
    <glyph glyph-name="lozenge" unicode="&#x25ca;" horiz-adv-x="591" 
d="M51 349l285 343h110l139 -343l-286 -349h-110zM307 502l-139 -168l55 -144c19 -50 32 -90 32 -90h3s29 40 70 90l139 173l-56 139c-20 51 -32 91 -32 91h-2s-29 -40 -70 -91z" />
    <glyph glyph-name="Delta" unicode="&#x2206;" horiz-adv-x="643" 
d="M-31 0l16 74l365 618h133l103 -618l-16 -74h-601zM346 481l-220 -381h343l-58 381c-6 38 -13 97 -13 97h-2s-29 -60 -50 -97z" />
    <glyph glyph-name="Omega" unicode="&#x2126;" horiz-adv-x="726" 
d="M285 86l-18 -86h-262l21 97h62c38 0 80 -5 80 -5v1c-59 53 -101 136 -101 234c0 191 144 377 363 377c169 0 279 -122 279 -283c0 -133 -72 -255 -192 -329l1 -1s43 6 80 6h45l-20 -97h-268l19 84c120 57 218 172 218 328c0 104 -61 189 -171 189
c-153 0 -240 -154 -240 -298c0 -99 44 -172 104 -217z" />
    <glyph glyph-name="summation" unicode="&#x2211;" horiz-adv-x="530" 
d="M382 315l-262 -353h340l-20 -97h-483l16 79l288 385l-134 344l17 79h484l-20 -97h-358z" />
    <glyph glyph-name="partialdiff" unicode="&#x2202;" horiz-adv-x="566" 
d="M165 607l80 97c182 -2 301 -126 301 -306c0 -198 -92 -410 -303 -410c-134 0 -212 86 -212 206c0 152 120 271 265 271c73 0 117 -34 140 -57l1 1c-7 137 -85 200 -243 200c-17 0 -29 -2 -29 -2zM310 379c-101 0 -171 -93 -171 -182c0 -62 31 -115 114 -115
c120 0 171 145 182 258c-15 11 -57 39 -125 39z" />
    <glyph glyph-name="integral" unicode="&#x222b;" horiz-adv-x="369" 
d="M312 583l-122 -574c-24 -112 -96 -148 -180 -148c-33 0 -54 5 -54 5l-14 93s20 -6 44 -6c50 0 85 17 99 81l122 575c24 111 96 148 179 148c34 0 54 -6 54 -6l14 -93s-19 7 -44 7c-49 0 -84 -17 -98 -82z" />
    <glyph glyph-name="product" unicode="&#x220f;" horiz-adv-x="646" 
d="M378 -135l168 792h-269l-168 -792h-108l188 887h485l-188 -887h-108z" />
    <glyph glyph-name="pi" unicode="&#x3c0;" horiz-adv-x="630" 
d="M55 411l20 93h591l-20 -93h-129l-57 -271c-2 -10 -4 -20 -4 -29c0 -22 12 -30 29 -30c27 0 45 24 57 40l37 -84c-19 -19 -64 -49 -123 -49c-68 0 -112 33 -112 97c0 14 3 35 7 53l57 273h-154l-87 -411h-104l87 411h-95z" />
    <glyph glyph-name="mu" unicode="&#xb5;" horiz-adv-x="549" 
d="M539 504l-107 -504h-111l27 86h-2c-30 -49 -82 -97 -163 -97c-27 0 -49 7 -66 18c-3 -26 -11 -87 -23 -141l-13 -62h-109l149 700h111l-63 -297c-4 -18 -6 -35 -6 -49c0 -47 24 -76 73 -76c71 0 115 59 131 134l61 288h111z" />
    <glyph glyph-name="period" unicode="." horiz-adv-x="272" 
d="M19 55c0 49 35 84 85 84c42 0 72 -29 72 -68c0 -48 -36 -83 -86 -83c-41 0 -71 29 -71 67z" />
    <glyph glyph-name="comma" unicode="," horiz-adv-x="272" 
d="M171 55c0 -82 -42 -161 -119 -201l-62 55c49 20 92 45 111 97c-6 -2 -13 -2 -20 -2c-34 0 -61 24 -61 57c0 45 32 78 80 78c43 0 71 -29 71 -84z" />
    <glyph glyph-name="colon" unicode=":" horiz-adv-x="272" 
d="M99 430c0 49 35 84 85 84c42 0 72 -29 72 -68c0 -48 -36 -83 -86 -83c-41 0 -71 29 -71 67zM19 55c0 49 35 84 85 84c42 0 72 -29 72 -68c0 -48 -36 -83 -86 -83c-41 0 -71 29 -71 67z" />
    <glyph glyph-name="semicolon" unicode=";" horiz-adv-x="272" 
d="M171 55c0 -82 -42 -161 -119 -201l-62 55c49 20 92 45 111 97c-6 -2 -13 -2 -20 -2c-34 0 -61 24 -61 57c0 45 32 78 80 78c43 0 71 -29 71 -84zM97 430c0 49 35 84 85 84c42 0 72 -29 72 -68c0 -48 -36 -83 -86 -83c-41 0 -71 29 -71 67z" />
    <glyph glyph-name="exclam" unicode="!" horiz-adv-x="298" 
d="M304 692l-15 -71c-32 -147 -109 -415 -109 -415h-78s36 268 68 415l15 71h119zM38 52c0 46 33 80 82 80c39 0 67 -28 67 -64c0 -46 -34 -80 -82 -80c-39 0 -67 28 -67 64z" />
    <glyph glyph-name="question" unicode="?" horiz-adv-x="491" 
d="M408 543c0 35 -27 67 -82 67c-76 0 -133 -64 -147 -154l-97 68c37 97 127 180 253 180c110 0 183 -71 183 -157c0 -176 -247 -194 -247 -314c0 -12 1 -27 1 -27h-79s-10 22 -10 52c0 154 225 174 225 285zM131 52c0 46 33 80 82 80c39 0 67 -28 67 -64
c0 -46 -34 -80 -82 -80c-39 0 -67 28 -67 64z" />
    <glyph glyph-name="exclamdown" unicode="&#xa1;" horiz-adv-x="298" 
d="M-3 -188l15 71c32 147 109 415 109 415h78s-36 -268 -68 -415l-15 -71h-119zM263 452c0 -46 -33 -80 -82 -80c-39 0 -67 28 -67 64c0 46 34 80 82 80c39 0 67 -28 67 -64z" />
    <glyph glyph-name="questiondown" unicode="&#xbf;" horiz-adv-x="491" 
d="M100 -39c0 -35 27 -67 82 -67c76 0 133 64 147 154l97 -68c-37 -97 -127 -180 -253 -180c-110 0 -183 71 -183 157c0 176 247 194 247 314c0 12 -1 27 -1 27h79s10 -22 10 -52c0 -154 -225 -174 -225 -285zM377 452c0 -46 -33 -80 -82 -80c-39 0 -67 28 -67 64
c0 46 34 80 82 80c39 0 67 -28 67 -64z" />
    <glyph glyph-name="hyphen" unicode="-" horiz-adv-x="339" 
d="M305 258h-265l20 93h264z" />
    <glyph glyph-name="endash" unicode="&#x2013;" horiz-adv-x="551" 
d="M517 258h-477l20 93h476z" />
    <glyph glyph-name="emdash" unicode="&#x2014;" horiz-adv-x="789" 
d="M756 258h-716l20 93h715z" />
    <glyph glyph-name="underscore" unicode="_" horiz-adv-x="482" 
d="M360 -65h-369l20 92h369z" />
    <glyph glyph-name="bar" unicode="|" horiz-adv-x="282" 
d="M6 -135l189 887h109l-188 -887h-110z" />
    <glyph glyph-name="brokenbar" unicode="&#xa6;" horiz-adv-x="282" 
d="M6 -135l76 356h109l-75 -356h-110zM120 403l75 349h109l-74 -349h-110z" />
    <glyph glyph-name="dagger" unicode="&#x2020;" horiz-adv-x="515" 
d="M80 504l58 -2c45 -2 92 -6 123 -9l4 3c6 47 20 142 33 206l4 22h116l-6 -22c-17 -63 -41 -158 -55 -205l3 -4c32 3 80 7 128 9l57 2l-22 -107l-57 2c-47 2 -95 5 -125 8l-3 -2c-11 -64 -32 -188 -63 -345l-26 -134h-118l31 134c37 157 67 280 84 344l-3 3
c-32 -3 -80 -6 -128 -8l-57 -2z" />
    <glyph glyph-name="daggerdbl" unicode="&#x2021;" horiz-adv-x="539" 
d="M482 149l-57 2c-47 2 -95 5 -125 8l-4 -3c-6 -48 -20 -144 -33 -208l-4 -22h-114l5 22c14 63 41 159 55 208l-3 3c-32 -3 -80 -6 -127 -8l-58 -2l22 106l57 -2c45 -2 91 -6 122 -9l5 4l35 167l-2 3c-32 -3 -79 -7 -126 -9l-58 -2l22 106l58 -2c45 -2 93 -6 123 -9l4 4
c6 45 17 133 31 196l5 22h114l-6 -22c-17 -62 -39 -151 -52 -196l3 -4c32 3 80 7 128 9l57 2l-22 -106l-57 2c-46 2 -93 6 -124 9l-3 -3l-36 -168l3 -3c32 3 79 7 126 9l59 2z" />
    <glyph glyph-name="parenleft" unicode="(" horiz-adv-x="338" 
d="M352 766l87 -46c-150 -139 -247 -309 -247 -533c0 -119 32 -218 73 -290l-90 -45c-47 72 -94 197 -94 334c0 242 99 440 271 580z" />
    <glyph glyph-name="parenright" unicode=")" horiz-adv-x="338" 
d="M16 -150l-87 46c150 139 247 309 247 533c0 119 -32 218 -73 290l90 45c47 -72 94 -197 94 -334c0 -242 -99 -440 -271 -580z" />
    <glyph glyph-name="bracketleft" unicode="[" horiz-adv-x="349" 
d="M5 -135l189 887h241l-20 -94h-135l-149 -699h135l-20 -94h-241z" />
    <glyph glyph-name="bracketright" unicode="]" horiz-adv-x="349" 
d="M384 753l-189 -887h-241l20 94h135l149 699h-135l20 94h241z" />
    <glyph glyph-name="braceleft" unicode="{" horiz-adv-x="391" 
d="M197 475l29 138c24 111 84 144 165 144c30 0 52 -5 52 -5l19 -93s-20 6 -44 6c-47 0 -78 -17 -92 -82l-29 -132c-22 -102 -70 -132 -136 -143v-3c41 -15 79 -45 79 -100c0 -22 -2 -37 -6 -53l-26 -121c-2 -11 -4 -22 -4 -31c0 -38 24 -47 59 -47c27 0 51 6 51 6l-43 -93
s-22 -5 -51 -5c-72 0 -124 44 -124 116c0 15 2 32 6 51l26 121c2 13 6 26 6 44c0 57 -38 68 -83 79l17 82c62 11 110 30 129 121z" />
    <glyph glyph-name="braceright" unicode="}" horiz-adv-x="391" 
d="M225 151l-32 -146c-24 -112 -83 -144 -165 -144c-30 0 -51 5 -51 5l-19 93s19 -6 43 -6c47 0 78 17 92 81l31 141c22 102 70 132 136 143l1 3c-41 15 -80 45 -80 100c0 22 3 37 6 53l24 112c3 12 5 23 5 31c0 38 -25 48 -60 48c-26 0 -50 -7 -50 -7l43 93s22 6 51 6
c71 0 123 -45 123 -116c0 -16 -1 -32 -5 -51l-25 -113c-2 -13 -5 -26 -5 -44c0 -57 37 -69 83 -79l-18 -82c-62 -11 -110 -30 -128 -121z" />
    <glyph glyph-name="slash" unicode="/" horiz-adv-x="400" 
d="M-64 -135l428 887h121l-434 -887h-115z" />
    <glyph glyph-name="backslash" unicode="\" horiz-adv-x="400" 
d="M238 752l64 -887h-112l-63 887h111z" />
    <glyph glyph-name="quotesinglbase" unicode="&#x201a;" horiz-adv-x="272" 
d="M171 55c0 -82 -42 -161 -119 -201l-62 55c49 20 92 45 111 97c-6 -2 -13 -2 -20 -2c-34 0 -61 24 -61 57c0 45 32 78 80 78c43 0 71 -29 71 -84z" />
    <glyph glyph-name="quotedblbase" unicode="&#x201e;" horiz-adv-x="459" 
d="M171 55c0 -82 -42 -161 -119 -201l-62 55c49 20 92 45 111 97c-6 -2 -13 -2 -20 -2c-34 0 -61 24 -61 57c0 45 32 78 80 78c43 0 71 -29 71 -84zM359 55c0 -82 -42 -161 -119 -201l-62 55c49 20 92 45 111 97c-6 -2 -13 -2 -20 -2c-34 0 -61 24 -61 57c0 45 32 78 80 78
c43 0 71 -29 71 -84z" />
    <glyph glyph-name="quoteleft" unicode="&#x2018;" horiz-adv-x="272" 
d="M118 517c0 82 42 161 119 201l62 -55c-49 -20 -92 -45 -111 -97c6 2 13 2 20 2c34 0 61 -24 61 -57c0 -45 -32 -78 -80 -78c-43 0 -71 29 -71 84z" />
    <glyph glyph-name="quotedblleft" unicode="&#x201c;" horiz-adv-x="459" 
d="M118 517c0 82 42 161 119 201l62 -55c-49 -20 -92 -45 -111 -97c6 2 13 2 20 2c34 0 61 -24 61 -57c0 -45 -32 -78 -80 -78c-43 0 -71 29 -71 84zM306 517c0 82 42 161 119 201l62 -55c-49 -20 -92 -45 -111 -97c6 2 13 2 20 2c34 0 61 -24 61 -57c0 -45 -32 -78 -80 -78
c-43 0 -71 29 -71 84z" />
    <glyph glyph-name="quoteright" unicode="&#x2019;" horiz-adv-x="272" 
d="M294 620c0 -82 -42 -161 -119 -201l-62 55c49 20 92 45 111 97c-6 -2 -13 -2 -20 -2c-34 0 -61 24 -61 57c0 45 32 78 80 78c43 0 71 -29 71 -84z" />
    <glyph glyph-name="quotedblright" unicode="&#x201d;" horiz-adv-x="459" 
d="M294 620c0 -82 -42 -161 -119 -201l-62 55c49 20 92 45 111 97c-6 -2 -13 -2 -20 -2c-34 0 -61 24 -61 57c0 45 32 78 80 78c43 0 71 -29 71 -84zM482 620c0 -82 -42 -161 -119 -201l-62 55c49 20 92 45 111 97c-6 -2 -13 -2 -20 -2c-34 0 -61 24 -61 57
c0 45 32 78 80 78c43 0 71 -29 71 -84z" />
    <glyph glyph-name="guilsinglleft" unicode="&#x2039;" horiz-adv-x="345" 
d="M154 271l-1 -3c37 -39 89 -99 116 -174l-92 -61c-26 73 -67 148 -123 207l16 76c77 52 132 120 180 196l92 -60c-44 -74 -122 -138 -188 -181z" />
    <glyph glyph-name="guilsinglright" unicode="&#x203a;" horiz-adv-x="345" 
d="M205 274l1 3c-37 39 -89 99 -116 174l92 61c26 -73 67 -148 123 -207l-16 -76c-77 -52 -132 -120 -180 -196l-92 60c44 74 122 138 188 181z" />
    <glyph glyph-name="guillemotleft" unicode="&#xab;" horiz-adv-x="544" 
d="M149 270v-2c34 -40 88 -103 113 -178l-87 -57c-24 73 -69 149 -120 207l16 77c66 52 109 119 150 195l86 -57c-39 -75 -102 -141 -158 -185zM360 270v-2c35 -40 82 -103 107 -178l-89 -57c-24 73 -62 149 -113 207l16 77c74 52 128 119 174 195l89 -57
c-44 -75 -120 -141 -184 -185z" />
    <glyph glyph-name="guillemotright" unicode="&#xbb;" horiz-adv-x="544" 
d="M408 275v2c-34 40 -88 103 -113 178l87 57c24 -73 69 -149 120 -207l-16 -77c-66 -52 -109 -119 -150 -195l-86 57c39 75 102 141 158 185zM197 275v2c-35 40 -82 103 -107 178l89 57c24 -73 62 -149 113 -207l-16 -77c-74 -52 -128 -119 -174 -195l-89 57
c44 75 120 141 184 185z" />
    <glyph glyph-name="quotesingle" unicode="'" horiz-adv-x="228" 
d="M137 613l12 79h119l-22 -79c-21 -81 -57 -193 -57 -193h-74s10 111 22 193z" />
    <glyph glyph-name="quotedbl" unicode="&#x22;" horiz-adv-x="411" 
d="M143 613l12 79h119l-22 -79c-21 -81 -57 -193 -57 -193h-74s10 111 22 193zM315 613l12 79h119l-22 -79c-21 -81 -57 -193 -57 -193h-74s10 111 22 193z" />
    <glyph glyph-name="asterisk" unicode="*" horiz-adv-x="478" 
d="M128 601l51 -24c35 -17 67 -39 82 -51l4 3c0 21 2 66 7 104l7 59h105l-16 -59c-11 -42 -26 -84 -34 -105l4 -3c18 10 53 28 95 44l48 19l24 -97l-52 -12c-42 -10 -85 -15 -108 -18l-2 -5c13 -14 37 -42 60 -75l30 -44l-90 -56l-23 49c-18 39 -32 77 -38 92h-6
c-9 -14 -34 -51 -69 -91l-39 -46l-75 69l45 40c35 32 70 59 88 73v4c-21 4 -58 11 -96 23l-49 16z" />
    <glyph glyph-name="degree" unicode="&#xb0;" horiz-adv-x="385" 
d="M416 572c0 -90 -74 -164 -174 -164c-78 0 -141 55 -141 131c0 91 74 165 174 165c78 0 141 -55 141 -132zM248 485c47 0 76 43 76 86c0 30 -21 55 -55 55c-47 0 -76 -42 -76 -85c0 -31 21 -56 55 -56z" />
    <glyph glyph-name="bullet" unicode="&#x2022;" horiz-adv-x="333" 
d="M72 292c0 67 48 114 116 114c57 0 98 -39 98 -92c0 -66 -49 -113 -117 -113c-56 0 -97 39 -97 91z" />
    <glyph glyph-name="periodcentered" unicode="&#xb7;" horiz-adv-x="274" 
d="M72 296c0 49 35 84 85 84c42 0 72 -29 72 -68c0 -48 -36 -83 -86 -83c-41 0 -71 29 -71 67z" />
    <glyph glyph-name="ellipsis" unicode="&#x2026;" horiz-adv-x="745" 
d="M20 55c0 49 35 84 85 84c42 0 72 -29 72 -68c0 -48 -36 -83 -86 -83c-41 0 -71 29 -71 67zM255 55c0 49 35 84 85 84c42 0 72 -29 72 -68c0 -48 -36 -83 -86 -83c-41 0 -71 29 -71 67zM491 55c0 49 35 84 85 84c42 0 72 -29 72 -68c0 -48 -36 -83 -86 -83
c-41 0 -71 29 -71 67z" />
    <glyph glyph-name="paragraph" unicode="&#xb6;" horiz-adv-x="619" 
d="M319 -196l168 790h-114l-168 -790h-101l111 520c-82 13 -133 72 -133 159c0 126 100 209 243 209h366l-21 -98h-81l-168 -790h-102z" />
    <glyph glyph-name="section" unicode="&#xa7;" horiz-adv-x="503" 
d="M482 300c0 -67 -56 -114 -123 -135l-1 -2c28 -28 46 -61 46 -102c0 -98 -84 -165 -200 -165c-105 0 -182 58 -197 143l101 54s-1 -7 -1 -14c0 -59 42 -98 106 -98c47 0 84 27 84 72c0 46 -60 69 -121 101c-65 35 -121 77 -121 146c0 67 57 114 124 134v2
c-27 28 -44 61 -44 102c0 96 88 166 198 166c91 0 165 -57 184 -141l-101 -55s1 8 1 16c0 52 -33 95 -92 95c-46 0 -83 -32 -83 -73c0 -45 58 -70 119 -101c66 -35 121 -76 121 -145zM263 377c-14 7 -28 15 -41 24c-32 -13 -62 -38 -62 -78c0 -46 50 -69 114 -101
c14 -7 28 -15 40 -23c34 13 64 38 64 78c0 45 -52 69 -115 100z" />
    <glyph glyph-name="copyright" unicode="&#xa9;" horiz-adv-x="809" 
d="M66 285c0 225 178 419 411 419c179 0 309 -127 309 -297c0 -225 -177 -419 -411 -419c-178 0 -309 127 -309 297zM385 62c177 0 317 159 317 344c0 132 -91 224 -234 224c-177 0 -318 -159 -318 -344c0 -132 92 -224 235 -224zM454 456c-70 0 -108 -77 -108 -143
c0 -44 20 -77 72 -77c50 0 81 43 87 83l80 -43c-20 -56 -91 -118 -174 -118c-99 0 -158 63 -158 154c0 121 82 223 207 223c83 0 148 -56 148 -120v-3l-88 -37s1 6 1 16c0 34 -22 65 -67 65z" />
    <glyph glyph-name="registered" unicode="&#xae;" horiz-adv-x="809" 
d="M66 285c0 225 178 419 411 419c179 0 309 -127 309 -297c0 -225 -177 -419 -411 -419c-178 0 -309 127 -309 297zM385 62c177 0 317 159 317 344c0 132 -91 224 -234 224c-177 0 -318 -159 -318 -344c0 -132 92 -224 235 -224zM607 428c0 -60 -40 -100 -97 -118l39 -132
h-81l-35 122h-68l-25 -122h-81l75 353h149c73 0 124 -40 124 -103zM456 370c36 0 71 16 71 52c0 22 -18 37 -50 37h-78l-19 -89h76z" />
    <glyph glyph-name="trademark" unicode="&#x2122;" horiz-adv-x="782" 
d="M89 609l17 83h303l-18 -83h-109l-48 -229h-88l49 229h-106zM588 472h2s9 23 18 41l93 179h121l-66 -312h-78l32 154c8 38 15 65 15 65h-1s-14 -27 -25 -49l-90 -170h-73l-20 170c-3 21 -4 49 -4 49h-3s-4 -32 -11 -65l-32 -154h-78l66 312h113l19 -179c2 -21 2 -41 2 -41
z" />
    <glyph glyph-name="ordfeminine" unicode="&#xaa;" horiz-adv-x="378" 
d="M248 699c47 0 74 -31 83 -58h2l11 51h89l-51 -231c-5 -24 -11 -48 -11 -63c0 -9 2 -17 2 -17h-68c-8 13 -10 26 -10 40v6h-2c-18 -26 -45 -53 -95 -53c-69 0 -108 62 -108 130c0 95 62 195 158 195zM233 443c56 0 83 70 83 123c0 37 -17 64 -54 64
c-55 0 -83 -70 -83 -123c0 -37 17 -64 54 -64z" />
    <glyph glyph-name="ordmasculine" unicode="&#xba;" horiz-adv-x="360" 
d="M86 506c0 104 67 193 178 193c81 0 138 -54 138 -132c0 -104 -67 -193 -179 -193c-80 0 -137 54 -137 132zM175 503c0 -37 17 -63 54 -63c56 0 84 74 84 130c0 37 -18 63 -54 63c-56 0 -84 -74 -84 -130z" />
    <glyph glyph-name="hyphen.case" horiz-adv-x="339" 
d="M315 308h-265l20 93h264z" />
    <glyph glyph-name="endash.case" horiz-adv-x="551" 
d="M527 307h-477l20 93h476z" />
    <glyph glyph-name="emdash.case" horiz-adv-x="789" 
d="M766 307h-716l20 93h715z" />
    <glyph glyph-name="periodcentered.case" horiz-adv-x="274" 
d="M83 346c0 49 35 84 85 84c42 0 72 -29 72 -68c0 -48 -36 -83 -86 -83c-41 0 -71 29 -71 67z" />
    <glyph glyph-name="bullet.case" horiz-adv-x="333" 
d="M84 343c0 67 48 114 116 114c57 0 98 -39 98 -92c0 -66 -49 -113 -117 -113c-56 0 -97 39 -97 91z" />
    <glyph glyph-name="guilsinglleft.case" horiz-adv-x="345" 
d="M169 352l-1 -3c37 -39 89 -99 116 -174l-92 -61c-26 73 -67 148 -123 207l16 76c77 52 132 120 180 196l92 -60c-44 -74 -122 -138 -188 -181z" />
    <glyph glyph-name="guilsinglright.case" horiz-adv-x="345" 
d="M224 356l1 3c-37 39 -89 99 -116 174l92 61c26 -73 67 -148 123 -207l-16 -76c-77 -52 -132 -120 -180 -196l-92 60c44 74 122 138 188 181z" />
    <glyph glyph-name="guillemotleft.case" horiz-adv-x="544" 
d="M164 352v-2c34 -40 88 -103 113 -178l-87 -57c-24 73 -69 149 -120 207l16 77c66 52 109 119 150 195l86 -57c-39 -75 -102 -141 -158 -185zM375 352v-2c35 -40 82 -103 107 -178l-89 -57c-24 73 -62 149 -113 207l16 77c74 52 128 119 174 195l89 -57
c-44 -75 -120 -141 -184 -185z" />
    <glyph glyph-name="guillemotright.case" horiz-adv-x="544" 
d="M427 357v2c-34 40 -88 103 -113 178l87 57c24 -73 69 -149 120 -207l-16 -77c-66 -52 -109 -119 -150 -195l-86 57c39 75 102 141 158 185zM216 357v2c-35 40 -82 103 -107 178l89 57c24 -73 62 -149 113 -207l-16 -77c-74 -52 -128 -119 -174 -195l-89 57
c44 75 120 141 184 185z" />
    <glyph glyph-name="exclamdown.case" horiz-adv-x="298" 
d="M38 0l15 71c32 147 109 415 109 415h78s-36 -268 -68 -415l-15 -71h-119zM304 640c0 -46 -33 -80 -82 -80c-39 0 -67 28 -67 64c0 46 34 80 82 80c39 0 67 -28 67 -64z" />
    <glyph glyph-name="questiondown.case" horiz-adv-x="491" 
d="M137 149c0 -35 27 -67 82 -67c76 0 133 64 147 154l97 -68c-37 -97 -127 -180 -253 -180c-110 0 -183 71 -183 157c0 176 247 194 247 314c0 12 -1 27 -1 27h79s10 -22 10 -52c0 -154 -225 -174 -225 -285zM414 640c0 -46 -33 -80 -82 -80c-39 0 -67 28 -67 64
c0 46 34 80 82 80c39 0 67 -28 67 -64z" />
    <glyph glyph-name="parenleft.case" horiz-adv-x="341" 
d="M340 746l86 -45c-131 -117 -231 -265 -231 -463c0 -110 33 -189 72 -251l-88 -45c-47 71 -95 174 -95 295c0 214 106 387 256 509z" />
    <glyph glyph-name="parenright.case" horiz-adv-x="341" 
d="M47 -58l-86 45c131 117 231 265 231 463c0 110 -33 189 -72 251l88 45c47 -71 95 -174 95 -295c0 -214 -106 -387 -256 -509z" />
    <glyph glyph-name="bracketleft.case" horiz-adv-x="352" 
d="M20 -43l166 778h241l-21 -94h-135l-125 -590h135l-20 -94h-241z" />
    <glyph glyph-name="bracketright.case" horiz-adv-x="352" 
d="M374 735l-166 -778h-241l21 94h135l125 590h-135l20 94h241z" />
    <glyph glyph-name="braceleft.case" horiz-adv-x="391" 
d="M171 349l-1 -3c41 -15 80 -45 80 -100c0 -22 -2 -37 -6 -53l-16 -71c-3 -12 -5 -22 -5 -31c0 -38 25 -47 60 -47c27 0 51 6 51 6l-43 -93s-22 -5 -51 -5c-72 0 -124 44 -124 116c0 15 2 32 6 51l16 71c3 13 5 26 5 44c0 57 -37 69 -83 79l17 82c62 11 109 30 129 121
l18 80c25 112 83 144 164 144c31 0 52 -5 52 -5l19 -93s-20 6 -44 6c-47 0 -77 -16 -92 -81l-16 -74c-23 -103 -70 -133 -136 -144z" />
    <glyph glyph-name="braceright.case" horiz-adv-x="391" 
d="M231 192l-21 -96c-24 -111 -83 -144 -165 -144c-30 0 -52 5 -52 5l-19 93s20 -6 44 -6c47 0 78 16 92 81l20 90c22 102 70 133 136 144v3c-40 15 -79 45 -79 100c0 22 2 37 6 53l12 54c3 12 5 23 5 32c0 38 -25 47 -60 47c-26 0 -50 -6 -50 -6l43 93s22 5 51 5
c71 0 123 -44 123 -116c0 -15 -2 -32 -6 -51l-12 -55c-2 -13 -6 -26 -6 -44c0 -57 38 -68 84 -79l-18 -82c-62 -10 -110 -30 -128 -121z" />
    <glyph glyph-name="colon.case" horiz-adv-x="272" 
d="M112 494c0 49 35 84 85 84c42 0 72 -29 72 -68c0 -48 -36 -83 -86 -83c-41 0 -71 29 -71 67zM50 199c0 49 35 84 85 84c42 0 72 -29 72 -68c0 -48 -36 -83 -86 -83c-41 0 -71 29 -71 67z" />
    <glyph glyph-name="plus.case" 
d="M214 81l48 224h-206l21 98h205l47 220h103l-47 -220h206l-21 -98h-206l-48 -224h-102z" />
    <glyph glyph-name="minus.case" 
d="M556 304h-487l21 100h487z" />
    <glyph glyph-name="multiply.case" 
d="M101 110l-61 74l218 177l-138 175l76 61l136 -175l209 173l62 -73l-214 -174l144 -178l-76 -61l-141 178z" />
    <glyph glyph-name="divide.case" 
d="M555 305h-486l20 98h487zM205 147c0 46 34 80 82 80c39 0 68 -28 68 -65c0 -45 -34 -79 -82 -79c-39 0 -68 28 -68 64zM289 547c0 46 34 80 82 80c39 0 67 -28 67 -65c0 -45 -34 -79 -82 -79c-39 0 -67 27 -67 64z" />
    <glyph glyph-name="equal.case" 
d="M534 212h-481l20 95h481zM574 402h-480l20 95h481z" />
    <glyph glyph-name="less.case" 
d="M595 517l-389 -169l317 -159l-50 -90l-392 208l20 96l456 207z" />
    <glyph glyph-name="greater.case" 
d="M51 192l389 169l-317 159l50 90l392 -208l-20 -96l-456 -207z" />
    <glyph glyph-name="plusminus.case" 
d="M253 260l35 165h-194l19 91h195l35 168h98l-35 -168h195l-20 -91h-194l-36 -165h-98zM512 102h-486l19 93h487z" />
    <glyph glyph-name="lessequal.case" 
d="M506 237l-407 141l21 101l439 148l29 -93l-347 -110l301 -95zM502 102h-465l19 93h465z" />
    <glyph glyph-name="greaterequal.case" 
d="M176 621l406 -148l-22 -101l-437 -141l-29 93l346 104l-300 101zM505 96h-465l19 93h465z" />
    <glyph glyph-name="notequal.case" 
d="M597 497l-20 -92h-163l-71 -101h213l-20 -92h-258l-109 -155l-75 50l74 105h-117l20 92h162l71 101h-212l20 92h257l109 155l76 -49l-75 -106h118z" />
    <glyph glyph-name="logicalnot.case" 
d="M88 405h486l-57 -269h-102l36 169h-385z" />
    <glyph glyph-name="asciitilde.case" 
d="M576 382c-29 -64 -78 -120 -152 -120c-91 0 -135 83 -195 83c-39 0 -63 -39 -75 -81l-83 63c28 65 78 120 152 120c91 0 135 -83 195 -83c39 0 63 39 75 80z" />
    <glyph glyph-name="approxequal.case" 
d="M555 274c-29 -57 -78 -102 -152 -102c-91 0 -135 68 -195 68c-39 0 -63 -30 -75 -66l-83 63c28 58 78 101 152 101c91 0 135 -67 195 -67c39 0 63 27 75 62zM597 472c-28 -58 -78 -104 -152 -104c-91 0 -135 67 -195 67c-39 0 -63 -28 -75 -63l-83 63c29 56 78 99 153 99
c90 0 135 -68 194 -68c40 0 63 28 75 65z" />
    <glyph glyph-name="infinity.case" horiz-adv-x="873" 
d="M285 546c87 0 147 -55 184 -118h3c54 62 127 118 209 118c100 0 170 -74 170 -168c0 -114 -95 -214 -215 -214c-88 0 -148 54 -184 118h-3c-55 -63 -126 -118 -209 -118c-99 0 -170 74 -170 168c0 113 95 214 215 214zM512 353c20 -39 50 -92 117 -92
c60 0 117 47 117 109c0 46 -30 79 -77 79c-73 0 -118 -59 -157 -96zM409 357c-20 39 -50 92 -117 92c-60 0 -117 -47 -117 -109c0 -46 30 -79 77 -79c73 0 117 59 157 96z" />
    <glyph glyph-name="uni2113" unicode="&#x2113;" horiz-adv-x="454" 
d="M32 109l-47 70l137 101l63 296c24 109 83 160 176 160c79 0 138 -51 138 -136c0 -121 -110 -221 -207 -305l-74 -64l-16 -78c-2 -11 -4 -21 -4 -30c0 -30 16 -47 46 -47c44 0 68 39 79 76l86 -59c-25 -51 -87 -105 -179 -105c-80 0 -140 46 -140 124c0 12 1 28 5 43z
M288 558l-42 -197l16 15c59 56 139 134 139 218c0 31 -14 54 -44 54c-39 0 -57 -34 -69 -90z" />
    <glyph glyph-name="uni2116" unicode="&#x2116;" horiz-adv-x="1135" 
d="M578 0h-153l-140 436c-15 47 -36 129 -36 129l-3 -1c-1 -3 -11 -74 -25 -138l-90 -426h-110l147 692h153l140 -436c15 -47 37 -129 37 -129h2s11 73 25 139l90 426h110zM769 476c0 123 93 228 221 228c101 0 168 -64 168 -152c0 -122 -94 -227 -222 -227
c-101 0 -167 64 -167 151zM1075 162h-372l19 93h372zM869 483c0 -43 27 -75 76 -75c70 1 113 70 113 138c0 43 -28 75 -77 75c-70 -1 -112 -69 -112 -138z" />
    <glyph glyph-name="estimated" unicode="&#x212e;" horiz-adv-x="836" 
d="M201 332v-197c0 -7 4 -15 10 -23c60 -62 145 -103 241 -103c102 0 192 45 254 118h57c-71 -84 -186 -139 -312 -139c-217 0 -394 161 -394 358c0 195 177 358 394 358c218 0 394 -163 394 -358v-10h-637c-4 0 -7 -1 -7 -4zM208 358h489c2 0 5 2 5 6v194
c0 10 -4 17 -11 25c-61 61 -146 99 -239 99c-94 0 -179 -41 -240 -102c-7 -8 -11 -16 -11 -26v-190c0 -4 3 -6 7 -6z" />
    <glyph glyph-name="uni25A0" unicode="&#x25a0;" horiz-adv-x="831" 
d="M92 0v692h686v-692h-686z" />
    <glyph glyph-name="uni25A1" unicode="&#x25a1;" horiz-adv-x="831" 
d="M92 0v692h686v-692h-686zM203 586v-481h464v481h-464z" />
    <glyph glyph-name="uni25FC" unicode="&#x25fc;" horiz-adv-x="624" 
d="M69 0v504h494v-504h-494z" />
    <glyph glyph-name="uni25FB" unicode="&#x25fb;" horiz-adv-x="624" 
d="M69 0v504h494v-504h-494zM174 402v-301h283v301h-283z" />
    <glyph glyph-name="uni25B6" unicode="&#x25b6;" horiz-adv-x="617" 
d="M80 -38v581l2 2l537 -290v-3l-537 -292z" />
    <glyph glyph-name="uni25B7" unicode="&#x25b7;" horiz-adv-x="617" 
d="M80 -38v581l2 2l537 -290v-3l-537 -292zM185 374v-246l3 -1l226 125v3l-226 120z" />
    <glyph glyph-name="uni25C0" unicode="&#x25c0;" horiz-adv-x="617" 
d="M545 543v-581l-2 -2l-537 292v3l537 290z" />
    <glyph glyph-name="uni25C1" unicode="&#x25c1;" horiz-adv-x="617" 
d="M545 543v-581l-2 -2l-537 292v3l537 290zM440 128v246l-3 1l-226 -120v-3l226 -125z" />
    <glyph glyph-name="circle" unicode="&#x25cb;" horiz-adv-x="790" 
d="M62 346c0 208 150 358 354 358s353 -150 353 -358s-149 -358 -353 -358s-354 150 -354 358zM416 92c142 0 242 108 242 254s-100 254 -242 254c-143 0 -243 -108 -243 -254s100 -254 243 -254z" />
    <glyph glyph-name="H18533" unicode="&#x25cf;" horiz-adv-x="790" 
d="M416 704c204 0 353 -150 353 -358s-149 -358 -353 -358s-354 150 -354 358s150 358 354 358z" />
    <glyph glyph-name="arrowleft" unicode="&#x2190;" horiz-adv-x="709" 
d="M355 -5l-317 359l314 349l71 -64l-219 -235h497v-100h-499l224 -245z" />
    <glyph glyph-name="arrowup" unicode="&#x2191;" horiz-adv-x="709" 
d="M381 681l344 -304l-64 -68l-228 207v-477h-105v477l-228 -207l-63 68z" />
    <glyph glyph-name="arrowright" unicode="&#x2192;" horiz-adv-x="709" 
d="M716 354l-317 -359l-71 64l224 245h-499v100h497l-219 235l71 64z" />
    <glyph glyph-name="arrowdown" unicode="&#x2193;" horiz-adv-x="709" 
d="M720 329l-344 -304l-344 304l63 68l228 -207v477h105v-477l228 207z" />
    <glyph glyph-name="uni2196" unicode="&#x2196;" horiz-adv-x="709" 
d="M595 74l-386 386l3 -367h-92v526h524v-92l-364 4l385 -386z" />
    <glyph glyph-name="uni2197" unicode="&#x2197;" horiz-adv-x="709" 
d="M547 460l-386 -386l-70 71l385 386l-364 -4v92h524v-526h-92z" />
    <glyph glyph-name="uni2198" unicode="&#x2198;" horiz-adv-x="709" 
d="M161 638l386 -386l-3 367h92v-526h-524v92l364 -4l-385 386z" />
    <glyph glyph-name="uni2199" unicode="&#x2199;" horiz-adv-x="709" 
d="M209 252l386 386l70 -71l-385 -386l364 4v-92h-524v526h92z" />
    <glyph glyph-name="uni2605" unicode="&#x2605;" horiz-adv-x="709" 
d="M301 392l84 252h4l84 -252l262 1l1 -5l-210 -153l81 -255l-3 -1l-217 155l-217 -155l-3 1l80 255l-209 153l1 5z" />
    <glyph glyph-name="a.dnom" horiz-adv-x="378" 
d="M165 318c47 0 74 -31 83 -58h2l11 51h89l-51 -231c-5 -24 -11 -48 -11 -63c0 -9 2 -17 2 -17h-68c-8 13 -10 26 -10 40v6h-2c-18 -26 -45 -53 -95 -53c-69 0 -108 62 -108 130c0 95 62 195 158 195zM150 62c56 0 83 70 83 123c0 37 -17 64 -54 64c-55 0 -83 -70 -83 -123
c0 -37 17 -64 54 -64z" />
    <glyph glyph-name="b.dnom" horiz-adv-x="373" 
d="M87 447h89l-24 -106c-7 -32 -23 -77 -23 -77h2c19 25 46 54 93 54c69 0 108 -62 108 -130c0 -95 -63 -195 -159 -195c-48 0 -76 31 -85 60h-2l-12 -53h-86zM189 249c-56 0 -84 -70 -84 -123c0 -37 18 -64 55 -64c55 0 83 70 83 123c0 37 -17 64 -54 64z" />
    <glyph glyph-name="c.dnom" horiz-adv-x="334" 
d="M173 252c-54 0 -81 -74 -81 -129c0 -37 14 -64 51 -64c40 0 62 38 67 77l76 -43c-14 -46 -70 -100 -150 -100s-133 56 -133 132c0 104 66 193 177 193c78 0 127 -48 127 -103l-87 -39c1 3 4 15 4 29c0 26 -17 47 -51 47z" />
    <glyph glyph-name="d.dnom" horiz-adv-x="373" 
d="M205 47h-1c-19 -25 -46 -54 -93 -54c-69 0 -108 62 -108 130c0 95 62 195 158 195c47 0 74 -30 83 -58h2l42 187h88l-98 -447h-88zM146 62c56 0 83 70 83 123c0 37 -17 64 -54 64c-55 0 -83 -70 -83 -123c0 -37 17 -64 54 -64z" />
    <glyph glyph-name="e.dnom" horiz-adv-x="345" 
d="M292 132h-208v-11c0 -37 18 -63 56 -63c36 0 61 17 71 51l74 -43c-27 -43 -83 -73 -144 -73c-88 0 -138 51 -138 133c0 103 66 192 181 192c76 0 127 -45 127 -114c0 -28 -9 -52 -19 -72zM178 255c-40 0 -67 -30 -81 -65h131c2 4 2 10 2 17c0 28 -17 48 -52 48z" />
    <glyph glyph-name="f.dnom" horiz-adv-x="239" 
d="M244 361c0 16 -11 26 -28 26c-25 0 -36 -20 -42 -44l-7 -32h71l-14 -66h-71l-54 -245h-88l54 245h-50l15 66h50l8 36c17 72 63 107 132 107c53 0 89 -28 102 -60l-79 -43s1 4 1 10z" />
    <glyph glyph-name="g.dnom" horiz-adv-x="350" 
d="M21 16l1 2c-18 5 -35 21 -35 42c0 42 50 62 89 67v2c-24 12 -47 40 -47 75c0 72 69 114 146 114c28 0 50 -5 73 -5c40 0 42 38 43 67l73 -45c-6 -33 -29 -60 -66 -60c-10 0 -20 2 -26 3l-1 -2c14 -11 28 -33 28 -61c0 -72 -79 -111 -152 -111c-33 0 -79 -7 -79 -30
c0 -11 12 -15 33 -15c27 0 53 4 87 4c62 0 106 -27 106 -74c0 -93 -107 -115 -199 -115c-86 0 -154 25 -154 73c0 41 42 62 80 69zM135 -6c-44 0 -116 -3 -116 -36c0 -20 35 -29 82 -29c34 0 104 6 104 41c0 21 -30 24 -70 24zM172 260c-34 0 -63 -21 -63 -56
c0 -27 23 -42 50 -42c34 0 63 21 63 56c0 27 -23 42 -50 42z" />
    <glyph glyph-name="h.dnom" horiz-adv-x="364" 
d="M314 188l-42 -188h-89l40 180c2 11 4 21 4 28c0 24 -14 39 -41 39c-39 0 -61 -32 -70 -72l-39 -175h-89l99 447h89l-25 -111c-8 -35 -23 -77 -23 -77h2c21 31 54 59 103 59c53 0 86 -34 86 -85c0 -11 -2 -30 -5 -45z" />
    <glyph glyph-name="i.dnom" horiz-adv-x="172" 
d="M64 392c0 30 23 53 58 53c27 0 48 -19 48 -43c0 -31 -25 -54 -59 -54c-28 0 -47 18 -47 44zM-12 0l68 311h90l-68 -311h-90z" />
    <glyph glyph-name="j.dnom" horiz-adv-x="177" 
d="M69 392c0 30 24 53 58 53c28 0 48 -19 48 -43c0 -31 -24 -54 -59 -54c-27 0 -47 18 -47 44zM-37 -128l-68 58c58 9 89 29 104 95l63 286h89l-67 -307c-16 -75 -55 -121 -121 -132z" />
    <glyph glyph-name="k.dnom" horiz-adv-x="351" 
d="M356 311l-137 -125l78 -186h-94l-52 126l-59 -57l-15 -69h-89l99 447h89l-45 -200c-9 -39 -21 -77 -21 -77h2s28 34 51 57l87 84h106z" />
    <glyph glyph-name="l.dnom" horiz-adv-x="172" 
d="M-12 0l98 447h90l-98 -447h-90z" />
    <glyph glyph-name="m.dnom" horiz-adv-x="537" 
d="M486 188l-41 -188h-88l40 180c3 12 3 21 3 28c0 24 -11 39 -36 39c-38 0 -57 -33 -66 -72l-38 -175h-87l39 180c3 11 4 21 4 28c0 24 -12 39 -36 39c-38 0 -57 -33 -66 -72l-38 -175h-88l68 311h88l-17 -52h2c20 31 51 59 100 59c40 0 66 -23 75 -57h2
c20 30 50 57 102 57c55 0 84 -34 84 -85c0 -11 -3 -30 -6 -45z" />
    <glyph glyph-name="n.dnom" horiz-adv-x="364" 
d="M314 188l-42 -188h-89l40 180c3 12 4 21 4 28c0 24 -14 39 -41 39c-39 0 -61 -32 -70 -72l-39 -175h-89l68 311h89l-17 -52h2c21 31 54 59 103 59c53 0 86 -34 86 -85c0 -11 -2 -30 -5 -45z" />
    <glyph glyph-name="o.dnom" horiz-adv-x="360" 
d="M3 125c0 104 67 193 178 193c81 0 138 -54 138 -132c0 -104 -67 -193 -179 -193c-80 0 -137 54 -137 132zM92 122c0 -37 17 -63 54 -63c56 0 84 74 84 130c0 37 -18 63 -54 63c-56 0 -84 -74 -84 -130z" />
    <glyph glyph-name="p.dnom" horiz-adv-x="373" 
d="M129 264h2c19 25 46 54 93 54c69 0 108 -62 108 -130c0 -95 -63 -195 -159 -195c-45 0 -74 30 -83 58h-2l-38 -172h-89l95 432h89zM189 249c-56 0 -84 -70 -84 -123c0 -37 18 -64 55 -64c55 0 83 70 83 123c0 37 -17 64 -54 64z" />
    <glyph glyph-name="q.dnom" horiz-adv-x="373" 
d="M250 259l11 52h86l-95 -432h-89l21 94c9 39 21 74 21 74h-1c-19 -25 -46 -54 -93 -54c-69 0 -108 62 -108 130c0 95 62 195 158 195c48 0 77 -31 87 -59h2zM146 62c56 0 83 70 83 123c0 37 -17 64 -54 64c-55 0 -83 -70 -83 -123c0 -37 17 -64 54 -64z" />
    <glyph glyph-name="r.dnom" horiz-adv-x="292" 
d="M-12 0l68 311h89l-17 -52h2c20 32 51 59 90 59c37 0 59 -27 59 -63c0 -24 -7 -44 -12 -58l-92 -45c10 23 20 47 20 68c0 15 -8 25 -24 25c-29 0 -47 -32 -56 -73l-38 -172h-89z" />
    <glyph glyph-name="s.dnom" horiz-adv-x="330" 
d="M63 116c9 -38 34 -61 76 -61c24 0 48 12 48 33c0 24 -38 32 -74 44c-41 13 -84 35 -84 85c0 65 65 101 133 101s119 -28 143 -76l-77 -37c-6 31 -33 51 -67 51c-22 0 -44 -11 -44 -30c0 -22 37 -26 79 -42c41 -16 79 -36 79 -87c0 -65 -66 -104 -138 -104
c-79 0 -133 32 -152 85z" />
    <glyph glyph-name="t.dnom" horiz-adv-x="239" 
d="M163 84l23 -64c-14 -12 -44 -27 -81 -27c-49 0 -80 24 -80 66c0 10 2 22 4 33l34 153h-52l14 66h52l15 63l97 48l-24 -111h73l-14 -66h-74l-32 -148c-1 -6 -2 -11 -2 -16c0 -12 6 -17 16 -17c15 0 24 12 31 20z" />
    <glyph glyph-name="u.dnom" horiz-adv-x="361" 
d="M13 123l41 188h89l-39 -180c-2 -12 -4 -21 -4 -28c0 -24 11 -39 38 -39c40 0 60 32 69 72l39 175h88l-68 -311h-89l18 52h-3c-20 -31 -52 -59 -101 -59c-53 0 -84 34 -84 85c0 11 3 30 6 45z" />
    <glyph glyph-name="v.dnom" horiz-adv-x="326" 
d="M59 0l-38 311h91l9 -136c3 -36 5 -94 5 -94h2s24 55 43 94l69 136h95l-171 -311h-105z" />
    <glyph glyph-name="w.dnom" horiz-adv-x="484" 
d="M240 232c0 0 -24 -52 -41 -91l-61 -141h-109l1 311h88l-5 -113c-2 -43 -8 -116 -8 -116h2s42 98 59 137l41 92h99l1 -113c0 -43 -2 -116 -2 -116h2s40 101 53 137l35 92h89l-136 -311h-105v141c0 38 -1 91 -1 91h-2z" />
    <glyph glyph-name="x.dnom" horiz-adv-x="326" 
d="M134 117c0 0 -12 -20 -32 -51l-51 -66h-100l129 160l-53 151h92l16 -58c9 -31 16 -56 16 -56h2s13 22 35 54l43 60h99l-124 -156l63 -155h-94l-25 66c-10 28 -14 51 -14 51h-2z" />
    <glyph glyph-name="y.dnom" horiz-adv-x="323" 
d="M129 98h2s22 48 41 86l64 127h97l-183 -326c-26 -47 -58 -99 -116 -113l-69 59c40 8 76 26 98 65l6 10l-48 305h90l12 -124c3 -35 6 -89 6 -89z" />
    <glyph glyph-name="z.dnom" horiz-adv-x="313" 
d="M30 245l14 66h255l-10 -48l-186 -197h148l-14 -66h-264l11 48l184 197h-138z" />
    <glyph glyph-name="zero.dnom" horiz-adv-x="403" 
d="M223 357c-80 0 -116 -138 -116 -205c0 -47 15 -82 60 -82c81 0 116 138 116 205c0 47 -14 82 -60 82zM14 151c0 127 67 283 216 283c95 0 146 -70 146 -158c0 -127 -67 -283 -216 -283c-95 0 -146 70 -146 158z" />
    <glyph glyph-name="one.dnom" horiz-adv-x="254" 
d="M136 315h-3c-16 -18 -44 -32 -74 -38l-30 79c58 11 112 36 149 71h68l-94 -427h-89l56 251c7 31 17 64 17 64z" />
    <glyph glyph-name="two.dnom" horiz-adv-x="356" 
d="M129 222l-85 42s-3 10 -3 24c0 86 69 146 164 146c78 0 141 -52 141 -122c0 -138 -193 -192 -228 -232v-2h175l-17 -78h-287v8c0 150 265 185 265 298c0 30 -20 53 -53 53c-55 0 -75 -51 -75 -101c0 -14 2 -32 3 -36z" />
    <glyph glyph-name="three.dnom" horiz-adv-x="355" 
d="M136 -7c-82 0 -138 45 -145 108l87 42c0 -3 -1 -9 -1 -12c0 -36 22 -63 64 -63c47 0 80 38 80 82c0 33 -22 57 -58 57c-31 0 -53 -12 -73 -21l-19 75l138 89h-149l17 77h283l-13 -65l-99 -64c-30 -19 -73 -37 -73 -37c0 -1 1 -2 1 -3c1 0 8 2 16 2c70 0 118 -46 118 -111
c0 -87 -76 -156 -174 -156z" />
    <glyph glyph-name="four.dnom" horiz-adv-x="373" 
d="M188 108h-175l-10 53c61 73 109 161 129 273l83 -44c-22 -92 -68 -153 -111 -207h100l54 244h87l-53 -244h51l-15 -75h-53l-24 -108h-87z" />
    <glyph glyph-name="five.dnom" horiz-adv-x="360" 
d="M138 -7c-82 0 -139 45 -145 108l87 42c0 -3 -1 -9 -1 -12c0 -38 25 -60 63 -60c46 0 87 38 87 94c0 32 -17 59 -53 59c-32 0 -57 -17 -74 -46l-74 34l77 215h242l-17 -77h-168l-15 -43c-10 -26 -23 -47 -23 -47c1 0 1 -1 2 -1c17 16 47 33 82 33c73 0 110 -60 110 -127
c0 -89 -73 -172 -180 -172z" />
    <glyph glyph-name="six.dnom" horiz-adv-x="373" 
d="M239 434c62 0 118 -33 128 -88l-84 -44v5c0 29 -17 54 -53 54c-50 0 -94 -46 -117 -120c1 0 1 -1 2 -1c23 31 61 45 100 45c68 0 119 -50 119 -124c0 -91 -71 -168 -174 -168c-100 0 -147 64 -147 152c0 132 70 289 226 289zM161 64c54 0 87 44 87 95c0 36 -23 62 -62 62
c-54 0 -87 -41 -87 -91c0 -38 22 -66 62 -66z" />
    <glyph glyph-name="seven.dnom" horiz-adv-x="340" 
d="M372 427l-11 -59c-87 -105 -159 -236 -193 -368h-102c36 138 122 266 191 349h-131l-21 -98l-74 45l29 131h312z" />
    <glyph glyph-name="eight.dnom" horiz-adv-x="379" 
d="M149 -7c-85 0 -151 46 -151 116s62 111 116 120v2c-33 15 -58 44 -58 82c0 75 79 121 164 121c75 0 137 -45 137 -105c0 -55 -45 -92 -99 -105v-2c29 -13 71 -39 71 -92c0 -84 -84 -137 -180 -137zM85 118c0 -33 31 -54 71 -54c45 0 86 26 86 70c0 33 -31 54 -70 54
c-45 0 -87 -27 -87 -70zM138 304c0 -26 24 -45 59 -45c38 0 76 20 76 59c0 26 -23 45 -59 45c-38 0 -76 -20 -76 -59z" />
    <glyph glyph-name="nine.dnom" horiz-adv-x="373" 
d="M140 -7c-64 0 -123 32 -133 90l85 44s-1 -3 -1 -5c0 -31 19 -56 56 -56c54 0 85 50 104 125h-2c-22 -29 -59 -44 -98 -44c-73 0 -124 52 -124 125c0 90 71 162 171 162s149 -63 149 -153c0 -125 -48 -288 -207 -288zM197 363c-51 0 -84 -39 -84 -89c0 -38 23 -62 64 -62
c52 0 85 38 85 87c0 37 -24 64 -65 64z" />
    <glyph glyph-name="dollar.dnom" horiz-adv-x="398" 
d="M103 -57l14 65c-66 16 -112 58 -120 117l83 44s-1 -3 -1 -7c0 -38 20 -71 56 -86l25 108c-56 20 -112 55 -112 119c0 74 75 120 161 122l12 57h74l-15 -66c54 -16 97 -51 109 -98l-84 -44c0 5 1 9 0 14c-1 28 -18 49 -44 61l-22 -102c58 -25 114 -50 114 -117
c0 -75 -72 -125 -164 -128l-13 -59h-73zM270 121c0 24 -22 39 -49 50l-22 -103c42 4 71 23 71 53zM133 310c0 -23 18 -36 44 -47l20 95c-35 -3 -64 -21 -64 -48z" />
    <glyph glyph-name="cent.dnom" horiz-adv-x="377" 
d="M96 -57l14 64c-61 13 -101 57 -101 126c0 91 67 165 168 178l13 60h74l-15 -63c55 -12 89 -45 93 -80c1 -5 1 -10 1 -12l-79 -36c1 5 2 10 2 18c0 19 -12 36 -34 44l-38 -170c33 9 53 33 58 62l71 -40c-17 -43 -71 -82 -141 -90l-13 -61h-73zM92 132c0 -29 12 -50 36 -59
l38 170c-47 -15 -74 -62 -74 -111z" />
    <glyph glyph-name="Euro.dnom" horiz-adv-x="423" 
d="M272 228h-114c-3 -12 -5 -24 -6 -36h102l-31 -59h-73c3 -41 20 -69 63 -69c49 0 79 44 87 97l77 -53c-17 -51 -79 -115 -169 -115c-85 0 -139 48 -146 140h-56l12 59h45c1 12 3 24 6 36h-43l13 58h47c33 81 97 148 197 148c78 0 132 -46 138 -114l-87 -47c1 3 4 16 4 28
c0 35 -18 62 -62 62c-45 0 -78 -35 -98 -77h125z" />
    <glyph glyph-name="yen.dnom" horiz-adv-x="405" 
d="M329 100h-113l-22 -100h-89l22 100h-112l13 59h111l2 3l-12 36h-93l14 58h59l-56 171h94l36 -130c8 -30 14 -60 14 -60c3 -1 15 22 36 51l99 139h102l-131 -171h59l-12 -58h-93l-17 -23l-11 -16h112z" />
    <glyph glyph-name="sterling.dnom" horiz-adv-x="381" 
d="M255 174h-83c-4 -42 -22 -75 -52 -97h200l-18 -77h-307l13 61c47 21 72 62 76 113h-71l15 66h54c-1 12 -1 23 -1 33c0 99 56 161 161 161c71 0 131 -40 139 -107l-83 -44c0 2 2 10 2 18c0 36 -20 58 -56 58c-52 0 -74 -34 -74 -86c0 -12 0 -22 1 -33h118z" />
    <glyph glyph-name="plus.dnom" horiz-adv-x="391" 
d="M109 30l29 135h-127l17 75h127l29 132h80l-28 -132h127l-17 -75h-127l-29 -135h-81z" />
    <glyph glyph-name="minus.dnom" horiz-adv-x="391" 
d="M336 164h-316l17 77h316z" />
    <glyph glyph-name="multiply.dnom" horiz-adv-x="391" 
d="M50 46l-49 57l133 102l-86 104l61 47l84 -103l126 101l50 -57l-131 -101l89 -105l-61 -47l-86 105z" />
    <glyph glyph-name="divide.dnom" horiz-adv-x="391" 
d="M336 165h-316l17 75h316zM105 72c0 32 25 56 60 56c28 0 49 -20 49 -45c0 -32 -26 -56 -60 -56c-29 0 -49 20 -49 45zM158 324c0 32 26 55 60 55c29 0 49 -19 49 -44c0 -32 -25 -56 -60 -56c-28 0 -49 20 -49 45z" />
    <glyph glyph-name="equal.dnom" horiz-adv-x="391" 
d="M321 103h-313l16 71h314zM349 227h-313l16 72h313z" />
    <glyph glyph-name="period.dnom" horiz-adv-x="187" 
d="M-7 40c0 35 26 59 62 59c31 0 52 -20 52 -48c0 -34 -26 -58 -63 -58c-30 0 -51 20 -51 47z" />
    <glyph glyph-name="comma.dnom" horiz-adv-x="187" 
d="M104 38c0 -57 -30 -107 -83 -132l-45 37c33 11 64 27 78 62c-5 -1 -9 -1 -15 -1c-25 0 -44 17 -44 40c0 32 24 55 57 55s52 -22 52 -61z" />
    <glyph glyph-name="hyphen.dnom" horiz-adv-x="230" 
d="M180 148h-172l15 73h173z" />
    <glyph glyph-name="parenleft.dnom" horiz-adv-x="234" 
d="M206 475l68 -36c-96 -91 -153 -191 -153 -329c0 -70 17 -128 42 -172l-72 -36c-29 44 -59 124 -59 209c0 150 61 273 174 364z" />
    <glyph glyph-name="parenright.dnom" horiz-adv-x="234" 
d="M6 -99l-68 36c96 92 153 191 153 329c0 71 -18 128 -42 173l71 36c30 -45 60 -125 60 -211c0 -149 -61 -271 -174 -363z" />
    <glyph glyph-name="a.numr" horiz-adv-x="378" 
d="M225 595c47 0 74 -31 83 -58h2l11 51h89l-51 -231c-5 -24 -11 -48 -11 -63c0 -9 2 -17 2 -17h-68c-8 13 -10 26 -10 40v6h-2c-18 -26 -45 -53 -95 -53c-69 0 -108 62 -108 130c0 95 62 195 158 195zM210 339c56 0 83 70 83 123c0 37 -17 64 -54 64
c-55 0 -83 -70 -83 -123c0 -37 17 -64 54 -64z" />
    <glyph glyph-name="b.numr" horiz-adv-x="373" 
d="M147 724h89l-24 -106c-7 -32 -23 -77 -23 -77h2c19 25 46 54 93 54c69 0 108 -62 108 -130c0 -95 -63 -195 -159 -195c-48 0 -76 31 -85 60h-2l-12 -53h-86zM249 526c-56 0 -84 -70 -84 -123c0 -37 18 -64 55 -64c55 0 83 70 83 123c0 37 -17 64 -54 64z" />
    <glyph glyph-name="c.numr" horiz-adv-x="334" 
d="M233 529c-54 0 -81 -74 -81 -129c0 -37 14 -64 51 -64c40 0 62 38 67 77l76 -43c-14 -46 -70 -100 -150 -100s-133 56 -133 132c0 104 66 193 177 193c78 0 127 -48 127 -103l-87 -39c1 3 4 15 4 29c0 26 -17 47 -51 47z" />
    <glyph glyph-name="d.numr" horiz-adv-x="373" 
d="M265 324h-1c-19 -25 -46 -54 -93 -54c-69 0 -108 62 -108 130c0 95 62 195 158 195c47 0 74 -30 83 -58h2l42 187h88l-98 -447h-88zM206 339c56 0 83 70 83 123c0 37 -17 64 -54 64c-55 0 -83 -70 -83 -123c0 -37 17 -64 54 -64z" />
    <glyph glyph-name="e.numr" horiz-adv-x="345" 
d="M352 409h-208v-11c0 -37 18 -63 56 -63c36 0 61 17 71 51l74 -43c-27 -43 -83 -73 -144 -73c-88 0 -138 51 -138 133c0 103 66 192 181 192c76 0 127 -45 127 -114c0 -28 -9 -52 -19 -72zM238 532c-40 0 -67 -30 -81 -65h131c2 4 2 10 2 17c0 28 -17 48 -52 48z" />
    <glyph glyph-name="f.numr" horiz-adv-x="239" 
d="M304 638c0 16 -11 26 -28 26c-25 0 -36 -20 -42 -44l-7 -32h71l-14 -66h-71l-54 -245h-88l54 245h-50l15 66h50l8 36c17 72 63 107 132 107c53 0 89 -28 102 -60l-79 -43s1 4 1 10z" />
    <glyph glyph-name="g.numr" horiz-adv-x="350" 
d="M81 293l1 2c-18 5 -35 21 -35 42c0 42 50 62 89 67v2c-24 12 -47 40 -47 75c0 72 69 114 146 114c28 0 50 -5 73 -5c40 0 42 38 43 67l73 -45c-6 -33 -29 -60 -66 -60c-10 0 -20 2 -26 3l-1 -2c14 -11 28 -33 28 -61c0 -72 -79 -111 -152 -111c-33 0 -79 -7 -79 -30
c0 -11 12 -15 33 -15c27 0 53 4 87 4c62 0 106 -27 106 -74c0 -93 -107 -115 -199 -115c-86 0 -154 25 -154 73c0 41 42 62 80 69zM195 271c-44 0 -116 -3 -116 -36c0 -20 35 -29 82 -29c34 0 104 6 104 41c0 21 -30 24 -70 24zM232 537c-34 0 -63 -21 -63 -56
c0 -27 23 -42 50 -42c34 0 63 21 63 56c0 27 -23 42 -50 42z" />
    <glyph glyph-name="h.numr" horiz-adv-x="364" 
d="M374 465l-42 -188h-89l40 180c2 11 4 21 4 28c0 24 -14 39 -41 39c-39 0 -61 -32 -70 -72l-39 -175h-89l99 447h89l-25 -111c-8 -35 -23 -77 -23 -77h2c21 31 54 59 103 59c53 0 86 -34 86 -85c0 -11 -2 -30 -5 -45z" />
    <glyph glyph-name="i.numr" horiz-adv-x="172" 
d="M124 669c0 30 23 53 58 53c27 0 48 -19 48 -43c0 -31 -25 -54 -59 -54c-28 0 -47 18 -47 44zM48 277l68 311h90l-68 -311h-90z" />
    <glyph glyph-name="j.numr" horiz-adv-x="177" 
d="M129 669c0 30 24 53 58 53c28 0 48 -19 48 -43c0 -31 -24 -54 -59 -54c-27 0 -47 18 -47 44zM23 149l-68 58c58 9 89 29 104 95l63 286h89l-67 -307c-16 -75 -55 -121 -121 -132z" />
    <glyph glyph-name="k.numr" horiz-adv-x="351" 
d="M416 588l-137 -125l78 -186h-94l-52 126l-59 -57l-15 -69h-89l99 447h89l-45 -200c-9 -39 -21 -77 -21 -77h2s28 34 51 57l87 84h106z" />
    <glyph glyph-name="l.numr" horiz-adv-x="172" 
d="M48 277l98 447h90l-98 -447h-90z" />
    <glyph glyph-name="m.numr" horiz-adv-x="537" 
d="M546 465l-41 -188h-88l40 180c3 12 3 21 3 28c0 24 -11 39 -36 39c-38 0 -57 -33 -66 -72l-38 -175h-87l39 180c3 11 4 21 4 28c0 24 -12 39 -36 39c-38 0 -57 -33 -66 -72l-38 -175h-88l68 311h88l-17 -52h2c20 31 51 59 100 59c40 0 66 -23 75 -57h2
c20 30 50 57 102 57c55 0 84 -34 84 -85c0 -11 -3 -30 -6 -45z" />
    <glyph glyph-name="n.numr" horiz-adv-x="364" 
d="M374 465l-42 -188h-89l40 180c3 12 4 21 4 28c0 24 -14 39 -41 39c-39 0 -61 -32 -70 -72l-39 -175h-89l68 311h89l-17 -52h2c21 31 54 59 103 59c53 0 86 -34 86 -85c0 -11 -2 -30 -5 -45z" />
    <glyph glyph-name="o.numr" horiz-adv-x="360" 
d="M63 402c0 104 67 193 178 193c81 0 138 -54 138 -132c0 -104 -67 -193 -179 -193c-80 0 -137 54 -137 132zM152 399c0 -37 17 -63 54 -63c56 0 84 74 84 130c0 37 -18 63 -54 63c-56 0 -84 -74 -84 -130z" />
    <glyph glyph-name="p.numr" horiz-adv-x="373" 
d="M189 541h2c19 25 46 54 93 54c69 0 108 -62 108 -130c0 -95 -63 -195 -159 -195c-45 0 -74 30 -83 58h-2l-38 -172h-89l95 432h89zM249 526c-56 0 -84 -70 -84 -123c0 -37 18 -64 55 -64c55 0 83 70 83 123c0 37 -17 64 -54 64z" />
    <glyph glyph-name="q.numr" horiz-adv-x="373" 
d="M310 536l11 52h86l-95 -432h-89l21 94c9 39 21 74 21 74h-1c-19 -25 -46 -54 -93 -54c-69 0 -108 62 -108 130c0 95 62 195 158 195c48 0 77 -31 87 -59h2zM206 339c56 0 83 70 83 123c0 37 -17 64 -54 64c-55 0 -83 -70 -83 -123c0 -37 17 -64 54 -64z" />
    <glyph glyph-name="r.numr" horiz-adv-x="291" 
d="M48 277l68 311h89l-17 -52h2c20 32 51 59 90 59c37 0 59 -27 59 -63c0 -24 -7 -44 -12 -58l-92 -45c10 23 20 47 20 68c0 15 -8 25 -24 25c-29 0 -47 -32 -56 -73l-38 -172h-89z" />
    <glyph glyph-name="s.numr" horiz-adv-x="330" 
d="M123 393c9 -38 34 -61 76 -61c24 0 48 12 48 33c0 24 -38 32 -74 44c-41 13 -84 35 -84 85c0 65 65 101 133 101s119 -28 143 -76l-77 -37c-6 31 -33 51 -67 51c-22 0 -44 -11 -44 -30c0 -22 37 -26 79 -42c41 -16 79 -36 79 -87c0 -65 -66 -104 -138 -104
c-79 0 -133 32 -152 85z" />
    <glyph glyph-name="t.numr" horiz-adv-x="239" 
d="M223 361l23 -64c-14 -12 -44 -27 -81 -27c-49 0 -80 24 -80 66c0 10 2 22 4 33l34 153h-52l14 66h52l15 63l97 48l-24 -111h73l-14 -66h-74l-32 -148c-1 -6 -2 -11 -2 -16c0 -12 6 -17 16 -17c15 0 24 12 31 20z" />
    <glyph glyph-name="u.numr" horiz-adv-x="361" 
d="M73 400l41 188h89l-39 -180c-2 -12 -4 -21 -4 -28c0 -24 11 -39 38 -39c40 0 60 32 69 72l39 175h88l-68 -311h-89l18 52h-3c-20 -31 -52 -59 -101 -59c-53 0 -84 34 -84 85c0 11 3 30 6 45z" />
    <glyph glyph-name="v.numr" horiz-adv-x="326" 
d="M119 277l-38 311h91l9 -136c3 -36 5 -94 5 -94h2s24 55 43 94l69 136h95l-171 -311h-105z" />
    <glyph glyph-name="w.numr" horiz-adv-x="484" 
d="M300 509c0 0 -24 -52 -41 -91l-61 -141h-109l1 311h88l-5 -113c-2 -43 -8 -116 -8 -116h2s42 98 59 137l41 92h99l1 -113c0 -43 -2 -116 -2 -116h2s40 101 53 137l35 92h89l-136 -311h-105v141c0 38 -1 91 -1 91h-2z" />
    <glyph glyph-name="x.numr" horiz-adv-x="326" 
d="M194 394c0 0 -12 -20 -32 -51l-51 -66h-100l129 160l-53 151h92l16 -58c9 -31 16 -56 16 -56h2s13 22 35 54l43 60h99l-124 -156l63 -155h-94l-25 66c-10 28 -14 51 -14 51h-2z" />
    <glyph glyph-name="y.numr" horiz-adv-x="323" 
d="M189 375h2s22 48 41 86l64 127h97l-183 -326c-26 -47 -58 -99 -116 -113l-69 59c40 8 76 26 98 65l6 10l-48 305h90l12 -124c3 -35 6 -89 6 -89z" />
    <glyph glyph-name="z.numr" horiz-adv-x="313" 
d="M90 522l14 66h255l-10 -48l-186 -197h148l-14 -66h-264l11 48l184 197h-138z" />
    <glyph glyph-name="zero.numr" horiz-adv-x="403" 
d="M283 634c-80 0 -116 -138 -116 -205c0 -47 15 -82 60 -82c81 0 116 138 116 205c0 47 -14 82 -60 82zM74 428c0 127 67 283 216 283c95 0 146 -70 146 -158c0 -127 -67 -283 -216 -283c-95 0 -146 70 -146 158z" />
    <glyph glyph-name="one.numr" horiz-adv-x="254" 
d="M196 592h-3c-16 -18 -44 -32 -74 -38l-30 79c58 11 112 36 149 71h68l-94 -427h-89l56 251c7 31 17 64 17 64z" />
    <glyph glyph-name="two.numr" horiz-adv-x="356" 
d="M189 499l-85 42s-3 10 -3 24c0 86 69 146 164 146c78 0 141 -52 141 -122c0 -138 -193 -192 -228 -232v-2h175l-17 -78h-287v8c0 150 265 185 265 298c0 30 -20 53 -53 53c-55 0 -75 -51 -75 -101c0 -14 2 -32 3 -36z" />
    <glyph glyph-name="three.numr" horiz-adv-x="355" 
d="M196 270c-82 0 -138 45 -145 108l87 42c0 -3 -1 -9 -1 -12c0 -36 22 -63 64 -63c47 0 80 38 80 82c0 33 -22 57 -58 57c-31 0 -53 -12 -73 -21l-19 75l138 89h-149l17 77h283l-13 -65l-99 -64c-30 -19 -73 -37 -73 -37c0 -1 1 -2 1 -3c1 0 8 2 16 2
c70 0 118 -46 118 -111c0 -87 -76 -156 -174 -156z" />
    <glyph glyph-name="four.numr" horiz-adv-x="373" 
d="M248 385h-175l-10 53c61 73 109 161 129 273l83 -44c-22 -92 -68 -153 -111 -207h100l54 244h87l-53 -244h51l-15 -75h-53l-24 -108h-87z" />
    <glyph glyph-name="five.numr" horiz-adv-x="360" 
d="M198 270c-82 0 -139 45 -145 108l87 42c0 -3 -1 -9 -1 -12c0 -38 25 -60 63 -60c46 0 87 38 87 94c0 32 -17 59 -53 59c-32 0 -57 -17 -74 -46l-74 34l77 215h242l-17 -77h-168l-15 -43c-10 -26 -23 -47 -23 -47c1 0 1 -1 2 -1c17 16 47 33 82 33c73 0 110 -60 110 -127
c0 -89 -73 -172 -180 -172z" />
    <glyph glyph-name="six.numr" horiz-adv-x="373" 
d="M299 711c62 0 118 -33 128 -88l-84 -44v5c0 29 -17 54 -53 54c-50 0 -94 -46 -117 -120c1 0 1 -1 2 -1c23 31 61 45 100 45c68 0 119 -50 119 -124c0 -91 -71 -168 -174 -168c-100 0 -147 64 -147 152c0 132 70 289 226 289zM221 341c54 0 87 44 87 95
c0 36 -23 62 -62 62c-54 0 -87 -41 -87 -91c0 -38 22 -66 62 -66z" />
    <glyph glyph-name="seven.numr" horiz-adv-x="340" 
d="M432 704l-11 -59c-87 -105 -159 -236 -193 -368h-102c36 138 122 266 191 349h-131l-21 -98l-74 45l29 131h312z" />
    <glyph glyph-name="eight.numr" horiz-adv-x="379" 
d="M209 270c-85 0 -151 46 -151 116s62 111 116 120v2c-33 15 -58 44 -58 82c0 75 79 121 164 121c75 0 137 -45 137 -105c0 -55 -45 -92 -99 -105v-2c29 -13 71 -39 71 -92c0 -84 -84 -137 -180 -137zM145 395c0 -33 31 -54 71 -54c45 0 86 26 86 70c0 33 -31 54 -70 54
c-45 0 -87 -27 -87 -70zM198 581c0 -26 24 -45 59 -45c38 0 76 20 76 59c0 26 -23 45 -59 45c-38 0 -76 -20 -76 -59z" />
    <glyph glyph-name="nine.numr" horiz-adv-x="373" 
d="M200 270c-64 0 -123 32 -133 90l85 44s-1 -3 -1 -5c0 -31 19 -56 56 -56c54 0 85 50 104 125h-2c-22 -29 -59 -44 -98 -44c-73 0 -124 52 -124 125c0 90 71 162 171 162s149 -63 149 -153c0 -125 -48 -288 -207 -288zM257 640c-51 0 -84 -39 -84 -89c0 -38 23 -62 64 -62
c52 0 85 38 85 87c0 37 -24 64 -65 64z" />
    <glyph glyph-name="dollar.numr" horiz-adv-x="398" 
d="M163 220l14 65c-66 16 -112 58 -120 117l83 44s-1 -3 -1 -7c0 -38 20 -71 56 -86l25 108c-56 20 -112 55 -112 119c0 74 75 120 161 122l12 57h74l-15 -66c54 -16 97 -51 109 -98l-84 -44c0 5 1 9 0 14c-1 28 -18 49 -44 61l-22 -102c58 -25 114 -50 114 -117
c0 -75 -72 -125 -164 -128l-13 -59h-73zM330 398c0 24 -22 39 -49 50l-22 -103c42 4 71 23 71 53zM193 587c0 -23 18 -36 44 -47l20 95c-35 -3 -64 -21 -64 -48z" />
    <glyph glyph-name="cent.numr" horiz-adv-x="377" 
d="M156 220l14 64c-61 13 -101 57 -101 126c0 91 67 165 168 178l13 60h74l-15 -63c55 -12 89 -45 93 -80c1 -5 1 -10 1 -12l-79 -36c1 5 2 10 2 18c0 19 -12 36 -34 44l-38 -170c33 9 53 33 58 62l71 -40c-17 -43 -71 -82 -141 -90l-13 -61h-73zM152 409
c0 -29 12 -50 36 -59l38 170c-47 -15 -74 -62 -74 -111z" />
    <glyph glyph-name="Euro.numr" horiz-adv-x="423" 
d="M332 505h-114c-3 -12 -5 -24 -6 -36h102l-31 -59h-73c3 -41 20 -69 63 -69c49 0 79 44 87 97l77 -53c-17 -51 -79 -115 -169 -115c-85 0 -139 48 -146 140h-56l12 59h45c1 12 3 24 6 36h-43l13 58h47c33 81 97 148 197 148c78 0 132 -46 138 -114l-87 -47c1 3 4 16 4 28
c0 35 -18 62 -62 62c-45 0 -78 -35 -98 -77h125z" />
    <glyph glyph-name="yen.numr" horiz-adv-x="405" 
d="M391 377h-113l-22 -100h-89l22 100h-112l13 59h111l2 3l-12 36h-93l14 58h59l-56 171h94l36 -130c8 -30 14 -60 14 -60c3 -1 15 22 36 51l99 139h102l-131 -171h59l-12 -58h-93l-17 -23l-11 -16h112z" />
    <glyph glyph-name="sterling.numr" horiz-adv-x="381" 
d="M315 451h-83c-4 -42 -22 -75 -52 -97h200l-18 -77h-307l13 61c47 21 72 62 76 113h-71l15 66h54c-1 12 -1 23 -1 33c0 99 56 161 161 161c71 0 131 -40 139 -107l-83 -44c0 2 2 10 2 18c0 36 -20 58 -56 58c-52 0 -74 -34 -74 -86c0 -12 0 -22 1 -33h118z" />
    <glyph glyph-name="plus.numr" horiz-adv-x="391" 
d="M169 307l29 135h-127l17 75h127l29 132h80l-28 -132h127l-17 -75h-127l-29 -135h-81z" />
    <glyph glyph-name="minus.numr" horiz-adv-x="391" 
d="M396 441h-316l17 77h316z" />
    <glyph glyph-name="multiply.numr" horiz-adv-x="391" 
d="M110 323l-49 57l133 102l-86 104l61 47l84 -103l126 101l50 -57l-131 -101l89 -105l-61 -47l-86 105z" />
    <glyph glyph-name="divide.numr" horiz-adv-x="391" 
d="M396 442h-316l17 75h316zM165 349c0 32 25 56 60 56c28 0 49 -20 49 -45c0 -32 -26 -56 -60 -56c-29 0 -49 20 -49 45zM218 601c0 32 26 55 60 55c29 0 49 -19 49 -44c0 -32 -25 -56 -60 -56c-28 0 -49 20 -49 45z" />
    <glyph glyph-name="equal.numr" horiz-adv-x="391" 
d="M381 380h-313l16 71h314zM409 504h-313l16 72h313z" />
    <glyph glyph-name="period.numr" horiz-adv-x="187" 
d="M53 317c0 35 26 59 62 59c31 0 52 -20 52 -48c0 -34 -26 -58 -63 -58c-30 0 -51 20 -51 47z" />
    <glyph glyph-name="comma.numr" horiz-adv-x="187" 
d="M164 315c0 -57 -30 -107 -83 -132l-45 37c33 11 64 27 78 62c-5 -1 -9 -1 -15 -1c-25 0 -44 17 -44 40c0 32 24 55 57 55s52 -22 52 -61z" />
    <glyph glyph-name="hyphen.numr" horiz-adv-x="230" 
d="M240 425h-172l15 73h173z" />
    <glyph glyph-name="parenleft.numr" horiz-adv-x="234" 
d="M266 752l68 -36c-96 -91 -153 -191 -153 -329c0 -70 17 -128 42 -172l-72 -36c-29 44 -59 124 -59 209c0 150 61 273 174 364z" />
    <glyph glyph-name="parenright.numr" horiz-adv-x="234" 
d="M66 178l-68 36c96 92 153 191 153 329c0 71 -18 128 -42 173l71 36c30 -45 60 -125 60 -211c0 -149 -61 -271 -174 -363z" />
    <glyph glyph-name="uni2090" unicode="&#x2090;" horiz-adv-x="378" 
d="M142 210c47 0 74 -31 83 -58h2l11 51h89l-51 -231c-5 -24 -11 -48 -11 -63c0 -9 2 -17 2 -17h-68c-8 13 -10 26 -10 40v6h-2c-18 -26 -45 -53 -95 -53c-69 0 -108 62 -108 130c0 95 62 195 158 195zM127 -46c56 0 83 70 83 123c0 37 -17 64 -54 64
c-55 0 -83 -70 -83 -123c0 -37 17 -64 54 -64z" />
    <glyph glyph-name="b.subs" horiz-adv-x="373" 
d="M63 339h89l-24 -106c-7 -32 -23 -77 -23 -77h2c19 25 46 54 93 54c69 0 108 -62 108 -130c0 -95 -63 -195 -159 -195c-48 0 -76 31 -85 60h-2l-12 -53h-86zM165 141c-56 0 -84 -70 -84 -123c0 -37 18 -64 55 -64c55 0 83 70 83 123c0 37 -17 64 -54 64z" />
    <glyph glyph-name="c.subs" horiz-adv-x="334" 
d="M149 144c-54 0 -81 -74 -81 -129c0 -37 14 -64 51 -64c40 0 62 38 67 77l76 -43c-14 -46 -70 -100 -150 -100s-133 56 -133 132c0 104 66 193 177 193c78 0 127 -48 127 -103l-87 -39c1 3 4 15 4 29c0 26 -17 47 -51 47z" />
    <glyph glyph-name="d.subs" horiz-adv-x="373" 
d="M181 -61h-1c-19 -25 -46 -54 -93 -54c-69 0 -108 62 -108 130c0 95 62 195 158 195c47 0 74 -30 83 -58h2l42 187h88l-98 -447h-88zM122 -46c56 0 83 70 83 123c0 37 -17 64 -54 64c-55 0 -83 -70 -83 -123c0 -37 17 -64 54 -64z" />
    <glyph glyph-name="uni2091" unicode="&#x2091;" horiz-adv-x="345" 
d="M268 24h-208v-11c0 -37 18 -63 56 -63c36 0 61 17 71 51l74 -43c-27 -43 -83 -73 -144 -73c-88 0 -138 51 -138 133c0 103 66 192 181 192c76 0 127 -45 127 -114c0 -28 -9 -52 -19 -72zM154 147c-40 0 -67 -30 -81 -65h131c2 4 2 10 2 17c0 28 -17 48 -52 48z" />
    <glyph glyph-name="f.subs" horiz-adv-x="239" 
d="M220 253c0 16 -11 26 -28 26c-25 0 -36 -20 -42 -44l-7 -32h71l-14 -66h-71l-54 -245h-88l54 245h-50l15 66h50l8 36c17 72 63 107 132 107c53 0 89 -28 102 -60l-79 -43s1 4 1 10z" />
    <glyph glyph-name="g.subs" horiz-adv-x="350" 
d="M-3 -92l1 2c-18 5 -35 21 -35 42c0 42 50 62 89 67v2c-24 12 -47 40 -47 75c0 72 69 114 146 114c28 0 50 -5 73 -5c40 0 42 38 43 67l73 -45c-6 -33 -29 -60 -66 -60c-10 0 -20 2 -26 3l-1 -2c14 -11 28 -33 28 -61c0 -72 -79 -111 -152 -111c-33 0 -79 -7 -79 -30
c0 -11 12 -15 33 -15c27 0 53 4 87 4c62 0 106 -27 106 -74c0 -93 -107 -115 -199 -115c-86 0 -154 25 -154 73c0 41 42 62 80 69zM111 -114c-44 0 -116 -3 -116 -36c0 -20 35 -29 82 -29c34 0 104 6 104 41c0 21 -30 24 -70 24zM148 152c-34 0 -63 -21 -63 -56
c0 -27 23 -42 50 -42c34 0 63 21 63 56c0 27 -23 42 -50 42z" />
    <glyph glyph-name="uni2095" unicode="&#x2095;" horiz-adv-x="364" 
d="M290 80l-42 -188h-89l40 180c2 11 4 21 4 28c0 24 -14 39 -41 39c-39 0 -61 -32 -70 -72l-39 -175h-89l99 447h89l-25 -111c-8 -35 -23 -77 -23 -77h2c21 31 54 59 103 59c53 0 86 -34 86 -85c0 -11 -2 -30 -5 -45z" />
    <glyph glyph-name="i.subs" horiz-adv-x="172" 
d="M40 284c0 30 23 53 58 53c27 0 48 -19 48 -43c0 -31 -25 -54 -59 -54c-28 0 -47 18 -47 44zM-36 -108l68 311h90l-68 -311h-90z" />
    <glyph glyph-name="j.subs" horiz-adv-x="177" 
d="M45 284c0 30 24 53 58 53c28 0 48 -19 48 -43c0 -31 -24 -54 -59 -54c-27 0 -47 18 -47 44zM-61 -236l-68 58c58 9 89 29 104 95l63 286h89l-67 -307c-16 -75 -55 -121 -121 -132z" />
    <glyph glyph-name="uni2096" unicode="&#x2096;" horiz-adv-x="351" 
d="M332 203l-137 -125l78 -186h-94l-52 126l-59 -57l-15 -69h-89l99 447h89l-45 -200c-9 -39 -21 -77 -21 -77h2s28 34 51 57l87 84h106z" />
    <glyph glyph-name="uni2097" unicode="&#x2097;" horiz-adv-x="172" 
d="M-36 -108l98 447h90l-98 -447h-90z" />
    <glyph glyph-name="uni2098" unicode="&#x2098;" horiz-adv-x="537" 
d="M462 80l-41 -188h-88l40 180c3 12 3 21 3 28c0 24 -11 39 -36 39c-38 0 -57 -33 -66 -72l-38 -175h-87l39 180c3 11 4 21 4 28c0 24 -12 39 -36 39c-38 0 -57 -33 -66 -72l-38 -175h-88l68 311h88l-17 -52h2c20 31 51 59 100 59c40 0 66 -23 75 -57h2c20 30 50 57 102 57
c55 0 84 -34 84 -85c0 -11 -3 -30 -6 -45z" />
    <glyph glyph-name="uni2099" unicode="&#x2099;" horiz-adv-x="364" 
d="M290 80l-42 -188h-89l40 180c3 12 4 21 4 28c0 24 -14 39 -41 39c-39 0 -61 -32 -70 -72l-39 -175h-89l68 311h89l-17 -52h2c21 31 54 59 103 59c53 0 86 -34 86 -85c0 -11 -2 -30 -5 -45z" />
    <glyph glyph-name="uni2092" unicode="&#x2092;" horiz-adv-x="360" 
d="M-21 17c0 104 67 193 178 193c81 0 138 -54 138 -132c0 -104 -67 -193 -179 -193c-80 0 -137 54 -137 132zM68 14c0 -37 17 -63 54 -63c56 0 84 74 84 130c0 37 -18 63 -54 63c-56 0 -84 -74 -84 -130z" />
    <glyph glyph-name="uni209A" unicode="&#x209a;" horiz-adv-x="373" 
d="M105 156h2c19 25 46 54 93 54c69 0 108 -62 108 -130c0 -95 -63 -195 -159 -195c-45 0 -74 30 -83 58h-2l-38 -172h-89l95 432h89zM165 141c-56 0 -84 -70 -84 -123c0 -37 18 -64 55 -64c55 0 83 70 83 123c0 37 -17 64 -54 64z" />
    <glyph glyph-name="q.subs" horiz-adv-x="373" 
d="M226 151l11 52h86l-95 -432h-89l21 94c9 39 21 74 21 74h-1c-19 -25 -46 -54 -93 -54c-69 0 -108 62 -108 130c0 95 62 195 158 195c48 0 77 -31 87 -59h2zM122 -46c56 0 83 70 83 123c0 37 -17 64 -54 64c-55 0 -83 -70 -83 -123c0 -37 17 -64 54 -64z" />
    <glyph glyph-name="r.subs" horiz-adv-x="291" 
d="M-36 -108l68 311h89l-17 -52h2c20 32 51 59 90 59c37 0 59 -27 59 -63c0 -24 -7 -44 -12 -58l-92 -45c10 23 20 47 20 68c0 15 -8 25 -24 25c-29 0 -47 -32 -56 -73l-38 -172h-89z" />
    <glyph glyph-name="uni209B" unicode="&#x209b;" horiz-adv-x="330" 
d="M39 8c9 -38 34 -61 76 -61c24 0 48 12 48 33c0 24 -38 32 -74 44c-41 13 -84 35 -84 85c0 65 65 101 133 101s119 -28 143 -76l-77 -37c-6 31 -33 51 -67 51c-22 0 -44 -11 -44 -30c0 -22 37 -26 79 -42c41 -16 79 -36 79 -87c0 -65 -66 -104 -138 -104
c-79 0 -133 32 -152 85z" />
    <glyph glyph-name="uni209C" unicode="&#x209c;" horiz-adv-x="239" 
d="M139 -24l23 -64c-14 -12 -44 -27 -81 -27c-49 0 -80 24 -80 66c0 10 2 22 4 33l34 153h-52l14 66h52l15 63l97 48l-24 -111h73l-14 -66h-74l-32 -148c-1 -6 -2 -11 -2 -16c0 -12 6 -17 16 -17c15 0 24 12 31 20z" />
    <glyph glyph-name="u.subs" horiz-adv-x="361" 
d="M-11 15l41 188h89l-39 -180c-2 -12 -4 -21 -4 -28c0 -24 11 -39 38 -39c40 0 60 32 69 72l39 175h88l-68 -311h-89l18 52h-3c-20 -31 -52 -59 -101 -59c-53 0 -84 34 -84 85c0 11 3 30 6 45z" />
    <glyph glyph-name="v.subs" horiz-adv-x="326" 
d="M35 -108l-38 311h91l9 -136c3 -36 5 -94 5 -94h2s24 55 43 94l69 136h95l-171 -311h-105z" />
    <glyph glyph-name="w.subs" horiz-adv-x="484" 
d="M216 124c0 0 -24 -52 -41 -91l-61 -141h-109l1 311h88l-5 -113c-2 -43 -8 -116 -8 -116h2s42 98 59 137l41 92h99l1 -113c0 -43 -2 -116 -2 -116h2s40 101 53 137l35 92h89l-136 -311h-105v141c0 38 -1 91 -1 91h-2z" />
    <glyph glyph-name="uni2093" unicode="&#x2093;" horiz-adv-x="326" 
d="M110 9c0 0 -12 -20 -32 -51l-51 -66h-100l129 160l-53 151h92l16 -58c9 -31 16 -56 16 -56h2s13 22 35 54l43 60h99l-124 -156l63 -155h-94l-25 66c-10 28 -14 51 -14 51h-2z" />
    <glyph glyph-name="y.subs" horiz-adv-x="323" 
d="M105 -10h2s22 48 41 86l64 127h97l-183 -326c-26 -47 -58 -99 -116 -113l-69 59c40 8 76 26 98 65l6 10l-48 305h90l12 -124c3 -35 6 -89 6 -89z" />
    <glyph glyph-name="z.subs" horiz-adv-x="313" 
d="M6 137l14 66h255l-10 -48l-186 -197h148l-14 -66h-264l11 48l184 197h-138z" />
    <glyph glyph-name="uni2080" unicode="&#x2080;" horiz-adv-x="403" 
d="M199 249c-80 0 -116 -138 -116 -205c0 -47 15 -82 60 -82c81 0 116 138 116 205c0 47 -14 82 -60 82zM-10 43c0 127 67 283 216 283c95 0 146 -70 146 -158c0 -127 -67 -283 -216 -283c-95 0 -146 70 -146 158z" />
    <glyph glyph-name="uni2081" unicode="&#x2081;" horiz-adv-x="254" 
d="M112 207h-3c-16 -18 -44 -32 -74 -38l-30 79c58 11 112 36 149 71h68l-94 -427h-89l56 251c7 31 17 64 17 64z" />
    <glyph glyph-name="uni2082" unicode="&#x2082;" horiz-adv-x="356" 
d="M105 114l-85 42s-3 10 -3 24c0 86 69 146 164 146c78 0 141 -52 141 -122c0 -138 -193 -192 -228 -232v-2h175l-17 -78h-287v8c0 150 265 185 265 298c0 30 -20 53 -53 53c-55 0 -75 -51 -75 -101c0 -14 2 -32 3 -36z" />
    <glyph glyph-name="uni2083" unicode="&#x2083;" horiz-adv-x="355" 
d="M112 -115c-82 0 -138 45 -145 108l87 42c0 -3 -1 -9 -1 -12c0 -36 22 -63 64 -63c47 0 80 38 80 82c0 33 -22 57 -58 57c-31 0 -53 -12 -73 -21l-19 75l138 89h-149l17 77h283l-13 -65l-99 -64c-30 -19 -73 -37 -73 -37c0 -1 1 -2 1 -3c1 0 8 2 16 2
c70 0 118 -46 118 -111c0 -87 -76 -156 -174 -156z" />
    <glyph glyph-name="uni2084" unicode="&#x2084;" horiz-adv-x="373" 
d="M164 0h-175l-10 53c61 73 109 161 129 273l83 -44c-22 -92 -68 -153 -111 -207h100l54 244h87l-53 -244h51l-15 -75h-53l-24 -108h-87z" />
    <glyph glyph-name="uni2085" unicode="&#x2085;" horiz-adv-x="360" 
d="M114 -115c-82 0 -139 45 -145 108l87 42c0 -3 -1 -9 -1 -12c0 -38 25 -60 63 -60c46 0 87 38 87 94c0 32 -17 59 -53 59c-32 0 -57 -17 -74 -46l-74 34l77 215h242l-17 -77h-168l-15 -43c-10 -26 -23 -47 -23 -47c1 0 1 -1 2 -1c17 16 47 33 82 33c73 0 110 -60 110 -127
c0 -89 -73 -172 -180 -172z" />
    <glyph glyph-name="uni2086" unicode="&#x2086;" horiz-adv-x="373" 
d="M215 326c62 0 118 -33 128 -88l-84 -44v5c0 29 -17 54 -53 54c-50 0 -94 -46 -117 -120c1 0 1 -1 2 -1c23 31 61 45 100 45c68 0 119 -50 119 -124c0 -91 -71 -168 -174 -168c-100 0 -147 64 -147 152c0 132 70 289 226 289zM137 -44c54 0 87 44 87 95
c0 36 -23 62 -62 62c-54 0 -87 -41 -87 -91c0 -38 22 -66 62 -66z" />
    <glyph glyph-name="uni2087" unicode="&#x2087;" horiz-adv-x="340" 
d="M348 319l-11 -59c-87 -105 -159 -236 -193 -368h-102c36 138 122 266 191 349h-131l-21 -98l-74 45l29 131h312z" />
    <glyph glyph-name="uni2088" unicode="&#x2088;" horiz-adv-x="379" 
d="M125 -115c-85 0 -151 46 -151 116s62 111 116 120v2c-33 15 -58 44 -58 82c0 75 79 121 164 121c75 0 137 -45 137 -105c0 -55 -45 -92 -99 -105v-2c29 -13 71 -39 71 -92c0 -84 -84 -137 -180 -137zM61 10c0 -33 31 -54 71 -54c45 0 86 26 86 70c0 33 -31 54 -70 54
c-45 0 -87 -27 -87 -70zM114 196c0 -26 24 -45 59 -45c38 0 76 20 76 59c0 26 -23 45 -59 45c-38 0 -76 -20 -76 -59z" />
    <glyph glyph-name="uni2089" unicode="&#x2089;" horiz-adv-x="373" 
d="M116 -115c-64 0 -123 32 -133 90l85 44s-1 -3 -1 -5c0 -31 19 -56 56 -56c54 0 85 50 104 125h-2c-22 -29 -59 -44 -98 -44c-73 0 -124 52 -124 125c0 90 71 162 171 162s149 -63 149 -153c0 -125 -48 -288 -207 -288zM173 255c-51 0 -84 -39 -84 -89
c0 -38 23 -62 64 -62c52 0 85 38 85 87c0 37 -24 64 -65 64z" />
    <glyph glyph-name="dollar.subs" horiz-adv-x="398" 
d="M79 -165l14 65c-66 16 -112 58 -120 117l83 44s-1 -3 -1 -7c0 -38 20 -71 56 -86l25 108c-56 20 -112 55 -112 119c0 74 75 120 161 122l12 57h74l-15 -66c54 -16 97 -51 109 -98l-84 -44c0 5 1 9 0 14c-1 28 -18 49 -44 61l-22 -102c58 -25 114 -50 114 -117
c0 -75 -72 -125 -164 -128l-13 -59h-73zM246 13c0 24 -22 39 -49 50l-22 -103c42 4 71 23 71 53zM109 202c0 -23 18 -36 44 -47l20 95c-35 -3 -64 -21 -64 -48z" />
    <glyph glyph-name="cent.subs" horiz-adv-x="377" 
d="M72 -165l14 64c-61 13 -101 57 -101 126c0 91 67 165 168 178l13 60h74l-15 -63c55 -12 89 -45 93 -80c1 -5 1 -10 1 -12l-79 -36c1 5 2 10 2 18c0 19 -12 36 -34 44l-38 -170c33 9 53 33 58 62l71 -40c-17 -43 -71 -82 -141 -90l-13 -61h-73zM68 24c0 -29 12 -50 36 -59
l38 170c-47 -15 -74 -62 -74 -111z" />
    <glyph glyph-name="Euro.subs" horiz-adv-x="423" 
d="M248 120h-114c-3 -12 -5 -24 -6 -36h102l-31 -59h-73c3 -41 20 -69 63 -69c49 0 79 44 87 97l77 -53c-17 -51 -79 -115 -169 -115c-85 0 -139 48 -146 140h-56l12 59h45c1 12 3 24 6 36h-43l13 58h47c33 81 97 148 197 148c78 0 132 -46 138 -114l-87 -47c1 3 4 16 4 28
c0 35 -18 62 -62 62c-45 0 -78 -35 -98 -77h125z" />
    <glyph glyph-name="yen.subs" horiz-adv-x="405" 
d="M305 -8h-113l-22 -100h-89l22 100h-112l13 59h111l2 3l-12 36h-93l14 58h59l-56 171h94l36 -130c8 -30 14 -60 14 -60c3 -1 15 22 36 51l99 139h102l-131 -171h59l-12 -58h-93l-17 -23l-11 -16h112z" />
    <glyph glyph-name="sterling.subs" horiz-adv-x="381" 
d="M231 66h-83c-4 -42 -22 -75 -52 -97h200l-18 -77h-307l13 61c47 21 72 62 76 113h-71l15 66h54c-1 12 -1 23 -1 33c0 99 56 161 161 161c71 0 131 -40 139 -107l-83 -44c0 2 2 10 2 18c0 36 -20 58 -56 58c-52 0 -74 -34 -74 -86c0 -12 0 -22 1 -33h118z" />
    <glyph glyph-name="uni208A" unicode="&#x208a;" horiz-adv-x="391" 
d="M85 -78l29 135h-127l17 75h127l29 132h80l-28 -132h127l-17 -75h-127l-29 -135h-81z" />
    <glyph glyph-name="uni208B" unicode="&#x208b;" horiz-adv-x="391" 
d="M312 56h-316l17 77h316z" />
    <glyph glyph-name="multiply.subs" horiz-adv-x="391" 
d="M26 -62l-49 57l133 102l-86 104l61 47l84 -103l126 101l50 -57l-131 -101l89 -105l-61 -47l-86 105z" />
    <glyph glyph-name="divide.subs" horiz-adv-x="391" 
d="M312 57h-316l17 75h316zM81 -36c0 32 25 56 60 56c28 0 49 -20 49 -45c0 -32 -26 -56 -60 -56c-29 0 -49 20 -49 45zM134 216c0 32 26 55 60 55c29 0 49 -19 49 -44c0 -32 -25 -56 -60 -56c-28 0 -49 20 -49 45z" />
    <glyph glyph-name="uni208C" unicode="&#x208c;" horiz-adv-x="391" 
d="M297 -5h-313l16 71h314zM325 119h-313l16 72h313z" />
    <glyph glyph-name="period.subs" horiz-adv-x="187" 
d="M-31 -68c0 35 26 59 62 59c31 0 52 -20 52 -48c0 -34 -26 -58 -63 -58c-30 0 -51 20 -51 47z" />
    <glyph glyph-name="comma.subs" horiz-adv-x="187" 
d="M80 -70c0 -57 -30 -107 -83 -132l-45 37c33 11 64 27 78 62c-5 -1 -9 -1 -15 -1c-25 0 -44 17 -44 40c0 32 24 55 57 55s52 -22 52 -61z" />
    <glyph glyph-name="hyphen.subs" horiz-adv-x="230" 
d="M156 40h-172l15 73h173z" />
    <glyph glyph-name="uni208D" unicode="&#x208d;" horiz-adv-x="234" 
d="M182 367l68 -36c-96 -91 -153 -191 -153 -329c0 -70 17 -128 42 -172l-72 -36c-29 44 -59 124 -59 209c0 150 61 273 174 364z" />
    <glyph glyph-name="uni208E" unicode="&#x208e;" horiz-adv-x="234" 
d="M-18 -207l-68 36c96 92 153 191 153 329c0 71 -18 128 -42 173l71 36c30 -45 60 -125 60 -211c0 -149 -61 -271 -174 -363z" />
    <glyph glyph-name="a.sups" horiz-adv-x="378" 
d="M248 699c47 0 74 -31 83 -58h2l11 51h89l-51 -231c-5 -24 -11 -48 -11 -63c0 -9 2 -17 2 -17h-68c-8 13 -10 26 -10 40v6h-2c-18 -26 -45 -53 -95 -53c-69 0 -108 62 -108 130c0 95 62 195 158 195zM233 443c56 0 83 70 83 123c0 37 -17 64 -54 64
c-55 0 -83 -70 -83 -123c0 -37 17 -64 54 -64z" />
    <glyph glyph-name="b.sups" horiz-adv-x="373" 
d="M170 828h89l-24 -106c-7 -32 -23 -77 -23 -77h2c19 25 46 54 93 54c69 0 108 -62 108 -130c0 -95 -63 -195 -159 -195c-48 0 -76 31 -85 60h-2l-12 -53h-86zM272 630c-56 0 -84 -70 -84 -123c0 -37 18 -64 55 -64c55 0 83 70 83 123c0 37 -17 64 -54 64z" />
    <glyph glyph-name="c.sups" horiz-adv-x="334" 
d="M256 633c-54 0 -81 -74 -81 -129c0 -37 14 -64 51 -64c40 0 62 38 67 77l76 -43c-14 -46 -70 -100 -150 -100s-133 56 -133 132c0 104 66 193 177 193c78 0 127 -48 127 -103l-87 -39c1 3 4 15 4 29c0 26 -17 47 -51 47z" />
    <glyph glyph-name="d.sups" horiz-adv-x="373" 
d="M288 428h-1c-19 -25 -46 -54 -93 -54c-69 0 -108 62 -108 130c0 95 62 195 158 195c47 0 74 -30 83 -58h2l42 187h88l-98 -447h-88zM229 443c56 0 83 70 83 123c0 37 -17 64 -54 64c-55 0 -83 -70 -83 -123c0 -37 17 -64 54 -64z" />
    <glyph glyph-name="e.sups" horiz-adv-x="345" 
d="M375 513h-208v-11c0 -37 18 -63 56 -63c36 0 61 17 71 51l74 -43c-27 -43 -83 -73 -144 -73c-88 0 -138 51 -138 133c0 103 66 192 181 192c76 0 127 -45 127 -114c0 -28 -9 -52 -19 -72zM261 636c-40 0 -67 -30 -81 -65h131c2 4 2 10 2 17c0 28 -17 48 -52 48z" />
    <glyph glyph-name="f.sups" horiz-adv-x="239" 
d="M327 742c0 16 -11 26 -28 26c-25 0 -36 -20 -42 -44l-7 -32h71l-14 -66h-71l-54 -245h-88l54 245h-50l15 66h50l8 36c17 72 63 107 132 107c53 0 89 -28 102 -60l-79 -43s1 4 1 10z" />
    <glyph glyph-name="g.sups" horiz-adv-x="350" 
d="M104 397l1 2c-18 5 -35 21 -35 42c0 42 50 62 89 67v2c-24 12 -47 40 -47 75c0 72 69 114 146 114c28 0 50 -5 73 -5c40 0 42 38 43 67l73 -45c-6 -33 -29 -60 -66 -60c-10 0 -20 2 -26 3l-1 -2c14 -11 28 -33 28 -61c0 -72 -79 -111 -152 -111c-33 0 -79 -7 -79 -30
c0 -11 12 -15 33 -15c27 0 53 4 87 4c62 0 106 -27 106 -74c0 -93 -107 -115 -199 -115c-86 0 -154 25 -154 73c0 41 42 62 80 69zM218 375c-44 0 -116 -3 -116 -36c0 -20 35 -29 82 -29c34 0 104 6 104 41c0 21 -30 24 -70 24zM255 641c-34 0 -63 -21 -63 -56
c0 -27 23 -42 50 -42c34 0 63 21 63 56c0 27 -23 42 -50 42z" />
    <glyph glyph-name="h.sups" horiz-adv-x="364" 
d="M397 569l-42 -188h-89l40 180c2 11 4 21 4 28c0 24 -14 39 -41 39c-39 0 -61 -32 -70 -72l-39 -175h-89l99 447h89l-25 -111c-8 -35 -23 -77 -23 -77h2c21 31 54 59 103 59c53 0 86 -34 86 -85c0 -11 -2 -30 -5 -45z" />
    <glyph glyph-name="uni2071" unicode="&#x2071;" horiz-adv-x="172" 
d="M147 773c0 30 23 53 58 53c27 0 48 -19 48 -43c0 -31 -25 -54 -59 -54c-28 0 -47 18 -47 44zM71 381l68 311h90l-68 -311h-90z" />
    <glyph glyph-name="j.sups" horiz-adv-x="177" 
d="M152 773c0 30 24 53 58 53c28 0 48 -19 48 -43c0 -31 -24 -54 -59 -54c-27 0 -47 18 -47 44zM46 253l-68 58c58 9 89 29 104 95l63 286h89l-67 -307c-16 -75 -55 -121 -121 -132z" />
    <glyph glyph-name="k.sups" horiz-adv-x="351" 
d="M439 692l-137 -125l78 -186h-94l-52 126l-59 -57l-15 -69h-89l99 447h89l-45 -200c-9 -39 -21 -77 -21 -77h2s28 34 51 57l87 84h106z" />
    <glyph glyph-name="l.sups" horiz-adv-x="172" 
d="M71 381l98 447h90l-98 -447h-90z" />
    <glyph glyph-name="m.sups" horiz-adv-x="537" 
d="M569 569l-41 -188h-88l40 180c3 12 3 21 3 28c0 24 -11 39 -36 39c-38 0 -57 -33 -66 -72l-38 -175h-87l39 180c3 11 4 21 4 28c0 24 -12 39 -36 39c-38 0 -57 -33 -66 -72l-38 -175h-88l68 311h88l-17 -52h2c20 31 51 59 100 59c40 0 66 -23 75 -57h2
c20 30 50 57 102 57c55 0 84 -34 84 -85c0 -11 -3 -30 -6 -45z" />
    <glyph glyph-name="uni207F" unicode="&#x207f;" horiz-adv-x="364" 
d="M397 569l-42 -188h-89l40 180c3 12 4 21 4 28c0 24 -14 39 -41 39c-39 0 -61 -32 -70 -72l-39 -175h-89l68 311h89l-17 -52h2c21 31 54 59 103 59c53 0 86 -34 86 -85c0 -11 -2 -30 -5 -45z" />
    <glyph glyph-name="o.sups" horiz-adv-x="360" 
d="M86 506c0 104 67 193 178 193c81 0 138 -54 138 -132c0 -104 -67 -193 -179 -193c-80 0 -137 54 -137 132zM175 503c0 -37 17 -63 54 -63c56 0 84 74 84 130c0 37 -18 63 -54 63c-56 0 -84 -74 -84 -130z" />
    <glyph glyph-name="p.sups" horiz-adv-x="373" 
d="M212 645h2c19 25 46 54 93 54c69 0 108 -62 108 -130c0 -95 -63 -195 -159 -195c-45 0 -74 30 -83 58h-2l-38 -172h-89l95 432h89zM272 630c-56 0 -84 -70 -84 -123c0 -37 18 -64 55 -64c55 0 83 70 83 123c0 37 -17 64 -54 64z" />
    <glyph glyph-name="q.sups" horiz-adv-x="373" 
d="M333 640l11 52h86l-95 -432h-89l21 94c9 39 21 74 21 74h-1c-19 -25 -46 -54 -93 -54c-69 0 -108 62 -108 130c0 95 62 195 158 195c48 0 77 -31 87 -59h2zM229 443c56 0 83 70 83 123c0 37 -17 64 -54 64c-55 0 -83 -70 -83 -123c0 -37 17 -64 54 -64z" />
    <glyph glyph-name="r.sups" horiz-adv-x="291" 
d="M71 381l68 311h89l-17 -52h2c20 32 51 59 90 59c37 0 59 -27 59 -63c0 -24 -7 -44 -12 -58l-92 -45c10 23 20 47 20 68c0 15 -8 25 -24 25c-29 0 -47 -32 -56 -73l-38 -172h-89z" />
    <glyph glyph-name="s.sups" horiz-adv-x="330" 
d="M146 497c9 -38 34 -61 76 -61c24 0 48 12 48 33c0 24 -38 32 -74 44c-41 13 -84 35 -84 85c0 65 65 101 133 101s119 -28 143 -76l-77 -37c-6 31 -33 51 -67 51c-22 0 -44 -11 -44 -30c0 -22 37 -26 79 -42c41 -16 79 -36 79 -87c0 -65 -66 -104 -138 -104
c-79 0 -133 32 -152 85z" />
    <glyph glyph-name="t.sups" horiz-adv-x="239" 
d="M246 465l23 -64c-14 -12 -44 -27 -81 -27c-49 0 -80 24 -80 66c0 10 2 22 4 33l34 153h-52l14 66h52l15 63l97 48l-24 -111h73l-14 -66h-74l-32 -148c-1 -6 -2 -11 -2 -16c0 -12 6 -17 16 -17c15 0 24 12 31 20z" />
    <glyph glyph-name="u.sups" horiz-adv-x="361" 
d="M96 504l41 188h89l-39 -180c-2 -12 -4 -21 -4 -28c0 -24 11 -39 38 -39c40 0 60 32 69 72l39 175h88l-68 -311h-89l18 52h-3c-20 -31 -52 -59 -101 -59c-53 0 -84 34 -84 85c0 11 3 30 6 45z" />
    <glyph glyph-name="v.sups" horiz-adv-x="326" 
d="M142 381l-38 311h91l9 -136c3 -36 5 -94 5 -94h2s24 55 43 94l69 136h95l-171 -311h-105z" />
    <glyph glyph-name="w.sups" horiz-adv-x="484" 
d="M323 613c0 0 -24 -52 -41 -91l-61 -141h-109l1 311h88l-5 -113c-2 -43 -8 -116 -8 -116h2s42 98 59 137l41 92h99l1 -113c0 -43 -2 -116 -2 -116h2s40 101 53 137l35 92h89l-136 -311h-105v141c0 38 -1 91 -1 91h-2z" />
    <glyph glyph-name="x.sups" horiz-adv-x="326" 
d="M217 498c0 0 -12 -20 -32 -51l-51 -66h-100l129 160l-53 151h92l16 -58c9 -31 16 -56 16 -56h2s13 22 35 54l43 60h99l-124 -156l63 -155h-94l-25 66c-10 28 -14 51 -14 51h-2z" />
    <glyph glyph-name="y.sups" horiz-adv-x="323" 
d="M212 479h2s22 48 41 86l64 127h97l-183 -326c-26 -47 -58 -99 -116 -113l-69 59c40 8 76 26 98 65l6 10l-48 305h90l12 -124c3 -35 6 -89 6 -89z" />
    <glyph glyph-name="z.sups" horiz-adv-x="313" 
d="M113 626l14 66h255l-10 -48l-186 -197h148l-14 -66h-264l11 48l184 197h-138z" />
    <glyph glyph-name="uni2070" unicode="&#x2070;" horiz-adv-x="403" 
d="M306 738c-80 0 -116 -138 -116 -205c0 -47 15 -82 60 -82c81 0 116 138 116 205c0 47 -14 82 -60 82zM97 532c0 127 67 283 216 283c95 0 146 -70 146 -158c0 -127 -67 -283 -216 -283c-95 0 -146 70 -146 158z" />
    <glyph glyph-name="onesuperior" unicode="&#xb9;" horiz-adv-x="254" 
d="M219 696h-3c-16 -18 -44 -32 -74 -38l-30 79c58 11 112 36 149 71h68l-94 -427h-89l56 251c7 31 17 64 17 64z" />
    <glyph glyph-name="twosuperior" unicode="&#xb2;" horiz-adv-x="356" 
d="M212 603l-85 42s-3 10 -3 24c0 86 69 146 164 146c78 0 141 -52 141 -122c0 -138 -193 -192 -228 -232v-2h175l-17 -78h-287v8c0 150 265 185 265 298c0 30 -20 53 -53 53c-55 0 -75 -51 -75 -101c0 -14 2 -32 3 -36z" />
    <glyph glyph-name="threesuperior" unicode="&#xb3;" horiz-adv-x="355" 
d="M219 374c-82 0 -138 45 -145 108l87 42c0 -3 -1 -9 -1 -12c0 -36 22 -63 64 -63c47 0 80 38 80 82c0 33 -22 57 -58 57c-31 0 -53 -12 -73 -21l-19 75l138 89h-149l17 77h283l-13 -65l-99 -64c-30 -19 -73 -37 -73 -37c0 -1 1 -2 1 -3c1 0 8 2 16 2
c70 0 118 -46 118 -111c0 -87 -76 -156 -174 -156z" />
    <glyph glyph-name="uni2074" unicode="&#x2074;" horiz-adv-x="373" 
d="M271 489h-175l-10 53c61 73 109 161 129 273l83 -44c-22 -92 -68 -153 -111 -207h100l54 244h87l-53 -244h51l-15 -75h-53l-24 -108h-87z" />
    <glyph glyph-name="uni2075" unicode="&#x2075;" horiz-adv-x="360" 
d="M221 374c-82 0 -139 45 -145 108l87 42c0 -3 -1 -9 -1 -12c0 -38 25 -60 63 -60c46 0 87 38 87 94c0 32 -17 59 -53 59c-32 0 -57 -17 -74 -46l-74 34l77 215h242l-17 -77h-168l-15 -43c-10 -26 -23 -47 -23 -47c1 0 1 -1 2 -1c17 16 47 33 82 33c73 0 110 -60 110 -127
c0 -89 -73 -172 -180 -172z" />
    <glyph glyph-name="uni2076" unicode="&#x2076;" horiz-adv-x="373" 
d="M322 815c62 0 118 -33 128 -88l-84 -44v5c0 29 -17 54 -53 54c-50 0 -94 -46 -117 -120c1 0 1 -1 2 -1c23 31 61 45 100 45c68 0 119 -50 119 -124c0 -91 -71 -168 -174 -168c-100 0 -147 64 -147 152c0 132 70 289 226 289zM244 445c54 0 87 44 87 95
c0 36 -23 62 -62 62c-54 0 -87 -41 -87 -91c0 -38 22 -66 62 -66z" />
    <glyph glyph-name="uni2077" unicode="&#x2077;" horiz-adv-x="340" 
d="M455 808l-11 -59c-87 -105 -159 -236 -193 -368h-102c36 138 122 266 191 349h-131l-21 -98l-74 45l29 131h312z" />
    <glyph glyph-name="uni2078" unicode="&#x2078;" horiz-adv-x="379" 
d="M232 374c-85 0 -151 46 -151 116s62 111 116 120v2c-33 15 -58 44 -58 82c0 75 79 121 164 121c75 0 137 -45 137 -105c0 -55 -45 -92 -99 -105v-2c29 -13 71 -39 71 -92c0 -84 -84 -137 -180 -137zM168 499c0 -33 31 -54 71 -54c45 0 86 26 86 70c0 33 -31 54 -70 54
c-45 0 -87 -27 -87 -70zM221 685c0 -26 24 -45 59 -45c38 0 76 20 76 59c0 26 -23 45 -59 45c-38 0 -76 -20 -76 -59z" />
    <glyph glyph-name="uni2079" unicode="&#x2079;" horiz-adv-x="373" 
d="M223 374c-64 0 -123 32 -133 90l85 44s-1 -3 -1 -5c0 -31 19 -56 56 -56c54 0 85 50 104 125h-2c-22 -29 -59 -44 -98 -44c-73 0 -124 52 -124 125c0 90 71 162 171 162s149 -63 149 -153c0 -125 -48 -288 -207 -288zM280 744c-51 0 -84 -39 -84 -89c0 -38 23 -62 64 -62
c52 0 85 38 85 87c0 37 -24 64 -65 64z" />
    <glyph glyph-name="dollar.sups" horiz-adv-x="398" 
d="M186 324l14 65c-66 16 -112 58 -120 117l83 44s-1 -3 -1 -7c0 -38 20 -71 56 -86l25 108c-56 20 -112 55 -112 119c0 74 75 120 161 122l12 57h74l-15 -66c54 -16 97 -51 109 -98l-84 -44c0 5 1 9 0 14c-1 28 -18 49 -44 61l-22 -102c58 -25 114 -50 114 -117
c0 -75 -72 -125 -164 -128l-13 -59h-73zM353 502c0 24 -22 39 -49 50l-22 -103c42 4 71 23 71 53zM216 691c0 -23 18 -36 44 -47l20 95c-35 -3 -64 -21 -64 -48z" />
    <glyph glyph-name="cent.sups" horiz-adv-x="377" 
d="M179 324l14 64c-61 13 -101 57 -101 126c0 91 67 165 168 178l13 60h74l-15 -63c55 -12 89 -45 93 -80c1 -5 1 -10 1 -12l-79 -36c1 5 2 10 2 18c0 19 -12 36 -34 44l-38 -170c33 9 53 33 58 62l71 -40c-17 -43 -71 -82 -141 -90l-13 -61h-73zM175 513
c0 -29 12 -50 36 -59l38 170c-47 -15 -74 -62 -74 -111z" />
    <glyph glyph-name="Euro.sups" horiz-adv-x="423" 
d="M355 609h-114c-3 -12 -5 -24 -6 -36h102l-31 -59h-73c3 -41 20 -69 63 -69c49 0 79 44 87 97l77 -53c-17 -51 -79 -115 -169 -115c-85 0 -139 48 -146 140h-56l12 59h45c1 12 3 24 6 36h-43l13 58h47c33 81 97 148 197 148c78 0 132 -46 138 -114l-87 -47c1 3 4 16 4 28
c0 35 -18 62 -62 62c-45 0 -78 -35 -98 -77h125z" />
    <glyph glyph-name="yen.sups" horiz-adv-x="405" 
d="M412 481h-113l-22 -100h-89l22 100h-112l13 59h111l2 3l-12 36h-93l14 58h59l-56 171h94l36 -130c8 -30 14 -60 14 -60c3 -1 15 22 36 51l99 139h102l-131 -171h59l-12 -58h-93l-17 -23l-11 -16h112z" />
    <glyph glyph-name="sterling.sups" horiz-adv-x="381" 
d="M338 555h-83c-4 -42 -22 -75 -52 -97h200l-18 -77h-307l13 61c47 21 72 62 76 113h-71l15 66h54c-1 12 -1 23 -1 33c0 99 56 161 161 161c71 0 131 -40 139 -107l-83 -44c0 2 2 10 2 18c0 36 -20 58 -56 58c-52 0 -74 -34 -74 -86c0 -12 0 -22 1 -33h118z" />
    <glyph glyph-name="uni207A" unicode="&#x207a;" horiz-adv-x="391" 
d="M192 411l29 135h-127l17 75h127l29 132h80l-28 -132h127l-17 -75h-127l-29 -135h-81z" />
    <glyph glyph-name="uni207B" unicode="&#x207b;" horiz-adv-x="391" 
d="M419 545h-316l17 77h316z" />
    <glyph glyph-name="multiply.sups" horiz-adv-x="391" 
d="M133 427l-49 57l133 102l-86 104l61 47l84 -103l126 101l50 -57l-131 -101l89 -105l-61 -47l-86 105z" />
    <glyph glyph-name="divide.sups" horiz-adv-x="391" 
d="M419 546h-316l17 75h316zM188 453c0 32 25 56 60 56c28 0 49 -20 49 -45c0 -32 -26 -56 -60 -56c-29 0 -49 20 -49 45zM241 705c0 32 26 55 60 55c29 0 49 -19 49 -44c0 -32 -25 -56 -60 -56c-28 0 -49 20 -49 45z" />
    <glyph glyph-name="uni207C" unicode="&#x207c;" horiz-adv-x="391" 
d="M404 484h-313l16 71h314zM432 608h-313l16 72h313z" />
    <glyph glyph-name="period.sups" horiz-adv-x="187" 
d="M76 421c0 35 26 59 62 59c31 0 52 -20 52 -48c0 -34 -26 -58 -63 -58c-30 0 -51 20 -51 47z" />
    <glyph glyph-name="comma.sups" horiz-adv-x="187" 
d="M187 419c0 -57 -30 -107 -83 -132l-45 37c33 11 64 27 78 62c-5 -1 -9 -1 -15 -1c-25 0 -44 17 -44 40c0 32 24 55 57 55s52 -22 52 -61z" />
    <glyph glyph-name="hyphen.sups" horiz-adv-x="230" 
d="M263 529h-172l15 73h173z" />
    <glyph glyph-name="uni207D" unicode="&#x207d;" horiz-adv-x="234" 
d="M289 856l68 -36c-96 -91 -153 -191 -153 -329c0 -70 17 -128 42 -172l-72 -36c-29 44 -59 124 -59 209c0 150 61 273 174 364z" />
    <glyph glyph-name="uni207E" unicode="&#x207e;" horiz-adv-x="234" 
d="M89 282l-68 36c96 92 153 191 153 329c0 71 -18 128 -42 173l71 36c30 -45 60 -125 60 -211c0 -149 -61 -271 -174 -363z" />
    <glyph glyph-name="fraction" unicode="&#x2044;" horiz-adv-x="209" 
d="M-214 40l617 666l61 -55l-617 -666z" />
    <glyph glyph-name="percent" unicode="%" horiz-adv-x="879" 
d="M441 549c0 -115 -85 -220 -205 -220c-90 0 -150 64 -150 155c0 117 85 220 205 220c91 0 150 -65 150 -155zM241 405c70 0 109 75 109 144c0 46 -19 79 -64 79c-70 0 -109 -75 -109 -145c0 -45 19 -78 64 -78zM836 208c0 -115 -84 -220 -204 -220c-91 0 -150 65 -150 155
c0 117 84 220 205 220c90 0 149 -64 149 -155zM637 64c69 0 108 76 108 145c0 45 -18 78 -64 78c-69 0 -108 -75 -108 -144c0 -46 19 -79 64 -79zM121 40l617 666l61 -55l-617 -666z" />
    <glyph glyph-name="perthousand" unicode="&#x2030;" horiz-adv-x="1276" 
d="M441 549c0 -115 -85 -220 -205 -220c-90 0 -150 64 -150 155c0 117 85 220 205 220c91 0 150 -65 150 -155zM241 405c70 0 109 75 109 144c0 46 -19 79 -64 79c-70 0 -109 -75 -109 -145c0 -45 19 -78 64 -78zM836 208c0 -115 -84 -220 -204 -220c-91 0 -150 65 -150 155
c0 117 84 220 205 220c90 0 149 -64 149 -155zM637 64c69 0 108 76 108 145c0 45 -18 78 -64 78c-69 0 -108 -75 -108 -144c0 -46 19 -79 64 -79zM1230 208c0 -115 -85 -220 -205 -220c-90 0 -150 65 -150 155c0 117 84 220 205 220c90 0 150 -64 150 -155zM1030 64
c69 0 109 76 109 145c0 45 -19 78 -64 78c-70 0 -109 -75 -109 -144c0 -46 19 -79 64 -79zM121 40l617 666l61 -55l-617 -666z" />
    <glyph glyph-name="onehalf" unicode="&#xbd;" horiz-adv-x="854" 
d="M76 40l617 666l61 -55l-617 -666zM181 592h-3c-16 -18 -44 -32 -74 -38l-30 79c58 11 112 36 149 71h68l-94 -427h-89l56 251c7 31 17 64 17 64zM619 222l-85 42s-3 10 -3 24c0 86 69 146 164 146c78 0 141 -52 141 -122c0 -138 -193 -192 -228 -232v-2h175l-17 -78h-287
v8c0 150 265 185 265 298c0 30 -20 53 -53 53c-55 0 -75 -51 -75 -101c0 -14 2 -32 3 -36z" />
    <glyph glyph-name="onethird" unicode="&#x2153;" horiz-adv-x="887" 
d="M76 40l617 666l61 -55l-617 -666zM183 592h-3c-16 -18 -44 -32 -74 -38l-30 79c58 11 112 36 149 71h68l-94 -427h-89l56 251c7 31 17 64 17 64zM657 -7c-82 0 -138 45 -145 108l87 42c0 -3 -1 -9 -1 -12c0 -36 22 -63 64 -63c47 0 80 38 80 82c0 33 -22 57 -58 57
c-31 0 -53 -12 -73 -21l-19 75l138 89h-149l17 77h283l-13 -65l-99 -64c-30 -19 -73 -37 -73 -37c0 -1 1 -2 1 -3c1 0 8 2 16 2c70 0 118 -46 118 -111c0 -87 -76 -156 -174 -156z" />
    <glyph glyph-name="twothirds" unicode="&#x2154;" horiz-adv-x="984" 
d="M174 40l617 666l61 -55l-617 -666zM169 499l-85 42s-3 10 -3 24c0 86 69 146 164 146c78 0 141 -52 141 -122c0 -138 -193 -192 -228 -232v-2h175l-17 -78h-287v8c0 150 265 185 265 298c0 30 -20 53 -53 53c-55 0 -75 -51 -75 -101c0 -14 2 -32 3 -36zM754 -7
c-82 0 -138 45 -145 108l87 42c0 -3 -1 -9 -1 -12c0 -36 22 -63 64 -63c47 0 80 38 80 82c0 33 -22 57 -58 57c-31 0 -53 -12 -73 -21l-19 75l138 89h-149l17 77h283l-13 -65l-99 -64c-30 -19 -73 -37 -73 -37c0 -1 1 -2 1 -3c1 0 8 2 16 2c70 0 118 -46 118 -111
c0 -87 -76 -156 -174 -156z" />
    <glyph glyph-name="onequarter" unicode="&#xbc;" horiz-adv-x="864" 
d="M76 40l617 666l61 -55l-617 -666zM183 592h-3c-16 -18 -44 -32 -74 -38l-30 79c58 11 112 36 149 71h68l-94 -427h-89l56 251c7 31 17 64 17 64zM671 108h-175l-10 53c61 73 109 161 129 273l83 -44c-22 -92 -68 -153 -111 -207h100l54 244h87l-53 -244h51l-15 -75h-53
l-24 -108h-87z" />
    <glyph glyph-name="threequarters" unicode="&#xbe;" horiz-adv-x="945" 
d="M157 40l617 666l61 -55l-617 -666zM752 108h-175l-10 53c61 73 109 161 129 273l83 -44c-22 -92 -68 -153 -111 -207h100l54 244h87l-53 -244h51l-15 -75h-53l-24 -108h-87zM186 270c-82 0 -138 45 -145 108l87 42c0 -3 -1 -9 -1 -12c0 -36 22 -63 64 -63
c47 0 80 38 80 82c0 33 -22 57 -58 57c-31 0 -53 -12 -73 -21l-19 75l138 89h-149l17 77h283l-13 -65l-99 -64c-30 -19 -73 -37 -73 -37c0 -1 1 -2 1 -3c1 0 8 2 16 2c70 0 118 -46 118 -111c0 -87 -76 -156 -174 -156z" />
    <glyph glyph-name="uni2155" unicode="&#x2155;" horiz-adv-x="869" 
d="M76 40l617 666l61 -55l-617 -666zM183 592h-3c-16 -18 -44 -32 -74 -38l-30 79c58 11 112 36 149 71h68l-94 -427h-89l56 251c7 31 17 64 17 64zM639 -7c-82 0 -139 45 -145 108l87 42c0 -3 -1 -9 -1 -12c0 -38 25 -60 63 -60c46 0 87 38 87 94c0 32 -17 59 -53 59
c-32 0 -57 -17 -74 -46l-74 34l77 215h242l-17 -77h-168l-15 -43c-10 -26 -23 -47 -23 -47c1 0 1 -1 2 -1c17 16 47 33 82 33c73 0 110 -60 110 -127c0 -89 -73 -172 -180 -172z" />
    <glyph glyph-name="uni2156" unicode="&#x2156;" horiz-adv-x="968" 
d="M174 40l617 666l61 -55l-617 -666zM169 499l-85 42s-3 10 -3 24c0 86 69 146 164 146c78 0 141 -52 141 -122c0 -138 -193 -192 -228 -232v-2h175l-17 -78h-287v8c0 150 265 185 265 298c0 30 -20 53 -53 53c-55 0 -75 -51 -75 -101c0 -14 2 -32 3 -36zM737 -7
c-82 0 -139 45 -145 108l87 42c0 -3 -1 -9 -1 -12c0 -38 25 -60 63 -60c46 0 87 38 87 94c0 32 -17 59 -53 59c-32 0 -57 -17 -74 -46l-74 34l77 215h242l-17 -77h-168l-15 -43c-10 -26 -23 -47 -23 -47c1 0 1 -1 2 -1c17 16 47 33 82 33c73 0 110 -60 110 -127
c0 -89 -73 -172 -180 -172z" />
    <glyph glyph-name="uni2157" unicode="&#x2157;" horiz-adv-x="953" 
d="M157 40l617 666l61 -55l-617 -666zM723 -7c-82 0 -139 45 -145 108l87 42c0 -3 -1 -9 -1 -12c0 -38 25 -60 63 -60c46 0 87 38 87 94c0 32 -17 59 -53 59c-32 0 -57 -17 -74 -46l-74 34l77 215h242l-17 -77h-168l-15 -43c-10 -26 -23 -47 -23 -47c1 0 1 -1 2 -1
c17 16 47 33 82 33c73 0 110 -60 110 -127c0 -89 -73 -172 -180 -172zM186 270c-82 0 -138 45 -145 108l87 42c0 -3 -1 -9 -1 -12c0 -36 22 -63 64 -63c47 0 80 38 80 82c0 33 -22 57 -58 57c-31 0 -53 -12 -73 -21l-19 75l138 89h-149l17 77h283l-13 -65l-99 -64
c-30 -19 -73 -37 -73 -37c0 -1 1 -2 1 -3c1 0 8 2 16 2c70 0 118 -46 118 -111c0 -87 -76 -156 -174 -156z" />
    <glyph glyph-name="uni2158" unicode="&#x2158;" horiz-adv-x="972" 
d="M178 40l617 666l61 -55l-617 -666zM742 -7c-82 0 -139 45 -145 108l87 42c0 -3 -1 -9 -1 -12c0 -38 25 -60 63 -60c46 0 87 38 87 94c0 32 -17 59 -53 59c-32 0 -57 -17 -74 -46l-74 34l77 215h242l-17 -77h-168l-15 -43c-10 -26 -23 -47 -23 -47c1 0 1 -1 2 -1
c17 16 47 33 82 33c73 0 110 -60 110 -127c0 -89 -73 -172 -180 -172zM237 385h-175l-10 53c61 73 109 161 129 273l83 -44c-22 -92 -68 -153 -111 -207h100l54 244h87l-53 -244h51l-15 -75h-53l-24 -108h-87z" />
    <glyph glyph-name="uni2159" unicode="&#x2159;" horiz-adv-x="864" 
d="M76 40l617 666l61 -55l-617 -666zM183 592h-3c-16 -18 -44 -32 -74 -38l-30 79c58 11 112 36 149 71h68l-94 -427h-89l56 251c7 31 17 64 17 64zM709 434c62 0 118 -33 128 -88l-84 -44v5c0 29 -17 54 -53 54c-50 0 -94 -46 -117 -120c1 0 1 -1 2 -1c23 31 61 45 100 45
c68 0 119 -50 119 -124c0 -91 -71 -168 -174 -168c-100 0 -147 64 -147 152c0 132 70 289 226 289zM631 64c54 0 87 44 87 95c0 36 -23 62 -62 62c-54 0 -87 -41 -87 -91c0 -38 22 -66 62 -66z" />
    <glyph glyph-name="uni215A" unicode="&#x215a;" horiz-adv-x="946" 
d="M157 40l617 666l61 -55l-617 -666zM791 434c62 0 118 -33 128 -88l-84 -44v5c0 29 -17 54 -53 54c-50 0 -94 -46 -117 -120c1 0 1 -1 2 -1c23 31 61 45 100 45c68 0 119 -50 119 -124c0 -91 -71 -168 -174 -168c-100 0 -147 64 -147 152c0 132 70 289 226 289zM713 64
c54 0 87 44 87 95c0 36 -23 62 -62 62c-54 0 -87 -41 -87 -91c0 -38 22 -66 62 -66zM184 270c-82 0 -139 45 -145 108l87 42c0 -3 -1 -9 -1 -12c0 -38 25 -60 63 -60c46 0 87 38 87 94c0 32 -17 59 -53 59c-32 0 -57 -17 -74 -46l-74 34l77 215h242l-17 -77h-168l-15 -43
c-10 -26 -23 -47 -23 -47c1 0 1 -1 2 -1c17 16 47 33 82 33c73 0 110 -60 110 -127c0 -89 -73 -172 -180 -172z" />
    <glyph glyph-name="oneeighth" unicode="&#x215b;" horiz-adv-x="884" 
d="M76 40l617 666l61 -55l-617 -666zM183 592h-3c-16 -18 -44 -32 -74 -38l-30 79c58 11 112 36 149 71h68l-94 -427h-89l56 251c7 31 17 64 17 64zM644 -7c-85 0 -151 46 -151 116s62 111 116 120v2c-33 15 -58 44 -58 82c0 75 79 121 164 121c75 0 137 -45 137 -105
c0 -55 -45 -92 -99 -105v-2c29 -13 71 -39 71 -92c0 -84 -84 -137 -180 -137zM580 118c0 -33 31 -54 71 -54c45 0 86 26 86 70c0 33 -31 54 -70 54c-45 0 -87 -27 -87 -70zM633 304c0 -26 24 -45 59 -45c38 0 76 20 76 59c0 26 -23 45 -59 45c-38 0 -76 -20 -76 -59z" />
    <glyph glyph-name="threeeighths" unicode="&#x215c;" horiz-adv-x="966" 
d="M157 40l617 666l61 -55l-617 -666zM725 -7c-85 0 -151 46 -151 116s62 111 116 120v2c-33 15 -58 44 -58 82c0 75 79 121 164 121c75 0 137 -45 137 -105c0 -55 -45 -92 -99 -105v-2c29 -13 71 -39 71 -92c0 -84 -84 -137 -180 -137zM661 118c0 -33 31 -54 71 -54
c45 0 86 26 86 70c0 33 -31 54 -70 54c-45 0 -87 -27 -87 -70zM714 304c0 -26 24 -45 59 -45c38 0 76 20 76 59c0 26 -23 45 -59 45c-38 0 -76 -20 -76 -59zM186 270c-82 0 -138 45 -145 108l87 42c0 -3 -1 -9 -1 -12c0 -36 22 -63 64 -63c47 0 80 38 80 82
c0 33 -22 57 -58 57c-31 0 -53 -12 -73 -21l-19 75l138 89h-149l17 77h283l-13 -65l-99 -64c-30 -19 -73 -37 -73 -37c0 -1 1 -2 1 -3c1 0 8 2 16 2c70 0 118 -46 118 -111c0 -87 -76 -156 -174 -156z" />
    <glyph glyph-name="fiveeighths" unicode="&#x215d;" horiz-adv-x="965" 
d="M157 40l617 666l61 -55l-617 -666zM184 270c-82 0 -139 45 -145 108l87 42c0 -3 -1 -9 -1 -12c0 -38 25 -60 63 -60c46 0 87 38 87 94c0 32 -17 59 -53 59c-32 0 -57 -17 -74 -46l-74 34l77 215h242l-17 -77h-168l-15 -43c-10 -26 -23 -47 -23 -47c1 0 1 -1 2 -1
c17 16 47 33 82 33c73 0 110 -60 110 -127c0 -89 -73 -172 -180 -172zM725 -7c-85 0 -151 46 -151 116s62 111 116 120v2c-33 15 -58 44 -58 82c0 75 79 121 164 121c75 0 137 -45 137 -105c0 -55 -45 -92 -99 -105v-2c29 -13 71 -39 71 -92c0 -84 -84 -137 -180 -137z
M661 118c0 -33 31 -54 71 -54c45 0 86 26 86 70c0 33 -31 54 -70 54c-45 0 -87 -27 -87 -70zM714 304c0 -26 24 -45 59 -45c38 0 76 20 76 59c0 26 -23 45 -59 45c-38 0 -76 -20 -76 -59z" />
    <glyph glyph-name="seveneighths" unicode="&#x215e;" horiz-adv-x="917" 
d="M106 40l617 666l61 -55l-617 -666zM677 -7c-85 0 -151 46 -151 116s62 111 116 120v2c-33 15 -58 44 -58 82c0 75 79 121 164 121c75 0 137 -45 137 -105c0 -55 -45 -92 -99 -105v-2c29 -13 71 -39 71 -92c0 -84 -84 -137 -180 -137zM613 118c0 -33 31 -54 71 -54
c45 0 86 26 86 70c0 33 -31 54 -70 54c-45 0 -87 -27 -87 -70zM666 304c0 -26 24 -45 59 -45c38 0 76 20 76 59c0 26 -23 45 -59 45c-38 0 -76 -20 -76 -59zM417 704l-11 -59c-87 -105 -159 -236 -193 -368h-102c36 138 122 266 191 349h-131l-21 -98l-74 45l29 131h312z
" />
    <glyph glyph-name="uni03A9" unicode="&#x3a9;" horiz-adv-x="724" 
d="M285 86l-18 -86h-262l21 97h62c38 0 80 -5 80 -5v1c-59 53 -101 136 -101 234c0 191 144 377 363 377c169 0 279 -122 279 -283c0 -133 -72 -255 -192 -329l1 -1s43 6 80 6h45l-20 -97h-268l19 84c120 57 218 172 218 328c0 104 -61 189 -171 189
c-153 0 -240 -154 -240 -298c0 -99 44 -172 104 -217z" />
    <glyph glyph-name="uni0394" unicode="&#x394;" horiz-adv-x="655" 
d="M-31 0l16 74l365 618h133l103 -618l-16 -74h-601zM346 481l-220 -381h343l-58 381c-6 38 -13 97 -13 97h-2s-29 -60 -50 -97z" />
    <glyph glyph-name="uni03BC" unicode="&#x3bc;" horiz-adv-x="558" 
d="M539 504l-107 -504h-111l27 86h-2c-30 -49 -82 -97 -163 -97c-27 0 -49 7 -66 18c-3 -26 -11 -87 -23 -141l-13 -62h-109l149 700h111l-63 -297c-4 -18 -6 -35 -6 -49c0 -47 24 -76 73 -76c71 0 115 59 131 134l61 288h111z" />
    <glyph glyph-name="uni00AD" unicode="&#xad;" horiz-adv-x="351" 
d="M305 258h-265l20 93h264z" />
    <glyph glyph-name="uni2219" unicode="&#x2219;" horiz-adv-x="283" 
d="M22 237l27 128h128l-28 -128h-127z" />
    <glyph glyph-name="uni02C9" unicode="&#x2c9;" horiz-adv-x="553" 
d="M219 593l19 90h260l-19 -90h-260z" />
    <glyph glyph-name="uni2215" unicode="&#x2215;" horiz-adv-x="210" 
d="M-204 40l617 666l61 -55l-617 -666z" />
    <glyph glyph-name="AEacute" unicode="&#x1fc;" horiz-adv-x="898" 
d="M394 0l37 177h-221l-133 -177h-135l526 692h479l-22 -99h-293l-40 -190h276l-20 -97h-277l-44 -207h301l-20 -99h-414zM457 506l-176 -234h170l69 321h-3s-30 -47 -60 -87zM590 734l-39 47c66 43 113 95 151 154l71 -79c-48 -55 -115 -98 -183 -122z" />
    <glyph glyph-name="Agrave" unicode="&#xc0;" horiz-adv-x="651" 
d="M478 0l-24 178h-274l-99 -178h-124l395 692h138l101 -692h-113zM349 482l-115 -207h207l-27 207c-5 35 -11 99 -11 99h-2s-31 -62 -52 -99zM489 773l-51 -39c-53 27 -117 78 -150 135l87 66c21 -55 67 -121 114 -162z" />
    <glyph glyph-name="Aacute" unicode="&#xc1;" horiz-adv-x="651" 
d="M478 0l-24 178h-274l-99 -178h-124l395 692h138l101 -692h-113zM349 482l-115 -207h207l-27 207c-5 35 -11 99 -11 99h-2s-31 -62 -52 -99zM416 734l-39 47c66 43 113 95 151 154l71 -79c-48 -55 -115 -98 -183 -122z" />
    <glyph glyph-name="Adieresis" unicode="&#xc4;" horiz-adv-x="651" 
d="M478 0l-24 178h-274l-99 -178h-124l395 692h138l101 -692h-113zM349 482l-115 -207h207l-27 207c-5 35 -11 99 -11 99h-2s-31 -62 -52 -99zM281 815c0 42 29 74 74 74c37 0 61 -24 61 -58c0 -42 -30 -74 -75 -74c-36 0 -60 24 -60 58zM471 815c0 42 29 74 74 74
c37 0 61 -24 61 -58c0 -42 -30 -74 -75 -74c-36 0 -60 24 -60 58z" />
    <glyph glyph-name="Acircumflex" unicode="&#xc2;" horiz-adv-x="651" 
d="M478 0l-24 178h-274l-99 -178h-124l395 692h138l101 -692h-113zM349 482l-115 -207h207l-27 207c-5 35 -11 99 -11 99h-2s-31 -62 -52 -99zM441 817h-2c-31 -35 -74 -70 -119 -87l-53 73c63 26 102 47 143 91h75c27 -42 61 -70 114 -99l-61 -66c-41 21 -75 56 -97 88z
" />
    <glyph glyph-name="Amacron" unicode="&#x100;" horiz-adv-x="651" 
d="M478 0l-24 178h-274l-99 -178h-124l395 692h138l101 -692h-113zM349 482l-115 -207h207l-27 207c-5 35 -11 99 -11 99h-2s-31 -62 -52 -99zM306 773l19 90h260l-19 -90h-260z" />
    <glyph glyph-name="Atilde" unicode="&#xc3;" horiz-adv-x="651" 
d="M478 0l-24 178h-274l-99 -178h-124l395 692h138l101 -692h-113zM349 482l-115 -207h207l-27 207c-5 35 -11 99 -11 99h-2s-31 -62 -52 -99zM615 847c-12 -48 -53 -97 -106 -97c-63 0 -83 54 -122 54c-25 0 -35 -29 -40 -54l-71 43c12 48 53 97 106 97
c63 0 83 -53 122 -53c25 0 35 28 40 53z" />
    <glyph glyph-name="Aring" unicode="&#xc5;" horiz-adv-x="651" 
d="M478 0l-24 178h-274l-99 -178h-124l395 692h138l101 -692h-113zM349 482l-115 -207h207l-27 207c-5 35 -11 99 -11 99h-2s-31 -62 -52 -99zM331 831c0 63 53 118 127 118c59 0 106 -43 106 -99c0 -63 -54 -117 -127 -117c-60 0 -106 42 -106 98zM454 888
c-32 0 -54 -26 -54 -55c0 -23 15 -40 41 -40c31 0 53 26 53 55c0 23 -15 40 -40 40z" />
    <glyph glyph-name="Abreve" unicode="&#x102;" horiz-adv-x="651" 
d="M478 0l-24 178h-274l-99 -178h-124l395 692h138l101 -692h-113zM349 482l-115 -207h207l-27 207c-5 35 -11 99 -11 99h-2s-31 -62 -52 -99zM509 891l86 -31c-19 -73 -82 -121 -165 -121c-68 0 -125 41 -125 112c0 5 1 9 1 9l86 31c-1 -3 -4 -14 -4 -26
c0 -29 17 -49 51 -49c45 0 67 33 70 75z" />
    <glyph glyph-name="Aogonek" unicode="&#x104;" horiz-adv-x="652" 
d="M555 -90l66 -55c-25 -35 -73 -63 -132 -63c-58 0 -103 35 -103 82c0 52 43 88 87 119l5 4l-24 181h-274l-99 -178h-124l395 692h138l101 -692c-61 -31 -121 -71 -121 -109c0 -16 12 -27 29 -27c26 0 46 20 56 46zM349 482l-115 -207h207l-27 207c-5 35 -11 99 -11 99h-2
s-31 -62 -52 -99z" />
    <glyph glyph-name="Cacute" unicode="&#x106;" horiz-adv-x="663" 
d="M422 704c147 0 254 -102 254 -218v-9l-117 -64s3 15 3 35c0 84 -48 153 -148 153c-153 0 -240 -163 -240 -322c0 -108 56 -188 160 -188c114 0 178 93 195 193l102 -71c-30 -107 -137 -225 -307 -225c-164 0 -268 126 -268 287c0 224 142 429 366 429zM438 734l-39 47
c66 43 113 95 151 154l71 -79c-48 -55 -115 -98 -183 -122z" />
    <glyph glyph-name="Cdotaccent" unicode="&#x10a;" horiz-adv-x="663" 
d="M422 704c147 0 254 -102 254 -218v-9l-117 -64s3 15 3 35c0 84 -48 153 -148 153c-153 0 -240 -163 -240 -322c0 -108 56 -188 160 -188c114 0 178 93 195 193l102 -71c-30 -107 -137 -225 -307 -225c-164 0 -268 126 -268 287c0 224 142 429 366 429zM391 817
c0 43 30 75 78 75c37 0 64 -26 64 -61c0 -42 -31 -74 -78 -74c-38 0 -64 25 -64 60z" />
    <glyph glyph-name="Ccircumflex" unicode="&#x108;" horiz-adv-x="663" 
d="M422 704c147 0 254 -102 254 -218v-9l-117 -64s3 15 3 35c0 84 -48 153 -148 153c-153 0 -240 -163 -240 -322c0 -108 56 -188 160 -188c114 0 178 93 195 193l102 -71c-30 -107 -137 -225 -307 -225c-164 0 -268 126 -268 287c0 224 142 429 366 429zM463 817h-2
c-31 -35 -74 -70 -119 -87l-53 73c63 26 102 47 143 91h75c27 -42 61 -70 114 -99l-61 -66c-41 21 -75 56 -97 88z" />
    <glyph glyph-name="Ccaron" unicode="&#x10c;" horiz-adv-x="663" 
d="M422 704c147 0 254 -102 254 -218v-9l-117 -64s3 15 3 35c0 84 -48 153 -148 153c-153 0 -240 -163 -240 -322c0 -108 56 -188 160 -188c114 0 178 93 195 193l102 -71c-30 -107 -137 -225 -307 -225c-164 0 -268 126 -268 287c0 224 142 429 366 429zM456 818h3
c30 36 73 70 119 88l52 -73c-62 -26 -102 -47 -142 -91h-75c-27 41 -62 70 -115 98l62 66c40 -20 74 -56 96 -88z" />
    <glyph glyph-name="Ccedilla" unicode="&#xc7;" horiz-adv-x="663" 
d="M422 704c147 0 254 -102 254 -218v-9l-117 -64s3 15 3 35c0 84 -48 153 -148 153c-153 0 -240 -163 -240 -322c0 -108 56 -188 160 -188c114 0 178 93 195 193l102 -71c-30 -105 -132 -220 -296 -225l-12 -26c39 -7 73 -32 73 -76c0 -55 -57 -94 -117 -94
c-57 0 -94 27 -110 59l64 39c6 -20 21 -41 50 -41c24 0 40 14 40 36c0 16 -13 29 -30 29c-16 0 -27 -9 -27 -9l-37 41l39 47c-131 25 -212 140 -212 282c0 224 142 429 366 429z" />
    <glyph glyph-name="Dcaron" unicode="&#x10e;" horiz-adv-x="693" 
d="M282 0h-261l147 692h216c179 0 296 -119 296 -276c0 -223 -145 -416 -398 -416zM301 102c173 0 261 159 261 310c0 105 -64 178 -177 178h-124l-103 -488h143zM429 818h3c30 36 73 70 119 88l52 -73c-62 -26 -102 -47 -142 -91h-75c-27 41 -62 70 -115 98l62 66
c40 -20 74 -56 96 -88z" />
    <glyph glyph-name="Egrave" unicode="&#xc8;" horiz-adv-x="571" 
d="M21 0l147 692h452l-22 -102h-337l-40 -185h321l-22 -101h-320l-43 -202h345l-21 -102h-460zM463 773l-51 -39c-53 27 -117 78 -150 135l87 66c21 -55 67 -121 114 -162z" />
    <glyph glyph-name="Eacute" unicode="&#xc9;" horiz-adv-x="571" 
d="M21 0l147 692h452l-22 -102h-337l-40 -185h321l-22 -101h-320l-43 -202h345l-21 -102h-460zM390 734l-39 47c66 43 113 95 151 154l71 -79c-48 -55 -115 -98 -183 -122z" />
    <glyph glyph-name="Edotaccent" unicode="&#x116;" horiz-adv-x="571" 
d="M21 0l147 692h452l-22 -102h-337l-40 -185h321l-22 -101h-320l-43 -202h345l-21 -102h-460zM343 817c0 43 30 75 78 75c37 0 64 -26 64 -61c0 -42 -31 -74 -78 -74c-38 0 -64 25 -64 60z" />
    <glyph glyph-name="Edieresis" unicode="&#xcb;" horiz-adv-x="571" 
d="M21 0l147 692h452l-22 -102h-337l-40 -185h321l-22 -101h-320l-43 -202h345l-21 -102h-460zM255 815c0 42 29 74 74 74c37 0 61 -24 61 -58c0 -42 -30 -74 -75 -74c-36 0 -60 24 -60 58zM445 815c0 42 29 74 74 74c37 0 61 -24 61 -58c0 -42 -30 -74 -75 -74
c-36 0 -60 24 -60 58z" />
    <glyph glyph-name="Ecircumflex" unicode="&#xca;" horiz-adv-x="571" 
d="M21 0l147 692h452l-22 -102h-337l-40 -185h321l-22 -101h-320l-43 -202h345l-21 -102h-460zM415 817h-2c-31 -35 -74 -70 -119 -87l-53 73c63 26 102 47 143 91h75c27 -42 61 -70 114 -99l-61 -66c-41 21 -75 56 -97 88z" />
    <glyph glyph-name="Ecaron" unicode="&#x11a;" horiz-adv-x="571" 
d="M21 0l147 692h452l-22 -102h-337l-40 -185h321l-22 -101h-320l-43 -202h345l-21 -102h-460zM408 818h3c30 36 73 70 119 88l52 -73c-62 -26 -102 -47 -142 -91h-75c-27 41 -62 70 -115 98l62 66c40 -20 74 -56 96 -88z" />
    <glyph glyph-name="Emacron" unicode="&#x112;" horiz-adv-x="571" 
d="M21 0l147 692h452l-22 -102h-337l-40 -185h321l-22 -101h-320l-43 -202h345l-21 -102h-460zM280 773l19 90h260l-19 -90h-260z" />
    <glyph glyph-name="Ebreve" unicode="&#x114;" horiz-adv-x="571" 
d="M21 0l147 692h452l-22 -102h-337l-40 -185h321l-22 -101h-320l-43 -202h345l-21 -102h-460zM483 891l86 -31c-19 -73 -82 -121 -165 -121c-68 0 -125 41 -125 112c0 5 1 9 1 9l86 31c-1 -3 -4 -14 -4 -26c0 -29 17 -49 51 -49c45 0 67 33 70 75z" />
    <glyph glyph-name="Eogonek" unicode="&#x118;" horiz-adv-x="571" 
d="M21 0l147 692h452l-22 -102h-337l-40 -185h321l-22 -101h-320l-43 -202h345l-21 -100l6 -2l-48 -33c-36 -26 -72 -48 -72 -76c0 -16 12 -27 29 -27c26 0 46 20 56 46l65 -55c-25 -35 -72 -63 -131 -63c-58 0 -104 35 -104 82c0 51 43 85 88 115l17 11h-366z" />
    <glyph glyph-name="Gdotaccent" unicode="&#x120;" horiz-adv-x="699" 
d="M304 -12c-152 0 -248 121 -248 283c0 227 145 433 374 433c150 0 262 -93 262 -197l-116 -64s1 9 1 21c0 78 -59 137 -155 137c-158 0 -248 -163 -248 -322c0 -110 50 -189 158 -189c102 0 178 79 199 184l2 11h-223l21 100h333l-82 -385h-107l31 101h-2
c-35 -57 -99 -113 -200 -113zM382 817c0 43 30 75 78 75c37 0 64 -26 64 -61c0 -42 -31 -74 -78 -74c-38 0 -64 25 -64 60z" />
    <glyph glyph-name="Gcircumflex" unicode="&#x11c;" horiz-adv-x="699" 
d="M304 -12c-152 0 -248 121 -248 283c0 227 145 433 374 433c150 0 262 -93 262 -197l-116 -64s1 9 1 21c0 78 -59 137 -155 137c-158 0 -248 -163 -248 -322c0 -110 50 -189 158 -189c102 0 178 79 199 184l2 11h-223l21 100h333l-82 -385h-107l31 101h-2
c-35 -57 -99 -113 -200 -113zM454 817h-2c-31 -35 -74 -70 -119 -87l-53 73c63 26 102 47 143 91h75c27 -42 61 -70 114 -99l-61 -66c-41 21 -75 56 -97 88z" />
    <glyph glyph-name="Gbreve" unicode="&#x11e;" horiz-adv-x="699" 
d="M304 -12c-152 0 -248 121 -248 283c0 227 145 433 374 433c150 0 262 -93 262 -197l-116 -64s1 9 1 21c0 78 -59 137 -155 137c-158 0 -248 -163 -248 -322c0 -110 50 -189 158 -189c102 0 178 79 199 184l2 11h-223l21 100h333l-82 -385h-107l31 101h-2
c-35 -57 -99 -113 -200 -113zM522 891l86 -31c-19 -73 -82 -121 -165 -121c-68 0 -125 41 -125 112c0 5 1 9 1 9l86 31c-1 -3 -4 -14 -4 -26c0 -29 17 -49 51 -49c45 0 67 33 70 75z" />
    <glyph glyph-name="uni0122" unicode="&#x122;" horiz-adv-x="699" 
d="M304 -12c-152 0 -248 121 -248 283c0 227 145 433 374 433c150 0 262 -93 262 -197l-116 -64s1 9 1 21c0 78 -59 137 -155 137c-158 0 -248 -163 -248 -322c0 -110 50 -189 158 -189c102 0 178 79 199 184l2 11h-223l21 100h333l-82 -385h-107l31 101h-2
c-35 -57 -99 -113 -200 -113zM194 -215c33 5 72 18 87 58c-3 -1 -6 -1 -9 -1c-26 0 -46 16 -46 43c0 36 29 58 65 58c39 0 55 -33 55 -66c0 -66 -36 -118 -90 -137z" />
    <glyph glyph-name="Hcircumflex" unicode="&#x124;" horiz-adv-x="692" 
d="M452 0l64 303h-316l-65 -303h-115l147 692h115l-60 -286h316l61 286h115l-147 -692h-115zM463 817h-2c-31 -35 -74 -70 -119 -87l-53 73c63 26 102 47 143 91h75c27 -42 61 -70 114 -99l-61 -66c-41 21 -75 56 -97 88z" />
    <glyph glyph-name="Igrave" unicode="&#xcc;" horiz-adv-x="262" 
d="M21 0l147 692h117l-147 -692h-117zM296 773l-51 -39c-53 27 -117 78 -150 135l87 66c21 -55 67 -121 114 -162z" />
    <glyph glyph-name="Iacute" unicode="&#xcd;" horiz-adv-x="262" 
d="M21 0l147 692h117l-147 -692h-117zM223 734l-39 47c66 43 113 95 151 154l71 -79c-48 -55 -115 -98 -183 -122z" />
    <glyph glyph-name="Idotaccent" unicode="&#x130;" horiz-adv-x="262" 
d="M21 0l147 692h117l-147 -692h-117zM176 817c0 43 30 75 78 75c37 0 64 -26 64 -61c0 -42 -31 -74 -78 -74c-38 0 -64 25 -64 60z" />
    <glyph glyph-name="Idieresis" unicode="&#xcf;" horiz-adv-x="262" 
d="M21 0l147 692h117l-147 -692h-117zM88 815c0 42 29 74 74 74c37 0 61 -24 61 -58c0 -42 -30 -74 -75 -74c-36 0 -60 24 -60 58zM278 815c0 42 29 74 74 74c37 0 61 -24 61 -58c0 -42 -30 -74 -75 -74c-36 0 -60 24 -60 58z" />
    <glyph glyph-name="Icircumflex" unicode="&#xce;" horiz-adv-x="262" 
d="M21 0l147 692h117l-147 -692h-117zM248 817h-2c-31 -35 -74 -70 -119 -87l-53 73c63 26 102 47 143 91h75c27 -42 61 -70 114 -99l-61 -66c-41 21 -75 56 -97 88z" />
    <glyph glyph-name="Imacron" unicode="&#x12a;" horiz-adv-x="262" 
d="M21 0l147 692h117l-147 -692h-117zM113 773l19 90h260l-19 -90h-260z" />
    <glyph glyph-name="Itilde" unicode="&#x128;" horiz-adv-x="262" 
d="M21 0l147 692h117l-147 -692h-117zM422 847c-12 -48 -53 -97 -106 -97c-63 0 -83 54 -122 54c-25 0 -35 -29 -40 -54l-71 43c12 48 53 97 106 97c63 0 83 -53 122 -53c25 0 35 28 40 53z" />
    <glyph glyph-name="Ibreve" unicode="&#x12c;" horiz-adv-x="262" 
d="M21 0l147 692h117l-147 -692h-117zM316 891l86 -31c-19 -73 -82 -121 -165 -121c-68 0 -125 41 -125 112c0 5 1 9 1 9l86 31c-1 -3 -4 -14 -4 -26c0 -29 17 -49 51 -49c45 0 67 33 70 75z" />
    <glyph glyph-name="Iogonek" unicode="&#x12e;" horiz-adv-x="262" 
d="M102 -90l66 -55c-25 -35 -73 -63 -132 -63c-58 0 -103 35 -103 82c0 50 39 86 80 115l6 4l149 699h117l-147 -692c-61 -31 -121 -71 -121 -109c0 -16 12 -27 29 -27c26 0 46 20 56 46z" />
    <glyph glyph-name="Jcircumflex" unicode="&#x134;" horiz-adv-x="555" 
d="M51 271l132 66c-16 -45 -39 -93 -39 -154c0 -56 30 -92 90 -92c84 0 124 74 145 172l91 429h115l-91 -427c-37 -175 -113 -277 -269 -277c-123 0 -194 75 -194 186c0 43 12 80 20 97zM548 817h-2c-31 -35 -74 -70 -119 -87l-53 73c63 26 102 47 143 91h75
c27 -42 61 -70 114 -99l-61 -66c-41 21 -75 56 -97 88z" />
    <glyph glyph-name="uni0136" unicode="&#x136;" horiz-adv-x="631" 
d="M21 0l147 692h114l-48 -225c-14 -66 -30 -129 -30 -129h2s49 61 112 123l235 231h146l-287 -279l170 -413h-122l-136 329l-151 -147l-38 -182h-114zM185 -215c33 5 72 18 87 58c-3 -1 -6 -1 -9 -1c-26 0 -46 16 -46 43c0 36 29 58 65 58c39 0 55 -33 55 -66
c0 -66 -36 -118 -90 -137z" />
    <glyph glyph-name="Lacute" unicode="&#x139;" horiz-adv-x="519" 
d="M21 0l147 692h116l-125 -588h318l-22 -104h-434zM222 734l-39 47c66 43 113 95 151 154l71 -79c-48 -55 -115 -98 -183 -122z" />
    <glyph glyph-name="uni013B" unicode="&#x13b;" horiz-adv-x="519" 
d="M21 0l147 692h116l-125 -588h318l-22 -104h-434zM131 -215c33 5 72 18 87 58c-3 -1 -6 -1 -9 -1c-26 0 -46 16 -46 43c0 36 29 58 65 58c39 0 55 -33 55 -66c0 -66 -36 -118 -90 -137z" />
    <glyph glyph-name="Nacute" unicode="&#x143;" horiz-adv-x="702" 
d="M578 0h-151l-140 436c-15 47 -37 129 -37 129l-3 -1c-1 -3 -12 -74 -26 -138l-90 -426h-110l147 692h151l140 -436c15 -47 38 -129 38 -129h3c0 4 10 74 25 139l90 426h110zM436 734l-39 47c66 43 113 95 151 154l71 -79c-48 -55 -115 -98 -183 -122z" />
    <glyph glyph-name="Ncaron" unicode="&#x147;" horiz-adv-x="702" 
d="M578 0h-151l-140 436c-15 47 -37 129 -37 129l-3 -1c-1 -3 -12 -74 -26 -138l-90 -426h-110l147 692h151l140 -436c15 -47 38 -129 38 -129h3c0 4 10 74 25 139l90 426h110zM454 818h3c30 36 73 70 119 88l52 -73c-62 -26 -102 -47 -142 -91h-75c-27 41 -62 70 -115 98
l62 66c40 -20 74 -56 96 -88z" />
    <glyph glyph-name="Ntilde" unicode="&#xd1;" horiz-adv-x="702" 
d="M578 0h-151l-140 436c-15 47 -37 129 -37 129l-3 -1c-1 -3 -12 -74 -26 -138l-90 -426h-110l147 692h151l140 -436c15 -47 38 -129 38 -129h3c0 4 10 74 25 139l90 426h110zM635 847c-12 -48 -53 -97 -106 -97c-63 0 -83 54 -122 54c-25 0 -35 -29 -40 -54l-71 43
c12 48 53 97 106 97c63 0 83 -53 122 -53c25 0 35 28 40 53z" />
    <glyph glyph-name="uni0145" unicode="&#x145;" horiz-adv-x="702" 
d="M186 -215c33 5 72 18 87 58c-3 -1 -6 -1 -9 -1c-26 0 -46 16 -46 43c0 36 29 58 65 58c39 0 55 -33 55 -66c0 -66 -36 -118 -90 -137zM578 0h-151l-140 436c-15 47 -37 129 -37 129l-3 -1c-1 -3 -12 -74 -26 -138l-90 -426h-110l147 692h151l140 -436
c15 -47 38 -129 38 -129h3c0 4 10 74 25 139l90 426h110z" />
    <glyph glyph-name="Ograve" unicode="&#xd2;" horiz-adv-x="715" 
d="M331 -12c-167 0 -275 126 -275 287c0 224 145 429 372 429c167 0 275 -126 275 -287c0 -224 -145 -429 -372 -429zM174 279c0 -108 59 -188 165 -188c157 0 247 163 247 322c0 108 -59 188 -166 188c-156 0 -246 -163 -246 -322zM506 773l-51 -39
c-53 27 -117 78 -150 135l87 66c21 -55 67 -121 114 -162z" />
    <glyph glyph-name="Oacute" unicode="&#xd3;" horiz-adv-x="715" 
d="M331 -12c-167 0 -275 126 -275 287c0 224 145 429 372 429c167 0 275 -126 275 -287c0 -224 -145 -429 -372 -429zM174 279c0 -108 59 -188 165 -188c157 0 247 163 247 322c0 108 -59 188 -166 188c-156 0 -246 -163 -246 -322zM433 734l-39 47c66 43 113 95 151 154
l71 -79c-48 -55 -115 -98 -183 -122z" />
    <glyph glyph-name="Ohungarumlaut" unicode="&#x150;" horiz-adv-x="715" 
d="M331 -12c-167 0 -275 126 -275 287c0 224 145 429 372 429c167 0 275 -126 275 -287c0 -224 -145 -429 -372 -429zM174 279c0 -108 59 -188 165 -188c157 0 247 163 247 322c0 108 -59 188 -166 188c-156 0 -246 -163 -246 -322zM351 734l-37 44c66 46 107 99 145 158
l69 -74c-48 -56 -111 -100 -177 -128zM527 734l-37 44c65 46 108 99 146 158l69 -74c-48 -56 -112 -100 -178 -128z" />
    <glyph glyph-name="Odieresis" unicode="&#xd6;" horiz-adv-x="715" 
d="M331 -12c-167 0 -275 126 -275 287c0 224 145 429 372 429c167 0 275 -126 275 -287c0 -224 -145 -429 -372 -429zM174 279c0 -108 59 -188 165 -188c157 0 247 163 247 322c0 108 -59 188 -166 188c-156 0 -246 -163 -246 -322zM298 815c0 42 29 74 74 74
c37 0 61 -24 61 -58c0 -42 -30 -74 -75 -74c-36 0 -60 24 -60 58zM488 815c0 42 29 74 74 74c37 0 61 -24 61 -58c0 -42 -30 -74 -75 -74c-36 0 -60 24 -60 58z" />
    <glyph glyph-name="Ocircumflex" unicode="&#xd4;" horiz-adv-x="715" 
d="M331 -12c-167 0 -275 126 -275 287c0 224 145 429 372 429c167 0 275 -126 275 -287c0 -224 -145 -429 -372 -429zM174 279c0 -108 59 -188 165 -188c157 0 247 163 247 322c0 108 -59 188 -166 188c-156 0 -246 -163 -246 -322zM458 817h-2c-31 -35 -74 -70 -119 -87
l-53 73c63 26 102 47 143 91h75c27 -42 61 -70 114 -99l-61 -66c-41 21 -75 56 -97 88z" />
    <glyph glyph-name="Omacron" unicode="&#x14c;" horiz-adv-x="715" 
d="M331 -12c-167 0 -275 126 -275 287c0 224 145 429 372 429c167 0 275 -126 275 -287c0 -224 -145 -429 -372 -429zM174 279c0 -108 59 -188 165 -188c157 0 247 163 247 322c0 108 -59 188 -166 188c-156 0 -246 -163 -246 -322zM323 773l19 90h260l-19 -90h-260z" />
    <glyph glyph-name="Obreve" unicode="&#x14e;" horiz-adv-x="715" 
d="M331 -12c-167 0 -275 126 -275 287c0 224 145 429 372 429c167 0 275 -126 275 -287c0 -224 -145 -429 -372 -429zM174 279c0 -108 59 -188 165 -188c157 0 247 163 247 322c0 108 -59 188 -166 188c-156 0 -246 -163 -246 -322zM526 891l86 -31
c-19 -73 -82 -121 -165 -121c-68 0 -125 41 -125 112c0 5 1 9 1 9l86 31c-1 -3 -4 -14 -4 -26c0 -29 17 -49 51 -49c45 0 67 33 70 75z" />
    <glyph glyph-name="Otilde" unicode="&#xd5;" horiz-adv-x="715" 
d="M331 -12c-167 0 -275 126 -275 287c0 224 145 429 372 429c167 0 275 -126 275 -287c0 -224 -145 -429 -372 -429zM174 279c0 -108 59 -188 165 -188c157 0 247 163 247 322c0 108 -59 188 -166 188c-156 0 -246 -163 -246 -322zM632 847c-12 -48 -53 -97 -106 -97
c-63 0 -83 54 -122 54c-25 0 -35 -29 -40 -54l-71 43c12 48 53 97 106 97c63 0 83 -53 122 -53c25 0 35 28 40 53z" />
    <glyph glyph-name="Oslashacute" unicode="&#x1fe;" horiz-adv-x="727" 
d="M332 -12c-68 0 -126 21 -171 57l-72 -74l-69 68l78 80c-25 45 -39 98 -39 156c0 224 146 429 373 429c69 0 127 -22 172 -58l71 74l70 -68l-78 -81c24 -44 38 -97 38 -154c0 -224 -145 -429 -373 -429zM171 280c0 -30 4 -56 11 -80l351 370c-27 23 -63 36 -109 36
c-158 0 -253 -166 -253 -326zM232 121c27 -23 63 -35 109 -35c158 0 253 166 253 326c0 29 -4 56 -11 79zM442 734l-39 47c66 43 113 95 151 154l71 -79c-48 -55 -115 -98 -183 -122z" />
    <glyph glyph-name="Racute" unicode="&#x154;" horiz-adv-x="633" 
d="M21 0l147 692h259c131 0 225 -67 225 -180c0 -118 -79 -194 -195 -219l110 -293h-119l-106 284h-146l-61 -284h-114zM384 383c87 0 151 45 151 123c0 59 -44 86 -112 86h-162l-44 -209h167zM391 734l-39 47c66 43 113 95 151 154l71 -79c-48 -55 -115 -98 -183 -122z" />
    <glyph glyph-name="Rcaron" unicode="&#x158;" horiz-adv-x="633" 
d="M21 0l147 692h259c131 0 225 -67 225 -180c0 -118 -79 -194 -195 -219l110 -293h-119l-106 284h-146l-61 -284h-114zM384 383c87 0 151 45 151 123c0 59 -44 86 -112 86h-162l-44 -209h167zM409 818h3c30 36 73 70 119 88l52 -73c-62 -26 -102 -47 -142 -91h-75
c-27 41 -62 70 -115 98l62 66c40 -20 74 -56 96 -88z" />
    <glyph glyph-name="uni0156" unicode="&#x156;" horiz-adv-x="633" 
d="M21 0l147 692h259c131 0 225 -67 225 -180c0 -118 -79 -194 -195 -219l110 -293h-119l-106 284h-146l-61 -284h-114zM384 383c87 0 151 45 151 123c0 59 -44 86 -112 86h-162l-44 -209h167zM174 -215c33 5 72 18 87 58c-3 -1 -6 -1 -9 -1c-26 0 -46 16 -46 43
c0 36 29 58 65 58c39 0 55 -33 55 -66c0 -66 -36 -118 -90 -137z" />
    <glyph glyph-name="Sacute" unicode="&#x15a;" horiz-adv-x="615" 
d="M455 192c0 65 -86 97 -171 130c-79 30 -171 86 -171 183c0 122 107 199 237 199c132 0 254 -79 275 -196l-112 -62v5c0 86 -69 155 -164 155c-63 0 -120 -32 -120 -91c0 -64 86 -84 169 -121c92 -40 172 -89 172 -190c0 -130 -109 -216 -258 -216s-276 89 -286 226
l112 62v-10c0 -100 72 -180 182 -180c76 0 135 38 135 106zM380 734l-39 47c66 43 113 95 151 154l71 -79c-48 -55 -115 -98 -183 -122z" />
    <glyph glyph-name="Scaron" unicode="&#x160;" horiz-adv-x="615" 
d="M455 192c0 65 -86 97 -171 130c-79 30 -171 86 -171 183c0 122 107 199 237 199c132 0 254 -79 275 -196l-112 -62v5c0 86 -69 155 -164 155c-63 0 -120 -32 -120 -91c0 -64 86 -84 169 -121c92 -40 172 -89 172 -190c0 -130 -109 -216 -258 -216s-276 89 -286 226
l112 62v-10c0 -100 72 -180 182 -180c76 0 135 38 135 106zM398 818h3c30 36 73 70 119 88l52 -73c-62 -26 -102 -47 -142 -91h-75c-27 41 -62 70 -115 98l62 66c40 -20 74 -56 96 -88z" />
    <glyph glyph-name="Scircumflex" unicode="&#x15c;" horiz-adv-x="615" 
d="M455 192c0 65 -86 97 -171 130c-79 30 -171 86 -171 183c0 122 107 199 237 199c132 0 254 -79 275 -196l-112 -62v5c0 86 -69 155 -164 155c-63 0 -120 -32 -120 -91c0 -64 86 -84 169 -121c92 -40 172 -89 172 -190c0 -130 -109 -216 -258 -216s-276 89 -286 226
l112 62v-10c0 -100 72 -180 182 -180c76 0 135 38 135 106zM405 817h-2c-31 -35 -74 -70 -119 -87l-53 73c63 26 102 47 143 91h75c27 -42 61 -70 114 -99l-61 -66c-41 21 -75 56 -97 88z" />
    <glyph glyph-name="uni0218" unicode="&#x218;" horiz-adv-x="615" 
d="M455 192c0 65 -86 97 -171 130c-79 30 -171 86 -171 183c0 122 107 199 237 199c132 0 254 -79 275 -196l-112 -62v5c0 86 -69 155 -164 155c-63 0 -120 -32 -120 -91c0 -64 86 -84 169 -121c92 -40 172 -89 172 -190c0 -130 -109 -216 -258 -216s-276 89 -286 226
l112 62v-10c0 -100 72 -180 182 -180c76 0 135 38 135 106zM178 -215c33 5 72 18 87 58c-3 -1 -6 -1 -9 -1c-26 0 -46 16 -46 43c0 36 29 58 65 58c39 0 55 -33 55 -66c0 -66 -36 -118 -90 -137z" />
    <glyph glyph-name="uni015E" unicode="&#x15e;" horiz-adv-x="615" 
d="M455 192c0 65 -86 97 -171 130c-79 30 -171 86 -171 183c0 122 107 199 237 199c132 0 254 -79 275 -196l-112 -62v5c0 86 -69 155 -164 155c-63 0 -120 -32 -120 -91c0 -64 86 -84 169 -121c92 -40 172 -89 172 -190c0 -128 -105 -213 -250 -216l-12 -26
c39 -7 73 -32 73 -76c0 -55 -57 -94 -117 -94c-57 0 -94 27 -110 59l64 39c6 -20 21 -41 50 -41c24 0 40 14 40 36c0 16 -13 29 -30 29c-16 0 -27 -9 -27 -9l-37 41l39 47c-122 20 -219 102 -227 221l112 62v-10c0 -100 72 -180 182 -180c76 0 135 38 135 106z" />
    <glyph glyph-name="Tcaron" unicode="&#x164;" horiz-adv-x="549" 
d="M78 588l23 104h538l-22 -104h-211l-125 -588h-116l125 588h-212zM386 818h3c30 36 73 70 119 88l52 -73c-62 -26 -102 -47 -142 -91h-75c-27 41 -62 70 -115 98l62 66c40 -20 74 -56 96 -88z" />
    <glyph glyph-name="uni021A" unicode="&#x21a;" horiz-adv-x="549" 
d="M78 588l23 104h538l-22 -104h-211l-125 -588h-116l125 588h-212zM112 -215c33 5 72 18 87 58c-3 -1 -6 -1 -9 -1c-26 0 -46 16 -46 43c0 36 29 58 65 58c39 0 55 -33 55 -66c0 -66 -36 -118 -90 -137z" />
    <glyph glyph-name="uni0162" unicode="&#x162;" horiz-adv-x="549" 
d="M78 588l23 104h538l-22 -104h-211l-125 -588h-21l-18 -38c39 -7 73 -32 73 -76c0 -55 -57 -94 -117 -94c-57 0 -94 27 -110 59l64 39c6 -20 21 -41 50 -41c24 0 40 14 40 36c0 16 -13 29 -30 29c-16 0 -27 -9 -27 -9l-37 41l45 54h-28l125 588h-212z" />
    <glyph glyph-name="Ugrave" unicode="&#xd9;" horiz-adv-x="673" 
d="M615 277c-43 -191 -139 -289 -320 -289c-135 0 -230 81 -230 213c0 31 5 65 12 98l84 393h115l-88 -413c-6 -28 -8 -49 -8 -71c0 -78 48 -117 126 -117c113 0 168 67 193 184l89 417h116zM502 773l-51 -39c-53 27 -117 78 -150 135l87 66c21 -55 67 -121 114 -162z" />
    <glyph glyph-name="Uacute" unicode="&#xda;" horiz-adv-x="673" 
d="M615 277c-43 -191 -139 -289 -320 -289c-135 0 -230 81 -230 213c0 31 5 65 12 98l84 393h115l-88 -413c-6 -28 -8 -49 -8 -71c0 -78 48 -117 126 -117c113 0 168 67 193 184l89 417h116zM429 734l-39 47c66 43 113 95 151 154l71 -79c-48 -55 -115 -98 -183 -122z" />
    <glyph glyph-name="Uhungarumlaut" unicode="&#x170;" horiz-adv-x="673" 
d="M615 277c-43 -191 -139 -289 -320 -289c-135 0 -230 81 -230 213c0 31 5 65 12 98l84 393h115l-88 -413c-6 -28 -8 -49 -8 -71c0 -78 48 -117 126 -117c113 0 168 67 193 184l89 417h116zM347 734l-37 44c66 46 107 99 145 158l69 -74c-48 -56 -111 -100 -177 -128z
M523 734l-37 44c65 46 108 99 146 158l69 -74c-48 -56 -112 -100 -178 -128z" />
    <glyph glyph-name="Udieresis" unicode="&#xdc;" horiz-adv-x="673" 
d="M615 277c-43 -191 -139 -289 -320 -289c-135 0 -230 81 -230 213c0 31 5 65 12 98l84 393h115l-88 -413c-6 -28 -8 -49 -8 -71c0 -78 48 -117 126 -117c113 0 168 67 193 184l89 417h116zM294 815c0 42 29 74 74 74c37 0 61 -24 61 -58c0 -42 -30 -74 -75 -74
c-36 0 -60 24 -60 58zM484 815c0 42 29 74 74 74c37 0 61 -24 61 -58c0 -42 -30 -74 -75 -74c-36 0 -60 24 -60 58z" />
    <glyph glyph-name="Ucircumflex" unicode="&#xdb;" horiz-adv-x="673" 
d="M615 277c-43 -191 -139 -289 -320 -289c-135 0 -230 81 -230 213c0 31 5 65 12 98l84 393h115l-88 -413c-6 -28 -8 -49 -8 -71c0 -78 48 -117 126 -117c113 0 168 67 193 184l89 417h116zM454 817h-2c-31 -35 -74 -70 -119 -87l-53 73c63 26 102 47 143 91h75
c27 -42 61 -70 114 -99l-61 -66c-41 21 -75 56 -97 88z" />
    <glyph glyph-name="Umacron" unicode="&#x16a;" horiz-adv-x="673" 
d="M615 277c-43 -191 -139 -289 -320 -289c-135 0 -230 81 -230 213c0 31 5 65 12 98l84 393h115l-88 -413c-6 -28 -8 -49 -8 -71c0 -78 48 -117 126 -117c113 0 168 67 193 184l89 417h116zM319 773l19 90h260l-19 -90h-260z" />
    <glyph glyph-name="Utilde" unicode="&#x168;" horiz-adv-x="673" 
d="M615 277c-43 -191 -139 -289 -320 -289c-135 0 -230 81 -230 213c0 31 5 65 12 98l84 393h115l-88 -413c-6 -28 -8 -49 -8 -71c0 -78 48 -117 126 -117c113 0 168 67 193 184l89 417h116zM628 847c-12 -48 -53 -97 -106 -97c-63 0 -83 54 -122 54c-25 0 -35 -29 -40 -54
l-71 43c12 48 53 97 106 97c63 0 83 -53 122 -53c25 0 35 28 40 53z" />
    <glyph glyph-name="Ubreve" unicode="&#x16c;" horiz-adv-x="673" 
d="M615 277c-43 -191 -139 -289 -320 -289c-135 0 -230 81 -230 213c0 31 5 65 12 98l84 393h115l-88 -413c-6 -28 -8 -49 -8 -71c0 -78 48 -117 126 -117c113 0 168 67 193 184l89 417h116zM522 891l86 -31c-19 -73 -82 -121 -165 -121c-68 0 -125 41 -125 112c0 5 1 9 1 9
l86 31c-1 -3 -4 -14 -4 -26c0 -29 17 -49 51 -49c45 0 67 33 70 75z" />
    <glyph glyph-name="Uring" unicode="&#x16e;" horiz-adv-x="673" 
d="M615 277c-43 -191 -139 -289 -320 -289c-135 0 -230 81 -230 213c0 31 5 65 12 98l84 393h115l-88 -413c-6 -28 -8 -49 -8 -71c0 -78 48 -117 126 -117c113 0 168 67 193 184l89 417h116zM344 831c0 63 53 118 127 118c59 0 106 -43 106 -99c0 -63 -54 -117 -127 -117
c-60 0 -106 42 -106 98zM467 888c-32 0 -54 -26 -54 -55c0 -23 15 -40 41 -40c31 0 53 26 53 55c0 23 -15 40 -40 40z" />
    <glyph glyph-name="Wgrave" unicode="&#x1e80;" horiz-adv-x="848" 
d="M582 692l5 -467c0 -35 -2 -81 -3 -106h3s18 64 33 102l188 471h123l-290 -692h-144l-7 452c-1 41 2 86 3 112h-2s-20 -60 -43 -112l-200 -452h-144l5 692h117l-14 -471c-1 -38 -8 -102 -8 -102h3s24 68 40 106l204 467h131zM583 773l-51 -39c-53 27 -117 78 -150 135
l87 66c21 -55 67 -121 114 -162z" />
    <glyph glyph-name="Wacute" unicode="&#x1e82;" horiz-adv-x="848" 
d="M582 692l5 -467c0 -35 -2 -81 -3 -106h3s18 64 33 102l188 471h123l-290 -692h-144l-7 452c-1 41 2 86 3 112h-2s-20 -60 -43 -112l-200 -452h-144l5 692h117l-14 -471c-1 -38 -8 -102 -8 -102h3s24 68 40 106l204 467h131zM510 734l-39 47c66 43 113 95 151 154l71 -79
c-48 -55 -115 -98 -183 -122z" />
    <glyph glyph-name="Wdieresis" unicode="&#x1e84;" horiz-adv-x="848" 
d="M582 692l5 -467c0 -35 -2 -81 -3 -106h3s18 64 33 102l188 471h123l-290 -692h-144l-7 452c-1 41 2 86 3 112h-2s-20 -60 -43 -112l-200 -452h-144l5 692h117l-14 -471c-1 -38 -8 -102 -8 -102h3s24 68 40 106l204 467h131zM375 815c0 42 29 74 74 74c37 0 61 -24 61 -58
c0 -42 -30 -74 -75 -74c-36 0 -60 24 -60 58zM565 815c0 42 29 74 74 74c37 0 61 -24 61 -58c0 -42 -30 -74 -75 -74c-36 0 -60 24 -60 58z" />
    <glyph glyph-name="Wcircumflex" unicode="&#x174;" horiz-adv-x="848" 
d="M582 692l5 -467c0 -35 -2 -81 -3 -106h3s18 64 33 102l188 471h123l-290 -692h-144l-7 452c-1 41 2 86 3 112h-2s-20 -60 -43 -112l-200 -452h-144l5 692h117l-14 -471c-1 -38 -8 -102 -8 -102h3s24 68 40 106l204 467h131zM535 817h-2c-31 -35 -74 -70 -119 -87l-53 73
c63 26 102 47 143 91h75c27 -42 61 -70 114 -99l-61 -66c-41 21 -75 56 -97 88z" />
    <glyph glyph-name="Ygrave" unicode="&#x1ef2;" horiz-adv-x="583" 
d="M189 0l55 263l-150 429h119l78 -235c15 -46 27 -92 27 -92h3s27 45 60 90l171 237h129l-321 -430l-55 -262h-116zM456 773l-51 -39c-53 27 -117 78 -150 135l87 66c21 -55 67 -121 114 -162z" />
    <glyph glyph-name="Yacute" unicode="&#xdd;" horiz-adv-x="583" 
d="M189 0l55 263l-150 429h119l78 -235c15 -46 27 -92 27 -92h3s27 45 60 90l171 237h129l-321 -430l-55 -262h-116zM383 734l-39 47c66 43 113 95 151 154l71 -79c-48 -55 -115 -98 -183 -122z" />
    <glyph glyph-name="Ydieresis" unicode="&#x178;" horiz-adv-x="583" 
d="M189 0l55 263l-150 429h119l78 -235c15 -46 27 -92 27 -92h3s27 45 60 90l171 237h129l-321 -430l-55 -262h-116zM248 815c0 42 29 74 74 74c37 0 61 -24 61 -58c0 -42 -30 -74 -75 -74c-36 0 -60 24 -60 58zM438 815c0 42 29 74 74 74c37 0 61 -24 61 -58
c0 -42 -30 -74 -75 -74c-36 0 -60 24 -60 58z" />
    <glyph glyph-name="Ycircumflex" unicode="&#x176;" horiz-adv-x="583" 
d="M189 0l55 263l-150 429h119l78 -235c15 -46 27 -92 27 -92h3s27 45 60 90l171 237h129l-321 -430l-55 -262h-116zM408 817h-2c-31 -35 -74 -70 -119 -87l-53 73c63 26 102 47 143 91h75c27 -42 61 -70 114 -99l-61 -66c-41 21 -75 56 -97 88z" />
    <glyph glyph-name="Zacute" unicode="&#x179;" horiz-adv-x="567" 
d="M-25 0l16 76l460 513h-345l22 103h504l-17 -79l-456 -510h355l-22 -103h-517zM365 734l-39 47c66 43 113 95 151 154l71 -79c-48 -55 -115 -98 -183 -122z" />
    <glyph glyph-name="Zdotaccent" unicode="&#x17b;" horiz-adv-x="567" 
d="M-25 0l16 76l460 513h-345l22 103h504l-17 -79l-456 -510h355l-22 -103h-517zM321 817c0 43 30 75 78 75c37 0 64 -26 64 -61c0 -42 -31 -74 -78 -74c-38 0 -64 25 -64 60z" />
    <glyph glyph-name="Zcaron" unicode="&#x17d;" horiz-adv-x="567" 
d="M-25 0l16 76l460 513h-345l22 103h504l-17 -79l-456 -510h355l-22 -103h-517zM383 818h3c30 36 73 70 119 88l52 -73c-62 -26 -102 -47 -142 -91h-75c-27 41 -62 70 -115 98l62 66c40 -20 74 -56 96 -88z" />
    <glyph glyph-name="aeacute" unicode="&#x1fd;" horiz-adv-x="851" 
d="M797 224h-319c-1 -11 -1 -21 -1 -30c0 -72 37 -119 102 -119c64 0 94 44 110 100l94 -59c-33 -72 -101 -128 -199 -128c-61 0 -108 28 -131 76h-2l-14 -65h-107l15 65h-3c-24 -37 -65 -76 -138 -76c-105 0 -171 94 -171 211c0 160 98 317 244 317c76 0 116 -43 135 -91h3
l17 78h107l-14 -62h4c35 44 81 75 140 75c93 0 155 -73 155 -168c0 -44 -8 -83 -27 -124zM242 79c96 0 146 121 146 222c0 72 -31 124 -98 124c-97 0 -147 -121 -147 -222c0 -72 31 -124 99 -124zM635 431c-71 0 -116 -60 -139 -127h220c0 2 4 17 4 35c0 50 -24 92 -85 92z
M494 554l-39 47c66 43 113 95 151 154l71 -79c-48 -55 -115 -98 -183 -122z" />
    <glyph glyph-name="agrave" unicode="&#xe0;" horiz-adv-x="567" 
d="M288 516c79 0 123 -57 138 -99h2l19 87h110l-81 -386c-8 -37 -15 -70 -15 -93c0 -12 2 -25 2 -25h-86c-10 18 -14 36 -14 56v14h-1c-26 -39 -70 -82 -149 -82c-108 0 -176 94 -176 211c0 160 102 317 251 317zM251 79c98 0 152 121 152 222c0 72 -35 124 -104 124
c-98 0 -152 -121 -152 -222c0 -72 35 -124 104 -124zM401 593l-51 -39c-53 27 -117 78 -150 135l87 66c21 -55 67 -121 114 -162z" />
    <glyph glyph-name="aacute" unicode="&#xe1;" horiz-adv-x="567" 
d="M288 516c79 0 123 -57 138 -99h2l19 87h110l-81 -386c-8 -37 -15 -70 -15 -93c0 -12 2 -25 2 -25h-86c-10 18 -14 36 -14 56v14h-1c-26 -39 -70 -82 -149 -82c-108 0 -176 94 -176 211c0 160 102 317 251 317zM251 79c98 0 152 121 152 222c0 72 -35 124 -104 124
c-98 0 -152 -121 -152 -222c0 -72 35 -124 104 -124zM328 554l-39 47c66 43 113 95 151 154l71 -79c-48 -55 -115 -98 -183 -122z" />
    <glyph glyph-name="adieresis" unicode="&#xe4;" horiz-adv-x="567" 
d="M288 516c79 0 123 -57 138 -99h2l19 87h110l-81 -386c-8 -37 -15 -70 -15 -93c0 -12 2 -25 2 -25h-86c-10 18 -14 36 -14 56v14h-1c-26 -39 -70 -82 -149 -82c-108 0 -176 94 -176 211c0 160 102 317 251 317zM251 79c98 0 152 121 152 222c0 72 -35 124 -104 124
c-98 0 -152 -121 -152 -222c0 -72 35 -124 104 -124zM193 635c0 42 29 74 74 74c37 0 61 -24 61 -58c0 -42 -30 -74 -75 -74c-36 0 -60 24 -60 58zM383 635c0 42 29 74 74 74c37 0 61 -24 61 -58c0 -42 -30 -74 -75 -74c-36 0 -60 24 -60 58z" />
    <glyph glyph-name="acircumflex" unicode="&#xe2;" horiz-adv-x="567" 
d="M288 516c79 0 123 -57 138 -99h2l19 87h110l-81 -386c-8 -37 -15 -70 -15 -93c0 -12 2 -25 2 -25h-86c-10 18 -14 36 -14 56v14h-1c-26 -39 -70 -82 -149 -82c-108 0 -176 94 -176 211c0 160 102 317 251 317zM251 79c98 0 152 121 152 222c0 72 -35 124 -104 124
c-98 0 -152 -121 -152 -222c0 -72 35 -124 104 -124zM353 637h-2c-31 -35 -74 -70 -119 -87l-53 73c63 26 102 47 143 91h75c27 -42 61 -70 114 -99l-61 -66c-41 21 -75 56 -97 88z" />
    <glyph glyph-name="amacron" unicode="&#x101;" horiz-adv-x="567" 
d="M288 516c79 0 123 -57 138 -99h2l19 87h110l-81 -386c-8 -37 -15 -70 -15 -93c0 -12 2 -25 2 -25h-86c-10 18 -14 36 -14 56v14h-1c-26 -39 -70 -82 -149 -82c-108 0 -176 94 -176 211c0 160 102 317 251 317zM251 79c98 0 152 121 152 222c0 72 -35 124 -104 124
c-98 0 -152 -121 -152 -222c0 -72 35 -124 104 -124zM218 593l19 90h260l-19 -90h-260z" />
    <glyph glyph-name="atilde" unicode="&#xe3;" horiz-adv-x="567" 
d="M288 516c79 0 123 -57 138 -99h2l19 87h110l-81 -386c-8 -37 -15 -70 -15 -93c0 -12 2 -25 2 -25h-86c-10 18 -14 36 -14 56v14h-1c-26 -39 -70 -82 -149 -82c-108 0 -176 94 -176 211c0 160 102 317 251 317zM251 79c98 0 152 121 152 222c0 72 -35 124 -104 124
c-98 0 -152 -121 -152 -222c0 -72 35 -124 104 -124zM527 667c-12 -48 -53 -97 -106 -97c-63 0 -83 54 -122 54c-25 0 -35 -29 -40 -54l-71 43c12 48 53 97 106 97c63 0 83 -53 122 -53c25 0 35 28 40 53z" />
    <glyph glyph-name="aring" unicode="&#xe5;" horiz-adv-x="567" 
d="M288 516c79 0 123 -57 138 -99h2l19 87h110l-81 -386c-8 -37 -15 -70 -15 -93c0 -12 2 -25 2 -25h-86c-10 18 -14 36 -14 56v14h-1c-26 -39 -70 -82 -149 -82c-108 0 -176 94 -176 211c0 160 102 317 251 317zM251 79c98 0 152 121 152 222c0 72 -35 124 -104 124
c-98 0 -152 -121 -152 -222c0 -72 35 -124 104 -124zM243 651c0 63 53 118 127 118c59 0 106 -43 106 -99c0 -63 -54 -117 -127 -117c-60 0 -106 42 -106 98zM366 708c-32 0 -54 -26 -54 -55c0 -23 15 -40 41 -40c31 0 53 26 53 55c0 23 -15 40 -40 40z" />
    <glyph glyph-name="abreve" unicode="&#x103;" horiz-adv-x="567" 
d="M288 516c79 0 123 -57 138 -99h2l19 87h110l-81 -386c-8 -37 -15 -70 -15 -93c0 -12 2 -25 2 -25h-86c-10 18 -14 36 -14 56v14h-1c-26 -39 -70 -82 -149 -82c-108 0 -176 94 -176 211c0 160 102 317 251 317zM251 79c98 0 152 121 152 222c0 72 -35 124 -104 124
c-98 0 -152 -121 -152 -222c0 -72 35 -124 104 -124zM421 711l86 -31c-19 -73 -82 -121 -165 -121c-68 0 -125 41 -125 112c0 5 1 9 1 9l86 31c-1 -3 -4 -14 -4 -26c0 -29 17 -49 51 -49c45 0 67 33 70 75z" />
    <glyph glyph-name="aogonek" unicode="&#x105;" horiz-adv-x="567" 
d="M426 -90l65 -55c-25 -35 -72 -63 -131 -63c-58 0 -104 35 -104 82c0 51 43 85 88 115l29 18c-7 16 -10 31 -10 49v14h-1c-26 -39 -70 -82 -149 -82c-108 0 -176 94 -176 211c0 160 102 317 251 317c79 0 123 -57 138 -99h2l19 87h110l-81 -386c-8 -37 -15 -70 -15 -93
c0 -12 2 -25 2 -25h-2l-48 -33c-36 -26 -72 -48 -72 -76c0 -16 12 -27 29 -27c26 0 46 20 56 46zM251 79c98 0 152 121 152 222c0 72 -35 124 -104 124c-98 0 -152 -121 -152 -222c0 -72 35 -124 104 -124z" />
    <glyph glyph-name="cacute" unicode="&#x107;" horiz-adv-x="509" 
d="M300 427c-99 0 -153 -123 -153 -226c0 -71 30 -124 98 -124c72 0 116 67 125 134l95 -58c-18 -73 -105 -165 -227 -165c-125 0 -201 89 -201 215c0 166 102 313 270 313c115 0 190 -80 190 -167v-3l-111 -53c2 10 5 25 5 43c0 49 -30 91 -91 91zM306 554l-39 47
c66 43 113 95 151 154l71 -79c-48 -55 -115 -98 -183 -122z" />
    <glyph glyph-name="cdotaccent" unicode="&#x10b;" horiz-adv-x="509" 
d="M300 427c-99 0 -153 -123 -153 -226c0 -71 30 -124 98 -124c72 0 116 67 125 134l95 -58c-18 -73 -105 -165 -227 -165c-125 0 -201 89 -201 215c0 166 102 313 270 313c115 0 190 -80 190 -167v-3l-111 -53c2 10 5 25 5 43c0 49 -30 91 -91 91zM259 637
c0 43 30 75 78 75c37 0 64 -26 64 -61c0 -42 -31 -74 -78 -74c-38 0 -64 25 -64 60z" />
    <glyph glyph-name="ccircumflex" unicode="&#x109;" horiz-adv-x="509" 
d="M300 427c-99 0 -153 -123 -153 -226c0 -71 30 -124 98 -124c72 0 116 67 125 134l95 -58c-18 -73 -105 -165 -227 -165c-125 0 -201 89 -201 215c0 166 102 313 270 313c115 0 190 -80 190 -167v-3l-111 -53c2 10 5 25 5 43c0 49 -30 91 -91 91zM331 637h-2
c-31 -35 -74 -70 -119 -87l-53 73c63 26 102 47 143 91h75c27 -42 61 -70 114 -99l-61 -66c-41 21 -75 56 -97 88z" />
    <glyph glyph-name="ccaron" unicode="&#x10d;" horiz-adv-x="509" 
d="M300 427c-99 0 -153 -123 -153 -226c0 -71 30 -124 98 -124c72 0 116 67 125 134l95 -58c-18 -73 -105 -165 -227 -165c-125 0 -201 89 -201 215c0 166 102 313 270 313c115 0 190 -80 190 -167v-3l-111 -53c2 10 5 25 5 43c0 49 -30 91 -91 91zM324 638h3
c30 36 73 70 119 88l52 -73c-62 -26 -102 -47 -142 -91h-75c-27 41 -62 70 -115 98l62 66c40 -20 74 -56 96 -88z" />
    <glyph glyph-name="ccedilla" unicode="&#xe7;" horiz-adv-x="509" 
d="M300 427c-99 0 -153 -123 -153 -226c0 -71 30 -124 98 -124c72 0 116 67 125 134l95 -58c-17 -69 -95 -154 -206 -164l-13 -27c39 -7 73 -32 73 -76c0 -55 -57 -94 -117 -94c-57 0 -94 27 -110 59l64 39c6 -20 21 -41 50 -41c24 0 40 14 40 36c0 16 -13 29 -30 29
c-16 0 -27 -9 -27 -9l-37 41l39 47c-97 19 -154 100 -154 210c0 166 102 313 270 313c115 0 190 -80 190 -167v-3l-111 -53c2 10 5 25 5 43c0 49 -30 91 -91 91z" />
    <glyph glyph-name="egrave" unicode="&#xe8;" horiz-adv-x="526" 
d="M478 224h-336c-1 -9 -1 -17 -1 -25c0 -73 33 -124 109 -124c67 0 105 46 120 100l95 -59c-35 -69 -119 -128 -217 -128c-138 0 -210 84 -210 216c0 165 102 312 276 312c117 0 191 -74 191 -184c0 -42 -14 -79 -27 -108zM306 431c-73 0 -122 -59 -146 -127h238
c2 9 4 18 4 31c0 54 -31 96 -96 96zM389 593l-51 -39c-53 27 -117 78 -150 135l87 66c21 -55 67 -121 114 -162z" />
    <glyph glyph-name="eacute" unicode="&#xe9;" horiz-adv-x="526" 
d="M478 224h-336c-1 -9 -1 -17 -1 -25c0 -73 33 -124 109 -124c67 0 105 46 120 100l95 -59c-35 -69 -119 -128 -217 -128c-138 0 -210 84 -210 216c0 165 102 312 276 312c117 0 191 -74 191 -184c0 -42 -14 -79 -27 -108zM306 431c-73 0 -122 -59 -146 -127h238
c2 9 4 18 4 31c0 54 -31 96 -96 96zM316 554l-39 47c66 43 113 95 151 154l71 -79c-48 -55 -115 -98 -183 -122z" />
    <glyph glyph-name="edotaccent" unicode="&#x117;" horiz-adv-x="526" 
d="M478 224h-336c-1 -9 -1 -17 -1 -25c0 -73 33 -124 109 -124c67 0 105 46 120 100l95 -59c-35 -69 -119 -128 -217 -128c-138 0 -210 84 -210 216c0 165 102 312 276 312c117 0 191 -74 191 -184c0 -42 -14 -79 -27 -108zM306 431c-73 0 -122 -59 -146 -127h238
c2 9 4 18 4 31c0 54 -31 96 -96 96zM269 637c0 43 30 75 78 75c37 0 64 -26 64 -61c0 -42 -31 -74 -78 -74c-38 0 -64 25 -64 60z" />
    <glyph glyph-name="edieresis" unicode="&#xeb;" horiz-adv-x="526" 
d="M478 224h-336c-1 -9 -1 -17 -1 -25c0 -73 33 -124 109 -124c67 0 105 46 120 100l95 -59c-35 -69 -119 -128 -217 -128c-138 0 -210 84 -210 216c0 165 102 312 276 312c117 0 191 -74 191 -184c0 -42 -14 -79 -27 -108zM306 431c-73 0 -122 -59 -146 -127h238
c2 9 4 18 4 31c0 54 -31 96 -96 96zM181 635c0 42 29 74 74 74c37 0 61 -24 61 -58c0 -42 -30 -74 -75 -74c-36 0 -60 24 -60 58zM371 635c0 42 29 74 74 74c37 0 61 -24 61 -58c0 -42 -30 -74 -75 -74c-36 0 -60 24 -60 58z" />
    <glyph glyph-name="ecircumflex" unicode="&#xea;" horiz-adv-x="526" 
d="M478 224h-336c-1 -9 -1 -17 -1 -25c0 -73 33 -124 109 -124c67 0 105 46 120 100l95 -59c-35 -69 -119 -128 -217 -128c-138 0 -210 84 -210 216c0 165 102 312 276 312c117 0 191 -74 191 -184c0 -42 -14 -79 -27 -108zM306 431c-73 0 -122 -59 -146 -127h238
c2 9 4 18 4 31c0 54 -31 96 -96 96zM341 637h-2c-31 -35 -74 -70 -119 -87l-53 73c63 26 102 47 143 91h75c27 -42 61 -70 114 -99l-61 -66c-41 21 -75 56 -97 88z" />
    <glyph glyph-name="ecaron" unicode="&#x11b;" horiz-adv-x="526" 
d="M478 224h-336c-1 -9 -1 -17 -1 -25c0 -73 33 -124 109 -124c67 0 105 46 120 100l95 -59c-35 -69 -119 -128 -217 -128c-138 0 -210 84 -210 216c0 165 102 312 276 312c117 0 191 -74 191 -184c0 -42 -14 -79 -27 -108zM306 431c-73 0 -122 -59 -146 -127h238
c2 9 4 18 4 31c0 54 -31 96 -96 96zM334 638h3c30 36 73 70 119 88l52 -73c-62 -26 -102 -47 -142 -91h-75c-27 41 -62 70 -115 98l62 66c40 -20 74 -56 96 -88z" />
    <glyph glyph-name="emacron" unicode="&#x113;" horiz-adv-x="526" 
d="M478 224h-336c-1 -9 -1 -17 -1 -25c0 -73 33 -124 109 -124c67 0 105 46 120 100l95 -59c-35 -69 -119 -128 -217 -128c-138 0 -210 84 -210 216c0 165 102 312 276 312c117 0 191 -74 191 -184c0 -42 -14 -79 -27 -108zM306 431c-73 0 -122 -59 -146 -127h238
c2 9 4 18 4 31c0 54 -31 96 -96 96zM206 593l19 90h260l-19 -90h-260z" />
    <glyph glyph-name="ebreve" unicode="&#x115;" horiz-adv-x="526" 
d="M478 224h-336c-1 -9 -1 -17 -1 -25c0 -73 33 -124 109 -124c67 0 105 46 120 100l95 -59c-35 -69 -119 -128 -217 -128c-138 0 -210 84 -210 216c0 165 102 312 276 312c117 0 191 -74 191 -184c0 -42 -14 -79 -27 -108zM306 431c-73 0 -122 -59 -146 -127h238
c2 9 4 18 4 31c0 54 -31 96 -96 96zM409 711l86 -31c-19 -73 -82 -121 -165 -121c-68 0 -125 41 -125 112c0 5 1 9 1 9l86 31c-1 -3 -4 -14 -4 -26c0 -29 17 -49 51 -49c45 0 67 33 70 75z" />
    <glyph glyph-name="gdotaccent" unicode="&#x121;" horiz-adv-x="538" 
d="M73 33l1 2c-28 9 -53 34 -53 67c0 65 72 98 132 107l1 2c-37 20 -72 66 -72 122c0 114 101 183 217 183c47 0 81 -13 121 -13c57 0 62 51 65 98l95 -60c-8 -52 -41 -93 -96 -93c-17 0 -33 3 -45 7l-1 -3c20 -16 44 -52 44 -97c0 -114 -111 -180 -223 -180
c-56 0 -134 -16 -134 -57c0 -21 22 -29 60 -29c45 0 82 6 137 6c88 0 158 -41 158 -117c0 -145 -160 -184 -304 -184c-129 0 -231 40 -231 121c0 69 68 106 128 118zM254 4c-82 0 -209 -8 -209 -75c0 -38 62 -57 138 -57c61 0 187 14 187 81c0 44 -50 51 -116 51zM293 437
c-59 0 -110 -40 -110 -104c0 -50 41 -79 89 -79c58 0 110 39 110 103c0 50 -42 80 -89 80zM265 637c0 43 30 75 78 75c37 0 64 -26 64 -61c0 -42 -31 -74 -78 -74c-38 0 -64 25 -64 60z" />
    <glyph glyph-name="gcircumflex" unicode="&#x11d;" horiz-adv-x="535" 
d="M72 33l1 2c-28 9 -54 34 -54 67c0 65 78 98 138 107v2c-37 20 -73 66 -73 122c0 114 103 183 218 183c48 0 83 -14 124 -14c62 0 75 40 78 84l86 -54c-9 -47 -45 -84 -102 -84c-17 0 -34 3 -45 7l-1 -3c20 -16 45 -52 45 -97c0 -115 -111 -180 -224 -180
c-57 0 -139 -16 -139 -57c0 -21 21 -29 60 -29c45 0 82 6 137 6c88 0 157 -41 157 -117c0 -145 -160 -184 -304 -184c-129 0 -230 40 -230 121c0 69 68 106 128 118zM253 4c-82 0 -210 -8 -210 -75c0 -38 63 -57 139 -57c60 0 187 14 187 81c0 44 -51 51 -116 51zM296 437
c-58 0 -111 -40 -111 -104c0 -50 43 -79 91 -79c58 0 111 39 111 103c0 50 -43 80 -91 80zM342 637h-3c-30 -35 -73 -70 -119 -87l-52 73c62 26 102 47 143 91h74c26 -40 60 -67 110 -94l-62 -66c-38 20 -70 53 -91 83z" />
    <glyph glyph-name="gbreve" unicode="&#x11f;" horiz-adv-x="535" 
d="M253 4c-82 0 -210 -8 -210 -75c0 -38 63 -57 139 -57c60 0 187 14 187 81c0 44 -51 51 -116 51zM296 437c-58 0 -111 -40 -111 -104c0 -50 43 -79 91 -79c58 0 111 39 111 103c0 50 -43 80 -91 80zM72 33l1 2c-28 9 -54 34 -54 67c0 65 78 98 138 107v2
c-37 20 -73 66 -73 122c0 114 103 183 218 183c48 0 83 -14 124 -14c62 0 74 40 78 85l86 -55c-9 -47 -45 -84 -102 -84c-17 0 -34 3 -45 7l-1 -3c20 -16 45 -52 45 -97c0 -115 -111 -180 -224 -180c-57 0 -139 -16 -139 -57c0 -21 21 -29 60 -29c45 0 82 6 137 6
c88 0 157 -41 157 -117c0 -145 -160 -184 -304 -184c-129 0 -230 40 -230 121c0 69 68 106 128 118zM409 711l86 -31c-19 -73 -82 -121 -165 -121c-68 0 -125 41 -125 112c0 5 1 9 1 9l86 31c-1 -3 -4 -14 -4 -26c0 -29 17 -49 51 -49c45 0 67 33 70 75z" />
    <glyph glyph-name="uni0123" unicode="&#x123;" horiz-adv-x="538" 
d="M73 33l1 2c-28 9 -53 34 -53 67c0 65 72 98 132 107l1 2c-37 20 -72 66 -72 122c0 114 101 183 217 183c47 0 81 -13 121 -13c57 0 62 51 65 98l95 -60c-8 -52 -41 -93 -96 -93c-17 0 -33 3 -45 7l-1 -3c20 -16 44 -52 44 -97c0 -114 -111 -180 -223 -180
c-56 0 -134 -16 -134 -57c0 -21 22 -29 60 -29c45 0 82 6 137 6c88 0 158 -41 158 -117c0 -145 -160 -184 -304 -184c-129 0 -231 40 -231 121c0 69 68 106 128 118zM254 4c-82 0 -209 -8 -209 -75c0 -38 62 -57 138 -57c61 0 187 14 187 81c0 44 -50 51 -116 51zM293 437
c-59 0 -110 -40 -110 -104c0 -50 41 -79 89 -79c58 0 110 39 110 103c0 50 -42 80 -89 80zM425 711c-34 -6 -73 -18 -88 -58c3 1 6 1 10 1c26 0 46 -16 46 -43c0 -36 -28 -59 -65 -59c-39 0 -55 34 -55 66c0 67 37 119 90 138z" />
    <glyph glyph-name="hcircumflex" unicode="&#x125;" horiz-adv-x="553" 
d="M503 296l-63 -296h-111l64 297c3 18 5 35 5 49c0 47 -29 76 -78 76c-71 0 -118 -59 -134 -134l-61 -288h-111l154 724h111l-38 -182c-11 -49 -36 -124 -36 -124h3c29 50 84 98 165 98c88 0 140 -57 140 -143c0 -18 -5 -55 -10 -77zM245 857h-2c-31 -35 -74 -70 -119 -87
l-53 73c63 26 102 47 143 91h75c27 -42 61 -70 114 -99l-61 -66c-41 21 -75 56 -97 88z" />
    <glyph glyph-name="igrave" unicode="&#xec;" horiz-adv-x="242" 
d="M14 0l107 504h112l-107 -504h-112zM247 593l-51 -39c-53 27 -117 78 -150 135l87 66c21 -55 67 -121 114 -162z" />
    <glyph glyph-name="iacute" unicode="&#xed;" horiz-adv-x="242" 
d="M14 0l107 504h112l-107 -504h-112zM174 554l-39 47c66 43 113 95 151 154l71 -79c-48 -55 -115 -98 -183 -122z" />
    <glyph glyph-name="idieresis" unicode="&#xef;" horiz-adv-x="242" 
d="M14 0l107 504h112l-107 -504h-112zM39 635c0 42 29 74 74 74c37 0 61 -24 61 -58c0 -42 -30 -74 -75 -74c-36 0 -60 24 -60 58zM229 635c0 42 29 74 74 74c37 0 61 -24 61 -58c0 -42 -30 -74 -75 -74c-36 0 -60 24 -60 58z" />
    <glyph glyph-name="icircumflex" unicode="&#xee;" horiz-adv-x="242" 
d="M14 0l107 504h112l-107 -504h-112zM199 637h-2c-31 -35 -74 -70 -119 -87l-53 73c63 26 102 47 143 91h75c27 -42 61 -70 114 -99l-61 -66c-41 21 -75 56 -97 88z" />
    <glyph glyph-name="imacron" unicode="&#x12b;" horiz-adv-x="242" 
d="M14 0l107 504h112l-107 -504h-112zM64 593l19 90h260l-19 -90h-260z" />
    <glyph glyph-name="itilde" unicode="&#x129;" horiz-adv-x="242" 
d="M14 0l107 504h112l-107 -504h-112zM373 667c-12 -48 -53 -97 -106 -97c-63 0 -83 54 -122 54c-25 0 -35 -29 -40 -54l-71 43c12 48 53 97 106 97c63 0 83 -53 122 -53c25 0 35 28 40 53z" />
    <glyph glyph-name="ibreve" unicode="&#x12d;" horiz-adv-x="242" 
d="M14 0l107 504h112l-107 -504h-112zM267 711l86 -31c-19 -73 -82 -121 -165 -121c-68 0 -125 41 -125 112c0 5 1 9 1 9l86 31c-1 -3 -4 -14 -4 -26c0 -29 17 -49 51 -49c45 0 67 33 70 75z" />
    <glyph glyph-name="iogonek" unicode="&#x12f;" horiz-adv-x="242" 
d="M90 -90l65 -55c-25 -35 -72 -63 -131 -63c-58 0 -104 35 -104 82c0 50 40 86 82 115l11 8l108 507h112l-107 -504c-61 -31 -121 -71 -121 -109c0 -16 12 -27 29 -27c26 0 46 20 56 46zM133 637c0 43 31 75 79 75c37 0 63 -25 63 -60c0 -43 -32 -75 -78 -75
c-38 0 -64 25 -64 60z" />
    <glyph glyph-name="jcircumflex" unicode="&#x135;" horiz-adv-x="253" 
d="M-45 -208l-88 74c100 18 142 60 165 170l100 468h111l-107 -503c-25 -120 -83 -192 -181 -209zM209 637h-2c-31 -35 -74 -70 -119 -87l-53 73c63 26 102 47 143 91h75c27 -42 61 -70 114 -99l-61 -66c-41 21 -75 56 -97 88z" />
    <glyph glyph-name="uni0137" unicode="&#x137;" horiz-adv-x="517" 
d="M557 504l-214 -202l127 -302h-117l-95 225l-108 -106l-25 -119h-111l154 724h111l-73 -345c-13 -61 -33 -125 -33 -125h2s47 54 87 94l159 156h136zM124 -215c33 5 72 18 87 58c-3 -1 -6 -1 -9 -1c-26 0 -46 16 -46 43c0 36 29 58 65 58c39 0 55 -33 55 -66
c0 -66 -36 -118 -90 -137z" />
    <glyph glyph-name="lacute" unicode="&#x13a;" horiz-adv-x="242" 
d="M14 0l154 724h112l-154 -724h-112zM222 774l-39 47c66 43 113 95 151 154l71 -79c-48 -55 -115 -98 -183 -122z" />
    <glyph glyph-name="uni013C" unicode="&#x13c;" horiz-adv-x="242" 
d="M14 0l154 724h112l-154 -724h-112zM-42 -215c33 5 72 18 87 58c-3 -1 -6 -1 -9 -1c-26 0 -46 16 -46 43c0 36 29 58 65 58c39 0 55 -33 55 -66c0 -66 -36 -118 -90 -137z" />
    <glyph glyph-name="nacute" unicode="&#x144;" horiz-adv-x="553" 
d="M503 296l-63 -296h-111l64 297c4 18 5 35 5 49c0 47 -29 76 -78 76c-71 0 -118 -59 -134 -134l-61 -288h-111l107 504h111l-27 -86h3c29 50 84 98 165 98c88 0 140 -57 140 -143c0 -18 -5 -55 -10 -77zM330 554l-39 47c66 43 113 95 151 154l71 -79
c-48 -55 -115 -98 -183 -122z" />
    <glyph glyph-name="ncaron" unicode="&#x148;" horiz-adv-x="553" 
d="M503 296l-63 -296h-111l64 297c4 18 5 35 5 49c0 47 -29 76 -78 76c-71 0 -118 -59 -134 -134l-61 -288h-111l107 504h111l-27 -86h3c29 50 84 98 165 98c88 0 140 -57 140 -143c0 -18 -5 -55 -10 -77zM348 638h3c30 36 73 70 119 88l52 -73c-62 -26 -102 -47 -142 -91
h-75c-27 41 -62 70 -115 98l62 66c40 -20 74 -56 96 -88z" />
    <glyph glyph-name="ntilde" unicode="&#xf1;" horiz-adv-x="553" 
d="M503 296l-63 -296h-111l64 297c4 18 5 35 5 49c0 47 -29 76 -78 76c-71 0 -118 -59 -134 -134l-61 -288h-111l107 504h111l-27 -86h3c29 50 84 98 165 98c88 0 140 -57 140 -143c0 -18 -5 -55 -10 -77zM529 667c-12 -48 -53 -97 -106 -97c-63 0 -83 54 -122 54
c-25 0 -35 -29 -40 -54l-71 43c12 48 53 97 106 97c63 0 83 -53 122 -53c25 0 35 28 40 53z" />
    <glyph glyph-name="uni0146" unicode="&#x146;" horiz-adv-x="553" 
d="M503 296l-63 -296h-111l64 297c4 18 5 35 5 49c0 47 -29 76 -78 76c-71 0 -118 -59 -134 -134l-61 -288h-111l107 504h111l-27 -86h3c29 50 84 98 165 98c88 0 140 -57 140 -143c0 -18 -5 -55 -10 -77zM120 -215c33 5 72 18 87 58c-3 -1 -6 -1 -9 -1c-26 0 -46 16 -46 43
c0 36 29 58 65 58c39 0 55 -33 55 -66c0 -66 -36 -118 -90 -137z" />
    <glyph glyph-name="napostrophe" unicode="&#x149;" horiz-adv-x="789" 
d="M739 296l-63 -296h-111l64 297c4 18 5 35 5 49c0 47 -29 76 -78 76c-71 0 -118 -59 -134 -134l-61 -288h-111l107 504h111l-27 -86h3c29 50 84 98 165 98c88 0 140 -57 140 -143c0 -18 -5 -55 -10 -77zM294 620c0 -82 -42 -161 -119 -201l-62 55c49 20 92 45 111 97
c-6 -2 -13 -2 -20 -2c-34 0 -61 24 -61 57c0 45 32 78 80 78c43 0 71 -29 71 -84z" />
    <glyph glyph-name="ograve" unicode="&#xf2;" horiz-adv-x="547" 
d="M36 201c0 166 106 315 276 315c122 0 205 -91 205 -213c0 -166 -105 -315 -276 -315c-122 0 -205 91 -205 213zM146 199c0 -70 37 -122 102 -122c102 0 159 124 159 228c0 70 -37 122 -102 122c-102 0 -159 -124 -159 -228zM390 593l-51 -39c-53 27 -117 78 -150 135
l87 66c21 -55 67 -121 114 -162z" />
    <glyph glyph-name="oacute" unicode="&#xf3;" horiz-adv-x="547" 
d="M36 201c0 166 106 315 276 315c122 0 205 -91 205 -213c0 -166 -105 -315 -276 -315c-122 0 -205 91 -205 213zM146 199c0 -70 37 -122 102 -122c102 0 159 124 159 228c0 70 -37 122 -102 122c-102 0 -159 -124 -159 -228zM317 554l-39 47c66 43 113 95 151 154l71 -79
c-48 -55 -115 -98 -183 -122z" />
    <glyph glyph-name="ohungarumlaut" unicode="&#x151;" horiz-adv-x="547" 
d="M36 201c0 166 106 315 276 315c122 0 205 -91 205 -213c0 -166 -105 -315 -276 -315c-122 0 -205 91 -205 213zM146 199c0 -70 37 -122 102 -122c102 0 159 124 159 228c0 70 -37 122 -102 122c-102 0 -159 -124 -159 -228zM235 554l-37 44c66 46 107 99 145 158l69 -74
c-48 -56 -111 -100 -177 -128zM411 554l-37 44c65 46 108 99 146 158l69 -74c-48 -56 -112 -100 -178 -128z" />
    <glyph glyph-name="odieresis" unicode="&#xf6;" horiz-adv-x="547" 
d="M36 201c0 166 106 315 276 315c122 0 205 -91 205 -213c0 -166 -105 -315 -276 -315c-122 0 -205 91 -205 213zM146 199c0 -70 37 -122 102 -122c102 0 159 124 159 228c0 70 -37 122 -102 122c-102 0 -159 -124 -159 -228zM182 635c0 42 29 74 74 74c37 0 61 -24 61 -58
c0 -42 -30 -74 -75 -74c-36 0 -60 24 -60 58zM372 635c0 42 29 74 74 74c37 0 61 -24 61 -58c0 -42 -30 -74 -75 -74c-36 0 -60 24 -60 58z" />
    <glyph glyph-name="ocircumflex" unicode="&#xf4;" horiz-adv-x="547" 
d="M36 201c0 166 106 315 276 315c122 0 205 -91 205 -213c0 -166 -105 -315 -276 -315c-122 0 -205 91 -205 213zM146 199c0 -70 37 -122 102 -122c102 0 159 124 159 228c0 70 -37 122 -102 122c-102 0 -159 -124 -159 -228zM342 637h-2c-31 -35 -74 -70 -119 -87l-53 73
c63 26 102 47 143 91h75c27 -42 61 -70 114 -99l-61 -66c-41 21 -75 56 -97 88z" />
    <glyph glyph-name="omacron" unicode="&#x14d;" horiz-adv-x="547" 
d="M36 201c0 166 106 315 276 315c122 0 205 -91 205 -213c0 -166 -105 -315 -276 -315c-122 0 -205 91 -205 213zM146 199c0 -70 37 -122 102 -122c102 0 159 124 159 228c0 70 -37 122 -102 122c-102 0 -159 -124 -159 -228zM207 593l19 90h260l-19 -90h-260z" />
    <glyph glyph-name="obreve" unicode="&#x14f;" horiz-adv-x="547" 
d="M36 201c0 166 106 315 276 315c122 0 205 -91 205 -213c0 -166 -105 -315 -276 -315c-122 0 -205 91 -205 213zM146 199c0 -70 37 -122 102 -122c102 0 159 124 159 228c0 70 -37 122 -102 122c-102 0 -159 -124 -159 -228zM410 711l86 -31c-19 -73 -82 -121 -165 -121
c-68 0 -125 41 -125 112c0 5 1 9 1 9l86 31c-1 -3 -4 -14 -4 -26c0 -29 17 -49 51 -49c45 0 67 33 70 75z" />
    <glyph glyph-name="otilde" unicode="&#xf5;" horiz-adv-x="547" 
d="M36 201c0 166 106 315 276 315c122 0 205 -91 205 -213c0 -166 -105 -315 -276 -315c-122 0 -205 91 -205 213zM146 199c0 -70 37 -122 102 -122c102 0 159 124 159 228c0 70 -37 122 -102 122c-102 0 -159 -124 -159 -228zM516 667c-12 -48 -53 -97 -106 -97
c-63 0 -83 54 -122 54c-25 0 -35 -29 -40 -54l-71 43c12 48 53 97 106 97c63 0 83 -53 122 -53c25 0 35 28 40 53z" />
    <glyph glyph-name="oslashacute" unicode="&#x1ff;" horiz-adv-x="557" 
d="M67 -29l-63 66l61 60c-14 30 -22 66 -22 104c0 166 104 315 269 315c49 0 92 -14 126 -39l56 56l63 -65l-61 -61c15 -31 23 -66 23 -104c0 -166 -105 -315 -269 -315c-51 0 -94 14 -127 39zM183 97c18 -15 41 -23 73 -23c103 0 160 126 160 231c0 9 -1 18 -2 27zM146 199
c0 -10 0 -19 1 -27l230 235c-18 15 -41 23 -72 23c-103 0 -159 -126 -159 -231zM207 554l-39 47c66 43 113 95 151 154l71 -79c-48 -55 -115 -98 -183 -122z" />
    <glyph glyph-name="racute" unicode="&#x155;" horiz-adv-x="427" 
d="M14 0l107 504h111l-27 -86h3c30 51 79 95 139 95c59 0 94 -43 94 -101c0 -36 -10 -64 -18 -86l-119 -62c16 34 32 73 32 108c0 28 -15 45 -43 45c-56 0 -94 -68 -109 -140l-59 -277h-111zM283 554l-39 47c66 43 113 95 151 154l71 -79c-48 -55 -115 -98 -183 -122z" />
    <glyph glyph-name="rcaron" unicode="&#x159;" horiz-adv-x="427" 
d="M14 0l107 504h111l-27 -86h3c30 51 79 95 139 95c59 0 94 -43 94 -101c0 -36 -10 -64 -18 -86l-119 -62c16 34 32 73 32 108c0 28 -15 45 -43 45c-56 0 -94 -68 -109 -140l-59 -277h-111zM301 638h3c30 36 73 70 119 88l52 -73c-62 -26 -102 -47 -142 -91h-75
c-27 41 -62 70 -115 98l62 66c40 -20 74 -56 96 -88z" />
    <glyph glyph-name="uni0157" unicode="&#x157;" horiz-adv-x="427" 
d="M14 0l107 504h111l-27 -86h3c30 51 79 95 139 95c59 0 94 -43 94 -101c0 -36 -10 -64 -18 -86l-119 -62c16 34 32 73 32 108c0 28 -15 45 -43 45c-56 0 -94 -68 -109 -140l-59 -277h-111zM-41 -215c33 5 72 18 87 58c-3 -1 -6 -1 -9 -1c-26 0 -46 16 -46 43
c0 36 29 58 65 58c39 0 55 -33 55 -66c0 -66 -36 -118 -90 -137z" />
    </font>
</defs>
</svg>
