<?xml version="1.0" standalone="no"?>
<!DOCTYPE svg PUBLIC "-//W3C//DTD SVG 1.1//EN" "http://www.w3.org/Graphics/SVG/1.1/DTD/svg11.dtd" >
<svg xmlns="http://www.w3.org/2000/svg" xmlns:xlink="http://www.w3.org/1999/xlink" version="1.1">
<metadata>
Created by FontForge 20170924 at Mon Feb 13 15:47:45 2017
 By www-data
Copyright (c) 2017. All rights reserved. Helsinki Grotesk is a customized version of Graebenbach for the City of Helsinki. Graebenbach is a design by Wolfgang Schwaerzler, published by Camelot Typefaces. www.camelot-typefaces.com
</metadata>
<defs>
<font id="HelsinkiGrotesk-Black" horiz-adv-x="600" >
  <font-face 
    font-family="Helsinki Grotesk Black"
    font-weight="900"
    font-stretch="normal"
    units-per-em="1000"
    panose-1="2 11 0 3 4 2 2 0 0 3"
    ascent="736"
    descent="-264"
    x-height="504"
    cap-height="692"
    bbox="-176 -276 1337 996"
    underline-thickness="50"
    underline-position="-200"
    stemh="132"
    stemv="180"
    unicode-range="U+0020-FEFF"
  />
<missing-glyph 
d="M48 0v692h504v-692h-504zM188 396v-273h132zM412 566h-131l131 -269v269z" />
    <glyph glyph-name="f_j" unicode="fj" horiz-adv-x="615" 
d="M82 0v372h-70v132h70v6c0 172 122 226 246 226c104 0 175 -43 226 -100l-164 -103c-4 44 -23 70 -63 70s-67 -23 -67 -95v-4h86v-132h-86v-372h-178zM413 -208l-152 119c88 20 124 48 124 144v449h182v-452c0 -128 -39 -223 -154 -260z" />
    <glyph glyph-name="f_adieresis" unicode="f&#xe4;" horiz-adv-x="900" 
d="M299 600c-28 0 -39 -18 -39 -45v-51h100v-132h-100v-372h-178v372h-70v132h70v48c0 124 85 184 200 184c46 0 97 -12 120 -25l-48 -147c-10 17 -28 36 -55 36zM637 384c-40 0 -79 -27 -94 -79l-155 79c48 80 137 132 253 132c120 0 213 -68 213 -196v-180
c0 -52 0 -96 12 -140h-132c-16 20 -24 36 -32 60h-4c-17 -28 -59 -72 -135 -72c-86 0 -157 56 -157 148c0 116 104 146 180 162c64 13 100 22 100 52c0 20 -21 34 -49 34zM690 186v45c-12 -15 -33 -25 -62 -33c-31 -9 -52 -19 -52 -45c0 -22 16 -37 48 -37c36 0 66 22 66 70
zM524 720c50 0 87 -36 87 -86s-37 -86 -87 -86s-87 36 -87 86s37 86 87 86zM737 720c50 0 87 -36 87 -86s-37 -86 -87 -86s-87 36 -87 86s37 86 87 86z" />
    <glyph glyph-name="f_odieresis" unicode="f&#xf6;" horiz-adv-x="915" 
d="M299 600c-28 0 -39 -18 -39 -45v-51h100v-132h-100v-372h-178v372h-70v132h70v48c0 124 85 184 200 184c46 0 97 -12 120 -25l-48 -147c-10 17 -28 36 -55 36zM637 -12c-136 0 -254 92 -254 264s118 264 254 264s254 -92 254 -264s-118 -264 -254 -264zM565 252
c0 -80 20 -132 72 -132s72 52 72 132s-20 132 -72 132s-72 -52 -72 -132zM531 720c50 0 87 -36 87 -86s-37 -86 -87 -86s-87 36 -87 86s37 86 87 86zM744 720c50 0 87 -36 87 -86s-37 -86 -87 -86s-87 36 -87 86s37 86 87 86z" />
    <glyph glyph-name="f_udieresis" unicode="f&#xfc;" horiz-adv-x="937" 
d="M299 600c-28 0 -39 -18 -39 -45v-51h100v-132h-100v-372h-178v372h-70v132h70v48c0 124 85 184 200 184c46 0 97 -12 120 -25l-48 -147c-10 17 -28 36 -55 36zM421 176v328h180v-292c0 -44 10 -76 50 -76s58 28 58 80v288h180v-504h-180l8 80h-4
c-28 -48 -66 -92 -146 -92c-92 0 -146 68 -146 188zM549 720c50 0 87 -36 87 -86s-37 -86 -87 -86s-87 36 -87 86s37 86 87 86zM762 720c50 0 87 -36 87 -86s-37 -86 -87 -86s-87 36 -87 86s37 86 87 86z" />
    <glyph glyph-name="f_b" unicode="fb" horiz-adv-x="957" 
d="M299 600c-28 0 -39 -18 -39 -45v-51h100v-132h-100v-372h-178v372h-70v132h70v48c0 124 85 184 200 184c46 0 97 -12 120 -25l-48 -147c-10 17 -28 36 -55 36zM603 80v-80h-172v724h180v-176c0 -64 -8 -124 -8 -124h4c28 52 72 92 140 92c100 0 186 -100 186 -264
s-86 -264 -186 -264c-68 0 -112 40 -140 92h-4zM607 252c0 -80 28 -124 72 -124s72 44 72 124s-28 124 -72 124s-72 -44 -72 -124z" />
    <glyph glyph-name="f_h" unicode="fh" horiz-adv-x="949" 
d="M299 600c-28 0 -39 -18 -39 -45v-51h100v-132h-100v-372h-178v372h-70v132h70v48c0 124 85 184 200 184c46 0 97 -12 120 -25l-48 -147c-10 17 -28 36 -55 36zM903 328v-328h-180v292c0 44 -12 76 -52 76c-38 0 -58 -26 -60 -73v-295h-180v724h180v-176
c0 -64 -8 -124 -8 -124h4c28 48 68 92 148 92c92 0 148 -68 148 -188z" />
    <glyph glyph-name="f_k" unicode="fk" horiz-adv-x="947" 
d="M299 600c-28 0 -39 -18 -39 -45v-51h100v-132h-100v-372h-178v372h-70v132h70v48c0 124 85 184 200 184c46 0 97 -12 120 -25l-48 -147c-10 17 -28 36 -55 36zM947 504l-168 -198l176 -306h-193l-101 173l-50 -66v-107h-180v724h180v-311c0 -64 -8 -124 -8 -124h4
s28 56 52 93l80 122h208z" />
    <glyph glyph-name="f_t" unicode="ft" horiz-adv-x="734" 
d="M303 608c-30 0 -43 -22 -43 -54v-50h82v-132h-82v-372h-178v372h-70v132h70v48c0 124 90 184 210 184c74 0 127 -26 158 -47l-97 -128c-6 21 -17 47 -50 47zM675 151l59 -123c-16 -11 -69 -40 -131 -40c-104 0 -164 56 -164 167v217h-58v132h58v92l178 96v-188h104v-132
h-104v-199c0 -32 11 -43 29 -43c17 0 25 13 29 21z" />
    <glyph glyph-name="t_t" unicode="tt" horiz-adv-x="738" 
d="M679 151l59 -123c-16 -11 -69 -40 -131 -40c-104 0 -164 56 -164 167v217h-62v132h62v92l178 96v-188h104v-132h-104v-199c0 -32 11 -43 29 -43c17 0 25 13 29 21zM314 151l59 -123c-16 -11 -69 -40 -131 -40c-104 0 -164 56 -164 167v217h-74v132h74v92l178 96v-188h86
v-132h-86v-199c0 -32 11 -43 29 -43c17 0 25 13 29 21z" />
    <glyph glyph-name="f_f_j" unicode="ffj" horiz-adv-x="1022" 
d="M303 608c-30 0 -43 -22 -43 -54v-50h82v-132h-82v-372h-178v372h-70v132h70v48c0 124 90 184 210 184c74 0 127 -26 158 -47l-97 -128c-6 21 -17 47 -50 47zM660 600c-28 0 -39 -18 -39 -45v-51h100v-132h-100v-372h-178v372h-62v132h62v48c0 124 85 184 200 184
c46 0 97 -12 120 -25l-48 -147c-10 17 -28 36 -55 36zM883 734c54 0 98 -39 98 -93s-44 -93 -98 -93s-98 39 -98 93s44 93 98 93zM820 -208l-152 119c88 20 124 48 124 144v449h182v-452c0 -128 -39 -223 -154 -260z" />
    <glyph glyph-name="f_f_adieresis" unicode="ff&#xe4;" horiz-adv-x="1261" 
d="M303 608c-30 0 -43 -22 -43 -54v-50h82v-132h-82v-372h-178v372h-70v132h70v48c0 124 90 184 210 184c74 0 127 -26 158 -47l-97 -128c-6 21 -17 47 -50 47zM660 600c-28 0 -39 -18 -39 -45v-51h100v-132h-100v-372h-178v372h-62v132h62v48c0 124 85 184 200 184
c46 0 97 -12 120 -25l-48 -147c-10 17 -28 36 -55 36zM998 384c-40 0 -79 -27 -94 -79l-155 79c48 80 137 132 253 132c120 0 213 -68 213 -196v-180c0 -52 0 -96 12 -140h-132c-16 20 -24 36 -32 60h-4c-17 -28 -59 -72 -135 -72c-86 0 -157 56 -157 148
c0 116 104 146 180 162c64 13 100 22 100 52c0 20 -21 34 -49 34zM1051 186v45c-12 -15 -33 -25 -62 -33c-31 -9 -52 -19 -52 -45c0 -22 16 -37 48 -37c36 0 66 22 66 70zM885 720c50 0 87 -36 87 -86s-37 -86 -87 -86s-87 36 -87 86s37 86 87 86zM1098 720
c50 0 87 -36 87 -86s-37 -86 -87 -86s-87 36 -87 86s37 86 87 86z" />
    <glyph glyph-name="f_f_odieresis" unicode="ff&#xf6;" horiz-adv-x="1276" 
d="M303 608c-30 0 -43 -22 -43 -54v-50h82v-132h-82v-372h-178v372h-70v132h70v48c0 124 90 184 210 184c74 0 127 -26 158 -47l-97 -128c-6 21 -17 47 -50 47zM660 600c-28 0 -39 -18 -39 -45v-51h100v-132h-100v-372h-178v372h-62v132h62v48c0 124 85 184 200 184
c46 0 97 -12 120 -25l-48 -147c-10 17 -28 36 -55 36zM998 -12c-136 0 -254 92 -254 264s118 264 254 264s254 -92 254 -264s-118 -264 -254 -264zM926 252c0 -80 20 -132 72 -132s72 52 72 132s-20 132 -72 132s-72 -52 -72 -132zM892 720c50 0 87 -36 87 -86
s-37 -86 -87 -86s-87 36 -87 86s37 86 87 86zM1105 720c50 0 87 -36 87 -86s-37 -86 -87 -86s-87 36 -87 86s37 86 87 86z" />
    <glyph glyph-name="f_f_udieresis" unicode="ff&#xfc;" horiz-adv-x="1298" 
d="M303 608c-30 0 -43 -22 -43 -54v-50h82v-132h-82v-372h-178v372h-70v132h70v48c0 124 90 184 210 184c74 0 127 -26 158 -47l-97 -128c-6 21 -17 47 -50 47zM660 600c-28 0 -39 -18 -39 -45v-51h100v-132h-100v-372h-178v372h-62v132h62v48c0 124 85 184 200 184
c46 0 97 -12 120 -25l-48 -147c-10 17 -28 36 -55 36zM782 176v328h180v-292c0 -44 10 -76 50 -76s58 28 58 80v288h180v-504h-180l8 80h-4c-28 -48 -66 -92 -146 -92c-92 0 -146 68 -146 188zM910 720c50 0 87 -36 87 -86s-37 -86 -87 -86s-87 36 -87 86s37 86 87 86z
M1123 720c50 0 87 -36 87 -86s-37 -86 -87 -86s-87 36 -87 86s37 86 87 86z" />
    <glyph glyph-name="f_f_b" unicode="ffb" horiz-adv-x="1318" 
d="M303 608c-30 0 -43 -22 -43 -54v-50h82v-132h-82v-372h-178v372h-70v132h70v48c0 124 90 184 210 184c74 0 127 -26 158 -47l-97 -128c-6 21 -17 47 -50 47zM660 600c-28 0 -39 -18 -39 -45v-51h100v-132h-100v-372h-178v372h-62v132h62v48c0 124 85 184 200 184
c46 0 97 -12 120 -25l-48 -147c-10 17 -28 36 -55 36zM964 80v-80h-172v724h180v-176c0 -64 -8 -124 -8 -124h4c28 52 72 92 140 92c100 0 186 -100 186 -264s-86 -264 -186 -264c-68 0 -112 40 -140 92h-4zM968 252c0 -80 28 -124 72 -124s72 44 72 124s-28 124 -72 124
s-72 -44 -72 -124z" />
    <glyph glyph-name="f_f_h" unicode="ffh" horiz-adv-x="1310" 
d="M303 608c-30 0 -43 -22 -43 -54v-50h82v-132h-82v-372h-178v372h-70v132h70v48c0 124 90 184 210 184c74 0 127 -26 158 -47l-97 -128c-6 21 -17 47 -50 47zM660 600c-28 0 -39 -18 -39 -45v-51h100v-132h-100v-372h-178v372h-62v132h62v48c0 124 85 184 200 184
c46 0 97 -12 120 -25l-48 -147c-10 17 -28 36 -55 36zM1264 328v-328h-180v292c0 44 -12 76 -52 76c-38 0 -58 -26 -60 -73v-295h-180v724h180v-176c0 -64 -8 -124 -8 -124h4c28 48 68 92 148 92c92 0 148 -68 148 -188z" />
    <glyph glyph-name="f_f_k" unicode="ffk" horiz-adv-x="1308" 
d="M303 608c-30 0 -43 -22 -43 -54v-50h82v-132h-82v-372h-178v372h-70v132h70v48c0 124 90 184 210 184c74 0 127 -26 158 -47l-97 -128c-6 21 -17 47 -50 47zM660 600c-28 0 -39 -18 -39 -45v-51h100v-132h-100v-372h-178v372h-62v132h62v48c0 124 85 184 200 184
c46 0 97 -12 120 -25l-48 -147c-10 17 -28 36 -55 36zM1308 504l-168 -198l176 -306h-193l-101 173l-50 -66v-107h-180v724h180v-311c0 -64 -8 -124 -8 -124h4s28 56 52 93l80 122h208z" />
    <glyph glyph-name="f_f_t" unicode="fft" horiz-adv-x="1095" 
d="M664 608c-30 0 -43 -22 -43 -54v-50h82v-132h-82v-372h-178v372h-62v132h62v48c0 124 90 184 210 184c74 0 127 -26 158 -47l-97 -128c-6 21 -17 47 -50 47zM1036 151l59 -123c-16 -11 -69 -40 -131 -40c-104 0 -164 56 -164 167v217h-58v132h58v92l178 96v-188h104v-132
h-104v-199c0 -32 11 -43 29 -43c17 0 25 13 29 21zM303 608c-30 0 -43 -22 -43 -54v-50h82v-132h-82v-372h-178v372h-70v132h70v48c0 124 90 184 210 184c74 0 127 -26 158 -47l-97 -128c-6 21 -17 47 -50 47z" />
    <glyph glyph-name="f_f" unicode="ff" horiz-adv-x="736" 
d="M303 608c-30 0 -43 -22 -43 -54v-50h82v-132h-82v-372h-178v372h-70v132h70v48c0 124 90 184 210 184c74 0 127 -26 158 -47l-97 -128c-6 21 -17 47 -50 47zM663 608c-28 0 -42 -21 -42 -53v-51h100v-132h-100v-372h-178v372h-62v132h62v48c0 124 90 184 210 184
c96 0 165 -43 203 -88l-150 -94c-2 27 -14 54 -43 54z" />
    <glyph glyph-name="f_f_i" unicode="ffi" horiz-adv-x="1022" 
d="M303 608c-30 0 -43 -22 -43 -54v-50h82v-132h-82v-372h-178v372h-70v132h70v48c0 124 90 184 210 184c74 0 127 -26 158 -47l-97 -128c-6 21 -17 47 -50 47zM660 600c-28 0 -39 -18 -39 -45v-51h100v-132h-100v-372h-178v372h-62v132h62v48c0 124 85 184 200 184
c46 0 97 -12 120 -25l-48 -147c-10 17 -28 36 -55 36zM792 0v504h182v-504h-182zM883 734c54 0 98 -39 98 -93s-44 -93 -98 -93s-98 39 -98 93s44 93 98 93z" />
    <glyph glyph-name="f_f_l" unicode="ffl" horiz-adv-x="1022" 
d="M303 608c-30 0 -43 -22 -43 -54v-50h82v-132h-82v-372h-178v372h-70v132h70v48c0 124 90 184 210 184c74 0 127 -26 158 -47l-97 -128c-6 21 -17 47 -50 47zM660 600c-28 0 -39 -18 -39 -45v-51h100v-132h-100v-372h-178v372h-62v132h62v48c0 124 85 184 200 184
c46 0 97 -12 120 -25l-48 -147c-10 17 -28 36 -55 36zM792 0v724h182v-724h-182z" />
    <glyph glyph-name="f_i" unicode="fi" horiz-adv-x="615" 
d="M82 0v372h-70v132h70v6c0 172 122 226 246 226c104 0 175 -43 226 -100l-164 -103c-4 44 -23 70 -63 70s-67 -23 -67 -95v-4h86v-132h-86v-372h-178zM385 0v504h182v-504h-182z" />
    <glyph glyph-name="f_l" unicode="fl" horiz-adv-x="619" 
d="M389 0v536c0 48 -27 68 -63 68c-43 0 -66 -22 -66 -76v-24h86v-132h-86v-372h-178v372h-70v132h70v44c0 118 73 188 177 188c68 0 110 -28 132 -60h4v48h176v-724h-182z" />
    <glyph glyph-name=".notdef" 
d="M48 0v692h504v-692h-504zM188 396v-273h132zM412 566h-131l131 -269v269z" />
    <glyph glyph-name="space" unicode=" " horiz-adv-x="220" 
 />
    <glyph glyph-name="at" unicode="@" horiz-adv-x="830" 
d="M424 362c-34 0 -56 -22 -70 -54l-109 58c40 57 100 94 186 94c85 0 153 -46 153 -143v-92c0 -36 12 -51 38 -51c38 0 56 44 56 113c0 152 -105 247 -257 247s-268 -114 -268 -278c0 -168 115 -278 269 -278c96 0 162 22 197 71l131 -73c-63 -67 -193 -110 -328 -110
c-218 0 -394 153 -394 390c0 229 177 390 393 390s381 -142 381 -358c0 -146 -92 -212 -190 -212c-56 0 -100 20 -123 52h-3c-16 -18 -46 -52 -109 -52c-68 0 -126 46 -126 108c0 76 64 101 125 116c45 11 80 17 80 38c0 16 -16 24 -32 24zM457 218v29
c-8 -7 -21 -12 -44 -18c-18 -5 -33 -13 -33 -30c0 -18 17 -25 31 -25c21 0 46 13 46 44z" />
    <glyph glyph-name="A" unicode="A" horiz-adv-x="693" 
d="M501 0l-42 132h-234l-41 -132h-184l233 692h227l233 -692h-192zM320 433l-47 -149h139l-47 149c-13 40 -20 81 -20 81h-4s-8 -41 -21 -81z" />
    <glyph glyph-name="B" unicode="B" horiz-adv-x="648" 
d="M52 0v692h291c155 0 269 -59 269 -179c0 -86 -66 -133 -108 -149v-4c61 -15 132 -61 132 -161c0 -120 -106 -199 -266 -199h-318zM428 486c0 37 -24 59 -77 59h-115v-121h115c53 0 77 24 77 62zM449 213c0 39 -24 64 -78 64h-135v-130h135c54 0 78 26 78 66z" />
    <glyph glyph-name="C" unicode="C" horiz-adv-x="651" 
d="M351 -12c-183 0 -327 136 -327 360s144 356 327 356c137 0 257 -97 292 -209l-173 -109c0 81 -41 155 -119 155c-98 0 -137 -87 -137 -193s39 -197 137 -197c78 0 119 78 119 159l173 -109c-35 -112 -155 -213 -292 -213z" />
    <glyph glyph-name="D" unicode="D" horiz-adv-x="694" 
d="M52 692h278c200 0 340 -130 340 -344s-140 -348 -340 -348h-278v692zM480 348c0 95 -38 185 -136 185h-106v-374h106c98 0 136 93 136 189z" />
    <glyph glyph-name="E" unicode="E" horiz-adv-x="578" 
d="M52 0v692h494v-157h-310v-108h290v-153h-290v-117h318v-157h-502z" />
    <glyph glyph-name="F" unicode="F" horiz-adv-x="554" 
d="M52 0v692h482v-159h-296v-116h276v-155h-276v-262h-186z" />
    <glyph glyph-name="G" unicode="G" horiz-adv-x="686" 
d="M355 543c-98 0 -143 -89 -143 -195s45 -203 143 -203c74 0 109 66 114 113h-165v149h337v-407h-157l10 77h-4c-25 -40 -76 -89 -178 -89c-164 0 -288 136 -288 360s147 356 331 356c133 0 240 -58 295 -162l-172 -109c-4 61 -53 110 -123 110z" />
    <glyph glyph-name="H" unicode="H" horiz-adv-x="701" 
d="M463 0v268h-225v-268h-186v692h186v-259h225v259h186v-692h-186z" />
    <glyph glyph-name="I" unicode="I" horiz-adv-x="292" 
d="M52 0v692h188v-692h-188z" />
    <glyph glyph-name="J" unicode="J" horiz-adv-x="594" 
d="M360 692h186v-408c0 -218 -119 -296 -263 -296s-263 80 -263 270v5l190 120s-7 -60 -7 -112c0 -73 24 -120 79 -120s78 46 78 120v421z" />
    <glyph glyph-name="K" unicode="K" horiz-adv-x="664" 
d="M52 0v692h186v-190c0 -61 -6 -136 -6 -136h4s35 70 79 134l131 192h213l-214 -283l227 -409h-206l-141 256l-87 -119v-137h-186z" />
    <glyph glyph-name="L" unicode="L" horiz-adv-x="538" 
d="M52 0v692h188v-527h282v-165h-470z" />
    <glyph glyph-name="M" unicode="M" horiz-adv-x="868" 
d="M434 214h4s14 72 26 116l99 362h253v-692h-176v314c0 60 5 144 5 144h-4s-11 -57 -23 -101l-100 -357h-172l-96 357c-12 44 -26 109 -26 109h-4s5 -92 5 -152v-314h-173v692h261l96 -362c12 -44 25 -116 25 -116z" />
    <glyph glyph-name="N" unicode="N" horiz-adv-x="717" 
d="M665 0h-240l-148 322c-21 46 -56 144 -56 144h-4s8 -97 8 -159v-307h-173v692h240l148 -322c21 -46 60 -144 60 -144h4s-11 97 -11 159v307h172v-692z" />
    <glyph glyph-name="O" unicode="O" horiz-adv-x="703" 
d="M351 -12c-183 0 -327 136 -327 360s144 356 327 356c184 0 328 -132 328 -356s-144 -360 -328 -360zM489 348c0 106 -40 193 -138 193s-137 -87 -137 -193s39 -197 137 -197s138 91 138 197z" />
    <glyph glyph-name="P" unicode="P" horiz-adv-x="640" 
d="M52 0v692h313c160 0 263 -81 263 -225s-103 -229 -263 -229h-127v-238h-186zM443 467c0 40 -25 68 -82 68h-123v-140h123c57 0 82 32 82 72z" />
    <glyph glyph-name="Q" unicode="Q" horiz-adv-x="707" 
d="M351 -12c-183 0 -327 136 -327 360s144 356 327 356c184 0 328 -132 328 -356c0 -125 -52 -222 -128 -282v-4c12 3 27 5 44 5c48 0 103 -11 144 -61l-135 -136c-35 59 -115 118 -253 118zM489 348c0 106 -40 193 -138 193s-137 -87 -137 -193s39 -197 137 -197
s138 91 138 197z" />
    <glyph glyph-name="R" unicode="R" horiz-adv-x="651" 
d="M52 0v692h315c159 0 261 -75 261 -219c0 -94 -52 -160 -125 -194l136 -279h-196l-121 252h-86v-252h-184zM443 473c0 40 -26 68 -82 68h-125v-140h125c56 0 82 32 82 72z" />
    <glyph glyph-name="S" unicode="S" horiz-adv-x="612" 
d="M228 292c-112 32 -191 81 -191 197s98 215 264 215c125 0 240 -62 299 -151l-160 -102c-16 65 -77 104 -146 104c-46 0 -76 -21 -76 -50c0 -44 74 -53 166 -80c114 -33 220 -80 220 -212c0 -128 -111 -225 -274 -225c-140 0 -259 66 -324 179l165 105
c26 -81 85 -135 167 -135c57 0 85 27 85 61c0 57 -95 64 -195 94z" />
    <glyph glyph-name="T" unicode="T" horiz-adv-x="583" 
d="M8 527v165h567v-165h-190v-527h-188v527h-189z" />
    <glyph glyph-name="U" unicode="U" horiz-adv-x="685" 
d="M343 -12c-161 0 -295 78 -295 297v407h186v-420c0 -74 31 -121 109 -121c77 0 108 47 108 121v420h186v-407c0 -219 -134 -297 -294 -297z" />
    <glyph glyph-name="V" unicode="V" horiz-adv-x="665" 
d="M203 692l108 -393c11 -41 22 -107 22 -107h4s12 67 23 107l106 393h199l-219 -692h-227l-219 692h203z" />
    <glyph glyph-name="W" unicode="W" horiz-adv-x="869" 
d="M528 692l64 -366c8 -45 18 -128 18 -128h4s3 67 8 113l38 381h197l-114 -692h-227l-61 329c-11 60 -19 131 -19 131h-4s-8 -71 -19 -131l-60 -329h-227l-114 692h198l38 -381c5 -46 8 -113 8 -113h4s10 83 18 128l65 366h185z" />
    <glyph glyph-name="X" unicode="X" horiz-adv-x="660" 
d="M331 449c0 0 25 58 46 103l64 140h189l-165 -334l187 -358h-202l-76 156c-21 42 -46 97 -46 97h-4s-24 -55 -45 -97l-76 -156h-195l182 349l-171 343h203l62 -140c20 -46 43 -103 43 -103h4z" />
    <glyph glyph-name="Y" unicode="Y" horiz-adv-x="638" 
d="M224 0v245l-232 447h203l91 -193c23 -48 33 -90 33 -90h4s11 42 34 90l91 193h198l-234 -443v-249h-188z" />
    <glyph glyph-name="Z" unicode="Z" horiz-adv-x="586" 
d="M24 0v108l290 421h-280v163h523v-118l-281 -411h290v-163h-542z" />
    <glyph glyph-name="ampersand" unicode="&#x26;" horiz-adv-x="680" 
d="M362 349c26 -43 59 -85 91 -122c27 51 39 112 47 185l154 -85c-24 -72 -58 -130 -104 -183c12 -9 25 -13 39 -13c20 0 32 14 37 23l62 -131c-23 -16 -61 -35 -110 -35c-57 0 -97 22 -132 47c-47 -29 -102 -47 -165 -47c-165 0 -261 83 -261 195c0 95 66 154 147 200
c-22 48 -35 93 -35 129c0 120 85 192 205 192c108 0 186 -61 186 -157c0 -87 -85 -147 -161 -198zM344 123c-42 45 -82 96 -116 148c-17 -19 -28 -42 -28 -67c0 -56 42 -90 98 -90c15 0 31 3 46 9zM297 522c0 -24 6 -51 17 -80c36 23 72 55 72 92c0 26 -18 44 -42 44
c-31 0 -47 -28 -47 -56z" />
    <glyph glyph-name="AE" unicode="&#xc6;" horiz-adv-x="872" 
d="M410 0v140h-169l-58 -140h-199l312 692h544v-153h-250v-114h230v-149h-230v-123h258v-153h-438zM377 463l-74 -175h107v251h-4s-16 -45 -29 -76z" />
    <glyph glyph-name="OE" unicode="&#x152;" horiz-adv-x="892" 
d="M868 0h-432c-27 -8 -57 -12 -87 -12c-183 0 -325 136 -325 360s142 356 325 356c30 0 58 -4 84 -12h427v-153h-250v-114h230v-149h-230v-123h258v-153zM430 527c-21 13 -49 20 -81 20c-98 0 -137 -89 -137 -199s39 -203 137 -203c32 0 60 7 81 19v363z" />
    <glyph glyph-name="Eth" unicode="&#xd0;" horiz-adv-x="748" 
d="M384 0h-278v285h-86v131h86v276h278c200 0 340 -130 340 -344s-140 -348 -340 -348zM419 285h-131v-128h119c92 0 129 95 129 191c0 98 -38 187 -136 187h-112v-119h131v-131z" />
    <glyph glyph-name="Dcroat" unicode="&#x110;" horiz-adv-x="748" 
d="M384 0h-278v285h-86v131h86v276h278c200 0 340 -130 340 -344s-140 -348 -340 -348zM419 285h-131v-128h119c92 0 129 95 129 191c0 98 -38 187 -136 187h-112v-119h131v-131z" />
    <glyph glyph-name="Hbar" unicode="&#x126;" horiz-adv-x="797" 
d="M777 476h-81v-476h-182v252h-233v-252h-182v476h-79v131h79v85h182v-85h233v85h182v-85h81v-131zM281 409h233v67h-233v-67z" />
    <glyph glyph-name="IJ" unicode="&#x132;" horiz-adv-x="609" 
d="M233 233v-3c0 -31 11 -81 70 -81c50 0 72 40 72 107v436h186v-397c0 -228 -116 -307 -256 -307c-160 0 -239 91 -251 171zM48 274v418h186v-418h-186z" />
    <glyph glyph-name="Lslash" unicode="&#x141;" horiz-adv-x="616" 
d="M130 0v227l-76 -37l-58 123l134 65v314h182v-226l134 66l58 -123l-192 -94v-154h288v-161h-470z" />
    <glyph glyph-name="Ldot" unicode="&#x13f;" horiz-adv-x="542" 
d="M52 0v692h188v-527h282v-165h-470zM385 446c54 0 98 -39 98 -93s-44 -93 -98 -93s-98 39 -98 93s44 93 98 93z" />
    <glyph glyph-name="Lcaron" unicode="&#x13d;" horiz-adv-x="551" 
d="M52 0v692h188v-527h282v-165h-470zM314 515c34 6 82 17 90 59h-6c-36 0 -69 21 -69 63s31 63 73 63c52 0 88 -41 88 -97c0 -64 -39 -114 -83 -138z" />
    <glyph glyph-name="Eng" unicode="&#x14a;" horiz-adv-x="738" 
d="M205 -97l152 111c6 -34 27 -71 74 -71c37 0 60 20 62 56l-196 335c-26 44 -76 148 -76 148h-4s8 -97 8 -159v-323h-173v692h230l154 -264c25 -43 61 -119 61 -119h4s-8 97 -8 159v224h172v-644c0 -164 -99 -257 -236 -257c-102 0 -183 52 -224 112z" />
    <glyph glyph-name="Oslash" unicode="&#xd8;" horiz-adv-x="723" 
d="M361 -12c-54 0 -106 13 -151 38l-62 -81l-120 95l69 90c-40 59 -63 133 -63 218c0 224 144 356 327 356c53 0 104 -13 149 -37l65 85l120 -95l-70 -93c40 -57 64 -131 64 -216c0 -224 -144 -360 -328 -360zM509 348c0 27 -3 54 -9 78l-203 -272c18 -10 39 -15 64 -15
c104 0 148 99 148 209zM424 538c-18 9 -39 15 -63 15c-104 0 -147 -95 -147 -205c0 -28 2 -54 8 -79z" />
    <glyph glyph-name="Tbar" unicode="&#x166;" horiz-adv-x="591" 
d="M12 531v161h567v-161h-190v-146h112v-131h-112v-254h-188v254h-111v131h111v146h-189z" />
    <glyph glyph-name="Thorn" unicode="&#xde;" horiz-adv-x="640" 
d="M52 0v692h186v-102h127c160 0 263 -81 263 -225s-103 -229 -263 -229h-127v-136h-186zM443 365c0 40 -25 68 -82 68h-123v-140h123c57 0 82 32 82 72z" />
    <glyph glyph-name="Uogonek" unicode="&#x172;" horiz-adv-x="685" 
d="M502 -81l100 -55c-33 -43 -81 -72 -150 -72c-76 0 -135 37 -135 100c0 38 30 71 55 92v6c-10 -1 -20 -2 -29 -2c-161 0 -295 78 -295 297v407h184v-420c0 -74 33 -123 111 -123c77 0 110 49 110 123v420h184v-420c0 -179 -98 -229 -138 -262c-43 -35 -72 -65 -72 -93
c0 -23 14 -34 33 -34c24 0 38 20 42 36z" />
    <glyph glyph-name="a" unicode="a" horiz-adv-x="525" 
d="M262 384c-40 0 -79 -27 -94 -79l-155 79c48 80 137 132 253 132c120 0 213 -68 213 -196v-180c0 -52 0 -96 12 -140h-132c-16 20 -24 36 -32 60h-4c-17 -28 -59 -72 -135 -72c-86 0 -157 56 -157 148c0 116 104 146 180 162c64 13 100 22 100 52c0 20 -21 34 -49 34z
M315 186v45c-12 -15 -33 -25 -62 -33c-31 -9 -52 -19 -52 -45c0 -22 16 -37 48 -37c36 0 66 22 66 70z" />
    <glyph glyph-name="b" unicode="b" horiz-adv-x="574" 
d="M220 80v-80h-172v724h180v-176c0 -64 -8 -124 -8 -124h4c28 52 72 92 140 92c100 0 186 -100 186 -264s-86 -264 -186 -264c-68 0 -112 40 -140 92h-4zM224 252c0 -80 28 -124 72 -124s72 44 72 124s-28 124 -72 124s-72 -44 -72 -124z" />
    <glyph glyph-name="c" unicode="c" horiz-adv-x="513" 
d="M274 384c-48 0 -68 -52 -68 -132s20 -132 68 -132s64 44 64 108l163 -78c-20 -88 -103 -162 -227 -162c-136 0 -250 92 -250 264s114 264 250 264c124 0 207 -74 227 -162l-163 -78c0 64 -16 108 -64 108z" />
    <glyph glyph-name="d" unicode="d" horiz-adv-x="573" 
d="M354 80h-4c-28 -52 -72 -92 -140 -92c-100 0 -186 100 -186 264s86 264 186 264c68 0 108 -40 132 -76h4v284h179v-724h-179zM278 128c44 0 72 44 72 124s-28 124 -72 124s-72 -44 -72 -124s28 -124 72 -124z" />
    <glyph glyph-name="e" unicode="e" horiz-adv-x="530" 
d="M499 202h-307c5 -72 48 -88 86 -88c40 0 69 23 75 62l147 -80c-40 -60 -117 -108 -222 -108c-140 0 -254 92 -254 264s114 264 250 264s234 -96 234 -236c0 -48 -9 -78 -9 -78zM274 392c-31 0 -69 -18 -80 -78h150c0 51 -34 78 -70 78z" />
    <glyph glyph-name="f" unicode="f" horiz-adv-x="375" 
d="M302 608c-28 0 -42 -21 -42 -53v-51h100v-132h-100v-372h-178v372h-70v132h70v48c0 124 90 184 210 184c96 0 165 -43 203 -88l-150 -94c-2 27 -14 54 -43 54z" />
    <glyph glyph-name="g" unicode="g" horiz-adv-x="542" 
d="M31 349c0 93 85 167 217 167c44 0 68 -4 96 -4c40 0 59 27 59 74c0 19 -4 41 -6 50l153 -89c-3 -70 -34 -105 -97 -105c-11 0 -27 2 -34 4v-4c33 -24 69 -62 69 -120c0 -101 -100 -161 -232 -161c-51 0 -86 -11 -86 -33c0 -19 16 -25 51 -25c40 0 89 7 143 7
c121 0 190 -44 190 -145c0 -117 -135 -167 -295 -167c-147 0 -275 39 -275 124c0 54 54 82 105 89v4c-39 12 -74 39 -74 82c0 58 62 93 124 101v4c-54 19 -108 62 -108 147zM135 -60c0 -26 43 -37 121 -37c93 0 124 11 124 39c0 23 -43 31 -101 31c-47 0 -144 0 -144 -33z
M191 338c0 -38 30 -64 70 -64s70 26 70 64s-30 64 -70 64s-70 -26 -70 -64z" />
    <glyph glyph-name="h" unicode="h" horiz-adv-x="566" 
d="M520 328v-328h-180v292c0 44 -12 76 -52 76c-38 0 -58 -26 -60 -73v-295h-180v724h180v-176c0 -64 -8 -124 -8 -124h4c28 48 68 92 148 92c92 0 148 -68 148 -188z" />
    <glyph glyph-name="i" unicode="i" horiz-adv-x="278" 
d="M48 0v504h182v-504h-182zM139 734c54 0 98 -39 98 -93s-44 -93 -98 -93s-98 39 -98 93s44 93 98 93z" />
    <glyph glyph-name="j" unicode="j" horiz-adv-x="286" 
d="M84 -208l-152 119c88 20 124 48 124 144v449h182v-452c0 -128 -39 -223 -154 -260zM147 734c54 0 98 -39 98 -93s-44 -93 -98 -93s-98 39 -98 93s44 93 98 93z" />
    <glyph glyph-name="k" unicode="k" horiz-adv-x="564" 
d="M564 504l-168 -198l176 -306h-193l-101 173l-50 -66v-107h-180v724h180v-311c0 -64 -8 -124 -8 -124h4s28 56 52 93l80 122h208z" />
    <glyph glyph-name="l" unicode="l" horiz-adv-x="278" 
d="M48 0v724h182v-724h-182z" />
    <glyph glyph-name="m" unicode="m" horiz-adv-x="830" 
d="M48 0v504h176l-8 -80h4c28 44 68 92 144 92c60 0 101 -29 120 -88h4c36 52 80 88 152 88c92 0 144 -64 144 -180v-336h-176v308c0 36 -16 60 -50 60s-54 -24 -54 -72v-296h-176v313c-2 33 -18 55 -50 55c-34 0 -54 -24 -54 -72v-296h-176z" />
    <glyph glyph-name="n" unicode="n" horiz-adv-x="566" 
d="M520 328v-328h-180v292c0 44 -12 76 -52 76s-60 -28 -60 -80v-288h-180v504h180l-8 -80h4c28 48 68 92 148 92c92 0 148 -68 148 -188z" />
    <glyph glyph-name="o" unicode="o" horiz-adv-x="556" 
d="M278 -12c-136 0 -254 92 -254 264s118 264 254 264s254 -92 254 -264s-118 -264 -254 -264zM206 252c0 -80 20 -132 72 -132s72 52 72 132s-20 132 -72 132s-72 -52 -72 -132z" />
    <glyph glyph-name="p" unicode="p" horiz-adv-x="574" 
d="M222 424h2c28 52 72 92 140 92c100 0 186 -100 186 -264s-86 -264 -186 -264c-68 0 -108 40 -134 80h-2v-264h-180v700h180zM224 252c0 -80 28 -124 72 -124s72 44 72 124s-28 124 -72 124s-72 -44 -72 -124z" />
    <glyph glyph-name="q" unicode="q" horiz-adv-x="574" 
d="M354 424v80h172v-700h-180v152c0 64 8 124 8 124h-4c-28 -52 -72 -92 -140 -92c-100 0 -186 100 -186 264s86 264 186 264c68 0 112 -40 140 -92h4zM350 252c0 80 -28 124 -72 124s-72 -44 -72 -124s28 -124 72 -124s72 44 72 124z" />
    <glyph glyph-name="r" unicode="r" horiz-adv-x="468" 
d="M48 0v504h180l-8 -80h4c28 44 62 92 130 92c72 0 106 -63 106 -138c0 -36 -5 -63 -5 -63l-159 -90c4 25 8 53 8 89c0 26 -6 54 -36 54c-28 0 -40 -24 -40 -75v-293h-180z" />
    <glyph glyph-name="s" unicode="s" horiz-adv-x="507" 
d="M268 114c30 0 46 12 46 30c0 28 -50 35 -110 51c-76 20 -169 61 -169 157c0 100 96 164 216 164c100 0 196 -44 240 -104l-149 -81c-14 37 -45 59 -85 59c-28 0 -46 -12 -46 -28c0 -26 55 -27 131 -51s148 -63 148 -153c0 -108 -101 -170 -221 -170
c-112 0 -213 42 -261 114l152 82c20 -46 60 -70 108 -70z" />
    <glyph glyph-name="t" unicode="t" horiz-adv-x="373" 
d="M314 151l59 -123c-16 -11 -69 -40 -131 -40c-104 0 -164 56 -164 167v217h-74v132h74v92l178 96v-188h104v-132h-104v-199c0 -32 11 -43 29 -43c17 0 25 13 29 21z" />
    <glyph glyph-name="u" unicode="u" horiz-adv-x="562" 
d="M46 176v328h180v-292c0 -44 10 -76 50 -76s58 28 58 80v288h180v-504h-180l8 80h-4c-28 -48 -66 -92 -146 -92c-92 0 -146 68 -146 188z" />
    <glyph glyph-name="v" unicode="v" horiz-adv-x="512" 
d="M143 0l-147 504h188l44 -196c13 -60 28 -152 28 -152h4s15 92 28 152l44 196h184l-148 -504h-225z" />
    <glyph glyph-name="w" unicode="w" horiz-adv-x="769" 
d="M260 338l26 166h204l26 -166c10 -66 24 -179 24 -179h4s11 113 19 179l20 166h174l-95 -504h-216l-38 225c-9 55 -20 124 -20 124h-4s-10 -70 -19 -124l-37 -225h-221l-95 504h181l21 -166c8 -66 19 -179 19 -179h4s13 113 23 179z" />
    <glyph glyph-name="x" unicode="x" horiz-adv-x="520" 
d="M511 504l-115 -246l126 -258h-195l-35 88c-21 53 -32 92 -32 92h-4s-11 -39 -32 -92l-35 -88h-191l125 258l-114 246h191l31 -91c18 -54 28 -90 28 -90h4s9 37 28 90l32 91h188z" />
    <glyph glyph-name="y" unicode="y" horiz-adv-x="516" 
d="M262 192h4s14 80 29 144l39 168h186l-168 -522c-30 -94 -74 -164 -164 -190l-144 113c56 12 113 35 133 95l-181 504h193l40 -159c16 -64 33 -153 33 -153z" />
    <glyph glyph-name="z" unicode="z" horiz-adv-x="491" 
d="M36 372v132h419v-97l-200 -275h212v-132h-435v97l200 275h-196z" />
    <glyph glyph-name="ae" unicode="&#xe6;" horiz-adv-x="794" 
d="M256 384c-41 0 -75 -26 -90 -78l-154 79c46 76 131 131 243 131c59 0 110 -18 145 -54c41 35 93 54 150 54c131 0 222 -96 222 -236c0 -48 -9 -78 -9 -78h-299c5 -72 44 -88 82 -88c40 0 65 23 71 62l147 -80c-40 -60 -113 -108 -218 -108c-69 0 -129 25 -171 72
c-33 -39 -92 -72 -173 -72c-98 0 -176 56 -176 148c0 116 105 146 181 162c64 13 93 25 93 53c0 20 -18 33 -44 33zM542 392c-31 0 -66 -18 -76 -78h142c0 50 -30 78 -66 78zM304 188v39c-10 -9 -29 -19 -59 -28c-28 -8 -49 -18 -49 -44c0 -22 16 -39 46 -39
c34 0 62 24 62 72z" />
    <glyph glyph-name="oe" unicode="&#x153;" horiz-adv-x="823" 
d="M270 -12c-132 0 -246 92 -246 264s114 264 246 264c57 0 110 -21 150 -61c42 39 98 61 159 61c131 0 222 -96 222 -236c0 -48 -9 -78 -9 -78h-299c5 -72 44 -88 82 -88c40 0 65 23 71 62l147 -80c-40 -60 -113 -108 -218 -108c-62 0 -117 20 -158 58
c-39 -38 -91 -58 -147 -58zM206 252c0 -80 18 -132 64 -132s64 52 64 132s-18 132 -64 132s-64 -52 -64 -132zM571 392c-31 0 -66 -18 -76 -78h142c0 50 -30 78 -66 78z" />
    <glyph glyph-name="germandbls" unicode="&#xdf;" horiz-adv-x="580" 
d="M286 336v127c43 15 67 45 67 80c0 34 -17 61 -57 61c-42 0 -68 -29 -68 -85v-519h-180v504c0 164 108 232 248 232c144 0 220 -74 220 -163c0 -76 -47 -116 -95 -138v-4c80 -28 135 -96 135 -204c0 -151 -61 -239 -189 -239c-55 0 -98 17 -120 30l43 130
c6 -7 21 -19 38 -19c35 0 48 25 48 98c0 65 -7 104 -90 109z" />
    <glyph glyph-name="dotlessi" unicode="&#x131;" horiz-adv-x="278" 
d="M48 0v504h182v-504h-182z" />
    <glyph glyph-name="dotlessj" unicode="&#xf6be;" horiz-adv-x="286" 
d="M84 -208l-152 119c88 20 124 48 124 144v449h182v-452c0 -128 -39 -223 -154 -260z" />
    <glyph glyph-name="eth" unicode="&#xf0;" horiz-adv-x="568" 
d="M498 641l-67 -41c66 -74 109 -172 109 -300c0 -206 -104 -312 -258 -312c-140 0 -258 87 -258 238c0 153 113 227 213 227c45 0 101 -21 126 -53l4 2c-11 48 -34 88 -64 121l-98 -58l-80 84l79 49c-30 16 -61 31 -93 45l136 93c32 -14 63 -33 92 -54l76 47zM198 225
c0 -63 31 -103 84 -103s84 40 84 103s-31 101 -84 101s-84 -38 -84 -101z" />
    <glyph glyph-name="dcroat" unicode="&#x111;" horiz-adv-x="590" 
d="M354 80h-4c-28 -52 -72 -92 -140 -92c-100 0 -186 100 -186 264s86 264 186 264c68 0 108 -40 132 -76h4v98h-95v119h95v67h175v-67h77v-119h-77v-538h-175zM278 128c44 0 72 44 72 124s-28 124 -72 124s-72 -44 -72 -124s28 -124 72 -124z" />
    <glyph glyph-name="dcaron" unicode="&#x10f;" horiz-adv-x="762" 
d="M354 80h-4c-28 -52 -72 -92 -140 -92c-100 0 -186 100 -186 264s86 264 186 264c68 0 108 -40 132 -76h4v284h179v-724h-179zM278 128c44 0 72 44 72 124s-28 124 -72 124s-72 -44 -72 -124s28 -124 72 -124zM574 551c34 6 82 17 90 59h-6c-36 0 -69 21 -69 63
s31 63 73 63c52 0 88 -41 88 -97c0 -64 -39 -114 -83 -138z" />
    <glyph glyph-name="hbar" unicode="&#x127;" horiz-adv-x="578" 
d="M-8 538v119h68v67h176v-67h103v-119h-103v-6c0 -56 -4 -108 -4 -108h4c28 48 68 92 148 92c92 0 148 -68 148 -188v-328h-180v292c0 44 -12 76 -52 76c-38 0 -60 -26 -60 -73v-295h-180v538h-68z" />
    <glyph glyph-name="ij" unicode="&#x133;" horiz-adv-x="556" 
d="M48 0v504h182v-504h-182zM354 -208l-152 119c88 20 124 48 124 144v449h182v-452c0 -128 -39 -223 -154 -260zM139 734c54 0 98 -39 98 -93s-44 -93 -98 -93s-98 39 -98 93s44 93 98 93zM417 734c54 0 98 -39 98 -93s-44 -93 -98 -93s-98 39 -98 93s44 93 98 93z" />
    <glyph glyph-name="lslash" unicode="&#x142;" horiz-adv-x="438" 
d="M441 367l-137 -67v-300h-178v212l-70 -34l-56 119l126 62v365h178v-278l81 40z" />
    <glyph glyph-name="ldot" unicode="&#x140;" horiz-adv-x="500" 
d="M48 0v724h182v-724h-182zM384 392c54 0 98 -39 98 -93s-44 -93 -98 -93s-98 39 -98 93s44 93 98 93z" />
    <glyph glyph-name="lcaron" unicode="&#x13e;" horiz-adv-x="468" 
d="M48 0v724h182v-724h-182zM280 551c34 6 82 17 90 59h-6c-36 0 -69 21 -69 63s31 63 73 63c52 0 88 -41 88 -97c0 -64 -39 -114 -83 -138z" />
    <glyph glyph-name="eng" unicode="&#x14b;" horiz-adv-x="566" 
d="M352 -208l-140 116c83 20 128 44 128 140v244c0 44 -12 76 -52 76s-60 -28 -60 -80v-288h-180v504h180l-8 -80h4c28 48 68 92 148 92c92 0 148 -68 148 -188v-268c0 -132 -34 -225 -168 -268z" />
    <glyph glyph-name="oslash" unicode="&#xf8;" horiz-adv-x="570" 
d="M285 -12c-36 0 -71 7 -102 19l-45 -58l-111 86l47 60c-27 41 -43 93 -43 157c0 172 118 264 254 264c35 0 69 -7 100 -19l49 63l111 -86l-50 -64c27 -41 44 -94 44 -158c0 -172 -118 -264 -254 -264zM245 119c11 -5 25 -7 40 -7c70 0 96 55 96 140c0 14 -1 27 -3 39z
M189 252c0 -13 0 -26 2 -37l132 170c-11 4 -24 7 -38 7c-70 0 -96 -55 -96 -140z" />
    <glyph glyph-name="longs" unicode="&#x17f;" horiz-adv-x="281" 
d="M272 608c-28 0 -42 -21 -42 -53v-555h-182v552c0 124 94 184 214 184c96 0 165 -43 203 -88l-150 -94c-2 27 -14 54 -43 54z" />
    <glyph glyph-name="thorn" unicode="&#xfe;" horiz-adv-x="574" 
d="M230 68h-2v-264h-180v920h180v-176c0 -64 -8 -124 -8 -124h4c28 52 72 92 140 92c100 0 186 -100 186 -264s-86 -264 -186 -264c-68 0 -108 40 -134 80zM224 252c0 -80 28 -124 72 -124s72 44 72 124s-28 124 -72 124s-72 -44 -72 -124z" />
    <glyph glyph-name="tcaron" unicode="&#x165;" horiz-adv-x="545" 
d="M314 151l59 -123c-16 -11 -69 -40 -131 -40c-104 0 -164 56 -164 167v217h-74v132h74v92l178 96v-188h104v-132h-104v-199c0 -32 11 -43 29 -43c17 0 25 13 29 21zM368 547c34 6 82 17 90 59h-6c-36 0 -69 21 -69 63s31 63 73 63c52 0 88 -41 88 -97
c0 -64 -39 -114 -83 -138z" />
    <glyph glyph-name="tbar" unicode="&#x167;" horiz-adv-x="419" 
d="M24 205v119h84v55h-74v125h74v92l174 94v-186h107v-125h-107v-55h113v-119h-113v-32c0 -32 11 -43 29 -43c17 0 25 13 29 21l59 -123c-16 -11 -65 -40 -127 -40c-104 0 -164 56 -164 167v50h-84z" />
    <glyph glyph-name="eogonek" unicode="&#x119;" horiz-adv-x="530" 
d="M412 -81l100 -55c-33 -43 -81 -72 -150 -72c-76 0 -135 37 -135 100c0 38 30 71 55 92v4h-4c-140 0 -254 92 -254 264s114 264 250 264s234 -96 234 -236c0 -48 -9 -78 -9 -78h-307c5 -72 48 -88 86 -88c40 0 69 23 75 62l147 -80c-22 -36 -55 -59 -91 -86
c-44 -33 -72 -65 -72 -93c0 -23 14 -34 33 -34c24 0 38 20 42 36zM274 392c-31 0 -69 -18 -80 -78h150c0 51 -34 78 -70 78z" />
    <glyph glyph-name="uniFB00" unicode="&#xfb00;" horiz-adv-x="736" 
d="M303 608c-30 0 -43 -22 -43 -54v-50h82v-132h-82v-372h-178v372h-70v132h70v48c0 124 90 184 210 184c74 0 127 -26 158 -47l-97 -128c-6 21 -17 47 -50 47zM663 608c-28 0 -42 -21 -42 -53v-51h100v-132h-100v-372h-178v372h-62v132h62v48c0 124 90 184 210 184
c96 0 165 -43 203 -88l-150 -94c-2 27 -14 54 -43 54z" />
    <glyph glyph-name="fi" unicode="&#xfb01;" horiz-adv-x="615" 
d="M82 0v372h-70v132h70v6c0 172 122 226 246 226c104 0 175 -43 226 -100l-164 -103c-4 44 -23 70 -63 70s-67 -23 -67 -95v-4h86v-132h-86v-372h-178zM385 0v504h182v-504h-182z" />
    <glyph glyph-name="fl" unicode="&#xfb02;" horiz-adv-x="619" 
d="M389 0v536c0 48 -27 68 -63 68c-43 0 -66 -22 -66 -76v-24h86v-132h-86v-372h-178v372h-70v132h70v44c0 118 73 188 177 188c68 0 110 -28 132 -60h4v48h176v-724h-182z" />
    <glyph glyph-name="uniFB03" unicode="&#xfb03;" horiz-adv-x="1022" 
d="M303 608c-30 0 -43 -22 -43 -54v-50h82v-132h-82v-372h-178v372h-70v132h70v48c0 124 90 184 210 184c74 0 127 -26 158 -47l-97 -128c-6 21 -17 47 -50 47zM660 600c-28 0 -39 -18 -39 -45v-51h100v-132h-100v-372h-178v372h-62v132h62v48c0 124 85 184 200 184
c46 0 97 -12 120 -25l-48 -147c-10 17 -28 36 -55 36zM792 0v504h182v-504h-182zM883 734c54 0 98 -39 98 -93s-44 -93 -98 -93s-98 39 -98 93s44 93 98 93z" />
    <glyph glyph-name="uniFB04" unicode="&#xfb04;" horiz-adv-x="1022" 
d="M303 608c-30 0 -43 -22 -43 -54v-50h82v-132h-82v-372h-178v372h-70v132h70v48c0 124 90 184 210 184c74 0 127 -26 158 -47l-97 -128c-6 21 -17 47 -50 47zM660 600c-28 0 -39 -18 -39 -45v-51h100v-132h-100v-372h-178v372h-62v132h62v48c0 124 85 184 200 184
c46 0 97 -12 120 -25l-48 -147c-10 17 -28 36 -55 36zM792 0v724h182v-724h-182z" />
    <glyph glyph-name="t_f" horiz-adv-x="738" 
d="M314 151l59 -123c-16 -11 -69 -40 -131 -40c-104 0 -164 56 -164 167v217h-74v132h74v92l178 96v-188h92v-132h-92v-199c0 -32 11 -43 29 -43c17 0 25 13 29 21zM665 608c-28 0 -42 -21 -42 -53v-51h100v-132h-100v-372h-178v372h-58v132h58v48c0 124 90 184 210 184
c96 0 165 -43 203 -88l-150 -94c-2 27 -14 54 -43 54z" />
    <glyph glyph-name="grave" unicode="`" horiz-adv-x="556" 
d="M355 597l-85 -49c-56 28 -135 85 -174 144l132 84c25 -60 73 -131 127 -179z" />
    <glyph glyph-name="acute" unicode="&#xb4;" horiz-adv-x="556" 
d="M286 548l-85 49c54 48 102 119 127 179l132 -84c-39 -59 -118 -116 -174 -144z" />
    <glyph glyph-name="hungarumlaut" unicode="&#x2dd;" horiz-adv-x="556" 
d="M177 548l-81 49c51 48 96 119 119 179l124 -84c-37 -59 -109 -116 -162 -144zM395 548l-81 49c51 48 96 119 119 179l124 -84c-37 -59 -109 -116 -162 -144z" />
    <glyph glyph-name="dotaccent" unicode="&#x2d9;" horiz-adv-x="556" 
d="M278 734c54 0 98 -39 98 -93s-44 -93 -98 -93s-98 39 -98 93s44 93 98 93z" />
    <glyph glyph-name="dieresis" unicode="&#xa8;" horiz-adv-x="556" 
d="M172 720c50 0 87 -36 87 -86s-37 -86 -87 -86s-87 36 -87 86s37 86 87 86zM385 720c50 0 87 -36 87 -86s-37 -86 -87 -86s-87 36 -87 86s37 86 87 86z" />
    <glyph glyph-name="circumflex" unicode="&#x2c6;" horiz-adv-x="556" 
d="M280 618h-4c-28 -32 -71 -66 -123 -86l-75 107c56 18 113 47 149 85h102c36 -38 93 -67 149 -85l-75 -107c-52 20 -95 54 -123 86z" />
    <glyph glyph-name="caron" unicode="&#x2c7;" horiz-adv-x="556" 
d="M276 662h4c28 32 71 66 123 86l75 -107c-56 -18 -113 -47 -149 -85h-102c-36 38 -93 67 -149 85l75 107c52 -20 95 -54 123 -86z" />
    <glyph glyph-name="macron" unicode="&#xaf;" horiz-adv-x="556" 
d="M129 564v128h299v-128h-299z" />
    <glyph glyph-name="tilde" unicode="&#x2dc;" horiz-adv-x="556" 
d="M358 548c-64 0 -101 49 -133 49c-20 0 -29 -21 -31 -49l-108 58c7 72 56 118 112 118c64 0 101 -48 133 -48c20 0 29 20 31 48l108 -58c-7 -72 -56 -118 -112 -118z" />
    <glyph glyph-name="breve" unicode="&#x2d8;" horiz-adv-x="556" 
d="M278 548c-92 0 -163 52 -179 144l131 37s-1 -12 -1 -17c0 -30 15 -54 49 -54s49 24 49 54c0 5 -1 17 -1 17l131 -37c-16 -92 -87 -144 -179 -144z" />
    <glyph glyph-name="ring" unicode="&#x2da;" horiz-adv-x="556" 
d="M278 694c-22 0 -37 -15 -37 -37c0 -23 15 -37 37 -37s37 15 37 37s-15 37 -37 37zM278 770c68 0 129 -45 129 -113s-61 -113 -129 -113s-129 45 -129 113s61 113 129 113z" />
    <glyph glyph-name="caronquoteleft" horiz-adv-x="556" 
d="M368 728c-35 -7 -82 -17 -91 -59h7c36 0 69 -21 69 -63s-31 -63 -73 -63c-52 0 -88 41 -88 97c0 64 39 114 83 138z" />
    <glyph glyph-name="caronquoteright" horiz-adv-x="556" 
d="M188 586c34 6 82 17 90 59h-6c-36 0 -69 21 -69 63s31 63 73 63c52 0 88 -41 88 -97c0 -64 -39 -114 -83 -138z" />
    <glyph glyph-name="uni0326" unicode="&#x326;" horiz-adv-x="556" 
d="M192 -226c34 7 82 17 90 59h-6c-36 0 -69 21 -69 63s31 63 73 63c52 0 88 -41 88 -97c0 -64 -39 -114 -83 -138z" />
    <glyph glyph-name="cedilla" unicode="&#xb8;" horiz-adv-x="556" 
d="M244 14l83 -3l-10 -39c48 -6 92 -32 92 -85c0 -64 -66 -95 -130 -95c-50 0 -96 16 -126 50l74 58c12 -25 29 -42 56 -42c19 0 35 8 35 29c0 18 -16 28 -35 28c-14 0 -23 -6 -23 -6l-53 39z" />
    <glyph glyph-name="ogonek" unicode="&#x2db;" horiz-adv-x="556" 
d="M341 -81l100 -55c-33 -43 -87 -72 -149 -72c-80 0 -136 40 -136 100c0 51 43 86 78 105l48 26l107 -23l-51 -24c-35 -17 -72 -41 -72 -65c0 -18 13 -28 33 -28c19 0 35 13 42 36z" />
    <glyph glyph-name="zero" unicode="0" horiz-adv-x="632" 
d="M218 348c0 -100 22 -204 98 -204s98 104 98 204s-22 200 -98 200s-98 -100 -98 -200zM28 348c0 232 120 356 288 356s288 -124 288 -356s-120 -360 -288 -360s-288 128 -288 360z" />
    <glyph glyph-name="one" unicode="1" horiz-adv-x="401" 
d="M170 481h-4c-24 -26 -63 -50 -103 -60l-71 159c81 15 161 50 214 112h139v-692h-180v377c0 44 5 104 5 104z" />
    <glyph glyph-name="two" unicode="2" horiz-adv-x="552" 
d="M209 353l-182 77s-7 23 -7 51c0 140 123 223 259 223c140 0 253 -80 253 -219c0 -197 -249 -286 -256 -323v-2h250v-160h-482s-3 19 -3 40c0 224 308 300 308 435c0 44 -27 73 -71 73c-52 0 -82 -44 -82 -112c0 -39 9 -64 13 -83z" />
    <glyph glyph-name="three" unicode="3" horiz-adv-x="549" 
d="M275 -12c-132 0 -231 66 -267 158l171 90c9 -60 40 -92 92 -92s79 36 79 84s-34 82 -86 82c-44 0 -73 -17 -104 -35l-62 149l153 113h-213v155h472v-128l-121 -84c-36 -27 -102 -55 -102 -55l2 -4s15 2 29 2c116 0 211 -73 211 -205s-110 -230 -254 -230z" />
    <glyph glyph-name="four" unicode="4" horiz-adv-x="582" 
d="M324 160h-264l-40 107c60 108 97 235 97 437l171 -84c0 -141 -43 -224 -91 -309h127v381h178v-381h68v-151h-68v-160h-178v160z" />
    <glyph glyph-name="five" unicode="5" horiz-adv-x="558" 
d="M280 -12c-132 0 -228 66 -264 158l171 90c8 -56 37 -92 89 -92s81 43 81 99s-29 99 -81 99c-48 0 -72 -35 -82 -69l-156 69l43 350h410v-155h-265l-5 -41c-5 -38 -15 -76 -15 -76l2 -1c23 26 65 51 125 51c108 0 203 -83 203 -227c0 -152 -108 -255 -256 -255z" />
    <glyph glyph-name="six" unicode="6" horiz-adv-x="578" 
d="M325 704c99 0 182 -51 233 -127l-159 -92c-6 39 -30 69 -74 69c-64 0 -109 -56 -123 -158h2c32 44 88 69 139 69c104 0 215 -75 215 -223c0 -156 -116 -254 -260 -254c-164 0 -270 116 -270 332c0 236 114 384 297 384zM388 233c0 58 -32 103 -90 103s-92 -45 -92 -103
s34 -103 92 -103s90 45 90 103z" />
    <glyph glyph-name="seven" unicode="7" horiz-adv-x="532" 
d="M528 692v-107c-100 -212 -146 -397 -170 -585h-203c23 185 113 402 179 532h-151v-157l-171 84v233h516z" />
    <glyph glyph-name="eight" unicode="8" horiz-adv-x="590" 
d="M295 -12c-154 0 -275 78 -275 206c0 112 92 158 141 174v4c-49 16 -115 58 -115 147c0 115 111 185 249 185c141 0 249 -70 249 -185c0 -89 -66 -131 -115 -147v-4c49 -16 141 -62 141 -174c0 -128 -120 -206 -275 -206zM195 208c0 -52 45 -78 100 -78s100 26 100 78
s-45 78 -100 78s-100 -26 -100 -78zM207 495c0 -44 40 -67 88 -67s88 23 88 67s-40 67 -88 67s-88 -23 -88 -67z" />
    <glyph glyph-name="nine" unicode="9" horiz-adv-x="580" 
d="M277 -12c-112 0 -188 46 -238 133l160 92c5 -39 28 -75 82 -75c67 0 92 52 99 157l-3 1c-32 -42 -89 -61 -140 -61c-104 0 -217 74 -217 227c0 151 118 242 262 242c164 0 270 -109 270 -320c0 -249 -81 -396 -275 -396zM190 463c0 -58 34 -99 92 -99s92 41 92 99
s-34 99 -92 99s-92 -41 -92 -99z" />
    <glyph glyph-name="zero.zero" horiz-adv-x="632" 
d="M209 348c0 -100 25 -212 107 -212s107 112 107 212s-25 208 -107 208s-107 -108 -107 -208zM28 348c0 232 120 356 288 356s288 -124 288 -356s-120 -360 -288 -360s-288 128 -288 360zM316 448c48 0 84 -36 84 -100s-36 -100 -84 -100s-84 36 -84 100s36 100 84 100z
" />
    <glyph glyph-name="currency" unicode="&#xa4;" 
d="M83 351c0 34 10 67 28 96l-80 79l104 98l83 -84c26 11 54 17 82 17s55 -6 81 -17l84 84l104 -98l-80 -79c17 -29 28 -62 28 -96c0 -33 -9 -64 -25 -92l80 -78l-104 -98l-82 81c-27 -12 -57 -19 -86 -19c-30 0 -60 7 -87 19l-81 -81l-104 98l80 78c-16 28 -25 59 -25 92z
M229 351c0 -45 27 -75 71 -75s71 31 71 75s-27 74 -71 74s-71 -30 -71 -74z" />
    <glyph glyph-name="dollar" unicode="$" horiz-adv-x="617" 
d="M249 -92v97c-104 16 -186 80 -219 165l154 95c6 -59 29 -106 75 -125v134c-115 31 -218 92 -218 212c0 107 98 186 208 201v95h142v-97c86 -16 160 -65 205 -148l-149 -92c-2 54 -27 91 -66 109v-130c109 -33 221 -83 221 -209c0 -106 -89 -192 -211 -210v-97h-142z
M440 199c0 33 -24 50 -59 62v-126c39 9 59 35 59 64zM203 502c0 -29 21 -45 56 -58v113c-35 -6 -56 -29 -56 -55z" />
    <glyph glyph-name="cent" unicode="&#xa2;" horiz-adv-x="586" 
d="M239 -92v102c-120 23 -207 106 -207 246s87 222 207 245v101h143v-101c89 -18 155 -70 184 -143l-147 -71c0 34 -17 63 -47 79v-221c30 16 47 46 47 80l147 -71c-29 -73 -95 -125 -184 -143v-103h-143zM196 256c0 -56 15 -94 53 -112v224c-38 -18 -53 -57 -53 -112z" />
    <glyph glyph-name="Euro" unicode="&#x20ac;" horiz-adv-x="650" 
d="M380 202h-89c16 -45 46 -72 99 -72c69 0 95 61 92 144l164 -104c-37 -108 -125 -182 -256 -182c-127 0 -234 70 -276 214h-86v111h69c-1 11 -1 21 -1 33v18h-68v111h83c40 153 154 229 279 229c123 0 219 -70 256 -178l-164 -104c4 84 -26 140 -92 140
c-52 0 -84 -35 -101 -87h158l-29 -111h-145v-51h136z" />
    <glyph glyph-name="yen" unicode="&#xa5;" horiz-adv-x="638" 
d="M570 137h-162v-137h-179v137h-162v111h162v6l-27 53h-135v111h79l-138 274h199l76 -180c22 -52 35 -100 35 -100h4s14 48 36 100l76 180h196l-139 -274h79v-111h-135l-27 -54v-5h162v-111z" />
    <glyph glyph-name="sterling" unicode="&#xa3;" horiz-adv-x="598" 
d="M443 267h-126c-6 -55 -32 -92 -53 -112h306v-155h-504v124c56 25 70 75 70 133v10h-100v131h82c-8 31 -14 60 -14 94c0 155 132 212 247 212c111 0 204 -59 251 -154l-161 -102c-5 65 -30 110 -85 110c-40 0 -70 -26 -70 -78c0 -29 6 -55 13 -82h178z" />
    <glyph glyph-name="florin" unicode="&#x192;" horiz-adv-x="572" 
d="M471 320h-140l-9 -270c-6 -174 -112 -226 -219 -226c-85 0 -158 37 -191 82l150 94c3 -28 17 -43 39 -43s41 12 43 79l10 284h-98v131h103l1 33c6 179 137 220 240 220c88 0 163 -39 208 -107l-150 -94c-5 52 -28 68 -60 68c-29 0 -58 -15 -60 -73l-2 -47h169z" />
    <glyph glyph-name="zero.tf" 
d="M218 348c0 -100 12 -196 82 -196s82 96 82 196s-12 192 -82 192s-82 -92 -82 -192zM28 348c0 232 109 356 272 356s272 -124 272 -356s-109 -360 -272 -360s-272 128 -272 360z" />
    <glyph glyph-name="one.tf" 
d="M262 474h-4c-25 -30 -72 -60 -148 -76l-62 163c105 18 198 58 251 131h135v-540h146v-152h-484v152h160v218c0 44 6 104 6 104z" />
    <glyph glyph-name="two.tf" 
d="M233 353l-182 77s-7 23 -7 51c0 140 123 223 259 223c140 0 253 -80 253 -219c0 -197 -249 -286 -256 -323v-2h250v-160h-482s-3 19 -3 40c0 224 308 300 308 435c0 44 -27 73 -71 73c-52 0 -82 -44 -82 -112c0 -39 9 -64 13 -83z" />
    <glyph glyph-name="three.tf" 
d="M303 -12c-132 0 -231 66 -267 158l171 90c9 -60 40 -92 92 -92s79 36 79 84s-34 82 -86 82c-44 0 -73 -17 -104 -35l-62 149l153 113h-213v155h472v-128l-121 -84c-36 -27 -102 -55 -102 -55l2 -4s15 2 29 2c116 0 211 -73 211 -205s-110 -230 -254 -230z" />
    <glyph glyph-name="four.tf" 
d="M320 160h-251l-39 107c59 108 81 235 81 437l171 -84c0 -141 -30 -224 -75 -309h113v381h178v-381h66v-151h-66v-160h-178v160z" />
    <glyph glyph-name="five.tf" 
d="M306 -12c-132 0 -228 66 -264 158l171 90c8 -56 37 -92 89 -92s81 43 81 99s-29 99 -81 99c-48 0 -72 -35 -82 -69l-156 69l43 350h410v-155h-265l-5 -41c-5 -38 -15 -76 -15 -76l2 -1c23 26 65 51 125 51c108 0 203 -83 203 -227c0 -152 -108 -255 -256 -255z" />
    <glyph glyph-name="six.tf" 
d="M335 704c96 0 180 -51 229 -127l-159 -92c-5 39 -31 69 -70 69c-60 0 -105 -56 -119 -158h2c30 44 87 69 135 69c100 0 211 -75 211 -223c0 -156 -116 -254 -256 -254c-159 0 -266 116 -266 332c0 236 115 384 293 384zM394 233c0 58 -33 103 -86 103s-88 -45 -88 -103
s35 -103 88 -103s86 45 86 103z" />
    <glyph glyph-name="seven.tf" 
d="M572 692v-107c-105 -212 -153 -397 -178 -585h-203c24 185 118 402 186 532h-166v-157l-171 84v233h532z" />
    <glyph glyph-name="eight.tf" 
d="M300 -12c-154 0 -270 78 -270 206c0 112 90 158 142 174v4c-52 16 -116 58 -116 147c0 115 106 185 244 185c141 0 244 -70 244 -185c0 -89 -64 -131 -116 -147v-4c52 -16 142 -62 142 -174c0 -128 -115 -206 -270 -206zM205 208c0 -52 40 -78 95 -78s95 26 95 78
s-40 78 -95 78s-95 -26 -95 -78zM217 495c0 -44 35 -67 83 -67s83 23 83 67s-35 67 -83 67s-83 -23 -83 -67z" />
    <glyph glyph-name="nine.tf" 
d="M291 -12c-108 0 -184 46 -232 133l160 92c5 -39 27 -75 76 -75c61 0 85 52 91 157l-3 1c-30 -42 -86 -61 -134 -61c-100 0 -211 74 -211 227c0 151 116 242 256 242c159 0 264 -109 264 -320c0 -249 -79 -396 -267 -396zM208 463c0 -58 33 -99 86 -99s86 41 86 99
s-33 99 -86 99s-86 -41 -86 -99z" />
    <glyph glyph-name="zero.tf.zero" 
d="M199 348c0 -104 29 -212 101 -212s101 108 101 212s-29 208 -101 208s-101 -104 -101 -208zM26 348c0 232 111 356 274 356s274 -124 274 -356s-111 -360 -274 -360s-274 128 -274 360zM300 448c48 0 82 -36 82 -100s-34 -100 -82 -100s-82 36 -82 100s34 100 82 100z
" />
    <glyph glyph-name="currency.tf" 
d="M83 351c0 34 10 67 28 96l-80 79l104 98l83 -84c26 11 54 17 82 17s55 -6 81 -17l84 84l104 -98l-80 -79c17 -29 28 -62 28 -96c0 -33 -9 -64 -25 -92l80 -78l-104 -98l-82 81c-27 -12 -57 -19 -86 -19c-30 0 -60 7 -87 19l-81 -81l-104 98l80 78c-16 28 -25 59 -25 92z
M229 351c0 -45 27 -75 71 -75s71 31 71 75s-27 74 -71 74s-71 -30 -71 -74z" />
    <glyph glyph-name="dollar.tf" 
d="M233 -92v98c-100 16 -175 79 -207 164l154 95c5 -58 23 -104 63 -123v133c-111 31 -206 91 -206 211c0 106 91 186 196 201v95h142v-98c82 -15 150 -65 193 -147l-149 -92c-2 52 -21 88 -54 106v-127c105 -33 209 -83 209 -209c0 -106 -83 -191 -199 -209v-98h-142z
M412 199c0 30 -19 47 -47 59v-122c32 9 47 35 47 63zM199 502c0 -27 16 -43 44 -55v109c-29 -7 -44 -29 -44 -54z" />
    <glyph glyph-name="cent.tf" 
d="M247 -92v102c-120 23 -207 106 -207 246s87 222 207 245v101h143v-101c89 -18 155 -70 184 -143l-147 -71c0 34 -17 63 -47 79v-221c30 16 47 46 47 80l147 -71c-29 -73 -95 -125 -184 -143v-103h-143zM204 256c0 -56 15 -94 53 -112v224c-38 -18 -53 -57 -53 -112z" />
    <glyph glyph-name="Euro.tf" 
d="M342 202h-73c14 -45 39 -72 81 -72c57 0 77 61 74 144l160 -101c-35 -108 -111 -185 -234 -185c-118 0 -215 70 -253 214h-69v111h53c-1 11 -1 21 -1 33v18h-52v111h66c37 153 140 229 256 229c115 0 199 -73 234 -181l-157 -99c4 84 -23 138 -77 138
c-42 0 -68 -35 -83 -87h129l-24 -111h-119v-51h113z" />
    <glyph glyph-name="yen.tf" 
d="M551 132h-162v-132h-179v132h-162v111h162v7l-24 52h-138v111h86l-130 279h199l61 -164c21 -56 35 -116 35 -116h4s15 60 36 116l61 164h196l-131 -279h86v-111h-138l-24 -53v-6h162v-111z" />
    <glyph glyph-name="sterling.tf" 
d="M443 267h-126c-6 -55 -32 -92 -53 -112h306v-155h-504v124c56 25 70 75 70 133v10h-100v131h82c-8 31 -14 60 -14 94c0 155 132 212 247 212c111 0 204 -59 251 -154l-161 -102c-5 65 -30 110 -85 110c-40 0 -70 -26 -70 -78c0 -29 6 -55 13 -82h178z" />
    <glyph glyph-name="florin.tf" 
d="M487 320h-140l-9 -270c-6 -174 -112 -226 -219 -226c-85 0 -158 37 -191 82l150 94c3 -28 17 -43 39 -43s41 12 43 79l10 284h-98v131h103l1 33c6 179 137 220 240 220c88 0 163 -39 208 -107l-150 -94c-5 52 -28 68 -60 68c-29 0 -58 -15 -60 -73l-2 -47h169z" />
    <glyph glyph-name="plus" unicode="+" 
d="M220 42v210h-190v152h190v206h160v-206h190v-152h-190v-210h-160z" />
    <glyph glyph-name="minus" unicode="&#x2212;" 
d="M552 250h-504v156h504v-156z" />
    <glyph glyph-name="multiply" unicode="&#xd7;" 
d="M144 61l-114 106l165 155l-163 158l114 106l154 -156l154 156l114 -106l-163 -158l165 -155l-114 -106l-156 157z" />
    <glyph glyph-name="divide" unicode="&#xf7;" 
d="M552 252h-504v152h504v-152zM300 214c52 0 98 -38 98 -96s-46 -96 -98 -96s-98 38 -98 96s46 96 98 96zM300 634c52 0 98 -38 98 -96s-46 -96 -98 -96s-98 38 -98 96s46 96 98 96z" />
    <glyph glyph-name="equal" unicode="=" 
d="M552 142h-504v144h504v-144zM552 360h-504v144h504v-144z" />
    <glyph glyph-name="less" unicode="&#x3c;" 
d="M544 450l-301 -120l301 -120l-59 -149l-425 186v164l425 184z" />
    <glyph glyph-name="greater" unicode="&#x3e;" 
d="M357 330l-301 120l59 145l425 -184v-164l-425 -186l-59 149z" />
    <glyph glyph-name="plusminus" unicode="&#xb1;" 
d="M226 246v143h-178v134h178v147h148v-147h178v-134h-178v-143h-148zM552 66h-504v136h504v-136z" />
    <glyph glyph-name="lessequal" unicode="&#x2264;" 
d="M500 229l-424 130v154l424 146l44 -137l-282 -84l282 -72zM552 66h-488v136h488v-136z" />
    <glyph glyph-name="greaterequal" unicode="&#x2265;" 
d="M524 359l-424 -130l-44 137l282 72l-282 84l44 137l424 -146v-154zM536 66h-488v136h488v-136z" />
    <glyph glyph-name="notequal" unicode="&#x2260;" 
d="M560 142h-268l-64 -141l-124 54l39 87h-103v140h167l37 82h-204v140h267l65 142l124 -54l-40 -88h104v-140h-168l-37 -82h205v-140z" />
    <glyph glyph-name="logicalnot" unicode="&#xac;" 
d="M48 406h504v-297h-160v141h-344v156z" />
    <glyph glyph-name="asciicircum" unicode="^" 
d="M35 405l192 287h146l192 -287l-139 -78l-126 201l-126 -201z" />
    <glyph glyph-name="asciitilde" unicode="~" 
d="M404 215c-73 0 -138 69 -186 69c-38 0 -46 -37 -46 -71l-132 77c21 94 63 160 156 160c73 0 138 -69 186 -69c38 0 46 37 46 71l132 -77c-21 -94 -63 -160 -156 -160z" />
    <glyph glyph-name="approxequal" unicode="&#x2248;" 
d="M410 336c-76 0 -142 51 -192 51c-38 0 -46 -29 -46 -55l-132 77c20 74 62 126 150 126c76 0 142 -51 192 -51c38 0 46 29 46 55l132 -77c-20 -74 -62 -126 -150 -126zM410 118c-76 0 -142 51 -192 51c-38 0 -46 -29 -46 -55l-132 77c20 74 62 126 150 126
c76 0 142 -51 192 -51c38 0 46 29 46 55l132 -77c-20 -74 -62 -126 -150 -126z" />
    <glyph glyph-name="infinity" unicode="&#x221e;" horiz-adv-x="861" 
d="M241 541c76 0 139 -42 186 -100h6c48 58 110 100 187 100c122 0 209 -93 209 -213s-86 -213 -209 -213c-77 0 -140 41 -187 100h-6c-47 -59 -110 -100 -186 -100c-123 0 -209 93 -209 213s87 213 209 213zM501 328c20 -29 47 -69 99 -69c39 0 67 30 67 69s-28 69 -67 69
c-52 0 -79 -40 -99 -69zM360 328c-20 29 -47 69 -99 69c-39 0 -67 -30 -67 -69s28 -69 67 -69c52 0 79 40 99 69z" />
    <glyph glyph-name="numbersign" unicode="#" horiz-adv-x="700" 
d="M444 541l28 151h157l-28 -151h79v-137h-105l-20 -106h100v-137h-125l-30 -161h-157l30 161h-121l-30 -161h-157l30 161h-75v137h100l20 106h-95v137h121l28 151h157l-28 -151h121zM297 404l-20 -106h121l20 106h-121z" />
    <glyph glyph-name="radical" unicode="&#x221a;" horiz-adv-x="676" 
d="M20 250v150h222l39 -200c11 -56 24 -136 24 -136h4s16 76 33 137l151 547h183l-254 -856h-243l-77 358h-82z" />
    <glyph glyph-name="lozenge" unicode="&#x25ca;" horiz-adv-x="634" 
d="M20 350l204 342h186l204 -342l-204 -350h-186zM270 448l-59 -98l59 -106c29 -52 45 -85 45 -85h4s16 33 45 85l58 106l-58 98c-31 53 -45 85 -45 85h-4s-14 -34 -45 -85z" />
    <glyph glyph-name="Delta" unicode="&#x2206;" horiz-adv-x="663" 
d="M13 0v122l211 570h211l215 -570v-122h-637zM302 417l-89 -259h228l-88 259c-14 40 -23 85 -23 85h-4s-10 -45 -24 -85z" />
    <glyph glyph-name="Omega" unicode="&#x2126;" horiz-adv-x="722" 
d="M332 136v-136h-292v154h26c48 0 80 -9 80 -9l1 2c-66 63 -109 147 -109 241c0 199 140 316 323 316s323 -117 323 -316c0 -94 -43 -178 -110 -241l2 -2s32 9 80 9h26v-154h-292v136c62 48 104 120 104 228c0 92 -35 177 -133 177s-133 -85 -133 -177
c0 -108 42 -180 104 -228z" />
    <glyph glyph-name="summation" unicode="&#x2211;" horiz-adv-x="535" 
d="M399 316l-155 -322h287v-157h-507v123l178 355l-178 326v123h507v-157h-287z" />
    <glyph glyph-name="partialdiff" unicode="&#x2202;" horiz-adv-x="575" 
d="M47 546l105 158c222 -6 395 -132 395 -403c0 -172 -75 -313 -265 -313c-179 0 -258 113 -258 237c0 138 104 217 203 217c64 0 104 -23 138 -56l3 2c-29 117 -127 164 -254 164c-32 0 -67 -6 -67 -6zM281 319c-61 0 -90 -47 -90 -96c0 -55 33 -94 87 -94
c84 0 99 73 100 169c-25 13 -57 21 -97 21z" />
    <glyph glyph-name="integral" unicode="&#x222b;" horiz-adv-x="418" 
d="M117 56v530c0 140 93 185 185 185c47 0 78 -8 78 -8l34 -151s-23 8 -51 8c-44 0 -62 -19 -62 -75v-530c0 -140 -93 -185 -185 -185c-47 0 -78 8 -78 8l-34 151s23 -8 51 -8c44 0 62 19 62 75z" />
    <glyph glyph-name="product" unicode="&#x220f;" horiz-adv-x="696" 
d="M445 -163v772h-193v-772h-180v927h552v-927h-179z" />
    <glyph glyph-name="pi" unicode="&#x3c0;" horiz-adv-x="652" 
d="M8 363v141h631v-141h-108v-190c0 -32 11 -43 29 -43c17 0 25 13 29 21l59 -123c-16 -11 -69 -40 -131 -40c-104 0 -164 56 -164 167v208h-98v-364h-165v364h-82z" />
    <glyph glyph-name="mu" unicode="&#xb5;" horiz-adv-x="564" 
d="M48 -196v700h180v-292c0 -44 10 -76 50 -76c38 0 56 25 58 72v296h180v-504h-180l8 80h-4c-26 -45 -60 -85 -128 -91c4 -27 12 -86 12 -150v-35h-176z" />
    <glyph glyph-name="period" unicode="." horiz-adv-x="292" 
d="M146 188c55 0 102 -39 102 -100s-47 -100 -102 -100s-102 39 -102 100s47 100 102 100z" />
    <glyph glyph-name="comma" unicode="," horiz-adv-x="292" 
d="M137 188c68 0 113 -50 113 -138c0 -92 -46 -175 -113 -215l-103 58c36 16 107 51 120 117c-6 -1 -12 -2 -18 -2c-52 0 -92 39 -92 91s41 89 93 89z" />
    <glyph glyph-name="colon" unicode=":" horiz-adv-x="292" 
d="M146 508c55 0 102 -39 102 -100s-47 -100 -102 -100s-102 39 -102 100s47 100 102 100zM146 188c55 0 102 -39 102 -100s-47 -100 -102 -100s-102 39 -102 100s47 100 102 100z" />
    <glyph glyph-name="semicolon" unicode=";" horiz-adv-x="292" 
d="M137 188c68 0 113 -50 113 -138c0 -92 -46 -175 -113 -215l-103 58c36 16 107 51 120 117c-6 -1 -12 -2 -18 -2c-52 0 -92 39 -92 91s41 89 93 89zM146 508c55 0 102 -39 102 -100s-47 -100 -102 -100s-102 39 -102 100s47 100 102 100z" />
    <glyph glyph-name="exclam" unicode="!" horiz-adv-x="324" 
d="M256 692v-70c0 -152 -32 -396 -32 -396h-124s-32 244 -32 396v70h188zM162 180c52 0 98 -38 98 -96s-46 -96 -98 -96s-98 38 -98 96s46 96 98 96z" />
    <glyph glyph-name="question" unicode="?" horiz-adv-x="508" 
d="M263 563c-52 0 -99 -51 -107 -127l-156 89c28 88 127 179 263 179c116 0 233 -59 233 -175c0 -152 -193 -168 -193 -264c0 -20 5 -39 5 -39h-124s-29 40 -29 85c0 132 166 139 166 207c0 28 -26 45 -58 45zM247 180c52 0 98 -38 98 -96s-46 -96 -98 -96s-98 38 -98 96
s46 96 98 96z" />
    <glyph glyph-name="exclamdown" unicode="&#xa1;" horiz-adv-x="324" 
d="M256 -118v-70h-188v70c0 152 32 396 32 396h124s32 -244 32 -396zM162 324c-52 0 -98 38 -98 96s46 96 98 96s98 -38 98 -96s-46 -96 -98 -96z" />
    <glyph glyph-name="questiondown" unicode="&#xbf;" horiz-adv-x="508" 
d="M245 -60c52 0 99 51 107 127l156 -89c-28 -88 -127 -179 -263 -179c-116 0 -233 59 -233 175c0 152 193 168 193 264c0 20 -5 39 -5 39h124s29 -40 29 -85c0 -132 -166 -139 -166 -207c0 -28 26 -45 58 -45zM261 323c-52 0 -98 38 -98 96s46 96 98 96s98 -38 98 -96
s-46 -96 -98 -96z" />
    <glyph glyph-name="hyphen" unicode="-" horiz-adv-x="359" 
d="M319 219h-279v146h279v-146z" />
    <glyph glyph-name="endash" unicode="&#x2013;" horiz-adv-x="613" 
d="M573 220h-533v145h533v-145z" />
    <glyph glyph-name="emdash" unicode="&#x2014;" horiz-adv-x="860" 
d="M820 220h-780v145h780v-145z" />
    <glyph glyph-name="underscore" unicode="_" horiz-adv-x="488" 
d="M440 -106h-392v145h392v-145z" />
    <glyph glyph-name="bar" unicode="|" horiz-adv-x="324" 
d="M72 -163v927h180v-927h-180z" />
    <glyph glyph-name="brokenbar" unicode="&#xa6;" horiz-adv-x="324" 
d="M72 -163v374h180v-374h-180zM72 398v366h180v-366h-180z" />
    <glyph glyph-name="dagger" unicode="&#x2020;" horiz-adv-x="568" 
d="M16 505l59 -2c38 -2 87 -6 127 -10l3 3c-5 52 -11 125 -13 177l-2 51h188l-2 -51c-2 -52 -9 -126 -14 -178l3 -2c42 4 89 8 128 10l59 2v-171l-59 2c-38 1 -87 5 -127 10l-3 -3c4 -72 10 -184 14 -327l2 -90h-190l2 90c3 143 9 254 14 327l-3 3c-41 -5 -88 -9 -127 -10
l-59 -2v171z" />
    <glyph glyph-name="daggerdbl" unicode="&#x2021;" horiz-adv-x="592" 
d="M564 117l-59 2c-38 1 -87 5 -128 10l-3 -4c5 -43 10 -100 12 -148l2 -51h-184l2 51c1 47 7 105 12 148l-4 4c-41 -5 -88 -9 -127 -10l-59 -2v167l59 -2c37 -2 85 -6 126 -10l3 3v104l-3 3c-41 -5 -88 -9 -126 -10l-59 -2v167l59 -2c38 -2 87 -6 127 -10l4 3
c-5 43 -11 97 -12 145l-2 51h184l-2 -51c-2 -47 -7 -103 -12 -145l3 -3c42 4 89 8 128 10l59 2v-167l-59 2c-38 1 -85 5 -126 10l-3 -4v-103l3 -3c41 4 87 8 126 10l59 2v-167z" />
    <glyph glyph-name="parenleft" unicode="(" horiz-adv-x="376" 
d="M68 304c0 206 83 384 167 472l137 -69c-72 -100 -124 -233 -124 -403s52 -310 124 -410l-137 -69c-84 88 -167 273 -167 479z" />
    <glyph glyph-name="parenright" unicode=")" horiz-adv-x="376" 
d="M308 304c0 -206 -83 -391 -167 -479l-137 69c72 100 124 240 124 410s-52 303 -124 403l137 69c84 -88 167 -266 167 -472z" />
    <glyph glyph-name="bracketleft" unicode="[" horiz-adv-x="394" 
d="M72 -163v927h298v-151h-126v-625h126v-151h-298z" />
    <glyph glyph-name="bracketright" unicode="]" horiz-adv-x="394" 
d="M322 764v-927h-298v151h126v625h-126v151h298z" />
    <glyph glyph-name="braceleft" unicode="{" horiz-adv-x="430" 
d="M199 307v-4c56 -20 106 -65 106 -162v-85c0 -56 18 -75 62 -75c28 0 51 8 51 8l-26 -151s-31 -8 -78 -8c-92 0 -181 45 -181 185v103c0 78 -36 102 -89 114v146c53 12 89 36 89 114v94c0 140 89 185 181 185c47 0 78 -8 78 -8l26 -151s-23 8 -51 8c-44 0 -62 -19 -62 -75
v-76c0 -97 -50 -142 -106 -162z" />
    <glyph glyph-name="braceright" unicode="}" horiz-adv-x="430" 
d="M231 303v4c-56 20 -106 65 -106 162v76c0 56 -18 75 -62 75c-28 0 -51 -8 -51 -8l26 151s31 8 78 8c92 0 181 -45 181 -185v-94c0 -78 36 -102 89 -114v-146c-53 -12 -89 -36 -89 -114v-103c0 -140 -89 -185 -181 -185c-47 0 -78 8 -78 8l-26 151s23 -8 51 -8
c44 0 62 19 62 75v85c0 97 50 142 106 162z" />
    <glyph glyph-name="slash" unicode="/" horiz-adv-x="424" 
d="M13 -163l215 927h185l-215 -927h-185z" />
    <glyph glyph-name="backslash" unicode="\" horiz-adv-x="424" 
d="M197 764l215 -927h-185l-215 927h185z" />
    <glyph glyph-name="quotesinglbase" unicode="&#x201a;" horiz-adv-x="292" 
d="M137 188c68 0 113 -50 113 -138c0 -92 -46 -175 -113 -215l-103 58c36 16 107 51 120 117c-6 -1 -12 -2 -18 -2c-52 0 -92 39 -92 91s41 89 93 89z" />
    <glyph glyph-name="quotedblbase" unicode="&#x201e;" horiz-adv-x="530" 
d="M137 188c68 0 113 -50 113 -138c0 -92 -46 -175 -113 -215l-103 58c36 16 107 51 120 117c-6 -1 -12 -2 -18 -2c-52 0 -92 39 -92 91s41 89 93 89zM375 188c68 0 113 -50 113 -138c0 -92 -46 -175 -113 -215l-103 58c36 16 107 51 120 117c-6 -1 -12 -2 -18 -2
c-52 0 -92 39 -92 91s41 89 93 89z" />
    <glyph glyph-name="quoteleft" unicode="&#x2018;" horiz-adv-x="292" 
d="M155 372c-68 0 -113 50 -113 138c0 92 46 175 113 215l103 -58c-36 -16 -107 -51 -120 -117c6 1 12 2 18 2c52 0 92 -39 92 -91s-41 -89 -93 -89z" />
    <glyph glyph-name="quotedblleft" unicode="&#x201c;" horiz-adv-x="530" 
d="M155 372c-68 0 -113 50 -113 138c0 92 46 175 113 215l103 -58c-36 -16 -107 -51 -120 -117c6 1 12 2 18 2c52 0 92 -39 92 -91s-41 -89 -93 -89zM393 372c-68 0 -113 50 -113 138c0 92 46 175 113 215l103 -58c-36 -16 -107 -51 -120 -117c6 1 12 2 18 2
c52 0 92 -39 92 -91s-41 -89 -93 -89z" />
    <glyph glyph-name="quoteright" unicode="&#x2019;" horiz-adv-x="292" 
d="M137 704c68 0 113 -50 113 -138c0 -92 -46 -175 -113 -215l-103 58c36 16 107 51 120 117c-6 -1 -12 -2 -18 -2c-52 0 -92 39 -92 91s41 89 93 89z" />
    <glyph glyph-name="quotedblright" unicode="&#x201d;" horiz-adv-x="530" 
d="M137 704c68 0 113 -50 113 -138c0 -92 -46 -175 -113 -215l-103 58c36 16 107 51 120 117c-6 -1 -12 -2 -18 -2c-52 0 -92 39 -92 91s41 89 93 89zM375 704c68 0 113 -50 113 -138c0 -92 -46 -175 -113 -215l-103 58c36 16 107 51 120 117c-6 -1 -12 -2 -18 -2
c-52 0 -92 39 -92 91s41 89 93 89z" />
    <glyph glyph-name="guilsinglleft" unicode="&#x2039;" horiz-adv-x="358" 
d="M189 276v-4c40 -34 101 -86 141 -154l-150 -94c-30 60 -88 142 -144 198v104c56 56 114 138 144 198l150 -94c-40 -68 -101 -120 -141 -154z" />
    <glyph glyph-name="guilsinglright" unicode="&#x203a;" horiz-adv-x="358" 
d="M169 272v4c-40 34 -101 86 -141 154l150 94c30 -60 88 -142 144 -198v-104c-56 -56 -114 -138 -144 -198l-150 94c40 68 101 120 141 154z" />
    <glyph glyph-name="guillemotleft" unicode="&#xab;" horiz-adv-x="592" 
d="M176 276v-4c39 -38 96 -95 134 -160l-142 -88c-28 58 -79 144 -132 198v104c53 54 104 140 132 198l142 -88c-38 -65 -95 -122 -134 -160zM429 276v-4c40 -34 107 -100 139 -160l-143 -88c-28 60 -83 142 -136 206v88c53 64 108 146 136 206l143 -88
c-38 -65 -100 -128 -139 -160z" />
    <glyph glyph-name="guillemotright" unicode="&#xbb;" horiz-adv-x="592" 
d="M416 272v4c-39 38 -96 95 -134 160l142 88c28 -58 79 -144 132 -198v-104c-53 -54 -104 -140 -132 -198l-142 88c38 65 95 122 134 160zM163 272v4c-39 32 -101 95 -139 160l143 88c28 -60 83 -142 136 -206v-88c-53 -64 -108 -146 -136 -206l-143 88
c32 60 99 126 139 160z" />
    <glyph glyph-name="quotesingle" unicode="'" horiz-adv-x="256" 
d="M216 692l-5 -78c-7 -104 -21 -236 -21 -236h-124s-14 132 -21 236l-5 78h176z" />
    <glyph glyph-name="quotedbl" unicode="&#x22;" horiz-adv-x="512" 
d="M236 692l-5 -78c-7 -104 -21 -236 -21 -236h-124s-14 132 -21 236l-5 78h176zM452 692l-5 -78c-7 -104 -21 -236 -21 -236h-124s-14 132 -21 236l-5 78h176z" />
    <glyph glyph-name="asterisk" unicode="*" horiz-adv-x="521" 
d="M69 603l48 -22c34 -16 69 -39 90 -54l3 3c-7 24 -19 66 -22 105l-6 57h156l-6 -57c-4 -37 -15 -79 -22 -104l4 -3c21 15 54 37 89 53l48 22l44 -141l-51 -12c-31 -8 -69 -11 -96 -13l-1 -5c21 -15 51 -38 79 -65l36 -35l-123 -93l-26 42c-23 36 -42 79 -51 99h-4
c-7 -19 -25 -59 -50 -99l-26 -42l-123 93l36 35c27 26 59 50 80 65l-2 5c-27 1 -64 5 -97 13l-51 12z" />
    <glyph glyph-name="degree" unicode="&#xb0;" horiz-adv-x="434" 
d="M217 704c98 0 185 -65 185 -169s-87 -169 -185 -169s-185 65 -185 169s87 169 185 169zM270 535c0 38 -19 64 -53 64s-55 -26 -55 -64s21 -64 55 -64s53 26 53 64z" />
    <glyph glyph-name="bullet" unicode="&#x2022;" horiz-adv-x="368" 
d="M184 422c74 0 138 -52 138 -134s-64 -134 -138 -134c-75 0 -138 52 -138 134s63 134 138 134z" />
    <glyph glyph-name="periodcentered" unicode="&#xb7;" horiz-adv-x="300" 
d="M150 389c55 0 102 -39 102 -100s-47 -100 -102 -100s-102 39 -102 100s47 100 102 100z" />
    <glyph glyph-name="ellipsis" unicode="&#x2026;" horiz-adv-x="836" 
d="M150 188c55 0 102 -39 102 -100s-47 -100 -102 -100s-102 39 -102 100s47 100 102 100zM418 188c55 0 102 -39 102 -100s-47 -100 -102 -100s-102 39 -102 100s47 100 102 100zM686 188c55 0 102 -39 102 -100s-47 -100 -102 -100s-102 39 -102 100s47 100 102 100z" />
    <glyph glyph-name="paragraph" unicode="&#xb6;" horiz-adv-x="683" 
d="M442 -196v732h-110v-732h-160v496c-100 15 -152 87 -152 195c0 115 67 197 192 197h459v-156h-69v-732h-160z" />
    <glyph glyph-name="section" unicode="&#xa7;" horiz-adv-x="533" 
d="M517 308c0 -56 -36 -100 -88 -124v-3c31 -28 53 -66 53 -118c0 -104 -93 -171 -213 -171c-96 0 -181 35 -240 106l139 94c12 -42 49 -76 101 -76c30 0 55 14 55 38c0 41 -74 43 -154 73c-91 33 -150 77 -150 161c0 57 36 101 90 124v2c-31 29 -51 67 -51 119
c0 104 93 171 213 171c88 0 168 -33 222 -104l-139 -94c-11 44 -41 74 -83 74c-30 0 -55 -14 -55 -38c0 -41 70 -43 150 -73c91 -33 150 -77 150 -161zM228 351c-15 5 -30 10 -45 17c-8 -9 -12 -20 -12 -33c0 -57 61 -62 138 -90l45 -17c7 8 12 19 12 33
c0 57 -61 62 -138 90z" />
    <glyph glyph-name="copyright" unicode="&#xa9;" horiz-adv-x="776" 
d="M28 346c0 208 156 358 360 358s360 -150 360 -358s-156 -358 -360 -358s-360 150 -360 358zM388 89c146 0 250 107 250 257s-104 257 -250 257s-250 -107 -250 -257s104 -257 250 -257zM396 428c-36 0 -48 -30 -48 -82c0 -51 12 -82 48 -82c30 0 45 29 45 64l127 -52
c-25 -68 -97 -118 -172 -118c-100 0 -187 63 -187 188c0 127 87 189 187 189c75 0 147 -50 172 -119l-127 -53c0 37 -13 65 -45 65z" />
    <glyph glyph-name="registered" unicode="&#xae;" horiz-adv-x="776" 
d="M28 346c0 208 156 358 360 358s360 -150 360 -358s-156 -358 -360 -358s-360 150 -360 358zM388 89c146 0 250 107 250 257s-104 257 -250 257s-250 -107 -250 -257s104 -257 250 -257zM557 406c0 -43 -19 -79 -55 -101l54 -127h-121l-41 105h-32v-105h-114v353h157
c100 0 152 -53 152 -125zM447 406c0 19 -12 29 -39 29h-46v-60h46c27 0 39 12 39 31z" />
    <glyph glyph-name="trademark" unicode="&#x2122;" horiz-adv-x="803" 
d="M8 577v115h306v-115h-88v-197h-130v197h-88zM553 519h2s4 24 9 43l36 130h159v-312h-110v101c0 36 3 68 3 68h-3s-4 -21 -10 -42l-36 -127h-97l-38 127c-7 22 -10 42 -10 42h-4s3 -32 3 -68v-101h-109v312h161l35 -130c5 -20 9 -43 9 -43z" />
    <glyph glyph-name="ordfeminine" unicode="&#xaa;" horiz-adv-x="353" 
d="M173 615c-18 0 -41 -12 -52 -42l-112 52c35 49 91 78 167 78c80 0 142 -43 142 -123v-105c0 -32 -1 -61 7 -90h-96c-10 11 -16 21 -22 36h-3c-10 -16 -36 -43 -84 -43c-55 0 -102 34 -102 91c0 72 69 91 115 101c40 8 62 13 62 30c0 9 -10 15 -22 15zM197 499v24
c-7 -8 -18 -14 -33 -19c-14 -5 -21 -10 -21 -23c0 -11 8 -18 24 -18c17 0 30 10 30 36z" />
    <glyph glyph-name="ordmasculine" unicode="&#xba;" horiz-adv-x="369" 
d="M184 374c-87 0 -168 54 -168 162c0 109 81 163 168 163s169 -54 169 -163c0 -108 -82 -162 -169 -162zM151 536c0 -46 8 -74 33 -74c26 0 34 28 34 74c0 47 -8 75 -34 75c-25 0 -33 -28 -33 -75z" />
    <glyph glyph-name="hyphen.case" horiz-adv-x="359" 
d="M319 278h-279v146h279v-146z" />
    <glyph glyph-name="endash.case" horiz-adv-x="613" 
d="M573 278h-533v145h533v-145z" />
    <glyph glyph-name="emdash.case" horiz-adv-x="860" 
d="M820 278h-780v145h780v-145z" />
    <glyph glyph-name="periodcentered.case" horiz-adv-x="300" 
d="M150 451c55 0 102 -39 102 -100s-47 -100 -102 -100s-102 39 -102 100s47 100 102 100z" />
    <glyph glyph-name="bullet.case" horiz-adv-x="368" 
d="M184 484c74 0 138 -52 138 -134s-64 -134 -138 -134c-75 0 -138 52 -138 134s63 134 138 134z" />
    <glyph glyph-name="guilsinglleft.case" horiz-adv-x="358" 
d="M189 352v-4c40 -34 101 -86 141 -154l-150 -94c-30 60 -88 142 -144 198v104c56 56 114 138 144 198l150 -94c-40 -68 -101 -120 -141 -154z" />
    <glyph glyph-name="guilsinglright.case" horiz-adv-x="358" 
d="M169 348v4c-40 34 -101 86 -141 154l150 94c30 -60 88 -142 144 -198v-104c-56 -56 -114 -138 -144 -198l-150 94c40 68 101 120 141 154z" />
    <glyph glyph-name="guillemotleft.case" horiz-adv-x="592" 
d="M176 352v-4c39 -38 96 -95 134 -160l-142 -88c-28 58 -79 144 -132 198v104c53 54 104 140 132 198l142 -88c-38 -65 -95 -122 -134 -160zM429 352v-4c40 -34 107 -100 139 -160l-143 -88c-28 60 -83 142 -136 206v88c53 64 108 146 136 206l143 -88
c-38 -65 -100 -128 -139 -160z" />
    <glyph glyph-name="guillemotright.case" horiz-adv-x="592" 
d="M416 348v4c-39 38 -96 95 -134 160l142 88c28 -58 79 -144 132 -198v-104c-53 -54 -104 -140 -132 -198l-142 88c38 65 95 122 134 160zM163 348v4c-39 32 -101 95 -139 160l143 88c28 -60 83 -142 136 -206v-88c-53 -64 -108 -146 -136 -206l-143 88
c32 60 99 126 139 160z" />
    <glyph glyph-name="exclamdown.case" horiz-adv-x="324" 
d="M256 70v-70h-188v70c0 152 32 396 32 396h124s32 -244 32 -396zM162 512c-52 0 -98 38 -98 96s46 96 98 96s98 -38 98 -96s-46 -96 -98 -96z" />
    <glyph glyph-name="questiondown.case" horiz-adv-x="508" 
d="M245 129c52 0 99 51 107 127l156 -89c-28 -88 -127 -179 -263 -179c-116 0 -233 59 -233 175c0 152 193 168 193 264c0 20 -5 39 -5 39h124s29 -40 29 -85c0 -132 -166 -139 -166 -207c0 -28 26 -45 58 -45zM261 512c-52 0 -98 38 -98 96s46 96 98 96s98 -38 98 -96
s-46 -96 -98 -96z" />
    <glyph glyph-name="parenleft.case" horiz-adv-x="376" 
d="M68 352c0 194 79 332 163 424l137 -69c-72 -104 -120 -201 -120 -355c0 -150 48 -267 120 -367l-137 -69c-84 89 -163 249 -163 436z" />
    <glyph glyph-name="parenright.case" horiz-adv-x="376" 
d="M308 352c0 -187 -79 -347 -163 -436l-137 69c72 100 120 217 120 367c0 154 -48 251 -120 355l137 69c84 -92 163 -230 163 -424z" />
    <glyph glyph-name="bracketleft.case" horiz-adv-x="394" 
d="M72 -72v836h298v-151h-126v-534h126v-151h-298z" />
    <glyph glyph-name="bracketright.case" horiz-adv-x="394" 
d="M322 764v-836h-298v151h126v534h-126v151h298z" />
    <glyph glyph-name="braceleft.case" horiz-adv-x="430" 
d="M199 352v-4c56 -20 106 -65 106 -162v-39c0 -56 18 -75 62 -75c28 0 51 8 51 8l-26 -151s-31 -8 -78 -8c-92 0 -181 45 -181 185v57c0 78 -36 102 -89 114v146c53 12 89 36 89 114v49c0 140 89 185 181 185c47 0 78 -8 78 -8l26 -151s-23 8 -51 8c-44 0 -62 -19 -62 -75
v-31c0 -97 -50 -142 -106 -162z" />
    <glyph glyph-name="braceright.case" horiz-adv-x="430" 
d="M231 348v4c-56 20 -106 65 -106 162v31c0 56 -18 75 -62 75c-28 0 -51 -8 -51 -8l26 151s31 8 78 8c92 0 181 -45 181 -185v-49c0 -78 36 -102 89 -114v-146c-53 -12 -89 -36 -89 -114v-57c0 -140 -89 -185 -181 -185c-47 0 -78 8 -78 8l-26 151s23 -8 51 -8
c44 0 62 19 62 75v39c0 97 50 142 106 162z" />
    <glyph glyph-name="colon.case" horiz-adv-x="292" 
d="M146 594c55 0 102 -39 102 -100s-47 -100 -102 -100s-102 39 -102 100s47 100 102 100zM146 306c55 0 102 -39 102 -100s-47 -100 -102 -100s-102 39 -102 100s47 100 102 100z" />
    <glyph glyph-name="plus.case" 
d="M220 64v210h-190v152h190v206h160v-206h190v-152h-190v-210h-160z" />
    <glyph glyph-name="minus.case" 
d="M552 273h-504v156h504v-156z" />
    <glyph glyph-name="multiply.case" 
d="M144 88l-114 106l165 155l-163 158l114 106l154 -156l154 156l114 -106l-163 -158l165 -155l-114 -106l-156 157z" />
    <glyph glyph-name="divide.case" 
d="M552 275h-504v152h504v-152zM300 237c52 0 98 -38 98 -96s-46 -96 -98 -96s-98 38 -98 96s46 96 98 96zM300 657c52 0 98 -38 98 -96s-46 -96 -98 -96s-98 38 -98 96s46 96 98 96z" />
    <glyph glyph-name="equal.case" 
d="M552 170h-504v144h504v-144zM552 388h-504v144h504v-144z" />
    <glyph glyph-name="less.case" 
d="M544 473l-301 -120l301 -120l-59 -149l-425 186v164l425 184z" />
    <glyph glyph-name="greater.case" 
d="M357 353l-301 120l59 145l425 -184v-164l-425 -186l-59 149z" />
    <glyph glyph-name="plusminus.case" 
d="M226 254v143h-178v134h178v147h148v-147h178v-134h-178v-143h-148zM552 74h-504v136h504v-136z" />
    <glyph glyph-name="lessequal.case" 
d="M500 237l-424 130v154l424 146l44 -137l-282 -84l282 -72zM552 74h-488v136h488v-136z" />
    <glyph glyph-name="greaterequal.case" 
d="M524 367l-424 -130l-44 137l282 72l-282 84l44 137l424 -146v-154zM536 74h-488v136h488v-136z" />
    <glyph glyph-name="notequal.case" 
d="M560 169h-268l-64 -141l-124 54l39 87h-103v140h167l37 82h-204v140h267l65 142l124 -54l-40 -88h104v-140h-168l-37 -82h205v-140z" />
    <glyph glyph-name="logicalnot.case" 
d="M48 433h504v-297h-160v141h-344v156z" />
    <glyph glyph-name="asciitilde.case" 
d="M404 233c-73 0 -138 69 -186 69c-38 0 -46 -37 -46 -71l-132 77c21 94 63 160 156 160c73 0 138 -69 186 -69c38 0 46 37 46 71l132 -77c-21 -94 -63 -160 -156 -160z" />
    <glyph glyph-name="approxequal.case" 
d="M410 360c-76 0 -142 51 -192 51c-38 0 -46 -29 -46 -55l-132 77c20 74 62 126 150 126c76 0 142 -51 192 -51c38 0 46 29 46 55l132 -77c-20 -74 -62 -126 -150 -126zM410 142c-76 0 -142 51 -192 51c-38 0 -46 -29 -46 -55l-132 77c20 74 62 126 150 126
c76 0 142 -51 192 -51c38 0 46 29 46 55l132 -77c-20 -74 -62 -126 -150 -126z" />
    <glyph glyph-name="infinity.case" horiz-adv-x="861" 
d="M241 564c76 0 139 -42 186 -100h6c48 58 110 100 187 100c122 0 209 -93 209 -213s-86 -213 -209 -213c-77 0 -140 41 -187 100h-6c-47 -59 -110 -100 -186 -100c-123 0 -209 93 -209 213s87 213 209 213zM501 351c20 -29 47 -69 99 -69c39 0 67 30 67 69s-28 69 -67 69
c-52 0 -79 -40 -99 -69zM360 351c-20 29 -47 69 -99 69c-39 0 -67 -30 -67 -69s28 -69 67 -69c52 0 79 40 99 69z" />
    <glyph glyph-name="uni2113" unicode="&#x2113;" horiz-adv-x="520" 
d="M60 110l-68 99l114 89v239c0 136 96 199 204 199c100 0 185 -55 185 -167c0 -111 -73 -186 -154 -265l-59 -58v-69c0 -42 19 -61 47 -61c37 0 49 33 53 57l138 -84c-34 -50 -104 -101 -204 -101c-109 0 -194 48 -208 157zM282 524v-114l6 6c42 41 72 100 72 143
c0 28 -11 47 -37 47c-29 0 -41 -25 -41 -82z" />
    <glyph glyph-name="uni2116" unicode="&#x2116;" horiz-adv-x="1199" 
d="M665 0h-240l-148 322c-21 46 -56 144 -56 144h-4s8 -97 8 -159v-307h-173v692h240l148 -322c21 -46 60 -144 60 -144h4s-11 97 -11 159v307h172v-692zM951 322c-120 0 -219 67 -219 191s99 191 219 191s220 -67 220 -191s-100 -191 -220 -191zM1164 116h-425v145h425
v-145zM888 513c0 -40 23 -71 63 -71s64 31 64 71s-24 71 -64 71s-63 -31 -63 -71z" />
    <glyph glyph-name="estimated" unicode="&#x212e;" horiz-adv-x="844" 
d="M171 332v-197c0 -8 5 -16 11 -23c60 -63 144 -103 241 -103c102 0 191 44 255 117h56c-71 -83 -186 -138 -312 -138c-217 0 -394 160 -394 358c0 195 177 358 394 358c218 0 394 -163 394 -358v-11h-637c-4 0 -8 -1 -8 -3zM179 357h489c2 0 5 2 5 6v195
c0 10 -4 16 -11 25c-61 61 -146 99 -239 99c-95 0 -179 -40 -241 -102c-6 -9 -11 -16 -11 -27v-190c0 -4 4 -6 8 -6z" />
    <glyph glyph-name="uni25A0" unicode="&#x25a0;" horiz-adv-x="796" 
d="M52 0v692h692v-692h-692z" />
    <glyph glyph-name="uni25A1" unicode="&#x25a1;" horiz-adv-x="796" 
d="M52 0v692h692v-692h-692zM236 520v-351h324v351h-324z" />
    <glyph glyph-name="uni25FC" unicode="&#x25fc;" 
d="M48 0v504h504v-504h-504z" />
    <glyph glyph-name="uni25FB" unicode="&#x25fb;" 
d="M48 0v504h504v-504h-504zM210 349v-197h180v197h-180z" />
    <glyph glyph-name="uni25B6" unicode="&#x25b6;" horiz-adv-x="681" 
d="M48 -86v678l5 3l624 -338v-6l-624 -341z" />
    <glyph glyph-name="uni25B7" unicode="&#x25b7;" horiz-adv-x="681" 
d="M48 -86v678l5 3l624 -338v-6l-624 -341zM210 340v-179l4 -2l168 93v4l-168 86z" />
    <glyph glyph-name="uni25C0" unicode="&#x25c0;" horiz-adv-x="681" 
d="M633 592v-678l-5 -4l-624 341v6l624 338z" />
    <glyph glyph-name="uni25C1" unicode="&#x25c1;" horiz-adv-x="681" 
d="M633 592v-678l-5 -4l-624 341v6l624 338zM471 161v179l-4 2l-168 -86v-4l168 -93z" />
    <glyph glyph-name="circle" unicode="&#x25cb;" horiz-adv-x="768" 
d="M24 346c0 208 156 358 360 358s360 -150 360 -358s-156 -358 -360 -358s-360 150 -360 358zM384 159c105 0 178 79 178 187c0 107 -73 187 -178 187s-178 -80 -178 -187c0 -108 73 -187 178 -187z" />
    <glyph glyph-name="H18533" unicode="&#x25cf;" horiz-adv-x="768" 
d="M384 704c204 0 360 -150 360 -358s-156 -358 -360 -358s-360 150 -360 358s156 358 360 358z" />
    <glyph glyph-name="arrowleft" unicode="&#x2190;" horiz-adv-x="666" 
d="M303 -5l-303 356l298 347l116 -104l-155 -162h372v-162h-373l161 -171z" />
    <glyph glyph-name="arrowup" unicode="&#x2191;" horiz-adv-x="666" 
d="M333 679l334 -276l-104 -110l-143 127v-358h-174v358l-143 -127l-104 110z" />
    <glyph glyph-name="arrowright" unicode="&#x2192;" horiz-adv-x="666" 
d="M666 351l-303 -356l-116 104l161 171h-373v162h372l-155 162l116 104z" />
    <glyph glyph-name="arrowdown" unicode="&#x2193;" horiz-adv-x="666" 
d="M667 297l-334 -276l-334 276l104 110l143 -127v358h174v-358l143 127z" />
    <glyph glyph-name="uni2196" unicode="&#x2196;" horiz-adv-x="666" 
d="M505 73l-283 285l10 -257h-152v512h514v-152l-256 11l282 -283z" />
    <glyph glyph-name="uni2197" unicode="&#x2197;" horiz-adv-x="666" 
d="M444 358l-283 -285l-115 116l282 283l-256 -11v152h514v-512h-152z" />
    <glyph glyph-name="uni2198" unicode="&#x2198;" horiz-adv-x="666" 
d="M161 633l283 -285l-10 257h152v-512h-514v152l256 -11l-282 283z" />
    <glyph glyph-name="uni2199" unicode="&#x2199;" horiz-adv-x="666" 
d="M222 348l283 285l115 -116l-282 -283l256 11v-152h-514v512h152z" />
    <glyph glyph-name="uni2605" unicode="&#x2605;" horiz-adv-x="700" 
d="M239 416l107 228h8l106 -228l238 -22l2 -7l-173 -164l45 -242l-6 -3l-216 127l-216 -127l-6 3l44 242l-172 164l2 7z" />
    <glyph glyph-name="a.dnom" horiz-adv-x="353" 
d="M173 230c-18 0 -41 -12 -52 -42l-112 52c35 49 91 78 167 78c80 0 142 -43 142 -123v-105c0 -32 -1 -61 7 -90h-96c-10 11 -16 21 -22 36h-3c-10 -16 -36 -43 -84 -43c-55 0 -102 34 -102 91c0 72 69 91 115 101c40 8 62 13 62 30c0 9 -10 15 -22 15zM197 114v24
c-7 -8 -18 -14 -33 -19c-14 -5 -21 -10 -21 -23c0 -11 8 -18 24 -18c17 0 30 10 30 36z" />
    <glyph glyph-name="b.dnom" horiz-adv-x="379" 
d="M157 50v-50h-126v447h133v-108c0 -40 -6 -76 -6 -76h3c13 21 30 39 51 48c11 5 23 7 36 7c62 0 115 -60 115 -163c0 -102 -53 -162 -115 -162c-13 0 -25 2 -36 7c-22 9 -39 27 -52 50h-3zM161 155c0 -46 15 -68 34 -68s34 22 34 68c0 47 -15 69 -34 69s-34 -22 -34 -69z
" />
    <glyph glyph-name="c.dnom" horiz-adv-x="338" 
d="M182 230c-23 0 -31 -28 -31 -75c0 -46 8 -74 31 -74c22 0 31 24 31 62l119 -51c-18 -59 -76 -99 -150 -99c-87 0 -166 54 -166 162c0 109 79 163 166 163c74 0 132 -40 150 -99l-119 -51c0 38 -8 62 -31 62z" />
    <glyph glyph-name="d.dnom" horiz-adv-x="378" 
d="M221 48h-3c-19 -33 -46 -55 -87 -55c-61 0 -115 60 -115 162c0 103 54 163 115 163c41 0 65 -23 82 -45h3v174h132v-447h-132zM184 87c20 0 34 22 34 68c0 47 -14 69 -34 69c-19 0 -33 -22 -33 -69c0 -46 14 -68 33 -68z" />
    <glyph glyph-name="e.dnom" horiz-adv-x="351" 
d="M330 121h-190c3 -42 29 -45 44 -45c20 0 36 11 39 33l107 -53c-28 -36 -78 -63 -146 -63c-90 0 -168 55 -168 162c0 109 77 163 165 163c89 0 155 -59 155 -146c0 -32 -6 -51 -6 -51zM181 236c-11 0 -34 -6 -40 -41h75c0 29 -20 41 -35 41z" />
    <glyph glyph-name="f.dnom" horiz-adv-x="255" 
d="M206 369c-15 0 -23 -11 -23 -28v-30h60v-88h-60v-223h-131v223h-42v88h42v28c0 78 63 115 146 115c65 0 114 -25 141 -53l-109 -63c-1 15 -8 31 -24 31z" />
    <glyph glyph-name="g.dnom" horiz-adv-x="356" 
d="M17 215c0 56 54 103 145 103c28 0 42 -1 58 -1c25 0 38 18 38 49c0 12 -3 27 -4 32l109 -59c-2 -45 -23 -67 -66 -67c-6 0 -16 1 -19 2v-3c23 -15 47 -39 47 -75c0 -63 -66 -99 -157 -99c-31 0 -48 -5 -48 -17c0 -11 9 -14 29 -14c24 0 57 4 91 4c83 0 127 -27 127 -91
c0 -71 -89 -103 -197 -103c-99 0 -182 24 -182 75c0 34 35 50 67 54v2c-25 8 -49 25 -49 51c0 37 43 59 84 63v3c-35 11 -73 37 -73 91zM99 -36c0 -14 20 -19 69 -19c60 0 70 5 70 18c0 11 -26 16 -62 16c-24 0 -77 1 -77 -15zM134 207c0 -20 16 -35 39 -35
c22 0 38 15 38 35c0 21 -16 36 -38 36c-23 0 -39 -15 -39 -36z" />
    <glyph glyph-name="h.dnom" horiz-adv-x="376" 
d="M346 204v-204h-133v179c0 21 -2 40 -23 40c-18 0 -26 -13 -26 -42v-177h-133v447h133v-108c0 -40 -6 -76 -6 -76h3c20 30 44 55 94 55c57 0 91 -42 91 -114z" />
    <glyph glyph-name="i.dnom" horiz-adv-x="196" 
d="M98 456c38 0 70 -26 70 -61c0 -36 -32 -61 -70 -61s-70 25 -70 61c0 35 32 61 70 61zM31 0v311h134v-311h-134z" />
    <glyph glyph-name="j.dnom" horiz-adv-x="201" 
d="M103 456c39 0 70 -26 70 -61c0 -36 -31 -61 -70 -61c-38 0 -70 25 -70 61c0 35 32 61 70 61zM67 -128l-110 80c54 12 79 28 79 85v274h135v-273c0 -80 -25 -142 -104 -166z" />
    <glyph glyph-name="k.dnom" horiz-adv-x="383" 
d="M383 311l-108 -122l110 -189h-141l-54 96l-26 -32v-64h-133v447h133v-186c0 -40 -6 -76 -6 -76h3s17 34 30 57l39 69h153z" />
    <glyph glyph-name="l.dnom" horiz-adv-x="196" 
d="M31 0v447h134v-447h-134z" />
    <glyph glyph-name="m.dnom" horiz-adv-x="544" 
d="M207 0v190c0 16 -7 29 -24 29c-15 0 -23 -11 -23 -36v-183h-129v311h129l-5 -48h3c19 27 44 55 93 55c37 0 62 -17 74 -53h3c26 33 54 53 97 53c58 0 90 -39 90 -110v-208h-130v190c0 16 -7 29 -24 29c-15 0 -23 -11 -23 -36v-183h-131z" />
    <glyph glyph-name="n.dnom" horiz-adv-x="376" 
d="M346 204v-204h-133v179c0 21 -2 40 -23 40c-18 0 -26 -13 -26 -42v-177h-133v311h133l-6 -48h3c20 30 44 55 94 55c57 0 91 -42 91 -114z" />
    <glyph glyph-name="o.dnom" horiz-adv-x="369" 
d="M184 -7c-87 0 -168 54 -168 162c0 109 81 163 168 163s169 -54 169 -163c0 -108 -82 -162 -169 -162zM151 155c0 -46 8 -74 33 -74c26 0 34 28 34 74c0 47 -8 75 -34 75c-25 0 -33 -28 -33 -75z" />
    <glyph glyph-name="p.dnom" horiz-adv-x="379" 
d="M160 263c21 31 47 55 88 55c62 0 115 -60 115 -163c0 -102 -53 -162 -115 -162c-41 0 -65 22 -84 48v-162h-133v432h133zM161 155c0 -46 15 -68 34 -68s34 22 34 68c0 47 -15 69 -34 69s-34 -22 -34 -69z" />
    <glyph glyph-name="q.dnom" horiz-adv-x="379" 
d="M222 261v50h127v-432h-133v93c0 40 5 76 5 76h-3c-19 -33 -46 -55 -87 -55c-61 0 -115 60 -115 162c0 103 54 163 115 163c41 0 68 -23 88 -57h3zM218 155c0 47 -14 69 -34 69c-19 0 -33 -22 -33 -69c0 -46 14 -68 33 -68c20 0 34 22 34 68z" />
    <glyph glyph-name="r.dnom" horiz-adv-x="320" 
d="M31 0v311h133l-6 -48h3c20 25 40 56 85 56c47 0 67 -40 67 -86c0 -23 -3 -40 -3 -40l-117 -61c3 19 5 34 5 57c0 14 -1 30 -18 30c-11 0 -16 -9 -16 -34v-185h-133z" />
    <glyph glyph-name="s.dnom" horiz-adv-x="336" 
d="M176 77c15 0 20 6 20 13c0 14 -29 18 -66 27c-49 12 -108 39 -108 98c0 63 64 103 147 103c68 0 129 -35 159 -61l-109 -54c-8 17 -26 31 -45 31c-15 0 -21 -6 -21 -12c0 -13 30 -13 80 -28c47 -14 93 -39 93 -94c0 -68 -67 -107 -146 -107c-72 0 -128 18 -177 63l111 55
c20 -25 39 -34 62 -34z" />
    <glyph glyph-name="t.dnom" horiz-adv-x="254" 
d="M211 98l41 -82c-10 -5 -47 -23 -89 -23c-74 0 -114 37 -114 107v123h-45v88h45v54l132 64v-118h62v-88h-62v-111c0 -18 6 -24 16 -24c9 0 12 6 14 10z" />
    <glyph glyph-name="u.dnom" horiz-adv-x="374" 
d="M30 107v204h133v-179c0 -21 2 -40 22 -40c17 0 24 11 26 34v185h133v-311h-133l5 48h-3c-19 -30 -43 -55 -93 -55c-57 0 -90 42 -90 114z" />
    <glyph glyph-name="v.dnom" horiz-adv-x="345" 
d="M87 0l-88 311h138l21 -114c7 -36 14 -94 14 -94h3s8 58 14 94l21 114h136l-89 -311h-170z" />
    <glyph glyph-name="w.dnom" horiz-adv-x="514" 
d="M257 208c0 0 -3 -39 -7 -70l-19 -138h-165l-56 311h133l9 -98c3 -39 9 -108 9 -108h3s5 69 9 108l11 98h151l11 -98c4 -39 10 -108 10 -108c4 0 8 57 12 108l8 98h128l-56 -311h-161l-20 138c-5 32 -7 70 -7 70h-3z" />
    <glyph glyph-name="x.dnom" horiz-adv-x="353" 
d="M346 311l-66 -153l73 -158h-144l-15 49c-11 35 -18 64 -18 64h-2s-7 -29 -18 -64l-15 -49h-141l72 158l-65 153h141l15 -56c10 -35 13 -55 13 -55h3s2 21 12 55l16 56h139z" />
    <glyph glyph-name="y.dnom" horiz-adv-x="350" 
d="M176 128h2s9 43 17 89l17 94h139l-106 -322c-20 -61 -51 -102 -108 -117l-107 75c32 7 72 19 84 53l-115 311h141l26 -130c5 -28 10 -53 10 -53z" />
    <glyph glyph-name="z.dnom" horiz-adv-x="330" 
d="M26 223v88h278v-65l-117 -158h126v-88h-290v65l117 158h-114z" />
    <glyph glyph-name="zero.dnom" horiz-adv-x="422" 
d="M158 215c0 -57 12 -118 53 -118s53 61 53 118s-12 115 -53 115s-53 -58 -53 -115zM18 215c0 143 82 219 193 219s193 -76 193 -219c0 -144 -82 -222 -193 -222s-193 78 -193 222z" />
    <glyph glyph-name="one.dnom" horiz-adv-x="274" 
d="M110 287h-3c-16 -16 -37 -29 -61 -35l-51 108c51 8 103 27 140 67h103v-427h-132v223c0 25 4 64 4 64z" />
    <glyph glyph-name="two.dnom" horiz-adv-x="367" 
d="M145 218l-133 50s-3 13 -3 27c0 88 86 139 175 139c94 0 171 -49 171 -137c0 -119 -158 -172 -155 -188v-1h149v-108h-323s-2 13 -2 26c0 144 196 190 196 265c0 23 -14 38 -36 38c-29 0 -45 -26 -45 -66c0 -22 5 -35 6 -45z" />
    <glyph glyph-name="three.dnom" horiz-adv-x="365" 
d="M183 -7c-86 0 -153 38 -179 95l125 60c6 -35 24 -50 51 -50c28 0 40 19 40 44s-18 43 -46 43c-27 0 -44 -10 -65 -21l-45 101l85 58h-125v104h316v-86l-74 -46c-24 -17 -69 -33 -69 -33l1 -3s8 1 16 1c75 0 138 -43 138 -126c0 -80 -73 -141 -169 -141z" />
    <glyph glyph-name="four.dnom" horiz-adv-x="388" 
d="M209 95h-165l-29 71c33 63 53 139 52 268l126 -56c2 -84 -20 -130 -48 -182h64v231h132v-231h38v-101h-38v-95h-132v95z" />
    <glyph glyph-name="five.dnom" horiz-adv-x="371" 
d="M186 -7c-86 0 -151 38 -177 95l126 60c5 -32 21 -50 48 -50c26 0 42 22 42 52c0 31 -15 54 -43 54c-27 0 -40 -20 -44 -39l-115 45l28 217h276v-104h-169l-2 -17c-3 -23 -9 -46 -9 -46l1 -1c14 15 40 30 78 30c69 0 130 -50 130 -139c0 -93 -72 -157 -170 -157z" />
    <glyph glyph-name="six.dnom" horiz-adv-x="383" 
d="M217 434c63 0 118 -29 156 -76l-116 -62c-3 21 -17 38 -40 38c-34 0 -61 -29 -71 -87h2c21 26 56 40 84 40c65 0 139 -44 139 -137c0 -98 -79 -157 -174 -157c-107 0 -179 71 -179 204c0 149 79 237 199 237zM246 144c0 32 -16 57 -49 57c-32 0 -50 -25 -50 -57
s18 -56 50 -56s49 24 49 56z" />
    <glyph glyph-name="seven.dnom" horiz-adv-x="356" 
d="M351 427v-71c-64 -135 -87 -245 -102 -356h-150c13 109 72 243 109 319h-74v-96l-126 56v148h343z" />
    <glyph glyph-name="eight.dnom" horiz-adv-x="392" 
d="M196 -7c-103 0 -184 48 -184 127c0 69 62 97 92 107v2c-31 10 -75 35 -75 91c0 72 76 114 167 114c94 0 168 -42 168 -114c0 -56 -45 -81 -75 -91v-2c29 -10 91 -38 91 -107c0 -79 -80 -127 -184 -127zM141 129c0 -28 24 -41 55 -41s56 13 56 41c0 29 -25 42 -56 42
s-55 -13 -55 -42zM146 303c0 -25 23 -37 50 -37s50 12 50 37s-23 36 -50 36s-50 -11 -50 -36z" />
    <glyph glyph-name="nine.dnom" horiz-adv-x="386" 
d="M186 -7c-72 0 -125 26 -161 80l117 61c2 -21 18 -41 48 -41c36 0 48 26 52 84l-3 2c-21 -25 -57 -34 -85 -34c-65 0 -141 43 -141 140c0 94 81 149 175 149c107 0 180 -67 180 -196c0 -157 -54 -245 -182 -245zM137 285c0 -32 19 -55 51 -55s51 23 51 55s-19 54 -51 54
s-51 -22 -51 -54z" />
    <glyph glyph-name="dollar.dnom" horiz-adv-x="409" 
d="M161 -57v60c-64 11 -116 48 -139 96l112 63c4 -31 15 -54 35 -66v68c-77 20 -143 60 -143 133c0 67 64 117 135 127v58h103v-60c53 -10 98 -38 131 -87l-108 -62c-1 28 -14 48 -31 59v-67c71 -20 143 -52 143 -130c0 -66 -57 -120 -135 -132v-60h-103zM281 123
c0 15 -10 25 -25 31v-64c18 6 25 20 25 33zM144 308c0 -14 9 -22 25 -29v58c-16 -4 -25 -16 -25 -29z" />
    <glyph glyph-name="cent.dnom" horiz-adv-x="389" 
d="M155 -57v63c-77 15 -135 65 -135 152c0 86 58 136 135 150v63h104v-63c55 -12 98 -42 119 -86l-107 -46c0 16 -8 31 -21 40v-117c13 10 21 24 21 41l107 -46c-21 -45 -64 -76 -119 -87v-64h-104zM140 158c0 -29 6 -49 23 -60v119c-17 -11 -23 -30 -23 -59z" />
    <glyph glyph-name="Euro.dnom" horiz-adv-x="427" 
d="M248 121h-46c10 -22 26 -34 54 -34c39 0 55 35 51 87l120 -71c-27 -68 -87 -110 -171 -110c-81 0 -154 42 -183 128h-56v73h42v29h-42v73h53c28 93 104 138 186 138c77 0 144 -40 171 -108l-120 -71c4 53 -15 85 -51 85c-28 0 -46 -18 -56 -44h89l-19 -73h-81v-29h78z
" />
    <glyph glyph-name="yen.dnom" horiz-adv-x="426" 
d="M378 78h-99v-78h-132v78h-99v73h99v2l-16 33h-83v73h45l-86 168h147l38 -103c14 -32 19 -63 20 -62c6 0 4 19 24 62l39 103h144l-87 -168h46v-73h-84l-15 -30v-5h99v-73z" />
    <glyph glyph-name="sterling.dnom" horiz-adv-x="400" 
d="M300 161h-82l-1 -4c-6 -27 -19 -42 -31 -53h192v-104h-334v84c32 13 40 41 41 76v1h-59v87h51c-4 19 -7 35 -7 55c0 99 93 131 166 131s134 -35 167 -91l-117 -70c-3 37 -14 64 -46 64c-20 0 -36 -14 -36 -42c0 -17 3 -32 7 -47h112z" />
    <glyph glyph-name="plus.dnom" horiz-adv-x="395" 
d="M139 24v127h-119v103h119v124h117v-124h119v-103h-119v-127h-117z" />
    <glyph glyph-name="minus.dnom" horiz-adv-x="395" 
d="M362 150h-329v105h329v-105z" />
    <glyph glyph-name="multiply.dnom" horiz-adv-x="395" 
d="M102 35l-84 71l102 92l-101 95l84 71l94 -92l95 92l84 -71l-102 -95l103 -92l-84 -71l-96 93z" />
    <glyph glyph-name="divide.dnom" horiz-adv-x="395" 
d="M362 151h-329v103h329v-103zM198 134c36 0 69 -25 69 -63s-33 -63 -69 -63c-37 0 -70 25 -70 63s33 63 70 63zM198 396c36 0 69 -24 69 -62c0 -39 -33 -63 -69 -63c-37 0 -70 24 -70 63c0 38 33 62 70 62z" />
    <glyph glyph-name="equal.dnom" horiz-adv-x="395" 
d="M363 81h-331v97h331v-97zM363 220h-331v96h331v-96z" />
    <glyph glyph-name="period.dnom" horiz-adv-x="200" 
d="M100 124c38 0 72 -26 72 -66s-34 -65 -72 -65s-72 25 -72 65s34 66 72 66z" />
    <glyph glyph-name="comma.dnom" horiz-adv-x="200" 
d="M93 124c48 0 80 -33 80 -90c0 -58 -34 -113 -83 -139l-63 38c23 10 71 30 79 74c-5 -1 -10 -1 -15 -1c-36 0 -64 26 -64 59c0 34 29 59 66 59z" />
    <glyph glyph-name="hyphen.dnom" horiz-adv-x="244" 
d="M214 129h-183v98h183v-98z" />
    <glyph glyph-name="parenleft.dnom" horiz-adv-x="260" 
d="M46 186c0 127 53 240 108 294l101 -46c-45 -63 -76 -145 -76 -248s31 -188 76 -252l-101 -46c-55 54 -108 171 -108 298z" />
    <glyph glyph-name="parenright.dnom" horiz-adv-x="260" 
d="M214 186c0 -127 -54 -244 -108 -298l-101 46c45 64 76 149 76 252s-31 185 -76 248l101 46c54 -54 108 -167 108 -294z" />
    <glyph glyph-name="a.numr" horiz-adv-x="353" 
d="M173 507c-18 0 -41 -12 -52 -42l-112 52c35 49 91 78 167 78c80 0 142 -43 142 -123v-105c0 -32 -1 -61 7 -90h-96c-10 11 -16 21 -22 36h-3c-10 -16 -36 -43 -84 -43c-55 0 -102 34 -102 91c0 72 69 91 115 101c40 8 62 13 62 30c0 9 -10 15 -22 15zM197 391v24
c-7 -8 -18 -14 -33 -19c-14 -5 -21 -10 -21 -23c0 -11 8 -18 24 -18c17 0 30 10 30 36z" />
    <glyph glyph-name="b.numr" horiz-adv-x="379" 
d="M157 327v-50h-126v447h133v-108c0 -40 -6 -76 -6 -76h3c13 21 30 39 51 48c11 5 23 7 36 7c62 0 115 -60 115 -163c0 -102 -53 -162 -115 -162c-13 0 -25 2 -36 7c-22 9 -39 27 -52 50h-3zM161 432c0 -46 15 -68 34 -68s34 22 34 68c0 47 -15 69 -34 69s-34 -22 -34 -69z
" />
    <glyph glyph-name="c.numr" horiz-adv-x="338" 
d="M182 507c-23 0 -31 -28 -31 -75c0 -46 8 -74 31 -74c22 0 31 24 31 62l119 -51c-18 -59 -76 -99 -150 -99c-87 0 -166 54 -166 162c0 109 79 163 166 163c74 0 132 -40 150 -99l-119 -51c0 38 -8 62 -31 62z" />
    <glyph glyph-name="d.numr" horiz-adv-x="378" 
d="M221 325h-3c-19 -33 -46 -55 -87 -55c-61 0 -115 60 -115 162c0 103 54 163 115 163c41 0 65 -23 82 -45h3v174h132v-447h-132zM184 364c20 0 34 22 34 68c0 47 -14 69 -34 69c-19 0 -33 -22 -33 -69c0 -46 14 -68 33 -68z" />
    <glyph glyph-name="e.numr" horiz-adv-x="351" 
d="M330 398h-190c3 -42 29 -45 44 -45c20 0 36 11 39 33l107 -53c-28 -36 -78 -63 -146 -63c-90 0 -168 55 -168 162c0 109 77 163 165 163c89 0 155 -59 155 -146c0 -32 -6 -51 -6 -51zM181 513c-11 0 -34 -6 -40 -41h75c0 29 -20 41 -35 41z" />
    <glyph glyph-name="f.numr" horiz-adv-x="255" 
d="M206 646c-15 0 -23 -11 -23 -28v-30h60v-88h-60v-223h-131v223h-42v88h42v28c0 78 63 115 146 115c65 0 114 -25 141 -53l-109 -63c-1 15 -8 31 -24 31z" />
    <glyph glyph-name="g.numr" horiz-adv-x="356" 
d="M17 492c0 56 54 103 145 103c28 0 42 -1 58 -1c25 0 38 18 38 49c0 12 -3 27 -4 32l109 -59c-2 -45 -23 -67 -66 -67c-6 0 -16 1 -19 2v-3c23 -15 47 -39 47 -75c0 -63 -66 -99 -157 -99c-31 0 -48 -5 -48 -17c0 -11 9 -14 29 -14c24 0 57 4 91 4c83 0 127 -27 127 -91
c0 -71 -89 -103 -197 -103c-99 0 -182 24 -182 75c0 34 35 50 67 54v2c-25 8 -49 25 -49 51c0 37 43 59 84 63v3c-35 11 -73 37 -73 91zM99 241c0 -14 20 -19 69 -19c60 0 70 5 70 18c0 11 -26 16 -62 16c-24 0 -77 1 -77 -15zM134 484c0 -20 16 -35 39 -35
c22 0 38 15 38 35c0 21 -16 36 -38 36c-23 0 -39 -15 -39 -36z" />
    <glyph glyph-name="h.numr" horiz-adv-x="376" 
d="M346 481v-204h-133v179c0 21 -2 40 -23 40c-18 0 -26 -13 -26 -42v-177h-133v447h133v-108c0 -40 -6 -76 -6 -76h3c20 30 44 55 94 55c57 0 91 -42 91 -114z" />
    <glyph glyph-name="i.numr" horiz-adv-x="196" 
d="M98 733c38 0 70 -26 70 -61c0 -36 -32 -61 -70 -61s-70 25 -70 61c0 35 32 61 70 61zM31 277v311h134v-311h-134z" />
    <glyph glyph-name="j.numr" horiz-adv-x="201" 
d="M103 733c39 0 70 -26 70 -61c0 -36 -31 -61 -70 -61c-38 0 -70 25 -70 61c0 35 32 61 70 61zM67 149l-110 80c54 12 79 28 79 85v274h135v-273c0 -80 -25 -142 -104 -166z" />
    <glyph glyph-name="k.numr" horiz-adv-x="383" 
d="M383 588l-108 -122l110 -189h-141l-54 96l-26 -32v-64h-133v447h133v-186c0 -40 -6 -76 -6 -76h3s17 34 30 57l39 69h153z" />
    <glyph glyph-name="l.numr" horiz-adv-x="196" 
d="M31 277v447h134v-447h-134z" />
    <glyph glyph-name="m.numr" horiz-adv-x="544" 
d="M207 277v190c0 16 -7 29 -24 29c-15 0 -23 -11 -23 -36v-183h-129v311h129l-5 -48h3c19 27 44 55 93 55c37 0 62 -17 74 -53h3c26 33 54 53 97 53c58 0 90 -39 90 -110v-208h-130v190c0 16 -7 29 -24 29c-15 0 -23 -11 -23 -36v-183h-131z" />
    <glyph glyph-name="n.numr" horiz-adv-x="376" 
d="M346 481v-204h-133v179c0 21 -2 40 -23 40c-18 0 -26 -13 -26 -42v-177h-133v311h133l-6 -48h3c20 30 44 55 94 55c57 0 91 -42 91 -114z" />
    <glyph glyph-name="o.numr" horiz-adv-x="369" 
d="M184 270c-87 0 -168 54 -168 162c0 109 81 163 168 163s169 -54 169 -163c0 -108 -82 -162 -169 -162zM151 432c0 -46 8 -74 33 -74c26 0 34 28 34 74c0 47 -8 75 -34 75c-25 0 -33 -28 -33 -75z" />
    <glyph glyph-name="p.numr" horiz-adv-x="379" 
d="M160 540c21 31 47 55 88 55c62 0 115 -60 115 -163c0 -102 -53 -162 -115 -162c-41 0 -65 22 -84 48v-162h-133v432h133zM161 432c0 -46 15 -68 34 -68s34 22 34 68c0 47 -15 69 -34 69s-34 -22 -34 -69z" />
    <glyph glyph-name="q.numr" horiz-adv-x="379" 
d="M222 538v50h127v-432h-133v93c0 40 5 76 5 76h-3c-19 -33 -46 -55 -87 -55c-61 0 -115 60 -115 162c0 103 54 163 115 163c41 0 68 -23 88 -57h3zM218 432c0 47 -14 69 -34 69c-19 0 -33 -22 -33 -69c0 -46 14 -68 33 -68c20 0 34 22 34 68z" />
    <glyph glyph-name="r.numr" horiz-adv-x="320" 
d="M31 277v311h133l-6 -48h3c20 25 40 56 85 56c47 0 67 -40 67 -86c0 -23 -3 -40 -3 -40l-117 -61c3 19 5 34 5 57c0 14 -1 30 -18 30c-11 0 -16 -9 -16 -34v-185h-133z" />
    <glyph glyph-name="s.numr" horiz-adv-x="336" 
d="M176 354c15 0 20 6 20 13c0 14 -29 18 -66 27c-49 12 -108 39 -108 98c0 63 64 103 147 103c68 0 129 -35 159 -61l-109 -54c-8 17 -26 31 -45 31c-15 0 -21 -6 -21 -12c0 -13 30 -13 80 -28c47 -14 93 -39 93 -94c0 -68 -67 -107 -146 -107c-72 0 -128 18 -177 63
l111 55c20 -25 39 -34 62 -34z" />
    <glyph glyph-name="t.numr" horiz-adv-x="254" 
d="M211 375l41 -82c-10 -5 -47 -23 -89 -23c-74 0 -114 37 -114 107v123h-45v88h45v54l132 64v-118h62v-88h-62v-111c0 -18 6 -24 16 -24c9 0 12 6 14 10z" />
    <glyph glyph-name="u.numr" horiz-adv-x="374" 
d="M30 384v204h133v-179c0 -21 2 -40 22 -40c17 0 24 11 26 34v185h133v-311h-133l5 48h-3c-19 -30 -43 -55 -93 -55c-57 0 -90 42 -90 114z" />
    <glyph glyph-name="v.numr" horiz-adv-x="345" 
d="M87 277l-88 311h138l21 -114c7 -36 14 -94 14 -94h3s8 58 14 94l21 114h136l-89 -311h-170z" />
    <glyph glyph-name="w.numr" horiz-adv-x="514" 
d="M257 485c0 0 -3 -39 -7 -70l-19 -138h-165l-56 311h133l9 -98c3 -39 9 -108 9 -108h3s5 69 9 108l11 98h151l11 -98c4 -39 10 -108 10 -108c4 0 8 57 12 108l8 98h128l-56 -311h-161l-20 138c-5 32 -7 70 -7 70h-3z" />
    <glyph glyph-name="x.numr" horiz-adv-x="353" 
d="M346 588l-66 -153l73 -158h-144l-15 49c-11 35 -18 64 -18 64h-2s-7 -29 -18 -64l-15 -49h-141l72 158l-65 153h141l15 -56c10 -35 13 -55 13 -55h3s2 21 12 55l16 56h139z" />
    <glyph glyph-name="y.numr" horiz-adv-x="350" 
d="M176 405h2s9 43 17 89l17 94h139l-106 -322c-20 -61 -51 -102 -108 -117l-107 75c32 7 72 19 84 53l-115 311h141l26 -130c5 -28 10 -53 10 -53z" />
    <glyph glyph-name="z.numr" horiz-adv-x="330" 
d="M26 500v88h278v-65l-117 -158h126v-88h-290v65l117 158h-114z" />
    <glyph glyph-name="zero.numr" horiz-adv-x="422" 
d="M158 492c0 -57 12 -118 53 -118s53 61 53 118s-12 115 -53 115s-53 -58 -53 -115zM18 492c0 143 82 219 193 219s193 -76 193 -219c0 -144 -82 -222 -193 -222s-193 78 -193 222z" />
    <glyph glyph-name="one.numr" horiz-adv-x="274" 
d="M110 564h-3c-16 -16 -37 -29 -61 -35l-51 108c51 8 103 27 140 67h103v-427h-132v223c0 25 4 64 4 64z" />
    <glyph glyph-name="two.numr" horiz-adv-x="367" 
d="M145 495l-133 50s-3 13 -3 27c0 88 86 139 175 139c94 0 171 -49 171 -137c0 -119 -158 -172 -155 -188v-1h149v-108h-323s-2 13 -2 26c0 144 196 190 196 265c0 23 -14 38 -36 38c-29 0 -45 -26 -45 -66c0 -22 5 -35 6 -45z" />
    <glyph glyph-name="three.numr" horiz-adv-x="365" 
d="M183 270c-86 0 -153 38 -179 95l125 60c6 -35 24 -50 51 -50c28 0 40 19 40 44s-18 43 -46 43c-27 0 -44 -10 -65 -21l-45 101l85 58h-125v104h316v-86l-74 -46c-24 -17 -69 -33 -69 -33l1 -3s8 1 16 1c75 0 138 -43 138 -126c0 -80 -73 -141 -169 -141z" />
    <glyph glyph-name="four.numr" horiz-adv-x="388" 
d="M209 372h-165l-29 71c33 63 53 139 52 268l126 -56c2 -84 -20 -130 -48 -182h64v231h132v-231h38v-101h-38v-95h-132v95z" />
    <glyph glyph-name="five.numr" horiz-adv-x="371" 
d="M186 270c-86 0 -151 38 -177 95l126 60c5 -32 21 -50 48 -50c26 0 42 22 42 52c0 31 -15 54 -43 54c-27 0 -40 -20 -44 -39l-115 45l28 217h276v-104h-169l-2 -17c-3 -23 -9 -46 -9 -46l1 -1c14 15 40 30 78 30c69 0 130 -50 130 -139c0 -93 -72 -157 -170 -157z" />
    <glyph glyph-name="six.numr" horiz-adv-x="383" 
d="M217 711c63 0 118 -29 156 -76l-116 -62c-3 21 -17 38 -40 38c-34 0 -61 -29 -71 -87h2c21 26 56 40 84 40c65 0 139 -44 139 -137c0 -98 -79 -157 -174 -157c-107 0 -179 71 -179 204c0 149 79 237 199 237zM246 421c0 32 -16 57 -49 57c-32 0 -50 -25 -50 -57
s18 -56 50 -56s49 24 49 56z" />
    <glyph glyph-name="seven.numr" horiz-adv-x="356" 
d="M351 704v-71c-64 -135 -87 -245 -102 -356h-150c13 109 72 243 109 319h-74v-96l-126 56v148h343z" />
    <glyph glyph-name="eight.numr" horiz-adv-x="392" 
d="M196 270c-103 0 -184 48 -184 127c0 69 62 97 92 107v2c-31 10 -75 35 -75 91c0 72 76 114 167 114c94 0 168 -42 168 -114c0 -56 -45 -81 -75 -91v-2c29 -10 91 -38 91 -107c0 -79 -80 -127 -184 -127zM141 406c0 -28 24 -41 55 -41s56 13 56 41c0 29 -25 42 -56 42
s-55 -13 -55 -42zM146 580c0 -25 23 -37 50 -37s50 12 50 37s-23 36 -50 36s-50 -11 -50 -36z" />
    <glyph glyph-name="nine.numr" horiz-adv-x="386" 
d="M186 270c-72 0 -125 26 -161 80l117 61c2 -21 18 -41 48 -41c36 0 48 26 52 84l-3 2c-21 -25 -57 -34 -85 -34c-65 0 -141 43 -141 140c0 94 81 149 175 149c107 0 180 -67 180 -196c0 -157 -54 -245 -182 -245zM137 562c0 -32 19 -55 51 -55s51 23 51 55s-19 54 -51 54
s-51 -22 -51 -54z" />
    <glyph glyph-name="dollar.numr" horiz-adv-x="409" 
d="M161 220v60c-64 11 -116 48 -139 96l112 63c4 -31 15 -54 35 -66v68c-77 20 -143 60 -143 133c0 67 64 117 135 127v58h103v-60c53 -10 98 -38 131 -87l-108 -62c-1 28 -14 48 -31 59v-67c71 -20 143 -52 143 -130c0 -66 -57 -120 -135 -132v-60h-103zM281 400
c0 15 -10 25 -25 31v-64c18 6 25 20 25 33zM144 585c0 -14 9 -22 25 -29v58c-16 -4 -25 -16 -25 -29z" />
    <glyph glyph-name="cent.numr" horiz-adv-x="389" 
d="M155 220v63c-77 15 -135 65 -135 152c0 86 58 136 135 150v63h104v-63c55 -12 98 -42 119 -86l-107 -46c0 16 -8 31 -21 40v-117c13 10 21 24 21 41l107 -46c-21 -45 -64 -76 -119 -87v-64h-104zM140 435c0 -29 6 -49 23 -60v119c-17 -11 -23 -30 -23 -59z" />
    <glyph glyph-name="Euro.numr" horiz-adv-x="427" 
d="M248 398h-46c10 -22 26 -34 54 -34c39 0 55 35 51 87l120 -71c-27 -68 -87 -110 -171 -110c-81 0 -154 42 -183 128h-56v73h42v29h-42v73h53c28 93 104 138 186 138c77 0 144 -40 171 -108l-120 -71c4 53 -15 85 -51 85c-28 0 -46 -18 -56 -44h89l-19 -73h-81v-29h78z
" />
    <glyph glyph-name="yen.numr" horiz-adv-x="426" 
d="M378 355h-99v-78h-132v78h-99v73h99v2l-16 33h-83v73h45l-86 168h147l38 -103c14 -32 19 -63 20 -62c6 0 4 19 24 62l39 103h144l-87 -168h46v-73h-84l-15 -30v-5h99v-73z" />
    <glyph glyph-name="sterling.numr" horiz-adv-x="400" 
d="M300 438h-82l-1 -4c-6 -27 -19 -42 -31 -53h192v-104h-334v84c32 13 40 41 41 76v1h-59v87h51c-4 19 -7 35 -7 55c0 99 93 131 166 131s134 -35 167 -91l-117 -70c-3 37 -14 64 -46 64c-20 0 -36 -14 -36 -42c0 -17 3 -32 7 -47h112z" />
    <glyph glyph-name="plus.numr" horiz-adv-x="395" 
d="M139 301v127h-119v103h119v124h117v-124h119v-103h-119v-127h-117z" />
    <glyph glyph-name="minus.numr" horiz-adv-x="395" 
d="M362 427h-329v105h329v-105z" />
    <glyph glyph-name="multiply.numr" horiz-adv-x="395" 
d="M102 312l-84 71l102 92l-101 95l84 71l94 -92l95 92l84 -71l-102 -95l103 -92l-84 -71l-96 93z" />
    <glyph glyph-name="divide.numr" horiz-adv-x="395" 
d="M362 428h-329v103h329v-103zM198 411c36 0 69 -25 69 -63s-33 -63 -69 -63c-37 0 -70 25 -70 63s33 63 70 63zM198 673c36 0 69 -24 69 -62c0 -39 -33 -63 -69 -63c-37 0 -70 24 -70 63c0 38 33 62 70 62z" />
    <glyph glyph-name="equal.numr" horiz-adv-x="395" 
d="M363 358h-331v97h331v-97zM363 497h-331v96h331v-96z" />
    <glyph glyph-name="period.numr" horiz-adv-x="200" 
d="M100 401c38 0 72 -26 72 -66s-34 -65 -72 -65s-72 25 -72 65s34 66 72 66z" />
    <glyph glyph-name="comma.numr" horiz-adv-x="200" 
d="M93 401c48 0 80 -33 80 -90c0 -58 -34 -113 -83 -139l-63 38c23 10 71 30 79 74c-5 -1 -10 -1 -15 -1c-36 0 -64 26 -64 59c0 34 29 59 66 59z" />
    <glyph glyph-name="hyphen.numr" horiz-adv-x="244" 
d="M214 406h-183v98h183v-98z" />
    <glyph glyph-name="parenleft.numr" horiz-adv-x="260" 
d="M46 463c0 127 53 240 108 294l101 -46c-45 -63 -76 -145 -76 -248s31 -188 76 -252l-101 -46c-55 54 -108 171 -108 298z" />
    <glyph glyph-name="parenright.numr" horiz-adv-x="260" 
d="M214 463c0 -127 -54 -244 -108 -298l-101 46c45 64 76 149 76 252s-31 185 -76 248l101 46c54 -54 108 -167 108 -294z" />
    <glyph glyph-name="uni2090" unicode="&#x2090;" horiz-adv-x="353" 
d="M173 122c-18 0 -41 -12 -52 -42l-112 52c35 49 91 78 167 78c80 0 142 -43 142 -123v-105c0 -32 -1 -61 7 -90h-96c-10 11 -16 21 -22 36h-3c-10 -16 -36 -43 -84 -43c-55 0 -102 34 -102 91c0 72 69 91 115 101c40 8 62 13 62 30c0 9 -10 15 -22 15zM197 6v24
c-7 -8 -18 -14 -33 -19c-14 -5 -21 -10 -21 -23c0 -11 8 -18 24 -18c17 0 30 10 30 36z" />
    <glyph glyph-name="b.subs" horiz-adv-x="379" 
d="M157 -58v-50h-126v447h133v-108c0 -40 -6 -76 -6 -76h3c13 21 30 39 51 48c11 5 23 7 36 7c62 0 115 -60 115 -163c0 -102 -53 -162 -115 -162c-13 0 -25 2 -36 7c-22 9 -39 27 -52 50h-3zM161 47c0 -46 15 -68 34 -68s34 22 34 68c0 47 -15 69 -34 69s-34 -22 -34 -69z
" />
    <glyph glyph-name="c.subs" horiz-adv-x="338" 
d="M182 122c-23 0 -31 -28 -31 -75c0 -46 8 -74 31 -74c22 0 31 24 31 62l119 -51c-18 -59 -76 -99 -150 -99c-87 0 -166 54 -166 162c0 109 79 163 166 163c74 0 132 -40 150 -99l-119 -51c0 38 -8 62 -31 62z" />
    <glyph glyph-name="d.subs" horiz-adv-x="378" 
d="M221 -60h-3c-19 -33 -46 -55 -87 -55c-61 0 -115 60 -115 162c0 103 54 163 115 163c41 0 65 -23 82 -45h3v174h132v-447h-132zM184 -21c20 0 34 22 34 68c0 47 -14 69 -34 69c-19 0 -33 -22 -33 -69c0 -46 14 -68 33 -68z" />
    <glyph glyph-name="uni2091" unicode="&#x2091;" horiz-adv-x="351" 
d="M330 13h-190c3 -42 29 -45 44 -45c20 0 36 11 39 33l107 -53c-28 -36 -78 -63 -146 -63c-90 0 -168 55 -168 162c0 109 77 163 165 163c89 0 155 -59 155 -146c0 -32 -6 -51 -6 -51zM181 128c-11 0 -34 -6 -40 -41h75c0 29 -20 41 -35 41z" />
    <glyph glyph-name="f.subs" horiz-adv-x="255" 
d="M206 261c-15 0 -23 -11 -23 -28v-30h60v-88h-60v-223h-131v223h-42v88h42v28c0 78 63 115 146 115c65 0 114 -25 141 -53l-109 -63c-1 15 -8 31 -24 31z" />
    <glyph glyph-name="g.subs" horiz-adv-x="356" 
d="M17 107c0 56 54 103 145 103c28 0 42 -1 58 -1c25 0 38 18 38 49c0 12 -3 27 -4 32l109 -59c-2 -45 -23 -67 -66 -67c-6 0 -16 1 -19 2v-3c23 -15 47 -39 47 -75c0 -63 -66 -99 -157 -99c-31 0 -48 -5 -48 -17c0 -11 9 -14 29 -14c24 0 57 4 91 4c83 0 127 -27 127 -91
c0 -71 -89 -103 -197 -103c-99 0 -182 24 -182 75c0 34 35 50 67 54v2c-25 8 -49 25 -49 51c0 37 43 59 84 63v3c-35 11 -73 37 -73 91zM99 -144c0 -14 20 -19 69 -19c60 0 70 5 70 18c0 11 -26 16 -62 16c-24 0 -77 1 -77 -15zM134 99c0 -20 16 -35 39 -35
c22 0 38 15 38 35c0 21 -16 36 -38 36c-23 0 -39 -15 -39 -36z" />
    <glyph glyph-name="uni2095" unicode="&#x2095;" horiz-adv-x="376" 
d="M346 96v-204h-133v179c0 21 -2 40 -23 40c-18 0 -26 -13 -26 -42v-177h-133v447h133v-108c0 -40 -6 -76 -6 -76h3c20 30 44 55 94 55c57 0 91 -42 91 -114z" />
    <glyph glyph-name="i.subs" horiz-adv-x="196" 
d="M98 348c38 0 70 -26 70 -61c0 -36 -32 -61 -70 -61s-70 25 -70 61c0 35 32 61 70 61zM31 -108v311h134v-311h-134z" />
    <glyph glyph-name="j.subs" horiz-adv-x="201" 
d="M103 348c39 0 70 -26 70 -61c0 -36 -31 -61 -70 -61c-38 0 -70 25 -70 61c0 35 32 61 70 61zM67 -236l-110 80c54 12 79 28 79 85v274h135v-273c0 -80 -25 -142 -104 -166z" />
    <glyph glyph-name="uni2096" unicode="&#x2096;" horiz-adv-x="383" 
d="M383 203l-108 -122l110 -189h-141l-54 96l-26 -32v-64h-133v447h133v-186c0 -40 -6 -76 -6 -76h3s17 34 30 57l39 69h153z" />
    <glyph glyph-name="uni2097" unicode="&#x2097;" horiz-adv-x="196" 
d="M31 -108v447h134v-447h-134z" />
    <glyph glyph-name="uni2098" unicode="&#x2098;" horiz-adv-x="544" 
d="M207 -108v190c0 16 -7 29 -24 29c-15 0 -23 -11 -23 -36v-183h-129v311h129l-5 -48h3c19 27 44 55 93 55c37 0 62 -17 74 -53h3c26 33 54 53 97 53c58 0 90 -39 90 -110v-208h-130v190c0 16 -7 29 -24 29c-15 0 -23 -11 -23 -36v-183h-131z" />
    <glyph glyph-name="uni2099" unicode="&#x2099;" horiz-adv-x="376" 
d="M346 96v-204h-133v179c0 21 -2 40 -23 40c-18 0 -26 -13 -26 -42v-177h-133v311h133l-6 -48h3c20 30 44 55 94 55c57 0 91 -42 91 -114z" />
    <glyph glyph-name="uni2092" unicode="&#x2092;" horiz-adv-x="369" 
d="M184 -115c-87 0 -168 54 -168 162c0 109 81 163 168 163s169 -54 169 -163c0 -108 -82 -162 -169 -162zM151 47c0 -46 8 -74 33 -74c26 0 34 28 34 74c0 47 -8 75 -34 75c-25 0 -33 -28 -33 -75z" />
    <glyph glyph-name="uni209A" unicode="&#x209a;" horiz-adv-x="379" 
d="M160 155c21 31 47 55 88 55c62 0 115 -60 115 -163c0 -102 -53 -162 -115 -162c-41 0 -65 22 -84 48v-162h-133v432h133zM161 47c0 -46 15 -68 34 -68s34 22 34 68c0 47 -15 69 -34 69s-34 -22 -34 -69z" />
    <glyph glyph-name="q.subs" horiz-adv-x="379" 
d="M222 153v50h127v-432h-133v93c0 40 5 76 5 76h-3c-19 -33 -46 -55 -87 -55c-61 0 -115 60 -115 162c0 103 54 163 115 163c41 0 68 -23 88 -57h3zM218 47c0 47 -14 69 -34 69c-19 0 -33 -22 -33 -69c0 -46 14 -68 33 -68c20 0 34 22 34 68z" />
    <glyph glyph-name="r.subs" horiz-adv-x="320" 
d="M31 -108v311h133l-6 -48h3c20 25 40 56 85 56c47 0 67 -40 67 -86c0 -23 -3 -40 -3 -40l-117 -61c3 19 5 34 5 57c0 14 -1 30 -18 30c-11 0 -16 -9 -16 -34v-185h-133z" />
    <glyph glyph-name="uni209B" unicode="&#x209b;" horiz-adv-x="336" 
d="M176 -31c15 0 20 6 20 13c0 14 -29 18 -66 27c-49 12 -108 39 -108 98c0 63 64 103 147 103c68 0 129 -35 159 -61l-109 -54c-8 17 -26 31 -45 31c-15 0 -21 -6 -21 -12c0 -13 30 -13 80 -28c47 -14 93 -39 93 -94c0 -68 -67 -107 -146 -107c-72 0 -128 18 -177 63
l111 55c20 -25 39 -34 62 -34z" />
    <glyph glyph-name="uni209C" unicode="&#x209c;" horiz-adv-x="254" 
d="M211 -10l41 -82c-10 -5 -47 -23 -89 -23c-74 0 -114 37 -114 107v123h-45v88h45v54l132 64v-118h62v-88h-62v-111c0 -18 6 -24 16 -24c9 0 12 6 14 10z" />
    <glyph glyph-name="u.subs" horiz-adv-x="374" 
d="M30 -1v204h133v-179c0 -21 2 -40 22 -40c17 0 24 11 26 34v185h133v-311h-133l5 48h-3c-19 -30 -43 -55 -93 -55c-57 0 -90 42 -90 114z" />
    <glyph glyph-name="v.subs" horiz-adv-x="345" 
d="M87 -108l-88 311h138l21 -114c7 -36 14 -94 14 -94h3s8 58 14 94l21 114h136l-89 -311h-170z" />
    <glyph glyph-name="w.subs" horiz-adv-x="514" 
d="M257 100c0 0 -3 -39 -7 -70l-19 -138h-165l-56 311h133l9 -98c3 -39 9 -108 9 -108h3s5 69 9 108l11 98h151l11 -98c4 -39 10 -108 10 -108c4 0 8 57 12 108l8 98h128l-56 -311h-161l-20 138c-5 32 -7 70 -7 70h-3z" />
    <glyph glyph-name="uni2093" unicode="&#x2093;" horiz-adv-x="353" 
d="M346 203l-66 -153l73 -158h-144l-15 49c-11 35 -18 64 -18 64h-2s-7 -29 -18 -64l-15 -49h-141l72 158l-65 153h141l15 -56c10 -35 13 -55 13 -55h3s2 21 12 55l16 56h139z" />
    <glyph glyph-name="y.subs" horiz-adv-x="350" 
d="M176 20h2s9 43 17 89l17 94h139l-106 -322c-20 -61 -51 -102 -108 -117l-107 75c32 7 72 19 84 53l-115 311h141l26 -130c5 -28 10 -53 10 -53z" />
    <glyph glyph-name="z.subs" horiz-adv-x="330" 
d="M26 115v88h278v-65l-117 -158h126v-88h-290v65l117 158h-114z" />
    <glyph glyph-name="uni2080" unicode="&#x2080;" horiz-adv-x="422" 
d="M158 107c0 -57 12 -118 53 -118s53 61 53 118s-12 115 -53 115s-53 -58 -53 -115zM18 107c0 143 82 219 193 219s193 -76 193 -219c0 -144 -82 -222 -193 -222s-193 78 -193 222z" />
    <glyph glyph-name="uni2081" unicode="&#x2081;" horiz-adv-x="274" 
d="M110 179h-3c-16 -16 -37 -29 -61 -35l-51 108c51 8 103 27 140 67h103v-427h-132v223c0 25 4 64 4 64z" />
    <glyph glyph-name="uni2082" unicode="&#x2082;" horiz-adv-x="367" 
d="M145 110l-133 50s-3 13 -3 27c0 88 86 139 175 139c94 0 171 -49 171 -137c0 -119 -158 -172 -155 -188v-1h149v-108h-323s-2 13 -2 26c0 144 196 190 196 265c0 23 -14 38 -36 38c-29 0 -45 -26 -45 -66c0 -22 5 -35 6 -45z" />
    <glyph glyph-name="uni2083" unicode="&#x2083;" horiz-adv-x="365" 
d="M183 -115c-86 0 -153 38 -179 95l125 60c6 -35 24 -50 51 -50c28 0 40 19 40 44s-18 43 -46 43c-27 0 -44 -10 -65 -21l-45 101l85 58h-125v104h316v-86l-74 -46c-24 -17 -69 -33 -69 -33l1 -3s8 1 16 1c75 0 138 -43 138 -126c0 -80 -73 -141 -169 -141z" />
    <glyph glyph-name="uni2084" unicode="&#x2084;" horiz-adv-x="388" 
d="M209 -13h-165l-29 71c33 63 53 139 52 268l126 -56c2 -84 -20 -130 -48 -182h64v231h132v-231h38v-101h-38v-95h-132v95z" />
    <glyph glyph-name="uni2085" unicode="&#x2085;" horiz-adv-x="371" 
d="M186 -115c-86 0 -151 38 -177 95l126 60c5 -32 21 -50 48 -50c26 0 42 22 42 52c0 31 -15 54 -43 54c-27 0 -40 -20 -44 -39l-115 45l28 217h276v-104h-169l-2 -17c-3 -23 -9 -46 -9 -46l1 -1c14 15 40 30 78 30c69 0 130 -50 130 -139c0 -93 -72 -157 -170 -157z" />
    <glyph glyph-name="uni2086" unicode="&#x2086;" horiz-adv-x="383" 
d="M217 326c63 0 118 -29 156 -76l-116 -62c-3 21 -17 38 -40 38c-34 0 -61 -29 -71 -87h2c21 26 56 40 84 40c65 0 139 -44 139 -137c0 -98 -79 -157 -174 -157c-107 0 -179 71 -179 204c0 149 79 237 199 237zM246 36c0 32 -16 57 -49 57c-32 0 -50 -25 -50 -57
s18 -56 50 -56s49 24 49 56z" />
    <glyph glyph-name="uni2087" unicode="&#x2087;" horiz-adv-x="356" 
d="M351 319v-71c-64 -135 -87 -245 -102 -356h-150c13 109 72 243 109 319h-74v-96l-126 56v148h343z" />
    <glyph glyph-name="uni2088" unicode="&#x2088;" horiz-adv-x="392" 
d="M196 -115c-103 0 -184 48 -184 127c0 69 62 97 92 107v2c-31 10 -75 35 -75 91c0 72 76 114 167 114c94 0 168 -42 168 -114c0 -56 -45 -81 -75 -91v-2c29 -10 91 -38 91 -107c0 -79 -80 -127 -184 -127zM141 21c0 -28 24 -41 55 -41s56 13 56 41c0 29 -25 42 -56 42
s-55 -13 -55 -42zM146 195c0 -25 23 -37 50 -37s50 12 50 37s-23 36 -50 36s-50 -11 -50 -36z" />
    <glyph glyph-name="uni2089" unicode="&#x2089;" horiz-adv-x="386" 
d="M186 -115c-72 0 -125 26 -161 80l117 61c2 -21 18 -41 48 -41c36 0 48 26 52 84l-3 2c-21 -25 -57 -34 -85 -34c-65 0 -141 43 -141 140c0 94 81 149 175 149c107 0 180 -67 180 -196c0 -157 -54 -245 -182 -245zM137 177c0 -32 19 -55 51 -55s51 23 51 55s-19 54 -51 54
s-51 -22 -51 -54z" />
    <glyph glyph-name="dollar.subs" horiz-adv-x="409" 
d="M161 -165v60c-64 11 -116 48 -139 96l112 63c4 -31 15 -54 35 -66v68c-77 20 -143 60 -143 133c0 67 64 117 135 127v58h103v-60c53 -10 98 -38 131 -87l-108 -62c-1 28 -14 48 -31 59v-67c71 -20 143 -52 143 -130c0 -66 -57 -120 -135 -132v-60h-103zM281 15
c0 15 -10 25 -25 31v-64c18 6 25 20 25 33zM144 200c0 -14 9 -22 25 -29v58c-16 -4 -25 -16 -25 -29z" />
    <glyph glyph-name="cent.subs" horiz-adv-x="389" 
d="M155 -165v63c-77 15 -135 65 -135 152c0 86 58 136 135 150v63h104v-63c55 -12 98 -42 119 -86l-107 -46c0 16 -8 31 -21 40v-117c13 10 21 24 21 41l107 -46c-21 -45 -64 -76 -119 -87v-64h-104zM140 50c0 -29 6 -49 23 -60v119c-17 -11 -23 -30 -23 -59z" />
    <glyph glyph-name="Euro.subs" horiz-adv-x="427" 
d="M248 13h-46c10 -22 26 -34 54 -34c39 0 55 35 51 87l120 -71c-27 -68 -87 -110 -171 -110c-81 0 -154 42 -183 128h-56v73h42v29h-42v73h53c28 93 104 138 186 138c77 0 144 -40 171 -108l-120 -71c4 53 -15 85 -51 85c-28 0 -46 -18 -56 -44h89l-19 -73h-81v-29h78z" />
    <glyph glyph-name="yen.subs" horiz-adv-x="426" 
d="M378 -30h-99v-78h-132v78h-99v73h99v2l-16 33h-83v73h45l-86 168h147l38 -103c14 -32 19 -63 20 -62c6 0 4 19 24 62l39 103h144l-87 -168h46v-73h-84l-15 -30v-5h99v-73z" />
    <glyph glyph-name="sterling.subs" horiz-adv-x="400" 
d="M300 53h-82l-1 -4c-6 -27 -19 -42 -31 -53h192v-104h-334v84c32 13 40 41 41 76v1h-59v87h51c-4 19 -7 35 -7 55c0 99 93 131 166 131s134 -35 167 -91l-117 -70c-3 37 -14 64 -46 64c-20 0 -36 -14 -36 -42c0 -17 3 -32 7 -47h112z" />
    <glyph glyph-name="uni208A" unicode="&#x208a;" horiz-adv-x="395" 
d="M139 -84v127h-119v103h119v124h117v-124h119v-103h-119v-127h-117z" />
    <glyph glyph-name="uni208B" unicode="&#x208b;" horiz-adv-x="395" 
d="M362 42h-329v105h329v-105z" />
    <glyph glyph-name="multiply.subs" horiz-adv-x="395" 
d="M102 -73l-84 71l102 92l-101 95l84 71l94 -92l95 92l84 -71l-102 -95l103 -92l-84 -71l-96 93z" />
    <glyph glyph-name="divide.subs" horiz-adv-x="395" 
d="M362 43h-329v103h329v-103zM198 26c36 0 69 -25 69 -63s-33 -63 -69 -63c-37 0 -70 25 -70 63s33 63 70 63zM198 288c36 0 69 -24 69 -62c0 -39 -33 -63 -69 -63c-37 0 -70 24 -70 63c0 38 33 62 70 62z" />
    <glyph glyph-name="uni208C" unicode="&#x208c;" horiz-adv-x="395" 
d="M363 -27h-331v97h331v-97zM363 112h-331v96h331v-96z" />
    <glyph glyph-name="period.subs" horiz-adv-x="200" 
d="M100 16c38 0 72 -26 72 -66s-34 -65 -72 -65s-72 25 -72 65s34 66 72 66z" />
    <glyph glyph-name="comma.subs" horiz-adv-x="200" 
d="M93 16c48 0 80 -33 80 -90c0 -58 -34 -113 -83 -139l-63 38c23 10 71 30 79 74c-5 -1 -10 -1 -15 -1c-36 0 -64 26 -64 59c0 34 29 59 66 59z" />
    <glyph glyph-name="hyphen.subs" horiz-adv-x="244" 
d="M214 21h-183v98h183v-98z" />
    <glyph glyph-name="uni208D" unicode="&#x208d;" horiz-adv-x="260" 
d="M46 78c0 127 53 240 108 294l101 -46c-45 -63 -76 -145 -76 -248s31 -188 76 -252l-101 -46c-55 54 -108 171 -108 298z" />
    <glyph glyph-name="uni208E" unicode="&#x208e;" horiz-adv-x="260" 
d="M214 78c0 -127 -54 -244 -108 -298l-101 46c45 64 76 149 76 252s-31 185 -76 248l101 46c54 -54 108 -167 108 -294z" />
    <glyph glyph-name="a.sups" horiz-adv-x="353" 
d="M173 615c-18 0 -41 -12 -52 -42l-112 52c35 49 91 78 167 78c80 0 142 -43 142 -123v-105c0 -32 -1 -61 7 -90h-96c-10 11 -16 21 -22 36h-3c-10 -16 -36 -43 -84 -43c-55 0 -102 34 -102 91c0 72 69 91 115 101c40 8 62 13 62 30c0 9 -10 15 -22 15zM197 499v24
c-7 -8 -18 -14 -33 -19c-14 -5 -21 -10 -21 -23c0 -11 8 -18 24 -18c17 0 30 10 30 36z" />
    <glyph glyph-name="b.sups" horiz-adv-x="379" 
d="M157 431v-50h-126v447h133v-108c0 -40 -6 -76 -6 -76h3c13 21 30 39 51 48c11 5 23 7 36 7c62 0 115 -60 115 -163c0 -102 -53 -162 -115 -162c-13 0 -25 2 -36 7c-22 9 -39 27 -52 50h-3zM161 536c0 -46 15 -68 34 -68s34 22 34 68c0 47 -15 69 -34 69s-34 -22 -34 -69z
" />
    <glyph glyph-name="c.sups" horiz-adv-x="338" 
d="M182 611c-23 0 -31 -28 -31 -75c0 -46 8 -74 31 -74c22 0 31 24 31 62l119 -51c-18 -59 -76 -99 -150 -99c-87 0 -166 54 -166 162c0 109 79 163 166 163c74 0 132 -40 150 -99l-119 -51c0 38 -8 62 -31 62z" />
    <glyph glyph-name="d.sups" horiz-adv-x="378" 
d="M221 429h-3c-19 -33 -46 -55 -87 -55c-61 0 -115 60 -115 162c0 103 54 163 115 163c41 0 65 -23 82 -45h3v174h132v-447h-132zM184 468c20 0 34 22 34 68c0 47 -14 69 -34 69c-19 0 -33 -22 -33 -69c0 -46 14 -68 33 -68z" />
    <glyph glyph-name="e.sups" horiz-adv-x="351" 
d="M330 502h-190c3 -42 29 -45 44 -45c20 0 36 11 39 33l107 -53c-28 -36 -78 -63 -146 -63c-90 0 -168 55 -168 162c0 109 77 163 165 163c89 0 155 -59 155 -146c0 -32 -6 -51 -6 -51zM181 617c-11 0 -34 -6 -40 -41h75c0 29 -20 41 -35 41z" />
    <glyph glyph-name="f.sups" horiz-adv-x="255" 
d="M206 750c-15 0 -23 -11 -23 -28v-30h60v-88h-60v-223h-131v223h-42v88h42v28c0 78 63 115 146 115c65 0 114 -25 141 -53l-109 -63c-1 15 -8 31 -24 31z" />
    <glyph glyph-name="g.sups" horiz-adv-x="356" 
d="M17 596c0 56 54 103 145 103c28 0 42 -1 58 -1c25 0 38 18 38 49c0 12 -3 27 -4 32l109 -59c-2 -45 -23 -67 -66 -67c-6 0 -16 1 -19 2v-3c23 -15 47 -39 47 -75c0 -63 -66 -99 -157 -99c-31 0 -48 -5 -48 -17c0 -11 9 -14 29 -14c24 0 57 4 91 4c83 0 127 -27 127 -91
c0 -71 -89 -103 -197 -103c-99 0 -182 24 -182 75c0 34 35 50 67 54v2c-25 8 -49 25 -49 51c0 37 43 59 84 63v3c-35 11 -73 37 -73 91zM99 345c0 -14 20 -19 69 -19c60 0 70 5 70 18c0 11 -26 16 -62 16c-24 0 -77 1 -77 -15zM134 588c0 -20 16 -35 39 -35
c22 0 38 15 38 35c0 21 -16 36 -38 36c-23 0 -39 -15 -39 -36z" />
    <glyph glyph-name="h.sups" horiz-adv-x="376" 
d="M346 585v-204h-133v179c0 21 -2 40 -23 40c-18 0 -26 -13 -26 -42v-177h-133v447h133v-108c0 -40 -6 -76 -6 -76h3c20 30 44 55 94 55c57 0 91 -42 91 -114z" />
    <glyph glyph-name="uni2071" unicode="&#x2071;" horiz-adv-x="196" 
d="M98 837c38 0 70 -26 70 -61c0 -36 -32 -61 -70 -61s-70 25 -70 61c0 35 32 61 70 61zM31 381v311h134v-311h-134z" />
    <glyph glyph-name="j.sups" horiz-adv-x="201" 
d="M103 837c39 0 70 -26 70 -61c0 -36 -31 -61 -70 -61c-38 0 -70 25 -70 61c0 35 32 61 70 61zM67 253l-110 80c54 12 79 28 79 85v274h135v-273c0 -80 -25 -142 -104 -166z" />
    <glyph glyph-name="k.sups" horiz-adv-x="383" 
d="M383 692l-108 -122l110 -189h-141l-54 96l-26 -32v-64h-133v447h133v-186c0 -40 -6 -76 -6 -76h3s17 34 30 57l39 69h153z" />
    <glyph glyph-name="l.sups" horiz-adv-x="196" 
d="M31 381v447h134v-447h-134z" />
    <glyph glyph-name="m.sups" horiz-adv-x="544" 
d="M207 381v190c0 16 -7 29 -24 29c-15 0 -23 -11 -23 -36v-183h-129v311h129l-5 -48h3c19 27 44 55 93 55c37 0 62 -17 74 -53h3c26 33 54 53 97 53c58 0 90 -39 90 -110v-208h-130v190c0 16 -7 29 -24 29c-15 0 -23 -11 -23 -36v-183h-131z" />
    <glyph glyph-name="uni207F" unicode="&#x207f;" horiz-adv-x="376" 
d="M346 585v-204h-133v179c0 21 -2 40 -23 40c-18 0 -26 -13 -26 -42v-177h-133v311h133l-6 -48h3c20 30 44 55 94 55c57 0 91 -42 91 -114z" />
    <glyph glyph-name="o.sups" horiz-adv-x="369" 
d="M184 374c-87 0 -168 54 -168 162c0 109 81 163 168 163s169 -54 169 -163c0 -108 -82 -162 -169 -162zM151 536c0 -46 8 -74 33 -74c26 0 34 28 34 74c0 47 -8 75 -34 75c-25 0 -33 -28 -33 -75z" />
    <glyph glyph-name="p.sups" horiz-adv-x="379" 
d="M160 644c21 31 47 55 88 55c62 0 115 -60 115 -163c0 -102 -53 -162 -115 -162c-41 0 -65 22 -84 48v-162h-133v432h133zM161 536c0 -46 15 -68 34 -68s34 22 34 68c0 47 -15 69 -34 69s-34 -22 -34 -69z" />
    <glyph glyph-name="q.sups" horiz-adv-x="379" 
d="M222 642v50h127v-432h-133v93c0 40 5 76 5 76h-3c-19 -33 -46 -55 -87 -55c-61 0 -115 60 -115 162c0 103 54 163 115 163c41 0 68 -23 88 -57h3zM218 536c0 47 -14 69 -34 69c-19 0 -33 -22 -33 -69c0 -46 14 -68 33 -68c20 0 34 22 34 68z" />
    <glyph glyph-name="r.sups" horiz-adv-x="320" 
d="M31 381v311h133l-6 -48h3c20 25 40 56 85 56c47 0 67 -40 67 -86c0 -23 -3 -40 -3 -40l-117 -61c3 19 5 34 5 57c0 14 -1 30 -18 30c-11 0 -16 -9 -16 -34v-185h-133z" />
    <glyph glyph-name="s.sups" horiz-adv-x="336" 
d="M176 458c15 0 20 6 20 13c0 14 -29 18 -66 27c-49 12 -108 39 -108 98c0 63 64 103 147 103c68 0 129 -35 159 -61l-109 -54c-8 17 -26 31 -45 31c-15 0 -21 -6 -21 -12c0 -13 30 -13 80 -28c47 -14 93 -39 93 -94c0 -68 -67 -107 -146 -107c-72 0 -128 18 -177 63
l111 55c20 -25 39 -34 62 -34z" />
    <glyph glyph-name="t.sups" horiz-adv-x="254" 
d="M211 479l41 -82c-10 -5 -47 -23 -89 -23c-74 0 -114 37 -114 107v123h-45v88h45v54l132 64v-118h62v-88h-62v-111c0 -18 6 -24 16 -24c9 0 12 6 14 10z" />
    <glyph glyph-name="u.sups" horiz-adv-x="374" 
d="M30 488v204h133v-179c0 -21 2 -40 22 -40c17 0 24 11 26 34v185h133v-311h-133l5 48h-3c-19 -30 -43 -55 -93 -55c-57 0 -90 42 -90 114z" />
    <glyph glyph-name="v.sups" horiz-adv-x="345" 
d="M87 381l-88 311h138l21 -114c7 -36 14 -94 14 -94h3s8 58 14 94l21 114h136l-89 -311h-170z" />
    <glyph glyph-name="w.sups" horiz-adv-x="514" 
d="M257 589c0 0 -3 -39 -7 -70l-19 -138h-165l-56 311h133l9 -98c3 -39 9 -108 9 -108h3s5 69 9 108l11 98h151l11 -98c4 -39 10 -108 10 -108c4 0 8 57 12 108l8 98h128l-56 -311h-161l-20 138c-5 32 -7 70 -7 70h-3z" />
    <glyph glyph-name="x.sups" horiz-adv-x="353" 
d="M346 692l-66 -153l73 -158h-144l-15 49c-11 35 -18 64 -18 64h-2s-7 -29 -18 -64l-15 -49h-141l72 158l-65 153h141l15 -56c10 -35 13 -55 13 -55h3s2 21 12 55l16 56h139z" />
    <glyph glyph-name="y.sups" horiz-adv-x="350" 
d="M176 509h2s9 43 17 89l17 94h139l-106 -322c-20 -61 -51 -102 -108 -117l-107 75c32 7 72 19 84 53l-115 311h141l26 -130c5 -28 10 -53 10 -53z" />
    <glyph glyph-name="z.sups" horiz-adv-x="330" 
d="M26 604v88h278v-65l-117 -158h126v-88h-290v65l117 158h-114z" />
    <glyph glyph-name="uni2070" unicode="&#x2070;" horiz-adv-x="422" 
d="M158 596c0 -57 12 -118 53 -118s53 61 53 118s-12 115 -53 115s-53 -58 -53 -115zM18 596c0 143 82 219 193 219s193 -76 193 -219c0 -144 -82 -222 -193 -222s-193 78 -193 222z" />
    <glyph glyph-name="onesuperior" unicode="&#xb9;" horiz-adv-x="274" 
d="M110 668h-3c-16 -16 -37 -29 -61 -35l-51 108c51 8 103 27 140 67h103v-427h-132v223c0 25 4 64 4 64z" />
    <glyph glyph-name="twosuperior" unicode="&#xb2;" horiz-adv-x="367" 
d="M145 599l-133 50s-3 13 -3 27c0 88 86 139 175 139c94 0 171 -49 171 -137c0 -119 -158 -172 -155 -188v-1h149v-108h-323s-2 13 -2 26c0 144 196 190 196 265c0 23 -14 38 -36 38c-29 0 -45 -26 -45 -66c0 -22 5 -35 6 -45z" />
    <glyph glyph-name="threesuperior" unicode="&#xb3;" horiz-adv-x="365" 
d="M183 374c-86 0 -153 38 -179 95l125 60c6 -35 24 -50 51 -50c28 0 40 19 40 44s-18 43 -46 43c-27 0 -44 -10 -65 -21l-45 101l85 58h-125v104h316v-86l-74 -46c-24 -17 -69 -33 -69 -33l1 -3s8 1 16 1c75 0 138 -43 138 -126c0 -80 -73 -141 -169 -141z" />
    <glyph glyph-name="uni2074" unicode="&#x2074;" horiz-adv-x="388" 
d="M209 476h-165l-29 71c33 63 53 139 52 268l126 -56c2 -84 -20 -130 -48 -182h64v231h132v-231h38v-101h-38v-95h-132v95z" />
    <glyph glyph-name="uni2075" unicode="&#x2075;" horiz-adv-x="371" 
d="M186 374c-86 0 -151 38 -177 95l126 60c5 -32 21 -50 48 -50c26 0 42 22 42 52c0 31 -15 54 -43 54c-27 0 -40 -20 -44 -39l-115 45l28 217h276v-104h-169l-2 -17c-3 -23 -9 -46 -9 -46l1 -1c14 15 40 30 78 30c69 0 130 -50 130 -139c0 -93 -72 -157 -170 -157z" />
    <glyph glyph-name="uni2076" unicode="&#x2076;" horiz-adv-x="383" 
d="M217 815c63 0 118 -29 156 -76l-116 -62c-3 21 -17 38 -40 38c-34 0 -61 -29 -71 -87h2c21 26 56 40 84 40c65 0 139 -44 139 -137c0 -98 -79 -157 -174 -157c-107 0 -179 71 -179 204c0 149 79 237 199 237zM246 525c0 32 -16 57 -49 57c-32 0 -50 -25 -50 -57
s18 -56 50 -56s49 24 49 56z" />
    <glyph glyph-name="uni2077" unicode="&#x2077;" horiz-adv-x="356" 
d="M351 808v-71c-64 -135 -87 -245 -102 -356h-150c13 109 72 243 109 319h-74v-96l-126 56v148h343z" />
    <glyph glyph-name="uni2078" unicode="&#x2078;" horiz-adv-x="392" 
d="M196 374c-103 0 -184 48 -184 127c0 69 62 97 92 107v2c-31 10 -75 35 -75 91c0 72 76 114 167 114c94 0 168 -42 168 -114c0 -56 -45 -81 -75 -91v-2c29 -10 91 -38 91 -107c0 -79 -80 -127 -184 -127zM141 510c0 -28 24 -41 55 -41s56 13 56 41c0 29 -25 42 -56 42
s-55 -13 -55 -42zM146 684c0 -25 23 -37 50 -37s50 12 50 37s-23 36 -50 36s-50 -11 -50 -36z" />
    <glyph glyph-name="uni2079" unicode="&#x2079;" horiz-adv-x="386" 
d="M186 374c-72 0 -125 26 -161 80l117 61c2 -21 18 -41 48 -41c36 0 48 26 52 84l-3 2c-21 -25 -57 -34 -85 -34c-65 0 -141 43 -141 140c0 94 81 149 175 149c107 0 180 -67 180 -196c0 -157 -54 -245 -182 -245zM137 666c0 -32 19 -55 51 -55s51 23 51 55s-19 54 -51 54
s-51 -22 -51 -54z" />
    <glyph glyph-name="dollar.sups" horiz-adv-x="409" 
d="M161 324v60c-64 11 -116 48 -139 96l112 63c4 -31 15 -54 35 -66v68c-77 20 -143 60 -143 133c0 67 64 117 135 127v58h103v-60c53 -10 98 -38 131 -87l-108 -62c-1 28 -14 48 -31 59v-67c71 -20 143 -52 143 -130c0 -66 -57 -120 -135 -132v-60h-103zM281 504
c0 15 -10 25 -25 31v-64c18 6 25 20 25 33zM144 689c0 -14 9 -22 25 -29v58c-16 -4 -25 -16 -25 -29z" />
    <glyph glyph-name="cent.sups" horiz-adv-x="389" 
d="M155 324v63c-77 15 -135 65 -135 152c0 86 58 136 135 150v63h104v-63c55 -12 98 -42 119 -86l-107 -46c0 16 -8 31 -21 40v-117c13 10 21 24 21 41l107 -46c-21 -45 -64 -76 -119 -87v-64h-104zM140 539c0 -29 6 -49 23 -60v119c-17 -11 -23 -30 -23 -59z" />
    <glyph glyph-name="Euro.sups" horiz-adv-x="427" 
d="M248 502h-46c10 -22 26 -34 54 -34c39 0 55 35 51 87l120 -71c-27 -68 -87 -110 -171 -110c-81 0 -154 42 -183 128h-56v73h42v29h-42v73h53c28 93 104 138 186 138c77 0 144 -40 171 -108l-120 -71c4 53 -15 85 -51 85c-28 0 -46 -18 -56 -44h89l-19 -73h-81v-29h78z
" />
    <glyph glyph-name="yen.sups" horiz-adv-x="426" 
d="M378 459h-99v-78h-132v78h-99v73h99v2l-16 33h-83v73h45l-86 168h147l38 -103c14 -32 19 -63 20 -62c6 0 4 19 24 62l39 103h144l-87 -168h46v-73h-84l-15 -30v-5h99v-73z" />
    <glyph glyph-name="sterling.sups" horiz-adv-x="400" 
d="M300 542h-82l-1 -4c-6 -27 -19 -42 -31 -53h192v-104h-334v84c32 13 40 41 41 76v1h-59v87h51c-4 19 -7 35 -7 55c0 99 93 131 166 131s134 -35 167 -91l-117 -70c-3 37 -14 64 -46 64c-20 0 -36 -14 -36 -42c0 -17 3 -32 7 -47h112z" />
    <glyph glyph-name="uni207A" unicode="&#x207a;" horiz-adv-x="395" 
d="M139 405v127h-119v103h119v124h117v-124h119v-103h-119v-127h-117z" />
    <glyph glyph-name="uni207B" unicode="&#x207b;" horiz-adv-x="395" 
d="M362 531h-329v105h329v-105z" />
    <glyph glyph-name="multiply.sups" horiz-adv-x="395" 
d="M102 416l-84 71l102 92l-101 95l84 71l94 -92l95 92l84 -71l-102 -95l103 -92l-84 -71l-96 93z" />
    <glyph glyph-name="divide.sups" horiz-adv-x="395" 
d="M362 532h-329v103h329v-103zM198 515c36 0 69 -25 69 -63s-33 -63 -69 -63c-37 0 -70 25 -70 63s33 63 70 63zM198 777c36 0 69 -24 69 -62c0 -39 -33 -63 -69 -63c-37 0 -70 24 -70 63c0 38 33 62 70 62z" />
    <glyph glyph-name="uni207C" unicode="&#x207c;" horiz-adv-x="395" 
d="M363 462h-331v97h331v-97zM363 601h-331v96h331v-96z" />
    <glyph glyph-name="period.sups" horiz-adv-x="200" 
d="M100 505c38 0 72 -26 72 -66s-34 -65 -72 -65s-72 25 -72 65s34 66 72 66z" />
    <glyph glyph-name="comma.sups" horiz-adv-x="200" 
d="M93 505c48 0 80 -33 80 -90c0 -58 -34 -113 -83 -139l-63 38c23 10 71 30 79 74c-5 -1 -10 -1 -15 -1c-36 0 -64 26 -64 59c0 34 29 59 66 59z" />
    <glyph glyph-name="hyphen.sups" horiz-adv-x="244" 
d="M214 510h-183v98h183v-98z" />
    <glyph glyph-name="uni207D" unicode="&#x207d;" horiz-adv-x="260" 
d="M46 567c0 127 53 240 108 294l101 -46c-45 -63 -76 -145 -76 -248s31 -188 76 -252l-101 -46c-55 54 -108 171 -108 298z" />
    <glyph glyph-name="uni207E" unicode="&#x207e;" horiz-adv-x="260" 
d="M214 567c0 -127 -54 -244 -108 -298l-101 46c45 64 76 149 76 252s-31 185 -76 248l101 46c54 -54 108 -167 108 -294z" />
    <glyph glyph-name="fraction" unicode="&#x2044;" horiz-adv-x="210" 
d="M-176 44l464 668l110 -65l-464 -668z" />
    <glyph glyph-name="percent" unicode="%" horiz-adv-x="946" 
d="M918 180c0 -113 -82 -192 -190 -192s-191 79 -191 192s83 192 191 192s190 -79 190 -192zM409 512c0 -113 -82 -192 -190 -192s-191 79 -191 192s83 192 191 192s190 -79 190 -192zM185 44l464 668l110 -65l-464 -668zM219 594c-40 0 -55 -38 -55 -82s15 -82 55 -82
s54 38 54 82s-14 82 -54 82zM728 262c-40 0 -55 -38 -55 -82s15 -82 55 -82s54 38 54 82s-14 82 -54 82z" />
    <glyph glyph-name="perthousand" unicode="&#x2030;" horiz-adv-x="1365" 
d="M918 180c0 -113 -82 -192 -190 -192s-191 79 -191 192s83 192 191 192s190 -79 190 -192zM409 512c0 -113 -82 -192 -190 -192s-191 79 -191 192s83 192 191 192s190 -79 190 -192zM1337 180c0 -113 -82 -192 -190 -192s-191 79 -191 192s83 192 191 192
s190 -79 190 -192zM185 44l464 668l110 -65l-464 -668zM1147 262c-40 0 -55 -38 -55 -82s15 -82 55 -82s54 38 54 82s-14 82 -54 82zM728 262c-40 0 -55 -38 -55 -82s15 -82 55 -82s54 38 54 82s-14 82 -54 82zM219 594c-40 0 -55 -38 -55 -82s15 -82 55 -82s54 38 54 82
s-14 82 -54 82z" />
    <glyph glyph-name="onehalf" unicode="&#xbd;" horiz-adv-x="904" 
d="M138 44l464 668l110 -65l-464 -668zM114 564h-3c-16 -16 -37 -29 -61 -35l-51 108c51 8 103 27 140 67h103v-427h-132v223c0 25 4 64 4 64zM669 218l-133 50s-3 13 -3 27c0 88 86 139 175 139c94 0 171 -49 171 -137c0 -119 -158 -172 -155 -188v-1h149v-108h-323
s-2 13 -2 26c0 144 196 190 196 265c0 23 -14 38 -36 38c-29 0 -45 -26 -45 -66c0 -22 5 -35 6 -45z" />
    <glyph glyph-name="onethird" unicode="&#x2153;" horiz-adv-x="940" 
d="M138 44l464 668l110 -65l-464 -668zM114 564h-3c-16 -16 -37 -29 -61 -35l-51 108c51 8 103 27 140 67h103v-427h-132v223c0 25 4 64 4 64zM735 -7c-86 0 -153 38 -179 95l125 60c6 -35 24 -50 51 -50c28 0 40 19 40 44s-18 43 -46 43c-27 0 -44 -10 -65 -21l-45 101
l85 58h-125v104h316v-86l-74 -46c-24 -17 -69 -33 -69 -33l1 -3s8 1 16 1c75 0 138 -43 138 -126c0 -80 -73 -141 -169 -141z" />
    <glyph glyph-name="twothirds" unicode="&#x2154;" horiz-adv-x="1019" 
d="M221 44l464 668l110 -65l-464 -668zM145 495l-133 50s-3 13 -3 27c0 88 86 139 175 139c94 0 171 -49 171 -137c0 -119 -158 -172 -155 -188v-1h149v-108h-323s-2 13 -2 26c0 144 196 190 196 265c0 23 -14 38 -36 38c-29 0 -45 -26 -45 -66c0 -22 5 -35 6 -45zM814 -7
c-86 0 -153 38 -179 95l125 60c6 -35 24 -50 51 -50c28 0 40 19 40 44s-18 43 -46 43c-27 0 -44 -10 -65 -21l-45 101l85 58h-125v104h316v-86l-74 -46c-24 -17 -69 -33 -69 -33l1 -3s8 1 16 1c75 0 138 -43 138 -126c0 -80 -73 -141 -169 -141z" />
    <glyph glyph-name="onequarter" unicode="&#xbc;" horiz-adv-x="936" 
d="M138 44l464 668l110 -65l-464 -668zM114 564h-3c-16 -16 -37 -29 -61 -35l-51 108c51 8 103 27 140 67h103v-427h-132v223c0 25 4 64 4 64zM737 95h-165l-29 71c33 63 53 139 52 268l126 -56c2 -84 -20 -130 -48 -182h64v231h132v-231h38v-101h-38v-95h-132v95z" />
    <glyph glyph-name="threequarters" unicode="&#xbe;" horiz-adv-x="993" 
d="M195 44l464 668l110 -65l-464 -668zM794 95h-165l-29 71c33 63 53 139 52 268l126 -56c2 -84 -20 -130 -48 -182h64v231h132v-231h38v-101h-38v-95h-132v95zM183 270c-86 0 -153 38 -179 95l125 60c6 -35 24 -50 51 -50c28 0 40 19 40 44s-18 43 -46 43
c-27 0 -44 -10 -65 -21l-45 101l85 58h-125v104h316v-86l-74 -46c-24 -17 -69 -33 -69 -33l1 -3s8 1 16 1c75 0 138 -43 138 -126c0 -80 -73 -141 -169 -141z" />
    <glyph glyph-name="uni2155" unicode="&#x2155;" horiz-adv-x="917" 
d="M138 44l464 668l110 -65l-464 -668zM114 564h-3c-16 -16 -37 -29 -61 -35l-51 108c51 8 103 27 140 67h103v-427h-132v223c0 25 4 64 4 64zM718 -7c-86 0 -151 38 -177 95l126 60c5 -32 21 -50 48 -50c26 0 42 22 42 52c0 31 -15 54 -43 54c-27 0 -40 -20 -44 -39
l-115 45l28 217h276v-104h-169l-2 -17c-3 -23 -9 -46 -9 -46l1 -1c14 15 40 30 78 30c69 0 130 -50 130 -139c0 -93 -72 -157 -170 -157z" />
    <glyph glyph-name="uni2156" unicode="&#x2156;" horiz-adv-x="1000" 
d="M221 44l464 668l110 -65l-464 -668zM145 495l-133 50s-3 13 -3 27c0 88 86 139 175 139c94 0 171 -49 171 -137c0 -119 -158 -172 -155 -188v-1h149v-108h-323s-2 13 -2 26c0 144 196 190 196 265c0 23 -14 38 -36 38c-29 0 -45 -26 -45 -66c0 -22 5 -35 6 -45zM801 -7
c-86 0 -151 38 -177 95l126 60c5 -32 21 -50 48 -50c26 0 42 22 42 52c0 31 -15 54 -43 54c-27 0 -40 -20 -44 -39l-115 45l28 217h276v-104h-169l-2 -17c-3 -23 -9 -46 -9 -46l1 -1c14 15 40 30 78 30c69 0 130 -50 130 -139c0 -93 -72 -157 -170 -157z" />
    <glyph glyph-name="uni2157" unicode="&#x2157;" horiz-adv-x="982" 
d="M195 44l464 668l110 -65l-464 -668zM783 -7c-86 0 -151 38 -177 95l126 60c5 -32 21 -50 48 -50c26 0 42 22 42 52c0 31 -15 54 -43 54c-27 0 -40 -20 -44 -39l-115 45l28 217h276v-104h-169l-2 -17c-3 -23 -9 -46 -9 -46l1 -1c14 15 40 30 78 30c69 0 130 -50 130 -139
c0 -93 -72 -157 -170 -157zM183 270c-86 0 -153 38 -179 95l125 60c6 -35 24 -50 51 -50c28 0 40 19 40 44s-18 43 -46 43c-27 0 -44 -10 -65 -21l-45 101l85 58h-125v104h316v-86l-74 -46c-24 -17 -69 -33 -69 -33l1 -3s8 1 16 1c75 0 138 -43 138 -126
c0 -80 -73 -141 -169 -141z" />
    <glyph glyph-name="uni2158" unicode="&#x2158;" horiz-adv-x="1008" 
d="M229 44l464 668l110 -65l-464 -668zM809 -7c-86 0 -151 38 -177 95l126 60c5 -32 21 -50 48 -50c26 0 42 22 42 52c0 31 -15 54 -43 54c-27 0 -40 -20 -44 -39l-115 45l28 217h276v-104h-169l-2 -17c-3 -23 -9 -46 -9 -46l1 -1c14 15 40 30 78 30c69 0 130 -50 130 -139
c0 -93 -72 -157 -170 -157zM210 372h-165l-29 71c33 63 53 139 52 268l126 -56c2 -84 -20 -130 -48 -182h64v231h132v-231h38v-101h-38v-95h-132v95z" />
    <glyph glyph-name="uni2159" unicode="&#x2159;" horiz-adv-x="904" 
d="M138 44l464 668l110 -65l-464 -668zM114 564h-3c-16 -16 -37 -29 -61 -35l-51 108c51 8 103 27 140 67h103v-427h-132v223c0 25 4 64 4 64zM711 434c63 0 118 -29 156 -76l-116 -62c-3 21 -17 38 -40 38c-34 0 -61 -29 -71 -87h2c21 26 56 40 84 40
c65 0 139 -44 139 -137c0 -98 -79 -157 -174 -157c-107 0 -179 71 -179 204c0 149 79 237 199 237zM740 144c0 32 -16 57 -49 57c-32 0 -50 -25 -50 -57s18 -56 50 -56s49 24 49 56z" />
    <glyph glyph-name="uni215A" unicode="&#x215a;" horiz-adv-x="965" 
d="M197 44l464 668l110 -65l-464 -668zM772 434c63 0 118 -29 156 -76l-116 -62c-3 21 -17 38 -40 38c-34 0 -61 -29 -71 -87h2c21 26 56 40 84 40c65 0 139 -44 139 -137c0 -98 -79 -157 -174 -157c-107 0 -179 71 -179 204c0 149 79 237 199 237zM801 144
c0 32 -16 57 -49 57c-32 0 -50 -25 -50 -57s18 -56 50 -56s49 24 49 56zM188 270c-86 0 -151 38 -177 95l126 60c5 -32 21 -50 48 -50c26 0 42 22 42 52c0 31 -15 54 -43 54c-27 0 -40 -20 -44 -39l-115 45l28 217h276v-104h-169l-2 -17c-3 -23 -9 -46 -9 -46l1 -1
c14 15 40 30 78 30c69 0 130 -50 130 -139c0 -93 -72 -157 -170 -157z" />
    <glyph glyph-name="oneeighth" unicode="&#x215b;" horiz-adv-x="933" 
d="M138 44l464 668l110 -65l-464 -668zM114 564h-3c-16 -16 -37 -29 -61 -35l-51 108c51 8 103 27 140 67h103v-427h-132v223c0 25 4 64 4 64zM716 -7c-103 0 -184 48 -184 127c0 69 62 97 92 107v2c-31 10 -75 35 -75 91c0 72 76 114 167 114c94 0 168 -42 168 -114
c0 -56 -45 -81 -75 -91v-2c29 -10 91 -38 91 -107c0 -79 -80 -127 -184 -127zM661 129c0 -28 24 -41 55 -41s56 13 56 41c0 29 -25 42 -56 42s-55 -13 -55 -42zM666 303c0 -25 23 -37 50 -37s50 12 50 37s-23 36 -50 36s-50 -11 -50 -36z" />
    <glyph glyph-name="threeeighths" unicode="&#x215c;" horiz-adv-x="990" 
d="M195 44l464 668l110 -65l-464 -668zM773 -7c-103 0 -184 48 -184 127c0 69 62 97 92 107v2c-31 10 -75 35 -75 91c0 72 76 114 167 114c94 0 168 -42 168 -114c0 -56 -45 -81 -75 -91v-2c29 -10 91 -38 91 -107c0 -79 -80 -127 -184 -127zM718 129c0 -28 24 -41 55 -41
s56 13 56 41c0 29 -25 42 -56 42s-55 -13 -55 -42zM723 303c0 -25 23 -37 50 -37s50 12 50 37s-23 36 -50 36s-50 -11 -50 -36zM183 270c-86 0 -153 38 -179 95l125 60c6 -35 24 -50 51 -50c28 0 40 19 40 44s-18 43 -46 43c-27 0 -44 -10 -65 -21l-45 101l85 58h-125v104
h316v-86l-74 -46c-24 -17 -69 -33 -69 -33l1 -3s8 1 16 1c75 0 138 -43 138 -126c0 -80 -73 -141 -169 -141z" />
    <glyph glyph-name="fiveeighths" unicode="&#x215d;" horiz-adv-x="992" 
d="M197 44l464 668l110 -65l-464 -668zM188 270c-86 0 -151 38 -177 95l126 60c5 -32 21 -50 48 -50c26 0 42 22 42 52c0 31 -15 54 -43 54c-27 0 -40 -20 -44 -39l-115 45l28 217h276v-104h-169l-2 -17c-3 -23 -9 -46 -9 -46l1 -1c14 15 40 30 78 30c69 0 130 -50 130 -139
c0 -93 -72 -157 -170 -157zM775 -7c-103 0 -184 48 -184 127c0 69 62 97 92 107v2c-31 10 -75 35 -75 91c0 72 76 114 167 114c94 0 168 -42 168 -114c0 -56 -45 -81 -75 -91v-2c29 -10 91 -38 91 -107c0 -79 -80 -127 -184 -127zM720 129c0 -28 24 -41 55 -41s56 13 56 41
c0 29 -25 42 -56 42s-55 -13 -55 -42zM725 303c0 -25 23 -37 50 -37s50 12 50 37s-23 36 -50 36s-50 -11 -50 -36z" />
    <glyph glyph-name="seveneighths" unicode="&#x215e;" horiz-adv-x="981" 
d="M178 44l464 668l110 -65l-464 -668zM764 -7c-103 0 -184 48 -184 127c0 69 62 97 92 107v2c-31 10 -75 35 -75 91c0 72 76 114 167 114c94 0 168 -42 168 -114c0 -56 -45 -81 -75 -91v-2c29 -10 91 -38 91 -107c0 -79 -80 -127 -184 -127zM709 129c0 -28 24 -41 55 -41
s56 13 56 41c0 29 -25 42 -56 42s-55 -13 -55 -42zM714 303c0 -25 23 -37 50 -37s50 12 50 37s-23 36 -50 36s-50 -11 -50 -36zM348 704v-71c-64 -135 -87 -245 -102 -356h-150c13 109 72 243 109 319h-74v-96l-126 56v148h343z" />
    <glyph glyph-name="uni03A9" unicode="&#x3a9;" horiz-adv-x="722" 
d="M332 136v-136h-292v154h26c48 0 80 -9 80 -9l1 2c-66 63 -109 147 -109 241c0 199 140 316 323 316s323 -117 323 -316c0 -94 -43 -178 -110 -241l2 -2s32 9 80 9h26v-154h-292v136c62 48 104 120 104 228c0 92 -35 177 -133 177s-133 -85 -133 -177
c0 -108 42 -180 104 -228z" />
    <glyph glyph-name="uni0394" unicode="&#x394;" horiz-adv-x="663" 
d="M13 0v122l211 570h211l215 -570v-122h-637zM302 417l-89 -259h228l-88 259c-14 40 -23 85 -23 85h-4s-10 -45 -24 -85z" />
    <glyph glyph-name="uni03BC" unicode="&#x3bc;" horiz-adv-x="564" 
d="M48 -196v700h180v-292c0 -44 10 -76 50 -76c38 0 56 25 58 72v296h180v-504h-180l8 80h-4c-26 -45 -60 -85 -128 -91c4 -27 12 -86 12 -150v-35h-176z" />
    <glyph glyph-name="uni00AD" unicode="&#xad;" horiz-adv-x="359" 
d="M319 219h-279v146h279v-146z" />
    <glyph glyph-name="uni2219" unicode="&#x2219;" horiz-adv-x="290" 
d="M57 213v170h188v-170h-188z" />
    <glyph glyph-name="uni02C9" unicode="&#x2c9;" horiz-adv-x="556" 
d="M129 564v128h299v-128h-299z" />
    <glyph glyph-name="uni2215" unicode="&#x2215;" horiz-adv-x="210" 
d="M-176 44l464 668l110 -65l-464 -668z" />
    <glyph glyph-name="AEacute" unicode="&#x1fc;" horiz-adv-x="872" 
d="M410 0v140h-169l-58 -140h-199l312 692h544v-153h-250v-114h230v-149h-230v-123h258v-153h-438zM377 463l-74 -175h107v251h-4s-16 -45 -29 -76zM507 728l-85 49c54 48 102 119 127 179l132 -84c-39 -59 -118 -116 -174 -144z" />
    <glyph glyph-name="Agrave" unicode="&#xc0;" horiz-adv-x="693" 
d="M501 0l-42 132h-234l-41 -132h-184l233 692h227l233 -692h-192zM320 433l-47 -149h139l-47 149c-13 40 -20 81 -20 81h-4s-8 -41 -21 -81zM423 777l-85 -49c-56 28 -135 85 -174 144l132 84c25 -60 73 -131 127 -179z" />
    <glyph glyph-name="Aacute" unicode="&#xc1;" horiz-adv-x="693" 
d="M501 0l-42 132h-234l-41 -132h-184l233 692h227l233 -692h-192zM320 433l-47 -149h139l-47 149c-13 40 -20 81 -20 81h-4s-8 -41 -21 -81zM354 728l-85 49c54 48 102 119 127 179l132 -84c-39 -59 -118 -116 -174 -144z" />
    <glyph glyph-name="Adieresis" unicode="&#xc4;" horiz-adv-x="693" 
d="M501 0l-42 132h-234l-41 -132h-184l233 692h227l233 -692h-192zM320 433l-47 -149h139l-47 149c-13 40 -20 81 -20 81h-4s-8 -41 -21 -81zM240 900c50 0 87 -36 87 -86s-37 -86 -87 -86s-87 36 -87 86s37 86 87 86zM453 900c50 0 87 -36 87 -86s-37 -86 -87 -86
s-87 36 -87 86s37 86 87 86z" />
    <glyph glyph-name="Acircumflex" unicode="&#xc2;" horiz-adv-x="693" 
d="M501 0l-42 132h-234l-41 -132h-184l233 692h227l233 -692h-192zM320 433l-47 -149h139l-47 149c-13 40 -20 81 -20 81h-4s-8 -41 -21 -81zM348 798h-4c-28 -32 -71 -66 -123 -86l-75 107c56 18 113 47 149 85h102c36 -38 93 -67 149 -85l-75 -107c-52 20 -95 54 -123 86z
" />
    <glyph glyph-name="Amacron" unicode="&#x100;" horiz-adv-x="693" 
d="M501 0l-42 132h-234l-41 -132h-184l233 692h227l233 -692h-192zM320 433l-47 -149h139l-47 149c-13 40 -20 81 -20 81h-4s-8 -41 -21 -81zM197 744v128h299v-128h-299z" />
    <glyph glyph-name="Atilde" unicode="&#xc3;" horiz-adv-x="693" 
d="M501 0l-42 132h-234l-41 -132h-184l233 692h227l233 -692h-192zM320 433l-47 -149h139l-47 149c-13 40 -20 81 -20 81h-4s-8 -41 -21 -81zM426 728c-64 0 -101 49 -133 49c-20 0 -29 -21 -31 -49l-108 58c7 72 56 118 112 118c64 0 101 -48 133 -48c20 0 29 20 31 48
l108 -58c-7 -72 -56 -118 -112 -118z" />
    <glyph glyph-name="Aring" unicode="&#xc5;" horiz-adv-x="693" 
d="M501 0l-42 132h-234l-41 -132h-184l233 692h227l233 -692h-192zM320 433l-47 -149h139l-47 149c-13 40 -20 81 -20 81h-4s-8 -41 -21 -81zM346 874c-22 0 -37 -15 -37 -37c0 -23 15 -37 37 -37s37 15 37 37s-15 37 -37 37zM346 950c68 0 129 -45 129 -113
s-61 -113 -129 -113s-129 45 -129 113s61 113 129 113z" />
    <glyph glyph-name="Abreve" unicode="&#x102;" horiz-adv-x="693" 
d="M501 0l-42 132h-234l-41 -132h-184l233 692h227l233 -692h-192zM320 433l-47 -149h139l-47 149c-13 40 -20 81 -20 81h-4s-8 -41 -21 -81zM346 728c-92 0 -163 52 -179 144l131 37s-1 -12 -1 -17c0 -30 15 -54 49 -54s49 24 49 54c0 5 -1 17 -1 17l131 -37
c-16 -92 -87 -144 -179 -144z" />
    <glyph glyph-name="Aogonek" unicode="&#x104;" horiz-adv-x="694" 
d="M623 -81l100 -55c-33 -43 -87 -72 -149 -72c-80 0 -136 40 -136 100c0 51 32 81 65 108l-41 130h-236l-40 -130h-186l233 692h227l233 -692c-56 -2 -145 -37 -145 -89c0 -18 13 -28 33 -28c19 0 35 13 42 36zM322 435l-49 -155h142l-48 155c-12 40 -20 85 -20 85h-4
s-9 -45 -21 -85z" />
    <glyph glyph-name="Cacute" unicode="&#x106;" horiz-adv-x="651" 
d="M351 -12c-183 0 -327 136 -327 360s144 356 327 356c137 0 257 -97 292 -209l-173 -109c0 81 -41 155 -119 155c-98 0 -137 -87 -137 -193s39 -197 137 -197c78 0 119 78 119 159l173 -109c-35 -112 -155 -213 -292 -213zM359 728l-85 49c54 48 102 119 127 179l132 -84
c-39 -59 -118 -116 -174 -144z" />
    <glyph glyph-name="Cdotaccent" unicode="&#x10a;" horiz-adv-x="651" 
d="M351 -12c-183 0 -327 136 -327 360s144 356 327 356c137 0 257 -97 292 -209l-173 -109c0 81 -41 155 -119 155c-98 0 -137 -87 -137 -193s39 -197 137 -197c78 0 119 78 119 159l173 -109c-35 -112 -155 -213 -292 -213zM351 914c54 0 98 -39 98 -93s-44 -93 -98 -93
s-98 39 -98 93s44 93 98 93z" />
    <glyph glyph-name="Ccircumflex" unicode="&#x108;" horiz-adv-x="651" 
d="M351 -12c-183 0 -327 136 -327 360s144 356 327 356c137 0 257 -97 292 -209l-173 -109c0 81 -41 155 -119 155c-98 0 -137 -87 -137 -193s39 -197 137 -197c78 0 119 78 119 159l173 -109c-35 -112 -155 -213 -292 -213zM353 798h-4c-28 -32 -71 -66 -123 -86l-75 107
c56 18 113 47 149 85h102c36 -38 93 -67 149 -85l-75 -107c-52 20 -95 54 -123 86z" />
    <glyph glyph-name="Ccaron" unicode="&#x10c;" horiz-adv-x="651" 
d="M351 -12c-183 0 -327 136 -327 360s144 356 327 356c137 0 257 -97 292 -209l-173 -109c0 81 -41 155 -119 155c-98 0 -137 -87 -137 -193s39 -197 137 -197c78 0 119 78 119 159l173 -109c-35 -112 -155 -213 -292 -213zM349 842h4c28 32 71 66 123 86l75 -107
c-56 -18 -113 -47 -149 -85h-102c-36 38 -93 67 -149 85l75 107c52 -20 95 -54 123 -86z" />
    <glyph glyph-name="Ccedilla" unicode="&#xc7;" horiz-adv-x="651" 
d="M643 201c-31 -100 -130 -191 -248 -209l-5 -20c48 -6 92 -32 92 -85c0 -64 -66 -95 -130 -95c-50 0 -96 16 -126 50l74 58c12 -25 29 -42 56 -42c19 0 35 8 35 29c0 18 -16 28 -35 28c-14 0 -23 -6 -23 -6l-53 39l24 43c-160 21 -280 152 -280 357c0 224 144 356 327 356
c137 0 257 -97 292 -209l-173 -109c0 81 -41 155 -119 155c-98 0 -137 -87 -137 -193s39 -197 137 -197c78 0 119 78 119 159z" />
    <glyph glyph-name="Dcaron" unicode="&#x10e;" horiz-adv-x="694" 
d="M52 692h278c200 0 340 -130 340 -344s-140 -348 -340 -348h-278v692zM480 348c0 95 -38 185 -136 185h-106v-374h106c98 0 136 93 136 189zM328 842h4c28 32 71 66 123 86l75 -107c-56 -18 -113 -47 -149 -85h-102c-36 38 -93 67 -149 85l75 107c52 -20 95 -54 123 -86z
" />
    <glyph glyph-name="Egrave" unicode="&#xc8;" horiz-adv-x="578" 
d="M52 0v692h494v-157h-310v-108h290v-153h-290v-117h318v-157h-502zM376 777l-85 -49c-56 28 -135 85 -174 144l132 84c25 -60 73 -131 127 -179z" />
    <glyph glyph-name="Eacute" unicode="&#xc9;" horiz-adv-x="578" 
d="M52 0v692h494v-157h-310v-108h290v-153h-290v-117h318v-157h-502zM307 728l-85 49c54 48 102 119 127 179l132 -84c-39 -59 -118 -116 -174 -144z" />
    <glyph glyph-name="Edotaccent" unicode="&#x116;" horiz-adv-x="578" 
d="M52 0v692h494v-157h-310v-108h290v-153h-290v-117h318v-157h-502zM299 914c54 0 98 -39 98 -93s-44 -93 -98 -93s-98 39 -98 93s44 93 98 93z" />
    <glyph glyph-name="Edieresis" unicode="&#xcb;" horiz-adv-x="578" 
d="M52 0v692h494v-157h-310v-108h290v-153h-290v-117h318v-157h-502zM193 900c50 0 87 -36 87 -86s-37 -86 -87 -86s-87 36 -87 86s37 86 87 86zM406 900c50 0 87 -36 87 -86s-37 -86 -87 -86s-87 36 -87 86s37 86 87 86z" />
    <glyph glyph-name="Ecircumflex" unicode="&#xca;" horiz-adv-x="578" 
d="M52 0v692h494v-157h-310v-108h290v-153h-290v-117h318v-157h-502zM301 798h-4c-28 -32 -71 -66 -123 -86l-75 107c56 18 113 47 149 85h102c36 -38 93 -67 149 -85l-75 -107c-52 20 -95 54 -123 86z" />
    <glyph glyph-name="Ecaron" unicode="&#x11a;" horiz-adv-x="578" 
d="M52 0v692h494v-157h-310v-108h290v-153h-290v-117h318v-157h-502zM297 842h4c28 32 71 66 123 86l75 -107c-56 -18 -113 -47 -149 -85h-102c-36 38 -93 67 -149 85l75 107c52 -20 95 -54 123 -86z" />
    <glyph glyph-name="Emacron" unicode="&#x112;" horiz-adv-x="578" 
d="M52 0v692h494v-157h-310v-108h290v-153h-290v-117h318v-157h-502zM150 744v128h299v-128h-299z" />
    <glyph glyph-name="Ebreve" unicode="&#x114;" horiz-adv-x="578" 
d="M52 0v692h494v-157h-310v-108h290v-153h-290v-117h318v-157h-502zM299 728c-92 0 -163 52 -179 144l131 37s-1 -12 -1 -17c0 -30 15 -54 49 -54s49 24 49 54c0 5 -1 17 -1 17l131 -37c-16 -92 -87 -144 -179 -144z" />
    <glyph glyph-name="Eogonek" unicode="&#x118;" horiz-adv-x="578" 
d="M52 0v692h494v-157h-310v-108h290v-153h-290v-117h318v-157l-51 -24c-35 -17 -72 -41 -72 -65c0 -18 13 -28 33 -28c19 0 35 13 42 36l100 -55c-33 -43 -87 -72 -149 -72c-80 0 -136 40 -136 100c0 51 43 86 78 105l5 3h-352z" />
    <glyph glyph-name="Gdotaccent" unicode="&#x120;" horiz-adv-x="686" 
d="M355 543c-98 0 -143 -89 -143 -195s45 -203 143 -203c74 0 109 66 114 113h-165v149h337v-407h-157l10 77h-4c-25 -40 -76 -89 -178 -89c-164 0 -288 136 -288 360s147 356 331 356c133 0 240 -58 295 -162l-172 -109c-4 61 -53 110 -123 110zM355 914
c54 0 98 -39 98 -93s-44 -93 -98 -93s-98 39 -98 93s44 93 98 93z" />
    <glyph glyph-name="Gcircumflex" unicode="&#x11c;" horiz-adv-x="686" 
d="M355 543c-98 0 -143 -89 -143 -195s45 -203 143 -203c74 0 109 66 114 113h-165v149h337v-407h-157l10 77h-4c-25 -40 -76 -89 -178 -89c-164 0 -288 136 -288 360s147 356 331 356c133 0 240 -58 295 -162l-172 -109c-4 61 -53 110 -123 110zM357 798h-4
c-28 -32 -71 -66 -123 -86l-75 107c56 18 113 47 149 85h102c36 -38 93 -67 149 -85l-75 -107c-52 20 -95 54 -123 86z" />
    <glyph glyph-name="Gbreve" unicode="&#x11e;" horiz-adv-x="686" 
d="M355 543c-98 0 -143 -89 -143 -195s45 -203 143 -203c74 0 109 66 114 113h-165v149h337v-407h-157l10 77h-4c-25 -40 -76 -89 -178 -89c-164 0 -288 136 -288 360s147 356 331 356c133 0 240 -58 295 -162l-172 -109c-4 61 -53 110 -123 110zM355 728
c-92 0 -163 52 -179 144l131 37s-1 -12 -1 -17c0 -30 15 -54 49 -54s49 24 49 54c0 5 -1 17 -1 17l131 -37c-16 -92 -87 -144 -179 -144z" />
    <glyph glyph-name="uni0122" unicode="&#x122;" horiz-adv-x="686" 
d="M355 543c-98 0 -143 -89 -143 -195s45 -203 143 -203c74 0 109 66 114 113h-165v149h337v-407h-157l10 77h-4c-25 -40 -76 -89 -178 -89c-164 0 -288 136 -288 360s147 356 331 356c133 0 240 -58 295 -162l-172 -109c-4 61 -53 110 -123 110zM252 -226c34 7 82 17 90 59
h-6c-36 0 -69 21 -69 63s31 63 73 63c52 0 88 -41 88 -97c0 -64 -39 -114 -83 -138z" />
    <glyph glyph-name="Hcircumflex" unicode="&#x124;" horiz-adv-x="701" 
d="M463 0v268h-225v-268h-186v692h186v-259h225v259h186v-692h-186zM352 798h-4c-28 -32 -71 -66 -123 -86l-75 107c56 18 113 47 149 85h102c36 -38 93 -67 149 -85l-75 -107c-52 20 -95 54 -123 86z" />
    <glyph glyph-name="Igrave" unicode="&#xcc;" horiz-adv-x="292" 
d="M52 0v692h188v-692h-188zM223 777l-85 -49c-56 28 -135 85 -174 144l132 84c25 -60 73 -131 127 -179z" />
    <glyph glyph-name="Iacute" unicode="&#xcd;" horiz-adv-x="292" 
d="M52 0v692h188v-692h-188zM154 728l-85 49c54 48 102 119 127 179l132 -84c-39 -59 -118 -116 -174 -144z" />
    <glyph glyph-name="Idotaccent" unicode="&#x130;" horiz-adv-x="292" 
d="M52 0v692h188v-692h-188zM146 914c54 0 98 -39 98 -93s-44 -93 -98 -93s-98 39 -98 93s44 93 98 93z" />
    <glyph glyph-name="Idieresis" unicode="&#xcf;" horiz-adv-x="292" 
d="M52 0v692h188v-692h-188zM40 900c50 0 87 -36 87 -86s-37 -86 -87 -86s-87 36 -87 86s37 86 87 86zM253 900c50 0 87 -36 87 -86s-37 -86 -87 -86s-87 36 -87 86s37 86 87 86z" />
    <glyph glyph-name="Icircumflex" unicode="&#xce;" horiz-adv-x="292" 
d="M52 0v692h188v-692h-188zM148 798h-4c-28 -32 -71 -66 -123 -86l-75 107c56 18 113 47 149 85h102c36 -38 93 -67 149 -85l-75 -107c-52 20 -95 54 -123 86z" />
    <glyph glyph-name="Imacron" unicode="&#x12a;" horiz-adv-x="292" 
d="M52 0v692h188v-692h-188zM-3 744v128h299v-128h-299z" />
    <glyph glyph-name="Itilde" unicode="&#x128;" horiz-adv-x="292" 
d="M52 0v692h188v-692h-188zM226 728c-64 0 -101 49 -133 49c-20 0 -29 -21 -31 -49l-108 58c7 72 56 118 112 118c64 0 101 -48 133 -48c20 0 29 20 31 48l108 -58c-7 -72 -56 -118 -112 -118z" />
    <glyph glyph-name="Ibreve" unicode="&#x12c;" horiz-adv-x="292" 
d="M52 0v692h188v-692h-188zM146 728c-92 0 -163 52 -179 144l131 37s-1 -12 -1 -17c0 -30 15 -54 49 -54s49 24 49 54c0 5 -1 17 -1 17l131 -37c-16 -92 -87 -144 -179 -144z" />
    <glyph glyph-name="Iogonek" unicode="&#x12e;" horiz-adv-x="294" 
d="M171 -81l100 -55c-33 -43 -87 -72 -149 -72c-80 0 -136 40 -136 100c0 51 31 81 64 108l3 2v690h188v-692h-6c-56 -4 -139 -38 -139 -89c0 -18 13 -28 33 -28c19 0 35 13 42 36z" />
    <glyph glyph-name="Jcircumflex" unicode="&#x134;" horiz-adv-x="594" 
d="M360 692h186v-408c0 -218 -119 -296 -263 -296s-263 80 -263 270v5l190 120s-7 -60 -7 -112c0 -73 24 -120 79 -120s78 46 78 120v421zM457 798h-4c-28 -32 -71 -66 -123 -86l-75 107c56 18 113 47 149 85h102c36 -38 93 -67 149 -85l-75 -107c-52 20 -95 54 -123 86z
" />
    <glyph glyph-name="uni0136" unicode="&#x136;" horiz-adv-x="664" 
d="M52 0v692h186v-190c0 -61 -6 -136 -6 -136h4s35 70 79 134l131 192h213l-214 -283l227 -409h-206l-141 256l-87 -119v-137h-186zM264 -226c34 7 82 17 90 59h-6c-36 0 -69 21 -69 63s31 63 73 63c52 0 88 -41 88 -97c0 -64 -39 -114 -83 -138z" />
    <glyph glyph-name="Lacute" unicode="&#x139;" horiz-adv-x="538" 
d="M52 0v692h188v-527h282v-165h-470zM152 728l-85 49c54 48 102 119 127 179l132 -84c-39 -59 -118 -116 -174 -144z" />
    <glyph glyph-name="uni013B" unicode="&#x13b;" horiz-adv-x="538" 
d="M52 0v692h188v-527h282v-165h-470zM199 -226c34 7 82 17 90 59h-6c-36 0 -69 21 -69 63s31 63 73 63c52 0 88 -41 88 -97c0 -64 -39 -114 -83 -138z" />
    <glyph glyph-name="Nacute" unicode="&#x143;" horiz-adv-x="717" 
d="M665 0h-240l-148 322c-21 46 -56 144 -56 144h-4s8 -97 8 -159v-307h-173v692h240l148 -322c21 -46 60 -144 60 -144h4s-11 97 -11 159v307h172v-692zM365 728l-85 49c54 48 102 119 127 179l132 -84c-39 -59 -118 -116 -174 -144z" />
    <glyph glyph-name="Ncaron" unicode="&#x147;" horiz-adv-x="717" 
d="M665 0h-240l-148 322c-21 46 -56 144 -56 144h-4s8 -97 8 -159v-307h-173v692h240l148 -322c21 -46 60 -144 60 -144h4s-11 97 -11 159v307h172v-692zM355 842h4c28 32 71 66 123 86l75 -107c-56 -18 -113 -47 -149 -85h-102c-36 38 -93 67 -149 85l75 107
c52 -20 95 -54 123 -86z" />
    <glyph glyph-name="Ntilde" unicode="&#xd1;" horiz-adv-x="717" 
d="M665 0h-240l-148 322c-21 46 -56 144 -56 144h-4s8 -97 8 -159v-307h-173v692h240l148 -322c21 -46 60 -144 60 -144h4s-11 97 -11 159v307h172v-692zM437 728c-64 0 -101 49 -133 49c-20 0 -29 -21 -31 -49l-108 58c7 72 56 118 112 118c64 0 101 -48 133 -48
c20 0 29 20 31 48l108 -58c-7 -72 -56 -118 -112 -118z" />
    <glyph glyph-name="uni0145" unicode="&#x145;" horiz-adv-x="717" 
d="M665 0h-240l-148 322c-21 46 -56 144 -56 144h-4s8 -97 8 -159v-307h-173v692h240l148 -322c21 -46 60 -144 60 -144h4s-11 97 -11 159v307h172v-692zM270 -226c34 7 82 17 90 59h-6c-36 0 -69 21 -69 63s31 63 73 63c52 0 88 -41 88 -97c0 -64 -39 -114 -83 -138z" />
    <glyph glyph-name="Ograve" unicode="&#xd2;" horiz-adv-x="703" 
d="M351 -12c-183 0 -327 136 -327 360s144 356 327 356c184 0 328 -132 328 -356s-144 -360 -328 -360zM489 348c0 106 -40 193 -138 193s-137 -87 -137 -193s39 -197 137 -197s138 91 138 197zM428 777l-85 -49c-56 28 -135 85 -174 144l132 84c25 -60 73 -131 127 -179z
" />
    <glyph glyph-name="Oacute" unicode="&#xd3;" horiz-adv-x="703" 
d="M351 -12c-183 0 -327 136 -327 360s144 356 327 356c184 0 328 -132 328 -356s-144 -360 -328 -360zM489 348c0 106 -40 193 -138 193s-137 -87 -137 -193s39 -197 137 -197s138 91 138 197zM359 728l-85 49c54 48 102 119 127 179l132 -84c-39 -59 -118 -116 -174 -144z
" />
    <glyph glyph-name="Ohungarumlaut" unicode="&#x150;" horiz-adv-x="703" 
d="M351 -12c-183 0 -327 136 -327 360s144 356 327 356c184 0 328 -132 328 -356s-144 -360 -328 -360zM489 348c0 106 -40 193 -138 193s-137 -87 -137 -193s39 -197 137 -197s138 91 138 197zM250 728l-81 49c51 48 96 119 119 179l124 -84c-37 -59 -109 -116 -162 -144z
M468 728l-81 49c51 48 96 119 119 179l124 -84c-37 -59 -109 -116 -162 -144z" />
    <glyph glyph-name="Odieresis" unicode="&#xd6;" horiz-adv-x="703" 
d="M351 -12c-183 0 -327 136 -327 360s144 356 327 356c184 0 328 -132 328 -356s-144 -360 -328 -360zM489 348c0 106 -40 193 -138 193s-137 -87 -137 -193s39 -197 137 -197s138 91 138 197zM245 900c50 0 87 -36 87 -86s-37 -86 -87 -86s-87 36 -87 86s37 86 87 86z
M458 900c50 0 87 -36 87 -86s-37 -86 -87 -86s-87 36 -87 86s37 86 87 86z" />
    <glyph glyph-name="Ocircumflex" unicode="&#xd4;" horiz-adv-x="703" 
d="M351 -12c-183 0 -327 136 -327 360s144 356 327 356c184 0 328 -132 328 -356s-144 -360 -328 -360zM489 348c0 106 -40 193 -138 193s-137 -87 -137 -193s39 -197 137 -197s138 91 138 197zM353 798h-4c-28 -32 -71 -66 -123 -86l-75 107c56 18 113 47 149 85h102
c36 -38 93 -67 149 -85l-75 -107c-52 20 -95 54 -123 86z" />
    <glyph glyph-name="Omacron" unicode="&#x14c;" horiz-adv-x="703" 
d="M351 -12c-183 0 -327 136 -327 360s144 356 327 356c184 0 328 -132 328 -356s-144 -360 -328 -360zM489 348c0 106 -40 193 -138 193s-137 -87 -137 -193s39 -197 137 -197s138 91 138 197zM202 744v128h299v-128h-299z" />
    <glyph glyph-name="Obreve" unicode="&#x14e;" horiz-adv-x="703" 
d="M351 -12c-183 0 -327 136 -327 360s144 356 327 356c184 0 328 -132 328 -356s-144 -360 -328 -360zM489 348c0 106 -40 193 -138 193s-137 -87 -137 -193s39 -197 137 -197s138 91 138 197zM351 728c-92 0 -163 52 -179 144l131 37s-1 -12 -1 -17c0 -30 15 -54 49 -54
s49 24 49 54c0 5 -1 17 -1 17l131 -37c-16 -92 -87 -144 -179 -144z" />
    <glyph glyph-name="Otilde" unicode="&#xd5;" horiz-adv-x="703" 
d="M351 -12c-183 0 -327 136 -327 360s144 356 327 356c184 0 328 -132 328 -356s-144 -360 -328 -360zM489 348c0 106 -40 193 -138 193s-137 -87 -137 -193s39 -197 137 -197s138 91 138 197zM431 728c-64 0 -101 49 -133 49c-20 0 -29 -21 -31 -49l-108 58
c7 72 56 118 112 118c64 0 101 -48 133 -48c20 0 29 20 31 48l108 -58c-7 -72 -56 -118 -112 -118z" />
    <glyph glyph-name="Oslashacute" unicode="&#x1fe;" horiz-adv-x="723" 
d="M361 -12c-54 0 -106 13 -151 38l-62 -81l-120 95l69 90c-40 59 -63 133 -63 218c0 224 144 356 327 356c53 0 104 -13 149 -37l65 85l120 -95l-70 -93c40 -57 64 -131 64 -216c0 -224 -144 -360 -328 -360zM509 348c0 27 -3 54 -9 78l-203 -272c18 -10 39 -15 64 -15
c104 0 148 99 148 209zM424 538c-18 9 -39 15 -63 15c-104 0 -147 -95 -147 -205c0 -28 2 -54 8 -79zM369 728l-85 49c54 48 102 119 127 179l132 -84c-39 -59 -118 -116 -174 -144z" />
    <glyph glyph-name="Racute" unicode="&#x154;" horiz-adv-x="651" 
d="M52 0v692h315c159 0 261 -75 261 -219c0 -94 -52 -160 -125 -194l136 -279h-196l-121 252h-86v-252h-184zM443 473c0 40 -26 68 -82 68h-125v-140h125c56 0 82 32 82 72zM326 728l-85 49c54 48 102 119 127 179l132 -84c-39 -59 -118 -116 -174 -144z" />
    <glyph glyph-name="Rcaron" unicode="&#x158;" horiz-adv-x="651" 
d="M52 0v692h315c159 0 261 -75 261 -219c0 -94 -52 -160 -125 -194l136 -279h-196l-121 252h-86v-252h-184zM443 473c0 40 -26 68 -82 68h-125v-140h125c56 0 82 32 82 72zM316 842h4c28 32 71 66 123 86l75 -107c-56 -18 -113 -47 -149 -85h-102c-36 38 -93 67 -149 85
l75 107c52 -20 95 -54 123 -86z" />
    <glyph glyph-name="uni0156" unicode="&#x156;" horiz-adv-x="651" 
d="M52 0v692h315c159 0 261 -75 261 -219c0 -94 -52 -160 -125 -194l136 -279h-196l-121 252h-86v-252h-184zM443 473c0 40 -26 68 -82 68h-125v-140h125c56 0 82 32 82 72zM253 -226c34 7 82 17 90 59h-6c-36 0 -69 21 -69 63s31 63 73 63c52 0 88 -41 88 -97
c0 -64 -39 -114 -83 -138z" />
    <glyph glyph-name="Sacute" unicode="&#x15a;" horiz-adv-x="612" 
d="M228 292c-112 32 -191 81 -191 197s98 215 264 215c125 0 240 -62 299 -151l-160 -102c-16 65 -77 104 -146 104c-46 0 -76 -21 -76 -50c0 -44 74 -53 166 -80c114 -33 220 -80 220 -212c0 -128 -111 -225 -274 -225c-140 0 -259 66 -324 179l165 105
c26 -81 85 -135 167 -135c57 0 85 27 85 61c0 57 -95 64 -195 94zM312 728l-85 49c54 48 102 119 127 179l132 -84c-39 -59 -118 -116 -174 -144z" />
    <glyph glyph-name="Scaron" unicode="&#x160;" horiz-adv-x="612" 
d="M228 292c-112 32 -191 81 -191 197s98 215 264 215c125 0 240 -62 299 -151l-160 -102c-16 65 -77 104 -146 104c-46 0 -76 -21 -76 -50c0 -44 74 -53 166 -80c114 -33 220 -80 220 -212c0 -128 -111 -225 -274 -225c-140 0 -259 66 -324 179l165 105
c26 -81 85 -135 167 -135c57 0 85 27 85 61c0 57 -95 64 -195 94zM302 842h4c28 32 71 66 123 86l75 -107c-56 -18 -113 -47 -149 -85h-102c-36 38 -93 67 -149 85l75 107c52 -20 95 -54 123 -86z" />
    <glyph glyph-name="Scircumflex" unicode="&#x15c;" horiz-adv-x="612" 
d="M228 292c-112 32 -191 81 -191 197s98 215 264 215c125 0 240 -62 299 -151l-160 -102c-16 65 -77 104 -146 104c-46 0 -76 -21 -76 -50c0 -44 74 -53 166 -80c114 -33 220 -80 220 -212c0 -128 -111 -225 -274 -225c-140 0 -259 66 -324 179l165 105
c26 -81 85 -135 167 -135c57 0 85 27 85 61c0 57 -95 64 -195 94zM306 798h-4c-28 -32 -71 -66 -123 -86l-75 107c56 18 113 47 149 85h102c36 -38 93 -67 149 -85l-75 -107c-52 20 -95 54 -123 86z" />
    <glyph glyph-name="uni0218" unicode="&#x218;" horiz-adv-x="612" 
d="M228 292c-112 32 -191 81 -191 197s98 215 264 215c125 0 240 -62 299 -151l-160 -102c-16 65 -77 104 -146 104c-46 0 -76 -21 -76 -50c0 -44 74 -53 166 -80c114 -33 220 -80 220 -212c0 -128 -111 -225 -274 -225c-140 0 -259 66 -324 179l165 105
c26 -81 85 -135 167 -135c57 0 85 27 85 61c0 57 -95 64 -195 94zM234 -226c34 7 82 17 90 59h-6c-36 0 -69 21 -69 63s31 63 73 63c52 0 88 -41 88 -97c0 -64 -39 -114 -83 -138z" />
    <glyph glyph-name="uni015E" unicode="&#x15e;" horiz-adv-x="612" 
d="M228 292c-112 32 -191 81 -191 197s98 215 264 215c125 0 240 -62 299 -151l-160 -102c-16 65 -77 104 -146 104c-46 0 -76 -21 -76 -50c0 -44 74 -53 166 -80c114 -33 220 -80 220 -212c0 -119 -96 -211 -241 -223l-4 -18c48 -6 92 -32 92 -85c0 -64 -66 -95 -130 -95
c-50 0 -96 16 -126 50l74 58c12 -25 29 -42 56 -42c19 0 35 8 35 29c0 18 -16 28 -35 28c-14 0 -23 -6 -23 -6l-53 39l24 44c-115 15 -211 77 -267 175l165 105c26 -81 85 -135 167 -135c57 0 85 27 85 61c0 57 -95 64 -195 94z" />
    <glyph glyph-name="Tcaron" unicode="&#x164;" horiz-adv-x="583" 
d="M8 527v165h567v-165h-190v-527h-188v527h-189zM289 842h4c28 32 71 66 123 86l75 -107c-56 -18 -113 -47 -149 -85h-102c-36 38 -93 67 -149 85l75 107c52 -20 95 -54 123 -86z" />
    <glyph glyph-name="uni021A" unicode="&#x21a;" horiz-adv-x="583" 
d="M8 527v165h567v-165h-190v-527h-188v527h-189zM182 -226c34 7 82 17 90 59h-6c-36 0 -69 21 -69 63s31 63 73 63c52 0 88 -41 88 -97c0 -64 -39 -114 -83 -138z" />
    <glyph glyph-name="uni0162" unicode="&#x162;" horiz-adv-x="583" 
d="M8 527v165h567v-165h-190v-527h-71l-7 -28c48 -6 92 -32 92 -85c0 -64 -66 -95 -130 -95c-50 0 -96 16 -126 50l74 58c12 -25 29 -42 56 -42c19 0 35 8 35 29c0 18 -16 28 -35 28c-14 0 -23 -6 -23 -6l-53 39l29 52h-29v527h-189z" />
    <glyph glyph-name="Ugrave" unicode="&#xd9;" horiz-adv-x="685" 
d="M343 -12c-161 0 -295 78 -295 297v407h186v-420c0 -74 31 -121 109 -121c77 0 108 47 108 121v420h186v-407c0 -219 -134 -297 -294 -297zM419 777l-85 -49c-56 28 -135 85 -174 144l132 84c25 -60 73 -131 127 -179z" />
    <glyph glyph-name="Uacute" unicode="&#xda;" horiz-adv-x="685" 
d="M343 -12c-161 0 -295 78 -295 297v407h186v-420c0 -74 31 -121 109 -121c77 0 108 47 108 121v420h186v-407c0 -219 -134 -297 -294 -297zM350 728l-85 49c54 48 102 119 127 179l132 -84c-39 -59 -118 -116 -174 -144z" />
    <glyph glyph-name="Uhungarumlaut" unicode="&#x170;" horiz-adv-x="685" 
d="M343 -12c-161 0 -295 78 -295 297v407h186v-420c0 -74 31 -121 109 -121c77 0 108 47 108 121v420h186v-407c0 -219 -134 -297 -294 -297zM241 728l-81 49c51 48 96 119 119 179l124 -84c-37 -59 -109 -116 -162 -144zM459 728l-81 49c51 48 96 119 119 179l124 -84
c-37 -59 -109 -116 -162 -144z" />
    <glyph glyph-name="Udieresis" unicode="&#xdc;" horiz-adv-x="685" 
d="M343 -12c-161 0 -295 78 -295 297v407h186v-420c0 -74 31 -121 109 -121c77 0 108 47 108 121v420h186v-407c0 -219 -134 -297 -294 -297zM236 900c50 0 87 -36 87 -86s-37 -86 -87 -86s-87 36 -87 86s37 86 87 86zM449 900c50 0 87 -36 87 -86s-37 -86 -87 -86
s-87 36 -87 86s37 86 87 86z" />
    <glyph glyph-name="Ucircumflex" unicode="&#xdb;" horiz-adv-x="685" 
d="M343 -12c-161 0 -295 78 -295 297v407h186v-420c0 -74 31 -121 109 -121c77 0 108 47 108 121v420h186v-407c0 -219 -134 -297 -294 -297zM344 798h-4c-28 -32 -71 -66 -123 -86l-75 107c56 18 113 47 149 85h102c36 -38 93 -67 149 -85l-75 -107c-52 20 -95 54 -123 86z
" />
    <glyph glyph-name="Umacron" unicode="&#x16a;" horiz-adv-x="685" 
d="M343 -12c-161 0 -295 78 -295 297v407h186v-420c0 -74 31 -121 109 -121c77 0 108 47 108 121v420h186v-407c0 -219 -134 -297 -294 -297zM193 744v128h299v-128h-299z" />
    <glyph glyph-name="Utilde" unicode="&#x168;" horiz-adv-x="685" 
d="M343 -12c-161 0 -295 78 -295 297v407h186v-420c0 -74 31 -121 109 -121c77 0 108 47 108 121v420h186v-407c0 -219 -134 -297 -294 -297zM422 728c-64 0 -101 49 -133 49c-20 0 -29 -21 -31 -49l-108 58c7 72 56 118 112 118c64 0 101 -48 133 -48c20 0 29 20 31 48
l108 -58c-7 -72 -56 -118 -112 -118z" />
    <glyph glyph-name="Ubreve" unicode="&#x16c;" horiz-adv-x="685" 
d="M343 -12c-161 0 -295 78 -295 297v407h186v-420c0 -74 31 -121 109 -121c77 0 108 47 108 121v420h186v-407c0 -219 -134 -297 -294 -297zM342 728c-92 0 -163 52 -179 144l131 37s-1 -12 -1 -17c0 -30 15 -54 49 -54s49 24 49 54c0 5 -1 17 -1 17l131 -37
c-16 -92 -87 -144 -179 -144z" />
    <glyph glyph-name="Uring" unicode="&#x16e;" horiz-adv-x="685" 
d="M343 -12c-161 0 -295 78 -295 297v407h186v-420c0 -74 31 -121 109 -121c77 0 108 47 108 121v420h186v-407c0 -219 -134 -297 -294 -297zM342 874c-22 0 -37 -15 -37 -37c0 -23 15 -37 37 -37s37 15 37 37s-15 37 -37 37zM342 950c68 0 129 -45 129 -113
s-61 -113 -129 -113s-129 45 -129 113s61 113 129 113z" />
    <glyph glyph-name="Wgrave" unicode="&#x1e80;" horiz-adv-x="869" 
d="M528 692l64 -366c8 -45 18 -128 18 -128h4s3 67 8 113l38 381h197l-114 -692h-227l-61 329c-11 60 -19 131 -19 131h-4s-8 -71 -19 -131l-60 -329h-227l-114 692h198l38 -381c5 -46 8 -113 8 -113h4s10 83 18 128l65 366h185zM511 777l-85 -49c-56 28 -135 85 -174 144
l132 84c25 -60 73 -131 127 -179z" />
    <glyph glyph-name="Wacute" unicode="&#x1e82;" horiz-adv-x="869" 
d="M528 692l64 -366c8 -45 18 -128 18 -128h4s3 67 8 113l38 381h197l-114 -692h-227l-61 329c-11 60 -19 131 -19 131h-4s-8 -71 -19 -131l-60 -329h-227l-114 692h198l38 -381c5 -46 8 -113 8 -113h4s10 83 18 128l65 366h185zM442 728l-85 49c54 48 102 119 127 179
l132 -84c-39 -59 -118 -116 -174 -144z" />
    <glyph glyph-name="Wdieresis" unicode="&#x1e84;" horiz-adv-x="869" 
d="M528 692l64 -366c8 -45 18 -128 18 -128h4s3 67 8 113l38 381h197l-114 -692h-227l-61 329c-11 60 -19 131 -19 131h-4s-8 -71 -19 -131l-60 -329h-227l-114 692h198l38 -381c5 -46 8 -113 8 -113h4s10 83 18 128l65 366h185zM328 900c50 0 87 -36 87 -86
s-37 -86 -87 -86s-87 36 -87 86s37 86 87 86zM541 900c50 0 87 -36 87 -86s-37 -86 -87 -86s-87 36 -87 86s37 86 87 86z" />
    <glyph glyph-name="Wcircumflex" unicode="&#x174;" horiz-adv-x="869" 
d="M528 692l64 -366c8 -45 18 -128 18 -128h4s3 67 8 113l38 381h197l-114 -692h-227l-61 329c-11 60 -19 131 -19 131h-4s-8 -71 -19 -131l-60 -329h-227l-114 692h198l38 -381c5 -46 8 -113 8 -113h4s10 83 18 128l65 366h185zM436 798h-4c-28 -32 -71 -66 -123 -86
l-75 107c56 18 113 47 149 85h102c36 -38 93 -67 149 -85l-75 -107c-52 20 -95 54 -123 86z" />
    <glyph glyph-name="Ygrave" unicode="&#x1ef2;" horiz-adv-x="638" 
d="M224 0v245l-232 447h203l91 -193c23 -48 33 -90 33 -90h4s11 42 34 90l91 193h198l-234 -443v-249h-188zM397 777l-85 -49c-56 28 -135 85 -174 144l132 84c25 -60 73 -131 127 -179z" />
    <glyph glyph-name="Yacute" unicode="&#xdd;" horiz-adv-x="638" 
d="M224 0v245l-232 447h203l91 -193c23 -48 33 -90 33 -90h4s11 42 34 90l91 193h198l-234 -443v-249h-188zM328 728l-85 49c54 48 102 119 127 179l132 -84c-39 -59 -118 -116 -174 -144z" />
    <glyph glyph-name="Ydieresis" unicode="&#x178;" horiz-adv-x="638" 
d="M224 0v245l-232 447h203l91 -193c23 -48 33 -90 33 -90h4s11 42 34 90l91 193h198l-234 -443v-249h-188zM214 900c50 0 87 -36 87 -86s-37 -86 -87 -86s-87 36 -87 86s37 86 87 86zM427 900c50 0 87 -36 87 -86s-37 -86 -87 -86s-87 36 -87 86s37 86 87 86z" />
    <glyph glyph-name="Ycircumflex" unicode="&#x176;" horiz-adv-x="638" 
d="M224 0v245l-232 447h203l91 -193c23 -48 33 -90 33 -90h4s11 42 34 90l91 193h198l-234 -443v-249h-188zM322 798h-4c-28 -32 -71 -66 -123 -86l-75 107c56 18 113 47 149 85h102c36 -38 93 -67 149 -85l-75 -107c-52 20 -95 54 -123 86z" />
    <glyph glyph-name="Zacute" unicode="&#x179;" horiz-adv-x="586" 
d="M24 0v108l290 421h-280v163h523v-118l-281 -411h290v-163h-542zM298 728l-85 49c54 48 102 119 127 179l132 -84c-39 -59 -118 -116 -174 -144z" />
    <glyph glyph-name="Zdotaccent" unicode="&#x17b;" horiz-adv-x="586" 
d="M24 0v108l290 421h-280v163h523v-118l-281 -411h290v-163h-542zM290 914c54 0 98 -39 98 -93s-44 -93 -98 -93s-98 39 -98 93s44 93 98 93z" />
    <glyph glyph-name="Zcaron" unicode="&#x17d;" horiz-adv-x="586" 
d="M24 0v108l290 421h-280v163h523v-118l-281 -411h290v-163h-542zM288 842h4c28 32 71 66 123 86l75 -107c-56 -18 -113 -47 -149 -85h-102c-36 38 -93 67 -149 85l75 107c52 -20 95 -54 123 -86z" />
    <glyph glyph-name="aeacute" unicode="&#x1fd;" horiz-adv-x="794" 
d="M256 384c-41 0 -75 -26 -90 -78l-154 79c46 76 131 131 243 131c59 0 110 -18 145 -54c41 35 93 54 150 54c131 0 222 -96 222 -236c0 -48 -9 -78 -9 -78h-299c5 -72 44 -88 82 -88c40 0 65 23 71 62l147 -80c-40 -60 -113 -108 -218 -108c-69 0 -129 25 -171 72
c-33 -39 -92 -72 -173 -72c-98 0 -176 56 -176 148c0 116 105 146 181 162c64 13 93 25 93 53c0 20 -18 33 -44 33zM542 392c-31 0 -66 -18 -76 -78h142c0 50 -30 78 -66 78zM304 188v39c-10 -9 -29 -19 -59 -28c-28 -8 -49 -18 -49 -44c0 -22 16 -39 46 -39
c34 0 62 24 62 72zM408 548l-85 49c54 48 102 119 127 179l132 -84c-39 -59 -118 -116 -174 -144z" />
    <glyph glyph-name="agrave" unicode="&#xe0;" horiz-adv-x="525" 
d="M262 384c-40 0 -79 -27 -94 -79l-155 79c48 80 137 132 253 132c120 0 213 -68 213 -196v-180c0 -52 0 -96 12 -140h-132c-16 20 -24 36 -32 60h-4c-17 -28 -59 -72 -135 -72c-86 0 -157 56 -157 148c0 116 104 146 180 162c64 13 100 22 100 52c0 20 -21 34 -49 34z
M315 186v45c-12 -15 -33 -25 -62 -33c-31 -9 -52 -19 -52 -45c0 -22 16 -37 48 -37c36 0 66 22 66 70zM332 597l-85 -49c-56 28 -135 85 -174 144l132 84c25 -60 73 -131 127 -179z" />
    <glyph glyph-name="aacute" unicode="&#xe1;" horiz-adv-x="525" 
d="M262 384c-40 0 -79 -27 -94 -79l-155 79c48 80 137 132 253 132c120 0 213 -68 213 -196v-180c0 -52 0 -96 12 -140h-132c-16 20 -24 36 -32 60h-4c-17 -28 -59 -72 -135 -72c-86 0 -157 56 -157 148c0 116 104 146 180 162c64 13 100 22 100 52c0 20 -21 34 -49 34z
M315 186v45c-12 -15 -33 -25 -62 -33c-31 -9 -52 -19 -52 -45c0 -22 16 -37 48 -37c36 0 66 22 66 70zM263 548l-85 49c54 48 102 119 127 179l132 -84c-39 -59 -118 -116 -174 -144z" />
    <glyph glyph-name="adieresis" unicode="&#xe4;" horiz-adv-x="525" 
d="M262 384c-40 0 -79 -27 -94 -79l-155 79c48 80 137 132 253 132c120 0 213 -68 213 -196v-180c0 -52 0 -96 12 -140h-132c-16 20 -24 36 -32 60h-4c-17 -28 -59 -72 -135 -72c-86 0 -157 56 -157 148c0 116 104 146 180 162c64 13 100 22 100 52c0 20 -21 34 -49 34z
M315 186v45c-12 -15 -33 -25 -62 -33c-31 -9 -52 -19 -52 -45c0 -22 16 -37 48 -37c36 0 66 22 66 70zM149 720c50 0 87 -36 87 -86s-37 -86 -87 -86s-87 36 -87 86s37 86 87 86zM362 720c50 0 87 -36 87 -86s-37 -86 -87 -86s-87 36 -87 86s37 86 87 86z" />
    <glyph glyph-name="acircumflex" unicode="&#xe2;" horiz-adv-x="525" 
d="M262 384c-40 0 -79 -27 -94 -79l-155 79c48 80 137 132 253 132c120 0 213 -68 213 -196v-180c0 -52 0 -96 12 -140h-132c-16 20 -24 36 -32 60h-4c-17 -28 -59 -72 -135 -72c-86 0 -157 56 -157 148c0 116 104 146 180 162c64 13 100 22 100 52c0 20 -21 34 -49 34z
M315 186v45c-12 -15 -33 -25 -62 -33c-31 -9 -52 -19 -52 -45c0 -22 16 -37 48 -37c36 0 66 22 66 70zM257 618h-4c-28 -32 -71 -66 -123 -86l-75 107c56 18 113 47 149 85h102c36 -38 93 -67 149 -85l-75 -107c-52 20 -95 54 -123 86z" />
    <glyph glyph-name="amacron" unicode="&#x101;" horiz-adv-x="525" 
d="M262 384c-40 0 -79 -27 -94 -79l-155 79c48 80 137 132 253 132c120 0 213 -68 213 -196v-180c0 -52 0 -96 12 -140h-132c-16 20 -24 36 -32 60h-4c-17 -28 -59 -72 -135 -72c-86 0 -157 56 -157 148c0 116 104 146 180 162c64 13 100 22 100 52c0 20 -21 34 -49 34z
M315 186v45c-12 -15 -33 -25 -62 -33c-31 -9 -52 -19 -52 -45c0 -22 16 -37 48 -37c36 0 66 22 66 70zM106 564v128h299v-128h-299z" />
    <glyph glyph-name="atilde" unicode="&#xe3;" horiz-adv-x="525" 
d="M262 384c-40 0 -79 -27 -94 -79l-155 79c48 80 137 132 253 132c120 0 213 -68 213 -196v-180c0 -52 0 -96 12 -140h-132c-16 20 -24 36 -32 60h-4c-17 -28 -59 -72 -135 -72c-86 0 -157 56 -157 148c0 116 104 146 180 162c64 13 100 22 100 52c0 20 -21 34 -49 34z
M315 186v45c-12 -15 -33 -25 -62 -33c-31 -9 -52 -19 -52 -45c0 -22 16 -37 48 -37c36 0 66 22 66 70zM335 548c-64 0 -101 49 -133 49c-20 0 -29 -21 -31 -49l-108 58c7 72 56 118 112 118c64 0 101 -48 133 -48c20 0 29 20 31 48l108 -58c-7 -72 -56 -118 -112 -118z" />
    <glyph glyph-name="aring" unicode="&#xe5;" horiz-adv-x="525" 
d="M262 384c-40 0 -79 -27 -94 -79l-155 79c48 80 137 132 253 132c120 0 213 -68 213 -196v-180c0 -52 0 -96 12 -140h-132c-16 20 -24 36 -32 60h-4c-17 -28 -59 -72 -135 -72c-86 0 -157 56 -157 148c0 116 104 146 180 162c64 13 100 22 100 52c0 20 -21 34 -49 34z
M315 186v45c-12 -15 -33 -25 -62 -33c-31 -9 -52 -19 -52 -45c0 -22 16 -37 48 -37c36 0 66 22 66 70zM255 694c-22 0 -37 -15 -37 -37c0 -23 15 -37 37 -37s37 15 37 37s-15 37 -37 37zM255 770c68 0 129 -45 129 -113s-61 -113 -129 -113s-129 45 -129 113s61 113 129 113
z" />
    <glyph glyph-name="abreve" unicode="&#x103;" horiz-adv-x="525" 
d="M262 384c-40 0 -79 -27 -94 -79l-155 79c48 80 137 132 253 132c120 0 213 -68 213 -196v-180c0 -52 0 -96 12 -140h-132c-16 20 -24 36 -32 60h-4c-17 -28 -59 -72 -135 -72c-86 0 -157 56 -157 148c0 116 104 146 180 162c64 13 100 22 100 52c0 20 -21 34 -49 34z
M315 186v45c-12 -15 -33 -25 -62 -33c-31 -9 -52 -19 -52 -45c0 -22 16 -37 48 -37c36 0 66 22 66 70zM255 548c-92 0 -163 52 -179 144l131 37s-1 -12 -1 -17c0 -30 15 -54 49 -54s49 24 49 54c0 5 -1 17 -1 17l131 -37c-16 -92 -87 -144 -179 -144z" />
    <glyph glyph-name="aogonek" unicode="&#x105;" horiz-adv-x="525" 
d="M443 -81l100 -55c-33 -43 -87 -72 -149 -72c-80 0 -136 40 -136 100c0 51 43 86 78 105l18 9c-13 17 -20 32 -27 54h-4c-17 -28 -59 -72 -135 -72c-86 0 -157 56 -157 148c0 116 104 146 180 162c64 13 100 22 100 52c0 20 -21 34 -49 34c-40 0 -79 -27 -94 -79l-155 79
c48 80 137 132 253 132c120 0 213 -68 213 -196v-180c0 -52 0 -96 12 -140l-51 -24c-35 -17 -72 -41 -72 -65c0 -18 13 -28 33 -28c19 0 35 13 42 36zM315 186v45c-12 -15 -33 -25 -62 -33c-31 -9 -52 -19 -52 -45c0 -22 16 -37 48 -37c36 0 66 22 66 70z" />
    <glyph glyph-name="cacute" unicode="&#x107;" horiz-adv-x="513" 
d="M274 384c-48 0 -68 -52 -68 -132s20 -132 68 -132s64 44 64 108l163 -78c-20 -88 -103 -162 -227 -162c-136 0 -250 92 -250 264s114 264 250 264c124 0 207 -74 227 -162l-163 -78c0 64 -16 108 -64 108zM278 548l-85 49c54 48 102 119 127 179l132 -84
c-39 -59 -118 -116 -174 -144z" />
    <glyph glyph-name="cdotaccent" unicode="&#x10b;" horiz-adv-x="513" 
d="M274 384c-48 0 -68 -52 -68 -132s20 -132 68 -132s64 44 64 108l163 -78c-20 -88 -103 -162 -227 -162c-136 0 -250 92 -250 264s114 264 250 264c124 0 207 -74 227 -162l-163 -78c0 64 -16 108 -64 108zM270 734c54 0 98 -39 98 -93s-44 -93 -98 -93s-98 39 -98 93
s44 93 98 93z" />
    <glyph glyph-name="ccircumflex" unicode="&#x109;" horiz-adv-x="513" 
d="M274 384c-48 0 -68 -52 -68 -132s20 -132 68 -132s64 44 64 108l163 -78c-20 -88 -103 -162 -227 -162c-136 0 -250 92 -250 264s114 264 250 264c124 0 207 -74 227 -162l-163 -78c0 64 -16 108 -64 108zM272 618h-4c-28 -32 -71 -66 -123 -86l-75 107
c56 18 113 47 149 85h102c36 -38 93 -67 149 -85l-75 -107c-52 20 -95 54 -123 86z" />
    <glyph glyph-name="ccaron" unicode="&#x10d;" horiz-adv-x="513" 
d="M274 384c-48 0 -68 -52 -68 -132s20 -132 68 -132s64 44 64 108l163 -78c-20 -88 -103 -162 -227 -162c-136 0 -250 92 -250 264s114 264 250 264c124 0 207 -74 227 -162l-163 -78c0 64 -16 108 -64 108zM268 662h4c28 32 71 66 123 86l75 -107
c-56 -18 -113 -47 -149 -85h-102c-36 38 -93 67 -149 85l75 107c52 -20 95 -54 123 -86z" />
    <glyph glyph-name="ccedilla" unicode="&#xe7;" horiz-adv-x="513" 
d="M274 384c-48 0 -68 -52 -68 -132s20 -132 68 -132s64 44 64 108l163 -78c-18 -78 -85 -146 -187 -159l-5 -19c48 -6 92 -32 92 -85c0 -64 -66 -95 -130 -95c-50 0 -96 16 -126 50l74 58c12 -25 29 -42 56 -42c19 0 35 8 35 29c0 18 -16 28 -35 28c-14 0 -23 -6 -23 -6
l-53 39l25 45c-113 19 -200 108 -200 259c0 172 114 264 250 264c124 0 207 -74 227 -162l-163 -78c0 64 -16 108 -64 108z" />
    <glyph glyph-name="egrave" unicode="&#xe8;" horiz-adv-x="530" 
d="M499 202h-307c5 -72 48 -88 86 -88c40 0 69 23 75 62l147 -80c-40 -60 -117 -108 -222 -108c-140 0 -254 92 -254 264s114 264 250 264s234 -96 234 -236c0 -48 -9 -78 -9 -78zM274 392c-31 0 -69 -18 -80 -78h150c0 51 -34 78 -70 78zM351 597l-85 -49
c-56 28 -135 85 -174 144l132 84c25 -60 73 -131 127 -179z" />
    <glyph glyph-name="eacute" unicode="&#xe9;" horiz-adv-x="530" 
d="M499 202h-307c5 -72 48 -88 86 -88c40 0 69 23 75 62l147 -80c-40 -60 -117 -108 -222 -108c-140 0 -254 92 -254 264s114 264 250 264s234 -96 234 -236c0 -48 -9 -78 -9 -78zM274 392c-31 0 -69 -18 -80 -78h150c0 51 -34 78 -70 78zM282 548l-85 49
c54 48 102 119 127 179l132 -84c-39 -59 -118 -116 -174 -144z" />
    <glyph glyph-name="edotaccent" unicode="&#x117;" horiz-adv-x="530" 
d="M499 202h-307c5 -72 48 -88 86 -88c40 0 69 23 75 62l147 -80c-40 -60 -117 -108 -222 -108c-140 0 -254 92 -254 264s114 264 250 264s234 -96 234 -236c0 -48 -9 -78 -9 -78zM274 392c-31 0 -69 -18 -80 -78h150c0 51 -34 78 -70 78zM274 734c54 0 98 -39 98 -93
s-44 -93 -98 -93s-98 39 -98 93s44 93 98 93z" />
    <glyph glyph-name="edieresis" unicode="&#xeb;" horiz-adv-x="530" 
d="M499 202h-307c5 -72 48 -88 86 -88c40 0 69 23 75 62l147 -80c-40 -60 -117 -108 -222 -108c-140 0 -254 92 -254 264s114 264 250 264s234 -96 234 -236c0 -48 -9 -78 -9 -78zM274 392c-31 0 -69 -18 -80 -78h150c0 51 -34 78 -70 78zM168 720c50 0 87 -36 87 -86
s-37 -86 -87 -86s-87 36 -87 86s37 86 87 86zM381 720c50 0 87 -36 87 -86s-37 -86 -87 -86s-87 36 -87 86s37 86 87 86z" />
    <glyph glyph-name="ecircumflex" unicode="&#xea;" horiz-adv-x="530" 
d="M499 202h-307c5 -72 48 -88 86 -88c40 0 69 23 75 62l147 -80c-40 -60 -117 -108 -222 -108c-140 0 -254 92 -254 264s114 264 250 264s234 -96 234 -236c0 -48 -9 -78 -9 -78zM274 392c-31 0 -69 -18 -80 -78h150c0 51 -34 78 -70 78zM276 618h-4
c-28 -32 -71 -66 -123 -86l-75 107c56 18 113 47 149 85h102c36 -38 93 -67 149 -85l-75 -107c-52 20 -95 54 -123 86z" />
    <glyph glyph-name="ecaron" unicode="&#x11b;" horiz-adv-x="530" 
d="M499 202h-307c5 -72 48 -88 86 -88c40 0 69 23 75 62l147 -80c-40 -60 -117 -108 -222 -108c-140 0 -254 92 -254 264s114 264 250 264s234 -96 234 -236c0 -48 -9 -78 -9 -78zM274 392c-31 0 -69 -18 -80 -78h150c0 51 -34 78 -70 78zM272 662h4c28 32 71 66 123 86
l75 -107c-56 -18 -113 -47 -149 -85h-102c-36 38 -93 67 -149 85l75 107c52 -20 95 -54 123 -86z" />
    <glyph glyph-name="emacron" unicode="&#x113;" horiz-adv-x="530" 
d="M499 202h-307c5 -72 48 -88 86 -88c40 0 69 23 75 62l147 -80c-40 -60 -117 -108 -222 -108c-140 0 -254 92 -254 264s114 264 250 264s234 -96 234 -236c0 -48 -9 -78 -9 -78zM274 392c-31 0 -69 -18 -80 -78h150c0 51 -34 78 -70 78zM125 564v128h299v-128h-299z" />
    <glyph glyph-name="ebreve" unicode="&#x115;" horiz-adv-x="530" 
d="M499 202h-307c5 -72 48 -88 86 -88c40 0 69 23 75 62l147 -80c-40 -60 -117 -108 -222 -108c-140 0 -254 92 -254 264s114 264 250 264s234 -96 234 -236c0 -48 -9 -78 -9 -78zM274 392c-31 0 -69 -18 -80 -78h150c0 51 -34 78 -70 78zM274 548c-92 0 -163 52 -179 144
l131 37s-1 -12 -1 -17c0 -30 15 -54 49 -54s49 24 49 54c0 5 -1 17 -1 17l131 -37c-16 -92 -87 -144 -179 -144z" />
    <glyph glyph-name="gdotaccent" unicode="&#x121;" horiz-adv-x="542" 
d="M31 349c0 93 85 167 217 167c44 0 68 -4 96 -4c40 0 59 27 59 74c0 19 -4 41 -6 50l153 -89c-3 -70 -34 -105 -97 -105c-11 0 -27 2 -34 4v-4c33 -24 69 -62 69 -120c0 -101 -100 -161 -232 -161c-51 0 -86 -11 -86 -33c0 -19 16 -25 51 -25c40 0 89 7 143 7
c121 0 190 -44 190 -145c0 -117 -135 -167 -295 -167c-147 0 -275 39 -275 124c0 54 54 82 105 89v4c-39 12 -74 39 -74 82c0 58 62 93 124 101v4c-54 19 -108 62 -108 147zM135 -60c0 -26 43 -37 121 -37c93 0 124 11 124 39c0 23 -43 31 -101 31c-47 0 -144 0 -144 -33z
M191 338c0 -38 30 -64 70 -64s70 26 70 64s-30 64 -70 64s-70 -26 -70 -64zM263 734c54 0 98 -39 98 -93s-44 -93 -98 -93s-98 39 -98 93s44 93 98 93z" />
    <glyph glyph-name="gcircumflex" unicode="&#x11d;" horiz-adv-x="542" 
d="M564 539c-6 -58 -46 -97 -111 -97c-11 0 -27 2 -34 4v-4c33 -24 69 -62 69 -120c0 -101 -100 -161 -232 -161c-51 0 -86 -11 -86 -33c0 -19 16 -25 51 -25c40 0 89 7 143 7c121 0 190 -44 190 -145c0 -117 -135 -167 -295 -167c-147 0 -275 39 -275 124
c0 54 54 82 105 89v4c-39 12 -74 39 -74 82c0 58 62 93 124 101v4c-54 19 -108 62 -108 147c0 93 85 167 217 167c48 0 76 -8 106 -8c60 0 95 27 95 83v7zM263 622h-4c-26 -26 -66 -54 -115 -70l-67 99c53 16 99 43 133 77h102c34 -34 80 -61 133 -77l-67 -99
c-49 16 -89 44 -115 70zM135 -60c0 -26 43 -37 121 -37c93 0 124 11 124 39c0 23 -43 31 -101 31c-47 0 -144 0 -144 -33zM194 338c0 -40 31 -64 69 -64c39 0 70 24 70 64c0 41 -31 64 -70 64c-38 0 -69 -23 -69 -64z" />
    <glyph glyph-name="gbreve" unicode="&#x11f;" horiz-adv-x="542" 
d="M564 539c-6 -58 -46 -97 -111 -97c-11 0 -27 2 -34 4v-4c33 -24 69 -62 69 -120c0 -101 -100 -161 -232 -161c-51 0 -86 -11 -86 -33c0 -19 16 -25 51 -25c40 0 89 7 143 7c121 0 190 -44 190 -145c0 -117 -135 -167 -295 -167c-147 0 -275 39 -275 124
c0 54 54 82 105 89v4c-39 12 -74 39 -74 82c0 58 62 93 124 101v4c-54 19 -108 62 -108 147c0 93 85 167 217 167c48 0 76 -8 106 -8c60 0 90 29 90 85v7zM263 552c-88 0 -158 48 -173 140l131 37s-1 -12 -1 -17c0 -30 14 -50 43 -50s43 20 43 50c0 5 -1 17 -1 17l131 -37
c-15 -92 -85 -140 -173 -140zM135 -60c0 -26 43 -37 121 -37c93 0 124 11 124 39c0 23 -43 31 -101 31c-47 0 -144 0 -144 -33zM194 338c0 -40 31 -64 69 -64c39 0 70 24 70 64c0 41 -31 64 -70 64c-38 0 -69 -23 -69 -64z" />
    <glyph glyph-name="uni0123" unicode="&#x123;" horiz-adv-x="542" 
d="M31 349c0 93 85 167 217 167c44 0 68 -4 96 -4c40 0 59 27 59 74c0 19 -4 41 -6 50l153 -89c-3 -70 -34 -105 -97 -105c-11 0 -27 2 -34 4v-4c33 -24 69 -62 69 -120c0 -101 -100 -161 -232 -161c-51 0 -86 -11 -86 -33c0 -19 16 -25 51 -25c40 0 89 7 143 7
c121 0 190 -44 190 -145c0 -117 -135 -167 -295 -167c-147 0 -275 39 -275 124c0 54 54 82 105 89v4c-39 12 -74 39 -74 82c0 58 62 93 124 101v4c-54 19 -108 62 -108 147zM135 -60c0 -26 43 -37 121 -37c93 0 124 11 124 39c0 23 -43 31 -101 31c-47 0 -144 0 -144 -33z
M191 338c0 -38 30 -64 70 -64s70 26 70 64s-30 64 -70 64s-70 -26 -70 -64zM353 728c-35 -7 -82 -17 -91 -59h7c36 0 69 -21 69 -63s-31 -63 -73 -63c-52 0 -88 41 -88 97c0 64 39 114 83 138z" />
    <glyph glyph-name="hcircumflex" unicode="&#x125;" horiz-adv-x="566" 
d="M520 328v-328h-180v292c0 44 -12 76 -52 76c-38 0 -58 -26 -60 -73v-295h-180v724h180v-176c0 -64 -8 -124 -8 -124h4c28 48 68 92 148 92c92 0 148 -68 148 -188zM139 838h-4c-28 -32 -71 -66 -123 -86l-75 107c56 18 113 47 149 85h102c36 -38 93 -67 149 -85l-75 -107
c-52 20 -95 54 -123 86z" />
    <glyph glyph-name="igrave" unicode="&#xec;" horiz-adv-x="278" 
d="M48 0v504h182v-504h-182zM216 597l-85 -49c-56 28 -135 85 -174 144l132 84c25 -60 73 -131 127 -179z" />
    <glyph glyph-name="iacute" unicode="&#xed;" horiz-adv-x="278" 
d="M48 0v504h182v-504h-182zM147 548l-85 49c54 48 102 119 127 179l132 -84c-39 -59 -118 -116 -174 -144z" />
    <glyph glyph-name="idieresis" unicode="&#xef;" horiz-adv-x="278" 
d="M48 0v504h182v-504h-182zM33 720c50 0 87 -36 87 -86s-37 -86 -87 -86s-87 36 -87 86s37 86 87 86zM246 720c50 0 87 -36 87 -86s-37 -86 -87 -86s-87 36 -87 86s37 86 87 86z" />
    <glyph glyph-name="icircumflex" unicode="&#xee;" horiz-adv-x="278" 
d="M48 0v504h182v-504h-182zM141 618h-4c-28 -32 -71 -66 -123 -86l-75 107c56 18 113 47 149 85h102c36 -38 93 -67 149 -85l-75 -107c-52 20 -95 54 -123 86z" />
    <glyph glyph-name="imacron" unicode="&#x12b;" horiz-adv-x="278" 
d="M48 0v504h182v-504h-182zM-10 564v128h299v-128h-299z" />
    <glyph glyph-name="itilde" unicode="&#x129;" horiz-adv-x="278" 
d="M48 0v504h182v-504h-182zM219 548c-64 0 -101 49 -133 49c-20 0 -29 -21 -31 -49l-108 58c7 72 56 118 112 118c64 0 101 -48 133 -48c20 0 29 20 31 48l108 -58c-7 -72 -56 -118 -112 -118z" />
    <glyph glyph-name="ibreve" unicode="&#x12d;" horiz-adv-x="278" 
d="M48 0v504h182v-504h-182zM139 548c-92 0 -163 52 -179 144l131 37s-1 -12 -1 -17c0 -30 15 -54 49 -54s49 24 49 54c0 5 -1 17 -1 17l131 -37c-16 -92 -87 -144 -179 -144z" />
    <glyph glyph-name="iogonek" unicode="&#x12f;" horiz-adv-x="278" 
d="M48 504h182v-504l-20 -3c-45 -11 -109 -41 -109 -86c0 -18 13 -28 33 -28c19 0 35 13 42 36l100 -55c-33 -43 -87 -72 -149 -72c-80 0 -136 40 -136 100c0 43 23 72 49 94l8 7v511zM139 736c55 0 100 -41 100 -98s-45 -98 -100 -98s-100 41 -100 98s45 98 100 98z" />
    <glyph glyph-name="jcircumflex" unicode="&#x135;" horiz-adv-x="286" 
d="M84 -208l-152 119c88 20 124 48 124 144v449h182v-452c0 -128 -39 -223 -154 -260zM149 618h-4c-28 -32 -71 -66 -123 -86l-75 107c56 18 113 47 149 85h102c36 -38 93 -67 149 -85l-75 -107c-52 20 -95 54 -123 86z" />
    <glyph glyph-name="uni0137" unicode="&#x137;" horiz-adv-x="564" 
d="M564 504l-168 -198l176 -306h-193l-101 173l-50 -66v-107h-180v724h180v-311c0 -64 -8 -124 -8 -124h4s28 56 52 93l80 122h208zM216 -226c34 7 82 17 90 59h-6c-36 0 -69 21 -69 63s31 63 73 63c52 0 88 -41 88 -97c0 -64 -39 -114 -83 -138z" />
    <glyph glyph-name="lacute" unicode="&#x13a;" horiz-adv-x="278" 
d="M48 0v724h182v-724h-182zM147 768l-85 49c54 48 102 119 127 179l132 -84c-39 -59 -118 -116 -174 -144z" />
    <glyph glyph-name="uni013C" unicode="&#x13c;" horiz-adv-x="278" 
d="M48 0v724h182v-724h-182zM53 -226c34 7 82 17 90 59h-6c-36 0 -69 21 -69 63s31 63 73 63c52 0 88 -41 88 -97c0 -64 -39 -114 -83 -138z" />
    <glyph glyph-name="nacute" unicode="&#x144;" horiz-adv-x="566" 
d="M520 328v-328h-180v292c0 44 -12 76 -52 76s-60 -28 -60 -80v-288h-180v504h180l-8 -80h4c28 48 68 92 148 92c92 0 148 -68 148 -188zM292 548l-85 49c54 48 102 119 127 179l132 -84c-39 -59 -118 -116 -174 -144z" />
    <glyph glyph-name="ncaron" unicode="&#x148;" horiz-adv-x="566" 
d="M520 328v-328h-180v292c0 44 -12 76 -52 76s-60 -28 -60 -80v-288h-180v504h180l-8 -80h4c28 48 68 92 148 92c92 0 148 -68 148 -188zM282 662h4c28 32 71 66 123 86l75 -107c-56 -18 -113 -47 -149 -85h-102c-36 38 -93 67 -149 85l75 107c52 -20 95 -54 123 -86z" />
    <glyph glyph-name="ntilde" unicode="&#xf1;" horiz-adv-x="566" 
d="M520 328v-328h-180v292c0 44 -12 76 -52 76s-60 -28 -60 -80v-288h-180v504h180l-8 -80h4c28 48 68 92 148 92c92 0 148 -68 148 -188zM364 548c-64 0 -101 49 -133 49c-20 0 -29 -21 -31 -49l-108 58c7 72 56 118 112 118c64 0 101 -48 133 -48c20 0 29 20 31 48
l108 -58c-7 -72 -56 -118 -112 -118z" />
    <glyph glyph-name="uni0146" unicode="&#x146;" horiz-adv-x="566" 
d="M520 328v-328h-180v292c0 44 -12 76 -52 76s-60 -28 -60 -80v-288h-180v504h180l-8 -80h4c28 48 68 92 148 92c92 0 148 -68 148 -188zM198 -226c34 7 82 17 90 59h-6c-36 0 -69 21 -69 63s31 63 73 63c52 0 88 -41 88 -97c0 -64 -39 -114 -83 -138z" />
    <glyph glyph-name="napostrophe" unicode="&#x149;" horiz-adv-x="832" 
d="M137 704c68 0 113 -50 113 -138c0 -92 -46 -175 -113 -215l-103 58c36 16 107 51 120 117c-6 -1 -12 -2 -18 -2c-52 0 -92 39 -92 91s41 89 93 89zM786 328v-328h-180v292c0 44 -12 76 -52 76s-60 -28 -60 -80v-288h-180v504h180l-8 -80h4c28 48 68 92 148 92
c92 0 148 -68 148 -188z" />
    <glyph glyph-name="ograve" unicode="&#xf2;" horiz-adv-x="556" 
d="M278 -12c-136 0 -254 92 -254 264s118 264 254 264s254 -92 254 -264s-118 -264 -254 -264zM206 252c0 -80 20 -132 72 -132s72 52 72 132s-20 132 -72 132s-72 -52 -72 -132zM355 597l-85 -49c-56 28 -135 85 -174 144l132 84c25 -60 73 -131 127 -179z" />
    <glyph glyph-name="oacute" unicode="&#xf3;" horiz-adv-x="556" 
d="M278 -12c-136 0 -254 92 -254 264s118 264 254 264s254 -92 254 -264s-118 -264 -254 -264zM206 252c0 -80 20 -132 72 -132s72 52 72 132s-20 132 -72 132s-72 -52 -72 -132zM286 548l-85 49c54 48 102 119 127 179l132 -84c-39 -59 -118 -116 -174 -144z" />
    <glyph glyph-name="ohungarumlaut" unicode="&#x151;" horiz-adv-x="556" 
d="M278 -12c-136 0 -254 92 -254 264s118 264 254 264s254 -92 254 -264s-118 -264 -254 -264zM206 252c0 -80 20 -132 72 -132s72 52 72 132s-20 132 -72 132s-72 -52 -72 -132zM177 548l-81 49c51 48 96 119 119 179l124 -84c-37 -59 -109 -116 -162 -144zM395 548l-81 49
c51 48 96 119 119 179l124 -84c-37 -59 -109 -116 -162 -144z" />
    <glyph glyph-name="odieresis" unicode="&#xf6;" horiz-adv-x="556" 
d="M278 -12c-136 0 -254 92 -254 264s118 264 254 264s254 -92 254 -264s-118 -264 -254 -264zM206 252c0 -80 20 -132 72 -132s72 52 72 132s-20 132 -72 132s-72 -52 -72 -132zM172 720c50 0 87 -36 87 -86s-37 -86 -87 -86s-87 36 -87 86s37 86 87 86zM385 720
c50 0 87 -36 87 -86s-37 -86 -87 -86s-87 36 -87 86s37 86 87 86z" />
    <glyph glyph-name="ocircumflex" unicode="&#xf4;" horiz-adv-x="556" 
d="M278 -12c-136 0 -254 92 -254 264s118 264 254 264s254 -92 254 -264s-118 -264 -254 -264zM206 252c0 -80 20 -132 72 -132s72 52 72 132s-20 132 -72 132s-72 -52 -72 -132zM280 618h-4c-28 -32 -71 -66 -123 -86l-75 107c56 18 113 47 149 85h102
c36 -38 93 -67 149 -85l-75 -107c-52 20 -95 54 -123 86z" />
    <glyph glyph-name="omacron" unicode="&#x14d;" horiz-adv-x="556" 
d="M278 -12c-136 0 -254 92 -254 264s118 264 254 264s254 -92 254 -264s-118 -264 -254 -264zM206 252c0 -80 20 -132 72 -132s72 52 72 132s-20 132 -72 132s-72 -52 -72 -132zM129 564v128h299v-128h-299z" />
    <glyph glyph-name="obreve" unicode="&#x14f;" horiz-adv-x="556" 
d="M278 -12c-136 0 -254 92 -254 264s118 264 254 264s254 -92 254 -264s-118 -264 -254 -264zM206 252c0 -80 20 -132 72 -132s72 52 72 132s-20 132 -72 132s-72 -52 -72 -132zM278 548c-92 0 -163 52 -179 144l131 37s-1 -12 -1 -17c0 -30 15 -54 49 -54s49 24 49 54
c0 5 -1 17 -1 17l131 -37c-16 -92 -87 -144 -179 -144z" />
    <glyph glyph-name="otilde" unicode="&#xf5;" horiz-adv-x="556" 
d="M278 -12c-136 0 -254 92 -254 264s118 264 254 264s254 -92 254 -264s-118 -264 -254 -264zM206 252c0 -80 20 -132 72 -132s72 52 72 132s-20 132 -72 132s-72 -52 -72 -132zM358 548c-64 0 -101 49 -133 49c-20 0 -29 -21 -31 -49l-108 58c7 72 56 118 112 118
c64 0 101 -48 133 -48c20 0 29 20 31 48l108 -58c-7 -72 -56 -118 -112 -118z" />
    <glyph glyph-name="oslashacute" unicode="&#x1ff;" horiz-adv-x="570" 
d="M285 -12c-36 0 -71 7 -102 19l-45 -58l-111 86l47 60c-27 41 -43 93 -43 157c0 172 118 264 254 264c35 0 69 -7 100 -19l49 63l111 -86l-50 -64c27 -41 44 -94 44 -158c0 -172 -118 -264 -254 -264zM245 119c11 -5 25 -7 40 -7c70 0 96 55 96 140c0 14 -1 27 -3 39z
M189 252c0 -13 0 -26 2 -37l132 170c-11 4 -24 7 -38 7c-70 0 -96 -55 -96 -140zM293 548l-85 49c54 48 102 119 127 179l132 -84c-39 -59 -118 -116 -174 -144z" />
    <glyph glyph-name="racute" unicode="&#x155;" horiz-adv-x="468" 
d="M48 0v504h180l-8 -80h4c28 44 62 92 130 92c72 0 106 -63 106 -138c0 -36 -5 -63 -5 -63l-159 -90c4 25 8 53 8 89c0 26 -6 54 -36 54c-28 0 -40 -24 -40 -75v-293h-180zM262 548l-85 49c54 48 102 119 127 179l132 -84c-39 -59 -118 -116 -174 -144z" />
    <glyph glyph-name="rcaron" unicode="&#x159;" horiz-adv-x="468" 
d="M48 0v504h180l-8 -80h4c28 44 62 92 130 92c72 0 106 -63 106 -138c0 -36 -5 -63 -5 -63l-159 -90c4 25 8 53 8 89c0 26 -6 54 -36 54c-28 0 -40 -24 -40 -75v-293h-180zM252 662h4c28 32 71 66 123 86l75 -107c-56 -18 -113 -47 -149 -85h-102c-36 38 -93 67 -149 85
l75 107c52 -20 95 -54 123 -86z" />
    <glyph glyph-name="uni0157" unicode="&#x157;" horiz-adv-x="468" 
d="M48 0v504h180l-8 -80h4c28 44 62 92 130 92c72 0 106 -63 106 -138c0 -36 -5 -63 -5 -63l-159 -90c4 25 8 53 8 89c0 26 -6 54 -36 54c-28 0 -40 -24 -40 -75v-293h-180zM52 -226c34 7 82 17 90 59h-6c-36 0 -69 21 -69 63s31 63 73 63c52 0 88 -41 88 -97
c0 -64 -39 -114 -83 -138z" />
    <glyph glyph-name="sacute" unicode="&#x15b;" horiz-adv-x="507" 
d="M268 114c30 0 46 12 46 30c0 28 -50 35 -110 51c-76 20 -169 61 -169 157c0 100 96 164 216 164c100 0 196 -44 240 -104l-149 -81c-14 37 -45 59 -85 59c-28 0 -46 -12 -46 -28c0 -26 55 -27 131 -51s148 -63 148 -153c0 -108 -101 -170 -221 -170
c-112 0 -213 42 -261 114l152 82c20 -46 60 -70 108 -70zM261 548l-85 49c54 48 102 119 127 179l132 -84c-39 -59 -118 -116 -174 -144z" />
    <glyph glyph-name="scaron" unicode="&#x161;" horiz-adv-x="507" 
d="M268 114c30 0 46 12 46 30c0 28 -50 35 -110 51c-76 20 -169 61 -169 157c0 100 96 164 216 164c100 0 196 -44 240 -104l-149 -81c-14 37 -45 59 -85 59c-28 0 -46 -12 -46 -28c0 -26 55 -27 131 -51s148 -63 148 -153c0 -108 -101 -170 -221 -170
c-112 0 -213 42 -261 114l152 82c20 -46 60 -70 108 -70zM251 662h4c28 32 71 66 123 86l75 -107c-56 -18 -113 -47 -149 -85h-102c-36 38 -93 67 -149 85l75 107c52 -20 95 -54 123 -86z" />
    <glyph glyph-name="scircumflex" unicode="&#x15d;" horiz-adv-x="507" 
d="M268 114c30 0 46 12 46 30c0 28 -50 35 -110 51c-76 20 -169 61 -169 157c0 100 96 164 216 164c100 0 196 -44 240 -104l-149 -81c-14 37 -45 59 -85 59c-28 0 -46 -12 -46 -28c0 -26 55 -27 131 -51s148 -63 148 -153c0 -108 -101 -170 -221 -170
c-112 0 -213 42 -261 114l152 82c20 -46 60 -70 108 -70zM255 618h-4c-28 -32 -71 -66 -123 -86l-75 107c56 18 113 47 149 85h102c36 -38 93 -67 149 -85l-75 -107c-52 20 -95 54 -123 86z" />
    <glyph glyph-name="uni0219" unicode="&#x219;" horiz-adv-x="507" 
d="M268 114c30 0 46 12 46 30c0 28 -50 35 -110 51c-76 20 -169 61 -169 157c0 100 96 164 216 164c100 0 196 -44 240 -104l-149 -81c-14 37 -45 59 -85 59c-28 0 -46 -12 -46 -28c0 -26 55 -27 131 -51s148 -63 148 -153c0 -108 -101 -170 -221 -170
c-112 0 -213 42 -261 114l152 82c20 -46 60 -70 108 -70zM178 -226c34 7 82 17 90 59h-6c-36 0 -69 21 -69 63s31 63 73 63c52 0 88 -41 88 -97c0 -64 -39 -114 -83 -138z" />
    <glyph glyph-name="uni015F" unicode="&#x15f;" horiz-adv-x="507" 
d="M268 114c30 0 46 12 46 30c0 28 -50 35 -110 51c-76 20 -169 61 -169 157c0 100 96 164 216 164c100 0 196 -44 240 -104l-149 -81c-14 37 -45 59 -85 59c-28 0 -46 -12 -46 -28c0 -26 55 -27 131 -51s148 -63 148 -153c0 -96 -80 -156 -183 -167l-4 -19
c48 -6 92 -32 92 -85c0 -64 -66 -95 -130 -95c-50 0 -96 16 -126 50l74 58c12 -25 29 -42 56 -42c19 0 35 8 35 29c0 18 -16 28 -35 28c-14 0 -23 -6 -23 -6l-53 39l24 44c-90 10 -169 49 -209 110l152 82c20 -46 60 -70 108 -70z" />
    <glyph glyph-name="uni021B" unicode="&#x21b;" horiz-adv-x="373" 
d="M314 151l59 -123c-16 -11 -69 -40 -131 -40c-104 0 -164 56 -164 167v217h-74v132h74v92l178 96v-188h104v-132h-104v-199c0 -32 11 -43 29 -43c17 0 25 13 29 21zM133 -226c34 7 82 17 90 59h-6c-36 0 -69 21 -69 63s31 63 73 63c52 0 88 -41 88 -97
c0 -64 -39 -114 -83 -138z" />
    <glyph glyph-name="uni0163" unicode="&#x163;" horiz-adv-x="373" 
d="M314 151l59 -123c-14 -10 -58 -34 -111 -39l-4 -17c48 -6 92 -32 92 -85c0 -64 -66 -95 -130 -95c-50 0 -96 16 -126 50l74 58c12 -25 29 -42 56 -42c19 0 35 8 35 29c0 18 -16 28 -35 28c-14 0 -23 -6 -23 -6l-53 39l27 50c-62 19 -97 72 -97 157v217h-74v132h74v92
l178 96v-188h104v-132h-104v-199c0 -32 11 -43 29 -43c17 0 25 13 29 21z" />
    <glyph glyph-name="ugrave" unicode="&#xf9;" horiz-adv-x="562" 
d="M46 176v328h180v-292c0 -44 10 -76 50 -76s58 28 58 80v288h180v-504h-180l8 80h-4c-28 -48 -66 -92 -146 -92c-92 0 -146 68 -146 188zM357 597l-85 -49c-56 28 -135 85 -174 144l132 84c25 -60 73 -131 127 -179z" />
    <glyph glyph-name="uacute" unicode="&#xfa;" horiz-adv-x="562" 
d="M46 176v328h180v-292c0 -44 10 -76 50 -76s58 28 58 80v288h180v-504h-180l8 80h-4c-28 -48 -66 -92 -146 -92c-92 0 -146 68 -146 188zM288 548l-85 49c54 48 102 119 127 179l132 -84c-39 -59 -118 -116 -174 -144z" />
    <glyph glyph-name="uhungarumlaut" unicode="&#x171;" horiz-adv-x="562" 
d="M46 176v328h180v-292c0 -44 10 -76 50 -76s58 28 58 80v288h180v-504h-180l8 80h-4c-28 -48 -66 -92 -146 -92c-92 0 -146 68 -146 188zM179 548l-81 49c51 48 96 119 119 179l124 -84c-37 -59 -109 -116 -162 -144zM397 548l-81 49c51 48 96 119 119 179l124 -84
c-37 -59 -109 -116 -162 -144z" />
    <glyph glyph-name="udieresis" unicode="&#xfc;" horiz-adv-x="562" 
d="M46 176v328h180v-292c0 -44 10 -76 50 -76s58 28 58 80v288h180v-504h-180l8 80h-4c-28 -48 -66 -92 -146 -92c-92 0 -146 68 -146 188zM174 720c50 0 87 -36 87 -86s-37 -86 -87 -86s-87 36 -87 86s37 86 87 86zM387 720c50 0 87 -36 87 -86s-37 -86 -87 -86
s-87 36 -87 86s37 86 87 86z" />
    <glyph glyph-name="ucircumflex" unicode="&#xfb;" horiz-adv-x="562" 
d="M46 176v328h180v-292c0 -44 10 -76 50 -76s58 28 58 80v288h180v-504h-180l8 80h-4c-28 -48 -66 -92 -146 -92c-92 0 -146 68 -146 188zM282 618h-4c-28 -32 -71 -66 -123 -86l-75 107c56 18 113 47 149 85h102c36 -38 93 -67 149 -85l-75 -107c-52 20 -95 54 -123 86z
" />
    <glyph glyph-name="umacron" unicode="&#x16b;" horiz-adv-x="562" 
d="M46 176v328h180v-292c0 -44 10 -76 50 -76s58 28 58 80v288h180v-504h-180l8 80h-4c-28 -48 -66 -92 -146 -92c-92 0 -146 68 -146 188zM131 564v128h299v-128h-299z" />
    <glyph glyph-name="utilde" unicode="&#x169;" horiz-adv-x="562" 
d="M46 176v328h180v-292c0 -44 10 -76 50 -76s58 28 58 80v288h180v-504h-180l8 80h-4c-28 -48 -66 -92 -146 -92c-92 0 -146 68 -146 188zM360 548c-64 0 -101 49 -133 49c-20 0 -29 -21 -31 -49l-108 58c7 72 56 118 112 118c64 0 101 -48 133 -48c20 0 29 20 31 48
l108 -58c-7 -72 -56 -118 -112 -118z" />
    <glyph glyph-name="ubreve" unicode="&#x16d;" horiz-adv-x="562" 
d="M46 176v328h180v-292c0 -44 10 -76 50 -76s58 28 58 80v288h180v-504h-180l8 80h-4c-28 -48 -66 -92 -146 -92c-92 0 -146 68 -146 188zM280 548c-92 0 -163 52 -179 144l131 37s-1 -12 -1 -17c0 -30 15 -54 49 -54s49 24 49 54c0 5 -1 17 -1 17l131 -37
c-16 -92 -87 -144 -179 -144z" />
    <glyph glyph-name="uring" unicode="&#x16f;" horiz-adv-x="562" 
d="M46 176v328h180v-292c0 -44 10 -76 50 -76s58 28 58 80v288h180v-504h-180l8 80h-4c-28 -48 -66 -92 -146 -92c-92 0 -146 68 -146 188zM280 694c-22 0 -37 -15 -37 -37c0 -23 15 -37 37 -37s37 15 37 37s-15 37 -37 37zM280 770c68 0 129 -45 129 -113
s-61 -113 -129 -113s-129 45 -129 113s61 113 129 113z" />
    <glyph glyph-name="uogonek" unicode="&#x173;" horiz-adv-x="562" 
d="M46 176v328h180v-292c0 -44 10 -76 50 -76c38 0 56 25 58 72v296h180v-504c-43 -5 -137 -37 -137 -89c0 -18 13 -28 33 -28c19 0 35 13 42 36l100 -55c-33 -43 -87 -72 -149 -72c-80 0 -136 40 -136 100c0 51 35 80 67 108l4 3l4 77h-4c-28 -48 -66 -92 -146 -92
c-92 0 -146 68 -146 188z" />
    <glyph glyph-name="wgrave" unicode="&#x1e81;" horiz-adv-x="769" 
d="M260 338l26 166h204l26 -166c10 -66 24 -179 24 -179h4s11 113 19 179l20 166h174l-95 -504h-216l-38 225c-9 55 -20 124 -20 124h-4s-10 -70 -19 -124l-37 -225h-221l-95 504h181l21 -166c8 -66 19 -179 19 -179h4s13 113 23 179zM461 597l-85 -49
c-56 28 -135 85 -174 144l132 84c25 -60 73 -131 127 -179z" />
    <glyph glyph-name="wacute" unicode="&#x1e83;" horiz-adv-x="769" 
d="M260 338l26 166h204l26 -166c10 -66 24 -179 24 -179h4s11 113 19 179l20 166h174l-95 -504h-216l-38 225c-9 55 -20 124 -20 124h-4s-10 -70 -19 -124l-37 -225h-221l-95 504h181l21 -166c8 -66 19 -179 19 -179h4s13 113 23 179zM392 548l-85 49c54 48 102 119 127 179
l132 -84c-39 -59 -118 -116 -174 -144z" />
    <glyph glyph-name="wdieresis" unicode="&#x1e85;" horiz-adv-x="769" 
d="M260 338l26 166h204l26 -166c10 -66 24 -179 24 -179h4s11 113 19 179l20 166h174l-95 -504h-216l-38 225c-9 55 -20 124 -20 124h-4s-10 -70 -19 -124l-37 -225h-221l-95 504h181l21 -166c8 -66 19 -179 19 -179h4s13 113 23 179zM278 720c50 0 87 -36 87 -86
s-37 -86 -87 -86s-87 36 -87 86s37 86 87 86zM491 720c50 0 87 -36 87 -86s-37 -86 -87 -86s-87 36 -87 86s37 86 87 86z" />
    <glyph glyph-name="wcircumflex" unicode="&#x175;" horiz-adv-x="769" 
d="M260 338l26 166h204l26 -166c10 -66 24 -179 24 -179h4s11 113 19 179l20 166h174l-95 -504h-216l-38 225c-9 55 -20 124 -20 124h-4s-10 -70 -19 -124l-37 -225h-221l-95 504h181l21 -166c8 -66 19 -179 19 -179h4s13 113 23 179zM386 618h-4c-28 -32 -71 -66 -123 -86
l-75 107c56 18 113 47 149 85h102c36 -38 93 -67 149 -85l-75 -107c-52 20 -95 54 -123 86z" />
    <glyph glyph-name="ygrave" unicode="&#x1ef3;" horiz-adv-x="516" 
d="M262 192h4s14 80 29 144l39 168h186l-168 -522c-30 -94 -74 -164 -164 -190l-144 113c56 12 113 35 133 95l-181 504h193l40 -159c16 -64 33 -153 33 -153zM337 597l-85 -49c-56 28 -135 85 -174 144l132 84c25 -60 73 -131 127 -179z" />
    <glyph glyph-name="yacute" unicode="&#xfd;" horiz-adv-x="516" 
d="M262 192h4s14 80 29 144l39 168h186l-168 -522c-30 -94 -74 -164 -164 -190l-144 113c56 12 113 35 133 95l-181 504h193l40 -159c16 -64 33 -153 33 -153zM268 548l-85 49c54 48 102 119 127 179l132 -84c-39 -59 -118 -116 -174 -144z" />
    <glyph glyph-name="ydieresis" unicode="&#xff;" horiz-adv-x="516" 
d="M262 192h4s14 80 29 144l39 168h186l-168 -522c-30 -94 -74 -164 -164 -190l-144 113c56 12 113 35 133 95l-181 504h193l40 -159c16 -64 33 -153 33 -153zM154 720c50 0 87 -36 87 -86s-37 -86 -87 -86s-87 36 -87 86s37 86 87 86zM367 720c50 0 87 -36 87 -86
s-37 -86 -87 -86s-87 36 -87 86s37 86 87 86z" />
    <glyph glyph-name="ycircumflex" unicode="&#x177;" horiz-adv-x="516" 
d="M262 192h4s14 80 29 144l39 168h186l-168 -522c-30 -94 -74 -164 -164 -190l-144 113c56 12 113 35 133 95l-181 504h193l40 -159c16 -64 33 -153 33 -153zM262 618h-4c-28 -32 -71 -66 -123 -86l-75 107c56 18 113 47 149 85h102c36 -38 93 -67 149 -85l-75 -107
c-52 20 -95 54 -123 86z" />
    <glyph glyph-name="zacute" unicode="&#x17a;" horiz-adv-x="491" 
d="M36 372v132h419v-97l-200 -275h212v-132h-435v97l200 275h-196zM255 548l-85 49c54 48 102 119 127 179l132 -84c-39 -59 -118 -116 -174 -144z" />
    <glyph glyph-name="zdotaccent" unicode="&#x17c;" horiz-adv-x="491" 
d="M36 372v132h419v-97l-200 -275h212v-132h-435v97l200 275h-196zM247 734c54 0 98 -39 98 -93s-44 -93 -98 -93s-98 39 -98 93s44 93 98 93z" />
    <glyph glyph-name="zcaron" unicode="&#x17e;" horiz-adv-x="491" 
d="M36 372v132h419v-97l-200 -275h212v-132h-435v97l200 275h-196zM245 662h4c28 32 71 66 123 86l75 -107c-56 -18 -113 -47 -149 -85h-102c-36 38 -93 67 -149 85l75 107c52 -20 95 -54 123 -86z" />
    <glyph glyph-name="uni00A0" unicode="&#xa0;" horiz-adv-x="220" 
 />
    <glyph glyph-name="uni00AD.case" horiz-adv-x="359" 
d="M319 278h-279v146h279v-146z" />
    <glyph glyph-name="Ldot.latn_CAT" horiz-adv-x="542" 
d="M52 0v692h188v-527h282v-165h-470zM385 446c54 0 98 -39 98 -93s-44 -93 -98 -93s-98 39 -98 93s44 93 98 93z" />
    <glyph glyph-name="ldot.latn_CAT" horiz-adv-x="500" 
d="M48 0v724h182v-724h-182zM384 392c54 0 98 -39 98 -93s-44 -93 -98 -93s-98 39 -98 93s44 93 98 93z" />
    <glyph glyph-name="i.latn_TRK" horiz-adv-x="278" 
d="M48 0v504h182v-504h-182zM139 734c54 0 98 -39 98 -93s-44 -93 -98 -93s-98 39 -98 93s44 93 98 93z" />
    <glyph glyph-name="uni2007" unicode="&#x2007;" horiz-adv-x="632" 
 />
    <glyph glyph-name="uni2007.tosf" horiz-adv-x="632" 
 />
    <glyph glyph-name="uni2008" unicode="&#x2008;" horiz-adv-x="290" 
 />
    <glyph glyph-name="space.frac" horiz-adv-x="220" 
 />
    <glyph glyph-name="uniFEFF" unicode="&#xfeff;" horiz-adv-x="0" 
 />
    <glyph glyph-name="uni200B" unicode="&#x200b;" horiz-adv-x="0" 
 />
    </font>
</defs>
</svg>
