<?xml version="1.0" standalone="no"?>
<!DOCTYPE svg PUBLIC "-//W3C//DTD SVG 1.1//EN" "http://www.w3.org/Graphics/SVG/1.1/DTD/svg11.dtd" >
<svg xmlns="http://www.w3.org/2000/svg" xmlns:xlink="http://www.w3.org/1999/xlink" version="1.1">
<metadata>
Created by FontForge 20170924 at Mon Feb 13 15:47:44 2017
 By www-data
Copyright (c) 2017. All rights reserved. Helsinki Grotesk is a customized version of Graebenbach for the City of Helsinki. Graebenbach is a design by Wolfgang Schwaerzler, published by Camelot Typefaces. www.camelot-typefaces.com
</metadata>
<defs>
<font id="HelsinkiGrotesk-Medium" horiz-adv-x="600" >
  <font-face 
    font-family="Helsinki Grotesk Medium"
    font-weight="500"
    font-stretch="normal"
    units-per-em="1000"
    panose-1="2 11 0 3 4 2 2 0 0 3"
    ascent="736"
    descent="-264"
    x-height="504"
    cap-height="692"
    bbox="-172 -255 1240 975"
    underline-thickness="50"
    underline-position="-200"
    stemh="89"
    stemv="111"
    unicode-range="U+0020-FEFF"
  />
<missing-glyph 
d="M71 0v692h458v-692h-458zM163 511v-426h212zM437 606h-212l212 -428v428z" />
    <glyph glyph-name="f_j" unicode="fj" horiz-adv-x="559" 
d="M104 0v415h-83v89h83v28c0 150 99 204 198 204c90 0 148 -39 186 -97l-104 -64c-10 50 -39 72 -82 72c-49 0 -90 -31 -90 -115v-28h112v-89h-112v-415h-108zM355 -208l-100 74c100 20 127 59 127 167v471h112v-492c0 -120 -40 -195 -139 -220z" />
    <glyph glyph-name="f_adieresis" unicode="f&#xe4;" horiz-adv-x="867" 
d="M268 646c-41 0 -56 -31 -56 -85v-57h119v-89h-119v-415h-108v415h-83v89h83v60c0 112 62 172 158 172c70 0 112 -42 133 -74l-71 -76c-4 27 -18 60 -56 60zM607 427c-72 0 -113 -51 -126 -117l-99 56c31 86 116 150 226 150c109 0 197 -56 197 -182v-217
c0 -55 3 -85 12 -117h-86c-16 26 -21 42 -25 66h-3c-22 -34 -70 -78 -149 -78c-91 0 -159 54 -159 148c0 110 104 138 188 156c73 15 114 24 114 63c0 43 -39 72 -90 72zM701 193v68c-15 -22 -47 -34 -93 -45c-52 -12 -105 -25 -105 -75c0 -38 27 -65 79 -65
c62 0 119 43 119 117zM503 708c38 0 66 -27 66 -65c0 -39 -28 -66 -66 -66c-39 0 -66 27 -66 66c0 38 27 65 66 65zM691 708c38 0 66 -27 66 -65c0 -39 -28 -66 -66 -66c-39 0 -66 27 -66 66c0 38 27 65 66 65z" />
    <glyph glyph-name="f_odieresis" unicode="f&#xf6;" horiz-adv-x="883" 
d="M268 646c-41 0 -56 -31 -56 -85v-57h119v-89h-119v-415h-108v415h-83v89h83v60c0 112 62 172 158 172c70 0 112 -42 133 -74l-71 -76c-4 27 -18 60 -56 60zM609 -12c-139 0 -236 106 -236 264s97 264 236 264s235 -106 235 -264s-96 -264 -235 -264zM485 252
c0 -97 40 -175 124 -175c83 0 124 78 124 175s-41 175 -124 175c-84 0 -124 -78 -124 -175zM509 708c38 0 66 -27 66 -65c0 -39 -28 -66 -66 -66c-39 0 -66 27 -66 66c0 38 27 65 66 65zM697 708c38 0 66 -27 66 -65c0 -39 -28 -66 -66 -66c-39 0 -66 27 -66 66
c0 38 27 65 66 65z" />
    <glyph glyph-name="f_udieresis" unicode="f&#xfc;" horiz-adv-x="903" 
d="M268 646c-41 0 -56 -31 -56 -85v-57h119v-89h-119v-415h-108v415h-83v89h83v60c0 112 62 172 158 172c70 0 112 -42 133 -74l-71 -76c-4 27 -18 60 -56 60zM419 185v319h111v-298c0 -84 28 -122 91 -122c69 0 106 57 106 129v291h111v-504h-111l7 86h-3
c-22 -45 -65 -98 -150 -98c-101 0 -162 68 -162 197zM529 708c38 0 66 -27 66 -65c0 -39 -28 -66 -66 -66c-39 0 -66 27 -66 66c0 38 27 65 66 65zM717 708c38 0 66 -27 66 -65c0 -39 -28 -66 -66 -66c-39 0 -66 27 -66 66c0 38 27 65 66 65z" />
    <glyph glyph-name="f_b" unicode="fb" horiz-adv-x="943" 
d="M268 646c-41 0 -56 -31 -56 -85v-57h119v-89h-119v-415h-108v415h-83v89h83v60c0 112 62 172 158 172c70 0 112 -42 133 -74l-71 -76c-4 27 -18 60 -56 60zM548 77v-77h-109v724h111v-182c0 -61 -6 -124 -6 -124h2c22 46 72 98 155 98c111 0 204 -106 204 -264
s-93 -264 -204 -264c-83 0 -130 52 -151 89h-2zM546 252c0 -97 43 -173 124 -173s124 76 124 173s-43 173 -124 173s-124 -76 -124 -173z" />
    <glyph glyph-name="f_h" unicode="fh" horiz-adv-x="927" 
d="M268 646c-41 0 -56 -31 -56 -85v-57h119v-89h-119v-415h-108v415h-83v89h83v60c0 112 62 172 158 172c70 0 112 -42 133 -74l-71 -76c-4 27 -18 60 -56 60zM865 319v-319h-111v298c0 84 -32 122 -95 122c-68 0 -109 -54 -109 -124v-296h-111v724h111v-182
c0 -61 -6 -124 -6 -124h2c22 45 68 98 154 98c101 0 165 -68 165 -197z" />
    <glyph glyph-name="f_k" unicode="fk" horiz-adv-x="891" 
d="M268 646c-41 0 -56 -31 -56 -85v-57h119v-89h-119v-415h-108v415h-83v89h83v60c0 112 62 172 158 172c70 0 112 -42 133 -74l-71 -76c-4 27 -18 60 -56 60zM875 504l-172 -199l193 -305h-123l-142 224l-81 -99v-125h-111v724h111v-352c0 -61 -6 -125 -6 -125h2
s35 56 67 95l131 162h131z" />
    <glyph glyph-name="f_t" unicode="ft" horiz-adv-x="684" 
d="M626 120l49 -84c-18 -20 -60 -48 -115 -48c-75 0 -130 36 -130 140v287h-72v89h72v109l109 65v-174h123v-89h-123v-277c0 -43 13 -58 40 -58c25 0 40 23 47 40zM269 648c-41 0 -57 -32 -57 -87v-57h100v-89h-100v-415h-108v415h-83v89h83v60c0 112 64 172 161 172
c78 0 120 -45 143 -80l-84 -71c-3 29 -15 63 -55 63z" />
    <glyph glyph-name="t_t" unicode="tt" horiz-adv-x="691" 
d="M633 120l49 -84c-18 -20 -60 -48 -115 -48c-75 0 -130 36 -130 140v287h-80v89h80v109l109 65v-174h123v-89h-123v-277c0 -43 13 -58 40 -58c25 0 40 23 47 40zM295 120l49 -84c-17 -20 -59 -48 -114 -48c-75 0 -130 36 -130 140v287h-87v89h87v109l108 65v-174h103v-89
h-103v-277c0 -43 14 -58 40 -58c25 0 40 23 47 40z" />
    <glyph glyph-name="f_f_j" unicode="ffj" horiz-adv-x="946" 
d="M269 648c-41 0 -57 -32 -57 -87v-57h104v-89h-104v-415h-108v415h-83v89h83v60c0 112 64 172 161 172c78 0 120 -45 143 -80l-84 -71c-3 29 -15 63 -55 63zM598 646c-41 0 -55 -31 -55 -85v-57h118v-89h-118v-415h-109v415h-72v89h72v60c0 112 62 172 158 172
c70 0 112 -42 133 -74l-70 -76c-5 27 -19 60 -57 60zM825 712c39 0 69 -28 69 -67c0 -40 -30 -68 -69 -68c-40 0 -70 28 -70 68c0 39 30 67 70 67zM743 -208l-101 74c100 20 127 59 127 167v471h112v-492c0 -120 -40 -195 -138 -220z" />
    <glyph glyph-name="f_f_adieresis" unicode="ff&#xe4;" horiz-adv-x="1197" 
d="M269 648c-41 0 -57 -32 -57 -87v-57h104v-89h-104v-415h-108v415h-83v89h83v60c0 112 64 172 161 172c78 0 120 -45 143 -80l-84 -71c-3 29 -15 63 -55 63zM598 646c-41 0 -55 -31 -55 -85v-57h118v-89h-118v-415h-109v415h-72v89h72v60c0 112 62 172 158 172
c70 0 112 -42 133 -74l-70 -76c-5 27 -19 60 -57 60zM938 427c-72 0 -113 -51 -126 -117l-99 56c31 86 116 150 226 150c109 0 197 -56 197 -182v-217c0 -55 3 -85 12 -117h-86c-16 26 -21 42 -25 66h-3c-22 -34 -70 -78 -149 -78c-91 0 -159 54 -159 148
c0 110 104 138 188 156c73 15 114 24 114 63c0 43 -39 72 -90 72zM1032 193v68c-15 -22 -47 -34 -93 -45c-52 -12 -105 -25 -105 -75c0 -38 27 -65 79 -65c62 0 119 43 119 117zM833 708c38 0 66 -27 66 -65c0 -39 -28 -66 -66 -66c-39 0 -66 27 -66 66c0 38 27 65 66 65z
M1021 708c38 0 66 -27 66 -65c0 -39 -28 -66 -66 -66c-39 0 -66 27 -66 66c0 38 27 65 66 65z" />
    <glyph glyph-name="f_f_odieresis" unicode="ff&#xf6;" horiz-adv-x="1218" 
d="M269 648c-41 0 -57 -32 -57 -87v-57h104v-89h-104v-415h-108v415h-83v89h83v60c0 112 64 172 161 172c78 0 120 -45 143 -80l-84 -71c-3 29 -15 63 -55 63zM598 646c-41 0 -55 -31 -55 -85v-57h118v-89h-118v-415h-109v415h-72v89h72v60c0 112 62 172 158 172
c70 0 112 -42 133 -74l-70 -76c-5 27 -19 60 -57 60zM945 -12c-139 0 -236 106 -236 264s97 264 236 264s235 -106 235 -264s-96 -264 -235 -264zM821 252c0 -97 40 -175 124 -175c83 0 124 78 124 175s-41 175 -124 175c-84 0 -124 -78 -124 -175zM845 708
c38 0 66 -27 66 -65c0 -39 -28 -66 -66 -66c-39 0 -66 27 -66 66c0 38 27 65 66 65zM1033 708c38 0 66 -27 66 -65c0 -39 -28 -66 -66 -66c-39 0 -66 27 -66 66c0 38 27 65 66 65z" />
    <glyph glyph-name="f_f_udieresis" unicode="ff&#xfc;" horiz-adv-x="1233" 
d="M269 648c-41 0 -57 -32 -57 -87v-57h104v-89h-104v-415h-108v415h-83v89h83v60c0 112 64 172 161 172c78 0 120 -45 143 -80l-84 -71c-3 29 -15 63 -55 63zM598 646c-41 0 -55 -31 -55 -85v-57h118v-89h-118v-415h-109v415h-72v89h72v60c0 112 62 172 158 172
c70 0 112 -42 133 -74l-70 -76c-5 27 -19 60 -57 60zM749 185v319h111v-298c0 -84 28 -122 91 -122c69 0 106 57 106 129v291h111v-504h-111l7 86h-3c-22 -45 -65 -98 -150 -98c-101 0 -162 68 -162 197zM859 708c38 0 66 -27 66 -65c0 -39 -28 -66 -66 -66
c-39 0 -66 27 -66 66c0 38 27 65 66 65zM1047 708c38 0 66 -27 66 -65c0 -39 -28 -66 -66 -66c-39 0 -66 27 -66 66c0 38 27 65 66 65z" />
    <glyph glyph-name="f_f_b" unicode="ffb" horiz-adv-x="1273" 
d="M269 648c-41 0 -57 -32 -57 -87v-57h104v-89h-104v-415h-108v415h-83v89h83v60c0 112 64 172 161 172c78 0 120 -45 143 -80l-84 -71c-3 29 -15 63 -55 63zM598 646c-41 0 -55 -31 -55 -85v-57h118v-89h-118v-415h-109v415h-72v89h72v60c0 112 62 172 158 172
c70 0 112 -42 133 -74l-70 -76c-5 27 -19 60 -57 60zM878 77v-77h-109v724h111v-182c0 -61 -6 -124 -6 -124h2c22 46 72 98 155 98c111 0 204 -106 204 -264s-93 -264 -204 -264c-83 0 -130 52 -151 89h-2zM876 252c0 -97 43 -173 124 -173s124 76 124 173s-43 173 -124 173
s-124 -76 -124 -173z" />
    <glyph glyph-name="f_f_h" unicode="ffh" horiz-adv-x="1257" 
d="M269 648c-41 0 -57 -32 -57 -87v-57h104v-89h-104v-415h-108v415h-83v89h83v60c0 112 64 172 161 172c78 0 120 -45 143 -80l-84 -71c-3 29 -15 63 -55 63zM598 646c-41 0 -55 -31 -55 -85v-57h118v-89h-118v-415h-109v415h-72v89h72v60c0 112 62 172 158 172
c70 0 112 -42 133 -74l-70 -76c-5 27 -19 60 -57 60zM1195 319v-319h-111v298c0 84 -32 122 -95 122c-68 0 -109 -54 -109 -124v-296h-111v724h111v-182c0 -61 -6 -124 -6 -124h2c22 45 68 98 154 98c101 0 165 -68 165 -197z" />
    <glyph glyph-name="f_f_k" unicode="ffk" horiz-adv-x="1221" 
d="M269 648c-41 0 -57 -32 -57 -87v-57h104v-89h-104v-415h-108v415h-83v89h83v60c0 112 64 172 161 172c78 0 120 -45 143 -80l-84 -71c-3 29 -15 63 -55 63zM598 646c-41 0 -55 -31 -55 -85v-57h118v-89h-118v-415h-109v415h-72v89h72v60c0 112 62 172 158 172
c70 0 112 -42 133 -74l-70 -76c-5 27 -19 60 -57 60zM1205 504l-172 -199l193 -305h-123l-142 224l-81 -99v-125h-111v724h111v-352c0 -61 -6 -125 -6 -125h2s35 56 67 95l131 162h131z" />
    <glyph glyph-name="f_f_t" unicode="fft" horiz-adv-x="1015" 
d="M269 648c-41 0 -57 -32 -57 -87v-57h104v-89h-104v-415h-108v415h-83v89h83v60c0 112 64 172 161 172c78 0 120 -45 143 -80l-84 -71c-3 29 -15 63 -55 63zM957 120l49 -84c-18 -20 -60 -48 -115 -48c-75 0 -130 36 -130 140v287h-72v89h72v109l109 65v-174h123v-89h-123
v-277c0 -43 13 -58 40 -58c25 0 40 23 47 40zM600 648c-41 0 -57 -32 -57 -87v-57h100v-89h-100v-415h-108v415h-73v89h73v60c0 112 64 172 161 172c78 0 120 -45 143 -80l-84 -71c-3 29 -15 63 -55 63z" />
    <glyph glyph-name="f_f" unicode="ff" horiz-adv-x="683" 
d="M603 648c-41 0 -61 -31 -61 -87v-57h119v-89h-119v-415h-108v415h-72v89h72v60c0 112 68 172 165 172c84 0 135 -47 160 -92l-99 -60c-2 32 -18 64 -57 64zM269 648c-41 0 -57 -32 -57 -87v-57h104v-89h-104v-415h-108v415h-83v89h83v60c0 112 64 172 161 172
c78 0 120 -45 143 -80l-84 -71c-3 29 -15 63 -55 63z" />
    <glyph glyph-name="f_f_i" unicode="ffi" horiz-adv-x="946" 
d="M269 648c-41 0 -57 -32 -57 -87v-57h104v-89h-104v-415h-108v415h-83v89h83v60c0 112 64 172 161 172c78 0 120 -45 143 -80l-84 -71c-3 29 -15 63 -55 63zM598 646c-41 0 -55 -31 -55 -85v-57h118v-89h-118v-415h-109v415h-72v89h72v60c0 112 62 172 158 172
c70 0 112 -42 133 -74l-70 -76c-5 27 -19 60 -57 60zM769 0v504h112v-504h-112zM825 712c39 0 69 -28 69 -67c0 -40 -30 -68 -69 -68c-40 0 -70 28 -70 68c0 39 30 67 70 67z" />
    <glyph glyph-name="f_f_l" unicode="ffl" horiz-adv-x="946" 
d="M269 648c-41 0 -57 -32 -57 -87v-57h104v-89h-104v-415h-108v415h-83v89h83v60c0 112 64 172 161 172c78 0 120 -45 143 -80l-84 -71c-3 29 -15 63 -55 63zM598 646c-41 0 -55 -31 -55 -85v-57h118v-89h-118v-415h-109v415h-72v89h72v60c0 112 62 172 158 172
c70 0 112 -42 133 -74l-70 -76c-5 27 -19 60 -57 60zM769 0v724h112v-724h-112z" />
    <glyph glyph-name="f_i" unicode="fi" horiz-adv-x="559" 
d="M104 0v415h-83v89h83v28c0 150 99 204 198 204c90 0 148 -39 186 -97l-104 -64c-10 50 -39 72 -82 72c-49 0 -90 -31 -90 -115v-28h112v-89h-112v-415h-108zM382 0v504h112v-504h-112z" />
    <glyph glyph-name="f_l" unicode="fl" horiz-adv-x="566" 
d="M389 0v552c0 67 -38 95 -85 95c-58 0 -92 -31 -92 -107v-36h112v-89h-112v-415h-108v415h-83v89h83v47c0 129 83 185 164 185c73 0 107 -39 122 -59h2v47h108v-724h-111z" />
    <glyph glyph-name=".notdef" 
d="M71 0v692h458v-692h-458zM163 511v-426h212zM437 606h-212l212 -428v428z" />
    <glyph glyph-name="space" unicode=" " horiz-adv-x="227" 
 />
    <glyph glyph-name="at" unicode="@" horiz-adv-x="861" 
d="M440 384c-51 0 -80 -35 -89 -72l-81 45c29 54 86 102 173 102c82 0 143 -43 143 -136v-117c0 -38 16 -56 48 -56c50 0 85 59 85 138c0 163 -116 276 -280 276c-175 0 -297 -125 -297 -307c0 -186 123 -311 293 -311c98 0 179 30 219 89l90 -53
c-56 -59 -165 -116 -309 -116c-217 0 -384 154 -384 391c0 229 166 389 388 389c210 0 371 -148 371 -358c0 -148 -94 -212 -179 -212c-49 0 -95 15 -116 54h-2c-16 -21 -56 -54 -114 -54c-65 0 -120 45 -120 107c0 76 68 101 132 114c50 10 86 18 86 44c0 27 -27 43 -57 43
zM500 227v39c-9 -13 -34 -20 -66 -28c-30 -8 -66 -17 -66 -49c0 -25 23 -39 52 -39c39 0 80 25 80 77z" />
    <glyph glyph-name="A" unicode="A" horiz-adv-x="651" 
d="M523 0l-62 178h-274l-62 -178h-116l248 692h137l249 -692h-120zM293 484l-73 -209h208l-72 209c-13 37 -30 98 -30 98h-3s-17 -61 -30 -98z" />
    <glyph glyph-name="B" unicode="B" horiz-adv-x="629" 
d="M72 0v692h258c141 0 240 -63 240 -173c0 -86 -51 -132 -101 -152v-3c56 -15 127 -61 127 -166c0 -120 -90 -198 -241 -198h-283zM453 501c0 62 -43 92 -112 92h-154v-189h154c69 0 112 35 112 97zM479 204c0 65 -44 103 -117 103h-175v-208h175c73 0 117 40 117 105z" />
    <glyph glyph-name="C" unicode="C" horiz-adv-x="663" 
d="M352 -12c-172 0 -311 136 -311 360c0 223 139 356 311 356c153 0 262 -111 280 -223l-109 -68c-5 104 -60 188 -171 188c-129 0 -193 -111 -193 -253s64 -257 193 -257c111 0 166 88 171 192l109 -68c-18 -112 -127 -227 -280 -227z" />
    <glyph glyph-name="D" unicode="D" horiz-adv-x="693" 
d="M72 692h245c197 0 334 -123 334 -344s-137 -348 -334 -348h-245v692zM533 348c0 136 -68 242 -200 242h-145v-488h145c132 0 200 106 200 246z" />
    <glyph glyph-name="E" unicode="E" horiz-adv-x="571" 
d="M72 0v692h452v-102h-337v-185h320v-101h-320v-202h345v-102h-460z" />
    <glyph glyph-name="F" unicode="F" horiz-adv-x="547" 
d="M72 0v692h443v-102h-327v-191h310v-101h-310v-298h-116z" />
    <glyph glyph-name="G" unicode="G" horiz-adv-x="699" 
d="M359 601c-132 0 -200 -111 -200 -253s61 -258 195 -258c106 0 169 79 169 184v11h-222v100h334v-385h-109l10 102h-3c-33 -59 -96 -114 -199 -114c-167 0 -293 136 -293 360s142 356 318 356c146 0 248 -84 284 -192l-109 -68c-12 86 -72 157 -175 157z" />
    <glyph glyph-name="H" unicode="H" horiz-adv-x="692" 
d="M504 0v303h-316v-303h-116v692h116v-286h316v286h115v-692h-115z" />
    <glyph glyph-name="I" unicode="I" horiz-adv-x="262" 
d="M72 0v692h118v-692h-118z" />
    <glyph glyph-name="J" unicode="J" horiz-adv-x="555" 
d="M374 692h116v-425c0 -189 -80 -279 -226 -279c-147 0 -227 97 -227 238c0 16 1 26 2 38l118 71s-7 -54 -7 -88c0 -94 35 -156 114 -156s110 60 110 165v436z" />
    <glyph glyph-name="K" unicode="K" horiz-adv-x="631" 
d="M72 0v692h114v-229c0 -66 -3 -130 -3 -130h3s34 56 84 118l195 241h137l-222 -268l256 -424h-130l-202 333l-118 -145v-188h-114z" />
    <glyph glyph-name="L" unicode="L" horiz-adv-x="519" 
d="M72 0v692h116v-588h318v-104h-434z" />
    <glyph glyph-name="M" unicode="M" horiz-adv-x="842" 
d="M422 141h2s15 63 33 116l146 435h167v-692h-111v425c0 66 3 132 3 132h-3s-19 -62 -37 -114l-149 -443h-105l-148 443c-18 52 -38 117 -38 117h-2s3 -69 3 -135v-425h-111v692h173l145 -435c17 -53 32 -116 32 -116z" />
    <glyph glyph-name="N" unicode="N" horiz-adv-x="702" 
d="M630 0h-160l-229 436c-25 47 -60 129 -60 129l-3 -1c0 -2 5 -73 5 -138v-426h-111v692h160l229 -436c24 -47 61 -129 61 -129h3c0 2 -5 74 -5 139v426h110v-692z" />
    <glyph glyph-name="O" unicode="O" horiz-adv-x="715" 
d="M357 -12c-175 0 -316 136 -316 360s141 356 316 356c176 0 317 -132 317 -356s-141 -360 -317 -360zM556 348c0 142 -67 253 -199 253c-131 0 -198 -111 -198 -253s67 -257 198 -257c132 0 199 115 199 257z" />
    <glyph glyph-name="P" unicode="P" horiz-adv-x="624" 
d="M72 0v692h284c154 0 248 -75 248 -207s-94 -211 -248 -211h-168v-274h-116zM487 485c0 72 -45 105 -124 105h-175v-214h175c79 0 124 37 124 109z" />
    <glyph glyph-name="Q" unicode="Q" horiz-adv-x="716" 
d="M357 -12c-175 0 -316 136 -316 360s141 356 316 356c176 0 317 -132 317 -356c0 -145 -62 -250 -152 -306v-2c4 1 10 1 18 1c65 0 128 -27 163 -75l-80 -89c-34 52 -102 111 -266 111zM556 348c0 142 -67 253 -199 253c-131 0 -198 -111 -198 -253s67 -257 198 -257
c132 0 199 115 199 257z" />
    <glyph glyph-name="R" unicode="R" horiz-adv-x="633" 
d="M72 0v692h278c154 0 248 -76 248 -202c0 -97 -59 -165 -151 -193l168 -297h-124l-160 284h-144v-284h-115zM481 490c0 67 -45 102 -124 102h-170v-209h170c79 0 124 38 124 107z" />
    <glyph glyph-name="S" unicode="S" horiz-adv-x="615" 
d="M263 318c-94 29 -204 68 -204 190c0 116 98 196 233 196c115 0 230 -58 279 -180l-105 -66c-15 91 -85 148 -176 148c-65 0 -117 -34 -117 -88c0 -74 101 -86 196 -116c107 -34 215 -76 215 -206c0 -122 -104 -208 -253 -208c-140 0 -259 74 -298 209l107 66
c15 -97 77 -177 193 -177c79 0 137 39 137 103c0 87 -107 97 -207 129z" />
    <glyph glyph-name="T" unicode="T" horiz-adv-x="549" 
d="M5 588v104h539v-104h-212v-588h-116v588h-211z" />
    <glyph glyph-name="U" unicode="U" horiz-adv-x="673" 
d="M337 -12c-164 0 -272 93 -272 296v408h116v-415c0 -121 53 -186 156 -186c102 0 156 65 156 186v415h115v-408c0 -203 -109 -296 -271 -296z" />
    <glyph glyph-name="V" unicode="V" horiz-adv-x="638" 
d="M133 692l156 -467c12 -38 30 -104 30 -104h3s19 67 31 104l155 467h121l-241 -692h-139l-240 692h124z" />
    <glyph glyph-name="W" unicode="W" horiz-adv-x="848" 
d="M491 692l104 -467c8 -38 19 -106 19 -106h2s6 64 13 102l87 471h119l-142 -692h-145l-103 452c-12 52 -20 112 -20 112h-2s-8 -60 -20 -112l-103 -452h-144l-143 692h121l87 -471c7 -38 13 -102 13 -102h2s11 68 19 106l105 467h131z" />
    <glyph glyph-name="X" unicode="X" horiz-adv-x="617" 
d="M356 205c-23 40 -48 85 -48 85h-3s-24 -45 -48 -85l-119 -205h-127l215 358l-199 334h130l104 -180c23 -41 47 -86 47 -86h2s24 45 48 86l104 180h125l-198 -331l217 -361h-131z" />
    <glyph glyph-name="Y" unicode="Y" horiz-adv-x="583" 
d="M233 0v263l-235 429h125l126 -238c23 -45 43 -91 43 -91h2s20 46 44 91l126 238h122l-237 -429v-263h-116z" />
    <glyph glyph-name="Z" unicode="Z" horiz-adv-x="567" 
d="M27 0v76l362 513h-356v103h504v-79l-359 -510h366v-103h-517z" />
    <glyph glyph-name="ampersand" unicode="&#x26;" horiz-adv-x="669" 
d="M307 343c36 -65 83 -127 125 -175c38 54 64 131 72 235l99 -57c-17 -89 -54 -168 -111 -235c18 -17 38 -31 65 -31c28 0 39 22 45 42l55 -85c-22 -23 -52 -49 -105 -49c-58 0 -97 25 -127 51c-43 -30 -98 -51 -158 -51c-130 0 -230 71 -230 189c0 96 74 153 145 195
c-24 54 -38 107 -38 153c0 106 72 179 177 179c91 0 162 -57 162 -147c0 -89 -85 -154 -176 -214zM362 101c-52 57 -104 127 -144 199c-39 -29 -68 -62 -68 -113c0 -69 58 -112 124 -112c33 0 62 11 88 26zM247 528c0 -35 10 -75 27 -116c52 33 113 78 113 139
c0 39 -25 66 -64 66c-46 0 -76 -38 -76 -89z" />
    <glyph glyph-name="AE" unicode="&#xc6;" horiz-adv-x="898" 
d="M446 0v177h-230l-98 -177h-125l392 692h467v-99h-294v-190h276v-97h-276v-207h302v-99h-414zM404 514l-135 -242h177v321h-3s-18 -42 -39 -79z" />
    <glyph glyph-name="OE" unicode="&#x152;" horiz-adv-x="912" 
d="M874 0h-416c-31 -8 -63 -12 -95 -12c-178 0 -322 136 -322 360s144 356 322 356c32 0 64 -4 95 -12h408v-99h-293v-190h276v-97h-276v-207h301v-99zM460 587c-29 11 -61 18 -97 18c-136 0 -204 -114 -204 -257s68 -261 204 -261c36 0 68 6 97 18v482z" />
    <glyph glyph-name="Eth" unicode="&#xd0;" horiz-adv-x="739" 
d="M364 0h-245v312h-93v84h93v296h245c197 0 334 -123 334 -344s-137 -348 -334 -348zM385 312h-153v-210h148c132 0 201 106 201 246s-69 242 -201 242h-148v-194h153v-84z" />
    <glyph glyph-name="Dcroat" unicode="&#x110;" horiz-adv-x="739" 
d="M364 0h-245v312h-93v84h93v296h245c197 0 334 -123 334 -344s-137 -348 -334 -348zM385 312h-153v-210h148c132 0 201 106 201 246s-69 242 -201 242h-148v-194h153v-84z" />
    <glyph glyph-name="Hbar" unicode="&#x126;" horiz-adv-x="782" 
d="M756 497h-92v-497h-113v298h-321v-298h-113v497h-91v84h91v111h113v-111h321v111h113v-111h92v-84zM230 398h321v99h-321v-99z" />
    <glyph glyph-name="IJ" unicode="&#x132;" horiz-adv-x="585" 
d="M181 211v-4c0 -57 26 -116 108 -116c86 0 116 58 116 155v446h115v-424c0 -206 -97 -280 -231 -280c-140 0 -211 84 -220 172zM65 267v425h116v-425h-116z" />
    <glyph glyph-name="Lslash" unicode="&#x141;" horiz-adv-x="562" 
d="M112 0v233l-74 -37l-39 77l113 58v361h113v-303l150 77l39 -79l-189 -96v-188h321v-103h-434z" />
    <glyph glyph-name="Ldot" unicode="&#x13f;" horiz-adv-x="523" 
d="M72 0v692h116v-588h318v-104h-434zM346 421c39 0 69 -28 69 -67c0 -40 -30 -68 -69 -68c-40 0 -70 28 -70 68c0 39 30 67 70 67z" />
    <glyph glyph-name="Lcaron" unicode="&#x13d;" horiz-adv-x="531" 
d="M72 0v692h116v-588h318v-104h-434zM291 536c30 7 66 23 73 62h-9c-30 0 -54 19 -54 51c0 33 24 51 56 51c38 0 66 -31 66 -81c0 -56 -26 -100 -64 -123z" />
    <glyph glyph-name="Eng" unicode="&#x14a;" horiz-adv-x="708" 
d="M254 -102l97 75c10 -48 38 -82 84 -82c51 0 85 37 85 111v3l-266 436c-28 46 -73 129 -73 129l-3 -1c0 -2 5 -73 5 -139v-430h-111v692h155l239 -388c28 -45 55 -102 55 -102h2s-3 74 -3 140v350h110v-664c0 -171 -94 -236 -197 -236c-84 0 -150 44 -179 106z" />
    <glyph glyph-name="Oslash" unicode="&#xd8;" horiz-adv-x="727" 
d="M363 -12c-63 0 -121 18 -171 51l-60 -80l-80 59l68 91c-45 60 -73 141 -73 239c0 224 141 356 316 356c62 0 120 -18 169 -50l62 84l80 -59l-69 -92c47 -60 75 -141 75 -239c0 -224 -141 -360 -317 -360zM566 348c0 59 -10 111 -31 153l-285 -382c30 -21 67 -33 113 -33
c134 0 203 119 203 262zM474 574c-30 21 -67 32 -111 32c-133 0 -202 -115 -202 -258c0 -58 9 -111 29 -154z" />
    <glyph glyph-name="Tbar" unicode="&#x166;" horiz-adv-x="563" 
d="M12 589v103h539v-103h-212v-205h122v-85h-122v-299h-116v299h-121v85h121v205h-211z" />
    <glyph glyph-name="Thorn" unicode="&#xde;" horiz-adv-x="624" 
d="M72 0v692h116v-105h168c154 0 248 -74 248 -207c0 -132 -94 -211 -248 -211h-168v-169h-116zM487 380c0 72 -45 106 -124 106h-175v-215h175c79 0 124 37 124 109z" />
    <glyph glyph-name="Uogonek" unicode="&#x172;" horiz-adv-x="673" 
d="M493 -88l75 -50c-22 -34 -64 -70 -126 -70c-67 0 -114 36 -114 93c0 41 36 82 58 105v3c-16 -3 -32 -5 -49 -5c-164 0 -272 93 -272 296v408h115v-415c0 -121 54 -186 157 -186c102 0 156 65 156 186v415h115v-408c0 -184 -85 -234 -124 -271s-74 -79 -74 -112
c0 -24 13 -37 36 -37c25 0 41 25 47 48z" />
    <glyph glyph-name="a" unicode="a" horiz-adv-x="521" 
d="M262 427c-72 0 -113 -51 -126 -117l-99 56c31 86 116 150 226 150c109 0 197 -56 197 -182v-217c0 -55 3 -85 12 -117h-86c-16 26 -21 42 -25 66h-3c-22 -34 -70 -78 -149 -78c-91 0 -159 54 -159 148c0 110 104 138 188 156c73 15 114 24 114 63c0 43 -39 72 -90 72z
M356 193v68c-15 -22 -47 -34 -93 -45c-52 -12 -105 -25 -105 -75c0 -38 27 -65 79 -65c62 0 119 43 119 117z" />
    <glyph glyph-name="b" unicode="b" horiz-adv-x="570" 
d="M174 77v-77h-109v724h111v-182c0 -61 -6 -124 -6 -124h2c22 46 72 98 155 98c111 0 204 -106 204 -264s-93 -264 -204 -264c-83 0 -130 52 -151 89h-2zM172 252c0 -97 43 -173 124 -173s124 76 124 173s-43 173 -124 173s-124 -76 -124 -173z" />
    <glyph glyph-name="c" unicode="c" horiz-adv-x="509" 
d="M270 427c-83 0 -120 -78 -120 -175s37 -175 120 -175c74 0 107 64 107 134l103 -57c-14 -76 -83 -166 -210 -166c-139 0 -232 106 -232 264s93 264 232 264c127 0 196 -90 210 -166l-103 -57c0 70 -33 134 -107 134z" />
    <glyph glyph-name="d" unicode="d" horiz-adv-x="569" 
d="M400 86h-2c-23 -46 -72 -98 -155 -98c-111 0 -205 106 -205 264s94 264 205 264c83 0 128 -52 148 -85h3v293h110v-724h-110zM274 79c81 0 124 76 124 173s-43 173 -124 173c-82 0 -124 -76 -124 -173s42 -173 124 -173z" />
    <glyph glyph-name="e" unicode="e" horiz-adv-x="526" 
d="M484 224h-340c6 -89 55 -149 131 -149c63 0 104 44 113 100l98 -57c-31 -68 -107 -130 -211 -130c-143 0 -237 104 -237 264c0 158 99 264 235 264c133 0 218 -96 218 -230c0 -37 -7 -62 -7 -62zM273 431c-68 0 -114 -51 -126 -127h238c0 69 -42 127 -112 127z" />
    <glyph glyph-name="f" unicode="f" horiz-adv-x="353" 
d="M273 648c-41 0 -61 -31 -61 -87v-57h119v-89h-119v-415h-108v415h-83v89h83v60c0 112 68 172 165 172c84 0 135 -50 160 -94l-99 -61c-2 32 -18 67 -57 67z" />
    <glyph glyph-name="g" unicode="g" horiz-adv-x="538" 
d="M59 348c0 104 89 168 198 168c47 0 73 -13 113 -13c43 0 57 22 57 53c0 17 -3 31 -5 45l109 -62c-1 -63 -29 -90 -82 -90c-14 0 -33 4 -44 7v-2c23 -21 56 -57 56 -113c0 -101 -93 -166 -202 -166c-58 0 -113 -21 -113 -53c0 -22 18 -33 66 -33c45 0 91 8 146 8
c100 0 174 -44 174 -138c0 -120 -130 -165 -269 -165c-131 0 -256 39 -256 132c0 54 55 90 107 99v3c-37 12 -69 35 -69 78c0 55 53 85 111 98v3c-56 24 -97 70 -97 141zM104 -64c0 -44 73 -64 158 -64c92 0 164 23 164 77c0 41 -52 55 -115 55c-72 0 -207 -9 -207 -68z
M161 345c0 -57 45 -91 99 -91c55 0 99 34 99 91s-44 92 -99 92c-54 0 -99 -35 -99 -92z" />
    <glyph glyph-name="h" unicode="h" horiz-adv-x="553" 
d="M491 319v-319h-111v298c0 84 -32 122 -95 122c-68 0 -109 -54 -109 -124v-296h-111v724h111v-182c0 -61 -6 -124 -6 -124h2c22 45 68 98 154 98c101 0 165 -68 165 -197z" />
    <glyph glyph-name="i" unicode="i" horiz-adv-x="242" 
d="M65 0v504h112v-504h-112zM121 712c39 0 69 -28 69 -67c0 -40 -30 -68 -69 -68c-40 0 -70 28 -70 68c0 39 30 67 70 67z" />
    <glyph glyph-name="j" unicode="j" horiz-adv-x="250" 
d="M47 -208l-101 74c100 20 127 59 127 167v471h112v-492c0 -120 -40 -195 -138 -220zM129 712c39 0 69 -28 69 -67c0 -40 -30 -68 -69 -68c-40 0 -70 28 -70 68c0 39 30 67 70 67z" />
    <glyph glyph-name="k" unicode="k" horiz-adv-x="517" 
d="M501 504l-172 -199l193 -305h-123l-142 224l-81 -99v-125h-111v724h111v-352c0 -61 -6 -125 -6 -125h2s35 56 67 95l131 162h131z" />
    <glyph glyph-name="l" unicode="l" horiz-adv-x="242" 
d="M65 0v724h112v-724h-112z" />
    <glyph glyph-name="m" unicode="m" horiz-adv-x="826" 
d="M65 0v504h110l-7 -86h3c22 44 65 98 144 98c67 0 113 -33 134 -97h3c24 47 70 97 153 97c98 0 159 -67 159 -186v-330h-110v308c0 76 -30 112 -86 112c-61 0 -99 -50 -99 -127v-293h-109v319c0 68 -34 101 -86 101c-61 0 -99 -48 -99 -122v-298h-110z" />
    <glyph glyph-name="n" unicode="n" horiz-adv-x="553" 
d="M491 319v-319h-111v298c0 84 -32 122 -95 122c-68 0 -109 -54 -109 -124v-296h-111v504h111l-6 -86h2c22 45 68 98 154 98c101 0 165 -68 165 -197z" />
    <glyph glyph-name="o" unicode="o" horiz-adv-x="547" 
d="M274 -12c-139 0 -236 106 -236 264s97 264 236 264s235 -106 235 -264s-96 -264 -235 -264zM150 252c0 -97 40 -175 124 -175c83 0 124 78 124 175s-41 175 -124 175c-84 0 -124 -78 -124 -175z" />
    <glyph glyph-name="p" unicode="p" horiz-adv-x="570" 
d="M170 418h2c22 46 72 98 155 98c111 0 204 -106 204 -264s-93 -264 -204 -264c-83 0 -129 52 -149 86h-2v-270h-111v700h111zM172 252c0 -97 43 -173 124 -173s124 76 124 173s-43 173 -124 173s-124 -76 -124 -173z" />
    <glyph glyph-name="q" unicode="q" horiz-adv-x="570" 
d="M396 427v77h108v-700h-110v158c0 61 6 124 6 124h-2c-23 -46 -72 -98 -155 -98c-111 0 -205 106 -205 264s94 264 205 264c83 0 129 -52 150 -89h3zM398 252c0 97 -43 173 -124 173c-82 0 -124 -76 -124 -173s42 -173 124 -173c81 0 124 76 124 173z" />
    <glyph glyph-name="r" unicode="r" horiz-adv-x="426" 
d="M65 0v504h111l-6 -86h2c22 53 63 95 125 95c70 0 113 -59 113 -132c0 -30 -5 -54 -5 -54l-103 -61c2 7 9 46 9 79c0 39 -16 72 -56 72c-55 0 -79 -57 -79 -129v-288h-111z" />
    <glyph glyph-name="s" unicode="s" horiz-adv-x="502" 
d="M273 72c46 0 85 22 85 64c0 51 -62 62 -130 81c-76 20 -173 55 -173 151c0 91 88 148 184 148c100 0 189 -50 225 -124l-98 -57c-11 51 -55 97 -122 97c-42 0 -81 -20 -81 -59c0 -49 75 -55 148 -78c82 -26 155 -60 155 -153c0 -96 -90 -154 -190 -154
c-123 0 -210 56 -244 144l100 57c11 -62 58 -117 141 -117z" />
    <glyph glyph-name="t" unicode="t" horiz-adv-x="353" 
d="M295 120l49 -84c-17 -20 -59 -48 -114 -48c-75 0 -130 36 -130 140v287h-87v89h87v109l108 65v-174h123v-89h-123v-277c0 -43 14 -58 40 -58c25 0 40 23 47 40z" />
    <glyph glyph-name="u" unicode="u" horiz-adv-x="546" 
d="M62 185v319h111v-298c0 -84 28 -122 91 -122c69 0 106 57 106 129v291h111v-504h-111l7 86h-3c-22 -45 -65 -98 -150 -98c-101 0 -162 68 -162 197z" />
    <glyph glyph-name="v" unicode="v" horiz-adv-x="486" 
d="M181 0l-173 504h117l75 -240c20 -65 44 -150 44 -150h2s24 85 44 150l75 240h114l-174 -504h-124z" />
    <glyph glyph-name="w" unicode="w" horiz-adv-x="728" 
d="M254 308l51 196h123l51 -196c19 -73 44 -194 44 -194h3s21 121 35 194l37 196h109l-113 -504h-130l-57 230c-17 69 -41 166 -41 166h-2s-24 -97 -41 -166l-56 -230h-133l-113 504h114l37 -196c14 -73 35 -194 35 -194h3s26 121 44 194z" />
    <glyph glyph-name="x" unicode="x" horiz-adv-x="481" 
d="M460 504l-146 -244l159 -260h-120l-71 122c-26 46 -41 77 -41 77h-3s-15 -31 -41 -77l-71 -122h-118l158 260l-145 244h119l49 -90c26 -48 51 -96 51 -96h3s24 48 51 96l50 90h116z" />
    <glyph glyph-name="y" unicode="y" horiz-adv-x="479" 
d="M244 132h3s21 78 39 138l72 234h113l-177 -524c-25 -75 -65 -155 -153 -188l-89 75c64 17 115 55 137 120l3 11l-184 506h118l75 -231c19 -58 43 -141 43 -141z" />
    <glyph glyph-name="z" unicode="z" horiz-adv-x="469" 
d="M42 415v89h385v-65l-249 -350h258v-89h-398v65l249 350h-245z" />
    <glyph glyph-name="ae" unicode="&#xe6;" horiz-adv-x="811" 
d="M258 427c-68 0 -109 -49 -121 -115l-99 56c30 85 114 148 220 148c65 0 122 -24 154 -75c39 47 93 75 158 75c128 0 206 -96 206 -230c0 -37 -7 -62 -7 -62h-320c5 -89 49 -149 121 -149c60 0 95 44 104 100l98 -57c-31 -68 -100 -130 -202 -130c-76 0 -136 34 -174 92
c-29 -48 -91 -92 -176 -92c-96 0 -173 54 -173 148c0 110 101 138 183 156c69 15 112 23 112 63c0 43 -37 72 -84 72zM346 194v65c-14 -19 -48 -32 -91 -43c-48 -11 -100 -24 -100 -75c0 -38 30 -65 82 -65c56 0 109 44 109 118zM568 431c-65 0 -105 -51 -116 -127h219
c0 69 -36 127 -103 127z" />
    <glyph glyph-name="oe" unicode="&#x153;" horiz-adv-x="847" 
d="M266 -12c-134 0 -228 106 -228 264s94 264 228 264c72 0 131 -35 168 -93c39 58 99 93 172 93c128 0 206 -96 206 -230c0 -37 -7 -62 -7 -62h-321c5 -89 49 -149 122 -149c59 0 94 44 103 100l98 -57c-30 -68 -100 -130 -201 -130c-75 0 -136 33 -174 90
c-37 -57 -95 -90 -166 -90zM150 252c0 -97 37 -175 116 -175c78 0 116 78 116 175s-38 175 -116 175c-79 0 -116 -78 -116 -175zM603 431c-64 0 -105 -51 -116 -127h219c0 69 -36 127 -103 127z" />
    <glyph glyph-name="germandbls" unicode="&#xdf;" horiz-adv-x="562" 
d="M277 367v86c58 16 96 57 96 109s-37 85 -93 85c-58 0 -104 -40 -104 -122v-525h-111v526c0 146 104 210 215 210c112 0 199 -63 199 -160c0 -79 -51 -125 -98 -147v-2c75 -22 145 -85 145 -207c0 -146 -73 -232 -186 -232c-59 0 -110 23 -132 50l46 86
c12 -20 36 -45 75 -45c58 0 87 51 87 141c0 93 -41 141 -139 147z" />
    <glyph glyph-name="dotlessi" unicode="&#x131;" horiz-adv-x="242" 
d="M65 0v504h112v-504h-112z" />
    <glyph glyph-name="dotlessj" unicode="&#xf6be;" horiz-adv-x="250" 
d="M47 -208l-101 74c100 20 127 59 127 167v471h112v-492c0 -120 -40 -195 -138 -220z" />
    <glyph glyph-name="eth" unicode="&#xf0;" horiz-adv-x="557" 
d="M469 663l-78 -47c78 -77 124 -180 124 -311c0 -205 -91 -317 -241 -317c-137 0 -236 102 -236 250c0 147 102 238 213 238c68 0 128 -42 149 -80h5c-14 70 -50 126 -98 169l-106 -65l-47 61l89 55c-35 23 -73 42 -113 58l90 62c40 -19 78 -41 112 -66l89 55zM148 234
c0 -91 48 -157 126 -157s127 67 127 158s-49 153 -127 153s-126 -63 -126 -154z" />
    <glyph glyph-name="dcroat" unicode="&#x111;" horiz-adv-x="589" 
d="M400 86h-2c-23 -46 -72 -98 -155 -98c-111 0 -205 106 -205 264s94 264 205 264c83 0 128 -52 148 -85h3v126h-108v79h108v88h108v-88h90v-79h-90v-557h-108zM274 79c81 0 124 76 124 173s-43 173 -124 173c-82 0 -124 -76 -124 -173s42 -173 124 -173z" />
    <glyph glyph-name="dcaron" unicode="&#x10f;" horiz-adv-x="719" 
d="M400 86h-2c-23 -46 -72 -98 -155 -98c-111 0 -205 106 -205 264s94 264 205 264c83 0 128 -52 148 -85h3v293h110v-724h-110zM274 79c81 0 124 76 124 173s-43 173 -124 173c-82 0 -124 -76 -124 -173s42 -173 124 -173zM570 569c30 7 66 23 73 62h-9
c-30 0 -54 19 -54 51c0 33 24 51 56 51c38 0 66 -31 66 -81c0 -56 -26 -100 -64 -123z" />
    <glyph glyph-name="hbar" unicode="&#x127;" horiz-adv-x="564" 
d="M-5 557v79h82v88h108v-88h115v-79h-115v-19c0 -59 -4 -120 -4 -120h2c23 45 68 98 154 98c101 0 165 -68 165 -197v-319h-110v298c0 84 -33 122 -96 122c-67 0 -109 -54 -109 -124v-296h-110v557h-82z" />
    <glyph glyph-name="ij" unicode="&#x133;" horiz-adv-x="484" 
d="M65 0v504h112v-504h-112zM281 -208l-101 74c100 20 127 59 127 167v471h112v-492c0 -120 -40 -195 -138 -220zM121 712c39 0 69 -28 69 -67c0 -40 -30 -68 -69 -68c-40 0 -70 28 -70 68c0 39 30 67 70 67zM363 712c39 0 69 -28 69 -67c0 -40 -30 -68 -69 -68
c-40 0 -70 28 -70 68c0 39 30 67 70 67z" />
    <glyph glyph-name="lslash" unicode="&#x142;" horiz-adv-x="375" 
d="M376 376l-136 -70v-306h-109v250l-90 -46l-38 76l128 66v378h109v-322l98 51z" />
    <glyph glyph-name="ldot" unicode="&#x140;" horiz-adv-x="422" 
d="M65 0v724h112v-724h-112zM324 377c39 0 69 -28 69 -67c0 -40 -30 -68 -69 -68c-40 0 -70 28 -70 68c0 39 30 67 70 67z" />
    <glyph glyph-name="lcaron" unicode="&#x13e;" horiz-adv-x="392" 
d="M65 0v724h112v-724h-112zM241 569c30 7 66 23 73 62h-9c-30 0 -54 19 -54 51c0 33 24 51 56 51c38 0 66 -31 66 -81c0 -56 -26 -100 -64 -123z" />
    <glyph glyph-name="eng" unicode="&#x14b;" horiz-adv-x="553" 
d="M349 -208l-97 73c98 20 128 64 128 171v262c0 84 -32 122 -95 122c-69 0 -109 -57 -109 -129v-291h-111v504h111l-6 -86h2c22 45 68 98 154 98c101 0 165 -68 165 -197v-299c0 -121 -38 -202 -142 -228z" />
    <glyph glyph-name="oslash" unicode="&#xf8;" horiz-adv-x="557" 
d="M279 -12c-46 0 -88 12 -122 32l-44 -57l-74 55l52 66c-31 44 -48 101 -48 168c0 158 97 264 236 264c45 0 86 -11 120 -32l46 59l73 -55l-52 -68c30 -44 48 -101 48 -168c0 -158 -97 -264 -235 -264zM207 94c19 -13 42 -20 72 -20c88 0 132 79 132 178c0 34 -4 64 -13 90
zM147 252c0 -34 3 -64 12 -90l191 248c-19 13 -43 20 -71 20c-89 0 -132 -79 -132 -178z" />
    <glyph glyph-name="longs" unicode="&#x17f;" horiz-adv-x="251" 
d="M236 648c-41 0 -59 -31 -59 -87v-561h-112v564c0 112 70 172 167 172c84 0 135 -50 160 -94l-99 -61c-2 32 -19 67 -57 67z" />
    <glyph glyph-name="thorn" unicode="&#xfe;" horiz-adv-x="570" 
d="M178 74h-2v-270h-111v920h111v-182c0 -61 -6 -124 -6 -124h2c22 46 72 98 155 98c111 0 204 -106 204 -264s-93 -264 -204 -264c-83 0 -129 52 -149 86zM172 252c0 -97 43 -173 124 -173s124 76 124 173s-43 173 -124 173s-124 -76 -124 -173z" />
    <glyph glyph-name="tcaron" unicode="&#x165;" horiz-adv-x="477" 
d="M295 120l49 -84c-17 -20 -59 -48 -114 -48c-75 0 -130 36 -130 140v287h-87v89h87v109l108 65v-174h123v-89h-123v-277c0 -43 14 -58 40 -58c25 0 40 23 47 40zM351 542c30 7 66 23 73 62h-9c-30 0 -54 19 -54 51c0 33 24 51 56 51c38 0 66 -31 66 -81
c0 -56 -26 -100 -64 -123z" />
    <glyph glyph-name="tbar" unicode="&#x167;" horiz-adv-x="380" 
d="M24 245v79h97v93h-87v87h87v109l106 64v-173h125v-87h-125v-93h131v-79h-131v-107c0 -43 13 -58 40 -58c25 0 40 23 47 40l49 -84c-17 -20 -57 -48 -112 -48c-75 0 -130 36 -130 140v117h-97z" />
    <glyph glyph-name="eogonek" unicode="&#x119;" horiz-adv-x="526" 
d="M413 -88l74 -49c-22 -33 -62 -71 -124 -71c-68 0 -114 36 -114 93c0 41 31 80 54 103v2c-9 -1 -19 -2 -28 -2c-143 0 -237 104 -237 264c0 158 99 264 235 264c133 0 218 -96 218 -230c0 -37 -7 -62 -7 -62h-340c6 -89 55 -149 131 -149c63 0 104 44 113 100l96 -55
c-17 -41 -42 -69 -79 -105c-39 -36 -74 -81 -74 -114c0 -24 13 -37 35 -37c26 0 42 25 47 48zM273 431c-68 0 -114 -51 -126 -127h238c0 69 -42 127 -112 127z" />
    <glyph glyph-name="uniFB00" unicode="&#xfb00;" horiz-adv-x="683" 
d="M603 648c-41 0 -61 -31 -61 -87v-57h119v-89h-119v-415h-108v415h-72v89h72v60c0 112 68 172 165 172c84 0 135 -47 160 -92l-99 -60c-2 32 -18 64 -57 64zM269 648c-41 0 -57 -32 -57 -87v-57h104v-89h-104v-415h-108v415h-83v89h83v60c0 112 64 172 161 172
c78 0 120 -45 143 -80l-84 -71c-3 29 -15 63 -55 63z" />
    <glyph glyph-name="fi" unicode="&#xfb01;" horiz-adv-x="559" 
d="M104 0v415h-83v89h83v28c0 150 99 204 198 204c90 0 148 -39 186 -97l-104 -64c-10 50 -39 72 -82 72c-49 0 -90 -31 -90 -115v-28h112v-89h-112v-415h-108zM382 0v504h112v-504h-112z" />
    <glyph glyph-name="fl" unicode="&#xfb02;" horiz-adv-x="566" 
d="M389 0v552c0 67 -38 95 -85 95c-58 0 -92 -31 -92 -107v-36h112v-89h-112v-415h-108v415h-83v89h83v47c0 129 83 185 164 185c73 0 107 -39 122 -59h2v47h108v-724h-111z" />
    <glyph glyph-name="uniFB03" unicode="&#xfb03;" horiz-adv-x="946" 
d="M269 648c-41 0 -57 -32 -57 -87v-57h104v-89h-104v-415h-108v415h-83v89h83v60c0 112 64 172 161 172c78 0 120 -45 143 -80l-84 -71c-3 29 -15 63 -55 63zM598 646c-41 0 -55 -31 -55 -85v-57h118v-89h-118v-415h-109v415h-72v89h72v60c0 112 62 172 158 172
c70 0 112 -42 133 -74l-70 -76c-5 27 -19 60 -57 60zM769 0v504h112v-504h-112zM825 712c39 0 69 -28 69 -67c0 -40 -30 -68 -69 -68c-40 0 -70 28 -70 68c0 39 30 67 70 67z" />
    <glyph glyph-name="uniFB04" unicode="&#xfb04;" horiz-adv-x="946" 
d="M269 648c-41 0 -57 -32 -57 -87v-57h104v-89h-104v-415h-108v415h-83v89h83v60c0 112 64 172 161 172c78 0 120 -45 143 -80l-84 -71c-3 29 -15 63 -55 63zM598 646c-41 0 -55 -31 -55 -85v-57h118v-89h-118v-415h-109v415h-72v89h72v60c0 112 62 172 158 172
c70 0 112 -42 133 -74l-70 -76c-5 27 -19 60 -57 60zM769 0v724h112v-724h-112z" />
    <glyph glyph-name="t_f" horiz-adv-x="698" 
d="M295 120l49 -84c-17 -20 -59 -48 -114 -48c-75 0 -130 36 -130 140v287h-87v89h87v109l108 65v-174h110v-89h-110v-277c0 -43 14 -58 40 -58c25 0 40 23 47 40zM619 648c-41 0 -61 -31 -61 -87v-57h119v-89h-119v-415h-109v415h-76v89h76v60c0 112 69 172 166 172
c84 0 135 -50 160 -94l-99 -61c-2 32 -19 67 -57 67z" />
    <glyph glyph-name="grave" unicode="`" horiz-adv-x="547" 
d="M332 596l-49 -42c-57 28 -126 73 -172 129l83 72c31 -55 89 -119 138 -159z" />
    <glyph glyph-name="acute" unicode="&#xb4;" horiz-adv-x="547" 
d="M264 554l-49 42c49 40 107 104 138 159l83 -72c-45 -56 -114 -101 -172 -129z" />
    <glyph glyph-name="hungarumlaut" unicode="&#x2dd;" horiz-adv-x="547" 
d="M183 554l-48 42c48 40 98 105 128 160l80 -70c-45 -57 -104 -104 -160 -132zM357 554l-48 42c48 40 104 105 134 160l79 -70c-44 -57 -109 -104 -165 -132z" />
    <glyph glyph-name="dotaccent" unicode="&#x2d9;" horiz-adv-x="547" 
d="M274 712c39 0 69 -28 69 -67c0 -40 -30 -68 -69 -68c-40 0 -70 28 -70 68c0 39 30 67 70 67z" />
    <glyph glyph-name="dieresis" unicode="&#xa8;" horiz-adv-x="547" 
d="M180 708c38 0 66 -27 66 -65c0 -39 -28 -66 -66 -66c-39 0 -66 27 -66 66c0 38 27 65 66 65zM368 708c38 0 66 -27 66 -65c0 -39 -28 -66 -66 -66c-39 0 -66 27 -66 66c0 38 27 65 66 65z" />
    <glyph glyph-name="circumflex" unicode="&#x2c6;" horiz-adv-x="547" 
d="M275 635h-3c-28 -33 -66 -65 -109 -86l-58 72c59 27 95 50 131 93h75c36 -43 72 -66 131 -93l-58 -72c-43 21 -81 53 -109 86z" />
    <glyph glyph-name="caron" unicode="&#x2c7;" horiz-adv-x="547" 
d="M272 640h3c28 33 66 66 109 86l58 -71c-59 -28 -95 -49 -131 -93h-75c-36 44 -72 65 -131 93l58 71c43 -20 81 -53 109 -86z" />
    <glyph glyph-name="macron" unicode="&#xaf;" horiz-adv-x="547" 
d="M143 593v90h262v-90h-262z" />
    <glyph glyph-name="tilde" unicode="&#x2dc;" horiz-adv-x="547" 
d="M344 570c-64 0 -94 53 -129 53c-24 0 -31 -25 -33 -52l-74 41c7 52 43 98 96 98c64 0 94 -53 129 -53c24 0 31 25 33 52l74 -42c-7 -51 -43 -97 -96 -97z" />
    <glyph glyph-name="breve" unicode="&#x2d8;" horiz-adv-x="547" 
d="M274 559c-75 0 -138 42 -148 123l87 29v-7c0 -40 19 -68 61 -68c41 0 60 28 60 68v7l88 -29c-11 -81 -74 -123 -148 -123z" />
    <glyph glyph-name="ring" unicode="&#x2da;" horiz-adv-x="547" 
d="M274 708c-27 0 -46 -20 -46 -47c0 -28 19 -48 46 -48s45 21 45 48s-18 47 -45 47zM274 769c60 0 114 -43 114 -108c0 -66 -54 -108 -114 -108c-61 0 -115 42 -115 108c0 65 54 108 115 108z" />
    <glyph glyph-name="caronquoteleft" horiz-adv-x="547" 
d="M340 716c-29 -8 -67 -23 -73 -63c3 1 6 1 9 1c30 0 55 -19 55 -51c0 -33 -25 -51 -57 -51c-37 0 -65 31 -65 82c0 55 25 99 63 122z" />
    <glyph glyph-name="caronquoteright" horiz-adv-x="547" 
d="M207 590c30 7 66 23 73 62h-9c-30 0 -54 19 -54 51c0 33 24 51 56 51c38 0 66 -31 66 -81c0 -56 -26 -100 -64 -123z" />
    <glyph glyph-name="uni0326" unicode="&#x326;" horiz-adv-x="547" 
d="M209 -215c29 8 67 23 73 63c-3 -1 -7 -1 -10 -1c-30 0 -54 19 -54 50c0 34 24 51 56 51c38 0 66 -31 66 -81c0 -55 -25 -100 -64 -122z" />
    <glyph glyph-name="cedilla" unicode="&#xb8;" horiz-adv-x="547" 
d="M251 15l59 -8l-12 -43c47 -5 89 -35 89 -84c0 -56 -53 -88 -109 -88c-51 0 -90 22 -113 55l63 43c10 -26 27 -41 51 -41c20 0 36 12 36 32s-16 33 -36 33c-15 0 -25 -9 -25 -9l-43 37z" />
    <glyph glyph-name="ogonek" unicode="&#x2db;" horiz-adv-x="547" 
d="M360 -94l73 -48c-24 -36 -69 -66 -127 -66c-65 0 -109 38 -109 92c0 45 36 79 67 104l44 36l68 -24l-42 -31c-27 -20 -55 -47 -55 -72c0 -20 13 -33 34 -33c24 0 40 20 47 42z" />
    <glyph glyph-name="zero" unicode="0" horiz-adv-x="608" 
d="M163 348c0 -132 33 -259 141 -259c107 0 140 127 140 259s-33 255 -140 255c-108 0 -141 -123 -141 -255zM45 348c0 229 102 356 259 356c156 0 258 -127 258 -356s-102 -360 -258 -360c-157 0 -259 131 -259 360z" />
    <glyph glyph-name="one" unicode="1" horiz-adv-x="372" 
d="M186 547h-3c-24 -32 -79 -67 -124 -78l-50 94c86 25 164 77 203 129h84v-692h-113v441c0 53 3 106 3 106z" />
    <glyph glyph-name="two" unicode="2" horiz-adv-x="540" 
d="M182 354l-117 57s-13 36 -13 80c0 132 97 213 228 213c122 0 218 -81 218 -207c0 -213 -257 -313 -297 -392v-3h301v-102h-433s-2 13 -2 34c0 183 318 268 318 455c0 70 -41 117 -108 117c-73 0 -116 -52 -116 -132c0 -52 12 -94 21 -120z" />
    <glyph glyph-name="three" unicode="3" horiz-adv-x="538" 
d="M269 -12c-130 0 -216 78 -238 170l107 62c8 -71 49 -134 129 -134c75 0 122 56 122 136c0 76 -49 130 -124 130c-49 0 -86 -21 -114 -41l-39 94l213 186h-270v101h425v-83l-136 -119c-33 -28 -87 -64 -87 -64l1 -3s20 6 38 6c116 0 205 -84 205 -210
c0 -139 -100 -231 -232 -231z" />
    <glyph glyph-name="four" unicode="4" horiz-adv-x="563" 
d="M339 186h-285l-25 70c81 136 133 274 141 448l106 -54c-11 -160 -74 -279 -130 -364h193v406h110v-406h91v-100h-91v-186h-110v186z" />
    <glyph glyph-name="five" unicode="5" horiz-adv-x="546" 
d="M274 -12c-129 0 -213 78 -235 170l107 62c8 -70 46 -134 127 -134s124 71 124 153s-47 146 -122 146c-62 0 -99 -41 -116 -88l-100 49l44 346h361v-101h-270l-12 -92c-6 -46 -16 -85 -16 -85l1 -1c27 33 72 63 135 63c114 0 207 -90 207 -237c0 -152 -98 -251 -235 -251z
" />
    <glyph glyph-name="six" unicode="6" horiz-adv-x="567" 
d="M313 704c99 0 177 -62 206 -137l-103 -63c-8 58 -41 103 -103 103c-95 0 -149 -102 -161 -230h3c30 51 91 88 160 88c113 0 215 -91 215 -230c0 -142 -98 -247 -236 -247c-159 0 -249 115 -249 335c0 216 90 381 268 381zM420 229c0 83 -47 146 -127 146
s-129 -62 -129 -145c0 -82 50 -148 130 -148c79 0 126 65 126 147z" />
    <glyph glyph-name="seven" unicode="7" horiz-adv-x="512" 
d="M502 692v-75c-104 -186 -174 -394 -200 -617h-127c28 220 115 429 204 590h-244v-159l-106 55v206h473z" />
    <glyph glyph-name="eight" unicode="8" horiz-adv-x="574" 
d="M287 -12c-137 0 -247 79 -247 207c0 108 81 157 138 176v2c-54 21 -113 66 -113 150c0 107 94 181 222 181c129 0 222 -74 222 -181c0 -84 -59 -129 -113 -150v-2c57 -19 138 -68 138 -176c0 -128 -109 -207 -247 -207zM151 202c0 -75 63 -120 136 -120s136 45 136 120
s-63 118 -136 118s-136 -43 -136 -118zM171 512c0 -59 52 -98 116 -98c65 0 116 39 116 98c0 58 -51 98 -116 98c-64 0 -116 -40 -116 -98z" />
    <glyph glyph-name="nine" unicode="9" horiz-adv-x="565" 
d="M275 -12c-112 0 -185 58 -217 145l104 63c7 -57 40 -111 114 -111c100 0 130 94 136 234l-3 1c-30 -51 -90 -82 -159 -82c-113 0 -213 86 -213 227c0 140 97 239 236 239c158 0 247 -107 247 -325c0 -227 -60 -391 -245 -391zM147 468c0 -82 47 -140 126 -140
c80 0 128 57 128 139c0 83 -49 143 -128 143c-80 0 -126 -59 -126 -142z" />
    <glyph glyph-name="zero.zero" horiz-adv-x="608" 
d="M161 348c0 -132 33 -261 143 -261c109 0 143 129 143 261s-34 257 -143 257c-110 0 -143 -125 -143 -257zM45 348c0 229 102 356 259 356c156 0 258 -127 258 -356s-102 -360 -258 -360c-157 0 -259 131 -259 360zM304 424c41 0 71 -31 71 -76s-30 -76 -71 -76
s-71 31 -71 76s30 76 71 76z" />
    <glyph glyph-name="currency" unicode="&#xa4;" 
d="M102 354c0 37 11 72 30 102l-83 84l69 66l82 -84c29 18 64 29 100 29s70 -11 100 -29l82 84l69 -66l-83 -84c19 -30 30 -65 30 -102c0 -40 -13 -77 -34 -108l88 -87l-69 -66l-89 89c-28 -16 -60 -25 -94 -25s-66 9 -95 25l-88 -89l-69 66l88 87c-22 31 -34 68 -34 108z
M200 354c0 -62 39 -109 100 -109s100 48 100 109s-39 108 -100 108s-100 -47 -100 -108z" />
    <glyph glyph-name="dollar" unicode="$" horiz-adv-x="606" 
d="M263 -92v97c-119 13 -203 90 -226 204l102 64c4 -81 38 -162 127 -178v215c-98 29 -206 70 -206 193c0 102 90 173 203 184v95h96v-96c96 -12 182 -77 211 -170l-100 -63c-2 69 -38 131 -114 144v-195c109 -34 217 -79 217 -199c0 -105 -91 -188 -214 -199v-96h-96z
M467 195c0 57 -50 82 -111 100v-201c65 7 111 46 111 101zM166 513c0 -57 43 -77 100 -95v179c-63 -7 -100 -41 -100 -84z" />
    <glyph glyph-name="cent" unicode="&#xa2;" horiz-adv-x="572" 
d="M253 -92v100c-123 19 -201 112 -201 248c0 135 78 228 201 248v98h95v-98c103 -16 164 -86 183 -153l-98 -54c0 52 -29 103 -88 119v-321c59 17 88 67 88 120l98 -54c-19 -68 -80 -138 -183 -154v-99h-95zM157 256c0 -77 32 -140 98 -160v319c-66 -20 -98 -82 -98 -159z
" />
    <glyph glyph-name="Euro" unicode="&#x20ac;" horiz-adv-x="650" 
d="M384 227h-138c16 -83 56 -144 143 -144c92 0 121 81 126 162l105 -66c-25 -96 -99 -191 -231 -191s-224 81 -253 239h-88v82h79c-1 12 -1 25 -1 38v26h-78v83h87c31 161 130 248 254 248c130 0 206 -88 231 -184l-105 -66c-5 82 -35 154 -126 154
c-82 0 -125 -66 -142 -152h213l-28 -83h-195v-26c0 -13 0 -26 1 -38h175z" />
    <glyph glyph-name="yen" unicode="&#xa5;" horiz-adv-x="611" 
d="M546 182h-186v-182h-110v182h-185v82h185v2l-35 64h-150v82h105l-153 280h124l119 -234c23 -46 45 -96 45 -96h3s22 50 45 96l119 234h122l-154 -280h106v-82h-151l-35 -65v-1h186v-82z" />
    <glyph glyph-name="sterling" unicode="&#xa3;" horiz-adv-x="574" 
d="M402 293h-133c3 -15 5 -30 5 -44c0 -63 -24 -115 -61 -148h330v-101h-467v78c69 38 89 94 89 149c0 24 -3 46 -7 66h-116v89h89c-12 34 -21 70 -21 116c0 132 99 206 217 206c106 0 196 -65 230 -175l-104 -60c-9 86 -54 138 -124 138c-63 0 -108 -42 -108 -117
c0 -36 10 -72 22 -108h188z" />
    <glyph glyph-name="florin" unicode="&#x192;" horiz-adv-x="549" 
d="M444 360h-144l-13 -320c-6 -147 -85 -201 -179 -201c-76 0 -134 37 -161 94l100 61c4 -38 20 -66 60 -66c41 0 65 27 68 113l13 319h-94v89h97l3 59c6 147 102 196 192 196c80 0 146 -38 176 -102l-100 -61c-3 44 -28 74 -74 74s-79 -28 -82 -108l-3 -58h170z" />
    <glyph glyph-name="zero.tf" 
d="M169 348c0 -132 25 -256 131 -256s131 124 131 256s-25 252 -131 252s-131 -120 -131 -252zM51 348c0 229 94 356 249 356s249 -127 249 -356s-94 -360 -249 -360s-249 131 -249 360z" />
    <glyph glyph-name="one.tf" 
d="M287 542h-2c-32 -44 -99 -79 -164 -94l-47 96c109 27 199 84 240 148h83v-595h163v-97h-446v97h170v342c0 53 3 103 3 103z" />
    <glyph glyph-name="two.tf" 
d="M212 354l-117 57s-13 36 -13 80c0 132 97 213 228 213c122 0 218 -81 218 -207c0 -213 -257 -313 -297 -392v-3h301v-102h-433s-2 13 -2 34c0 183 318 268 318 455c0 70 -41 117 -108 117c-73 0 -116 -52 -116 -132c0 -52 12 -94 21 -120z" />
    <glyph glyph-name="three.tf" 
d="M304 -12c-130 0 -216 78 -238 170l107 62c8 -71 49 -134 129 -134c75 0 122 56 122 136c0 76 -49 130 -124 130c-49 0 -86 -21 -114 -41l-39 94l213 186h-270v101h425v-83l-136 -119c-33 -28 -87 -64 -87 -64l1 -3s20 6 38 6c116 0 205 -84 205 -210
c0 -139 -100 -231 -232 -231z" />
    <glyph glyph-name="four.tf" 
d="M344 186h-277l-25 70c77 133 125 274 132 448l106 -54c-10 -159 -68 -279 -121 -364h185v406h109v-406h91v-100h-91v-186h-109v186z" />
    <glyph glyph-name="five.tf" 
d="M303 -12c-129 0 -213 78 -235 170l107 62c8 -70 46 -134 127 -134s124 71 124 153s-47 146 -122 146c-62 0 -99 -41 -116 -88l-100 49l44 346h361v-101h-270l-12 -92c-6 -46 -16 -85 -16 -85l1 -1c27 33 72 63 135 63c114 0 207 -90 207 -237c0 -152 -98 -251 -235 -251z
" />
    <glyph glyph-name="six.tf" 
d="M328 704c99 0 176 -62 205 -137l-104 -63c-7 58 -40 103 -101 103c-94 0 -148 -102 -160 -230h3c29 51 91 88 159 88c111 0 214 -91 214 -230c0 -142 -98 -247 -235 -247c-157 0 -248 115 -248 335c0 216 90 381 267 381zM434 229c0 83 -48 146 -126 146
s-128 -62 -128 -145c0 -82 51 -148 129 -148s125 65 125 147z" />
    <glyph glyph-name="seven.tf" 
d="M560 692v-75c-108 -186 -181 -394 -208 -617h-126c29 219 119 429 211 590h-260v-159l-105 55v206h488z" />
    <glyph glyph-name="eight.tf" 
d="M300 -12c-137 0 -246 79 -246 207c0 108 81 157 139 176v2c-55 21 -113 66 -113 150c0 107 92 181 220 181c129 0 220 -74 220 -181c0 -84 -58 -129 -113 -150v-2c58 -19 139 -68 139 -176c0 -128 -108 -207 -246 -207zM165 202c0 -75 62 -120 135 -120s135 45 135 120
s-62 118 -135 118s-135 -43 -135 -118zM185 512c0 -59 50 -98 115 -98s115 39 115 98c0 58 -50 98 -115 98s-115 -40 -115 -98z" />
    <glyph glyph-name="nine.tf" 
d="M294 -12c-111 0 -183 58 -216 145l104 63c8 -57 40 -111 113 -111c99 0 128 94 134 234l-4 1c-29 -51 -88 -82 -157 -82c-111 0 -211 86 -211 227c0 140 97 239 234 239c157 0 245 -107 245 -325c0 -227 -58 -391 -242 -391zM167 468c0 -82 47 -140 125 -140
s126 57 126 139c0 83 -49 143 -127 143s-124 -59 -124 -142z" />
    <glyph glyph-name="zero.tf.zero" 
d="M164 348c0 -133 29 -261 136 -261s136 128 136 261s-29 257 -136 257s-136 -124 -136 -257zM50 348c0 229 95 356 250 356s250 -127 250 -356s-95 -360 -250 -360s-250 131 -250 360zM305 424c41 0 71 -31 71 -76s-30 -76 -71 -76s-70 31 -70 76s29 76 70 76z" />
    <glyph glyph-name="currency.tf" 
d="M102 354c0 37 11 72 30 102l-83 84l69 66l82 -84c29 18 64 29 100 29s70 -11 100 -29l82 84l69 -66l-83 -84c19 -30 30 -65 30 -102c0 -40 -13 -77 -34 -108l88 -87l-69 -66l-89 89c-28 -16 -60 -25 -94 -25s-66 9 -95 25l-88 -89l-69 66l88 87c-22 31 -34 68 -34 108z
M200 354c0 -62 39 -109 100 -109s100 48 100 109s-39 108 -100 108s-100 -47 -100 -108z" />
    <glyph glyph-name="dollar.tf" 
d="M257 -92v97c-112 13 -190 90 -211 200l102 64c3 -78 32 -156 112 -174v215c-91 28 -194 71 -194 193c0 101 84 173 191 184v95h96v-97c89 -13 169 -77 196 -169l-100 -63c-2 67 -35 128 -99 143v-195c101 -33 204 -78 204 -198c0 -104 -87 -186 -201 -199v-96h-96z
M448 195c0 55 -44 79 -98 98v-199c57 9 98 47 98 101zM171 513c0 -55 39 -76 89 -93v177c-55 -8 -89 -42 -89 -84z" />
    <glyph glyph-name="cent.tf" 
d="M262 -92v100c-123 19 -201 112 -201 248c0 135 78 228 201 248v98h95v-98c103 -16 164 -86 183 -153l-98 -54c0 52 -29 103 -88 119v-321c59 17 88 67 88 120l98 -54c-19 -68 -80 -138 -183 -154v-99h-95zM166 256c0 -77 32 -140 98 -160v319c-66 -20 -98 -82 -98 -159z
" />
    <glyph glyph-name="Euro.tf" 
d="M338 227h-116c14 -83 50 -144 126 -144c83 0 106 81 112 162l104 -65c-24 -96 -90 -192 -216 -192c-124 0 -209 81 -237 239h-71v82h62v64h-62v83h71c28 161 122 248 237 248c123 0 192 -89 216 -185l-103 -65c-5 82 -30 154 -113 154c-73 0 -111 -66 -126 -152h188
l-27 -83h-170v-26c0 -13 0 -26 1 -38h151z" />
    <glyph glyph-name="yen.tf" 
d="M540 177h-185v-177h-110v177h-185v82h185v2l-32 64h-153v82h113l-140 285h125l98 -222c21 -48 44 -108 44 -108h2s23 60 44 108l99 222h122l-140 -285h113v-82h-154l-31 -64v-2h185v-82z" />
    <glyph glyph-name="sterling.tf" 
d="M416 293h-133c3 -15 5 -30 5 -44c0 -63 -24 -115 -61 -148h330v-101h-467v78c69 38 89 94 89 149c0 24 -3 46 -7 66h-116v89h89c-12 34 -21 70 -21 116c0 132 99 206 217 206c106 0 196 -65 230 -175l-104 -60c-9 86 -54 138 -124 138c-63 0 -108 -42 -108 -117
c0 -36 10 -72 22 -108h188z" />
    <glyph glyph-name="florin.tf" 
d="M469 360h-144l-13 -320c-6 -147 -85 -201 -179 -201c-76 0 -134 37 -161 94l100 61c4 -38 20 -66 60 -66c41 0 65 27 68 113l13 319h-94v89h97l3 59c6 147 102 196 192 196c80 0 146 -38 176 -102l-100 -61c-3 44 -28 74 -74 74s-79 -28 -82 -108l-3 -58h170z" />
    <glyph glyph-name="plus" unicode="+" 
d="M249 55v224h-206v98h206v220h102v-220h206v-98h-206v-224h-102z" />
    <glyph glyph-name="minus" unicode="&#x2212;" 
d="M543 278h-486v100h486v-100z" />
    <glyph glyph-name="multiply" unicode="&#xd7;" 
d="M122 81l-70 67l181 178l-177 176l70 67l174 -175l174 175l70 -67l-177 -176l181 -178l-70 -67l-178 179z" />
    <glyph glyph-name="divide" unicode="&#xf7;" 
d="M543 279h-486v98h486v-98zM300 201c41 0 74 -30 74 -73s-33 -73 -74 -73s-74 30 -74 73s33 73 74 73zM300 601c41 0 74 -30 74 -73s-33 -73 -74 -73s-74 30 -74 73s33 73 74 73z" />
    <glyph glyph-name="equal" unicode="=" 
d="M540 184h-480v95h480v-95zM540 374h-480v95h480v-95z" />
    <glyph glyph-name="less" unicode="&#x3c;" 
d="M535 487l-352 -161l352 -160l-41 -93l-428 205v96l428 204z" />
    <glyph glyph-name="greater" unicode="&#x3e;" 
d="M417 326l-352 161l41 91l428 -204v-96l-428 -205l-41 93z" />
    <glyph glyph-name="plusminus" unicode="&#xb1;" 
d="M251 240v165h-194v91h194v168h99v-168h194v-91h-194v-165h-99zM543 82h-486v93h486v-93z" />
    <glyph glyph-name="lessequal" unicode="&#x2264;" 
d="M501 220l-428 144v101l428 148l30 -94l-326 -104l326 -101zM535 82h-465v93h465v-93z" />
    <glyph glyph-name="greaterequal" unicode="&#x2265;" 
d="M527 364l-428 -144l-30 94l326 101l-326 104l30 94l428 -148v-101zM530 82h-465v93h465v-93z" />
    <glyph glyph-name="notequal" unicode="&#x2260;" 
d="M543 187h-273l-87 -154l-79 40l64 114h-111v92h163l57 101h-220v92h272l87 155l80 -40l-65 -115h112v-92h-164l-57 -101h221v-92z" />
    <glyph glyph-name="logicalnot" unicode="&#xac;" 
d="M54 395h486v-269h-102v169h-384v100z" />
    <glyph glyph-name="asciicircum" unicode="^" 
d="M47 396l213 296h80l213 -296l-85 -53l-168 239l-168 -239z" />
    <glyph glyph-name="asciitilde" unicode="~" 
d="M405 232c-86 0 -146 84 -201 84c-43 0 -59 -42 -64 -83l-88 53c15 69 61 133 143 133c86 0 146 -84 201 -84c43 0 59 41 64 82l88 -52c-15 -70 -61 -133 -143 -133z" />
    <glyph glyph-name="approxequal" unicode="&#x2248;" 
d="M409 339c-87 0 -151 67 -207 67c-42 0 -57 -33 -62 -66l-88 52c15 59 58 113 139 113c87 0 151 -68 207 -68c42 0 57 34 62 67l88 -53c-15 -58 -58 -112 -139 -112zM409 143c-87 0 -151 68 -207 68c-42 0 -57 -34 -62 -67l-88 53c15 58 58 112 139 112
c87 0 151 -67 207 -67c42 0 57 33 62 66l88 -52c-15 -59 -58 -113 -139 -113z" />
    <glyph glyph-name="infinity" unicode="&#x221e;" horiz-adv-x="873" 
d="M239 519c85 0 150 -54 195 -116h3c45 62 111 116 197 116c108 0 189 -86 189 -191s-81 -191 -189 -191c-86 0 -152 54 -197 116h-3c-45 -62 -110 -116 -195 -116c-109 0 -190 86 -190 191s82 191 190 191zM487 328c28 -38 72 -94 138 -94c54 0 95 41 95 94s-41 94 -95 94
c-66 0 -110 -56 -138 -94zM386 328c-29 38 -72 94 -139 94c-53 0 -94 -41 -94 -94s41 -94 94 -94c67 0 110 56 139 94z" />
    <glyph glyph-name="numbersign" unicode="#" horiz-adv-x="693" 
d="M447 508l34 184h98l-34 -184h111v-88h-127l-26 -138h125v-88h-141l-36 -194h-98l36 194h-145l-36 -194h-98l36 194h-109v88h125l26 138h-123v88h139l35 184h98l-35 -184h145zM286 420l-26 -138h145l26 138h-145z" />
    <glyph glyph-name="radical" unicode="&#x221a;" horiz-adv-x="657" 
d="M29 275v98h189l51 -212c16 -65 35 -154 35 -154h2s25 84 46 149l191 592h111l-280 -856h-144l-95 383h-106z" />
    <glyph glyph-name="lozenge" unicode="&#x25ca;" horiz-adv-x="591" 
d="M29 349l212 343h109l212 -343l-212 -349h-109zM243 502l-94 -154l94 -158c30 -50 51 -91 51 -91h3s21 40 51 91l94 158l-94 154c-31 51 -51 91 -51 91h-3s-20 -40 -51 -91z" />
    <glyph glyph-name="Delta" unicode="&#x2206;" horiz-adv-x="643" 
d="M21 0v74l233 618h133l235 -618v-74h-601zM288 481l-140 -381h343l-139 381c-13 37 -31 97 -31 97h-2s-18 -60 -31 -97z" />
    <glyph glyph-name="Omega" unicode="&#x2126;" horiz-adv-x="726" 
d="M319 86v-86h-265v97h58c36 0 78 -5 78 -5c-80 60 -142 160 -142 282c0 213 140 330 315 330s315 -117 315 -330c0 -122 -62 -222 -142 -282c0 0 42 5 78 5h59v-97h-266v86c82 48 153 150 153 281c0 134 -65 234 -197 234s-197 -100 -197 -234c0 -131 71 -233 153 -281z
" />
    <glyph glyph-name="summation" unicode="&#x2211;" horiz-adv-x="530" 
d="M364 316l-196 -354h352v-97h-484v79l207 371l-207 358v79h484v-97h-352z" />
    <glyph glyph-name="partialdiff" unicode="&#x2202;" horiz-adv-x="566" 
d="M85 604l68 100c240 -2 370 -163 370 -415c0 -144 -60 -301 -246 -301c-155 0 -239 110 -239 241c0 154 111 236 225 236c70 0 113 -33 138 -57l1 1c-32 133 -125 198 -282 198c-19 0 -35 -3 -35 -3zM288 379c-101 0 -141 -81 -141 -154c0 -68 38 -143 129 -143
c116 0 139 116 139 211c0 17 -1 33 -2 49c-17 11 -61 37 -125 37z" />
    <glyph glyph-name="integral" unicode="&#x222b;" horiz-adv-x="369" 
d="M129 31v572c0 111 63 154 150 154c37 0 59 -6 59 -6l27 -93s-24 7 -51 7c-48 0 -74 -19 -74 -78v-572c0 -111 -63 -154 -150 -154c-37 0 -59 5 -59 5l-27 93s24 -6 51 -6c48 0 74 19 74 78z" />
    <glyph glyph-name="product" unicode="&#x220f;" horiz-adv-x="646" 
d="M458 -135v792h-269v-792h-108v887h485v-887h-108z" />
    <glyph glyph-name="pi" unicode="&#x3c0;" horiz-adv-x="630" 
d="M20 411v93h590v-93h-127v-270c0 -47 17 -61 42 -61c24 0 36 21 42 41l54 -82c-21 -22 -58 -51 -113 -51c-72 0 -133 36 -133 145v278h-156v-411h-105v411h-94z" />
    <glyph glyph-name="mu" unicode="&#xb5;" horiz-adv-x="550" 
d="M65 -196v700h111v-298c0 -84 29 -122 92 -122c67 0 105 54 105 123v297h111v-504h-111l7 86h-3c-22 -45 -64 -98 -150 -98c-21 0 -41 5 -58 12c2 -24 5 -78 5 -134v-62h-109z" />
    <glyph glyph-name="period" unicode="." horiz-adv-x="272" 
d="M136 139c43 0 76 -31 76 -75c0 -45 -33 -76 -76 -76s-76 31 -76 76c0 44 33 75 76 75z" />
    <glyph glyph-name="comma" unicode="," horiz-adv-x="272" 
d="M129 139c48 0 84 -37 84 -108c0 -86 -38 -145 -82 -177l-71 43c36 21 80 54 87 108c-6 -1 -11 -1 -16 -1c-39 0 -71 26 -71 67c0 40 29 68 69 68z" />
    <glyph glyph-name="colon" unicode=":" horiz-adv-x="272" 
d="M136 514c43 0 76 -31 76 -75c0 -45 -33 -76 -76 -76s-76 31 -76 76c0 44 33 75 76 75zM136 139c43 0 76 -31 76 -75c0 -45 -33 -76 -76 -76s-76 31 -76 76c0 44 33 75 76 75z" />
    <glyph glyph-name="semicolon" unicode=";" horiz-adv-x="272" 
d="M129 139c48 0 84 -37 84 -108c0 -86 -38 -145 -82 -177l-71 43c36 21 80 54 87 108c-6 -1 -11 -1 -16 -1c-39 0 -71 26 -71 67c0 40 29 68 69 68zM136 514c43 0 76 -31 76 -75c0 -45 -33 -76 -76 -76s-76 31 -76 76c0 44 33 75 76 75z" />
    <glyph glyph-name="exclam" unicode="!" horiz-adv-x="298" 
d="M208 692v-71c0 -147 -20 -415 -20 -415h-78s-20 268 -20 415v71h118zM149 134c41 0 74 -30 74 -73s-33 -73 -74 -73s-73 30 -73 73s32 73 73 73z" />
    <glyph glyph-name="question" unicode="?" horiz-adv-x="491" 
d="M254 610c-78 0 -122 -65 -133 -152l-101 59c22 90 102 187 234 187c108 0 202 -65 202 -170c0 -152 -185 -176 -185 -278c0 -30 6 -50 6 -50h-79s-22 29 -22 73c0 132 169 146 169 251c0 48 -38 80 -91 80zM240 134c41 0 73 -30 73 -73s-32 -73 -73 -73s-74 30 -74 73
s33 73 74 73z" />
    <glyph glyph-name="exclamdown" unicode="&#xa1;" horiz-adv-x="298" 
d="M208 -117v-71h-118v71c0 147 20 415 20 415h78s20 -268 20 -415zM149 370c-41 0 -73 30 -73 73s32 73 73 73s74 -30 74 -73s-33 -73 -74 -73z" />
    <glyph glyph-name="questiondown" unicode="&#xbf;" horiz-adv-x="491" 
d="M237 -106c78 0 122 65 133 152l101 -59c-22 -90 -102 -187 -234 -187c-108 0 -202 65 -202 170c0 152 185 176 185 278c0 30 -6 50 -6 50h79s22 -29 22 -73c0 -132 -169 -146 -169 -251c0 -48 38 -80 91 -80zM251 370c-41 0 -73 30 -73 73s32 73 73 73s74 -30 74 -73
s-33 -73 -74 -73z" />
    <glyph glyph-name="hyphen" unicode="-" horiz-adv-x="339" 
d="M302 258h-265v93h265v-93z" />
    <glyph glyph-name="endash" unicode="&#x2013;" horiz-adv-x="551" 
d="M514 258h-477v93h477v-93z" />
    <glyph glyph-name="emdash" unicode="&#x2014;" horiz-adv-x="789" 
d="M752 258h-715v93h715v-93z" />
    <glyph glyph-name="underscore" unicode="_" horiz-adv-x="482" 
d="M426 -65h-369v92h369v-92z" />
    <glyph glyph-name="bar" unicode="|" horiz-adv-x="282" 
d="M86 -135v887h110v-887h-110z" />
    <glyph glyph-name="brokenbar" unicode="&#xa6;" horiz-adv-x="282" 
d="M86 -135v356h110v-356h-110zM86 403v349h110v-349h-110z" />
    <glyph glyph-name="dagger" unicode="&#x2020;" horiz-adv-x="515" 
d="M25 504l57 -2c46 -2 94 -6 126 -9l3 4c-4 47 -11 141 -11 205v22h115v-22c-1 -65 -8 -159 -12 -206l3 -3c32 3 79 7 127 9l57 2v-107l-57 2c-47 2 -96 5 -127 8l-3 -2c3 -65 8 -188 11 -345l2 -134h-117l2 134c3 157 8 280 10 344l-3 3c-31 -3 -78 -6 -126 -8l-57 -2v107
z" />
    <glyph glyph-name="daggerdbl" unicode="&#x2021;" horiz-adv-x="539" 
d="M502 149l-57 2c-47 2 -96 5 -127 8l-4 -3c4 -49 11 -145 12 -208l1 -22h-114v22c0 64 7 159 11 207l-4 4c-31 -3 -78 -6 -126 -8l-57 -2v106l57 -2c45 -2 93 -6 124 -9l4 4v167l-3 3c-32 -3 -78 -7 -125 -9l-57 -2v106l57 -2c46 -2 94 -6 126 -9l4 4
c-4 45 -11 133 -11 196v22h114l-1 -22c-1 -64 -7 -152 -11 -196l3 -4c32 3 79 7 127 9l57 2v-106l-57 2c-47 2 -94 6 -126 9l-2 -3v-168l3 -3c31 3 78 7 125 9l57 2v-106z" />
    <glyph glyph-name="parenleft" unicode="(" horiz-adv-x="338" 
d="M77 313c0 207 82 366 166 454l85 -44c-78 -92 -140 -227 -140 -410s62 -327 140 -418l-85 -45c-84 88 -166 255 -166 463z" />
    <glyph glyph-name="parenright" unicode=")" horiz-adv-x="338" 
d="M261 313c0 -208 -82 -375 -166 -463l-85 45c78 91 140 235 140 418s-62 318 -140 410l85 44c84 -88 166 -247 166 -454z" />
    <glyph glyph-name="bracketleft" unicode="[" horiz-adv-x="349" 
d="M86 -135v887h242v-94h-136v-699h136v-94h-242z" />
    <glyph glyph-name="bracketright" unicode="]" horiz-adv-x="349" 
d="M263 752v-887h-242v94h136v699h-136v94h242z" />
    <glyph glyph-name="braceleft" unicode="{" horiz-adv-x="391" 
d="M149 314v-2c47 -17 107 -52 107 -157v-124c0 -59 27 -78 75 -78c24 0 45 6 45 6l-24 -93s-21 -5 -54 -5c-87 0 -148 43 -148 154v128c0 91 -45 114 -103 129v82c58 15 103 38 103 129v120c0 111 61 154 148 154c33 0 54 -6 54 -6l24 -93s-21 7 -45 7
c-48 0 -75 -19 -75 -78v-116c0 -105 -60 -140 -107 -157z" />
    <glyph glyph-name="braceright" unicode="}" horiz-adv-x="391" 
d="M242 312v2c-47 17 -107 52 -107 157v116c0 59 -27 78 -75 78c-24 0 -45 -7 -45 -7l24 93s21 6 54 6c87 0 148 -43 148 -154v-120c0 -91 45 -114 103 -129v-82c-58 -15 -103 -38 -103 -129v-128c0 -111 -61 -154 -148 -154c-33 0 -54 5 -54 5l-24 93s21 -6 45 -6
c48 0 75 19 75 78v124c0 105 60 140 107 157z" />
    <glyph glyph-name="slash" unicode="/" horiz-adv-x="400" 
d="M21 -135l247 887h112l-246 -887h-113z" />
    <glyph glyph-name="backslash" unicode="\" horiz-adv-x="400" 
d="M133 752l247 -887h-113l-246 887h112z" />
    <glyph glyph-name="quotesinglbase" unicode="&#x201a;" horiz-adv-x="272" 
d="M129 139c48 0 84 -37 84 -108c0 -86 -38 -145 -82 -177l-71 43c36 21 80 54 87 108c-6 -1 -11 -1 -16 -1c-39 0 -71 26 -71 67c0 40 29 68 69 68z" />
    <glyph glyph-name="quotedblbase" unicode="&#x201e;" horiz-adv-x="459" 
d="M129 139c48 0 84 -37 84 -108c0 -86 -38 -145 -82 -177l-71 43c36 21 80 54 87 108c-6 -1 -11 -1 -16 -1c-39 0 -71 26 -71 67c0 40 29 68 69 68zM317 139c48 0 84 -37 84 -108c0 -86 -38 -145 -82 -177l-71 43c36 21 80 54 87 108c-6 -1 -11 -1 -16 -1
c-39 0 -71 26 -71 67c0 40 29 68 69 68z" />
    <glyph glyph-name="quoteleft" unicode="&#x2018;" horiz-adv-x="272" 
d="M143 433c-48 0 -84 37 -84 108c0 86 38 145 82 177l71 -43c-36 -21 -80 -54 -87 -108c6 1 11 1 16 1c39 0 71 -26 71 -67c0 -40 -29 -68 -69 -68z" />
    <glyph glyph-name="quotedblleft" unicode="&#x201c;" horiz-adv-x="459" 
d="M143 433c-48 0 -84 37 -84 108c0 86 38 145 82 177l71 -43c-36 -21 -80 -54 -87 -108c6 1 11 1 16 1c39 0 71 -26 71 -67c0 -40 -29 -68 -69 -68zM330 433c-48 0 -84 37 -84 108c0 86 38 145 82 177l71 -43c-36 -21 -80 -54 -87 -108c6 1 11 1 16 1c39 0 71 -26 71 -67
c0 -40 -29 -68 -69 -68z" />
    <glyph glyph-name="quoteright" unicode="&#x2019;" horiz-adv-x="272" 
d="M129 704c48 0 84 -37 84 -108c0 -86 -38 -145 -82 -177l-71 43c36 21 80 54 87 108c-6 -1 -11 -1 -16 -1c-39 0 -71 26 -71 67c0 40 29 68 69 68z" />
    <glyph glyph-name="quotedblright" unicode="&#x201d;" horiz-adv-x="459" 
d="M129 704c48 0 84 -37 84 -108c0 -86 -38 -145 -82 -177l-71 43c36 21 80 54 87 108c-6 -1 -11 -1 -16 -1c-39 0 -71 26 -71 67c0 40 29 68 69 68zM317 704c48 0 84 -37 84 -108c0 -86 -38 -145 -82 -177l-71 43c36 21 80 54 87 108c-6 -1 -11 -1 -16 -1
c-39 0 -71 26 -71 67c0 40 29 68 69 68z" />
    <glyph glyph-name="guilsinglleft" unicode="&#x2039;" horiz-adv-x="345" 
d="M148 275v-3c46 -41 112 -104 155 -181l-92 -58c-40 71 -90 143 -155 202v77c65 58 115 129 155 200l92 -58c-43 -77 -109 -138 -155 -179z" />
    <glyph glyph-name="guilsinglright" unicode="&#x203a;" horiz-adv-x="345" 
d="M197 272v3c-46 41 -112 102 -155 179l92 58c40 -71 90 -142 155 -200v-77c-65 -59 -115 -131 -155 -202l-92 58c43 77 109 140 155 181z" />
    <glyph glyph-name="guillemotleft" unicode="&#xab;" horiz-adv-x="544" 
d="M143 275v-3c42 -45 103 -109 143 -182l-90 -57c-37 71 -80 144 -140 202v77c60 58 103 130 140 200l90 -57c-40 -72 -101 -135 -143 -180zM353 275v-3c44 -41 110 -111 149 -182l-89 -57c-38 71 -85 143 -147 204v72c62 61 109 132 147 203l89 -57
c-40 -72 -105 -140 -149 -180z" />
    <glyph glyph-name="guillemotright" unicode="&#xbb;" horiz-adv-x="544" 
d="M401 272v3c-42 45 -103 108 -143 180l90 57c37 -70 80 -142 140 -200v-77c-60 -58 -103 -131 -140 -202l-90 57c40 73 101 137 143 182zM191 272v3c-44 40 -109 108 -149 180l89 57c38 -71 85 -142 147 -203v-72c-62 -61 -109 -133 -147 -204l-89 57
c39 71 105 141 149 182z" />
    <glyph glyph-name="quotesingle" unicode="'" horiz-adv-x="228" 
d="M174 692l-5 -79c-6 -81 -17 -193 -17 -193h-74s-13 112 -19 193l-5 79h120z" />
    <glyph glyph-name="quotedbl" unicode="&#x22;" horiz-adv-x="411" 
d="M180 692l-5 -79c-6 -81 -17 -193 -17 -193h-74s-13 112 -19 193l-5 79h120zM352 692l-5 -79c-6 -81 -17 -193 -17 -193h-74s-13 112 -19 193l-5 79h120z" />
    <glyph glyph-name="asterisk" unicode="*" horiz-adv-x="478" 
d="M57 597l52 -22c38 -16 74 -38 91 -49l5 4c-5 20 -12 60 -15 103l-4 59h104l-3 -59c-3 -43 -10 -83 -14 -104l3 -3c17 11 52 32 92 49l51 22l34 -95l-53 -15c-39 -10 -79 -18 -100 -22l-2 -5c16 -14 45 -41 74 -73l40 -44l-85 -63l-32 50c-26 40 -47 78 -54 92h-5
c-7 -13 -27 -50 -54 -92l-32 -50l-85 63l40 44c28 32 58 59 74 73l-2 5c-21 4 -60 11 -100 22l-53 15z" />
    <glyph glyph-name="degree" unicode="&#xb0;" horiz-adv-x="385" 
d="M193 704c82 0 154 -59 154 -148c0 -90 -72 -148 -154 -148c-83 0 -155 58 -155 148c0 89 72 148 155 148zM256 556c0 39 -25 70 -63 70c-39 0 -63 -31 -63 -70c0 -40 24 -71 63 -71c38 0 63 31 63 71z" />
    <glyph glyph-name="bullet" unicode="&#x2022;" horiz-adv-x="333" 
d="M166 406c59 0 104 -42 104 -102c0 -61 -45 -103 -104 -103s-104 42 -104 103c0 60 45 102 104 102z" />
    <glyph glyph-name="periodcentered" unicode="&#xb7;" horiz-adv-x="274" 
d="M137 380c43 0 76 -31 76 -75c0 -45 -33 -76 -76 -76s-76 31 -76 76c0 44 33 75 76 75z" />
    <glyph glyph-name="ellipsis" unicode="&#x2026;" horiz-adv-x="745" 
d="M137 139c43 0 76 -31 76 -75c0 -45 -33 -76 -76 -76s-76 31 -76 76c0 44 33 75 76 75zM373 139c43 0 76 -31 76 -75c0 -45 -33 -76 -76 -76s-76 31 -76 76c0 44 33 75 76 75zM608 139c43 0 76 -31 76 -75c0 -45 -33 -76 -76 -76s-76 31 -76 76c0 44 33 75 76 75z" />
    <glyph glyph-name="paragraph" unicode="&#xb6;" horiz-adv-x="619" 
d="M412 -196v790h-113v-790h-102v519c-103 13 -165 76 -165 184c0 118 77 185 204 185h359v-98h-81v-790h-102z" />
    <glyph glyph-name="section" unicode="&#xa7;" horiz-adv-x="503" 
d="M472 289c0 -56 -39 -98 -93 -118v-1c39 -30 65 -67 65 -124c0 -86 -78 -150 -185 -150c-100 0 -178 49 -216 133l98 59c9 -64 55 -107 118 -107c45 0 80 24 80 61c0 52 -69 72 -142 105c-82 37 -156 81 -156 164c0 55 39 99 94 118c-39 30 -63 67 -63 124
c0 87 79 151 183 151c96 0 166 -50 202 -133l-98 -59c-9 65 -46 107 -104 107c-43 0 -78 -24 -78 -62c0 -52 67 -72 140 -105c82 -37 155 -81 155 -163zM235 374c-18 8 -34 15 -50 24c-24 -12 -42 -31 -42 -61c0 -56 57 -78 135 -111c17 -8 34 -16 50 -25c23 12 42 31 42 61
c0 57 -56 78 -135 112z" />
    <glyph glyph-name="copyright" unicode="&#xa9;" horiz-adv-x="809" 
d="M51 346c0 208 150 358 354 358s353 -150 353 -358s-149 -358 -353 -358s-354 150 -354 358zM405 62c159 0 272 121 272 284s-113 284 -272 284s-273 -121 -273 -284s114 -284 273 -284zM411 456c-55 0 -83 -45 -83 -110c0 -64 28 -110 83 -110c50 0 77 37 77 82l88 -43
c-16 -58 -77 -117 -165 -117c-102 0 -177 72 -177 188c0 115 75 189 177 189c88 0 149 -60 165 -118l-88 -43c0 46 -27 82 -77 82z" />
    <glyph glyph-name="registered" unicode="&#xae;" horiz-adv-x="809" 
d="M51 346c0 208 150 358 354 358s353 -150 353 -358s-149 -358 -353 -358s-354 150 -354 358zM405 62c159 0 272 121 272 284s-113 284 -272 284s-273 -121 -273 -284s114 -284 273 -284zM568 415c0 -49 -26 -84 -69 -102l69 -135h-88l-60 122h-67v-122h-81v353h153
c86 0 143 -44 143 -116zM488 415c0 25 -17 44 -56 44h-79v-89h79c39 0 56 19 56 45z" />
    <glyph glyph-name="trademark" unicode="&#x2122;" horiz-adv-x="782" 
d="M11 609v83h302v-83h-109v-229h-87v229h-106zM543 472h1s5 23 11 41l55 179h117v-312h-79v154c0 38 2 65 2 65h-2s-7 -27 -14 -49l-54 -170h-73l-57 170c-7 22 -14 49 -14 49h-2s2 -27 2 -65v-154h-77v312h117l56 -179c6 -19 11 -41 11 -41z" />
    <glyph glyph-name="ordfeminine" unicode="&#xaa;" horiz-adv-x="347" 
d="M172 633c-38 0 -62 -24 -71 -61l-77 40c24 52 77 87 149 87s130 -37 130 -116v-124c0 -33 1 -55 8 -78h-67c-10 14 -14 24 -18 39h-2c-13 -19 -43 -46 -92 -46c-57 0 -102 33 -102 91c0 69 66 87 118 97c44 9 71 15 71 37c0 20 -21 34 -47 34zM221 499v35
c-8 -11 -27 -18 -52 -25c-28 -6 -54 -13 -54 -38c0 -19 15 -33 44 -33c32 0 62 22 62 61z" />
    <glyph glyph-name="ordmasculine" unicode="&#xba;" horiz-adv-x="360" 
d="M180 374c-88 0 -155 61 -155 162c0 102 67 163 155 163s156 -61 156 -163c0 -101 -68 -162 -156 -162zM114 536c0 -55 21 -96 66 -96s66 41 66 96c0 56 -21 97 -66 97s-66 -41 -66 -97z" />
    <glyph glyph-name="hyphen.case" horiz-adv-x="339" 
d="M302 308h-265v93h265v-93z" />
    <glyph glyph-name="endash.case" horiz-adv-x="551" 
d="M514 307h-477v93h477v-93z" />
    <glyph glyph-name="emdash.case" horiz-adv-x="789" 
d="M752 307h-715v93h715v-93z" />
    <glyph glyph-name="periodcentered.case" horiz-adv-x="274" 
d="M137 430c43 0 76 -31 76 -75c0 -45 -33 -76 -76 -76s-76 31 -76 76c0 44 33 75 76 75z" />
    <glyph glyph-name="bullet.case" horiz-adv-x="333" 
d="M166 457c59 0 104 -42 104 -102c0 -61 -45 -103 -104 -103s-104 42 -104 103c0 60 45 102 104 102z" />
    <glyph glyph-name="guilsinglleft.case" horiz-adv-x="345" 
d="M148 356v-3c46 -41 112 -104 155 -181l-92 -58c-40 71 -90 143 -155 202v77c65 58 115 129 155 200l92 -58c-43 -77 -109 -138 -155 -179z" />
    <glyph glyph-name="guilsinglright.case" horiz-adv-x="345" 
d="M197 354v3c-46 41 -112 102 -155 179l92 58c40 -71 90 -142 155 -200v-77c-65 -59 -115 -131 -155 -202l-92 58c43 77 109 140 155 181z" />
    <glyph glyph-name="guillemotleft.case" horiz-adv-x="544" 
d="M143 357v-3c42 -45 103 -109 143 -182l-90 -57c-37 71 -80 144 -140 202v77c60 58 103 130 140 200l90 -57c-40 -72 -101 -135 -143 -180zM353 357v-3c44 -41 110 -111 149 -182l-89 -57c-38 71 -85 143 -147 204v72c62 61 109 132 147 203l89 -57
c-40 -72 -105 -140 -149 -180z" />
    <glyph glyph-name="guillemotright.case" horiz-adv-x="544" 
d="M401 354v3c-42 45 -103 108 -143 180l90 57c37 -70 80 -142 140 -200v-77c-60 -58 -103 -131 -140 -202l-90 57c40 73 101 137 143 182zM191 354v3c-44 40 -109 108 -149 180l89 57c38 -71 85 -142 147 -203v-72c-62 -61 -109 -133 -147 -204l-89 57
c39 71 105 141 149 182z" />
    <glyph glyph-name="exclamdown.case" horiz-adv-x="298" 
d="M208 71v-71h-118v71c0 147 20 415 20 415h78s20 -268 20 -415zM149 558c-41 0 -73 30 -73 73s32 73 73 73s74 -30 74 -73s-33 -73 -74 -73z" />
    <glyph glyph-name="questiondown.case" horiz-adv-x="491" 
d="M237 82c78 0 122 65 133 152l101 -59c-22 -90 -102 -187 -234 -187c-108 0 -202 65 -202 170c0 152 185 176 185 278c0 30 -6 50 -6 50h79s22 -29 22 -73c0 -132 -169 -146 -169 -251c0 -48 38 -80 91 -80zM251 558c-41 0 -73 30 -73 73s32 73 73 73s74 -30 74 -73
s-33 -73 -74 -73z" />
    <glyph glyph-name="parenleft.case" horiz-adv-x="341" 
d="M80 354c0 196 78 308 159 393l85 -44c-75 -88 -134 -179 -134 -349c0 -171 59 -276 134 -365l-85 -44c-81 85 -159 213 -159 409z" />
    <glyph glyph-name="parenright.case" horiz-adv-x="341" 
d="M261 354c0 -196 -78 -324 -159 -409l-85 44c75 89 134 194 134 365c0 170 -59 261 -134 349l85 44c81 -85 159 -197 159 -393z" />
    <glyph glyph-name="bracketleft.case" horiz-adv-x="352" 
d="M86 -43v778h242v-94h-136v-590h136v-94h-242z" />
    <glyph glyph-name="bracketright.case" horiz-adv-x="352" 
d="M266 735v-778h-242v94h136v590h-136v94h242z" />
    <glyph glyph-name="braceleft.case" horiz-adv-x="391" 
d="M149 355v-3c47 -16 107 -52 107 -157v-73c0 -59 27 -78 75 -78c24 0 45 6 45 6l-24 -93s-21 -5 -54 -5c-87 0 -148 43 -148 154v78c0 91 -45 113 -103 128v83c58 15 103 37 103 128v63c0 111 61 154 148 154c33 0 54 -5 54 -5l24 -93s-21 6 -45 6c-48 0 -75 -19 -75 -78
v-58c0 -105 -60 -141 -107 -157z" />
    <glyph glyph-name="braceright.case" horiz-adv-x="391" 
d="M242 352v3c-47 16 -107 52 -107 157v58c0 59 -27 78 -75 78c-24 0 -45 -6 -45 -6l24 93s21 5 54 5c87 0 148 -43 148 -154v-63c0 -91 45 -113 103 -128v-83c-58 -15 -103 -37 -103 -128v-78c0 -111 -61 -154 -148 -154c-33 0 -54 5 -54 5l-24 93s21 -6 45 -6
c48 0 75 19 75 78v73c0 105 60 141 107 157z" />
    <glyph glyph-name="colon.case" horiz-adv-x="272" 
d="M136 578c43 0 76 -31 76 -75c0 -45 -33 -76 -76 -76s-76 31 -76 76c0 44 33 75 76 75zM136 283c43 0 76 -31 76 -75c0 -45 -33 -76 -76 -76s-76 31 -76 76c0 44 33 75 76 75z" />
    <glyph glyph-name="plus.case" 
d="M249 81v224h-206v98h206v220h102v-220h206v-98h-206v-224h-102z" />
    <glyph glyph-name="minus.case" 
d="M543 304h-486v100h486v-100z" />
    <glyph glyph-name="multiply.case" 
d="M122 109l-70 67l181 178l-177 176l70 67l174 -175l174 175l70 -67l-177 -176l181 -178l-70 -67l-178 179z" />
    <glyph glyph-name="divide.case" 
d="M543 305h-486v98h486v-98zM300 227c41 0 74 -30 74 -73s-33 -73 -74 -73s-74 30 -74 73s33 73 74 73zM300 627c41 0 74 -30 74 -73s-33 -73 -74 -73s-74 30 -74 73s33 73 74 73z" />
    <glyph glyph-name="equal.case" 
d="M540 212h-480v95h480v-95zM540 402h-480v95h480v-95z" />
    <glyph glyph-name="less.case" 
d="M538 516l-352 -161l352 -160l-41 -93l-428 205v96l428 204z" />
    <glyph glyph-name="greater.case" 
d="M420 355l-352 161l41 91l428 -204v-96l-428 -205l-41 93z" />
    <glyph glyph-name="plusminus.case" 
d="M251 260v165h-194v91h194v168h99v-168h194v-91h-194v-165h-99zM543 102h-486v93h486v-93z" />
    <glyph glyph-name="lessequal.case" 
d="M501 240l-428 144v101l428 148l30 -94l-326 -104l326 -101zM535 102h-465v93h465v-93z" />
    <glyph glyph-name="greaterequal.case" 
d="M527 378l-428 -144l-30 94l326 101l-326 104l30 94l428 -148v-101zM530 96h-465v93h465v-93z" />
    <glyph glyph-name="notequal.case" 
d="M543 212h-273l-87 -154l-79 40l64 114h-111v92h163l57 101h-220v92h272l87 155l80 -40l-65 -115h112v-92h-164l-57 -101h221v-92z" />
    <glyph glyph-name="logicalnot.case" 
d="M54 405h486v-269h-102v169h-384v100z" />
    <glyph glyph-name="asciitilde.case" 
d="M405 261c-86 0 -146 84 -201 84c-43 0 -59 -42 -64 -83l-88 53c15 69 61 133 143 133c86 0 146 -84 201 -84c43 0 59 41 64 82l88 -52c-15 -70 -61 -133 -143 -133z" />
    <glyph glyph-name="approxequal.case" 
d="M409 368c-87 0 -151 67 -207 67c-42 0 -57 -33 -62 -66l-88 52c15 59 58 113 139 113c87 0 151 -68 207 -68c42 0 57 34 62 67l88 -53c-15 -58 -58 -112 -139 -112zM409 172c-87 0 -151 68 -207 68c-42 0 -57 -34 -62 -67l-88 53c15 58 58 112 139 112
c87 0 151 -67 207 -67c42 0 57 33 62 66l88 -52c-15 -59 -58 -113 -139 -113z" />
    <glyph glyph-name="infinity.case" horiz-adv-x="873" 
d="M239 546c85 0 150 -54 195 -116h3c45 62 111 116 197 116c108 0 189 -86 189 -191s-81 -191 -189 -191c-86 0 -152 54 -197 116h-3c-45 -62 -110 -116 -195 -116c-109 0 -190 86 -190 191s82 191 190 191zM487 355c28 -38 72 -94 138 -94c54 0 95 41 95 94s-41 94 -95 94
c-66 0 -110 -56 -138 -94zM386 355c-29 38 -72 94 -139 94c-53 0 -94 -41 -94 -94s41 -94 94 -94c67 0 110 56 139 94z" />
    <glyph glyph-name="uni2113" unicode="&#x2113;" horiz-adv-x="454" 
d="M52 109l-51 68l112 99v286c0 111 66 174 157 174c88 0 153 -60 153 -155c0 -109 -63 -193 -143 -280l-58 -62v-85c0 -51 19 -78 56 -78c44 0 60 40 65 75l91 -56c-24 -49 -73 -107 -161 -107c-94 0 -160 56 -160 164v9zM222 554v-194l12 14c56 66 93 130 93 201
c0 42 -16 73 -52 73c-40 0 -53 -38 -53 -94z" />
    <glyph glyph-name="uni2116" unicode="&#x2116;" horiz-adv-x="1135" 
d="M630 0h-160l-229 436c-25 47 -60 129 -60 129l-3 -1c0 -2 5 -73 5 -138v-426h-111v692h160l229 -436c24 -47 61 -129 61 -129h3c0 2 -5 74 -5 139v426h110v-692zM906 325c-113 0 -192 80 -192 189c0 110 79 190 192 190c114 0 192 -80 192 -190s-78 -189 -192 -189z
M1093 162h-374v93h374v-93zM816 514c0 -57 29 -105 90 -105s90 47 90 105s-29 106 -90 106s-90 -48 -90 -106z" />
    <glyph glyph-name="estimated" unicode="&#x212e;" horiz-adv-x="836" 
d="M175 332v-197c0 -7 4 -15 10 -23c60 -62 145 -103 241 -103c102 0 192 45 254 118h57c-71 -84 -186 -139 -312 -139c-217 0 -394 161 -394 358c0 195 177 358 394 358c218 0 394 -163 394 -358v-10h-637c-4 0 -7 -1 -7 -4zM182 358h489c2 0 5 2 5 6v194
c0 10 -4 17 -11 25c-61 61 -146 99 -239 99c-94 0 -179 -41 -240 -102c-7 -8 -11 -16 -11 -26v-190c0 -4 3 -6 7 -6z" />
    <glyph glyph-name="uni25A0" unicode="&#x25a0;" horiz-adv-x="831" 
d="M72 0v692h686v-692h-686z" />
    <glyph glyph-name="uni25A1" unicode="&#x25a1;" horiz-adv-x="831" 
d="M72 0v692h686v-692h-686zM183 586v-481h464v481h-464z" />
    <glyph glyph-name="uni25FC" unicode="&#x25fc;" horiz-adv-x="624" 
d="M65 0v504h494v-504h-494z" />
    <glyph glyph-name="uni25FB" unicode="&#x25fb;" horiz-adv-x="624" 
d="M65 0v504h494v-504h-494zM170 402v-301h284v301h-284z" />
    <glyph glyph-name="uni25B6" unicode="&#x25b6;" horiz-adv-x="617" 
d="M65 -38v581l3 2l536 -290v-3l-536 -292z" />
    <glyph glyph-name="uni25B7" unicode="&#x25b7;" horiz-adv-x="617" 
d="M65 -38v581l3 2l536 -290v-3l-536 -292zM171 374v-246l3 -1l226 125v3l-226 120z" />
    <glyph glyph-name="uni25C0" unicode="&#x25c0;" horiz-adv-x="617" 
d="M552 543v-581l-3 -2l-536 292v3l536 290z" />
    <glyph glyph-name="uni25C1" unicode="&#x25c1;" horiz-adv-x="617" 
d="M552 543v-581l-3 -2l-536 292v3l536 290zM446 128v246l-3 1l-226 -120v-3l226 -125z" />
    <glyph glyph-name="circle" unicode="&#x25cb;" horiz-adv-x="790" 
d="M41 346c0 208 150 358 354 358s353 -150 353 -358s-149 -358 -353 -358s-354 150 -354 358zM395 92c142 0 242 108 242 254s-100 254 -242 254c-143 0 -243 -108 -243 -254s100 -254 243 -254z" />
    <glyph glyph-name="H18533" unicode="&#x25cf;" horiz-adv-x="790" 
d="M395 704c204 0 353 -150 353 -358s-149 -358 -353 -358s-354 150 -354 358s150 358 354 358z" />
    <glyph glyph-name="arrowleft" unicode="&#x2190;" horiz-adv-x="709" 
d="M330 -5l-317 359l314 349l71 -64l-219 -235h497v-100h-499l224 -245z" />
    <glyph glyph-name="arrowup" unicode="&#x2191;" horiz-adv-x="709" 
d="M355 681l344 -304l-64 -68l-228 207v-477h-105v477l-228 -207l-63 68z" />
    <glyph glyph-name="arrowright" unicode="&#x2192;" horiz-adv-x="709" 
d="M696 354l-317 -359l-71 64l224 245h-499v100h497l-219 235l71 64z" />
    <glyph glyph-name="arrowdown" unicode="&#x2193;" horiz-adv-x="709" 
d="M699 329l-344 -304l-344 304l63 68l228 -207v477h105v-477l228 207z" />
    <glyph glyph-name="uni2196" unicode="&#x2196;" horiz-adv-x="709" 
d="M575 74l-387 386l3 -367h-91v526h524v-92l-364 4l385 -386z" />
    <glyph glyph-name="uni2197" unicode="&#x2197;" horiz-adv-x="709" 
d="M521 460l-387 -386l-70 71l385 386l-364 -4v92h524v-526h-91z" />
    <glyph glyph-name="uni2198" unicode="&#x2198;" horiz-adv-x="709" 
d="M134 638l387 -386l-3 367h91v-526h-524v92l364 -4l-385 386z" />
    <glyph glyph-name="uni2199" unicode="&#x2199;" horiz-adv-x="709" 
d="M188 252l387 386l70 -71l-385 -386l364 4v-92h-524v526h91z" />
    <glyph glyph-name="uni2605" unicode="&#x2605;" horiz-adv-x="709" 
d="M268 392l84 252h4l84 -252l262 1l2 -5l-210 -154l81 -254l-3 -1l-218 155l-216 -155l-4 1l81 254l-209 154l1 5z" />
    <glyph glyph-name="a.dnom" horiz-adv-x="347" 
d="M172 252c-38 0 -62 -24 -71 -61l-77 40c24 52 77 87 149 87s130 -37 130 -116v-124c0 -33 1 -55 8 -78h-67c-10 14 -14 24 -18 39h-2c-13 -19 -43 -46 -92 -46c-57 0 -102 33 -102 91c0 69 66 87 118 97c44 9 71 15 71 37c0 20 -21 34 -47 34zM221 118v35
c-8 -11 -27 -18 -52 -25c-28 -6 -54 -13 -54 -38c0 -19 15 -33 44 -33c32 0 62 22 62 61z" />
    <glyph glyph-name="b.dnom" horiz-adv-x="373" 
d="M127 49v-49h-86v447h89v-111c0 -38 -4 -77 -4 -77h1c15 27 42 55 86 57c12 1 23 1 34 -2c57 -12 102 -71 102 -159s-45 -146 -102 -158c-11 -3 -22 -3 -34 -2c-44 2 -71 30 -84 54h-2zM127 155c0 -55 24 -93 67 -93c42 0 65 38 65 93c0 56 -23 94 -65 94
c-43 0 -67 -38 -67 -94z" />
    <glyph glyph-name="c.dnom" horiz-adv-x="334" 
d="M178 252c-44 0 -64 -41 -64 -97c0 -55 20 -96 64 -96c39 0 57 34 57 75l81 -40c-13 -52 -61 -101 -138 -101c-89 0 -153 61 -153 162c0 102 64 163 153 163c77 0 125 -49 138 -101l-81 -40c0 41 -18 75 -57 75z" />
    <glyph glyph-name="d.dnom" horiz-adv-x="373" 
d="M248 52h-2c-16 -31 -46 -59 -95 -59c-68 0 -126 63 -126 162c0 100 58 163 126 163c49 0 77 -29 90 -49h3v178h88v-447h-88zM180 62c43 0 66 38 66 93c0 56 -23 94 -66 94c-42 0 -66 -38 -66 -94c0 -55 24 -93 66 -93z" />
    <glyph glyph-name="e.dnom" horiz-adv-x="345" 
d="M317 132h-208c3 -51 34 -75 72 -75c34 0 57 21 62 51l76 -41c-23 -40 -71 -74 -138 -74c-91 0 -156 61 -156 162c0 102 67 163 154 163c85 0 144 -59 144 -143c0 -26 -6 -43 -6 -43zM179 255c-34 0 -61 -22 -69 -65h130c0 38 -25 65 -61 65z" />
    <glyph glyph-name="f.dnom" horiz-adv-x="239" 
d="M186 389c-22 0 -34 -17 -34 -44v-34h71v-66h-71v-245h-87v245h-50v66h50v34c0 72 49 109 117 109c57 0 94 -29 114 -57l-77 -46c-1 19 -10 38 -33 38z" />
    <glyph glyph-name="g.dnom" horiz-adv-x="350" 
d="M34 215c0 61 57 103 132 103c29 0 45 -5 68 -5c27 0 36 15 36 38c0 11 -1 22 -2 29l81 -45c-1 -41 -20 -59 -57 -59c-8 0 -19 1 -25 3v-2c17 -14 39 -36 39 -72c0 -62 -61 -101 -137 -101c-35 0 -65 -10 -65 -27c0 -13 11 -18 38 -18c28 0 58 5 92 5
c70 0 116 -27 116 -88c0 -73 -84 -102 -179 -102c-88 0 -168 24 -168 79c0 33 35 54 67 59v1c-23 8 -45 23 -45 50c0 35 36 55 75 62v1c-35 14 -66 41 -66 89zM79 -38c0 -23 38 -33 91 -33c59 0 95 12 95 38c0 20 -31 27 -70 27c-40 0 -116 -2 -116 -32zM115 211
c0 -30 24 -49 56 -49c31 0 55 19 55 49s-24 49 -55 49c-32 0 -56 -19 -56 -49z" />
    <glyph glyph-name="h.dnom" horiz-adv-x="364" 
d="M325 200v-200h-88v182c0 42 -16 63 -50 63c-36 0 -57 -27 -57 -67v-178h-89v447h89v-111c0 -38 -4 -77 -4 -77h1c17 29 44 59 97 59c62 0 101 -42 101 -118z" />
    <glyph glyph-name="i.dnom" horiz-adv-x="172" 
d="M86 445c29 0 52 -20 52 -49c0 -28 -23 -48 -52 -48s-51 20 -51 48c0 29 22 49 51 49zM41 0v311h90v-311h-90z" />
    <glyph glyph-name="j.dnom" horiz-adv-x="177" 
d="M91 445c30 0 52 -20 52 -49c0 -28 -22 -48 -52 -48c-29 0 -51 20 -51 48c0 29 22 49 51 49zM43 -128l-76 57c60 13 79 34 79 97v285h90v-293c0 -76 -25 -128 -93 -146z" />
    <glyph glyph-name="k.dnom" horiz-adv-x="351" 
d="M341 311l-110 -123l120 -188h-97l-80 125l-44 -52v-73h-89v447h89v-207c0 -38 -4 -77 -4 -77h1s21 35 40 59l70 89h104z" />
    <glyph glyph-name="l.dnom" horiz-adv-x="172" 
d="M41 0v447h90v-447h-90z" />
    <glyph glyph-name="m.dnom" horiz-adv-x="537" 
d="M41 0v311h88l-5 -52h3c15 28 41 59 91 59c41 0 69 -19 82 -57h2c19 30 48 57 98 57c61 0 98 -40 98 -113v-205h-88v190c0 36 -15 55 -45 55c-32 0 -51 -24 -51 -63v-182h-88v195c0 33 -18 50 -46 50c-31 0 -51 -24 -51 -62v-183h-88z" />
    <glyph glyph-name="n.dnom" horiz-adv-x="364" 
d="M325 200v-200h-88v182c0 42 -16 63 -50 63c-36 0 -57 -27 -57 -67v-178h-89v311h89l-4 -52h1c17 29 44 59 97 59c62 0 101 -42 101 -118z" />
    <glyph glyph-name="o.dnom" horiz-adv-x="360" 
d="M180 -7c-88 0 -155 61 -155 162c0 102 67 163 155 163s156 -61 156 -163c0 -101 -68 -162 -156 -162zM114 155c0 -55 21 -96 66 -96s66 41 66 96c0 56 -21 97 -66 97s-66 -41 -66 -97z" />
    <glyph glyph-name="p.dnom" horiz-adv-x="373" 
d="M126 259c18 29 47 59 97 59c68 0 126 -63 126 -163c0 -99 -58 -162 -126 -162c-50 0 -77 29 -93 51v-165h-89v432h89zM127 155c0 -55 24 -93 67 -93c42 0 65 38 65 93c0 56 -23 94 -65 94c-43 0 -67 -38 -67 -94z" />
    <glyph glyph-name="q.dnom" horiz-adv-x="373" 
d="M246 262v49h87v-432h-89v96c0 38 4 77 4 77h-2c-16 -31 -46 -59 -95 -59c-68 0 -126 63 -126 162c0 100 58 163 126 163c49 0 78 -29 93 -56h2zM246 155c0 56 -23 94 -66 94c-42 0 -66 -38 -66 -94c0 -55 24 -93 66 -93c43 0 66 38 66 93z" />
    <glyph glyph-name="r.dnom" horiz-adv-x="291" 
d="M41 0v311h89l-4 -52h1c17 30 40 59 82 59c45 0 70 -38 70 -84c0 -20 -3 -35 -3 -35l-80 -46c1 10 5 30 5 52c0 20 -7 39 -30 39c-28 0 -41 -25 -41 -62v-182h-89z" />
    <glyph glyph-name="s.dnom" horiz-adv-x="330" 
d="M178 55c25 0 43 11 43 31c0 25 -37 31 -79 42c-48 13 -109 35 -109 95c0 59 58 95 126 95c65 0 123 -33 148 -70l-76 -42c-8 26 -33 50 -68 50c-24 0 -43 -11 -43 -29c0 -24 42 -26 90 -40c51 -16 98 -38 98 -95c0 -63 -60 -99 -127 -99c-77 0 -131 27 -163 79l77 43
c13 -34 39 -60 83 -60z" />
    <glyph glyph-name="t.dnom" horiz-adv-x="239" 
d="M198 82l34 -62c-11 -10 -40 -27 -77 -27c-56 0 -93 27 -93 93v159h-52v66h52v63l88 48v-111h73v-66h-73v-150c0 -24 8 -32 23 -32c13 0 21 12 25 19z" />
    <glyph glyph-name="u.dnom" horiz-adv-x="361" 
d="M40 111v200h89v-182c0 -42 13 -64 48 -64s54 28 54 65v181h89v-311h-89l5 52h-2c-16 -30 -41 -59 -95 -59c-62 0 -99 42 -99 118z" />
    <glyph glyph-name="v.dnom" horiz-adv-x="326" 
d="M110 0l-104 311h93l40 -136c12 -39 24 -94 24 -94h2s13 55 24 94l40 136h91l-105 -311h-105z" />
    <glyph glyph-name="w.dnom" horiz-adv-x="484" 
d="M242 232c0 0 -11 -53 -20 -91l-31 -141h-108l-68 311h91l19 -113c7 -43 18 -116 18 -116h2s21 102 29 137l20 92h100l26 -113c10 -43 23 -116 23 -116h2s15 97 22 137l16 92h86l-67 -311h-106l-32 141c-8 38 -20 91 -20 91h-2z" />
    <glyph glyph-name="x.dnom" horiz-adv-x="326" 
d="M312 311l-86 -152l93 -159h-96l-36 66c-16 31 -24 51 -24 51h-2s-8 -21 -24 -51l-36 -66h-94l92 159l-85 152h95l27 -55c15 -32 27 -58 27 -58h2s12 26 26 57l28 56h93z" />
    <glyph glyph-name="y.dnom" horiz-adv-x="323" 
d="M165 98c1 -2 20 71 32 111l29 102h92l-110 -323c-17 -51 -45 -97 -101 -116l-72 56c46 12 69 30 88 72l-117 311h94l42 -136c10 -34 23 -77 23 -77z" />
    <glyph glyph-name="z.dnom" horiz-adv-x="313" 
d="M30 245v66h254v-48l-146 -197h153v-66h-264v48l146 197h-143z" />
    <glyph glyph-name="zero.dnom" horiz-adv-x="403" 
d="M123 215c0 -73 18 -145 79 -145c60 0 79 72 79 145s-19 142 -79 142c-61 0 -79 -69 -79 -142zM29 215c0 142 70 219 173 219s173 -77 173 -219c0 -143 -70 -222 -173 -222s-173 79 -173 222z" />
    <glyph glyph-name="one.dnom" horiz-adv-x="254" 
d="M119 320h-2c-16 -18 -47 -37 -74 -44l-37 76c53 12 104 40 132 75h68v-427h-90v255c0 30 3 65 3 65z" />
    <glyph glyph-name="two.dnom" horiz-adv-x="356" 
d="M127 218l-91 41s-7 18 -7 41c0 84 69 134 154 134c83 0 148 -50 148 -131c0 -126 -162 -186 -179 -223v-2h179v-78h-289s-2 10 -2 22c0 124 201 175 201 276c0 36 -23 61 -60 61c-41 0 -65 -30 -65 -77c0 -28 7 -50 11 -64z" />
    <glyph glyph-name="three.dnom" horiz-adv-x="355" 
d="M177 -7c-83 0 -142 44 -159 101l85 46c6 -41 29 -72 73 -72c42 0 67 30 67 70c0 41 -27 69 -70 69c-30 0 -51 -13 -70 -25l-31 73l120 95h-157v77h284v-63l-83 -64c-23 -18 -60 -37 -60 -37l1 -3s12 3 22 3c74 0 133 -49 133 -128c0 -84 -66 -142 -155 -142z" />
    <glyph glyph-name="four.dnom" horiz-adv-x="373" 
d="M217 108h-176l-21 53c47 76 76 158 79 273l85 -41c-5 -93 -40 -158 -73 -210h106v244h88v-244h52v-75h-52v-108h-88v108z" />
    <glyph glyph-name="five.dnom" horiz-adv-x="360" 
d="M181 -7c-84 0 -141 44 -157 101l85 46c5 -40 26 -72 71 -72c44 0 68 37 68 81s-26 77 -68 77c-36 0 -57 -23 -65 -49l-79 35l28 215h244v-77h-171l-6 -43c-4 -26 -10 -50 -10 -50l1 -1c16 19 44 36 83 36c71 0 131 -54 131 -143c0 -94 -65 -156 -155 -156z" />
    <glyph glyph-name="six.dnom" horiz-adv-x="373" 
d="M207 434c64 0 115 -35 139 -82l-81 -46c-4 30 -23 55 -58 55c-52 0 -85 -51 -93 -123h2c20 29 57 49 97 49c70 0 137 -52 137 -141c0 -90 -67 -153 -157 -153c-103 0 -164 71 -164 205c0 139 63 236 178 236zM264 143c0 44 -26 78 -71 78c-46 0 -73 -34 -73 -78
c0 -45 28 -79 73 -79c46 0 71 34 71 79z" />
    <glyph glyph-name="seven.dnom" horiz-adv-x="340" 
d="M332 427v-54c-66 -122 -104 -245 -120 -373h-101c16 126 72 257 123 349h-131v-98l-85 42v134h314z" />
    <glyph glyph-name="eight.dnom" horiz-adv-x="379" 
d="M190 -7c-92 0 -166 48 -166 127c0 68 55 97 90 108v2c-34 12 -73 38 -73 91c0 69 64 113 149 113s149 -44 149 -113c0 -53 -40 -79 -73 -91v-2c34 -11 89 -40 89 -108c0 -79 -73 -127 -165 -127zM112 126c0 -40 36 -62 78 -62s77 22 77 62c0 41 -35 62 -77 62
s-78 -21 -78 -62zM122 311c0 -32 31 -52 68 -52s67 20 67 52c0 33 -30 52 -67 52s-68 -19 -68 -52z" />
    <glyph glyph-name="nine.dnom" horiz-adv-x="373" 
d="M182 -7c-71 0 -120 32 -146 86l81 46c4 -30 24 -59 67 -59c55 0 72 47 75 124c-1 0 -1 1 -2 1c-19 -29 -57 -45 -96 -45c-70 0 -138 50 -138 140c0 89 68 148 158 148c103 0 163 -66 163 -199c0 -145 -41 -242 -162 -242zM109 287c0 -44 27 -75 72 -75c46 0 73 31 73 75
s-28 76 -73 76c-46 0 -72 -31 -72 -76z" />
    <glyph glyph-name="dollar.dnom" horiz-adv-x="398" 
d="M169 -57v60c-73 8 -127 52 -142 115l78 48c2 -44 21 -84 67 -94v110c-67 19 -134 48 -134 124c0 64 59 110 131 118v58h73v-59c59 -8 111 -45 134 -99l-77 -47c-1 38 -22 71 -61 79v-103c70 -19 140 -49 140 -124c0 -66 -57 -118 -136 -126v-60h-73zM296 122
c0 28 -26 41 -58 51v-105c35 6 58 26 58 54zM120 314c0 -28 22 -40 52 -49v93c-32 -5 -52 -23 -52 -44z" />
    <glyph glyph-name="cent.dnom" horiz-adv-x="377" 
d="M162 -57v62c-77 12 -130 68 -130 153s53 139 130 151v62h73v-61c63 -10 103 -48 118 -92l-76 -37c0 27 -15 53 -46 62v-171c31 10 46 36 46 63l76 -37c-15 -44 -55 -84 -118 -93v-62h-73zM115 158c0 -42 15 -74 51 -86v171c-36 -11 -51 -43 -51 -85z" />
    <glyph glyph-name="Euro.dnom" horiz-adv-x="423" 
d="M249 133h-75c10 -41 33 -69 79 -69c53 0 71 44 72 95l82 -51c-19 -62 -70 -115 -154 -115c-83 0 -145 47 -167 140h-57v59h48v36h-48v58h56c22 97 88 148 168 148c81 0 135 -49 154 -112l-82 -50c-1 50 -21 91 -72 91c-44 0 -69 -33 -80 -77h122l-18 -58h-112v-36h102z
" />
    <glyph glyph-name="yen.dnom" horiz-adv-x="405" 
d="M359 100h-112v-100h-88v100h-113v59h113l-21 39h-92v58h59l-93 171h100l55 -113c15 -31 37 -77 36 -77c2 -1 20 40 37 76l56 114h97l-94 -171h60v-58h-92l-12 -23l-8 -16h112v-59z" />
    <glyph glyph-name="sterling.dnom" horiz-adv-x="381" 
d="M272 174h-83c0 -6 1 -12 1 -18c-2 -36 -16 -63 -36 -79h205v-77h-309v60c41 20 52 53 52 87c0 9 0 18 -2 27h-70v66h54c-6 21 -11 41 -11 66c0 87 71 128 147 128c68 0 126 -38 152 -102l-81 -48c-5 47 -29 77 -70 77c-34 0 -59 -21 -59 -61c0 -21 6 -41 12 -60h118z" />
    <glyph glyph-name="plus.dnom" horiz-adv-x="391" 
d="M156 30v135h-128v75h128v132h80v-132h128v-75h-128v-135h-80z" />
    <glyph glyph-name="minus.dnom" horiz-adv-x="391" 
d="M354 164h-316v77h316v-77z" />
    <glyph glyph-name="multiply.dnom" horiz-adv-x="391" 
d="M88 45l-56 52l111 103l-109 104l56 51l106 -103l106 103l56 -51l-110 -104l112 -103l-56 -52l-108 104z" />
    <glyph glyph-name="divide.dnom" horiz-adv-x="391" 
d="M354 165h-316v75h316v-75zM196 128c30 0 53 -21 53 -52c0 -30 -23 -51 -53 -51c-29 0 -53 21 -53 51c0 31 24 52 53 52zM196 379c30 0 53 -20 53 -51c0 -30 -23 -51 -53 -51c-29 0 -53 21 -53 51c0 31 24 51 53 51z" />
    <glyph glyph-name="equal.dnom" horiz-adv-x="391" 
d="M352 103h-313v71h313v-71zM352 227h-313v72h313v-72z" />
    <glyph glyph-name="period.dnom" horiz-adv-x="187" 
d="M94 99c30 0 55 -22 55 -53c0 -32 -25 -53 -55 -53c-31 0 -56 21 -56 53c0 31 25 53 56 53z" />
    <glyph glyph-name="comma.dnom" horiz-adv-x="187" 
d="M88 99c36 0 61 -27 61 -74c0 -55 -26 -98 -61 -120l-49 30c23 12 56 32 61 70c-3 -1 -7 -1 -11 -1c-28 0 -51 19 -51 47s22 48 50 48z" />
    <glyph glyph-name="hyphen.dnom" horiz-adv-x="230" 
d="M201 148h-172v73h172v-73z" />
    <glyph glyph-name="parenleft.dnom" horiz-adv-x="234" 
d="M51 190c0 128 53 232 107 286l68 -34c-49 -59 -86 -142 -86 -252c0 -109 37 -196 86 -255l-68 -34c-54 54 -107 162 -107 289z" />
    <glyph glyph-name="parenright.dnom" horiz-adv-x="234" 
d="M183 190c0 -127 -52 -235 -106 -289l-68 34c48 59 85 146 85 255c0 110 -37 193 -85 252l68 34c54 -54 106 -158 106 -286z" />
    <glyph glyph-name="a.numr" horiz-adv-x="347" 
d="M172 529c-38 0 -62 -24 -71 -61l-77 40c24 52 77 87 149 87s130 -37 130 -116v-124c0 -33 1 -55 8 -78h-67c-10 14 -14 24 -18 39h-2c-13 -19 -43 -46 -92 -46c-57 0 -102 33 -102 91c0 69 66 87 118 97c44 9 71 15 71 37c0 20 -21 34 -47 34zM221 395v35
c-8 -11 -27 -18 -52 -25c-28 -6 -54 -13 -54 -38c0 -19 15 -33 44 -33c32 0 62 22 62 61z" />
    <glyph glyph-name="b.numr" horiz-adv-x="373" 
d="M127 326v-49h-86v447h89v-111c0 -38 -4 -77 -4 -77h1c15 27 42 55 86 57c12 1 23 1 34 -2c57 -12 102 -71 102 -159s-45 -146 -102 -158c-11 -3 -22 -3 -34 -2c-44 2 -71 30 -84 54h-2zM127 432c0 -55 24 -93 67 -93c42 0 65 38 65 93c0 56 -23 94 -65 94
c-43 0 -67 -38 -67 -94z" />
    <glyph glyph-name="c.numr" horiz-adv-x="334" 
d="M178 529c-44 0 -64 -41 -64 -97c0 -55 20 -96 64 -96c39 0 57 34 57 75l81 -40c-13 -52 -61 -101 -138 -101c-89 0 -153 61 -153 162c0 102 64 163 153 163c77 0 125 -49 138 -101l-81 -40c0 41 -18 75 -57 75z" />
    <glyph glyph-name="d.numr" horiz-adv-x="373" 
d="M248 329h-2c-16 -31 -46 -59 -95 -59c-68 0 -126 63 -126 162c0 100 58 163 126 163c49 0 77 -29 90 -49h3v178h88v-447h-88zM180 339c43 0 66 38 66 93c0 56 -23 94 -66 94c-42 0 -66 -38 -66 -94c0 -55 24 -93 66 -93z" />
    <glyph glyph-name="e.numr" horiz-adv-x="345" 
d="M317 409h-208c3 -51 34 -75 72 -75c34 0 57 21 62 51l76 -41c-23 -40 -71 -74 -138 -74c-91 0 -156 61 -156 162c0 102 67 163 154 163c85 0 144 -59 144 -143c0 -26 -6 -43 -6 -43zM179 532c-34 0 -61 -22 -69 -65h130c0 38 -25 65 -61 65z" />
    <glyph glyph-name="f.numr" horiz-adv-x="239" 
d="M186 666c-22 0 -34 -17 -34 -44v-34h71v-66h-71v-245h-87v245h-50v66h50v34c0 72 49 109 117 109c57 0 94 -29 114 -57l-77 -46c-1 19 -10 38 -33 38z" />
    <glyph glyph-name="g.numr" horiz-adv-x="350" 
d="M34 492c0 61 57 103 132 103c29 0 45 -5 68 -5c27 0 36 15 36 38c0 11 -1 22 -2 29l81 -45c-1 -41 -20 -59 -57 -59c-8 0 -19 1 -25 3v-2c17 -14 39 -36 39 -72c0 -62 -61 -101 -137 -101c-35 0 -65 -10 -65 -27c0 -13 11 -18 38 -18c28 0 58 5 92 5
c70 0 116 -27 116 -88c0 -73 -84 -102 -179 -102c-88 0 -168 24 -168 79c0 33 35 54 67 59v1c-23 8 -45 23 -45 50c0 35 36 55 75 62v1c-35 14 -66 41 -66 89zM79 239c0 -23 38 -33 91 -33c59 0 95 12 95 38c0 20 -31 27 -70 27c-40 0 -116 -2 -116 -32zM115 488
c0 -30 24 -49 56 -49c31 0 55 19 55 49s-24 49 -55 49c-32 0 -56 -19 -56 -49z" />
    <glyph glyph-name="h.numr" horiz-adv-x="364" 
d="M325 477v-200h-88v182c0 42 -16 63 -50 63c-36 0 -57 -27 -57 -67v-178h-89v447h89v-111c0 -38 -4 -77 -4 -77h1c17 29 44 59 97 59c62 0 101 -42 101 -118z" />
    <glyph glyph-name="i.numr" horiz-adv-x="172" 
d="M86 722c29 0 52 -20 52 -49c0 -28 -23 -48 -52 -48s-51 20 -51 48c0 29 22 49 51 49zM41 277v311h90v-311h-90z" />
    <glyph glyph-name="j.numr" horiz-adv-x="177" 
d="M91 722c30 0 52 -20 52 -49c0 -28 -22 -48 -52 -48c-29 0 -51 20 -51 48c0 29 22 49 51 49zM43 149l-76 57c60 13 79 34 79 97v285h90v-293c0 -76 -25 -128 -93 -146z" />
    <glyph glyph-name="k.numr" horiz-adv-x="351" 
d="M341 588l-110 -123l120 -188h-97l-80 125l-44 -52v-73h-89v447h89v-207c0 -38 -4 -77 -4 -77h1s21 35 40 59l70 89h104z" />
    <glyph glyph-name="l.numr" horiz-adv-x="172" 
d="M41 277v447h90v-447h-90z" />
    <glyph glyph-name="m.numr" horiz-adv-x="537" 
d="M41 277v311h88l-5 -52h3c15 28 41 59 91 59c41 0 69 -19 82 -57h2c19 30 48 57 98 57c61 0 98 -40 98 -113v-205h-88v190c0 36 -15 55 -45 55c-32 0 -51 -24 -51 -63v-182h-88v195c0 33 -18 50 -46 50c-31 0 -51 -24 -51 -62v-183h-88z" />
    <glyph glyph-name="n.numr" horiz-adv-x="364" 
d="M325 477v-200h-88v182c0 42 -16 63 -50 63c-36 0 -57 -27 -57 -67v-178h-89v311h89l-4 -52h1c17 29 44 59 97 59c62 0 101 -42 101 -118z" />
    <glyph glyph-name="o.numr" horiz-adv-x="360" 
d="M180 270c-88 0 -155 61 -155 162c0 102 67 163 155 163s156 -61 156 -163c0 -101 -68 -162 -156 -162zM114 432c0 -55 21 -96 66 -96s66 41 66 96c0 56 -21 97 -66 97s-66 -41 -66 -97z" />
    <glyph glyph-name="p.numr" horiz-adv-x="373" 
d="M126 536c18 29 47 59 97 59c68 0 126 -63 126 -163c0 -99 -58 -162 -126 -162c-50 0 -77 29 -93 51v-165h-89v432h89zM127 432c0 -55 24 -93 67 -93c42 0 65 38 65 93c0 56 -23 94 -65 94c-43 0 -67 -38 -67 -94z" />
    <glyph glyph-name="q.numr" horiz-adv-x="373" 
d="M246 539v49h87v-432h-89v96c0 38 4 77 4 77h-2c-16 -31 -46 -59 -95 -59c-68 0 -126 63 -126 162c0 100 58 163 126 163c49 0 78 -29 93 -56h2zM246 432c0 56 -23 94 -66 94c-42 0 -66 -38 -66 -94c0 -55 24 -93 66 -93c43 0 66 38 66 93z" />
    <glyph glyph-name="r.numr" horiz-adv-x="291" 
d="M41 277v311h89l-4 -52h1c17 30 40 59 82 59c45 0 70 -38 70 -84c0 -20 -3 -35 -3 -35l-80 -46c1 10 5 30 5 52c0 20 -7 39 -30 39c-28 0 -41 -25 -41 -62v-182h-89z" />
    <glyph glyph-name="s.numr" horiz-adv-x="330" 
d="M178 332c25 0 43 11 43 31c0 25 -37 31 -79 42c-48 13 -109 35 -109 95c0 59 58 95 126 95c65 0 123 -33 148 -70l-76 -42c-8 26 -33 50 -68 50c-24 0 -43 -11 -43 -29c0 -24 42 -26 90 -40c51 -16 98 -38 98 -95c0 -63 -60 -99 -127 -99c-77 0 -131 27 -163 79l77 43
c13 -34 39 -60 83 -60z" />
    <glyph glyph-name="t.numr" horiz-adv-x="239" 
d="M198 359l34 -62c-11 -10 -40 -27 -77 -27c-56 0 -93 27 -93 93v159h-52v66h52v63l88 48v-111h73v-66h-73v-150c0 -24 8 -32 23 -32c13 0 21 12 25 19z" />
    <glyph glyph-name="u.numr" horiz-adv-x="361" 
d="M40 388v200h89v-182c0 -42 13 -64 48 -64s54 28 54 65v181h89v-311h-89l5 52h-2c-16 -30 -41 -59 -95 -59c-62 0 -99 42 -99 118z" />
    <glyph glyph-name="v.numr" horiz-adv-x="326" 
d="M110 277l-104 311h93l40 -136c12 -39 24 -94 24 -94h2s13 55 24 94l40 136h91l-105 -311h-105z" />
    <glyph glyph-name="w.numr" horiz-adv-x="484" 
d="M242 509c0 0 -11 -53 -20 -91l-31 -141h-108l-68 311h91l19 -113c7 -43 18 -116 18 -116h2s21 102 29 137l20 92h100l26 -113c10 -43 23 -116 23 -116h2s15 97 22 137l16 92h86l-67 -311h-106l-32 141c-8 38 -20 91 -20 91h-2z" />
    <glyph glyph-name="x.numr" horiz-adv-x="326" 
d="M312 588l-86 -152l93 -159h-96l-36 66c-16 31 -24 51 -24 51h-2s-8 -21 -24 -51l-36 -66h-94l92 159l-85 152h95l27 -55c15 -32 27 -58 27 -58h2s12 26 26 57l28 56h93z" />
    <glyph glyph-name="y.numr" horiz-adv-x="323" 
d="M165 375c1 -2 20 71 32 111l29 102h92l-110 -323c-17 -51 -45 -97 -101 -116l-72 56c46 12 69 30 88 72l-117 311h94l42 -136c10 -34 23 -77 23 -77z" />
    <glyph glyph-name="z.numr" horiz-adv-x="313" 
d="M30 522v66h254v-48l-146 -197h153v-66h-264v48l146 197h-143z" />
    <glyph glyph-name="zero.numr" horiz-adv-x="403" 
d="M123 492c0 -73 18 -145 79 -145c60 0 79 72 79 145s-19 142 -79 142c-61 0 -79 -69 -79 -142zM29 492c0 142 70 219 173 219s173 -77 173 -219c0 -143 -70 -222 -173 -222s-173 79 -173 222z" />
    <glyph glyph-name="one.numr" horiz-adv-x="254" 
d="M119 597h-2c-16 -18 -47 -37 -74 -44l-37 76c53 12 104 40 132 75h68v-427h-90v255c0 30 3 65 3 65z" />
    <glyph glyph-name="two.numr" horiz-adv-x="356" 
d="M127 495l-91 41s-7 18 -7 41c0 84 69 134 154 134c83 0 148 -50 148 -131c0 -126 -162 -186 -179 -223v-2h179v-78h-289s-2 10 -2 22c0 124 201 175 201 276c0 36 -23 61 -60 61c-41 0 -65 -30 -65 -77c0 -28 7 -50 11 -64z" />
    <glyph glyph-name="three.numr" horiz-adv-x="355" 
d="M177 270c-83 0 -142 44 -159 101l85 46c6 -41 29 -72 73 -72c42 0 67 30 67 70c0 41 -27 69 -70 69c-30 0 -51 -13 -70 -25l-31 73l120 95h-157v77h284v-63l-83 -64c-23 -18 -60 -37 -60 -37l1 -3s12 3 22 3c74 0 133 -49 133 -128c0 -84 -66 -142 -155 -142z" />
    <glyph glyph-name="four.numr" horiz-adv-x="373" 
d="M217 385h-176l-21 53c47 76 76 158 79 273l85 -41c-5 -93 -40 -158 -73 -210h106v244h88v-244h52v-75h-52v-108h-88v108z" />
    <glyph glyph-name="five.numr" horiz-adv-x="360" 
d="M181 270c-84 0 -141 44 -157 101l85 46c5 -40 26 -72 71 -72c44 0 68 37 68 81s-26 77 -68 77c-36 0 -57 -23 -65 -49l-79 35l28 215h244v-77h-171l-6 -43c-4 -26 -10 -50 -10 -50l1 -1c16 19 44 36 83 36c71 0 131 -54 131 -143c0 -94 -65 -156 -155 -156z" />
    <glyph glyph-name="six.numr" horiz-adv-x="373" 
d="M207 711c64 0 115 -35 139 -82l-81 -46c-4 30 -23 55 -58 55c-52 0 -85 -51 -93 -123h2c20 29 57 49 97 49c70 0 137 -52 137 -141c0 -90 -67 -153 -157 -153c-103 0 -164 71 -164 205c0 139 63 236 178 236zM264 420c0 44 -26 78 -71 78c-46 0 -73 -34 -73 -78
c0 -45 28 -79 73 -79c46 0 71 34 71 79z" />
    <glyph glyph-name="seven.numr" horiz-adv-x="340" 
d="M332 704v-54c-66 -122 -104 -245 -120 -373h-101c16 126 72 257 123 349h-131v-98l-85 42v134h314z" />
    <glyph glyph-name="eight.numr" horiz-adv-x="379" 
d="M190 270c-92 0 -166 48 -166 127c0 68 55 97 90 108v2c-34 12 -73 38 -73 91c0 69 64 113 149 113s149 -44 149 -113c0 -53 -40 -79 -73 -91v-2c34 -11 89 -40 89 -108c0 -79 -73 -127 -165 -127zM112 403c0 -40 36 -62 78 -62s77 22 77 62c0 41 -35 62 -77 62
s-78 -21 -78 -62zM122 588c0 -32 31 -52 68 -52s67 20 67 52c0 33 -30 52 -67 52s-68 -19 -68 -52z" />
    <glyph glyph-name="nine.numr" horiz-adv-x="373" 
d="M182 270c-71 0 -120 32 -146 86l81 46c4 -30 24 -59 67 -59c55 0 72 47 75 124c-1 0 -1 1 -2 1c-19 -29 -57 -45 -96 -45c-70 0 -138 50 -138 140c0 89 68 148 158 148c103 0 163 -66 163 -199c0 -145 -41 -242 -162 -242zM109 564c0 -44 27 -75 72 -75c46 0 73 31 73 75
s-28 76 -73 76c-46 0 -72 -31 -72 -76z" />
    <glyph glyph-name="dollar.numr" horiz-adv-x="398" 
d="M169 220v60c-73 8 -127 52 -142 115l78 48c2 -44 21 -84 67 -94v110c-67 19 -134 48 -134 124c0 64 59 110 131 118v58h73v-59c59 -8 111 -45 134 -99l-77 -47c-1 38 -22 71 -61 79v-103c70 -19 140 -49 140 -124c0 -66 -57 -118 -136 -126v-60h-73zM296 399
c0 28 -26 41 -58 51v-105c35 6 58 26 58 54zM120 591c0 -28 22 -40 52 -49v93c-32 -5 -52 -23 -52 -44z" />
    <glyph glyph-name="cent.numr" horiz-adv-x="377" 
d="M162 220v62c-77 12 -130 68 -130 153s53 139 130 151v62h73v-61c63 -10 103 -48 118 -92l-76 -37c0 27 -15 53 -46 62v-171c31 10 46 36 46 63l76 -37c-15 -44 -55 -84 -118 -93v-62h-73zM115 435c0 -42 15 -74 51 -86v171c-36 -11 -51 -43 -51 -85z" />
    <glyph glyph-name="Euro.numr" horiz-adv-x="423" 
d="M249 410h-75c10 -41 33 -69 79 -69c53 0 71 44 72 95l82 -51c-19 -62 -70 -115 -154 -115c-83 0 -145 47 -167 140h-57v59h48v36h-48v58h56c22 97 88 148 168 148c81 0 135 -49 154 -112l-82 -50c-1 50 -21 91 -72 91c-44 0 -69 -33 -80 -77h122l-18 -58h-112v-36h102z
" />
    <glyph glyph-name="yen.numr" horiz-adv-x="405" 
d="M359 377h-112v-100h-88v100h-113v59h113l-21 39h-92v58h59l-93 171h100l55 -113c15 -31 37 -77 36 -77c2 -1 20 40 37 76l56 114h97l-94 -171h60v-58h-92l-12 -23l-8 -16h112v-59z" />
    <glyph glyph-name="sterling.numr" horiz-adv-x="381" 
d="M272 451h-83c0 -6 1 -12 1 -18c-2 -36 -16 -63 -36 -79h205v-77h-309v60c41 20 52 53 52 87c0 9 0 18 -2 27h-70v66h54c-6 21 -11 41 -11 66c0 87 71 128 147 128c68 0 126 -38 152 -102l-81 -48c-5 47 -29 77 -70 77c-34 0 -59 -21 -59 -61c0 -21 6 -41 12 -60h118z" />
    <glyph glyph-name="plus.numr" horiz-adv-x="391" 
d="M156 307v135h-128v75h128v132h80v-132h128v-75h-128v-135h-80z" />
    <glyph glyph-name="minus.numr" horiz-adv-x="391" 
d="M354 441h-316v77h316v-77z" />
    <glyph glyph-name="multiply.numr" horiz-adv-x="391" 
d="M88 322l-56 52l111 103l-109 104l56 51l106 -103l106 103l56 -51l-110 -104l112 -103l-56 -52l-108 104z" />
    <glyph glyph-name="divide.numr" horiz-adv-x="391" 
d="M354 442h-316v75h316v-75zM196 405c30 0 53 -21 53 -52c0 -30 -23 -51 -53 -51c-29 0 -53 21 -53 51c0 31 24 52 53 52zM196 656c30 0 53 -20 53 -51c0 -30 -23 -51 -53 -51c-29 0 -53 21 -53 51c0 31 24 51 53 51z" />
    <glyph glyph-name="equal.numr" horiz-adv-x="391" 
d="M352 380h-313v71h313v-71zM352 504h-313v72h313v-72z" />
    <glyph glyph-name="period.numr" horiz-adv-x="187" 
d="M94 376c30 0 55 -22 55 -53c0 -32 -25 -53 -55 -53c-31 0 -56 21 -56 53c0 31 25 53 56 53z" />
    <glyph glyph-name="comma.numr" horiz-adv-x="187" 
d="M88 376c36 0 61 -27 61 -74c0 -55 -26 -98 -61 -120l-49 30c23 12 56 32 61 70c-3 -1 -7 -1 -11 -1c-28 0 -51 19 -51 47s22 48 50 48z" />
    <glyph glyph-name="hyphen.numr" horiz-adv-x="230" 
d="M201 425h-172v73h172v-73z" />
    <glyph glyph-name="parenleft.numr" horiz-adv-x="234" 
d="M51 467c0 128 53 232 107 286l68 -34c-49 -59 -86 -142 -86 -252c0 -109 37 -196 86 -255l-68 -34c-54 54 -107 162 -107 289z" />
    <glyph glyph-name="parenright.numr" horiz-adv-x="234" 
d="M183 467c0 -127 -52 -235 -106 -289l-68 34c48 59 85 146 85 255c0 110 -37 193 -85 252l68 34c54 -54 106 -158 106 -286z" />
    <glyph glyph-name="uni2090" unicode="&#x2090;" horiz-adv-x="347" 
d="M172 144c-38 0 -62 -24 -71 -61l-77 40c24 52 77 87 149 87s130 -37 130 -116v-124c0 -33 1 -55 8 -78h-67c-10 14 -14 24 -18 39h-2c-13 -19 -43 -46 -92 -46c-57 0 -102 33 -102 91c0 69 66 87 118 97c44 9 71 15 71 37c0 20 -21 34 -47 34zM221 10v35
c-8 -11 -27 -18 -52 -25c-28 -6 -54 -13 -54 -38c0 -19 15 -33 44 -33c32 0 62 22 62 61z" />
    <glyph glyph-name="b.subs" horiz-adv-x="373" 
d="M127 -59v-49h-86v447h89v-111c0 -38 -4 -77 -4 -77h1c15 27 42 55 86 57c12 1 23 1 34 -2c57 -12 102 -71 102 -159s-45 -146 -102 -158c-11 -3 -22 -3 -34 -2c-44 2 -71 30 -84 54h-2zM127 47c0 -55 24 -93 67 -93c42 0 65 38 65 93c0 56 -23 94 -65 94
c-43 0 -67 -38 -67 -94z" />
    <glyph glyph-name="c.subs" horiz-adv-x="334" 
d="M178 144c-44 0 -64 -41 -64 -97c0 -55 20 -96 64 -96c39 0 57 34 57 75l81 -40c-13 -52 -61 -101 -138 -101c-89 0 -153 61 -153 162c0 102 64 163 153 163c77 0 125 -49 138 -101l-81 -40c0 41 -18 75 -57 75z" />
    <glyph glyph-name="d.subs" horiz-adv-x="373" 
d="M248 -56h-2c-16 -31 -46 -59 -95 -59c-68 0 -126 63 -126 162c0 100 58 163 126 163c49 0 77 -29 90 -49h3v178h88v-447h-88zM180 -46c43 0 66 38 66 93c0 56 -23 94 -66 94c-42 0 -66 -38 -66 -94c0 -55 24 -93 66 -93z" />
    <glyph glyph-name="uni2091" unicode="&#x2091;" horiz-adv-x="345" 
d="M317 24h-208c3 -51 34 -75 72 -75c34 0 57 21 62 51l76 -41c-23 -40 -71 -74 -138 -74c-91 0 -156 61 -156 162c0 102 67 163 154 163c85 0 144 -59 144 -143c0 -26 -6 -43 -6 -43zM179 147c-34 0 -61 -22 -69 -65h130c0 38 -25 65 -61 65z" />
    <glyph glyph-name="f.subs" horiz-adv-x="239" 
d="M186 281c-22 0 -34 -17 -34 -44v-34h71v-66h-71v-245h-87v245h-50v66h50v34c0 72 49 109 117 109c57 0 94 -29 114 -57l-77 -46c-1 19 -10 38 -33 38z" />
    <glyph glyph-name="g.subs" horiz-adv-x="350" 
d="M34 107c0 61 57 103 132 103c29 0 45 -5 68 -5c27 0 36 15 36 38c0 11 -1 22 -2 29l81 -45c-1 -41 -20 -59 -57 -59c-8 0 -19 1 -25 3v-2c17 -14 39 -36 39 -72c0 -62 -61 -101 -137 -101c-35 0 -65 -10 -65 -27c0 -13 11 -18 38 -18c28 0 58 5 92 5
c70 0 116 -27 116 -88c0 -73 -84 -102 -179 -102c-88 0 -168 24 -168 79c0 33 35 54 67 59v1c-23 8 -45 23 -45 50c0 35 36 55 75 62v1c-35 14 -66 41 -66 89zM79 -146c0 -23 38 -33 91 -33c59 0 95 12 95 38c0 20 -31 27 -70 27c-40 0 -116 -2 -116 -32zM115 103
c0 -30 24 -49 56 -49c31 0 55 19 55 49s-24 49 -55 49c-32 0 -56 -19 -56 -49z" />
    <glyph glyph-name="uni2095" unicode="&#x2095;" horiz-adv-x="364" 
d="M325 92v-200h-88v182c0 42 -16 63 -50 63c-36 0 -57 -27 -57 -67v-178h-89v447h89v-111c0 -38 -4 -77 -4 -77h1c17 29 44 59 97 59c62 0 101 -42 101 -118z" />
    <glyph glyph-name="i.subs" horiz-adv-x="172" 
d="M86 337c29 0 52 -20 52 -49c0 -28 -23 -48 -52 -48s-51 20 -51 48c0 29 22 49 51 49zM41 -108v311h90v-311h-90z" />
    <glyph glyph-name="j.subs" horiz-adv-x="177" 
d="M91 337c30 0 52 -20 52 -49c0 -28 -22 -48 -52 -48c-29 0 -51 20 -51 48c0 29 22 49 51 49zM43 -236l-76 57c60 13 79 34 79 97v285h90v-293c0 -76 -25 -128 -93 -146z" />
    <glyph glyph-name="uni2096" unicode="&#x2096;" horiz-adv-x="351" 
d="M341 203l-110 -123l120 -188h-97l-80 125l-44 -52v-73h-89v447h89v-207c0 -38 -4 -77 -4 -77h1s21 35 40 59l70 89h104z" />
    <glyph glyph-name="uni2097" unicode="&#x2097;" horiz-adv-x="172" 
d="M41 -108v447h90v-447h-90z" />
    <glyph glyph-name="uni2098" unicode="&#x2098;" horiz-adv-x="537" 
d="M41 -108v311h88l-5 -52h3c15 28 41 59 91 59c41 0 69 -19 82 -57h2c19 30 48 57 98 57c61 0 98 -40 98 -113v-205h-88v190c0 36 -15 55 -45 55c-32 0 -51 -24 -51 -63v-182h-88v195c0 33 -18 50 -46 50c-31 0 -51 -24 -51 -62v-183h-88z" />
    <glyph glyph-name="uni2099" unicode="&#x2099;" horiz-adv-x="364" 
d="M325 92v-200h-88v182c0 42 -16 63 -50 63c-36 0 -57 -27 -57 -67v-178h-89v311h89l-4 -52h1c17 29 44 59 97 59c62 0 101 -42 101 -118z" />
    <glyph glyph-name="uni2092" unicode="&#x2092;" horiz-adv-x="360" 
d="M180 -115c-88 0 -155 61 -155 162c0 102 67 163 155 163s156 -61 156 -163c0 -101 -68 -162 -156 -162zM114 47c0 -55 21 -96 66 -96s66 41 66 96c0 56 -21 97 -66 97s-66 -41 -66 -97z" />
    <glyph glyph-name="uni209A" unicode="&#x209a;" horiz-adv-x="373" 
d="M126 151c18 29 47 59 97 59c68 0 126 -63 126 -163c0 -99 -58 -162 -126 -162c-50 0 -77 29 -93 51v-165h-89v432h89zM127 47c0 -55 24 -93 67 -93c42 0 65 38 65 93c0 56 -23 94 -65 94c-43 0 -67 -38 -67 -94z" />
    <glyph glyph-name="q.subs" horiz-adv-x="373" 
d="M246 154v49h87v-432h-89v96c0 38 4 77 4 77h-2c-16 -31 -46 -59 -95 -59c-68 0 -126 63 -126 162c0 100 58 163 126 163c49 0 78 -29 93 -56h2zM246 47c0 56 -23 94 -66 94c-42 0 -66 -38 -66 -94c0 -55 24 -93 66 -93c43 0 66 38 66 93z" />
    <glyph glyph-name="r.subs" horiz-adv-x="291" 
d="M41 -108v311h89l-4 -52h1c17 30 40 59 82 59c45 0 70 -38 70 -84c0 -20 -3 -35 -3 -35l-80 -46c1 10 5 30 5 52c0 20 -7 39 -30 39c-28 0 -41 -25 -41 -62v-182h-89z" />
    <glyph glyph-name="uni209B" unicode="&#x209b;" horiz-adv-x="330" 
d="M178 -53c25 0 43 11 43 31c0 25 -37 31 -79 42c-48 13 -109 35 -109 95c0 59 58 95 126 95c65 0 123 -33 148 -70l-76 -42c-8 26 -33 50 -68 50c-24 0 -43 -11 -43 -29c0 -24 42 -26 90 -40c51 -16 98 -38 98 -95c0 -63 -60 -99 -127 -99c-77 0 -131 27 -163 79l77 43
c13 -34 39 -60 83 -60z" />
    <glyph glyph-name="uni209C" unicode="&#x209c;" horiz-adv-x="239" 
d="M198 -26l34 -62c-11 -10 -40 -27 -77 -27c-56 0 -93 27 -93 93v159h-52v66h52v63l88 48v-111h73v-66h-73v-150c0 -24 8 -32 23 -32c13 0 21 12 25 19z" />
    <glyph glyph-name="u.subs" horiz-adv-x="361" 
d="M40 3v200h89v-182c0 -42 13 -64 48 -64s54 28 54 65v181h89v-311h-89l5 52h-2c-16 -30 -41 -59 -95 -59c-62 0 -99 42 -99 118z" />
    <glyph glyph-name="v.subs" horiz-adv-x="326" 
d="M110 -108l-104 311h93l40 -136c12 -39 24 -94 24 -94h2s13 55 24 94l40 136h91l-105 -311h-105z" />
    <glyph glyph-name="w.subs" horiz-adv-x="484" 
d="M242 124c0 0 -11 -53 -20 -91l-31 -141h-108l-68 311h91l19 -113c7 -43 18 -116 18 -116h2s21 102 29 137l20 92h100l26 -113c10 -43 23 -116 23 -116h2s15 97 22 137l16 92h86l-67 -311h-106l-32 141c-8 38 -20 91 -20 91h-2z" />
    <glyph glyph-name="uni2093" unicode="&#x2093;" horiz-adv-x="326" 
d="M312 203l-86 -152l93 -159h-96l-36 66c-16 31 -24 51 -24 51h-2s-8 -21 -24 -51l-36 -66h-94l92 159l-85 152h95l27 -55c15 -32 27 -58 27 -58h2s12 26 26 57l28 56h93z" />
    <glyph glyph-name="y.subs" horiz-adv-x="323" 
d="M165 -10c1 -2 20 71 32 111l29 102h92l-110 -323c-17 -51 -45 -97 -101 -116l-72 56c46 12 69 30 88 72l-117 311h94l42 -136c10 -34 23 -77 23 -77z" />
    <glyph glyph-name="z.subs" horiz-adv-x="313" 
d="M30 137v66h254v-48l-146 -197h153v-66h-264v48l146 197h-143z" />
    <glyph glyph-name="uni2080" unicode="&#x2080;" horiz-adv-x="403" 
d="M123 107c0 -73 18 -145 79 -145c60 0 79 72 79 145s-19 142 -79 142c-61 0 -79 -69 -79 -142zM29 107c0 142 70 219 173 219s173 -77 173 -219c0 -143 -70 -222 -173 -222s-173 79 -173 222z" />
    <glyph glyph-name="uni2081" unicode="&#x2081;" horiz-adv-x="254" 
d="M119 212h-2c-16 -18 -47 -37 -74 -44l-37 76c53 12 104 40 132 75h68v-427h-90v255c0 30 3 65 3 65z" />
    <glyph glyph-name="uni2082" unicode="&#x2082;" horiz-adv-x="356" 
d="M127 110l-91 41s-7 18 -7 41c0 84 69 134 154 134c83 0 148 -50 148 -131c0 -126 -162 -186 -179 -223v-2h179v-78h-289s-2 10 -2 22c0 124 201 175 201 276c0 36 -23 61 -60 61c-41 0 -65 -30 -65 -77c0 -28 7 -50 11 -64z" />
    <glyph glyph-name="uni2083" unicode="&#x2083;" horiz-adv-x="355" 
d="M177 -115c-83 0 -142 44 -159 101l85 46c6 -41 29 -72 73 -72c42 0 67 30 67 70c0 41 -27 69 -70 69c-30 0 -51 -13 -70 -25l-31 73l120 95h-157v77h284v-63l-83 -64c-23 -18 -60 -37 -60 -37l1 -3s12 3 22 3c74 0 133 -49 133 -128c0 -84 -66 -142 -155 -142z" />
    <glyph glyph-name="uni2084" unicode="&#x2084;" horiz-adv-x="373" 
d="M217 0h-176l-21 53c47 76 76 158 79 273l85 -41c-5 -93 -40 -158 -73 -210h106v244h88v-244h52v-75h-52v-108h-88v108z" />
    <glyph glyph-name="uni2085" unicode="&#x2085;" horiz-adv-x="360" 
d="M181 -115c-84 0 -141 44 -157 101l85 46c5 -40 26 -72 71 -72c44 0 68 37 68 81s-26 77 -68 77c-36 0 -57 -23 -65 -49l-79 35l28 215h244v-77h-171l-6 -43c-4 -26 -10 -50 -10 -50l1 -1c16 19 44 36 83 36c71 0 131 -54 131 -143c0 -94 -65 -156 -155 -156z" />
    <glyph glyph-name="uni2086" unicode="&#x2086;" horiz-adv-x="373" 
d="M207 326c64 0 115 -35 139 -82l-81 -46c-4 30 -23 55 -58 55c-52 0 -85 -51 -93 -123h2c20 29 57 49 97 49c70 0 137 -52 137 -141c0 -90 -67 -153 -157 -153c-103 0 -164 71 -164 205c0 139 63 236 178 236zM264 35c0 44 -26 78 -71 78c-46 0 -73 -34 -73 -78
c0 -45 28 -79 73 -79c46 0 71 34 71 79z" />
    <glyph glyph-name="uni2087" unicode="&#x2087;" horiz-adv-x="340" 
d="M332 319v-54c-66 -122 -104 -245 -120 -373h-101c16 126 72 257 123 349h-131v-98l-85 42v134h314z" />
    <glyph glyph-name="uni2088" unicode="&#x2088;" horiz-adv-x="379" 
d="M190 -115c-92 0 -166 48 -166 127c0 68 55 97 90 108v2c-34 12 -73 38 -73 91c0 69 64 113 149 113s149 -44 149 -113c0 -53 -40 -79 -73 -91v-2c34 -11 89 -40 89 -108c0 -79 -73 -127 -165 -127zM112 18c0 -40 36 -62 78 -62s77 22 77 62c0 41 -35 62 -77 62
s-78 -21 -78 -62zM122 203c0 -32 31 -52 68 -52s67 20 67 52c0 33 -30 52 -67 52s-68 -19 -68 -52z" />
    <glyph glyph-name="uni2089" unicode="&#x2089;" horiz-adv-x="373" 
d="M182 -115c-71 0 -120 32 -146 86l81 46c4 -30 24 -59 67 -59c55 0 72 47 75 124c-1 0 -1 1 -2 1c-19 -29 -57 -45 -96 -45c-70 0 -138 50 -138 140c0 89 68 148 158 148c103 0 163 -66 163 -199c0 -145 -41 -242 -162 -242zM109 179c0 -44 27 -75 72 -75
c46 0 73 31 73 75s-28 76 -73 76c-46 0 -72 -31 -72 -76z" />
    <glyph glyph-name="dollar.subs" horiz-adv-x="398" 
d="M169 -165v60c-73 8 -127 52 -142 115l78 48c2 -44 21 -84 67 -94v110c-67 19 -134 48 -134 124c0 64 59 110 131 118v58h73v-59c59 -8 111 -45 134 -99l-77 -47c-1 38 -22 71 -61 79v-103c70 -19 140 -49 140 -124c0 -66 -57 -118 -136 -126v-60h-73zM296 14
c0 28 -26 41 -58 51v-105c35 6 58 26 58 54zM120 206c0 -28 22 -40 52 -49v93c-32 -5 -52 -23 -52 -44z" />
    <glyph glyph-name="cent.subs" horiz-adv-x="377" 
d="M162 -165v62c-77 12 -130 68 -130 153s53 139 130 151v62h73v-61c63 -10 103 -48 118 -92l-76 -37c0 27 -15 53 -46 62v-171c31 10 46 36 46 63l76 -37c-15 -44 -55 -84 -118 -93v-62h-73zM115 50c0 -42 15 -74 51 -86v171c-36 -11 -51 -43 -51 -85z" />
    <glyph glyph-name="Euro.subs" horiz-adv-x="423" 
d="M249 25h-75c10 -41 33 -69 79 -69c53 0 71 44 72 95l82 -51c-19 -62 -70 -115 -154 -115c-83 0 -145 47 -167 140h-57v59h48v36h-48v58h56c22 97 88 148 168 148c81 0 135 -49 154 -112l-82 -50c-1 50 -21 91 -72 91c-44 0 -69 -33 -80 -77h122l-18 -58h-112v-36h102z
" />
    <glyph glyph-name="yen.subs" horiz-adv-x="405" 
d="M359 -8h-112v-100h-88v100h-113v59h113l-21 39h-92v58h59l-93 171h100l55 -113c15 -31 37 -77 36 -77c2 -1 20 40 37 76l56 114h97l-94 -171h60v-58h-92l-12 -23l-8 -16h112v-59z" />
    <glyph glyph-name="sterling.subs" horiz-adv-x="381" 
d="M272 66h-83c0 -6 1 -12 1 -18c-2 -36 -16 -63 -36 -79h205v-77h-309v60c41 20 52 53 52 87c0 9 0 18 -2 27h-70v66h54c-6 21 -11 41 -11 66c0 87 71 128 147 128c68 0 126 -38 152 -102l-81 -48c-5 47 -29 77 -70 77c-34 0 -59 -21 -59 -61c0 -21 6 -41 12 -60h118z" />
    <glyph glyph-name="uni208A" unicode="&#x208a;" horiz-adv-x="391" 
d="M156 -78v135h-128v75h128v132h80v-132h128v-75h-128v-135h-80z" />
    <glyph glyph-name="uni208B" unicode="&#x208b;" horiz-adv-x="391" 
d="M354 56h-316v77h316v-77z" />
    <glyph glyph-name="multiply.subs" horiz-adv-x="391" 
d="M88 -63l-56 52l111 103l-109 104l56 51l106 -103l106 103l56 -51l-110 -104l112 -103l-56 -52l-108 104z" />
    <glyph glyph-name="divide.subs" horiz-adv-x="391" 
d="M354 57h-316v75h316v-75zM196 20c30 0 53 -21 53 -52c0 -30 -23 -51 -53 -51c-29 0 -53 21 -53 51c0 31 24 52 53 52zM196 271c30 0 53 -20 53 -51c0 -30 -23 -51 -53 -51c-29 0 -53 21 -53 51c0 31 24 51 53 51z" />
    <glyph glyph-name="uni208C" unicode="&#x208c;" horiz-adv-x="391" 
d="M352 -5h-313v71h313v-71zM352 119h-313v72h313v-72z" />
    <glyph glyph-name="period.subs" horiz-adv-x="187" 
d="M94 -9c30 0 55 -22 55 -53c0 -32 -25 -53 -55 -53c-31 0 -56 21 -56 53c0 31 25 53 56 53z" />
    <glyph glyph-name="comma.subs" horiz-adv-x="187" 
d="M88 -9c36 0 61 -27 61 -74c0 -55 -26 -98 -61 -120l-49 30c23 12 56 32 61 70c-3 -1 -7 -1 -11 -1c-28 0 -51 19 -51 47s22 48 50 48z" />
    <glyph glyph-name="hyphen.subs" horiz-adv-x="230" 
d="M201 40h-172v73h172v-73z" />
    <glyph glyph-name="uni208D" unicode="&#x208d;" horiz-adv-x="234" 
d="M51 82c0 128 53 232 107 286l68 -34c-49 -59 -86 -142 -86 -252c0 -109 37 -196 86 -255l-68 -34c-54 54 -107 162 -107 289z" />
    <glyph glyph-name="uni208E" unicode="&#x208e;" horiz-adv-x="234" 
d="M183 82c0 -127 -52 -235 -106 -289l-68 34c48 59 85 146 85 255c0 110 -37 193 -85 252l68 34c54 -54 106 -158 106 -286z" />
    <glyph glyph-name="a.sups" horiz-adv-x="347" 
d="M172 633c-38 0 -62 -24 -71 -61l-77 40c24 52 77 87 149 87s130 -37 130 -116v-124c0 -33 1 -55 8 -78h-67c-10 14 -14 24 -18 39h-2c-13 -19 -43 -46 -92 -46c-57 0 -102 33 -102 91c0 69 66 87 118 97c44 9 71 15 71 37c0 20 -21 34 -47 34zM221 499v35
c-8 -11 -27 -18 -52 -25c-28 -6 -54 -13 -54 -38c0 -19 15 -33 44 -33c32 0 62 22 62 61z" />
    <glyph glyph-name="b.sups" horiz-adv-x="373" 
d="M127 430v-49h-86v447h89v-111c0 -38 -4 -77 -4 -77h1c15 27 42 55 86 57c12 1 23 1 34 -2c57 -12 102 -71 102 -159s-45 -146 -102 -158c-11 -3 -22 -3 -34 -2c-44 2 -71 30 -84 54h-2zM127 536c0 -55 24 -93 67 -93c42 0 65 38 65 93c0 56 -23 94 -65 94
c-43 0 -67 -38 -67 -94z" />
    <glyph glyph-name="c.sups" horiz-adv-x="334" 
d="M178 633c-44 0 -64 -41 -64 -97c0 -55 20 -96 64 -96c39 0 57 34 57 75l81 -40c-13 -52 -61 -101 -138 -101c-89 0 -153 61 -153 162c0 102 64 163 153 163c77 0 125 -49 138 -101l-81 -40c0 41 -18 75 -57 75z" />
    <glyph glyph-name="d.sups" horiz-adv-x="373" 
d="M248 433h-2c-16 -31 -46 -59 -95 -59c-68 0 -126 63 -126 162c0 100 58 163 126 163c49 0 77 -29 90 -49h3v178h88v-447h-88zM180 443c43 0 66 38 66 93c0 56 -23 94 -66 94c-42 0 -66 -38 -66 -94c0 -55 24 -93 66 -93z" />
    <glyph glyph-name="e.sups" horiz-adv-x="345" 
d="M317 513h-208c3 -51 34 -75 72 -75c34 0 57 21 62 51l76 -41c-23 -40 -71 -74 -138 -74c-91 0 -156 61 -156 162c0 102 67 163 154 163c85 0 144 -59 144 -143c0 -26 -6 -43 -6 -43zM179 636c-34 0 -61 -22 -69 -65h130c0 38 -25 65 -61 65z" />
    <glyph glyph-name="f.sups" horiz-adv-x="239" 
d="M186 770c-22 0 -34 -17 -34 -44v-34h71v-66h-71v-245h-87v245h-50v66h50v34c0 72 49 109 117 109c57 0 94 -29 114 -57l-77 -46c-1 19 -10 38 -33 38z" />
    <glyph glyph-name="g.sups" horiz-adv-x="350" 
d="M34 596c0 61 57 103 132 103c29 0 45 -5 68 -5c27 0 36 15 36 38c0 11 -1 22 -2 29l81 -45c-1 -41 -20 -59 -57 -59c-8 0 -19 1 -25 3v-2c17 -14 39 -36 39 -72c0 -62 -61 -101 -137 -101c-35 0 -65 -10 -65 -27c0 -13 11 -18 38 -18c28 0 58 5 92 5
c70 0 116 -27 116 -88c0 -73 -84 -102 -179 -102c-88 0 -168 24 -168 79c0 33 35 54 67 59v1c-23 8 -45 23 -45 50c0 35 36 55 75 62v1c-35 14 -66 41 -66 89zM79 343c0 -23 38 -33 91 -33c59 0 95 12 95 38c0 20 -31 27 -70 27c-40 0 -116 -2 -116 -32zM115 592
c0 -30 24 -49 56 -49c31 0 55 19 55 49s-24 49 -55 49c-32 0 -56 -19 -56 -49z" />
    <glyph glyph-name="h.sups" horiz-adv-x="364" 
d="M325 581v-200h-88v182c0 42 -16 63 -50 63c-36 0 -57 -27 -57 -67v-178h-89v447h89v-111c0 -38 -4 -77 -4 -77h1c17 29 44 59 97 59c62 0 101 -42 101 -118z" />
    <glyph glyph-name="uni2071" unicode="&#x2071;" horiz-adv-x="172" 
d="M86 826c29 0 52 -20 52 -49c0 -28 -23 -48 -52 -48s-51 20 -51 48c0 29 22 49 51 49zM41 381v311h90v-311h-90z" />
    <glyph glyph-name="j.sups" horiz-adv-x="177" 
d="M91 826c30 0 52 -20 52 -49c0 -28 -22 -48 -52 -48c-29 0 -51 20 -51 48c0 29 22 49 51 49zM43 253l-76 57c60 13 79 34 79 97v285h90v-293c0 -76 -25 -128 -93 -146z" />
    <glyph glyph-name="k.sups" horiz-adv-x="351" 
d="M341 692l-110 -123l120 -188h-97l-80 125l-44 -52v-73h-89v447h89v-207c0 -38 -4 -77 -4 -77h1s21 35 40 59l70 89h104z" />
    <glyph glyph-name="l.sups" horiz-adv-x="172" 
d="M41 381v447h90v-447h-90z" />
    <glyph glyph-name="m.sups" horiz-adv-x="537" 
d="M41 381v311h88l-5 -52h3c15 28 41 59 91 59c41 0 69 -19 82 -57h2c19 30 48 57 98 57c61 0 98 -40 98 -113v-205h-88v190c0 36 -15 55 -45 55c-32 0 -51 -24 -51 -63v-182h-88v195c0 33 -18 50 -46 50c-31 0 -51 -24 -51 -62v-183h-88z" />
    <glyph glyph-name="uni207F" unicode="&#x207f;" horiz-adv-x="364" 
d="M325 581v-200h-88v182c0 42 -16 63 -50 63c-36 0 -57 -27 -57 -67v-178h-89v311h89l-4 -52h1c17 29 44 59 97 59c62 0 101 -42 101 -118z" />
    <glyph glyph-name="o.sups" horiz-adv-x="360" 
d="M180 374c-88 0 -155 61 -155 162c0 102 67 163 155 163s156 -61 156 -163c0 -101 -68 -162 -156 -162zM114 536c0 -55 21 -96 66 -96s66 41 66 96c0 56 -21 97 -66 97s-66 -41 -66 -97z" />
    <glyph glyph-name="p.sups" horiz-adv-x="373" 
d="M126 640c18 29 47 59 97 59c68 0 126 -63 126 -163c0 -99 -58 -162 -126 -162c-50 0 -77 29 -93 51v-165h-89v432h89zM127 536c0 -55 24 -93 67 -93c42 0 65 38 65 93c0 56 -23 94 -65 94c-43 0 -67 -38 -67 -94z" />
    <glyph glyph-name="q.sups" horiz-adv-x="373" 
d="M246 643v49h87v-432h-89v96c0 38 4 77 4 77h-2c-16 -31 -46 -59 -95 -59c-68 0 -126 63 -126 162c0 100 58 163 126 163c49 0 78 -29 93 -56h2zM246 536c0 56 -23 94 -66 94c-42 0 -66 -38 -66 -94c0 -55 24 -93 66 -93c43 0 66 38 66 93z" />
    <glyph glyph-name="r.sups" horiz-adv-x="291" 
d="M41 381v311h89l-4 -52h1c17 30 40 59 82 59c45 0 70 -38 70 -84c0 -20 -3 -35 -3 -35l-80 -46c1 10 5 30 5 52c0 20 -7 39 -30 39c-28 0 -41 -25 -41 -62v-182h-89z" />
    <glyph glyph-name="s.sups" horiz-adv-x="330" 
d="M178 436c25 0 43 11 43 31c0 25 -37 31 -79 42c-48 13 -109 35 -109 95c0 59 58 95 126 95c65 0 123 -33 148 -70l-76 -42c-8 26 -33 50 -68 50c-24 0 -43 -11 -43 -29c0 -24 42 -26 90 -40c51 -16 98 -38 98 -95c0 -63 -60 -99 -127 -99c-77 0 -131 27 -163 79l77 43
c13 -34 39 -60 83 -60z" />
    <glyph glyph-name="t.sups" horiz-adv-x="239" 
d="M198 463l34 -62c-11 -10 -40 -27 -77 -27c-56 0 -93 27 -93 93v159h-52v66h52v63l88 48v-111h73v-66h-73v-150c0 -24 8 -32 23 -32c13 0 21 12 25 19z" />
    <glyph glyph-name="u.sups" horiz-adv-x="361" 
d="M40 492v200h89v-182c0 -42 13 -64 48 -64s54 28 54 65v181h89v-311h-89l5 52h-2c-16 -30 -41 -59 -95 -59c-62 0 -99 42 -99 118z" />
    <glyph glyph-name="v.sups" horiz-adv-x="326" 
d="M110 381l-104 311h93l40 -136c12 -39 24 -94 24 -94h2s13 55 24 94l40 136h91l-105 -311h-105z" />
    <glyph glyph-name="w.sups" horiz-adv-x="484" 
d="M242 613c0 0 -11 -53 -20 -91l-31 -141h-108l-68 311h91l19 -113c7 -43 18 -116 18 -116h2s21 102 29 137l20 92h100l26 -113c10 -43 23 -116 23 -116h2s15 97 22 137l16 92h86l-67 -311h-106l-32 141c-8 38 -20 91 -20 91h-2z" />
    <glyph glyph-name="x.sups" horiz-adv-x="326" 
d="M312 692l-86 -152l93 -159h-96l-36 66c-16 31 -24 51 -24 51h-2s-8 -21 -24 -51l-36 -66h-94l92 159l-85 152h95l27 -55c15 -32 27 -58 27 -58h2s12 26 26 57l28 56h93z" />
    <glyph glyph-name="y.sups" horiz-adv-x="323" 
d="M165 479c1 -2 20 71 32 111l29 102h92l-110 -323c-17 -51 -45 -97 -101 -116l-72 56c46 12 69 30 88 72l-117 311h94l42 -136c10 -34 23 -77 23 -77z" />
    <glyph glyph-name="z.sups" horiz-adv-x="313" 
d="M30 626v66h254v-48l-146 -197h153v-66h-264v48l146 197h-143z" />
    <glyph glyph-name="uni2070" unicode="&#x2070;" horiz-adv-x="403" 
d="M123 596c0 -73 18 -145 79 -145c60 0 79 72 79 145s-19 142 -79 142c-61 0 -79 -69 -79 -142zM29 596c0 142 70 219 173 219s173 -77 173 -219c0 -143 -70 -222 -173 -222s-173 79 -173 222z" />
    <glyph glyph-name="onesuperior" unicode="&#xb9;" horiz-adv-x="254" 
d="M119 701h-2c-16 -18 -47 -37 -74 -44l-37 76c53 12 104 40 132 75h68v-427h-90v255c0 30 3 65 3 65z" />
    <glyph glyph-name="twosuperior" unicode="&#xb2;" horiz-adv-x="356" 
d="M127 599l-91 41s-7 18 -7 41c0 84 69 134 154 134c83 0 148 -50 148 -131c0 -126 -162 -186 -179 -223v-2h179v-78h-289s-2 10 -2 22c0 124 201 175 201 276c0 36 -23 61 -60 61c-41 0 -65 -30 -65 -77c0 -28 7 -50 11 -64z" />
    <glyph glyph-name="threesuperior" unicode="&#xb3;" horiz-adv-x="355" 
d="M177 374c-83 0 -142 44 -159 101l85 46c6 -41 29 -72 73 -72c42 0 67 30 67 70c0 41 -27 69 -70 69c-30 0 -51 -13 -70 -25l-31 73l120 95h-157v77h284v-63l-83 -64c-23 -18 -60 -37 -60 -37l1 -3s12 3 22 3c74 0 133 -49 133 -128c0 -84 -66 -142 -155 -142z" />
    <glyph glyph-name="uni2074" unicode="&#x2074;" horiz-adv-x="373" 
d="M217 489h-176l-21 53c47 76 76 158 79 273l85 -41c-5 -93 -40 -158 -73 -210h106v244h88v-244h52v-75h-52v-108h-88v108z" />
    <glyph glyph-name="uni2075" unicode="&#x2075;" horiz-adv-x="360" 
d="M181 374c-84 0 -141 44 -157 101l85 46c5 -40 26 -72 71 -72c44 0 68 37 68 81s-26 77 -68 77c-36 0 -57 -23 -65 -49l-79 35l28 215h244v-77h-171l-6 -43c-4 -26 -10 -50 -10 -50l1 -1c16 19 44 36 83 36c71 0 131 -54 131 -143c0 -94 -65 -156 -155 -156z" />
    <glyph glyph-name="uni2076" unicode="&#x2076;" horiz-adv-x="373" 
d="M207 815c64 0 115 -35 139 -82l-81 -46c-4 30 -23 55 -58 55c-52 0 -85 -51 -93 -123h2c20 29 57 49 97 49c70 0 137 -52 137 -141c0 -90 -67 -153 -157 -153c-103 0 -164 71 -164 205c0 139 63 236 178 236zM264 524c0 44 -26 78 -71 78c-46 0 -73 -34 -73 -78
c0 -45 28 -79 73 -79c46 0 71 34 71 79z" />
    <glyph glyph-name="uni2077" unicode="&#x2077;" horiz-adv-x="340" 
d="M332 808v-54c-66 -122 -104 -245 -120 -373h-101c16 126 72 257 123 349h-131v-98l-85 42v134h314z" />
    <glyph glyph-name="uni2078" unicode="&#x2078;" horiz-adv-x="379" 
d="M190 374c-92 0 -166 48 -166 127c0 68 55 97 90 108v2c-34 12 -73 38 -73 91c0 69 64 113 149 113s149 -44 149 -113c0 -53 -40 -79 -73 -91v-2c34 -11 89 -40 89 -108c0 -79 -73 -127 -165 -127zM112 507c0 -40 36 -62 78 -62s77 22 77 62c0 41 -35 62 -77 62
s-78 -21 -78 -62zM122 692c0 -32 31 -52 68 -52s67 20 67 52c0 33 -30 52 -67 52s-68 -19 -68 -52z" />
    <glyph glyph-name="uni2079" unicode="&#x2079;" horiz-adv-x="373" 
d="M182 374c-71 0 -120 32 -146 86l81 46c4 -30 24 -59 67 -59c55 0 72 47 75 124c-1 0 -1 1 -2 1c-19 -29 -57 -45 -96 -45c-70 0 -138 50 -138 140c0 89 68 148 158 148c103 0 163 -66 163 -199c0 -145 -41 -242 -162 -242zM109 668c0 -44 27 -75 72 -75c46 0 73 31 73 75
s-28 76 -73 76c-46 0 -72 -31 -72 -76z" />
    <glyph glyph-name="dollar.sups" horiz-adv-x="398" 
d="M169 324v60c-73 8 -127 52 -142 115l78 48c2 -44 21 -84 67 -94v110c-67 19 -134 48 -134 124c0 64 59 110 131 118v58h73v-59c59 -8 111 -45 134 -99l-77 -47c-1 38 -22 71 -61 79v-103c70 -19 140 -49 140 -124c0 -66 -57 -118 -136 -126v-60h-73zM296 503
c0 28 -26 41 -58 51v-105c35 6 58 26 58 54zM120 695c0 -28 22 -40 52 -49v93c-32 -5 -52 -23 -52 -44z" />
    <glyph glyph-name="cent.sups" horiz-adv-x="377" 
d="M162 324v62c-77 12 -130 68 -130 153s53 139 130 151v62h73v-61c63 -10 103 -48 118 -92l-76 -37c0 27 -15 53 -46 62v-171c31 10 46 36 46 63l76 -37c-15 -44 -55 -84 -118 -93v-62h-73zM115 539c0 -42 15 -74 51 -86v171c-36 -11 -51 -43 -51 -85z" />
    <glyph glyph-name="Euro.sups" horiz-adv-x="423" 
d="M249 514h-75c10 -41 33 -69 79 -69c53 0 71 44 72 95l82 -51c-19 -62 -70 -115 -154 -115c-83 0 -145 47 -167 140h-57v59h48v36h-48v58h56c22 97 88 148 168 148c81 0 135 -49 154 -112l-82 -50c-1 50 -21 91 -72 91c-44 0 -69 -33 -80 -77h122l-18 -58h-112v-36h102z
" />
    <glyph glyph-name="yen.sups" horiz-adv-x="405" 
d="M359 481h-112v-100h-88v100h-113v59h113l-21 39h-92v58h59l-93 171h100l55 -113c15 -31 37 -77 36 -77c2 -1 20 40 37 76l56 114h97l-94 -171h60v-58h-92l-12 -23l-8 -16h112v-59z" />
    <glyph glyph-name="sterling.sups" horiz-adv-x="381" 
d="M272 555h-83c0 -6 1 -12 1 -18c-2 -36 -16 -63 -36 -79h205v-77h-309v60c41 20 52 53 52 87c0 9 0 18 -2 27h-70v66h54c-6 21 -11 41 -11 66c0 87 71 128 147 128c68 0 126 -38 152 -102l-81 -48c-5 47 -29 77 -70 77c-34 0 -59 -21 -59 -61c0 -21 6 -41 12 -60h118z" />
    <glyph glyph-name="uni207A" unicode="&#x207a;" horiz-adv-x="391" 
d="M156 411v135h-128v75h128v132h80v-132h128v-75h-128v-135h-80z" />
    <glyph glyph-name="uni207B" unicode="&#x207b;" horiz-adv-x="391" 
d="M354 545h-316v77h316v-77z" />
    <glyph glyph-name="multiply.sups" horiz-adv-x="391" 
d="M88 426l-56 52l111 103l-109 104l56 51l106 -103l106 103l56 -51l-110 -104l112 -103l-56 -52l-108 104z" />
    <glyph glyph-name="divide.sups" horiz-adv-x="391" 
d="M354 546h-316v75h316v-75zM196 509c30 0 53 -21 53 -52c0 -30 -23 -51 -53 -51c-29 0 -53 21 -53 51c0 31 24 52 53 52zM196 760c30 0 53 -20 53 -51c0 -30 -23 -51 -53 -51c-29 0 -53 21 -53 51c0 31 24 51 53 51z" />
    <glyph glyph-name="uni207C" unicode="&#x207c;" horiz-adv-x="391" 
d="M352 484h-313v71h313v-71zM352 608h-313v72h313v-72z" />
    <glyph glyph-name="period.sups" horiz-adv-x="187" 
d="M94 480c30 0 55 -22 55 -53c0 -32 -25 -53 -55 -53c-31 0 -56 21 -56 53c0 31 25 53 56 53z" />
    <glyph glyph-name="comma.sups" horiz-adv-x="187" 
d="M88 480c36 0 61 -27 61 -74c0 -55 -26 -98 -61 -120l-49 30c23 12 56 32 61 70c-3 -1 -7 -1 -11 -1c-28 0 -51 19 -51 47s22 48 50 48z" />
    <glyph glyph-name="hyphen.sups" horiz-adv-x="230" 
d="M201 529h-172v73h172v-73z" />
    <glyph glyph-name="uni207D" unicode="&#x207d;" horiz-adv-x="234" 
d="M51 571c0 128 53 232 107 286l68 -34c-49 -59 -86 -142 -86 -252c0 -109 37 -196 86 -255l-68 -34c-54 54 -107 162 -107 289z" />
    <glyph glyph-name="uni207E" unicode="&#x207e;" horiz-adv-x="234" 
d="M183 571c0 -127 -52 -235 -106 -289l-68 34c48 59 85 146 85 255c0 110 -37 193 -85 252l68 34c54 -54 106 -158 106 -286z" />
    <glyph glyph-name="fraction" unicode="&#x2044;" horiz-adv-x="209" 
d="M-172 31l483 675l70 -45l-483 -676z" />
    <glyph glyph-name="percent" unicode="%" horiz-adv-x="879" 
d="M384 516c0 -110 -71 -187 -174 -187c-102 0 -173 77 -173 187s71 188 173 188c103 0 174 -78 174 -188zM842 176c0 -110 -71 -188 -173 -188s-174 78 -174 188s72 187 174 187s173 -77 173 -187zM163 31l482 675l71 -45l-483 -676zM210 628c-57 0 -82 -50 -82 -112
c0 -61 25 -111 82 -111c58 0 82 50 82 111c0 62 -24 112 -82 112zM669 287c-57 0 -82 -50 -82 -111c0 -62 25 -112 82 -112s82 50 82 112c0 61 -25 111 -82 111z" />
    <glyph glyph-name="perthousand" unicode="&#x2030;" horiz-adv-x="1276" 
d="M1240 176c0 -110 -71 -188 -174 -188c-102 0 -173 78 -173 188s71 187 173 187c103 0 174 -77 174 -187zM384 516c0 -110 -71 -187 -174 -187c-102 0 -173 77 -173 187s71 188 173 188c103 0 174 -78 174 -188zM842 176c0 -110 -71 -188 -173 -188s-174 78 -174 188
s72 187 174 187s173 -77 173 -187zM163 31l482 675l71 -45l-483 -676zM210 628c-57 0 -82 -50 -82 -112c0 -61 25 -111 82 -111c58 0 82 50 82 111c0 62 -24 112 -82 112zM1066 287c-57 0 -82 -50 -82 -111c0 -62 25 -112 82 -112c58 0 82 50 82 112c0 61 -24 111 -82 111z
M669 287c-57 0 -82 -50 -82 -111c0 -62 25 -112 82 -112s82 50 82 112c0 61 -25 111 -82 111z" />
    <glyph glyph-name="onehalf" unicode="&#xbd;" horiz-adv-x="854" 
d="M115 31l483 675l70 -45l-483 -676zM133 597h-2c-16 -18 -47 -37 -74 -44l-37 76c53 12 104 40 132 75h68v-427h-90v255c0 30 3 65 3 65zM613 218l-91 41s-7 18 -7 41c0 84 69 134 154 134c83 0 148 -50 148 -131c0 -126 -162 -186 -179 -223v-2h179v-78h-289s-2 10 -2 22
c0 124 201 175 201 276c0 36 -23 61 -60 61c-41 0 -65 -30 -65 -77c0 -28 7 -50 11 -64z" />
    <glyph glyph-name="onethird" unicode="&#x2153;" horiz-adv-x="887" 
d="M115 31l483 675l70 -45l-483 -676zM133 597h-2c-16 -18 -47 -37 -74 -44l-37 76c53 12 104 40 132 75h68v-427h-90v255c0 30 3 65 3 65zM694 -7c-83 0 -142 44 -159 101l85 46c6 -41 29 -72 73 -72c42 0 67 30 67 70c0 41 -27 69 -70 69c-30 0 -51 -13 -70 -25l-31 73
l120 95h-157v77h284v-63l-83 -64c-23 -18 -60 -37 -60 -37l1 -3s12 3 22 3c74 0 133 -49 133 -128c0 -84 -66 -142 -155 -142z" />
    <glyph glyph-name="twothirds" unicode="&#x2154;" horiz-adv-x="984" 
d="M213 31l483 675l70 -45l-483 -676zM134 495l-91 41s-7 18 -7 41c0 84 69 134 154 134c83 0 148 -50 148 -131c0 -126 -162 -186 -179 -223v-2h179v-78h-289s-2 10 -2 22c0 124 201 175 201 276c0 36 -23 61 -60 61c-41 0 -65 -30 -65 -77c0 -28 7 -50 11 -64zM791 -7
c-83 0 -142 44 -159 101l85 46c6 -41 29 -72 73 -72c42 0 67 30 67 70c0 41 -27 69 -70 69c-30 0 -51 -13 -70 -25l-31 73l120 95h-157v77h284v-63l-83 -64c-23 -18 -60 -37 -60 -37l1 -3s12 3 22 3c74 0 133 -49 133 -128c0 -84 -66 -142 -155 -142z" />
    <glyph glyph-name="onequarter" unicode="&#xbc;" horiz-adv-x="864" 
d="M115 31l483 675l70 -45l-483 -676zM133 597h-2c-16 -18 -47 -37 -74 -44l-37 76c53 12 104 40 132 75h68v-427h-90v255c0 30 3 65 3 65zM695 108h-176l-21 53c47 76 76 158 79 273l85 -41c-5 -93 -40 -158 -73 -210h106v244h88v-244h52v-75h-52v-108h-88v108z" />
    <glyph glyph-name="threequarters" unicode="&#xbe;" horiz-adv-x="945" 
d="M196 31l483 675l70 -45l-483 -676zM777 108h-176l-21 53c47 76 76 158 79 273l85 -41c-5 -93 -40 -158 -73 -210h106v244h88v-244h52v-75h-52v-108h-88v108zM188 270c-83 0 -142 44 -159 101l85 46c6 -41 29 -72 73 -72c42 0 67 30 67 70c0 41 -27 69 -70 69
c-30 0 -51 -13 -70 -25l-31 73l120 95h-157v77h284v-63l-83 -64c-23 -18 -60 -37 -60 -37l1 -3s12 3 22 3c74 0 133 -49 133 -128c0 -84 -66 -142 -155 -142z" />
    <glyph glyph-name="uni2155" unicode="&#x2155;" horiz-adv-x="869" 
d="M115 31l483 675l70 -45l-483 -676zM133 597h-2c-16 -18 -47 -37 -74 -44l-37 76c53 12 104 40 132 75h68v-427h-90v255c0 30 3 65 3 65zM678 -7c-84 0 -141 44 -157 101l85 46c5 -40 26 -72 71 -72c44 0 68 37 68 81s-26 77 -68 77c-36 0 -57 -23 -65 -49l-79 35l28 215
h244v-77h-171l-6 -43c-4 -26 -10 -50 -10 -50l1 -1c16 19 44 36 83 36c71 0 131 -54 131 -143c0 -94 -65 -156 -155 -156z" />
    <glyph glyph-name="uni2156" unicode="&#x2156;" horiz-adv-x="968" 
d="M213 31l483 675l70 -45l-483 -676zM134 495l-91 41s-7 18 -7 41c0 84 69 134 154 134c83 0 148 -50 148 -131c0 -126 -162 -186 -179 -223v-2h179v-78h-289s-2 10 -2 22c0 124 201 175 201 276c0 36 -23 61 -60 61c-41 0 -65 -30 -65 -77c0 -28 7 -50 11 -64zM776 -7
c-84 0 -141 44 -157 101l85 46c5 -40 26 -72 71 -72c44 0 68 37 68 81s-26 77 -68 77c-36 0 -57 -23 -65 -49l-79 35l28 215h244v-77h-171l-6 -43c-4 -26 -10 -50 -10 -50l1 -1c16 19 44 36 83 36c71 0 131 -54 131 -143c0 -94 -65 -156 -155 -156z" />
    <glyph glyph-name="uni2157" unicode="&#x2157;" horiz-adv-x="953" 
d="M196 31l483 675l70 -45l-483 -676zM761 -7c-84 0 -141 44 -157 101l85 46c5 -40 26 -72 71 -72c44 0 68 37 68 81s-26 77 -68 77c-36 0 -57 -23 -65 -49l-79 35l28 215h244v-77h-171l-6 -43c-4 -26 -10 -50 -10 -50l1 -1c16 19 44 36 83 36c71 0 131 -54 131 -143
c0 -94 -65 -156 -155 -156zM188 270c-83 0 -142 44 -159 101l85 46c6 -41 29 -72 73 -72c42 0 67 30 67 70c0 41 -27 69 -70 69c-30 0 -51 -13 -70 -25l-31 73l120 95h-157v77h284v-63l-83 -64c-23 -18 -60 -37 -60 -37l1 -3s12 3 22 3c74 0 133 -49 133 -128
c0 -84 -66 -142 -155 -142z" />
    <glyph glyph-name="uni2158" unicode="&#x2158;" horiz-adv-x="972" 
d="M218 31l483 675l70 -45l-483 -676zM780 -7c-84 0 -141 44 -157 101l85 46c5 -40 26 -72 71 -72c44 0 68 37 68 81s-26 77 -68 77c-36 0 -57 -23 -65 -49l-79 35l28 215h244v-77h-171l-6 -43c-4 -26 -10 -50 -10 -50l1 -1c16 19 44 36 83 36c71 0 131 -54 131 -143
c0 -94 -65 -156 -155 -156zM227 385h-176l-21 53c47 76 76 158 79 273l85 -41c-5 -93 -40 -158 -73 -210h106v244h88v-244h52v-75h-52v-108h-88v108z" />
    <glyph glyph-name="uni2159" unicode="&#x2159;" horiz-adv-x="864" 
d="M115 31l483 675l70 -45l-483 -676zM133 597h-2c-16 -18 -47 -37 -74 -44l-37 76c53 12 104 40 132 75h68v-427h-90v255c0 30 3 65 3 65zM673 434c64 0 115 -35 139 -82l-81 -46c-4 30 -23 55 -58 55c-52 0 -85 -51 -93 -123h2c20 29 57 49 97 49c70 0 137 -52 137 -141
c0 -90 -67 -153 -157 -153c-103 0 -164 71 -164 205c0 139 63 236 178 236zM730 143c0 44 -26 78 -71 78c-46 0 -73 -34 -73 -78c0 -45 28 -79 73 -79c46 0 71 34 71 79z" />
    <glyph glyph-name="uni215A" unicode="&#x215a;" horiz-adv-x="946" 
d="M196 31l483 675l70 -45l-483 -676zM755 434c64 0 115 -35 139 -82l-81 -46c-4 30 -23 55 -58 55c-52 0 -85 -51 -93 -123h2c20 29 57 49 97 49c70 0 137 -52 137 -141c0 -90 -67 -153 -157 -153c-103 0 -164 71 -164 205c0 139 63 236 178 236zM812 143
c0 44 -26 78 -71 78c-46 0 -73 -34 -73 -78c0 -45 28 -79 73 -79c46 0 71 34 71 79zM189 270c-84 0 -141 44 -157 101l85 46c5 -40 26 -72 71 -72c44 0 68 37 68 81s-26 77 -68 77c-36 0 -57 -23 -65 -49l-79 35l28 215h244v-77h-171l-6 -43c-4 -26 -10 -50 -10 -50l1 -1
c16 19 44 36 83 36c71 0 131 -54 131 -143c0 -94 -65 -156 -155 -156z" />
    <glyph glyph-name="oneeighth" unicode="&#x215b;" horiz-adv-x="884" 
d="M115 31l483 675l70 -45l-483 -676zM133 597h-2c-16 -18 -47 -37 -74 -44l-37 76c53 12 104 40 132 75h68v-427h-90v255c0 30 3 65 3 65zM680 -7c-92 0 -166 48 -166 127c0 68 55 97 90 108v2c-34 12 -73 38 -73 91c0 69 64 113 149 113s149 -44 149 -113
c0 -53 -40 -79 -73 -91v-2c34 -11 89 -40 89 -108c0 -79 -73 -127 -165 -127zM602 126c0 -40 36 -62 78 -62s77 22 77 62c0 41 -35 62 -77 62s-78 -21 -78 -62zM612 311c0 -32 31 -52 68 -52s67 20 67 52c0 33 -30 52 -67 52s-68 -19 -68 -52z" />
    <glyph glyph-name="threeeighths" unicode="&#x215c;" horiz-adv-x="966" 
d="M196 31l483 675l70 -45l-483 -676zM762 -7c-92 0 -166 48 -166 127c0 68 55 97 90 108v2c-34 12 -73 38 -73 91c0 69 64 113 149 113s149 -44 149 -113c0 -53 -40 -79 -73 -91v-2c34 -11 89 -40 89 -108c0 -79 -73 -127 -165 -127zM684 126c0 -40 36 -62 78 -62
s77 22 77 62c0 41 -35 62 -77 62s-78 -21 -78 -62zM694 311c0 -32 31 -52 68 -52s67 20 67 52c0 33 -30 52 -67 52s-68 -19 -68 -52zM188 270c-83 0 -142 44 -159 101l85 46c6 -41 29 -72 73 -72c42 0 67 30 67 70c0 41 -27 69 -70 69c-30 0 -51 -13 -70 -25l-31 73l120 95
h-157v77h284v-63l-83 -64c-23 -18 -60 -37 -60 -37l1 -3s12 3 22 3c74 0 133 -49 133 -128c0 -84 -66 -142 -155 -142z" />
    <glyph glyph-name="fiveeighths" unicode="&#x215d;" horiz-adv-x="965" 
d="M196 31l483 675l70 -45l-483 -676zM189 270c-84 0 -141 44 -157 101l85 46c5 -40 26 -72 71 -72c44 0 68 37 68 81s-26 77 -68 77c-36 0 -57 -23 -65 -49l-79 35l28 215h244v-77h-171l-6 -43c-4 -26 -10 -50 -10 -50l1 -1c16 19 44 36 83 36c71 0 131 -54 131 -143
c0 -94 -65 -156 -155 -156zM762 -7c-92 0 -166 48 -166 127c0 68 55 97 90 108v2c-34 12 -73 38 -73 91c0 69 64 113 149 113s149 -44 149 -113c0 -53 -40 -79 -73 -91v-2c34 -11 89 -40 89 -108c0 -79 -73 -127 -165 -127zM684 126c0 -40 36 -62 78 -62s77 22 77 62
c0 41 -35 62 -77 62s-78 -21 -78 -62zM694 311c0 -32 31 -52 68 -52s67 20 67 52c0 33 -30 52 -67 52s-68 -19 -68 -52z" />
    <glyph glyph-name="seveneighths" unicode="&#x215e;" horiz-adv-x="917" 
d="M146 31l483 675l70 -45l-483 -676zM713 -7c-92 0 -166 48 -166 127c0 68 55 97 90 108v2c-34 12 -73 38 -73 91c0 69 64 113 149 113s149 -44 149 -113c0 -53 -40 -79 -73 -91v-2c34 -11 89 -40 89 -108c0 -79 -73 -127 -165 -127zM635 126c0 -40 36 -62 78 -62
s77 22 77 62c0 41 -35 62 -77 62s-78 -21 -78 -62zM645 311c0 -32 31 -52 68 -52s67 20 67 52c0 33 -30 52 -67 52s-68 -19 -68 -52zM338 704v-54c-66 -122 -104 -245 -120 -373h-101c16 126 72 257 123 349h-131v-98l-85 42v134h314z" />
    <glyph glyph-name="uni03A9" unicode="&#x3a9;" horiz-adv-x="726" 
d="M319 86v-86h-265v97h58c36 0 78 -5 78 -5c-80 60 -142 160 -142 282c0 213 140 330 315 330s315 -117 315 -330c0 -122 -62 -222 -142 -282c0 0 42 5 78 5h59v-97h-266v86c82 48 153 150 153 281c0 134 -65 234 -197 234s-197 -100 -197 -234c0 -131 71 -233 153 -281z
" />
    <glyph glyph-name="uni0394" unicode="&#x394;" horiz-adv-x="643" 
d="M21 0v74l233 618h133l235 -618v-74h-601zM288 481l-140 -381h343l-139 381c-13 37 -31 97 -31 97h-2s-18 -60 -31 -97z" />
    <glyph glyph-name="uni03BC" unicode="&#x3bc;" horiz-adv-x="550" 
d="M65 -196v700h111v-298c0 -84 29 -122 92 -122c67 0 105 54 105 123v297h111v-504h-111l7 86h-3c-22 -45 -64 -98 -150 -98c-21 0 -41 5 -58 12c2 -24 5 -78 5 -134v-62h-109z" />
    <glyph glyph-name="uni00AD" unicode="&#xad;" horiz-adv-x="339" 
d="M302 258h-265v93h265v-93z" />
    <glyph glyph-name="uni2219" unicode="&#x2219;" horiz-adv-x="271" 
d="M73 276v128h128v-128h-128z" />
    <glyph glyph-name="uni02C9" unicode="&#x2c9;" horiz-adv-x="547" 
d="M143 593v90h262v-90h-262z" />
    <glyph glyph-name="uni2215" unicode="&#x2215;" horiz-adv-x="209" 
d="M-163 31l483 675l70 -45l-483 -676z" />
    <glyph glyph-name="AEacute" unicode="&#x1fc;" horiz-adv-x="898" 
d="M446 0v177h-230l-98 -177h-125l392 692h467v-99h-294v-190h276v-97h-276v-207h302v-99h-414zM404 514l-135 -242h177v321h-3s-18 -42 -39 -79zM491 734l-49 42c49 40 107 104 138 159l83 -72c-45 -56 -114 -101 -172 -129z" />
    <glyph glyph-name="Agrave" unicode="&#xc0;" horiz-adv-x="651" 
d="M523 0l-62 178h-274l-62 -178h-116l248 692h137l249 -692h-120zM293 484l-73 -209h208l-72 209c-13 37 -30 98 -30 98h-3s-17 -61 -30 -98zM383 776l-49 -42c-57 28 -126 73 -172 129l83 72c31 -55 89 -119 138 -159z" />
    <glyph glyph-name="Aacute" unicode="&#xc1;" horiz-adv-x="651" 
d="M523 0l-62 178h-274l-62 -178h-116l248 692h137l249 -692h-120zM293 484l-73 -209h208l-72 209c-13 37 -30 98 -30 98h-3s-17 -61 -30 -98zM315 734l-49 42c49 40 107 104 138 159l83 -72c-45 -56 -114 -101 -172 -129z" />
    <glyph glyph-name="Adieresis" unicode="&#xc4;" horiz-adv-x="651" 
d="M523 0l-62 178h-274l-62 -178h-116l248 692h137l249 -692h-120zM293 484l-73 -209h208l-72 209c-13 37 -30 98 -30 98h-3s-17 -61 -30 -98zM231 888c38 0 66 -27 66 -65c0 -39 -28 -66 -66 -66c-39 0 -66 27 -66 66c0 38 27 65 66 65zM419 888c38 0 66 -27 66 -65
c0 -39 -28 -66 -66 -66c-39 0 -66 27 -66 66c0 38 27 65 66 65z" />
    <glyph glyph-name="Acircumflex" unicode="&#xc2;" horiz-adv-x="651" 
d="M523 0l-62 178h-274l-62 -178h-116l248 692h137l249 -692h-120zM293 484l-73 -209h208l-72 209c-13 37 -30 98 -30 98h-3s-17 -61 -30 -98zM326 815h-3c-28 -33 -66 -65 -109 -86l-58 72c59 27 95 50 131 93h75c36 -43 72 -66 131 -93l-58 -72c-43 21 -81 53 -109 86z
" />
    <glyph glyph-name="Amacron" unicode="&#x100;" horiz-adv-x="651" 
d="M523 0l-62 178h-274l-62 -178h-116l248 692h137l249 -692h-120zM293 484l-73 -209h208l-72 209c-13 37 -30 98 -30 98h-3s-17 -61 -30 -98zM194 773v90h262v-90h-262z" />
    <glyph glyph-name="Atilde" unicode="&#xc3;" horiz-adv-x="651" 
d="M523 0l-62 178h-274l-62 -178h-116l248 692h137l249 -692h-120zM293 484l-73 -209h208l-72 209c-13 37 -30 98 -30 98h-3s-17 -61 -30 -98zM395 750c-64 0 -94 53 -129 53c-24 0 -31 -25 -33 -52l-74 41c7 52 43 98 96 98c64 0 94 -53 129 -53c24 0 31 25 33 52l74 -42
c-7 -51 -43 -97 -96 -97z" />
    <glyph glyph-name="Aring" unicode="&#xc5;" horiz-adv-x="651" 
d="M523 0l-62 178h-274l-62 -178h-116l248 692h137l249 -692h-120zM293 484l-73 -209h208l-72 209c-13 37 -30 98 -30 98h-3s-17 -61 -30 -98zM325 888c-27 0 -46 -20 -46 -47c0 -28 19 -48 46 -48s45 21 45 48s-18 47 -45 47zM325 949c60 0 114 -43 114 -108
c0 -66 -54 -108 -114 -108c-61 0 -115 42 -115 108c0 65 54 108 115 108z" />
    <glyph glyph-name="Abreve" unicode="&#x102;" horiz-adv-x="651" 
d="M523 0l-62 178h-274l-62 -178h-116l248 692h137l249 -692h-120zM293 484l-73 -209h208l-72 209c-13 37 -30 98 -30 98h-3s-17 -61 -30 -98zM325 739c-75 0 -138 42 -148 123l87 29v-7c0 -40 19 -68 61 -68c41 0 60 28 60 68v7l88 -29c-11 -81 -74 -123 -148 -123z" />
    <glyph glyph-name="Aogonek" unicode="&#x104;" horiz-adv-x="652" 
d="M614 -94l74 -48c-25 -36 -69 -66 -127 -66c-66 0 -109 38 -109 92c0 45 30 79 59 105l13 11l-62 178h-275l-61 -178h-117l248 692h137l249 -692c-43 -18 -109 -60 -109 -103c0 -20 13 -33 34 -33c24 0 40 20 46 42zM293 485l-73 -211h209l-73 211c-13 37 -30 98 -30 98
h-2s-18 -61 -31 -98z" />
    <glyph glyph-name="Cacute" unicode="&#x106;" horiz-adv-x="663" 
d="M352 -12c-172 0 -311 136 -311 360c0 223 139 356 311 356c153 0 262 -111 280 -223l-109 -68c-5 104 -60 188 -171 188c-129 0 -193 -111 -193 -253s64 -257 193 -257c111 0 166 88 171 192l109 -68c-18 -112 -127 -227 -280 -227zM342 734l-49 42
c49 40 107 104 138 159l83 -72c-45 -56 -114 -101 -172 -129z" />
    <glyph glyph-name="Cdotaccent" unicode="&#x10a;" horiz-adv-x="663" 
d="M352 -12c-172 0 -311 136 -311 360c0 223 139 356 311 356c153 0 262 -111 280 -223l-109 -68c-5 104 -60 188 -171 188c-129 0 -193 -111 -193 -253s64 -257 193 -257c111 0 166 88 171 192l109 -68c-18 -112 -127 -227 -280 -227zM352 892c39 0 69 -28 69 -67
c0 -40 -30 -68 -69 -68c-40 0 -70 28 -70 68c0 39 30 67 70 67z" />
    <glyph glyph-name="Ccircumflex" unicode="&#x108;" horiz-adv-x="663" 
d="M352 -12c-172 0 -311 136 -311 360c0 223 139 356 311 356c153 0 262 -111 280 -223l-109 -68c-5 104 -60 188 -171 188c-129 0 -193 -111 -193 -253s64 -257 193 -257c111 0 166 88 171 192l109 -68c-18 -112 -127 -227 -280 -227zM353 815h-3c-28 -33 -66 -65 -109 -86
l-58 72c59 27 95 50 131 93h75c36 -43 72 -66 131 -93l-58 -72c-43 21 -81 53 -109 86z" />
    <glyph glyph-name="Ccaron" unicode="&#x10c;" horiz-adv-x="663" 
d="M352 -12c-172 0 -311 136 -311 360c0 223 139 356 311 356c153 0 262 -111 280 -223l-109 -68c-5 104 -60 188 -171 188c-129 0 -193 -111 -193 -253s64 -257 193 -257c111 0 166 88 171 192l109 -68c-18 -112 -127 -227 -280 -227zM350 820h3c28 33 66 66 109 86l58 -71
c-59 -28 -95 -49 -131 -93h-75c-36 44 -72 65 -131 93l58 71c43 -20 81 -53 109 -86z" />
    <glyph glyph-name="Ccedilla" unicode="&#xc7;" horiz-adv-x="663" 
d="M632 215c-17 -104 -113 -211 -249 -225l-7 -26c47 -5 89 -35 89 -84c0 -56 -53 -88 -109 -88c-51 0 -90 22 -113 55l63 43c10 -26 27 -41 51 -41c20 0 36 12 36 32s-16 33 -36 33c-15 0 -25 -9 -25 -9l-43 37l26 49c-154 17 -274 149 -274 357c0 223 139 356 311 356
c153 0 262 -111 280 -223l-109 -68c-5 104 -60 188 -171 188c-129 0 -193 -111 -193 -253s64 -257 193 -257c111 0 166 88 171 192z" />
    <glyph glyph-name="Dcaron" unicode="&#x10e;" horiz-adv-x="693" 
d="M72 692h245c197 0 334 -123 334 -344s-137 -348 -334 -348h-245v692zM533 348c0 136 -68 242 -200 242h-145v-488h145c132 0 200 106 200 246zM328 820h3c28 33 66 66 109 86l58 -71c-59 -28 -95 -49 -131 -93h-75c-36 44 -72 65 -131 93l58 71c43 -20 81 -53 109 -86z
" />
    <glyph glyph-name="Egrave" unicode="&#xc8;" horiz-adv-x="571" 
d="M72 0v692h452v-102h-337v-185h320v-101h-320v-202h345v-102h-460zM359 776l-49 -42c-57 28 -126 73 -172 129l83 72c31 -55 89 -119 138 -159z" />
    <glyph glyph-name="Eacute" unicode="&#xc9;" horiz-adv-x="571" 
d="M72 0v692h452v-102h-337v-185h320v-101h-320v-202h345v-102h-460zM291 734l-49 42c49 40 107 104 138 159l83 -72c-45 -56 -114 -101 -172 -129z" />
    <glyph glyph-name="Edotaccent" unicode="&#x116;" horiz-adv-x="571" 
d="M72 0v692h452v-102h-337v-185h320v-101h-320v-202h345v-102h-460zM301 892c39 0 69 -28 69 -67c0 -40 -30 -68 -69 -68c-40 0 -70 28 -70 68c0 39 30 67 70 67z" />
    <glyph glyph-name="Edieresis" unicode="&#xcb;" horiz-adv-x="571" 
d="M72 0v692h452v-102h-337v-185h320v-101h-320v-202h345v-102h-460zM207 888c38 0 66 -27 66 -65c0 -39 -28 -66 -66 -66c-39 0 -66 27 -66 66c0 38 27 65 66 65zM395 888c38 0 66 -27 66 -65c0 -39 -28 -66 -66 -66c-39 0 -66 27 -66 66c0 38 27 65 66 65z" />
    <glyph glyph-name="Ecircumflex" unicode="&#xca;" horiz-adv-x="571" 
d="M72 0v692h452v-102h-337v-185h320v-101h-320v-202h345v-102h-460zM302 815h-3c-28 -33 -66 -65 -109 -86l-58 72c59 27 95 50 131 93h75c36 -43 72 -66 131 -93l-58 -72c-43 21 -81 53 -109 86z" />
    <glyph glyph-name="Ecaron" unicode="&#x11a;" horiz-adv-x="571" 
d="M72 0v692h452v-102h-337v-185h320v-101h-320v-202h345v-102h-460zM299 820h3c28 33 66 66 109 86l58 -71c-59 -28 -95 -49 -131 -93h-75c-36 44 -72 65 -131 93l58 71c43 -20 81 -53 109 -86z" />
    <glyph glyph-name="Emacron" unicode="&#x112;" horiz-adv-x="571" 
d="M72 0v692h452v-102h-337v-185h320v-101h-320v-202h345v-102h-460zM170 773v90h262v-90h-262z" />
    <glyph glyph-name="Ebreve" unicode="&#x114;" horiz-adv-x="571" 
d="M72 0v692h452v-102h-337v-185h320v-101h-320v-202h345v-102h-460zM301 739c-75 0 -138 42 -148 123l87 29v-7c0 -40 19 -68 61 -68c41 0 60 28 60 68v7l88 -29c-11 -81 -74 -123 -148 -123z" />
    <glyph glyph-name="Eogonek" unicode="&#x118;" horiz-adv-x="571" 
d="M72 0v692h452v-102h-337v-185h320v-101h-320v-202h345v-102l-42 -31c-27 -20 -55 -47 -55 -72c0 -20 13 -33 34 -33c24 0 40 20 47 42l73 -48c-24 -36 -69 -66 -127 -66c-65 0 -109 38 -109 92c0 45 36 79 67 104l14 12h-362z" />
    <glyph glyph-name="Gdotaccent" unicode="&#x120;" horiz-adv-x="699" 
d="M359 601c-132 0 -200 -111 -200 -253s61 -258 195 -258c106 0 169 79 169 184v11h-222v100h334v-385h-109l10 102h-3c-33 -59 -96 -114 -199 -114c-167 0 -293 136 -293 360s142 356 318 356c146 0 248 -84 284 -192l-109 -68c-12 86 -72 157 -175 157zM359 892
c39 0 69 -28 69 -67c0 -40 -30 -68 -69 -68c-40 0 -70 28 -70 68c0 39 30 67 70 67z" />
    <glyph glyph-name="Gcircumflex" unicode="&#x11c;" horiz-adv-x="699" 
d="M359 601c-132 0 -200 -111 -200 -253s61 -258 195 -258c106 0 169 79 169 184v11h-222v100h334v-385h-109l10 102h-3c-33 -59 -96 -114 -199 -114c-167 0 -293 136 -293 360s142 356 318 356c146 0 248 -84 284 -192l-109 -68c-12 86 -72 157 -175 157zM360 815h-3
c-28 -33 -66 -65 -109 -86l-58 72c59 27 95 50 131 93h75c36 -43 72 -66 131 -93l-58 -72c-43 21 -81 53 -109 86z" />
    <glyph glyph-name="Gbreve" unicode="&#x11e;" horiz-adv-x="699" 
d="M359 601c-132 0 -200 -111 -200 -253s61 -258 195 -258c106 0 169 79 169 184v11h-222v100h334v-385h-109l10 102h-3c-33 -59 -96 -114 -199 -114c-167 0 -293 136 -293 360s142 356 318 356c146 0 248 -84 284 -192l-109 -68c-12 86 -72 157 -175 157zM359 739
c-75 0 -138 42 -148 123l87 29v-7c0 -40 19 -68 61 -68c41 0 60 28 60 68v7l88 -29c-11 -81 -74 -123 -148 -123z" />
    <glyph glyph-name="uni0122" unicode="&#x122;" horiz-adv-x="699" 
d="M359 601c-132 0 -200 -111 -200 -253s61 -258 195 -258c106 0 169 79 169 184v11h-222v100h334v-385h-109l10 102h-3c-33 -59 -96 -114 -199 -114c-167 0 -293 136 -293 360s142 356 318 356c146 0 248 -84 284 -192l-109 -68c-12 86 -72 157 -175 157zM285 -215
c29 8 67 23 73 63c-3 -1 -7 -1 -10 -1c-30 0 -54 19 -54 50c0 34 24 51 56 51c38 0 66 -31 66 -81c0 -55 -25 -100 -64 -122z" />
    <glyph glyph-name="Hcircumflex" unicode="&#x124;" horiz-adv-x="692" 
d="M504 0v303h-316v-303h-116v692h116v-286h316v286h115v-692h-115zM347 815h-3c-28 -33 -66 -65 -109 -86l-58 72c59 27 95 50 131 93h75c36 -43 72 -66 131 -93l-58 -72c-43 21 -81 53 -109 86z" />
    <glyph glyph-name="Igrave" unicode="&#xcc;" horiz-adv-x="262" 
d="M72 0v692h118v-692h-118zM189 776l-49 -42c-57 28 -126 73 -172 129l83 72c31 -55 89 -119 138 -159z" />
    <glyph glyph-name="Iacute" unicode="&#xcd;" horiz-adv-x="262" 
d="M72 0v692h118v-692h-118zM121 734l-49 42c49 40 107 104 138 159l83 -72c-45 -56 -114 -101 -172 -129z" />
    <glyph glyph-name="Idotaccent" unicode="&#x130;" horiz-adv-x="262" 
d="M72 0v692h118v-692h-118zM131 892c39 0 69 -28 69 -67c0 -40 -30 -68 -69 -68c-40 0 -70 28 -70 68c0 39 30 67 70 67z" />
    <glyph glyph-name="Idieresis" unicode="&#xcf;" horiz-adv-x="262" 
d="M72 0v692h118v-692h-118zM37 888c38 0 66 -27 66 -65c0 -39 -28 -66 -66 -66c-39 0 -66 27 -66 66c0 38 27 65 66 65zM225 888c38 0 66 -27 66 -65c0 -39 -28 -66 -66 -66c-39 0 -66 27 -66 66c0 38 27 65 66 65z" />
    <glyph glyph-name="Icircumflex" unicode="&#xce;" horiz-adv-x="262" 
d="M72 0v692h118v-692h-118zM132 815h-3c-28 -33 -66 -65 -109 -86l-58 72c59 27 95 50 131 93h75c36 -43 72 -66 131 -93l-58 -72c-43 21 -81 53 -109 86z" />
    <glyph glyph-name="Imacron" unicode="&#x12a;" horiz-adv-x="262" 
d="M72 0v692h118v-692h-118zM0 773v90h262v-90h-262z" />
    <glyph glyph-name="Itilde" unicode="&#x128;" horiz-adv-x="262" 
d="M72 0v692h118v-692h-118zM201 750c-64 0 -94 53 -129 53c-24 0 -31 -25 -33 -52l-74 41c7 52 43 98 96 98c64 0 94 -53 129 -53c24 0 31 25 33 52l74 -42c-7 -51 -43 -97 -96 -97z" />
    <glyph glyph-name="Ibreve" unicode="&#x12c;" horiz-adv-x="262" 
d="M72 0v692h118v-692h-118zM131 739c-75 0 -138 42 -148 123l87 29v-7c0 -40 19 -68 61 -68c41 0 60 28 60 68v7l88 -29c-11 -81 -74 -123 -148 -123z" />
    <glyph glyph-name="Iogonek" unicode="&#x12e;" horiz-adv-x="262" 
d="M162 -94l73 -48c-24 -36 -69 -66 -127 -66c-65 0 -109 38 -109 92c0 45 35 80 64 107l9 8v693h118v-692c-43 -18 -109 -60 -109 -103c0 -20 13 -33 34 -33c24 0 40 20 47 42z" />
    <glyph glyph-name="Jcircumflex" unicode="&#x134;" horiz-adv-x="555" 
d="M374 692h116v-425c0 -189 -80 -279 -226 -279c-147 0 -227 97 -227 238c0 16 1 26 2 38l118 71s-7 -54 -7 -88c0 -94 35 -156 114 -156s110 60 110 165v436zM434 815h-3c-28 -33 -66 -65 -109 -86l-58 72c59 27 95 50 131 93h75c36 -43 72 -66 131 -93l-58 -72
c-43 21 -81 53 -109 86z" />
    <glyph glyph-name="uni0136" unicode="&#x136;" horiz-adv-x="631" 
d="M72 0v692h114v-229c0 -66 -3 -130 -3 -130h3s34 56 84 118l195 241h137l-222 -268l256 -424h-130l-202 333l-118 -145v-188h-114zM277 -215c29 8 67 23 73 63c-3 -1 -7 -1 -10 -1c-30 0 -54 19 -54 50c0 34 24 51 56 51c38 0 66 -31 66 -81c0 -55 -25 -100 -64 -122z" />
    <glyph glyph-name="Lacute" unicode="&#x139;" horiz-adv-x="519" 
d="M72 0v692h116v-588h318v-104h-434zM120 734l-49 42c49 40 107 104 138 159l83 -72c-45 -56 -114 -101 -172 -129z" />
    <glyph glyph-name="uni013B" unicode="&#x13b;" horiz-adv-x="519" 
d="M72 0v692h116v-588h318v-104h-434zM222 -215c29 8 67 23 73 63c-3 -1 -7 -1 -10 -1c-30 0 -54 19 -54 50c0 34 24 51 56 51c38 0 66 -31 66 -81c0 -55 -25 -100 -64 -122z" />
    <glyph glyph-name="Nacute" unicode="&#x143;" horiz-adv-x="702" 
d="M630 0h-160l-229 436c-25 47 -60 129 -60 129l-3 -1c0 -2 5 -73 5 -138v-426h-111v692h160l229 -436c24 -47 61 -129 61 -129h3c0 2 -5 74 -5 139v426h110v-692zM341 734l-49 42c49 40 107 104 138 159l83 -72c-45 -56 -114 -101 -172 -129z" />
    <glyph glyph-name="Ncaron" unicode="&#x147;" horiz-adv-x="702" 
d="M630 0h-160l-229 436c-25 47 -60 129 -60 129l-3 -1c0 -2 5 -73 5 -138v-426h-111v692h160l229 -436c24 -47 61 -129 61 -129h3c0 2 -5 74 -5 139v426h110v-692zM349 820h3c28 33 66 66 109 86l58 -71c-59 -28 -95 -49 -131 -93h-75c-36 44 -72 65 -131 93l58 71
c43 -20 81 -53 109 -86z" />
    <glyph glyph-name="Ntilde" unicode="&#xd1;" horiz-adv-x="702" 
d="M630 0h-160l-229 436c-25 47 -60 129 -60 129l-3 -1c0 -2 5 -73 5 -138v-426h-111v692h160l229 -436c24 -47 61 -129 61 -129h3c0 2 -5 74 -5 139v426h110v-692zM421 750c-64 0 -94 53 -129 53c-24 0 -31 -25 -33 -52l-74 41c7 52 43 98 96 98c64 0 94 -53 129 -53
c24 0 31 25 33 52l74 -42c-7 -51 -43 -97 -96 -97z" />
    <glyph glyph-name="uni0145" unicode="&#x145;" horiz-adv-x="702" 
d="M630 0h-160l-229 436c-25 47 -60 129 -60 129l-3 -1c0 -2 5 -73 5 -138v-426h-111v692h160l229 -436c24 -47 61 -129 61 -129h3c0 2 -5 74 -5 139v426h110v-692zM286 -215c29 8 67 23 73 63c-3 -1 -7 -1 -10 -1c-30 0 -54 19 -54 50c0 34 24 51 56 51c38 0 66 -31 66 -81
c0 -55 -25 -100 -64 -122z" />
    <glyph glyph-name="Ograve" unicode="&#xd2;" horiz-adv-x="715" 
d="M357 -12c-175 0 -316 136 -316 360s141 356 316 356c176 0 317 -132 317 -356s-141 -360 -317 -360zM556 348c0 142 -67 253 -199 253c-131 0 -198 -111 -198 -253s67 -257 198 -257c132 0 199 115 199 257zM416 776l-49 -42c-57 28 -126 73 -172 129l83 72
c31 -55 89 -119 138 -159z" />
    <glyph glyph-name="Oacute" unicode="&#xd3;" horiz-adv-x="715" 
d="M357 -12c-175 0 -316 136 -316 360s141 356 316 356c176 0 317 -132 317 -356s-141 -360 -317 -360zM556 348c0 142 -67 253 -199 253c-131 0 -198 -111 -198 -253s67 -257 198 -257c132 0 199 115 199 257zM348 734l-49 42c49 40 107 104 138 159l83 -72
c-45 -56 -114 -101 -172 -129z" />
    <glyph glyph-name="Ohungarumlaut" unicode="&#x150;" horiz-adv-x="715" 
d="M357 -12c-175 0 -316 136 -316 360s141 356 316 356c176 0 317 -132 317 -356s-141 -360 -317 -360zM556 348c0 142 -67 253 -199 253c-131 0 -198 -111 -198 -253s67 -257 198 -257c132 0 199 115 199 257zM267 734l-48 42c48 40 98 105 128 160l80 -70
c-45 -57 -104 -104 -160 -132zM441 734l-48 42c48 40 104 105 134 160l79 -70c-44 -57 -109 -104 -165 -132z" />
    <glyph glyph-name="Odieresis" unicode="&#xd6;" horiz-adv-x="715" 
d="M357 -12c-175 0 -316 136 -316 360s141 356 316 356c176 0 317 -132 317 -356s-141 -360 -317 -360zM556 348c0 142 -67 253 -199 253c-131 0 -198 -111 -198 -253s67 -257 198 -257c132 0 199 115 199 257zM264 888c38 0 66 -27 66 -65c0 -39 -28 -66 -66 -66
c-39 0 -66 27 -66 66c0 38 27 65 66 65zM452 888c38 0 66 -27 66 -65c0 -39 -28 -66 -66 -66c-39 0 -66 27 -66 66c0 38 27 65 66 65z" />
    <glyph glyph-name="Ocircumflex" unicode="&#xd4;" horiz-adv-x="715" 
d="M357 -12c-175 0 -316 136 -316 360s141 356 316 356c176 0 317 -132 317 -356s-141 -360 -317 -360zM556 348c0 142 -67 253 -199 253c-131 0 -198 -111 -198 -253s67 -257 198 -257c132 0 199 115 199 257zM359 815h-3c-28 -33 -66 -65 -109 -86l-58 72
c59 27 95 50 131 93h75c36 -43 72 -66 131 -93l-58 -72c-43 21 -81 53 -109 86z" />
    <glyph glyph-name="Omacron" unicode="&#x14c;" horiz-adv-x="715" 
d="M357 -12c-175 0 -316 136 -316 360s141 356 316 356c176 0 317 -132 317 -356s-141 -360 -317 -360zM556 348c0 142 -67 253 -199 253c-131 0 -198 -111 -198 -253s67 -257 198 -257c132 0 199 115 199 257zM227 773v90h262v-90h-262z" />
    <glyph glyph-name="Obreve" unicode="&#x14e;" horiz-adv-x="715" 
d="M357 -12c-175 0 -316 136 -316 360s141 356 316 356c176 0 317 -132 317 -356s-141 -360 -317 -360zM556 348c0 142 -67 253 -199 253c-131 0 -198 -111 -198 -253s67 -257 198 -257c132 0 199 115 199 257zM358 739c-75 0 -138 42 -148 123l87 29v-7
c0 -40 19 -68 61 -68c41 0 60 28 60 68v7l88 -29c-11 -81 -74 -123 -148 -123z" />
    <glyph glyph-name="Otilde" unicode="&#xd5;" horiz-adv-x="715" 
d="M357 -12c-175 0 -316 136 -316 360s141 356 316 356c176 0 317 -132 317 -356s-141 -360 -317 -360zM556 348c0 142 -67 253 -199 253c-131 0 -198 -111 -198 -253s67 -257 198 -257c132 0 199 115 199 257zM428 750c-64 0 -94 53 -129 53c-24 0 -31 -25 -33 -52l-74 41
c7 52 43 98 96 98c64 0 94 -53 129 -53c24 0 31 25 33 52l74 -42c-7 -51 -43 -97 -96 -97z" />
    <glyph glyph-name="Oslashacute" unicode="&#x1fe;" horiz-adv-x="727" 
d="M363 -12c-63 0 -121 18 -171 51l-60 -80l-80 59l68 91c-45 60 -73 141 -73 239c0 224 141 356 316 356c62 0 120 -18 169 -50l62 84l80 -59l-69 -92c47 -60 75 -141 75 -239c0 -224 -141 -360 -317 -360zM566 348c0 59 -10 111 -31 153l-285 -382c30 -21 67 -33 113 -33
c134 0 203 119 203 262zM474 574c-30 21 -67 32 -111 32c-133 0 -202 -115 -202 -258c0 -58 9 -111 29 -154zM353 734l-49 42c49 40 107 104 138 159l83 -72c-45 -56 -114 -101 -172 -129z" />
    <glyph glyph-name="Racute" unicode="&#x154;" horiz-adv-x="633" 
d="M72 0v692h278c154 0 248 -76 248 -202c0 -97 -59 -165 -151 -193l168 -297h-124l-160 284h-144v-284h-115zM481 490c0 67 -45 102 -124 102h-170v-209h170c79 0 124 38 124 107zM291 734l-49 42c49 40 107 104 138 159l83 -72c-45 -56 -114 -101 -172 -129z" />
    <glyph glyph-name="Rcaron" unicode="&#x158;" horiz-adv-x="633" 
d="M72 0v692h278c154 0 248 -76 248 -202c0 -97 -59 -165 -151 -193l168 -297h-124l-160 284h-144v-284h-115zM481 490c0 67 -45 102 -124 102h-170v-209h170c79 0 124 38 124 107zM299 820h3c28 33 66 66 109 86l58 -71c-59 -28 -95 -49 -131 -93h-75
c-36 44 -72 65 -131 93l58 71c43 -20 81 -53 109 -86z" />
    <glyph glyph-name="uni0156" unicode="&#x156;" horiz-adv-x="633" 
d="M72 0v692h278c154 0 248 -76 248 -202c0 -97 -59 -165 -151 -193l168 -297h-124l-160 284h-144v-284h-115zM481 490c0 67 -45 102 -124 102h-170v-209h170c79 0 124 38 124 107zM269 -215c29 8 67 23 73 63c-3 -1 -7 -1 -10 -1c-30 0 -54 19 -54 50c0 34 24 51 56 51
c38 0 66 -31 66 -81c0 -55 -25 -100 -64 -122z" />
    <glyph glyph-name="Sacute" unicode="&#x15a;" horiz-adv-x="615" 
d="M263 318c-94 29 -204 68 -204 190c0 116 98 196 233 196c115 0 230 -58 279 -180l-105 -66c-15 91 -85 148 -176 148c-65 0 -117 -34 -117 -88c0 -74 101 -86 196 -116c107 -34 215 -76 215 -206c0 -122 -104 -208 -253 -208c-140 0 -259 74 -298 209l107 66
c15 -97 77 -177 193 -177c79 0 137 39 137 103c0 87 -107 97 -207 129zM291 734l-49 42c49 40 107 104 138 159l83 -72c-45 -56 -114 -101 -172 -129z" />
    <glyph glyph-name="Scaron" unicode="&#x160;" horiz-adv-x="615" 
d="M263 318c-94 29 -204 68 -204 190c0 116 98 196 233 196c115 0 230 -58 279 -180l-105 -66c-15 91 -85 148 -176 148c-65 0 -117 -34 -117 -88c0 -74 101 -86 196 -116c107 -34 215 -76 215 -206c0 -122 -104 -208 -253 -208c-140 0 -259 74 -298 209l107 66
c15 -97 77 -177 193 -177c79 0 137 39 137 103c0 87 -107 97 -207 129zM299 820h3c28 33 66 66 109 86l58 -71c-59 -28 -95 -49 -131 -93h-75c-36 44 -72 65 -131 93l58 71c43 -20 81 -53 109 -86z" />
    <glyph glyph-name="Scircumflex" unicode="&#x15c;" horiz-adv-x="615" 
d="M263 318c-94 29 -204 68 -204 190c0 116 98 196 233 196c115 0 230 -58 279 -180l-105 -66c-15 91 -85 148 -176 148c-65 0 -117 -34 -117 -88c0 -74 101 -86 196 -116c107 -34 215 -76 215 -206c0 -122 -104 -208 -253 -208c-140 0 -259 74 -298 209l107 66
c15 -97 77 -177 193 -177c79 0 137 39 137 103c0 87 -107 97 -207 129zM302 815h-3c-28 -33 -66 -65 -109 -86l-58 72c59 27 95 50 131 93h75c36 -43 72 -66 131 -93l-58 -72c-43 21 -81 53 -109 86z" />
    <glyph glyph-name="uni0218" unicode="&#x218;" horiz-adv-x="615" 
d="M263 318c-94 29 -204 68 -204 190c0 116 98 196 233 196c115 0 230 -58 279 -180l-105 -66c-15 91 -85 148 -176 148c-65 0 -117 -34 -117 -88c0 -74 101 -86 196 -116c107 -34 215 -76 215 -206c0 -122 -104 -208 -253 -208c-140 0 -259 74 -298 209l107 66
c15 -97 77 -177 193 -177c79 0 137 39 137 103c0 87 -107 97 -207 129zM256 -215c29 8 67 23 73 63c-3 -1 -7 -1 -10 -1c-30 0 -54 19 -54 50c0 34 24 51 56 51c38 0 66 -31 66 -81c0 -55 -25 -100 -64 -122z" />
    <glyph glyph-name="uni015E" unicode="&#x15e;" horiz-adv-x="615" 
d="M263 318c-94 29 -204 68 -204 190c0 116 98 196 233 196c115 0 230 -58 279 -180l-105 -66c-15 91 -85 148 -176 148c-65 0 -117 -34 -117 -88c0 -74 101 -86 196 -116c107 -34 215 -76 215 -206c0 -116 -95 -200 -232 -207l-7 -25c47 -5 89 -35 89 -84
c0 -56 -53 -88 -109 -88c-51 0 -90 22 -113 55l63 43c10 -26 27 -41 51 -41c20 0 36 12 36 32s-16 33 -36 33c-15 0 -25 -9 -25 -9l-43 37l26 49c-119 14 -217 86 -251 206l107 66c15 -97 77 -177 193 -177c79 0 137 39 137 103c0 87 -107 97 -207 129z" />
    <glyph glyph-name="Tcaron" unicode="&#x164;" horiz-adv-x="549" 
d="M5 588v104h539v-104h-212v-588h-116v588h-211zM273 820h3c28 33 66 66 109 86l58 -71c-59 -28 -95 -49 -131 -93h-75c-36 44 -72 65 -131 93l58 71c43 -20 81 -53 109 -86z" />
    <glyph glyph-name="uni021A" unicode="&#x21a;" horiz-adv-x="549" 
d="M5 588v104h539v-104h-212v-588h-116v588h-211zM203 -215c29 8 67 23 73 63c-3 -1 -7 -1 -10 -1c-30 0 -54 19 -54 50c0 34 24 51 56 51c38 0 66 -31 66 -81c0 -55 -25 -100 -64 -122z" />
    <glyph glyph-name="uni0162" unicode="&#x162;" horiz-adv-x="549" 
d="M5 588v104h539v-104h-212v-588h-30l-10 -36c47 -5 89 -35 89 -84c0 -56 -53 -88 -109 -88c-51 0 -90 22 -113 55l63 43c10 -26 27 -41 51 -41c20 0 36 12 36 32s-16 33 -36 33c-15 0 -25 -9 -25 -9l-43 37l32 58h-21v588h-211z" />
    <glyph glyph-name="Ugrave" unicode="&#xd9;" horiz-adv-x="673" 
d="M337 -12c-164 0 -272 93 -272 296v408h116v-415c0 -121 53 -186 156 -186c102 0 156 65 156 186v415h115v-408c0 -203 -109 -296 -271 -296zM395 776l-49 -42c-57 28 -126 73 -172 129l83 72c31 -55 89 -119 138 -159z" />
    <glyph glyph-name="Uacute" unicode="&#xda;" horiz-adv-x="673" 
d="M337 -12c-164 0 -272 93 -272 296v408h116v-415c0 -121 53 -186 156 -186c102 0 156 65 156 186v415h115v-408c0 -203 -109 -296 -271 -296zM327 734l-49 42c49 40 107 104 138 159l83 -72c-45 -56 -114 -101 -172 -129z" />
    <glyph glyph-name="Uhungarumlaut" unicode="&#x170;" horiz-adv-x="673" 
d="M337 -12c-164 0 -272 93 -272 296v408h116v-415c0 -121 53 -186 156 -186c102 0 156 65 156 186v415h115v-408c0 -203 -109 -296 -271 -296zM246 734l-48 42c48 40 98 105 128 160l80 -70c-45 -57 -104 -104 -160 -132zM420 734l-48 42c48 40 104 105 134 160l79 -70
c-44 -57 -109 -104 -165 -132z" />
    <glyph glyph-name="Udieresis" unicode="&#xdc;" horiz-adv-x="673" 
d="M337 -12c-164 0 -272 93 -272 296v408h116v-415c0 -121 53 -186 156 -186c102 0 156 65 156 186v415h115v-408c0 -203 -109 -296 -271 -296zM243 888c38 0 66 -27 66 -65c0 -39 -28 -66 -66 -66c-39 0 -66 27 -66 66c0 38 27 65 66 65zM431 888c38 0 66 -27 66 -65
c0 -39 -28 -66 -66 -66c-39 0 -66 27 -66 66c0 38 27 65 66 65z" />
    <glyph glyph-name="Ucircumflex" unicode="&#xdb;" horiz-adv-x="673" 
d="M337 -12c-164 0 -272 93 -272 296v408h116v-415c0 -121 53 -186 156 -186c102 0 156 65 156 186v415h115v-408c0 -203 -109 -296 -271 -296zM338 815h-3c-28 -33 -66 -65 -109 -86l-58 72c59 27 95 50 131 93h75c36 -43 72 -66 131 -93l-58 -72c-43 21 -81 53 -109 86z
" />
    <glyph glyph-name="Umacron" unicode="&#x16a;" horiz-adv-x="673" 
d="M337 -12c-164 0 -272 93 -272 296v408h116v-415c0 -121 53 -186 156 -186c102 0 156 65 156 186v415h115v-408c0 -203 -109 -296 -271 -296zM206 773v90h262v-90h-262z" />
    <glyph glyph-name="Utilde" unicode="&#x168;" horiz-adv-x="673" 
d="M337 -12c-164 0 -272 93 -272 296v408h116v-415c0 -121 53 -186 156 -186c102 0 156 65 156 186v415h115v-408c0 -203 -109 -296 -271 -296zM407 750c-64 0 -94 53 -129 53c-24 0 -31 -25 -33 -52l-74 41c7 52 43 98 96 98c64 0 94 -53 129 -53c24 0 31 25 33 52l74 -42
c-7 -51 -43 -97 -96 -97z" />
    <glyph glyph-name="Ubreve" unicode="&#x16c;" horiz-adv-x="673" 
d="M337 -12c-164 0 -272 93 -272 296v408h116v-415c0 -121 53 -186 156 -186c102 0 156 65 156 186v415h115v-408c0 -203 -109 -296 -271 -296zM337 739c-75 0 -138 42 -148 123l87 29v-7c0 -40 19 -68 61 -68c41 0 60 28 60 68v7l88 -29c-11 -81 -74 -123 -148 -123z" />
    <glyph glyph-name="Uring" unicode="&#x16e;" horiz-adv-x="673" 
d="M337 -12c-164 0 -272 93 -272 296v408h116v-415c0 -121 53 -186 156 -186c102 0 156 65 156 186v415h115v-408c0 -203 -109 -296 -271 -296zM337 888c-27 0 -46 -20 -46 -47c0 -28 19 -48 46 -48s45 21 45 48s-18 47 -45 47zM337 949c60 0 114 -43 114 -108
c0 -66 -54 -108 -114 -108c-61 0 -115 42 -115 108c0 65 54 108 115 108z" />
    <glyph glyph-name="Wgrave" unicode="&#x1e80;" horiz-adv-x="848" 
d="M491 692l104 -467c8 -38 19 -106 19 -106h2s6 64 13 102l87 471h119l-142 -692h-145l-103 452c-12 52 -20 112 -20 112h-2s-8 -60 -20 -112l-103 -452h-144l-143 692h121l87 -471c7 -38 13 -102 13 -102h2s11 68 19 106l105 467h131zM482 776l-49 -42
c-57 28 -126 73 -172 129l83 72c31 -55 89 -119 138 -159z" />
    <glyph glyph-name="Wacute" unicode="&#x1e82;" horiz-adv-x="848" 
d="M491 692l104 -467c8 -38 19 -106 19 -106h2s6 64 13 102l87 471h119l-142 -692h-145l-103 452c-12 52 -20 112 -20 112h-2s-8 -60 -20 -112l-103 -452h-144l-143 692h121l87 -471c7 -38 13 -102 13 -102h2s11 68 19 106l105 467h131zM414 734l-49 42
c49 40 107 104 138 159l83 -72c-45 -56 -114 -101 -172 -129z" />
    <glyph glyph-name="Wdieresis" unicode="&#x1e84;" horiz-adv-x="848" 
d="M491 692l104 -467c8 -38 19 -106 19 -106h2s6 64 13 102l87 471h119l-142 -692h-145l-103 452c-12 52 -20 112 -20 112h-2s-8 -60 -20 -112l-103 -452h-144l-143 692h121l87 -471c7 -38 13 -102 13 -102h2s11 68 19 106l105 467h131zM330 888c38 0 66 -27 66 -65
c0 -39 -28 -66 -66 -66c-39 0 -66 27 -66 66c0 38 27 65 66 65zM518 888c38 0 66 -27 66 -65c0 -39 -28 -66 -66 -66c-39 0 -66 27 -66 66c0 38 27 65 66 65z" />
    <glyph glyph-name="Wcircumflex" unicode="&#x174;" horiz-adv-x="848" 
d="M491 692l104 -467c8 -38 19 -106 19 -106h2s6 64 13 102l87 471h119l-142 -692h-145l-103 452c-12 52 -20 112 -20 112h-2s-8 -60 -20 -112l-103 -452h-144l-143 692h121l87 -471c7 -38 13 -102 13 -102h2s11 68 19 106l105 467h131zM425 815h-3
c-28 -33 -66 -65 -109 -86l-58 72c59 27 95 50 131 93h75c36 -43 72 -66 131 -93l-58 -72c-43 21 -81 53 -109 86z" />
    <glyph glyph-name="Ygrave" unicode="&#x1ef2;" horiz-adv-x="583" 
d="M233 0v263l-235 429h125l126 -238c23 -45 43 -91 43 -91h2s20 46 44 91l126 238h122l-237 -429v-263h-116zM350 776l-49 -42c-57 28 -126 73 -172 129l83 72c31 -55 89 -119 138 -159z" />
    <glyph glyph-name="Yacute" unicode="&#xdd;" horiz-adv-x="583" 
d="M233 0v263l-235 429h125l126 -238c23 -45 43 -91 43 -91h2s20 46 44 91l126 238h122l-237 -429v-263h-116zM282 734l-49 42c49 40 107 104 138 159l83 -72c-45 -56 -114 -101 -172 -129z" />
    <glyph glyph-name="Ydieresis" unicode="&#x178;" horiz-adv-x="583" 
d="M233 0v263l-235 429h125l126 -238c23 -45 43 -91 43 -91h2s20 46 44 91l126 238h122l-237 -429v-263h-116zM198 888c38 0 66 -27 66 -65c0 -39 -28 -66 -66 -66c-39 0 -66 27 -66 66c0 38 27 65 66 65zM386 888c38 0 66 -27 66 -65c0 -39 -28 -66 -66 -66
c-39 0 -66 27 -66 66c0 38 27 65 66 65z" />
    <glyph glyph-name="Ycircumflex" unicode="&#x176;" horiz-adv-x="583" 
d="M233 0v263l-235 429h125l126 -238c23 -45 43 -91 43 -91h2s20 46 44 91l126 238h122l-237 -429v-263h-116zM293 815h-3c-28 -33 -66 -65 -109 -86l-58 72c59 27 95 50 131 93h75c36 -43 72 -66 131 -93l-58 -72c-43 21 -81 53 -109 86z" />
    <glyph glyph-name="Zacute" unicode="&#x179;" horiz-adv-x="567" 
d="M27 0v76l362 513h-356v103h504v-79l-359 -510h366v-103h-517zM269 734l-49 42c49 40 107 104 138 159l83 -72c-45 -56 -114 -101 -172 -129z" />
    <glyph glyph-name="Zdotaccent" unicode="&#x17b;" horiz-adv-x="567" 
d="M27 0v76l362 513h-356v103h504v-79l-359 -510h366v-103h-517zM279 892c39 0 69 -28 69 -67c0 -40 -30 -68 -69 -68c-40 0 -70 28 -70 68c0 39 30 67 70 67z" />
    <glyph glyph-name="Zcaron" unicode="&#x17d;" horiz-adv-x="567" 
d="M27 0v76l362 513h-356v103h504v-79l-359 -510h366v-103h-517zM277 820h3c28 33 66 66 109 86l58 -71c-59 -28 -95 -49 -131 -93h-75c-36 44 -72 65 -131 93l58 71c43 -20 81 -53 109 -86z" />
    <glyph glyph-name="aeacute" unicode="&#x1fd;" horiz-adv-x="811" 
d="M258 427c-68 0 -109 -49 -121 -115l-99 56c30 85 114 148 220 148c65 0 122 -24 154 -75c39 47 93 75 158 75c128 0 206 -96 206 -230c0 -37 -7 -62 -7 -62h-320c5 -89 49 -149 121 -149c60 0 95 44 104 100l98 -57c-31 -68 -100 -130 -202 -130c-76 0 -136 34 -174 92
c-29 -48 -91 -92 -176 -92c-96 0 -173 54 -173 148c0 110 101 138 183 156c69 15 112 23 112 63c0 43 -37 72 -84 72zM346 194v65c-14 -19 -48 -32 -91 -43c-48 -11 -100 -24 -100 -75c0 -38 30 -65 82 -65c56 0 109 44 109 118zM568 431c-65 0 -105 -51 -116 -127h219
c0 69 -36 127 -103 127zM400 554l-49 42c49 40 107 104 138 159l83 -72c-45 -56 -114 -101 -172 -129z" />
    <glyph glyph-name="agrave" unicode="&#xe0;" horiz-adv-x="521" 
d="M262 427c-72 0 -113 -51 -126 -117l-99 56c31 86 116 150 226 150c109 0 197 -56 197 -182v-217c0 -55 3 -85 12 -117h-86c-16 26 -21 42 -25 66h-3c-22 -34 -70 -78 -149 -78c-91 0 -159 54 -159 148c0 110 104 138 188 156c73 15 114 24 114 63c0 43 -39 72 -90 72z
M356 193v68c-15 -22 -47 -34 -93 -45c-52 -12 -105 -25 -105 -75c0 -38 27 -65 79 -65c62 0 119 43 119 117zM315 596l-49 -42c-57 28 -126 73 -172 129l83 72c31 -55 89 -119 138 -159z" />
    <glyph glyph-name="aacute" unicode="&#xe1;" horiz-adv-x="521" 
d="M262 427c-72 0 -113 -51 -126 -117l-99 56c31 86 116 150 226 150c109 0 197 -56 197 -182v-217c0 -55 3 -85 12 -117h-86c-16 26 -21 42 -25 66h-3c-22 -34 -70 -78 -149 -78c-91 0 -159 54 -159 148c0 110 104 138 188 156c73 15 114 24 114 63c0 43 -39 72 -90 72z
M356 193v68c-15 -22 -47 -34 -93 -45c-52 -12 -105 -25 -105 -75c0 -38 27 -65 79 -65c62 0 119 43 119 117zM247 554l-49 42c49 40 107 104 138 159l83 -72c-45 -56 -114 -101 -172 -129z" />
    <glyph glyph-name="adieresis" unicode="&#xe4;" horiz-adv-x="521" 
d="M262 427c-72 0 -113 -51 -126 -117l-99 56c31 86 116 150 226 150c109 0 197 -56 197 -182v-217c0 -55 3 -85 12 -117h-86c-16 26 -21 42 -25 66h-3c-22 -34 -70 -78 -149 -78c-91 0 -159 54 -159 148c0 110 104 138 188 156c73 15 114 24 114 63c0 43 -39 72 -90 72z
M356 193v68c-15 -22 -47 -34 -93 -45c-52 -12 -105 -25 -105 -75c0 -38 27 -65 79 -65c62 0 119 43 119 117zM163 708c38 0 66 -27 66 -65c0 -39 -28 -66 -66 -66c-39 0 -66 27 -66 66c0 38 27 65 66 65zM351 708c38 0 66 -27 66 -65c0 -39 -28 -66 -66 -66
c-39 0 -66 27 -66 66c0 38 27 65 66 65z" />
    <glyph glyph-name="acircumflex" unicode="&#xe2;" horiz-adv-x="521" 
d="M262 427c-72 0 -113 -51 -126 -117l-99 56c31 86 116 150 226 150c109 0 197 -56 197 -182v-217c0 -55 3 -85 12 -117h-86c-16 26 -21 42 -25 66h-3c-22 -34 -70 -78 -149 -78c-91 0 -159 54 -159 148c0 110 104 138 188 156c73 15 114 24 114 63c0 43 -39 72 -90 72z
M356 193v68c-15 -22 -47 -34 -93 -45c-52 -12 -105 -25 -105 -75c0 -38 27 -65 79 -65c62 0 119 43 119 117zM258 635h-3c-28 -33 -66 -65 -109 -86l-58 72c59 27 95 50 131 93h75c36 -43 72 -66 131 -93l-58 -72c-43 21 -81 53 -109 86z" />
    <glyph glyph-name="amacron" unicode="&#x101;" horiz-adv-x="521" 
d="M262 427c-72 0 -113 -51 -126 -117l-99 56c31 86 116 150 226 150c109 0 197 -56 197 -182v-217c0 -55 3 -85 12 -117h-86c-16 26 -21 42 -25 66h-3c-22 -34 -70 -78 -149 -78c-91 0 -159 54 -159 148c0 110 104 138 188 156c73 15 114 24 114 63c0 43 -39 72 -90 72z
M356 193v68c-15 -22 -47 -34 -93 -45c-52 -12 -105 -25 -105 -75c0 -38 27 -65 79 -65c62 0 119 43 119 117zM126 593v90h262v-90h-262z" />
    <glyph glyph-name="atilde" unicode="&#xe3;" horiz-adv-x="521" 
d="M262 427c-72 0 -113 -51 -126 -117l-99 56c31 86 116 150 226 150c109 0 197 -56 197 -182v-217c0 -55 3 -85 12 -117h-86c-16 26 -21 42 -25 66h-3c-22 -34 -70 -78 -149 -78c-91 0 -159 54 -159 148c0 110 104 138 188 156c73 15 114 24 114 63c0 43 -39 72 -90 72z
M356 193v68c-15 -22 -47 -34 -93 -45c-52 -12 -105 -25 -105 -75c0 -38 27 -65 79 -65c62 0 119 43 119 117zM327 570c-64 0 -94 53 -129 53c-24 0 -31 -25 -33 -52l-74 41c7 52 43 98 96 98c64 0 94 -53 129 -53c24 0 31 25 33 52l74 -42c-7 -51 -43 -97 -96 -97z" />
    <glyph glyph-name="aring" unicode="&#xe5;" horiz-adv-x="521" 
d="M262 427c-72 0 -113 -51 -126 -117l-99 56c31 86 116 150 226 150c109 0 197 -56 197 -182v-217c0 -55 3 -85 12 -117h-86c-16 26 -21 42 -25 66h-3c-22 -34 -70 -78 -149 -78c-91 0 -159 54 -159 148c0 110 104 138 188 156c73 15 114 24 114 63c0 43 -39 72 -90 72z
M356 193v68c-15 -22 -47 -34 -93 -45c-52 -12 -105 -25 -105 -75c0 -38 27 -65 79 -65c62 0 119 43 119 117zM257 708c-27 0 -46 -20 -46 -47c0 -28 19 -48 46 -48s45 21 45 48s-18 47 -45 47zM257 769c60 0 114 -43 114 -108c0 -66 -54 -108 -114 -108
c-61 0 -115 42 -115 108c0 65 54 108 115 108z" />
    <glyph glyph-name="abreve" unicode="&#x103;" horiz-adv-x="521" 
d="M262 427c-72 0 -113 -51 -126 -117l-99 56c31 86 116 150 226 150c109 0 197 -56 197 -182v-217c0 -55 3 -85 12 -117h-86c-16 26 -21 42 -25 66h-3c-22 -34 -70 -78 -149 -78c-91 0 -159 54 -159 148c0 110 104 138 188 156c73 15 114 24 114 63c0 43 -39 72 -90 72z
M356 193v68c-15 -22 -47 -34 -93 -45c-52 -12 -105 -25 -105 -75c0 -38 27 -65 79 -65c62 0 119 43 119 117zM257 559c-75 0 -138 42 -148 123l87 29v-7c0 -40 19 -68 61 -68c41 0 60 28 60 68v7l88 -29c-11 -81 -74 -123 -148 -123z" />
    <glyph glyph-name="aogonek" unicode="&#x105;" horiz-adv-x="521" 
d="M456 -94l73 -48c-24 -36 -69 -66 -127 -66c-65 0 -109 38 -109 92c0 45 36 79 67 104l22 18c-13 22 -18 38 -21 60h-3c-22 -34 -70 -78 -149 -78c-91 0 -159 54 -159 148c0 110 104 138 188 156c73 15 114 24 114 63c0 43 -39 72 -90 72c-72 0 -113 -51 -126 -117l-99 56
c31 86 116 150 226 150c109 0 197 -56 197 -182v-217c0 -55 3 -85 12 -117l-42 -31c-27 -20 -55 -47 -55 -72c0 -20 13 -33 34 -33c24 0 40 20 47 42zM356 193v68c-15 -22 -47 -34 -93 -45c-52 -12 -105 -25 -105 -75c0 -38 27 -65 79 -65c62 0 119 43 119 117z" />
    <glyph glyph-name="cacute" unicode="&#x107;" horiz-adv-x="509" 
d="M270 427c-83 0 -120 -78 -120 -175s37 -175 120 -175c74 0 107 64 107 134l103 -57c-14 -76 -83 -166 -210 -166c-139 0 -232 106 -232 264s93 264 232 264c127 0 196 -90 210 -166l-103 -57c0 70 -33 134 -107 134zM256 554l-49 42c49 40 107 104 138 159l83 -72
c-45 -56 -114 -101 -172 -129z" />
    <glyph glyph-name="cdotaccent" unicode="&#x10b;" horiz-adv-x="509" 
d="M270 427c-83 0 -120 -78 -120 -175s37 -175 120 -175c74 0 107 64 107 134l103 -57c-14 -76 -83 -166 -210 -166c-139 0 -232 106 -232 264s93 264 232 264c127 0 196 -90 210 -166l-103 -57c0 70 -33 134 -107 134zM266 712c39 0 69 -28 69 -67c0 -40 -30 -68 -69 -68
c-40 0 -70 28 -70 68c0 39 30 67 70 67z" />
    <glyph glyph-name="ccircumflex" unicode="&#x109;" horiz-adv-x="509" 
d="M270 427c-83 0 -120 -78 -120 -175s37 -175 120 -175c74 0 107 64 107 134l103 -57c-14 -76 -83 -166 -210 -166c-139 0 -232 106 -232 264s93 264 232 264c127 0 196 -90 210 -166l-103 -57c0 70 -33 134 -107 134zM267 635h-3c-28 -33 -66 -65 -109 -86l-58 72
c59 27 95 50 131 93h75c36 -43 72 -66 131 -93l-58 -72c-43 21 -81 53 -109 86z" />
    <glyph glyph-name="ccaron" unicode="&#x10d;" horiz-adv-x="509" 
d="M270 427c-83 0 -120 -78 -120 -175s37 -175 120 -175c74 0 107 64 107 134l103 -57c-14 -76 -83 -166 -210 -166c-139 0 -232 106 -232 264s93 264 232 264c127 0 196 -90 210 -166l-103 -57c0 70 -33 134 -107 134zM264 640h3c28 33 66 66 109 86l58 -71
c-59 -28 -95 -49 -131 -93h-75c-36 44 -72 65 -131 93l58 71c43 -20 81 -53 109 -86z" />
    <glyph glyph-name="ccedilla" unicode="&#xe7;" horiz-adv-x="509" 
d="M270 427c-83 0 -120 -78 -120 -175s37 -175 120 -175c74 0 107 64 107 134l103 -57c-13 -71 -73 -153 -183 -164l-7 -26c47 -5 89 -35 89 -84c0 -56 -53 -88 -109 -88c-51 0 -90 22 -113 55l63 43c10 -26 27 -41 51 -41c20 0 36 12 36 32s-16 33 -36 33
c-15 0 -25 -9 -25 -9l-43 37l27 49c-117 18 -192 118 -192 261c0 158 93 264 232 264c127 0 196 -90 210 -166l-103 -57c0 70 -33 134 -107 134z" />
    <glyph glyph-name="egrave" unicode="&#xe8;" horiz-adv-x="526" 
d="M484 224h-340c6 -89 55 -149 131 -149c63 0 104 44 113 100l98 -57c-31 -68 -107 -130 -211 -130c-143 0 -237 104 -237 264c0 158 99 264 235 264c133 0 218 -96 218 -230c0 -37 -7 -62 -7 -62zM273 431c-68 0 -114 -51 -126 -127h238c0 69 -42 127 -112 127zM331 596
l-49 -42c-57 28 -126 73 -172 129l83 72c31 -55 89 -119 138 -159z" />
    <glyph glyph-name="eacute" unicode="&#xe9;" horiz-adv-x="526" 
d="M484 224h-340c6 -89 55 -149 131 -149c63 0 104 44 113 100l98 -57c-31 -68 -107 -130 -211 -130c-143 0 -237 104 -237 264c0 158 99 264 235 264c133 0 218 -96 218 -230c0 -37 -7 -62 -7 -62zM273 431c-68 0 -114 -51 -126 -127h238c0 69 -42 127 -112 127zM263 554
l-49 42c49 40 107 104 138 159l83 -72c-45 -56 -114 -101 -172 -129z" />
    <glyph glyph-name="edotaccent" unicode="&#x117;" horiz-adv-x="526" 
d="M484 224h-340c6 -89 55 -149 131 -149c63 0 104 44 113 100l98 -57c-31 -68 -107 -130 -211 -130c-143 0 -237 104 -237 264c0 158 99 264 235 264c133 0 218 -96 218 -230c0 -37 -7 -62 -7 -62zM273 431c-68 0 -114 -51 -126 -127h238c0 69 -42 127 -112 127zM273 712
c39 0 69 -28 69 -67c0 -40 -30 -68 -69 -68c-40 0 -70 28 -70 68c0 39 30 67 70 67z" />
    <glyph glyph-name="edieresis" unicode="&#xeb;" horiz-adv-x="526" 
d="M484 224h-340c6 -89 55 -149 131 -149c63 0 104 44 113 100l98 -57c-31 -68 -107 -130 -211 -130c-143 0 -237 104 -237 264c0 158 99 264 235 264c133 0 218 -96 218 -230c0 -37 -7 -62 -7 -62zM273 431c-68 0 -114 -51 -126 -127h238c0 69 -42 127 -112 127zM179 708
c38 0 66 -27 66 -65c0 -39 -28 -66 -66 -66c-39 0 -66 27 -66 66c0 38 27 65 66 65zM367 708c38 0 66 -27 66 -65c0 -39 -28 -66 -66 -66c-39 0 -66 27 -66 66c0 38 27 65 66 65z" />
    <glyph glyph-name="ecircumflex" unicode="&#xea;" horiz-adv-x="526" 
d="M484 224h-340c6 -89 55 -149 131 -149c63 0 104 44 113 100l98 -57c-31 -68 -107 -130 -211 -130c-143 0 -237 104 -237 264c0 158 99 264 235 264c133 0 218 -96 218 -230c0 -37 -7 -62 -7 -62zM273 431c-68 0 -114 -51 -126 -127h238c0 69 -42 127 -112 127zM274 635
h-3c-28 -33 -66 -65 -109 -86l-58 72c59 27 95 50 131 93h75c36 -43 72 -66 131 -93l-58 -72c-43 21 -81 53 -109 86z" />
    <glyph glyph-name="ecaron" unicode="&#x11b;" horiz-adv-x="526" 
d="M484 224h-340c6 -89 55 -149 131 -149c63 0 104 44 113 100l98 -57c-31 -68 -107 -130 -211 -130c-143 0 -237 104 -237 264c0 158 99 264 235 264c133 0 218 -96 218 -230c0 -37 -7 -62 -7 -62zM273 431c-68 0 -114 -51 -126 -127h238c0 69 -42 127 -112 127zM271 640h3
c28 33 66 66 109 86l58 -71c-59 -28 -95 -49 -131 -93h-75c-36 44 -72 65 -131 93l58 71c43 -20 81 -53 109 -86z" />
    <glyph glyph-name="emacron" unicode="&#x113;" horiz-adv-x="526" 
d="M484 224h-340c6 -89 55 -149 131 -149c63 0 104 44 113 100l98 -57c-31 -68 -107 -130 -211 -130c-143 0 -237 104 -237 264c0 158 99 264 235 264c133 0 218 -96 218 -230c0 -37 -7 -62 -7 -62zM273 431c-68 0 -114 -51 -126 -127h238c0 69 -42 127 -112 127zM142 593
v90h262v-90h-262z" />
    <glyph glyph-name="ebreve" unicode="&#x115;" horiz-adv-x="526" 
d="M484 224h-340c6 -89 55 -149 131 -149c63 0 104 44 113 100l98 -57c-31 -68 -107 -130 -211 -130c-143 0 -237 104 -237 264c0 158 99 264 235 264c133 0 218 -96 218 -230c0 -37 -7 -62 -7 -62zM273 431c-68 0 -114 -51 -126 -127h238c0 69 -42 127 -112 127zM273 559
c-75 0 -138 42 -148 123l87 29v-7c0 -40 19 -68 61 -68c41 0 60 28 60 68v7l88 -29c-11 -81 -74 -123 -148 -123z" />
    <glyph glyph-name="gdotaccent" unicode="&#x121;" horiz-adv-x="538" 
d="M59 348c0 104 89 168 198 168c47 0 73 -13 113 -13c43 0 57 22 57 53c0 17 -3 31 -5 45l109 -62c-1 -63 -29 -90 -82 -90c-14 0 -33 4 -44 7v-2c23 -21 56 -57 56 -113c0 -101 -93 -166 -202 -166c-58 0 -113 -21 -113 -53c0 -22 18 -33 66 -33c45 0 91 8 146 8
c100 0 174 -44 174 -138c0 -120 -130 -165 -269 -165c-131 0 -256 39 -256 132c0 54 55 90 107 99v3c-37 12 -69 35 -69 78c0 55 53 85 111 98v3c-56 24 -97 70 -97 141zM104 -64c0 -44 73 -64 158 -64c92 0 164 23 164 77c0 41 -52 55 -115 55c-72 0 -207 -9 -207 -68z
M161 345c0 -57 45 -91 99 -91c55 0 99 34 99 91s-44 92 -99 92c-54 0 -99 -35 -99 -92zM262 712c39 0 69 -28 69 -67c0 -40 -30 -68 -69 -68c-40 0 -70 28 -70 68c0 39 30 67 70 67z" />
    <glyph glyph-name="gcircumflex" unicode="&#x11d;" horiz-adv-x="535" 
d="M535 537c-1 -60 -33 -88 -86 -88c-14 0 -33 4 -44 7v-2c23 -21 56 -57 56 -113c0 -101 -93 -166 -202 -166c-58 0 -113 -21 -113 -53c0 -22 18 -33 66 -33c45 0 91 8 146 8c100 0 174 -44 174 -138c0 -120 -130 -165 -269 -165c-131 0 -256 39 -256 132
c0 54 55 90 107 99v3c-37 12 -69 35 -69 78c0 55 53 85 111 98v3c-56 24 -97 70 -97 141c0 104 89 168 198 168c48 0 76 -14 116 -14c48 0 67 22 67 55c0 10 -1 19 -2 23zM104 -64c0 -44 73 -64 158 -64c92 0 164 23 164 77c0 41 -52 55 -115 55c-72 0 -207 -9 -207 -68z
M162 345c0 -57 45 -91 99 -91s99 34 99 91c0 58 -45 92 -99 92s-99 -34 -99 -92zM262 636h-3c-27 -31 -65 -62 -107 -81l-56 69c58 27 92 49 127 91h75c35 -42 68 -64 126 -91l-55 -69c-43 19 -80 50 -107 81z" />
    <glyph glyph-name="gbreve" unicode="&#x11f;" horiz-adv-x="535" 
d="M535 537c-1 -60 -33 -88 -86 -88c-14 0 -33 4 -44 7v-2c23 -21 56 -57 56 -113c0 -101 -93 -166 -202 -166c-58 0 -113 -21 -113 -53c0 -22 18 -33 66 -33c45 0 91 8 146 8c100 0 174 -44 174 -138c0 -120 -130 -165 -269 -165c-131 0 -256 39 -256 132
c0 54 55 90 107 99v3c-37 12 -69 35 -69 78c0 55 53 85 111 98v3c-56 24 -97 70 -97 141c0 104 89 168 198 168c48 0 76 -14 116 -14c48 0 65 23 65 56c0 9 0 18 -1 23zM104 -64c0 -44 73 -64 158 -64c92 0 164 23 164 77c0 41 -52 55 -115 55c-72 0 -207 -9 -207 -68z
M162 345c0 -57 45 -91 99 -91s99 34 99 91c0 58 -45 92 -99 92s-99 -34 -99 -92zM261 560c-74 0 -137 41 -147 122l88 29v-7c0 -40 19 -67 59 -67s59 27 59 67c0 2 -1 7 -1 7l88 -29c-10 -81 -73 -122 -146 -122z" />
    <glyph glyph-name="uni0123" unicode="&#x123;" horiz-adv-x="538" 
d="M59 348c0 104 89 168 198 168c47 0 73 -13 113 -13c43 0 57 22 57 53c0 17 -3 31 -5 45l109 -62c-1 -63 -29 -90 -82 -90c-14 0 -33 4 -44 7v-2c23 -21 56 -57 56 -113c0 -101 -93 -166 -202 -166c-58 0 -113 -21 -113 -53c0 -22 18 -33 66 -33c45 0 91 8 146 8
c100 0 174 -44 174 -138c0 -120 -130 -165 -269 -165c-131 0 -256 39 -256 132c0 54 55 90 107 99v3c-37 12 -69 35 -69 78c0 55 53 85 111 98v3c-56 24 -97 70 -97 141zM104 -64c0 -44 73 -64 158 -64c92 0 164 23 164 77c0 41 -52 55 -115 55c-72 0 -207 -9 -207 -68z
M161 345c0 -57 45 -91 99 -91c55 0 99 34 99 91s-44 92 -99 92c-54 0 -99 -35 -99 -92zM328 716c-29 -8 -67 -23 -73 -63c3 1 6 1 9 1c30 0 55 -19 55 -51c0 -33 -25 -51 -57 -51c-37 0 -65 31 -65 82c0 55 25 99 63 122z" />
    <glyph glyph-name="hcircumflex" unicode="&#x125;" horiz-adv-x="553" 
d="M491 319v-319h-111v298c0 84 -32 122 -95 122c-68 0 -109 -54 -109 -124v-296h-111v724h111v-182c0 -61 -6 -124 -6 -124h2c22 45 68 98 154 98c101 0 165 -68 165 -197zM122 855h-3c-28 -33 -66 -65 -109 -86l-58 72c59 27 95 50 131 93h75c36 -43 72 -66 131 -93
l-58 -72c-43 21 -81 53 -109 86z" />
    <glyph glyph-name="igrave" unicode="&#xec;" horiz-adv-x="242" 
d="M65 0v504h112v-504h-112zM179 596l-49 -42c-57 28 -126 73 -172 129l83 72c31 -55 89 -119 138 -159z" />
    <glyph glyph-name="iacute" unicode="&#xed;" horiz-adv-x="242" 
d="M65 0v504h112v-504h-112zM111 554l-49 42c49 40 107 104 138 159l83 -72c-45 -56 -114 -101 -172 -129z" />
    <glyph glyph-name="idieresis" unicode="&#xef;" horiz-adv-x="242" 
d="M65 0v504h112v-504h-112zM27 708c38 0 66 -27 66 -65c0 -39 -28 -66 -66 -66c-39 0 -66 27 -66 66c0 38 27 65 66 65zM215 708c38 0 66 -27 66 -65c0 -39 -28 -66 -66 -66c-39 0 -66 27 -66 66c0 38 27 65 66 65z" />
    <glyph glyph-name="icircumflex" unicode="&#xee;" horiz-adv-x="242" 
d="M65 0v504h112v-504h-112zM122 635h-3c-28 -33 -66 -65 -109 -86l-58 72c59 27 95 50 131 93h75c36 -43 72 -66 131 -93l-58 -72c-43 21 -81 53 -109 86z" />
    <glyph glyph-name="imacron" unicode="&#x12b;" horiz-adv-x="242" 
d="M65 0v504h112v-504h-112zM-10 593v90h262v-90h-262z" />
    <glyph glyph-name="itilde" unicode="&#x129;" horiz-adv-x="242" 
d="M65 0v504h112v-504h-112zM191 570c-64 0 -94 53 -129 53c-24 0 -31 -25 -33 -52l-74 41c7 52 43 98 96 98c64 0 94 -53 129 -53c24 0 31 25 33 52l74 -42c-7 -51 -43 -97 -96 -97z" />
    <glyph glyph-name="ibreve" unicode="&#x12d;" horiz-adv-x="242" 
d="M65 0v504h112v-504h-112zM121 559c-75 0 -138 42 -148 123l87 29v-7c0 -40 19 -68 61 -68c41 0 60 28 60 68v7l88 -29c-11 -81 -74 -123 -148 -123z" />
    <glyph glyph-name="iogonek" unicode="&#x12f;" horiz-adv-x="242" 
d="M65 504h112v-504c-38 -19 -99 -60 -99 -103c0 -20 13 -33 34 -33c24 0 40 20 47 42l73 -48c-24 -36 -69 -66 -127 -66c-65 0 -109 38 -109 92c0 43 27 76 55 101l14 13v506zM121 713c40 0 70 -29 70 -69c0 -41 -30 -69 -70 -69s-70 28 -70 69c0 40 30 69 70 69z" />
    <glyph glyph-name="jcircumflex" unicode="&#x135;" horiz-adv-x="250" 
d="M47 -208l-101 74c100 20 127 59 127 167v471h112v-492c0 -120 -40 -195 -138 -220zM130 635h-3c-28 -33 -66 -65 -109 -86l-58 72c59 27 95 50 131 93h75c36 -43 72 -66 131 -93l-58 -72c-43 21 -81 53 -109 86z" />
    <glyph glyph-name="uni0137" unicode="&#x137;" horiz-adv-x="517" 
d="M501 504l-172 -199l193 -305h-123l-142 224l-81 -99v-125h-111v724h111v-352c0 -61 -6 -125 -6 -125h2s35 56 67 95l131 162h131zM218 -215c29 8 67 23 73 63c-3 -1 -7 -1 -10 -1c-30 0 -54 19 -54 50c0 34 24 51 56 51c38 0 66 -31 66 -81c0 -55 -25 -100 -64 -122z" />
    <glyph glyph-name="lacute" unicode="&#x13a;" horiz-adv-x="242" 
d="M65 0v724h112v-724h-112zM111 774l-49 42c49 40 107 104 138 159l83 -72c-45 -56 -114 -101 -172 -129z" />
    <glyph glyph-name="uni013C" unicode="&#x13c;" horiz-adv-x="242" 
d="M65 0v724h112v-724h-112zM56 -215c29 8 67 23 73 63c-3 -1 -7 -1 -10 -1c-30 0 -54 19 -54 50c0 34 24 51 56 51c38 0 66 -31 66 -81c0 -55 -25 -100 -64 -122z" />
    <glyph glyph-name="nacute" unicode="&#x144;" horiz-adv-x="553" 
d="M491 319v-319h-111v298c0 84 -32 122 -95 122c-68 0 -109 -54 -109 -124v-296h-111v504h111l-6 -86h2c22 45 68 98 154 98c101 0 165 -68 165 -197zM269 554l-49 42c49 40 107 104 138 159l83 -72c-45 -56 -114 -101 -172 -129z" />
    <glyph glyph-name="ncaron" unicode="&#x148;" horiz-adv-x="553" 
d="M491 319v-319h-111v298c0 84 -32 122 -95 122c-68 0 -109 -54 -109 -124v-296h-111v504h111l-6 -86h2c22 45 68 98 154 98c101 0 165 -68 165 -197zM277 640h3c28 33 66 66 109 86l58 -71c-59 -28 -95 -49 -131 -93h-75c-36 44 -72 65 -131 93l58 71
c43 -20 81 -53 109 -86z" />
    <glyph glyph-name="ntilde" unicode="&#xf1;" horiz-adv-x="553" 
d="M491 319v-319h-111v298c0 84 -32 122 -95 122c-68 0 -109 -54 -109 -124v-296h-111v504h111l-6 -86h2c22 45 68 98 154 98c101 0 165 -68 165 -197zM349 570c-64 0 -94 53 -129 53c-24 0 -31 -25 -33 -52l-74 41c7 52 43 98 96 98c64 0 94 -53 129 -53c24 0 31 25 33 52
l74 -42c-7 -51 -43 -97 -96 -97z" />
    <glyph glyph-name="uni0146" unicode="&#x146;" horiz-adv-x="553" 
d="M491 319v-319h-111v298c0 84 -32 122 -95 122c-68 0 -109 -54 -109 -124v-296h-111v504h111l-6 -86h2c22 45 68 98 154 98c101 0 165 -68 165 -197zM214 -215c29 8 67 23 73 63c-3 -1 -7 -1 -10 -1c-30 0 -54 19 -54 50c0 34 24 51 56 51c38 0 66 -31 66 -81
c0 -55 -25 -100 -64 -122z" />
    <glyph glyph-name="napostrophe" unicode="&#x149;" horiz-adv-x="789" 
d="M129 704c48 0 84 -37 84 -108c0 -86 -38 -145 -82 -177l-71 43c36 21 80 54 87 108c-6 -1 -11 -1 -16 -1c-39 0 -71 26 -71 67c0 40 29 68 69 68zM727 319v-319h-111v298c0 84 -32 122 -95 122c-68 0 -109 -54 -109 -124v-296h-111v504h111l-6 -86h2c22 45 68 98 154 98
c101 0 165 -68 165 -197z" />
    <glyph glyph-name="ograve" unicode="&#xf2;" horiz-adv-x="547" 
d="M274 -12c-139 0 -236 106 -236 264s97 264 236 264s235 -106 235 -264s-96 -264 -235 -264zM150 252c0 -97 40 -175 124 -175c83 0 124 78 124 175s-41 175 -124 175c-84 0 -124 -78 -124 -175zM332 596l-49 -42c-57 28 -126 73 -172 129l83 72c31 -55 89 -119 138 -159z
" />
    <glyph glyph-name="oacute" unicode="&#xf3;" horiz-adv-x="547" 
d="M274 -12c-139 0 -236 106 -236 264s97 264 236 264s235 -106 235 -264s-96 -264 -235 -264zM150 252c0 -97 40 -175 124 -175c83 0 124 78 124 175s-41 175 -124 175c-84 0 -124 -78 -124 -175zM264 554l-49 42c49 40 107 104 138 159l83 -72
c-45 -56 -114 -101 -172 -129z" />
    <glyph glyph-name="ohungarumlaut" unicode="&#x151;" horiz-adv-x="547" 
d="M274 -12c-139 0 -236 106 -236 264s97 264 236 264s235 -106 235 -264s-96 -264 -235 -264zM150 252c0 -97 40 -175 124 -175c83 0 124 78 124 175s-41 175 -124 175c-84 0 -124 -78 -124 -175zM183 554l-48 42c48 40 98 105 128 160l80 -70c-45 -57 -104 -104 -160 -132
zM357 554l-48 42c48 40 104 105 134 160l79 -70c-44 -57 -109 -104 -165 -132z" />
    <glyph glyph-name="odieresis" unicode="&#xf6;" horiz-adv-x="547" 
d="M274 -12c-139 0 -236 106 -236 264s97 264 236 264s235 -106 235 -264s-96 -264 -235 -264zM150 252c0 -97 40 -175 124 -175c83 0 124 78 124 175s-41 175 -124 175c-84 0 -124 -78 -124 -175zM180 708c38 0 66 -27 66 -65c0 -39 -28 -66 -66 -66c-39 0 -66 27 -66 66
c0 38 27 65 66 65zM368 708c38 0 66 -27 66 -65c0 -39 -28 -66 -66 -66c-39 0 -66 27 -66 66c0 38 27 65 66 65z" />
    <glyph glyph-name="ocircumflex" unicode="&#xf4;" horiz-adv-x="547" 
d="M274 -12c-139 0 -236 106 -236 264s97 264 236 264s235 -106 235 -264s-96 -264 -235 -264zM150 252c0 -97 40 -175 124 -175c83 0 124 78 124 175s-41 175 -124 175c-84 0 -124 -78 -124 -175zM275 635h-3c-28 -33 -66 -65 -109 -86l-58 72c59 27 95 50 131 93h75
c36 -43 72 -66 131 -93l-58 -72c-43 21 -81 53 -109 86z" />
    <glyph glyph-name="omacron" unicode="&#x14d;" horiz-adv-x="547" 
d="M274 -12c-139 0 -236 106 -236 264s97 264 236 264s235 -106 235 -264s-96 -264 -235 -264zM150 252c0 -97 40 -175 124 -175c83 0 124 78 124 175s-41 175 -124 175c-84 0 -124 -78 -124 -175zM143 593v90h262v-90h-262z" />
    <glyph glyph-name="obreve" unicode="&#x14f;" horiz-adv-x="547" 
d="M274 -12c-139 0 -236 106 -236 264s97 264 236 264s235 -106 235 -264s-96 -264 -235 -264zM150 252c0 -97 40 -175 124 -175c83 0 124 78 124 175s-41 175 -124 175c-84 0 -124 -78 -124 -175zM274 559c-75 0 -138 42 -148 123l87 29v-7c0 -40 19 -68 61 -68
c41 0 60 28 60 68v7l88 -29c-11 -81 -74 -123 -148 -123z" />
    <glyph glyph-name="otilde" unicode="&#xf5;" horiz-adv-x="547" 
d="M274 -12c-139 0 -236 106 -236 264s97 264 236 264s235 -106 235 -264s-96 -264 -235 -264zM150 252c0 -97 40 -175 124 -175c83 0 124 78 124 175s-41 175 -124 175c-84 0 -124 -78 -124 -175zM344 570c-64 0 -94 53 -129 53c-24 0 -31 -25 -33 -52l-74 41
c7 52 43 98 96 98c64 0 94 -53 129 -53c24 0 31 25 33 52l74 -42c-7 -51 -43 -97 -96 -97z" />
    <glyph glyph-name="oslashacute" unicode="&#x1ff;" horiz-adv-x="557" 
d="M279 -12c-46 0 -88 12 -122 32l-44 -57l-74 55l52 66c-31 44 -48 101 -48 168c0 158 97 264 236 264c45 0 86 -11 120 -32l46 59l73 -55l-52 -68c30 -44 48 -101 48 -168c0 -158 -97 -264 -235 -264zM207 94c19 -13 42 -20 72 -20c88 0 132 79 132 178c0 34 -4 64 -13 90
zM147 252c0 -34 3 -64 12 -90l191 248c-19 13 -43 20 -71 20c-89 0 -132 -79 -132 -178zM269 554l-49 42c49 40 107 104 138 159l83 -72c-45 -56 -114 -101 -172 -129z" />
    <glyph glyph-name="racute" unicode="&#x155;" horiz-adv-x="426" 
d="M65 0v504h111l-6 -86h2c22 53 63 95 125 95c70 0 113 -59 113 -132c0 -30 -5 -54 -5 -54l-103 -61c2 7 9 46 9 79c0 39 -16 72 -56 72c-55 0 -79 -57 -79 -129v-288h-111zM226 554l-49 42c49 40 107 104 138 159l83 -72c-45 -56 -114 -101 -172 -129z" />
    <glyph glyph-name="rcaron" unicode="&#x159;" horiz-adv-x="426" 
d="M65 0v504h111l-6 -86h2c22 53 63 95 125 95c70 0 113 -59 113 -132c0 -30 -5 -54 -5 -54l-103 -61c2 7 9 46 9 79c0 39 -16 72 -56 72c-55 0 -79 -57 -79 -129v-288h-111zM234 640h3c28 33 66 66 109 86l58 -71c-59 -28 -95 -49 -131 -93h-75c-36 44 -72 65 -131 93
l58 71c43 -20 81 -53 109 -86z" />
    <glyph glyph-name="uni0157" unicode="&#x157;" horiz-adv-x="426" 
d="M65 0v504h111l-6 -86h2c22 53 63 95 125 95c70 0 113 -59 113 -132c0 -30 -5 -54 -5 -54l-103 -61c2 7 9 46 9 79c0 39 -16 72 -56 72c-55 0 -79 -57 -79 -129v-288h-111zM56 -215c29 8 67 23 73 63c-3 -1 -7 -1 -10 -1c-30 0 -54 19 -54 50c0 34 24 51 56 51
c38 0 66 -31 66 -81c0 -55 -25 -100 -64 -122z" />
    <glyph glyph-name="sacute" unicode="&#x15b;" horiz-adv-x="502" 
d="M273 72c46 0 85 22 85 64c0 51 -62 62 -130 81c-76 20 -173 55 -173 151c0 91 88 148 184 148c100 0 189 -50 225 -124l-98 -57c-11 51 -55 97 -122 97c-42 0 -81 -20 -81 -59c0 -49 75 -55 148 -78c82 -26 155 -60 155 -153c0 -96 -90 -154 -190 -154
c-123 0 -210 56 -244 144l100 57c11 -62 58 -117 141 -117zM240 554l-49 42c49 40 107 104 138 159l83 -72c-45 -56 -114 -101 -172 -129z" />
    <glyph glyph-name="scaron" unicode="&#x161;" horiz-adv-x="502" 
d="M273 72c46 0 85 22 85 64c0 51 -62 62 -130 81c-76 20 -173 55 -173 151c0 91 88 148 184 148c100 0 189 -50 225 -124l-98 -57c-11 51 -55 97 -122 97c-42 0 -81 -20 -81 -59c0 -49 75 -55 148 -78c82 -26 155 -60 155 -153c0 -96 -90 -154 -190 -154
c-123 0 -210 56 -244 144l100 57c11 -62 58 -117 141 -117zM248 640h3c28 33 66 66 109 86l58 -71c-59 -28 -95 -49 -131 -93h-75c-36 44 -72 65 -131 93l58 71c43 -20 81 -53 109 -86z" />
    <glyph glyph-name="scircumflex" unicode="&#x15d;" horiz-adv-x="502" 
d="M273 72c46 0 85 22 85 64c0 51 -62 62 -130 81c-76 20 -173 55 -173 151c0 91 88 148 184 148c100 0 189 -50 225 -124l-98 -57c-11 51 -55 97 -122 97c-42 0 -81 -20 -81 -59c0 -49 75 -55 148 -78c82 -26 155 -60 155 -153c0 -96 -90 -154 -190 -154
c-123 0 -210 56 -244 144l100 57c11 -62 58 -117 141 -117zM251 635h-3c-28 -33 -66 -65 -109 -86l-58 72c59 27 95 50 131 93h75c36 -43 72 -66 131 -93l-58 -72c-43 21 -81 53 -109 86z" />
    <glyph glyph-name="uni0219" unicode="&#x219;" horiz-adv-x="502" 
d="M273 72c46 0 85 22 85 64c0 51 -62 62 -130 81c-76 20 -173 55 -173 151c0 91 88 148 184 148c100 0 189 -50 225 -124l-98 -57c-11 51 -55 97 -122 97c-42 0 -81 -20 -81 -59c0 -49 75 -55 148 -78c82 -26 155 -60 155 -153c0 -96 -90 -154 -190 -154
c-123 0 -210 56 -244 144l100 57c11 -62 58 -117 141 -117zM200 -215c29 8 67 23 73 63c-3 -1 -7 -1 -10 -1c-30 0 -54 19 -54 50c0 34 24 51 56 51c38 0 66 -31 66 -81c0 -55 -25 -100 -64 -122z" />
    <glyph glyph-name="uni015F" unicode="&#x15f;" horiz-adv-x="502" 
d="M273 72c46 0 85 22 85 64c0 51 -62 62 -130 81c-76 20 -173 55 -173 151c0 91 88 148 184 148c100 0 189 -50 225 -124l-98 -57c-11 51 -55 97 -122 97c-42 0 -81 -20 -81 -59c0 -49 75 -55 148 -78c82 -26 155 -60 155 -153c0 -90 -78 -146 -170 -153l-7 -25
c47 -5 89 -35 89 -84c0 -56 -53 -88 -109 -88c-51 0 -90 22 -113 55l63 43c10 -26 27 -41 51 -41c20 0 36 12 36 32s-16 33 -36 33c-15 0 -25 -9 -25 -9l-43 37l27 49c-98 12 -168 64 -197 141l100 57c11 -62 58 -117 141 -117z" />
    <glyph glyph-name="uni021B" unicode="&#x21b;" horiz-adv-x="353" 
d="M295 120l49 -84c-17 -20 -59 -48 -114 -48c-75 0 -130 36 -130 140v287h-87v89h87v109l108 65v-174h123v-89h-123v-277c0 -43 14 -58 40 -58c25 0 40 23 47 40zM150 -215c29 8 67 23 73 63c-3 -1 -7 -1 -10 -1c-30 0 -54 19 -54 50c0 34 24 51 56 51c38 0 66 -31 66 -81
c0 -55 -25 -100 -64 -122z" />
    <glyph glyph-name="uni0163" unicode="&#x163;" horiz-adv-x="353" 
d="M295 120l49 -84c-16 -18 -51 -43 -98 -47l-7 -25c47 -5 89 -35 89 -84c0 -56 -53 -88 -109 -88c-51 0 -90 22 -113 55l63 43c10 -26 27 -41 51 -41c20 0 36 12 36 32s-16 33 -36 33c-15 0 -25 -9 -25 -9l-43 37l29 53c-49 14 -81 53 -81 133v287h-87v89h87v109l108 65
v-174h123v-89h-123v-277c0 -43 14 -58 40 -58c25 0 40 23 47 40z" />
    <glyph glyph-name="ugrave" unicode="&#xf9;" horiz-adv-x="546" 
d="M62 185v319h111v-298c0 -84 28 -122 91 -122c69 0 106 57 106 129v291h111v-504h-111l7 86h-3c-22 -45 -65 -98 -150 -98c-101 0 -162 68 -162 197zM330 596l-49 -42c-57 28 -126 73 -172 129l83 72c31 -55 89 -119 138 -159z" />
    <glyph glyph-name="uacute" unicode="&#xfa;" horiz-adv-x="546" 
d="M62 185v319h111v-298c0 -84 28 -122 91 -122c69 0 106 57 106 129v291h111v-504h-111l7 86h-3c-22 -45 -65 -98 -150 -98c-101 0 -162 68 -162 197zM262 554l-49 42c49 40 107 104 138 159l83 -72c-45 -56 -114 -101 -172 -129z" />
    <glyph glyph-name="uhungarumlaut" unicode="&#x171;" horiz-adv-x="546" 
d="M62 185v319h111v-298c0 -84 28 -122 91 -122c69 0 106 57 106 129v291h111v-504h-111l7 86h-3c-22 -45 -65 -98 -150 -98c-101 0 -162 68 -162 197zM181 554l-48 42c48 40 98 105 128 160l80 -70c-45 -57 -104 -104 -160 -132zM355 554l-48 42c48 40 104 105 134 160
l79 -70c-44 -57 -109 -104 -165 -132z" />
    <glyph glyph-name="udieresis" unicode="&#xfc;" horiz-adv-x="546" 
d="M62 185v319h111v-298c0 -84 28 -122 91 -122c69 0 106 57 106 129v291h111v-504h-111l7 86h-3c-22 -45 -65 -98 -150 -98c-101 0 -162 68 -162 197zM178 708c38 0 66 -27 66 -65c0 -39 -28 -66 -66 -66c-39 0 -66 27 -66 66c0 38 27 65 66 65zM366 708
c38 0 66 -27 66 -65c0 -39 -28 -66 -66 -66c-39 0 -66 27 -66 66c0 38 27 65 66 65z" />
    <glyph glyph-name="ucircumflex" unicode="&#xfb;" horiz-adv-x="546" 
d="M62 185v319h111v-298c0 -84 28 -122 91 -122c69 0 106 57 106 129v291h111v-504h-111l7 86h-3c-22 -45 -65 -98 -150 -98c-101 0 -162 68 -162 197zM273 635h-3c-28 -33 -66 -65 -109 -86l-58 72c59 27 95 50 131 93h75c36 -43 72 -66 131 -93l-58 -72
c-43 21 -81 53 -109 86z" />
    <glyph glyph-name="umacron" unicode="&#x16b;" horiz-adv-x="546" 
d="M62 185v319h111v-298c0 -84 28 -122 91 -122c69 0 106 57 106 129v291h111v-504h-111l7 86h-3c-22 -45 -65 -98 -150 -98c-101 0 -162 68 -162 197zM141 593v90h262v-90h-262z" />
    <glyph glyph-name="utilde" unicode="&#x169;" horiz-adv-x="546" 
d="M62 185v319h111v-298c0 -84 28 -122 91 -122c69 0 106 57 106 129v291h111v-504h-111l7 86h-3c-22 -45 -65 -98 -150 -98c-101 0 -162 68 -162 197zM342 570c-64 0 -94 53 -129 53c-24 0 -31 -25 -33 -52l-74 41c7 52 43 98 96 98c64 0 94 -53 129 -53c24 0 31 25 33 52
l74 -42c-7 -51 -43 -97 -96 -97z" />
    <glyph glyph-name="ubreve" unicode="&#x16d;" horiz-adv-x="546" 
d="M62 185v319h111v-298c0 -84 28 -122 91 -122c69 0 106 57 106 129v291h111v-504h-111l7 86h-3c-22 -45 -65 -98 -150 -98c-101 0 -162 68 -162 197zM272 559c-75 0 -138 42 -148 123l87 29v-7c0 -40 19 -68 61 -68c41 0 60 28 60 68v7l88 -29c-11 -81 -74 -123 -148 -123
z" />
    <glyph glyph-name="uring" unicode="&#x16f;" horiz-adv-x="546" 
d="M62 185v319h111v-298c0 -84 28 -122 91 -122c69 0 106 57 106 129v291h111v-504h-111l7 86h-3c-22 -45 -65 -98 -150 -98c-101 0 -162 68 -162 197zM272 708c-27 0 -46 -20 -46 -47c0 -28 19 -48 46 -48s45 21 45 48s-18 47 -45 47zM272 769c60 0 114 -43 114 -108
c0 -66 -54 -108 -114 -108c-61 0 -115 42 -115 108c0 65 54 108 115 108z" />
    <glyph glyph-name="uogonek" unicode="&#x173;" horiz-adv-x="546" 
d="M62 185v319h111v-298c0 -84 28 -122 91 -122c69 0 106 57 106 129v291h111v-504c-37 -19 -101 -60 -101 -103c0 -20 13 -33 34 -33c24 0 40 20 47 42l73 -48c-24 -36 -69 -66 -127 -66c-65 0 -109 38 -109 92c0 45 31 79 60 105l15 14l4 83h-3c-22 -45 -65 -98 -150 -98
c-101 0 -162 68 -162 197z" />
    <glyph glyph-name="wgrave" unicode="&#x1e81;" horiz-adv-x="728" 
d="M254 308l51 196h123l51 -196c19 -73 44 -194 44 -194h3s21 121 35 194l37 196h109l-113 -504h-130l-57 230c-17 69 -41 166 -41 166h-2s-24 -97 -41 -166l-56 -230h-133l-113 504h114l37 -196c14 -73 35 -194 35 -194h3s26 121 44 194zM422 596l-49 -42
c-57 28 -126 73 -172 129l83 72c31 -55 89 -119 138 -159z" />
    <glyph glyph-name="wacute" unicode="&#x1e83;" horiz-adv-x="728" 
d="M254 308l51 196h123l51 -196c19 -73 44 -194 44 -194h3s21 121 35 194l37 196h109l-113 -504h-130l-57 230c-17 69 -41 166 -41 166h-2s-24 -97 -41 -166l-56 -230h-133l-113 504h114l37 -196c14 -73 35 -194 35 -194h3s26 121 44 194zM354 554l-49 42
c49 40 107 104 138 159l83 -72c-45 -56 -114 -101 -172 -129z" />
    <glyph glyph-name="wdieresis" unicode="&#x1e85;" horiz-adv-x="728" 
d="M254 308l51 196h123l51 -196c19 -73 44 -194 44 -194h3s21 121 35 194l37 196h109l-113 -504h-130l-57 230c-17 69 -41 166 -41 166h-2s-24 -97 -41 -166l-56 -230h-133l-113 504h114l37 -196c14 -73 35 -194 35 -194h3s26 121 44 194zM270 708c38 0 66 -27 66 -65
c0 -39 -28 -66 -66 -66c-39 0 -66 27 -66 66c0 38 27 65 66 65zM458 708c38 0 66 -27 66 -65c0 -39 -28 -66 -66 -66c-39 0 -66 27 -66 66c0 38 27 65 66 65z" />
    <glyph glyph-name="wcircumflex" unicode="&#x175;" horiz-adv-x="728" 
d="M254 308l51 196h123l51 -196c19 -73 44 -194 44 -194h3s21 121 35 194l37 196h109l-113 -504h-130l-57 230c-17 69 -41 166 -41 166h-2s-24 -97 -41 -166l-56 -230h-133l-113 504h114l37 -196c14 -73 35 -194 35 -194h3s26 121 44 194zM365 635h-3
c-28 -33 -66 -65 -109 -86l-58 72c59 27 95 50 131 93h75c36 -43 72 -66 131 -93l-58 -72c-43 21 -81 53 -109 86z" />
    <glyph glyph-name="ygrave" unicode="&#x1ef3;" horiz-adv-x="479" 
d="M244 132h3s21 78 39 138l72 234h113l-177 -524c-25 -75 -65 -155 -153 -188l-89 75c64 17 115 55 137 120l3 11l-184 506h118l75 -231c19 -58 43 -141 43 -141zM298 596l-49 -42c-57 28 -126 73 -172 129l83 72c31 -55 89 -119 138 -159z" />
    <glyph glyph-name="yacute" unicode="&#xfd;" horiz-adv-x="479" 
d="M244 132h3s21 78 39 138l72 234h113l-177 -524c-25 -75 -65 -155 -153 -188l-89 75c64 17 115 55 137 120l3 11l-184 506h118l75 -231c19 -58 43 -141 43 -141zM230 554l-49 42c49 40 107 104 138 159l83 -72c-45 -56 -114 -101 -172 -129z" />
    <glyph glyph-name="ydieresis" unicode="&#xff;" horiz-adv-x="479" 
d="M244 132h3s21 78 39 138l72 234h113l-177 -524c-25 -75 -65 -155 -153 -188l-89 75c64 17 115 55 137 120l3 11l-184 506h118l75 -231c19 -58 43 -141 43 -141zM146 708c38 0 66 -27 66 -65c0 -39 -28 -66 -66 -66c-39 0 -66 27 -66 66c0 38 27 65 66 65zM334 708
c38 0 66 -27 66 -65c0 -39 -28 -66 -66 -66c-39 0 -66 27 -66 66c0 38 27 65 66 65z" />
    <glyph glyph-name="ycircumflex" unicode="&#x177;" horiz-adv-x="479" 
d="M244 132h3s21 78 39 138l72 234h113l-177 -524c-25 -75 -65 -155 -153 -188l-89 75c64 17 115 55 137 120l3 11l-184 506h118l75 -231c19 -58 43 -141 43 -141zM241 635h-3c-28 -33 -66 -65 -109 -86l-58 72c59 27 95 50 131 93h75c36 -43 72 -66 131 -93l-58 -72
c-43 21 -81 53 -109 86z" />
    <glyph glyph-name="zacute" unicode="&#x17a;" horiz-adv-x="469" 
d="M42 415v89h385v-65l-249 -350h258v-89h-398v65l249 350h-245zM225 554l-49 42c49 40 107 104 138 159l83 -72c-45 -56 -114 -101 -172 -129z" />
    <glyph glyph-name="zdotaccent" unicode="&#x17c;" horiz-adv-x="469" 
d="M42 415v89h385v-65l-249 -350h258v-89h-398v65l249 350h-245zM235 712c39 0 69 -28 69 -67c0 -40 -30 -68 -69 -68c-40 0 -70 28 -70 68c0 39 30 67 70 67z" />
    <glyph glyph-name="zcaron" unicode="&#x17e;" horiz-adv-x="469" 
d="M42 415v89h385v-65l-249 -350h258v-89h-398v65l249 350h-245zM233 640h3c28 33 66 66 109 86l58 -71c-59 -28 -95 -49 -131 -93h-75c-36 44 -72 65 -131 93l58 71c43 -20 81 -53 109 -86z" />
    <glyph glyph-name="uni00A0" unicode="&#xa0;" horiz-adv-x="227" 
 />
    <glyph glyph-name="uni00AD.case" horiz-adv-x="339" 
d="M302 308h-265v93h265v-93z" />
    <glyph glyph-name="Ldot.latn_CAT" horiz-adv-x="523" 
d="M72 0v692h116v-588h318v-104h-434zM346 421c39 0 69 -28 69 -67c0 -40 -30 -68 -69 -68c-40 0 -70 28 -70 68c0 39 30 67 70 67z" />
    <glyph glyph-name="ldot.latn_CAT" horiz-adv-x="422" 
d="M65 0v724h112v-724h-112zM324 377c39 0 69 -28 69 -67c0 -40 -30 -68 -69 -68c-40 0 -70 28 -70 68c0 39 30 67 70 67z" />
    <glyph glyph-name="i.latn_TRK" horiz-adv-x="242" 
d="M65 0v504h112v-504h-112zM121 712c39 0 69 -28 69 -67c0 -40 -30 -68 -69 -68c-40 0 -70 28 -70 68c0 39 30 67 70 67z" />
    <glyph glyph-name="uni2007" unicode="&#x2007;" horiz-adv-x="608" 
 />
    <glyph glyph-name="uni2007.tosf" horiz-adv-x="608" 
 />
    <glyph glyph-name="uni2008" unicode="&#x2008;" horiz-adv-x="271" 
 />
    <glyph glyph-name="space.frac" horiz-adv-x="227" 
 />
    <glyph glyph-name="uniFEFF" unicode="&#xfeff;" horiz-adv-x="0" 
 />
    <glyph glyph-name="uni200B" unicode="&#x200b;" horiz-adv-x="0" 
 />
    </font>
</defs>
</svg>
