<?xml version="1.0" standalone="no"?>
<!DOCTYPE svg PUBLIC "-//W3C//DTD SVG 1.1//EN" "http://www.w3.org/Graphics/SVG/1.1/DTD/svg11.dtd" >
<svg xmlns="http://www.w3.org/2000/svg" xmlns:xlink="http://www.w3.org/1999/xlink" version="1.1">
<metadata>
Created by FontForge 20170924 at Mon Feb 13 15:47:46 2017
 By www-data
Copyright (c) 2017. All rights reserved. Helsinki Grotesk is a customized version of Graebenbach for the City of Helsinki. Graebenbach is a design by Wolfgang Schwaerzler, published by Camelot Typefaces. www.camelot-typefaces.com
</metadata>
<defs>
<font id="HelsinkiGrotesk-BlackItalic" horiz-adv-x="600" >
  <font-face 
    font-family="Helsinki Grotesk Black"
    font-weight="900"
    font-style="italic"
    font-stretch="normal"
    units-per-em="1000"
    panose-1="2 11 0 3 4 2 2 0 0 3"
    ascent="736"
    descent="-264"
    x-height="504"
    cap-height="692"
    bbox="-210 -275 1367 996"
    underline-thickness="50"
    underline-position="-200"
    slope="-12"
    stemh="132"
    stemv="180"
    unicode-range="U+0020-FEFF"
  />
<missing-glyph 
d="M0 0l147 692h504l-147 -692h-504zM484 566h-131l69 -293zM228 414l-62 -291h129z" />
    <glyph glyph-name="f_j" unicode="fj" horiz-adv-x="615" 
d="M34 0l79 372h-70l28 132h70l3 14c35 164 141 218 273 218c100 0 179 -40 215 -108l-176 -97s1 5 1 14c0 29 -14 58 -53 58c-40 0 -69 -23 -84 -95l-1 -4h86l-28 -132h-86l-79 -372h-178zM324 -208l-137 122c79 10 138 29 160 133l97 457h182l-103 -489
c-26 -123 -88 -201 -199 -223z" />
    <glyph glyph-name="f_adieresis" unicode="f&#xe4;" horiz-adv-x="936" 
d="M420 573c-8 13 -20 26 -43 26c-32 0 -42 -21 -49 -53l-9 -42h97l-28 -132h-97l-79 -372h-178l79 372h-70l28 132h70l12 55c25 120 110 177 222 177c50 0 99 -18 126 -34l-75 -139zM629 516c64 0 105 -42 118 -90h4l17 78h179l-76 -359c-8 -40 -20 -87 -20 -115
c0 -16 4 -30 4 -30h-135c-16 24 -21 50 -21 75v5h-4c-30 -47 -73 -92 -149 -92c-108 0 -159 110 -159 210c0 148 90 318 242 318zM624 128c73 0 100 103 100 167c0 48 -17 81 -57 81c-72 0 -100 -103 -100 -167c0 -48 17 -81 57 -81zM540 622c0 56 41 99 99 99
c47 0 77 -30 77 -74c0 -56 -41 -99 -99 -99c-47 0 -77 30 -77 74zM753 622c0 56 41 99 99 99c47 0 77 -30 77 -74c0 -56 -41 -99 -99 -99c-47 0 -77 30 -77 74z" />
    <glyph glyph-name="f_odieresis" unicode="f&#xf6;" horiz-adv-x="915" 
d="M420 573c-8 13 -20 26 -43 26c-32 0 -42 -21 -49 -53l-9 -42h97l-28 -132h-97l-79 -372h-178l79 372h-70l28 132h70l12 55c25 120 110 177 222 177c50 0 99 -18 126 -34l-75 -139zM383 203c0 172 106 313 294 313c128 0 225 -87 225 -215c0 -172 -106 -313 -294 -313
c-128 0 -225 87 -225 215zM563 197c0 -45 17 -77 57 -77c72 0 102 115 102 187c0 45 -18 77 -58 77c-73 0 -101 -115 -101 -187zM527 622c0 56 41 99 99 99c47 0 77 -30 77 -74c0 -56 -41 -99 -99 -99c-47 0 -77 30 -77 74zM740 622c0 56 41 99 99 99c47 0 77 -30 77 -74
c0 -56 -41 -99 -99 -99c-47 0 -77 30 -77 74z" />
    <glyph glyph-name="f_udieresis" unicode="f&#xfc;" horiz-adv-x="937" 
d="M420 573c-8 13 -20 26 -43 26c-32 0 -42 -21 -49 -53l-9 -42h97l-28 -132h-97l-79 -372h-178l79 372h-70l28 132h70l12 55c25 120 110 177 222 177c50 0 99 -18 126 -34l-75 -139zM412 185l68 319h180l-61 -288c-3 -13 -5 -27 -5 -39c0 -24 9 -43 41 -43
c48 0 64 43 74 91l59 279h180l-107 -504h-180l27 80h-4c-36 -48 -83 -92 -155 -92c-76 0 -124 53 -124 133c0 19 2 41 7 64zM545 622c0 56 41 99 99 99c47 0 77 -30 77 -74c0 -56 -41 -99 -99 -99c-47 0 -77 30 -77 74zM758 622c0 56 41 99 99 99c47 0 77 -30 77 -74
c0 -56 -41 -99 -99 -99c-47 0 -77 30 -77 74z" />
    <glyph glyph-name="f_b" unicode="fb" horiz-adv-x="957" 
d="M420 573c-8 13 -20 26 -43 26c-32 0 -42 -21 -49 -53l-9 -42h97l-28 -132h-97l-79 -372h-178l79 372h-70l28 132h70l12 55c25 120 110 177 222 177c50 0 99 -18 126 -34l-75 -139zM537 724h180l-36 -167c-12 -56 -37 -128 -37 -128h4c31 41 71 87 136 87
c108 0 159 -110 159 -210c0 -148 -90 -318 -242 -318c-68 0 -110 45 -124 97h-4l-18 -85h-172zM706 376c-73 0 -100 -103 -100 -167c0 -48 17 -81 57 -81c72 0 100 103 100 167c0 48 -17 81 -57 81z" />
    <glyph glyph-name="f_h" unicode="fh" horiz-adv-x="949" 
d="M420 573c-8 13 -20 26 -43 26c-32 0 -42 -21 -49 -53l-9 -42h97l-28 -132h-97l-79 -372h-178l79 372h-70l28 132h70l12 55c25 120 110 177 222 177c50 0 99 -18 126 -34l-75 -139zM923 319l-68 -319h-180l61 288c3 13 5 27 5 39c0 24 -11 43 -43 43
c-48 0 -66 -43 -76 -91l-59 -279h-180l154 724h180l-38 -176c-13 -64 -36 -124 -36 -124h4c36 48 85 92 157 92c76 0 126 -53 126 -133c0 -19 -2 -41 -7 -64z" />
    <glyph glyph-name="f_k" unicode="fk" horiz-adv-x="947" 
d="M420 573c-8 13 -20 26 -43 26c-32 0 -42 -21 -49 -53l-9 -42h97l-28 -132h-97l-79 -372h-178l79 372h-70l28 132h70l12 55c25 120 110 177 222 177c50 0 99 -18 126 -34l-75 -139zM1006 504l-212 -200l112 -304h-190l-63 175l-69 -71l-21 -104h-180l154 724h180l-63 -297
c-14 -64 -35 -124 -35 -124h4s39 55 72 91l100 110h211z" />
    <glyph glyph-name="f_t" unicode="ft" horiz-adv-x="734" 
d="M424 564c0 25 -12 44 -41 44c-32 0 -47 -25 -54 -57l-10 -47h82l-28 -132h-82l-79 -372h-178l79 372h-70l28 132h70l12 55c26 120 111 177 227 177c70 0 120 -24 156 -59l-112 -116v3zM661 155l36 -129c-26 -17 -74 -38 -134 -38c-88 0 -143 48 -143 124c0 15 2 32 6 51
l44 209h-58l28 132h58l20 93l198 95l-40 -188h102l-28 -132h-102l-41 -194c-1 -5 -3 -13 -3 -21c0 -16 10 -23 23 -23c17 0 27 13 34 21z" />
    <glyph glyph-name="t_t" unicode="tt" horiz-adv-x="738" 
d="M300 155l36 -129c-26 -17 -74 -38 -134 -38c-88 0 -143 48 -143 124c0 15 2 32 6 51l44 209h-72l28 132h72l20 93l198 95l-40 -188h86l-28 -132h-86l-41 -194c-1 -5 -3 -13 -3 -21c0 -16 10 -23 23 -23c17 0 27 13 34 21zM665 155l36 -129c-26 -17 -74 -38 -134 -38
c-88 0 -143 48 -143 124c0 15 2 32 6 51l44 209h-62l28 132h62l20 93l198 95l-40 -188h102l-28 -132h-102l-41 -194c-1 -5 -3 -13 -3 -21c0 -16 10 -23 23 -23c17 0 27 13 34 21z" />
    <glyph glyph-name="f_f_j" unicode="ffj" horiz-adv-x="1022" 
d="M424 564c0 25 -12 44 -41 44c-32 0 -47 -25 -54 -57l-10 -47h82l-28 -132h-82l-79 -372h-178l79 372h-70l28 132h70l12 55c26 120 111 177 227 177c70 0 120 -24 156 -59l-112 -116v3zM781 573c-8 13 -20 26 -43 26c-32 0 -42 -21 -49 -53l-9 -42h100l-28 -132h-100
l-79 -372h-178l79 372h-62l28 132h62l12 55c25 120 110 177 222 177c50 0 99 -18 126 -34l-75 -139zM731 -208l-137 122c79 10 138 29 160 133l97 457h182l-103 -489c-26 -123 -88 -201 -199 -223zM869 631c0 60 46 103 110 103c52 0 90 -36 90 -84
c0 -59 -47 -102 -111 -102c-52 0 -89 35 -89 83z" />
    <glyph glyph-name="f_f_adieresis" unicode="ff&#xe4;" horiz-adv-x="1297" 
d="M424 564c0 25 -12 44 -41 44c-32 0 -47 -25 -54 -57l-10 -47h82l-28 -132h-82l-79 -372h-178l79 372h-70l28 132h70l12 55c26 120 111 177 227 177c70 0 120 -24 156 -59l-112 -116v3zM781 573c-8 13 -20 26 -43 26c-32 0 -42 -21 -49 -53l-9 -42h100l-28 -132h-100
l-79 -372h-178l79 372h-62l28 132h62l12 55c25 120 110 177 222 177c50 0 99 -18 126 -34l-75 -139zM990 516c64 0 105 -42 118 -90h4l17 78h179l-76 -359c-8 -40 -20 -87 -20 -115c0 -16 4 -30 4 -30h-135c-16 24 -21 50 -21 75v5h-4c-30 -47 -73 -92 -149 -92
c-108 0 -159 110 -159 210c0 148 90 318 242 318zM985 128c73 0 100 103 100 167c0 48 -17 81 -57 81c-72 0 -100 -103 -100 -167c0 -48 17 -81 57 -81zM901 622c0 56 41 99 99 99c47 0 77 -30 77 -74c0 -56 -41 -99 -99 -99c-47 0 -77 30 -77 74zM1114 622
c0 56 41 99 99 99c47 0 77 -30 77 -74c0 -56 -41 -99 -99 -99c-47 0 -77 30 -77 74z" />
    <glyph glyph-name="f_f_odieresis" unicode="ff&#xf6;" horiz-adv-x="1276" 
d="M424 564c0 25 -12 44 -41 44c-32 0 -47 -25 -54 -57l-10 -47h82l-28 -132h-82l-79 -372h-178l79 372h-70l28 132h70l12 55c26 120 111 177 227 177c70 0 120 -24 156 -59l-112 -116v3zM781 573c-8 13 -20 26 -43 26c-32 0 -42 -21 -49 -53l-9 -42h100l-28 -132h-100
l-79 -372h-178l79 372h-62l28 132h62l12 55c25 120 110 177 222 177c50 0 99 -18 126 -34l-75 -139zM744 203c0 172 106 313 294 313c128 0 225 -87 225 -215c0 -172 -106 -313 -294 -313c-128 0 -225 87 -225 215zM924 197c0 -45 17 -77 57 -77c72 0 102 115 102 187
c0 45 -18 77 -58 77c-73 0 -101 -115 -101 -187zM888 622c0 56 41 99 99 99c47 0 77 -30 77 -74c0 -56 -41 -99 -99 -99c-47 0 -77 30 -77 74zM1101 622c0 56 41 99 99 99c47 0 77 -30 77 -74c0 -56 -41 -99 -99 -99c-47 0 -77 30 -77 74z" />
    <glyph glyph-name="f_f_udieresis" unicode="ff&#xfc;" horiz-adv-x="1298" 
d="M424 564c0 25 -12 44 -41 44c-32 0 -47 -25 -54 -57l-10 -47h82l-28 -132h-82l-79 -372h-178l79 372h-70l28 132h70l12 55c26 120 111 177 227 177c70 0 120 -24 156 -59l-112 -116v3zM781 573c-8 13 -20 26 -43 26c-32 0 -42 -21 -49 -53l-9 -42h100l-28 -132h-100
l-79 -372h-178l79 372h-62l28 132h62l12 55c25 120 110 177 222 177c50 0 99 -18 126 -34l-75 -139zM773 185l68 319h180l-61 -288c-3 -13 -5 -27 -5 -39c0 -24 9 -43 41 -43c48 0 64 43 74 91l59 279h180l-107 -504h-180l27 80h-4c-36 -48 -83 -92 -155 -92
c-76 0 -124 53 -124 133c0 19 2 41 7 64zM906 622c0 56 41 99 99 99c47 0 77 -30 77 -74c0 -56 -41 -99 -99 -99c-47 0 -77 30 -77 74zM1119 622c0 56 41 99 99 99c47 0 77 -30 77 -74c0 -56 -41 -99 -99 -99c-47 0 -77 30 -77 74z" />
    <glyph glyph-name="f_f_b" unicode="ffb" horiz-adv-x="1318" 
d="M424 564c0 25 -12 44 -41 44c-32 0 -47 -25 -54 -57l-10 -47h82l-28 -132h-82l-79 -372h-178l79 372h-70l28 132h70l12 55c26 120 111 177 227 177c70 0 120 -24 156 -59l-112 -116v3zM781 573c-8 13 -20 26 -43 26c-32 0 -42 -21 -49 -53l-9 -42h100l-28 -132h-100
l-79 -372h-178l79 372h-62l28 132h62l12 55c25 120 110 177 222 177c50 0 99 -18 126 -34l-75 -139zM898 724h180l-36 -167c-12 -56 -37 -128 -37 -128h4c31 41 71 87 136 87c108 0 159 -110 159 -210c0 -148 -90 -318 -242 -318c-68 0 -110 45 -124 97h-4l-18 -85h-172z
M1067 376c-73 0 -100 -103 -100 -167c0 -48 17 -81 57 -81c72 0 100 103 100 167c0 48 -17 81 -57 81z" />
    <glyph glyph-name="f_f_h" unicode="ffh" horiz-adv-x="1310" 
d="M424 564c0 25 -12 44 -41 44c-32 0 -47 -25 -54 -57l-10 -47h82l-28 -132h-82l-79 -372h-178l79 372h-70l28 132h70l12 55c26 120 111 177 227 177c70 0 120 -24 156 -59l-112 -116v3zM781 573c-8 13 -20 26 -43 26c-32 0 -42 -21 -49 -53l-9 -42h100l-28 -132h-100
l-79 -372h-178l79 372h-62l28 132h62l12 55c25 120 110 177 222 177c50 0 99 -18 126 -34l-75 -139zM1284 319l-68 -319h-180l61 288c3 13 5 27 5 39c0 24 -11 43 -43 43c-48 0 -66 -43 -76 -91l-59 -279h-180l154 724h180l-38 -176c-13 -64 -36 -124 -36 -124h4
c36 48 85 92 157 92c76 0 126 -53 126 -133c0 -19 -2 -41 -7 -64z" />
    <glyph glyph-name="f_f_k" unicode="ffk" horiz-adv-x="1308" 
d="M424 564c0 25 -12 44 -41 44c-32 0 -47 -25 -54 -57l-10 -47h82l-28 -132h-82l-79 -372h-178l79 372h-70l28 132h70l12 55c26 120 111 177 227 177c70 0 120 -24 156 -59l-112 -116v3zM781 573c-8 13 -20 26 -43 26c-32 0 -42 -21 -49 -53l-9 -42h100l-28 -132h-100
l-79 -372h-178l79 372h-62l28 132h62l12 55c25 120 110 177 222 177c50 0 99 -18 126 -34l-75 -139zM1367 504l-212 -200l112 -304h-190l-63 175l-69 -71l-21 -104h-180l154 724h180l-63 -297c-14 -64 -35 -124 -35 -124h4s39 55 72 91l100 110h211z" />
    <glyph glyph-name="f_f_t" unicode="fft" horiz-adv-x="1095" 
d="M424 564c0 25 -12 44 -41 44c-32 0 -47 -25 -54 -57l-10 -47h82l-28 -132h-82l-79 -372h-178l79 372h-70l28 132h70l12 55c26 120 111 177 227 177c70 0 120 -24 156 -59l-112 -116v3zM785 564c0 25 -12 44 -41 44c-32 0 -47 -25 -54 -57l-10 -47h82l-28 -132h-82
l-79 -372h-178l79 372h-62l28 132h62l12 55c26 120 111 177 227 177c70 0 120 -24 156 -59l-112 -116v3zM1022 155l36 -129c-26 -17 -74 -38 -134 -38c-88 0 -143 48 -143 124c0 15 2 32 6 51l44 209h-58l28 132h58l20 93l198 95l-40 -188h102l-28 -132h-102l-41 -194
c-1 -5 -3 -13 -3 -21c0 -16 10 -23 23 -23c17 0 27 13 34 21z" />
    <glyph glyph-name="f_f" unicode="ff" horiz-adv-x="736" 
d="M777 568c0 22 -12 40 -36 40c-32 0 -44 -25 -51 -57l-10 -47h98l-28 -132h-98l-79 -372h-178l79 372h-62l28 132h62l12 55c26 120 109 177 233 177c84 0 153 -38 185 -96l-156 -86s1 7 1 14zM424 564c0 25 -12 44 -41 44c-32 0 -47 -25 -54 -57l-10 -47h82l-28 -132h-82
l-79 -372h-178l79 372h-70l28 132h70l12 55c26 120 111 177 227 177c70 0 120 -24 156 -59l-112 -116v3z" />
    <glyph glyph-name="f_f_i" unicode="ffi" horiz-adv-x="1022" 
d="M424 564c0 25 -12 44 -41 44c-32 0 -47 -25 -54 -57l-10 -47h82l-28 -132h-82l-79 -372h-178l79 372h-70l28 132h70l12 55c26 120 111 177 227 177c70 0 120 -24 156 -59l-112 -116v3zM781 573c-8 13 -20 26 -43 26c-32 0 -42 -21 -49 -53l-9 -42h100l-28 -132h-100
l-79 -372h-178l79 372h-62l28 132h62l12 55c25 120 110 177 222 177c50 0 99 -18 126 -34l-75 -139zM744 0l107 504h182l-107 -504h-182zM869 631c0 60 46 103 110 103c52 0 90 -36 90 -84c0 -59 -47 -102 -111 -102c-52 0 -89 35 -89 83z" />
    <glyph glyph-name="f_f_l" unicode="ffl" horiz-adv-x="1022" 
d="M424 564c0 25 -12 44 -41 44c-32 0 -47 -25 -54 -57l-10 -47h82l-28 -132h-82l-79 -372h-178l79 372h-70l28 132h70l12 55c26 120 111 177 227 177c70 0 120 -24 156 -59l-112 -116v3zM781 573c-8 13 -20 26 -43 26c-32 0 -42 -21 -49 -53l-9 -42h100l-28 -132h-100
l-79 -372h-178l79 372h-62l28 132h62l12 55c25 120 110 177 222 177c50 0 99 -18 126 -34l-75 -139zM744 0l153 724h182l-153 -724h-182z" />
    <glyph glyph-name="f_i" unicode="fi" horiz-adv-x="615" 
d="M34 0l79 372h-70l28 132h70l3 14c35 164 141 218 273 218c100 0 179 -40 215 -108l-176 -97s1 5 1 14c0 29 -14 58 -53 58c-40 0 -69 -23 -84 -95l-1 -4h86l-28 -132h-86l-79 -372h-178zM337 0l107 504h182l-107 -504h-182z" />
    <glyph glyph-name="f_l" unicode="fl" horiz-adv-x="619" 
d="M341 0l112 527c3 15 3 20 3 28c0 32 -21 49 -53 49c-43 0 -67 -22 -79 -76l-5 -24h86l-28 -132h-86l-79 -372h-178l78 372h-69l28 132h69l11 49c24 116 97 183 205 183c65 0 112 -36 129 -68h4l12 56h176l-154 -724h-182z" />
    <glyph glyph-name=".notdef" 
d="M0 0l147 692h504l-147 -692h-504zM484 566h-131l69 -293zM228 414l-62 -291h129z" />
    <glyph glyph-name="space" unicode=" " horiz-adv-x="220" 
 />
    <glyph glyph-name="at" unicode="@" horiz-adv-x="830" 
d="M398 439c44 0 72 -27 86 -55h4l9 47h131l-42 -201c-2 -8 -4 -21 -4 -27c0 -20 9 -29 29 -29c64 0 85 101 85 147c0 132 -88 213 -228 213c-180 0 -316 -148 -316 -324c0 -137 89 -232 221 -232c108 0 169 40 199 80l119 -82c-45 -50 -158 -110 -326 -110
c-208 0 -341 139 -341 344c0 247 203 436 455 436c200 0 343 -127 343 -323c0 -120 -73 -247 -233 -247c-55 0 -99 19 -117 56h-3c-17 -29 -55 -56 -107 -56c-80 0 -126 71 -126 155c0 91 59 208 162 208zM407 178c44 0 61 67 61 107c0 26 -8 51 -32 51
c-44 0 -61 -67 -61 -107c0 -26 8 -51 32 -51z" />
    <glyph glyph-name="A" unicode="A" horiz-adv-x="693" 
d="M462 0l-13 132h-231l-69 -132h-197l380 692h227l86 -692h-183zM371 425l-74 -141h137l-14 141c-3 33 -6 87 -6 87h-4s-18 -47 -39 -87z" />
    <glyph glyph-name="B" unicode="B" horiz-adv-x="648" 
d="M4 0l147 692h285c132 0 237 -63 237 -175c0 -80 -58 -137 -144 -163l-1 -4c39 -14 102 -56 102 -136c0 -140 -127 -214 -299 -214h-327zM390 424c56 0 93 25 93 71c0 30 -20 50 -68 50h-111l-26 -121h112zM356 147c56 0 90 28 90 76c0 32 -18 54 -66 54h-133l-28 -130
h137z" />
    <glyph glyph-name="C" unicode="C" horiz-adv-x="651" 
d="M421 704c144 0 266 -99 266 -215v-2l-186 -102s4 20 4 40c0 64 -30 116 -98 116c-116 0 -170 -134 -170 -258c0 -80 39 -132 111 -132c78 0 126 73 136 161l158 -113c-36 -112 -152 -211 -308 -211c-184 0 -288 135 -288 299c0 224 139 417 375 417z" />
    <glyph glyph-name="D" unicode="D" horiz-adv-x="694" 
d="M305 0h-301l147 692h246c196 0 302 -128 302 -288c0 -220 -140 -404 -394 -404zM333 159c120 0 175 129 175 249c0 74 -43 125 -117 125h-88l-79 -374h109z" />
    <glyph glyph-name="E" unicode="E" horiz-adv-x="578" 
d="M4 0l147 692h494l-33 -157h-310l-23 -108h290l-33 -153h-290l-25 -117h318l-33 -157h-502z" />
    <glyph glyph-name="F" unicode="F" horiz-adv-x="554" 
d="M4 0l147 692h482l-34 -159h-296l-24 -116h276l-33 -155h-276l-56 -262h-186z" />
    <glyph glyph-name="G" unicode="G" horiz-adv-x="686" 
d="M427 704c144 0 253 -64 278 -164l2 -8l-183 -100v7c0 52 -33 104 -109 104c-121 0 -178 -135 -178 -260c0 -85 34 -138 110 -138c81 0 120 66 131 113h-167l31 149h335l-86 -407h-153l25 72h-4c-28 -34 -81 -84 -173 -84c-140 0 -240 110 -240 286c0 236 140 430 381 430
z" />
    <glyph glyph-name="H" unicode="H" horiz-adv-x="701" 
d="M413 0l57 268h-225l-57 -268h-186l147 692h186l-55 -259h225l55 259h186l-147 -692h-186z" />
    <glyph glyph-name="I" unicode="I" horiz-adv-x="292" 
d="M4 0l147 692h188l-147 -692h-188z" />
    <glyph glyph-name="J" unicode="J" horiz-adv-x="594" 
d="M42 285l202 105c-17 -48 -39 -101 -39 -161c0 -44 17 -78 65 -78c52 0 82 41 100 123l89 418h186l-89 -415c-43 -202 -147 -289 -303 -289c-140 0 -225 85 -225 213c0 41 14 84 14 84z" />
    <glyph glyph-name="K" unicode="K" horiz-adv-x="664" 
d="M4 0l147 692h186l-40 -189c-13 -61 -33 -131 -33 -131h4s60 90 116 155l144 165h230l-279 -296l143 -396h-195l-88 252l-123 -129l-26 -123h-186z" />
    <glyph glyph-name="L" unicode="L" horiz-adv-x="538" 
d="M4 0l147 692h188l-112 -527h282l-35 -165h-470z" />
    <glyph glyph-name="M" unicode="M" horiz-adv-x="868" 
d="M425 214h4s29 73 50 117l174 361h262l-147 -692h-175l66 314c13 60 35 144 35 144h-4s-26 -57 -47 -101l-174 -357h-174l-17 357c-2 44 -4 109 -4 109h-4s-14 -92 -27 -152l-67 -314h-172l147 692h256l16 -362c2 -39 2 -116 2 -116z" />
    <glyph glyph-name="N" unicode="N" horiz-adv-x="717" 
d="M617 0h-232l-81 322c-11 46 -30 144 -30 144h-4s-15 -97 -28 -159l-65 -307h-173l147 692h232l81 -322c11 -46 34 -144 34 -144h4s12 97 25 159l65 307h172z" />
    <glyph glyph-name="O" unicode="O" horiz-adv-x="703" 
d="M334 -12c-184 0 -288 135 -288 299c0 224 139 417 375 417c184 0 288 -135 288 -299c0 -224 -139 -417 -375 -417zM237 283c0 -80 39 -132 111 -132c116 0 170 134 170 258c0 80 -39 132 -111 132c-116 0 -170 -134 -170 -258z" />
    <glyph glyph-name="P" unicode="P" horiz-adv-x="640" 
d="M4 0l147 692h293c140 0 241 -81 241 -205c0 -148 -122 -249 -306 -249h-139l-50 -238h-186zM399 395c56 0 97 29 97 81c0 36 -21 59 -71 59h-121l-30 -140h125z" />
    <glyph glyph-name="Q" unicode="Q" horiz-adv-x="707" 
d="M334 -12c-184 0 -288 135 -288 299c0 224 139 417 375 417c184 0 288 -135 288 -299c0 -143 -64 -275 -175 -348l1 -3c14 5 28 8 48 8c54 0 99 -19 134 -64l-157 -124c-31 63 -98 114 -226 114zM237 283c0 -80 39 -132 111 -132c116 0 170 134 170 258
c0 80 -39 132 -111 132c-116 0 -170 -134 -170 -258z" />
    <glyph glyph-name="R" unicode="R" horiz-adv-x="651" 
d="M4 0l147 692h291c140 0 241 -79 241 -203c0 -105 -65 -184 -172 -218l79 -271h-186l-69 252h-94l-53 -252h-184zM398 401c56 0 97 29 97 81c0 36 -21 59 -71 59h-121l-30 -140h125z" />
    <glyph glyph-name="S" unicode="S" horiz-adv-x="612" 
d="M415 200c0 44 -76 66 -164 98c-90 33 -162 93 -162 185c0 140 125 221 273 221c140 0 251 -70 295 -178l-168 -95v3c0 52 -52 121 -136 121c-40 0 -80 -19 -80 -55c0 -44 78 -54 162 -90c91 -39 164 -88 164 -188c0 -144 -125 -234 -273 -234c-172 0 -296 77 -324 205
l169 95v-2c0 -68 55 -149 159 -149c44 0 85 21 85 63z" />
    <glyph glyph-name="T" unicode="T" horiz-adv-x="583" 
d="M72 527l35 165h567l-35 -165h-190l-112 -527h-188l112 527h-189z" />
    <glyph glyph-name="U" unicode="U" horiz-adv-x="685" 
d="M649 285c-45 -200 -145 -297 -340 -297c-152 0 -252 100 -252 232c0 31 2 57 9 91l81 381h186l-86 -405c-4 -19 -6 -35 -6 -49c0 -52 24 -87 88 -87c76 0 117 46 133 124l88 417h186z" />
    <glyph glyph-name="V" unicode="V" horiz-adv-x="665" 
d="M290 692l23 -393c3 -43 3 -107 3 -107h4s24 67 43 107l190 393h209l-366 -692h-227l-72 692h193z" />
    <glyph glyph-name="W" unicode="W" horiz-adv-x="869" 
d="M623 692l-14 -366c-2 -45 -7 -128 -7 -128h4s15 67 30 113l119 381h203l-263 -692h-227l12 329c2 60 7 131 7 131h-4s-23 -71 -47 -131l-131 -329h-227l35 692h192l-43 -381c-5 -46 -13 -113 -13 -113h4s25 83 42 128l143 366h185z" />
    <glyph glyph-name="X" unicode="X" horiz-adv-x="660" 
d="M328 246c0 0 -32 -55 -61 -98l-101 -148h-208l275 367l-122 325h196l45 -136c15 -45 30 -94 30 -94h4s28 51 59 96l93 134h203l-265 -355l136 -337h-194l-58 155c-15 41 -28 91 -28 91h-4z" />
    <glyph glyph-name="Y" unicode="Y" horiz-adv-x="638" 
d="M180 0l52 245l-139 447h196l47 -185c12 -48 18 -90 18 -90h4s20 41 53 90l126 185h210l-326 -442l-53 -250h-188z" />
    <glyph glyph-name="Z" unicode="Z" horiz-adv-x="586" 
d="M-24 0l23 108l361 421h-262l35 163h523l-25 -118l-353 -411h275l-35 -163h-542z" />
    <glyph glyph-name="ampersand" unicode="&#x26;" horiz-adv-x="680" 
d="M388 348c17 -43 40 -85 65 -121c39 50 63 112 86 185l136 -85c-39 -72 -86 -130 -142 -183c10 -9 22 -13 36 -13c20 0 35 14 42 23l34 -131c-27 -16 -69 -35 -118 -35c-57 0 -93 21 -122 46c-53 -28 -112 -46 -175 -46c-145 0 -223 65 -223 157c0 113 89 185 193 237
c-7 31 -11 61 -11 88c0 133 95 234 239 234c100 0 167 -49 167 -125c0 -109 -113 -177 -207 -231zM322 123c-33 45 -62 97 -85 149c-26 -24 -44 -53 -44 -89c0 -43 33 -69 81 -69c15 0 32 3 48 9zM356 486c0 -14 1 -29 4 -44c43 25 93 60 93 103c0 20 -14 33 -34 33
c-44 0 -63 -49 -63 -92z" />
    <glyph glyph-name="AE" unicode="&#xc6;" horiz-adv-x="872" 
d="M362 0l29 140h-158l-86 -140h-211l447 692h556l-33 -153h-250l-24 -114h230l-31 -149h-230l-27 -123h258l-32 -153h-438zM426 455l-103 -167h100l53 251h-4s-21 -44 -46 -84z" />
    <glyph glyph-name="OE" unicode="&#x152;" horiz-adv-x="892" 
d="M421 704c34 0 66 -5 96 -12h442l-33 -153h-250l-24 -114h230l-31 -149h-230l-27 -123h258l-32 -153h-417c-24 -7 -50 -12 -77 -12c-179 0 -280 135 -280 299c0 224 139 417 375 417zM493 523c-21 15 -50 24 -84 24c-116 0 -174 -140 -174 -264c0 -80 40 -138 112 -138
c27 0 50 7 69 19z" />
    <glyph glyph-name="Eth" unicode="&#xd0;" horiz-adv-x="748" 
d="M359 0h-301l60 285h-86l28 131h86l59 276h246c196 0 302 -128 302 -288c0 -220 -140 -404 -394 -404zM386 157c120 0 176 131 176 251c0 74 -42 127 -116 127h-92l-26 -119h131l-28 -131h-131l-27 -128h113z" />
    <glyph glyph-name="Dcroat" unicode="&#x110;" horiz-adv-x="748" 
d="M359 0h-301l60 285h-86l28 131h86l59 276h246c196 0 302 -128 302 -288c0 -220 -140 -404 -394 -404zM386 157c120 0 176 131 176 251c0 74 -42 127 -116 127h-92l-26 -119h131l-28 -131h-131l-27 -128h113z" />
    <glyph glyph-name="Hbar" unicode="&#x126;" horiz-adv-x="797" 
d="M830 476h-81l-101 -476h-182l53 252h-233l-53 -252h-182l101 476h-79l28 131h79l18 85h182l-18 -85h233l18 85h182l-18 -85h81zM320 409h233l14 67h-233z" />
    <glyph glyph-name="IJ" unicode="&#x132;" horiz-adv-x="609" 
d="M60 166l178 68s-2 -18 -2 -30c0 -31 17 -55 57 -55c48 0 76 42 90 109l91 434h186l-87 -410c-47 -220 -156 -294 -304 -294c-131 0 -209 81 -209 173v5zM58 274l89 418h186l-89 -418h-186z" />
    <glyph glyph-name="Lslash" unicode="&#x141;" horiz-adv-x="616" 
d="M82 0l46 219l-74 -31l-50 133l160 67l65 304h182l-47 -220l133 56l50 -133l-219 -92l-30 -142h288l-34 -161h-470z" />
    <glyph glyph-name="Ldot" unicode="&#x13f;" horiz-adv-x="542" 
d="M312 341c0 60 46 103 110 103c52 0 90 -36 90 -84c0 -59 -47 -102 -111 -102c-52 0 -89 35 -89 83zM4 0l147 692h188l-112 -527h282l-35 -165h-470z" />
    <glyph glyph-name="Lcaron" unicode="&#x13d;" horiz-adv-x="551" 
d="M4 0l147 692h188l-112 -527h282l-35 -165h-470zM374 527c36 3 88 7 107 54h-10c-32 0 -58 18 -58 54c0 45 36 72 84 72s75 -35 75 -79c0 -84 -45 -140 -113 -156z" />
    <glyph glyph-name="Eng" unicode="&#x14a;" horiz-adv-x="738" 
d="M149 -87l160 101c3 -28 15 -71 59 -71c38 0 61 23 73 57l-119 342c-15 42 -47 140 -47 140h-4s-12 -97 -25 -159l-69 -323h-173l147 692h225l94 -265c18 -50 40 -123 40 -123h4s15 92 28 154l50 234h172l-138 -644c-37 -173 -119 -257 -279 -257c-86 0 -174 51 -198 122z
" />
    <glyph glyph-name="Oslash" unicode="&#xd8;" horiz-adv-x="723" 
d="M344 -12c-64 0 -118 16 -161 44l-68 -70l-106 107l77 79c-19 41 -28 89 -28 139c0 224 137 417 373 417c63 0 116 -16 159 -44l71 72l106 -107l-78 -81c18 -41 28 -89 28 -139c0 -224 -137 -417 -373 -417zM292 156c17 -11 37 -17 62 -17c121 0 182 140 182 268v2z
M239 285v-2l243 253c-17 11 -37 17 -61 17c-121 0 -182 -140 -182 -268z" />
    <glyph glyph-name="Tbar" unicode="&#x166;" horiz-adv-x="591" 
d="M77 531l34 161h567l-34 -161h-190l-31 -146h112l-28 -131h-112l-54 -254h-188l54 254h-111l28 131h111l31 146h-189z" />
    <glyph glyph-name="Thorn" unicode="&#xde;" horiz-adv-x="640" 
d="M4 0l147 692h186l-22 -102h107c140 0 241 -81 241 -205c0 -148 -122 -249 -306 -249h-138l-29 -136h-186zM377 293c56 0 97 29 97 81c0 36 -21 59 -71 59h-121l-30 -140h125z" />
    <glyph glyph-name="Uogonek" unicode="&#x172;" horiz-adv-x="685" 
d="M649 285c-45 -200 -134 -240 -186 -277c-30 -21 -105 -58 -105 -98c0 -17 13 -27 29 -27c24 0 40 20 47 41l95 -60c-30 -44 -88 -72 -156 -72c-72 0 -128 40 -128 92c0 44 34 76 75 100l1 4h-12c-152 0 -252 100 -252 232c0 31 2 57 9 91l81 381h186l-86 -405
c-4 -19 -6 -35 -6 -49c0 -52 24 -87 88 -87c76 0 117 46 133 124l88 417h186z" />
    <glyph glyph-name="a" unicode="a" horiz-adv-x="573" 
d="M266 516c64 0 105 -42 118 -90h4l17 78h179l-76 -359c-8 -40 -20 -87 -20 -115c0 -16 4 -30 4 -30h-135c-16 24 -21 50 -21 75v5h-4c-30 -47 -73 -92 -149 -92c-108 0 -159 110 -159 210c0 148 90 318 242 318zM261 128c73 0 100 103 100 167c0 48 -17 81 -57 81
c-72 0 -100 -103 -100 -167c0 -48 17 -81 57 -81z" />
    <glyph glyph-name="b" unicode="b" horiz-adv-x="574" 
d="M154 724h180l-36 -167c-12 -56 -37 -128 -37 -128h4c31 41 71 87 136 87c108 0 159 -110 159 -210c0 -148 -90 -318 -242 -318c-68 0 -110 45 -124 97h-4l-18 -85h-172zM323 376c-73 0 -100 -103 -100 -167c0 -48 17 -81 57 -81c72 0 100 103 100 167c0 48 -17 81 -57 81
z" />
    <glyph glyph-name="c" unicode="c" horiz-adv-x="513" 
d="M301 384c-73 0 -97 -115 -97 -187c0 -45 13 -77 53 -77c49 0 72 54 76 110l154 -81c-26 -77 -116 -161 -244 -161s-219 93 -219 213c0 172 104 315 292 315c112 0 205 -68 205 -164v-1l-175 -76s8 23 8 51c0 32 -17 58 -53 58z" />
    <glyph glyph-name="d" unicode="d" horiz-adv-x="573" 
d="M323 75h-4c-31 -41 -71 -87 -136 -87c-108 0 -159 110 -159 210c0 148 90 318 242 318c64 0 105 -42 118 -90h4l63 298h180l-154 -724h-179zM261 128c73 0 100 103 100 167c0 48 -17 81 -57 81c-72 0 -100 -103 -100 -167c0 -48 17 -81 57 -81z" />
    <glyph glyph-name="e" unicode="e" horiz-adv-x="530" 
d="M492 202h-306v-10c0 -52 22 -78 66 -78s71 24 86 63l144 -83c-52 -71 -143 -106 -235 -106c-136 0 -223 83 -223 215c0 172 106 313 294 313c120 0 206 -73 206 -189c0 -48 -16 -91 -32 -125zM304 392c-46 0 -76 -35 -94 -78h153s2 7 2 20c0 36 -21 58 -61 58z" />
    <glyph glyph-name="f" unicode="f" horiz-adv-x="375" 
d="M416 568c0 22 -12 40 -36 40c-32 0 -44 -25 -51 -57l-10 -47h97l-28 -132h-97l-79 -372h-178l79 372h-70l28 132h70l12 55c26 120 109 177 233 177c84 0 153 -38 185 -96l-156 -86s1 7 1 14z" />
    <glyph glyph-name="g" unicode="g" horiz-adv-x="542" 
d="M49 16l1 4c-28 10 -56 36 -56 72c0 68 75 102 137 111l1 4c-37 19 -71 64 -71 120c0 120 113 189 237 189c44 0 78 -5 108 -5c70 0 70 78 70 125l141 -89c-12 -56 -52 -105 -115 -105c-11 0 -27 2 -33 4l-1 -4c23 -22 41 -56 41 -102c0 -120 -144 -179 -256 -179
c-46 0 -99 -6 -99 -36c0 -16 15 -22 39 -22c38 0 83 7 134 7c109 0 178 -47 178 -123c0 -156 -179 -189 -323 -189c-141 0 -255 42 -255 115c0 62 61 94 122 103zM223 -27c-53 0 -141 -3 -141 -39c0 -24 43 -31 111 -31c45 0 131 3 131 43c0 24 -41 27 -101 27zM297 402
c-44 0 -79 -29 -79 -73c0 -36 23 -55 59 -55c44 0 79 29 79 73c0 36 -23 55 -59 55z" />
    <glyph glyph-name="h" unicode="h" horiz-adv-x="566" 
d="M540 319l-68 -319h-180l61 288c3 13 5 27 5 39c0 24 -11 43 -43 43c-48 0 -66 -43 -76 -91l-59 -279h-180l154 724h180l-38 -176c-13 -64 -36 -124 -36 -124h4c36 48 85 92 157 92c76 0 126 -53 126 -133c0 -19 -2 -41 -7 -64z" />
    <glyph glyph-name="i" unicode="i" horiz-adv-x="278" 
d="M0 0l107 504h182l-107 -504h-182zM123 631c0 60 46 103 110 103c52 0 90 -36 90 -84c0 -59 -47 -102 -111 -102c-52 0 -89 35 -89 83z" />
    <glyph glyph-name="j" unicode="j" horiz-adv-x="286" 
d="M-5 -208l-137 122c79 10 138 29 160 133l97 457h182l-103 -489c-26 -123 -88 -201 -199 -223zM133 631c0 60 46 103 110 103c52 0 90 -36 90 -84c0 -59 -47 -102 -111 -102c-52 0 -89 35 -89 83z" />
    <glyph glyph-name="k" unicode="k" horiz-adv-x="564" 
d="M623 504l-212 -200l112 -304h-190l-63 175l-69 -71l-21 -104h-180l154 724h180l-63 -297c-14 -64 -35 -124 -35 -124h4s39 55 72 91l100 110h211z" />
    <glyph glyph-name="l" unicode="l" horiz-adv-x="278" 
d="M0 0l153 724h182l-153 -724h-182z" />
    <glyph glyph-name="m" unicode="m" horiz-adv-x="830" 
d="M804 319l-68 -319h-176l61 288c3 13 5 27 5 39c0 24 -10 43 -40 43c-46 0 -61 -43 -71 -91l-59 -279h-176l61 288c3 13 5 27 5 39c0 24 -10 43 -40 43c-46 0 -61 -43 -71 -91l-59 -279h-176l107 504h178l-27 -80h4c36 48 81 92 153 92c60 0 100 -34 114 -88h3
c34 48 75 88 155 88c81 0 124 -53 124 -133c0 -19 -2 -41 -7 -64z" />
    <glyph glyph-name="n" unicode="n" horiz-adv-x="566" 
d="M540 319l-68 -319h-180l61 288c3 13 5 27 5 39c0 24 -11 43 -43 43c-48 0 -66 -43 -76 -91l-59 -279h-180l107 504h180l-27 -80h4c36 48 85 92 157 92c76 0 126 -53 126 -133c0 -19 -2 -41 -7 -64z" />
    <glyph glyph-name="o" unicode="o" horiz-adv-x="556" 
d="M24 203c0 172 106 313 294 313c128 0 225 -87 225 -215c0 -172 -106 -313 -294 -313c-128 0 -225 87 -225 215zM204 197c0 -45 17 -77 57 -77c72 0 102 115 102 187c0 45 -18 77 -58 77c-73 0 -101 -115 -101 -187z" />
    <glyph glyph-name="p" unicode="p" horiz-adv-x="574" 
d="M261 429h4c31 41 71 87 136 87c108 0 159 -110 159 -210c0 -148 -90 -318 -242 -318c-64 0 -105 42 -118 90h-4l-58 -274h-180l149 700h179zM323 376c-73 0 -100 -103 -100 -167c0 -48 17 -81 57 -81c72 0 100 103 100 167c0 48 -17 81 -57 81z" />
    <glyph glyph-name="q" unicode="q" horiz-adv-x="574" 
d="M396 424l17 80h172l-149 -700h-180l32 147c14 64 35 124 35 124h-4c-31 -41 -71 -87 -136 -87c-108 0 -159 110 -159 210c0 148 90 318 242 318c68 0 112 -44 126 -92h4zM261 128c73 0 100 103 100 167c0 48 -17 81 -57 81c-72 0 -100 -103 -100 -167
c0 -48 17 -81 57 -81z" />
    <glyph glyph-name="r" unicode="r" horiz-adv-x="468" 
d="M0 0l107 504h180l-27 -80h4c34 48 82 92 142 92c56 0 85 -42 85 -98c0 -44 -13 -82 -21 -105l-176 -88c16 39 29 79 29 112c0 18 -6 33 -26 33c-28 0 -45 -30 -58 -90l-59 -280h-180z" />
    <glyph glyph-name="s" unicode="s" horiz-adv-x="507" 
d="M146 185c17 -45 46 -71 98 -71c28 0 51 12 51 33c0 28 -55 40 -109 56c-64 19 -127 54 -127 138c0 112 112 175 228 175s189 -46 235 -114l-150 -73c-10 33 -40 61 -88 61c-24 0 -47 -10 -47 -30c0 -24 51 -28 119 -53c62 -23 119 -55 119 -139
c0 -112 -115 -180 -231 -180c-123 0 -209 43 -250 123z" />
    <glyph glyph-name="t" unicode="t" horiz-adv-x="373" 
d="M300 155l36 -129c-26 -17 -74 -38 -134 -38c-88 0 -143 48 -143 124c0 15 2 32 6 51l44 209h-74l28 132h74l20 93l198 95l-40 -188h102l-28 -132h-102l-41 -194c-1 -5 -3 -13 -3 -21c0 -16 10 -23 23 -23c17 0 27 13 34 21z" />
    <glyph glyph-name="u" unicode="u" horiz-adv-x="562" 
d="M37 185l68 319h180l-61 -288c-3 -13 -5 -27 -5 -39c0 -24 9 -43 41 -43c48 0 64 43 74 91l59 279h180l-107 -504h-180l27 80h-4c-36 -48 -83 -92 -155 -92c-76 0 -124 53 -124 133c0 19 2 41 7 64z" />
    <glyph glyph-name="v" unicode="v" horiz-adv-x="512" 
d="M87 0l-40 504h184v-196c0 -50 -3 -152 -3 -152h4s33 92 59 152l85 196h191l-255 -504h-225z" />
    <glyph glyph-name="w" unicode="w" horiz-adv-x="769" 
d="M279 338l61 166h204l-9 -166c-4 -66 -14 -179 -14 -179h4s35 113 57 179l55 166h179l-202 -504h-215l10 225c2 55 6 124 6 124h-4s-25 -70 -45 -124l-85 -225h-222l12 504h177l-15 -166c-6 -66 -19 -179 -19 -179h4s37 113 61 179z" />
    <glyph glyph-name="x" unicode="x" horiz-adv-x="520" 
d="M247 180c0 0 -15 -39 -47 -92l-52 -88h-200l179 256l-61 248h187l12 -91c7 -54 11 -90 11 -90h4s14 36 44 90l51 91h197l-172 -253l76 -251h-189l-18 88c-10 51 -18 92 -18 92h-4z" />
    <glyph glyph-name="y" unicode="y" horiz-adv-x="516" 
d="M249 192h4s28 81 56 144l75 168h195l-283 -531c-43 -80 -89 -160 -181 -181l-141 117c58 12 114 31 147 91l6 11l-72 493h186l5 -160c2 -58 3 -152 3 -152z" />
    <glyph glyph-name="z" unicode="z" horiz-adv-x="491" 
d="M67 372l28 132h419l-21 -97l-248 -275h202l-28 -132h-435l20 97l248 275h-185z" />
    <glyph glyph-name="ae" unicode="&#xe6;" horiz-adv-x="834" 
d="M787 202h-302v-15c0 -53 34 -73 67 -73c47 0 67 25 81 64l141 -82c-34 -56 -90 -108 -183 -108c-58 0 -100 23 -121 70h-4l-12 -58h-172l12 58h-4c-25 -39 -59 -70 -116 -70c-98 0 -150 110 -150 210c0 148 85 318 227 318c56 0 96 -28 117 -82h4l15 70h172l-11 -50h5
c31 37 71 62 119 62c88 0 147 -73 147 -166c0 -50 -11 -101 -32 -148zM252 128c67 0 91 103 91 167c0 48 -14 81 -48 81c-66 0 -91 -103 -91 -167c0 -48 14 -81 48 -81zM599 392c-45 0 -73 -35 -91 -78h148c1 8 2 15 2 22c0 35 -20 56 -59 56z" />
    <glyph glyph-name="oe" unicode="&#x153;" horiz-adv-x="823" 
d="M24 203c0 172 100 313 278 313c59 0 109 -23 142 -62c43 39 101 62 171 62c120 0 202 -73 202 -189c0 -48 -16 -91 -32 -125h-298v-10c0 -52 18 -78 62 -78s67 24 82 63l144 -83c-52 -71 -139 -106 -231 -106c-62 0 -112 21 -145 60c-42 -38 -98 -60 -166 -60
c-118 0 -209 87 -209 215zM204 197c0 -45 15 -77 49 -77c66 0 94 115 94 187c0 45 -16 77 -50 77c-67 0 -93 -115 -93 -187zM601 392c-46 0 -75 -35 -92 -78h147s2 7 2 20c0 36 -17 58 -57 58z" />
    <glyph glyph-name="germandbls" unicode="&#xdf;" horiz-adv-x="580" 
d="M309 336l27 127c52 16 87 47 87 91c0 32 -19 50 -51 50c-44 0 -70 -30 -83 -90l-109 -514h-180l108 509c35 164 125 227 281 227c120 0 203 -70 203 -154c0 -76 -57 -134 -133 -157l-1 -4c51 -24 103 -73 103 -161c0 -156 -99 -272 -231 -272c-60 0 -105 19 -124 35
l68 128c4 -6 17 -22 37 -22c52 0 72 81 72 133c0 44 -22 73 -74 74z" />
    <glyph glyph-name="dotlessi" unicode="&#x131;" horiz-adv-x="278" 
d="M0 0l107 504h182l-107 -504h-182z" />
    <glyph glyph-name="dotlessj" unicode="&#xf6be;" horiz-adv-x="286" 
d="M-5 -208l-137 122c79 10 138 29 160 133l97 457h182l-103 -489c-26 -123 -88 -201 -199 -223z" />
    <glyph glyph-name="eth" unicode="&#xf0;" horiz-adv-x="568" 
d="M590 618l-81 -39c34 -52 54 -117 54 -189c0 -212 -104 -402 -316 -402c-133 0 -227 90 -227 212c0 144 105 253 249 253c56 0 107 -28 136 -68l5 2c-2 48 -15 90 -41 125l-106 -50l-69 97l86 42c-25 18 -53 34 -76 47l147 88c27 -15 56 -37 82 -60l86 43zM297 326
c-62 0 -103 -62 -103 -124c0 -49 24 -80 72 -80c63 0 103 64 103 126c0 48 -24 78 -72 78z" />
    <glyph glyph-name="dcroat" unicode="&#x111;" horiz-adv-x="590" 
d="M323 75h-4c-31 -41 -71 -87 -136 -87c-108 0 -159 110 -159 210c0 148 90 318 242 318c64 0 105 -42 118 -90h4l23 112h-94l26 119h94l14 67h176l-14 -67h77l-26 -119h-77l-114 -538h-175zM261 128c73 0 100 103 100 167c0 48 -17 81 -57 81c-72 0 -100 -103 -100 -167
c0 -48 17 -81 57 -81z" />
    <glyph glyph-name="dcaron" unicode="&#x10f;" horiz-adv-x="762" 
d="M323 75h-4c-31 -41 -71 -87 -136 -87c-108 0 -159 110 -159 210c0 148 90 318 242 318c64 0 105 -42 118 -90h4l63 298h180l-154 -724h-179zM261 128c73 0 100 103 100 167c0 48 -17 81 -57 81c-72 0 -100 -103 -100 -167c0 -48 17 -81 57 -81zM640 563c36 3 88 7 107 54
h-10c-32 0 -58 18 -58 54c0 45 36 72 84 72s75 -35 75 -79c0 -84 -45 -140 -113 -156z" />
    <glyph glyph-name="hbar" unicode="&#x127;" horiz-adv-x="559" 
d="M431 657l-26 -119h-103c-13 -60 -30 -114 -30 -114h4c36 48 85 92 157 92c76 0 126 -53 126 -133c0 -19 -2 -41 -7 -64l-68 -319h-180l61 288c3 13 5 27 5 39c0 24 -11 43 -43 43c-48 0 -66 -43 -76 -91l-59 -279h-180l114 538h-68l26 119h68l14 67h176l-15 -67h104z" />
    <glyph glyph-name="ij" unicode="&#x133;" horiz-adv-x="556" 
d="M0 0l107 504h182l-107 -504h-182zM265 -208l-137 122c79 10 138 29 160 133l97 457h182l-103 -489c-26 -123 -88 -201 -199 -223zM125 631c0 60 46 103 110 103c52 0 90 -36 90 -84c0 -59 -47 -102 -111 -102c-52 0 -89 35 -89 83zM403 631c0 60 46 103 110 103
c52 0 90 -36 90 -84c0 -59 -47 -102 -111 -102c-52 0 -89 35 -89 83z" />
    <glyph glyph-name="lslash" unicode="&#x142;" horiz-adv-x="438" 
d="M477 360l-158 -64l-63 -296h-178l46 217l-68 -27l-48 126l150 60l74 348h178l-57 -269l76 31z" />
    <glyph glyph-name="ldot" unicode="&#x140;" horiz-adv-x="500" 
d="M0 0l153 724h182l-153 -724h-182zM299 289c0 60 46 103 110 103c52 0 90 -36 90 -84c0 -59 -47 -102 -111 -102c-52 0 -89 35 -89 83z" />
    <glyph glyph-name="lcaron" unicode="&#x13e;" horiz-adv-x="468" 
d="M0 0l153 724h182l-153 -724h-182zM346 563c36 3 88 7 107 54h-10c-32 0 -58 18 -58 54c0 45 36 72 84 72s75 -35 75 -79c0 -84 -45 -140 -113 -156z" />
    <glyph glyph-name="eng" unicode="&#x14b;" horiz-adv-x="548" 
d="M277 -208l-137 122c79 10 140 29 162 133l51 241c3 13 5 27 5 39c0 24 -11 43 -43 43c-48 0 -66 -43 -76 -91l-59 -279h-180l107 504h180l-27 -80h4c36 48 85 92 157 92c76 0 126 -53 126 -133c0 -19 -2 -41 -7 -64l-64 -304c-26 -123 -88 -201 -199 -223z" />
    <glyph glyph-name="oslash" unicode="&#xf8;" horiz-adv-x="570" 
d="M90 -47l-99 98l59 58c-12 28 -19 59 -19 94c0 172 106 313 294 313c39 0 75 -8 106 -23l59 59l99 -98l-59 -59c13 -28 20 -59 20 -94c0 -172 -106 -313 -294 -313c-40 0 -76 9 -108 23zM229 119c11 -5 23 -7 39 -7c80 0 114 95 121 169zM312 392
c-81 0 -113 -94 -120 -167l158 160c-11 5 -23 7 -38 7z" />
    <glyph glyph-name="longs" unicode="&#x17f;" horiz-adv-x="281" 
d="M382 568c0 22 -10 40 -34 40c-32 0 -42 -25 -49 -57l-117 -551h-182l119 559c26 120 109 177 233 177c84 0 153 -38 185 -96l-156 -86s1 7 1 14z" />
    <glyph glyph-name="thorn" unicode="&#xfe;" horiz-adv-x="574" 
d="M296 548c-13 -64 -35 -119 -35 -119h4c31 41 71 87 136 87c108 0 159 -110 159 -210c0 -148 -90 -318 -242 -318c-64 0 -105 42 -118 90h-4l-58 -274h-180l196 920h180zM323 376c-73 0 -100 -103 -100 -167c0 -48 17 -81 57 -81c72 0 100 103 100 167c0 48 -17 81 -57 81
z" />
    <glyph glyph-name="tcaron" unicode="&#x165;" horiz-adv-x="545" 
d="M300 155l36 -129c-26 -17 -74 -38 -134 -38c-88 0 -143 48 -143 124c0 15 2 32 6 51l44 209h-74l28 132h74l20 93l198 95l-40 -188h102l-28 -132h-102l-41 -194c-1 -5 -3 -13 -3 -21c0 -16 10 -23 23 -23c17 0 27 13 34 21zM433 559c36 3 88 7 107 54h-10
c-32 0 -58 18 -58 54c0 45 36 72 84 72s75 -35 75 -79c0 -84 -45 -140 -113 -156z" />
    <glyph glyph-name="tbar" unicode="&#x167;" horiz-adv-x="419" 
d="M22 205l26 119h80l11 52h-74l28 128h74l20 93l194 95l-40 -188h106l-28 -128h-106l-11 -52h115l-26 -119h-114l-5 -27c-1 -5 -3 -13 -3 -21c0 -16 12 -23 25 -23c18 0 29 13 36 21l36 -129c-26 -17 -74 -38 -134 -38c-88 0 -143 48 -143 124c0 15 2 32 6 51l8 42h-81z
" />
    <glyph glyph-name="eogonek" unicode="&#x119;" horiz-adv-x="530" 
d="M157 -118c0 47 34 72 73 102l1 5c-127 6 -207 87 -207 214c0 172 106 313 294 313c120 0 206 -73 206 -189c0 -48 -16 -91 -32 -125h-306v-10c0 -52 22 -78 66 -78s71 24 86 63l4 -3v2l140 -82c-27 -38 -70 -65 -111 -85c-32 -16 -101 -59 -101 -100c0 -17 12 -26 29 -26
c24 0 40 20 47 41l95 -60c-30 -44 -88 -72 -156 -72c-72 0 -128 38 -128 90zM304 392c-46 0 -76 -35 -94 -78h153s2 7 2 20c0 36 -21 58 -61 58z" />
    <glyph glyph-name="uniFB00" unicode="&#xfb00;" horiz-adv-x="736" 
d="M777 568c0 22 -12 40 -36 40c-32 0 -44 -25 -51 -57l-10 -47h98l-28 -132h-98l-79 -372h-178l79 372h-62l28 132h62l12 55c26 120 109 177 233 177c84 0 153 -38 185 -96l-156 -86s1 7 1 14zM424 564c0 25 -12 44 -41 44c-32 0 -47 -25 -54 -57l-10 -47h82l-28 -132h-82
l-79 -372h-178l79 372h-70l28 132h70l12 55c26 120 111 177 227 177c70 0 120 -24 156 -59l-112 -116v3z" />
    <glyph glyph-name="fi" unicode="&#xfb01;" horiz-adv-x="615" 
d="M34 0l79 372h-70l28 132h70l3 14c35 164 141 218 273 218c100 0 179 -40 215 -108l-176 -97s1 5 1 14c0 29 -14 58 -53 58c-40 0 -69 -23 -84 -95l-1 -4h86l-28 -132h-86l-79 -372h-178zM337 0l107 504h182l-107 -504h-182z" />
    <glyph glyph-name="fl" unicode="&#xfb02;" horiz-adv-x="619" 
d="M341 0l112 527c3 15 3 20 3 28c0 32 -21 49 -53 49c-43 0 -67 -22 -79 -76l-5 -24h86l-28 -132h-86l-79 -372h-178l78 372h-69l28 132h69l11 49c24 116 97 183 205 183c65 0 112 -36 129 -68h4l12 56h176l-154 -724h-182z" />
    <glyph glyph-name="uniFB03" unicode="&#xfb03;" horiz-adv-x="1022" 
d="M424 564c0 25 -12 44 -41 44c-32 0 -47 -25 -54 -57l-10 -47h82l-28 -132h-82l-79 -372h-178l79 372h-70l28 132h70l12 55c26 120 111 177 227 177c70 0 120 -24 156 -59l-112 -116v3zM781 573c-8 13 -20 26 -43 26c-32 0 -42 -21 -49 -53l-9 -42h100l-28 -132h-100
l-79 -372h-178l79 372h-62l28 132h62l12 55c25 120 110 177 222 177c50 0 99 -18 126 -34l-75 -139zM744 0l107 504h182l-107 -504h-182zM869 631c0 60 46 103 110 103c52 0 90 -36 90 -84c0 -59 -47 -102 -111 -102c-52 0 -89 35 -89 83z" />
    <glyph glyph-name="uniFB04" unicode="&#xfb04;" horiz-adv-x="1022" 
d="M424 564c0 25 -12 44 -41 44c-32 0 -47 -25 -54 -57l-10 -47h82l-28 -132h-82l-79 -372h-178l79 372h-70l28 132h70l12 55c26 120 111 177 227 177c70 0 120 -24 156 -59l-112 -116v3zM781 573c-8 13 -20 26 -43 26c-32 0 -42 -21 -49 -53l-9 -42h100l-28 -132h-100
l-79 -372h-178l79 372h-62l28 132h62l12 55c25 120 110 177 222 177c50 0 99 -18 126 -34l-75 -139zM744 0l153 724h182l-153 -724h-182z" />
    <glyph glyph-name="t_f" horiz-adv-x="738" 
d="M300 155l36 -129c-26 -17 -74 -38 -134 -38c-88 0 -143 48 -143 124c0 15 2 32 6 51l44 209h-74l28 132h74l20 93l198 95l-40 -188h92l-28 -132h-92l-41 -194c-1 -5 -3 -13 -3 -21c0 -16 10 -23 23 -23c17 0 27 13 34 21zM779 568c0 22 -12 40 -36 40
c-32 0 -44 -25 -51 -57l-10 -47h100l-28 -132h-100l-79 -372h-178l79 372h-58l28 132h58l12 55c26 120 109 177 233 177c84 0 153 -38 185 -96l-156 -86s1 7 1 14z" />
    <glyph glyph-name="grave" unicode="`" horiz-adv-x="556" 
d="M432 596l-88 -48c-58 29 -127 85 -160 147l138 81c17 -54 58 -128 110 -180z" />
    <glyph glyph-name="acute" unicode="&#xb4;" horiz-adv-x="556" 
d="M348 548l-72 60c68 47 124 114 151 168l118 -103c-41 -48 -125 -102 -197 -125z" />
    <glyph glyph-name="hungarumlaut" unicode="&#x2dd;" horiz-adv-x="556" 
d="M240 548l-67 56c58 49 104 120 127 174l114 -91c-35 -52 -108 -113 -174 -139zM456 548l-67 56c58 49 107 120 130 174l114 -91c-35 -52 -111 -113 -177 -139z" />
    <glyph glyph-name="dotaccent" unicode="&#x2d9;" horiz-adv-x="556" 
d="M264 631c0 60 46 103 110 103c52 0 90 -36 90 -84c0 -59 -47 -102 -111 -102c-52 0 -89 35 -89 83z" />
    <glyph glyph-name="dieresis" unicode="&#xa8;" horiz-adv-x="556" 
d="M168 622c0 56 41 99 99 99c47 0 77 -30 77 -74c0 -56 -41 -99 -99 -99c-47 0 -77 30 -77 74zM381 622c0 56 41 99 99 99c47 0 77 -30 77 -74c0 -56 -41 -99 -99 -99c-47 0 -77 30 -77 74z" />
    <glyph glyph-name="circumflex" unicode="&#x2c6;" horiz-adv-x="556" 
d="M360 620h-4c-27 -32 -75 -67 -127 -85l-69 108c56 16 115 39 155 81h102c30 -38 84 -72 139 -90l-81 -102c-49 20 -93 56 -115 88z" />
    <glyph glyph-name="caron" unicode="&#x2c7;" horiz-adv-x="556" 
d="M358 660h4c27 32 75 67 127 85l69 -108c-56 -16 -115 -39 -155 -81h-102c-30 38 -84 72 -139 90l81 102c49 -20 93 -56 115 -88z" />
    <glyph glyph-name="macron" unicode="&#xaf;" horiz-adv-x="556" 
d="M205 564l27 128h295l-27 -128h-295z" />
    <glyph glyph-name="tilde" unicode="&#x2dc;" horiz-adv-x="556" 
d="M561 666c-12 -68 -64 -118 -120 -118c-60 0 -92 49 -132 49c-24 0 -33 -25 -37 -49l-103 58c12 68 64 118 120 118c60 0 93 -48 133 -48c24 0 32 24 36 48z" />
    <glyph glyph-name="breve" unicode="&#x2d8;" horiz-adv-x="556" 
d="M426 729l130 -37c-33 -98 -114 -144 -206 -144c-89 0 -152 53 -152 140v4l132 37c-4 -9 -7 -21 -7 -33c0 -22 14 -38 42 -38c42 0 59 34 61 71z" />
    <glyph glyph-name="ring" unicode="&#x2da;" horiz-adv-x="556" 
d="M232 645c0 72 56 125 144 125c68 0 119 -45 119 -101c0 -72 -56 -125 -144 -125c-68 0 -119 45 -119 101zM368 694c-25 0 -43 -18 -43 -42c0 -19 14 -32 34 -32c25 0 43 18 43 42c0 19 -14 32 -34 32z" />
    <glyph glyph-name="caronquoteleft" horiz-adv-x="556" 
d="M474 723c-37 -4 -89 -8 -108 -55c4 1 7 1 11 1c32 0 58 -18 58 -54c0 -45 -36 -72 -84 -72s-75 35 -75 79c0 84 45 140 113 156z" />
    <glyph glyph-name="caronquoteright" horiz-adv-x="556" 
d="M266 598c36 3 88 7 107 54h-10c-32 0 -58 18 -58 54c0 45 36 72 84 72s75 -35 75 -79c0 -84 -45 -140 -113 -156z" />
    <glyph glyph-name="uni0326" unicode="&#x326;" horiz-adv-x="556" 
d="M98 -220c36 4 88 8 107 55c-4 -1 -7 -1 -10 -1c-32 0 -58 18 -58 54c0 45 36 72 84 72s75 -35 75 -79c0 -84 -45 -140 -113 -156z" />
    <glyph glyph-name="cedilla" unicode="&#xb8;" horiz-adv-x="556" 
d="M208 14l82 -3l-19 -43c39 -9 75 -32 75 -74c0 -64 -67 -102 -139 -102c-60 0 -105 26 -121 58l77 52c6 -23 21 -44 53 -44c22 0 39 11 39 33c0 14 -14 24 -30 24c-14 0 -24 -7 -24 -7l-46 47z" />
    <glyph glyph-name="ogonek" unicode="&#x2db;" horiz-adv-x="556" 
d="M273 -76l95 -60c-30 -44 -88 -72 -156 -72c-72 0 -128 41 -128 93c0 48 39 81 89 105l68 33l100 -23l-56 -26c-39 -18 -88 -34 -88 -65c0 -17 13 -26 29 -26c24 0 40 20 47 41z" />
    <glyph glyph-name="zero" unicode="0" horiz-adv-x="632" 
d="M379 548c-104 0 -147 -200 -147 -296c0 -60 13 -108 73 -108c104 0 147 200 147 296c0 60 -13 108 -73 108zM43 254c0 208 104 450 348 450c160 0 250 -118 250 -266c0 -208 -104 -450 -348 -450c-160 0 -250 118 -250 266z" />
    <glyph glyph-name="one" unicode="1" horiz-adv-x="401" 
d="M223 472h-4c-24 -25 -57 -42 -103 -50l-52 165c88 12 175 47 241 105h139l-147 -692h-180l79 371c9 44 27 101 27 101z" />
    <glyph glyph-name="two" unicode="2" horiz-adv-x="552" 
d="M250 362l-171 79s-4 17 -4 31c0 140 121 232 277 232c128 0 237 -89 237 -203c0 -220 -283 -295 -323 -339v-2h243l-34 -160h-475v19c0 268 403 315 403 466c0 36 -22 63 -62 63c-70 0 -94 -73 -94 -137c0 -19 3 -49 3 -49z" />
    <glyph glyph-name="three" unicode="3" horiz-adv-x="549" 
d="M244 -12c-132 0 -223 70 -241 172l174 82s-1 -10 -1 -16c0 -48 26 -82 78 -82c56 0 96 44 96 98c0 40 -28 68 -72 68c-43 0 -75 -16 -110 -30l-36 149l176 108h-204l33 155h472l-24 -132l-143 -87c-51 -31 -121 -55 -121 -55l1 -4s8 1 17 1c112 0 190 -74 190 -178
c0 -140 -133 -249 -285 -249z" />
    <glyph glyph-name="four" unicode="4" horiz-adv-x="582" 
d="M311 160h-262l-21 108c80 100 145 241 173 436l167 -87c-28 -140 -83 -222 -144 -306h119l81 381h176l-81 -381h68l-32 -151h-68l-34 -160h-176z" />
    <glyph glyph-name="five" unicode="5" horiz-adv-x="558" 
d="M249 -12c-132 0 -223 70 -241 172l174 82s-1 -10 -1 -16c0 -48 26 -82 78 -82c64 2 104 62 104 122c0 44 -22 76 -66 76s-72 -32 -90 -67l-146 67l119 350h405l-33 -155h-257l-14 -41c-13 -38 -32 -70 -32 -70l3 -2c28 23 71 46 123 46c112 0 168 -96 168 -204
c0 -140 -122 -278 -294 -278z" />
    <glyph glyph-name="six" unicode="6" horiz-adv-x="578" 
d="M403 704c100 0 196 -46 224 -142l-169 -88v3c0 40 -21 77 -69 77c-65 0 -117 -54 -151 -153l4 -1c35 43 93 61 145 61c107 0 184 -84 184 -204c0 -148 -113 -269 -281 -269s-247 106 -247 254c0 220 106 462 360 462zM291 130c68 0 109 55 109 121c0 48 -28 85 -80 85
c-68 0 -109 -53 -109 -119c0 -48 28 -87 80 -87z" />
    <glyph glyph-name="seven" unicode="7" horiz-adv-x="532" 
d="M627 692l-22 -118c-123 -166 -229 -375 -268 -574h-208c42 211 185 420 267 532h-146l-33 -159l-151 95l47 224h514z" />
    <glyph glyph-name="eight" unicode="8" horiz-adv-x="590" 
d="M271 -12c-148 0 -256 76 -256 190c0 116 102 177 182 189l1 4c-50 22 -93 68 -93 136c0 124 131 197 271 197c128 0 232 -77 232 -173c0 -92 -69 -148 -154 -172l-1 -4c47 -20 110 -63 110 -143c0 -140 -136 -224 -292 -224zM190 199c0 -44 40 -69 92 -69
c56 0 108 31 108 87c0 44 -39 69 -91 69c-56 0 -109 -31 -109 -87zM267 485c0 -34 32 -57 78 -57c48 0 99 21 99 77c0 34 -32 57 -78 57c-48 0 -99 -21 -99 -77z" />
    <glyph glyph-name="nine" unicode="9" horiz-adv-x="580" 
d="M247 -12c-100 0 -198 46 -226 142l169 88v-3c0 -40 21 -77 69 -77c71 0 108 53 137 152l-4 2c-36 -36 -83 -53 -139 -53c-112 0 -192 82 -192 202c0 148 115 263 278 263c168 0 250 -108 250 -256c0 -220 -80 -460 -342 -460zM339 562c-68 0 -107 -51 -107 -117
c0 -48 28 -81 80 -81c68 0 109 49 109 115c0 48 -30 83 -82 83z" />
    <glyph glyph-name="zero.zero" horiz-adv-x="632" 
d="M379 556c-110 0 -155 -205 -155 -304c0 -64 14 -116 81 -116c110 0 155 205 155 304c0 64 -14 116 -81 116zM43 254c0 208 104 450 348 450c160 0 250 -118 250 -266c0 -208 -104 -450 -348 -450c-160 0 -250 118 -250 266zM258 327c0 68 43 121 99 121
c44 0 71 -33 71 -79c0 -68 -43 -121 -99 -121c-44 0 -71 33 -71 79z" />
    <glyph glyph-name="currency" unicode="&#xa4;" 
d="M545 379c0 -47 -17 -92 -46 -130l70 -87l-114 -90l-71 89c-26 -11 -55 -16 -83 -16c-30 0 -59 7 -86 20l-100 -84l-91 106l95 78c-7 18 -11 37 -11 58c0 46 17 91 45 129l-71 89l114 90l71 -91c27 11 56 17 85 17c30 0 59 -8 86 -21l100 84l89 -106l-94 -77
c8 -18 12 -38 12 -58zM314 276c52 0 86 39 86 91c0 36 -25 58 -61 58c-52 0 -86 -39 -86 -91c0 -36 25 -58 61 -58z" />
    <glyph glyph-name="dollar" unicode="$" horiz-adv-x="617" 
d="M177 -92l23 106c-104 27 -166 95 -187 175l161 87v-2c0 -53 20 -101 64 -126l28 131c-98 37 -180 95 -180 202c0 121 119 200 257 208l20 93h142l-24 -109c81 -25 144 -77 172 -148l-161 -87v3c0 41 -16 78 -48 100l-27 -128c91 -39 184 -83 184 -196
c0 -122 -120 -202 -262 -214l-20 -95h-142zM434 199c0 25 -21 42 -51 55l-26 -120c48 9 77 31 77 65zM254 495c0 -27 18 -42 46 -55l24 116c-41 -9 -70 -31 -70 -61z" />
    <glyph glyph-name="cent" unicode="&#xa2;" horiz-adv-x="586" 
d="M171 -92l22 105c-95 23 -161 92 -161 209c0 147 108 255 266 280l21 100h143l-22 -104c88 -23 145 -79 145 -141v-3l-154 -67s2 8 2 21c0 24 -11 45 -32 58l-47 -224c36 15 55 45 61 84l140 -75c-32 -74 -118 -127 -220 -142l-21 -101h-143zM198 223c0 -38 10 -64 34 -78
l47 220c-54 -24 -81 -79 -81 -142z" />
    <glyph glyph-name="Euro" unicode="&#x20ac;" horiz-adv-x="650" 
d="M447 364h-152c-3 -17 -6 -34 -8 -51h140l-52 -111h-87c9 -45 31 -72 75 -72c64 0 102 61 116 149l153 -108c-24 -72 -127 -183 -275 -183c-130 0 -227 71 -246 214h-88l23 111h64c2 17 5 34 8 51h-61l24 111h70c55 130 161 229 319 229c128 0 218 -73 234 -181l-173 -97
s7 24 7 49c0 53 -22 87 -82 87c-54 0 -93 -36 -121 -87h165z" />
    <glyph glyph-name="yen" unicode="&#xa5;" horiz-adv-x="638" 
d="M552 137h-162l-29 -137h-179l29 137h-162l24 111h161l2 6l-16 53h-135l24 111h79l-80 274h189l37 -180c11 -52 16 -100 16 -100h4s23 48 56 100l114 180h206l-197 -274h79l-24 -111h-135l-38 -53l-1 -6h162z" />
    <glyph glyph-name="sterling" unicode="&#xa3;" horiz-adv-x="598" 
d="M452 267h-126c-13 -44 -37 -83 -71 -112h300l-33 -155h-504l26 124c61 25 90 81 102 143h-101l27 131h82v46c0 161 92 260 265 260c108 0 212 -56 234 -164l-165 -92s2 15 2 30c0 48 -21 80 -69 80c-60 0 -86 -51 -86 -115c0 -16 1 -31 1 -45h177z" />
    <glyph glyph-name="florin" unicode="&#x192;" horiz-adv-x="572" 
d="M100 36l70 284h-96l28 131h100l10 38c43 172 152 215 260 215c88 0 169 -41 197 -116l-154 -85s1 5 1 12c0 32 -17 56 -49 56s-56 -19 -70 -77l-11 -43h165l-62 -131h-136l-70 -282c-41 -164 -136 -214 -248 -214c-88 0 -154 36 -178 90l155 86v-3c0 -20 7 -40 31 -40
c22 0 41 15 57 79z" />
    <glyph glyph-name="zero.tf" 
d="M364 548c-88 0 -135 -204 -135 -303c0 -56 11 -101 59 -101c89 0 135 204 135 303c0 56 -11 101 -59 101zM42 253c0 216 97 451 335 451c152 0 233 -117 233 -265c0 -216 -97 -451 -335 -451c-152 0 -233 117 -233 265z" />
    <glyph glyph-name="one.tf" 
d="M313 468h-4c-36 -35 -81 -59 -143 -69l-52 165c103 16 214 59 276 128h143l-115 -540h142l-32 -152h-476l32 152h156l47 219c9 44 26 97 26 97z" />
    <glyph glyph-name="two.tf" 
d="M274 362l-171 79s-4 17 -4 31c0 140 121 232 277 232c128 0 237 -89 237 -203c0 -220 -283 -295 -323 -339v-2h243l-34 -160h-475v19c0 268 403 315 403 466c0 36 -22 63 -62 63c-70 0 -94 -73 -94 -137c0 -19 3 -49 3 -49z" />
    <glyph glyph-name="three.tf" 
d="M273 -12c-132 0 -223 70 -241 172l174 82s-1 -10 -1 -16c0 -48 26 -82 78 -82c56 0 96 44 96 98c0 40 -28 68 -72 68c-43 0 -75 -16 -110 -30l-36 149l176 108h-204l33 155h472l-24 -132l-143 -87c-51 -31 -121 -55 -121 -55l1 -4s8 1 17 1c112 0 190 -74 190 -178
c0 -140 -133 -249 -285 -249z" />
    <glyph glyph-name="four.tf" 
d="M313 160h-246l-21 108c72 100 129 241 155 436l167 -87c-25 -140 -72 -222 -127 -306h104l81 381h176l-81 -381h68l-32 -151h-68l-34 -160h-176z" />
    <glyph glyph-name="five.tf" 
d="M273 -12c-132 0 -223 70 -241 172l174 82s-1 -10 -1 -16c0 -48 26 -82 78 -82c64 2 104 62 104 122c0 44 -22 76 -66 76s-72 -32 -90 -67l-146 67l119 350h405l-33 -155h-257l-14 -41c-13 -38 -32 -70 -32 -70l3 -2c28 23 71 46 123 46c112 0 168 -96 168 -204
c0 -140 -122 -278 -294 -278z" />
    <glyph glyph-name="six.tf" 
d="M413 704c96 0 193 -46 220 -142l-169 -88v3c0 40 -23 77 -65 77c-62 0 -116 -54 -151 -153l4 -1c33 43 92 61 141 61c102 0 178 -84 178 -204c0 -148 -111 -269 -274 -269c-164 0 -244 106 -244 254c0 220 112 462 360 462zM298 130c63 0 102 55 102 121
c0 48 -27 85 -74 85c-63 0 -105 -53 -105 -119c0 -48 29 -87 77 -87z" />
    <glyph glyph-name="seven.tf" 
d="M670 692l-22 -118c-127 -166 -236 -375 -276 -574h-208c43 211 191 420 275 532h-162l-33 -159l-151 95l47 224h530z" />
    <glyph glyph-name="eight.tf" 
d="M276 -12c-148 0 -250 76 -250 190c0 116 96 177 176 189l1 4c-50 22 -89 68 -89 136c0 124 127 197 267 197c128 0 228 -77 228 -173c0 -92 -65 -146 -150 -170l-1 -4c48 -21 104 -65 104 -145c0 -140 -130 -224 -286 -224zM201 199c0 -44 34 -69 86 -69
c56 0 102 31 102 87c0 44 -33 69 -85 69c-56 0 -103 -31 -103 -87zM276 485c0 -34 28 -57 74 -57c48 0 95 21 95 77c0 34 -28 57 -74 57c-48 0 -95 -21 -95 -77z" />
    <glyph glyph-name="nine.tf" 
d="M264 -12c-100 0 -196 46 -224 142l169 88v-3c0 -40 19 -77 67 -77c64 0 98 53 124 152l-5 2c-32 -36 -73 -53 -123 -53c-112 0 -192 82 -192 202c0 148 112 263 270 263c163 0 242 -108 242 -256c0 -220 -78 -460 -328 -460zM350 562c-63 0 -99 -51 -99 -117
c0 -48 25 -81 72 -81c63 0 101 49 101 115c0 48 -27 83 -74 83z" />
    <glyph glyph-name="zero.tf.zero" 
d="M244 327c0 68 41 121 97 121c44 0 69 -33 69 -79c0 -68 -41 -121 -97 -121c-44 0 -69 33 -69 79zM364 556c-98 0 -151 -209 -151 -311c0 -60 13 -109 75 -109c99 0 151 209 151 311c0 60 -13 109 -75 109zM42 253c0 216 97 451 335 451c152 0 233 -117 233 -265
c0 -216 -97 -451 -335 -451c-152 0 -233 117 -233 265z" />
    <glyph glyph-name="currency.tf" 
d="M545 379c0 -47 -17 -92 -46 -130l70 -87l-114 -90l-71 89c-26 -11 -55 -16 -83 -16c-30 0 -59 7 -86 20l-100 -84l-91 106l95 78c-7 18 -11 37 -11 58c0 46 17 91 45 129l-71 89l114 90l71 -91c27 11 56 17 85 17c30 0 59 -8 86 -21l100 84l89 -106l-94 -77
c8 -18 12 -38 12 -58zM314 276c52 0 86 39 86 91c0 36 -25 58 -61 58c-52 0 -86 -39 -86 -91c0 -36 25 -58 61 -58z" />
    <glyph glyph-name="dollar.tf" 
d="M166 -92l23 108c-96 28 -154 94 -173 173l161 87v-2c0 -50 16 -95 51 -121l27 126c-90 37 -167 96 -167 202c0 120 113 199 244 208l20 93h142l-24 -110c75 -26 133 -77 160 -147l-161 -87v3c0 39 -11 74 -37 96l-26 -125c86 -39 172 -83 172 -195
c0 -122 -113 -202 -250 -214l-20 -95h-142zM411 199c0 23 -16 39 -40 51l-24 -115c41 9 64 31 64 64zM256 495c0 -24 13 -38 34 -50l23 109c-34 -10 -57 -31 -57 -59z" />
    <glyph glyph-name="cent.tf" 
d="M178 -92l22 105c-95 23 -161 92 -161 209c0 147 108 255 266 280l21 100h143l-22 -104c88 -23 145 -79 145 -141v-3l-154 -67s2 8 2 21c0 24 -11 45 -32 58l-47 -224c36 15 55 45 61 84l140 -75c-32 -74 -118 -127 -220 -142l-21 -101h-143zM205 223c0 -38 10 -64 34 -78
l47 220c-54 -24 -81 -79 -81 -142z" />
    <glyph glyph-name="Euro.tf" 
d="M401 364h-125c-3 -17 -6 -34 -8 -51h116l-47 -111h-70c5 -45 21 -72 67 -72c52 0 81 62 92 150l148 -107c-22 -72 -111 -185 -247 -185c-130 0 -212 75 -227 214h-77l23 111h55c1 17 3 34 6 51h-50l24 111h56c49 130 146 229 295 229c120 0 199 -75 212 -183l-170 -95
s7 26 7 55c0 48 -17 81 -65 81c-46 0 -81 -36 -105 -87h138z" />
    <glyph glyph-name="yen.tf" 
d="M531 132h-162l-28 -132h-179l28 132h-162l24 111h161l2 8l-13 51h-138l24 111h86l-71 279h189l27 -164c9 -56 13 -116 13 -116h4s27 60 60 116l95 164h204l-190 -279h86l-24 -111h-138l-35 -52l-1 -7h162z" />
    <glyph glyph-name="sterling.tf" 
d="M453 267h-126c-13 -44 -37 -83 -71 -112h300l-33 -155h-504l26 124c61 25 90 81 102 143h-101l27 131h82v46c0 161 92 260 265 260c108 0 212 -56 234 -164l-165 -92s2 15 2 30c0 48 -21 80 -69 80c-60 0 -86 -51 -86 -115c0 -16 1 -31 1 -45h177z" />
    <glyph glyph-name="florin.tf" 
d="M111 36l70 284h-96l28 131h100l10 38c43 172 152 215 260 215c88 0 169 -41 197 -116l-154 -85s1 5 1 12c0 32 -17 56 -49 56s-56 -19 -70 -77l-11 -43h165l-62 -131h-136l-70 -282c-41 -164 -136 -214 -248 -214c-88 0 -154 36 -178 90l155 86v-3c0 -20 7 -40 31 -40
c22 0 41 15 57 79z" />
    <glyph glyph-name="plus" unicode="+" 
d="M181 42l44 210h-190l33 152h190l44 206h160l-44 -206h190l-33 -152h-190l-44 -210h-160z" />
    <glyph glyph-name="minus" unicode="&#x2212;" 
d="M557 250h-504l33 156h504z" />
    <glyph glyph-name="multiply" unicode="&#xd7;" 
d="M123 65l-101 115l196 152l-129 158l124 97l122 -156l179 150l101 -115l-191 -153l134 -157l-124 -97l-126 159z" />
    <glyph glyph-name="divide" unicode="&#xf7;" 
d="M557 252h-504l33 152h504zM179 111c0 60 46 103 110 103c52 0 90 -36 90 -84c0 -59 -47 -102 -111 -102c-52 0 -89 35 -89 83zM264 531c0 60 46 103 110 103c52 0 90 -36 90 -84c0 -59 -47 -102 -111 -102c-52 0 -89 35 -89 83z" />
    <glyph glyph-name="equal" unicode="=" 
d="M534 142h-504l31 144h504zM580 360h-504l31 144h504z" />
    <glyph glyph-name="less" unicode="&#x3c;" 
d="M596 447l-325 -127l268 -113l-77 -146l-392 185l35 164l432 184z" />
    <glyph glyph-name="greater" unicode="&#x3e;" 
d="M47 209l325 127l-268 113l77 146l392 -185l-35 -164l-432 -184z" />
    <glyph glyph-name="plusminus" unicode="&#xb1;" 
d="M230 246l31 143h-178l28 134h178l31 147h148l-31 -147h178l-28 -134h-178l-31 -143h-148zM518 66h-504l29 136h504z" />
    <glyph glyph-name="lessequal" unicode="&#x2264;" 
d="M514 226l-410 133l33 154l421 139l43 -139l-292 -84l255 -65zM518 66h-488l29 136h488z" />
    <glyph glyph-name="greaterequal" unicode="&#x2265;" 
d="M191 652l410 -139l-33 -154l-421 -133l-43 137l292 79l-255 70zM518 66h-488l29 136h488z" />
    <glyph glyph-name="notequal" unicode="&#x2260;" 
d="M619 504l-30 -140h-169l-47 -82h199l-30 -140h-250l-84 -145l-118 67l45 78h-113l30 140h164l47 82h-194l30 140h245l86 147l118 -67l-47 -80h118z" />
    <glyph glyph-name="logicalnot" unicode="&#xac;" 
d="M85 406h504l-63 -297h-160l30 141h-344z" />
    <glyph glyph-name="asciicircum" unicode="^" 
d="M472 692l136 -297l-146 -68l-84 201l-172 -205l-123 94l243 275h146z" />
    <glyph glyph-name="asciitilde" unicode="~" 
d="M590 363c-37 -89 -88 -144 -173 -144c-76 0 -122 65 -170 65c-38 0 -53 -37 -60 -71l-131 89c36 89 88 144 173 144c76 0 122 -65 170 -65c38 0 53 37 60 71z" />
    <glyph glyph-name="approxequal" unicode="&#x2248;" 
d="M566 238c-37 -74 -88 -120 -173 -120c-76 0 -122 51 -170 51c-38 0 -53 -33 -60 -59l-131 89c36 74 88 118 173 118c76 0 122 -51 170 -51c38 0 53 25 60 47zM614 464c-37 -79 -88 -128 -173 -128c-76 0 -122 51 -170 51c-38 0 -53 -29 -60 -51l-131 89
c36 69 88 110 173 110c76 0 122 -51 170 -51c38 0 53 29 60 55z" />
    <glyph glyph-name="infinity" unicode="&#x221e;" horiz-adv-x="861" 
d="M292 541c76 0 133 -42 170 -100h4c57 58 126 100 205 100c110 0 183 -89 183 -188c0 -128 -102 -238 -242 -238c-77 0 -134 41 -171 100h-4c-56 -59 -125 -100 -204 -100c-110 0 -183 88 -183 187c0 128 103 239 242 239zM523 328c13 -29 32 -69 84 -69c41 0 83 37 83 85
c0 31 -20 53 -54 53c-52 0 -87 -40 -113 -69zM381 328c-14 29 -32 69 -84 69c-41 0 -83 -38 -83 -85c0 -31 20 -53 54 -53c52 0 86 40 113 69z" />
    <glyph glyph-name="numbersign" unicode="#" horiz-adv-x="700" 
d="M508 541l61 151h162l-61 -151h77l-29 -137h-102l-43 -106h97l-29 -137h-122l-64 -161h-162l64 161h-117l-64 -161h-163l64 161h-71l29 137h96l43 106h-91l29 137h116l61 151h163l-61 -151h117zM337 404l-43 -106h117l43 106h-117z" />
    <glyph glyph-name="radical" unicode="&#x221a;" horiz-adv-x="676" 
d="M25 250l32 150h211l-4 -200c-1 -56 -5 -136 -5 -136h4s33 76 63 137l267 547h194l-436 -856h-243l-2 358h-81z" />
    <glyph glyph-name="lozenge" unicode="&#x25ca;" horiz-adv-x="634" 
d="M46 350l277 342h186l131 -342l-278 -350h-186zM329 449l-96 -119l29 -85c18 -52 28 -85 28 -85h4s22 33 62 85l97 126l-30 78c-20 53 -28 85 -28 85h-4s-21 -33 -62 -85z" />
    <glyph glyph-name="Delta" unicode="&#x2206;" horiz-adv-x="663" 
d="M-35 0l26 122l332 570h211l94 -570l-26 -122h-637zM355 417l-144 -259h227l-32 259c-5 43 -7 85 -7 85h-4s-18 -45 -40 -85z" />
    <glyph glyph-name="Omega" unicode="&#x2126;" horiz-adv-x="722" 
d="M317 136l-29 -136h-285l33 154h26c58 0 87 -9 87 -9l3 4c-53 57 -86 132 -86 212c0 184 147 343 367 343c179 0 288 -125 288 -277c0 -124 -63 -215 -157 -283l2 -3s44 13 92 13h20l-33 -154h-299l29 133c93 50 155 150 155 278c0 72 -38 130 -110 130
c-116 0 -171 -124 -171 -234c0 -77 29 -131 68 -171z" />
    <glyph glyph-name="summation" unicode="&#x2211;" horiz-adv-x="535" 
d="M424 314l-216 -320h274l-34 -157h-507l26 123l260 375l-115 306l26 123h507l-33 -157h-296z" />
    <glyph glyph-name="partialdiff" unicode="&#x2202;" horiz-adv-x="575" 
d="M123 554l119 150c176 -8 327 -130 327 -322c0 -216 -93 -394 -317 -394c-136 0 -232 87 -232 211c0 152 111 243 239 243c64 0 108 -25 138 -56l5 2c-6 122 -95 172 -227 172c-28 0 -52 -6 -52 -6zM297 319c-64 0 -110 -50 -110 -110c0 -53 33 -80 81 -80
c79 0 115 81 128 164c-24 15 -57 26 -99 26z" />
    <glyph glyph-name="integral" unicode="&#x222b;" horiz-adv-x="418" 
d="M369 545l-113 -530c-30 -140 -132 -185 -224 -185c-47 0 -77 8 -77 8l-1 151s21 -8 49 -8c44 0 66 19 78 75l112 530c30 140 133 185 225 185c47 0 76 -8 76 -8l2 -151s-21 8 -49 8c-44 0 -66 -19 -78 -75z" />
    <glyph glyph-name="product" unicode="&#x220f;" horiz-adv-x="696" 
d="M362 -163l164 772h-193l-164 -772h-180l197 927h552l-197 -927h-179z" />
    <glyph glyph-name="pi" unicode="&#x3c0;" horiz-adv-x="652" 
d="M37 363l30 141h631l-30 -141h-108l-39 -185c-1 -5 -3 -13 -3 -21c0 -16 10 -23 23 -23c17 0 27 13 34 21l36 -129c-26 -17 -74 -38 -134 -38c-88 0 -143 48 -143 124c0 15 2 32 6 51l42 200h-98l-77 -364h-165l77 364h-82z" />
    <glyph glyph-name="mu" unicode="&#xb5;" horiz-adv-x="564" 
d="M575 504l-107 -504h-180l27 80h-4c-35 -43 -81 -85 -149 -88c-1 -23 -5 -85 -20 -153l-8 -35h-176l149 700h180l-61 -288c-3 -13 -5 -27 -5 -39c0 -24 9 -43 41 -43c48 0 64 43 74 91l59 279h180z" />
    <glyph glyph-name="period" unicode="." horiz-adv-x="292" 
d="M11 77c0 65 48 111 115 111c55 0 95 -39 95 -90c0 -64 -49 -110 -117 -110c-54 0 -93 38 -93 89z" />
    <glyph glyph-name="comma" unicode="," horiz-adv-x="292" 
d="M213 84c0 -108 -52 -204 -155 -249l-82 80c55 17 114 34 142 95c-8 -2 -16 -2 -25 -2c-48 0 -82 33 -82 77c0 60 45 103 105 103s97 -32 97 -104z" />
    <glyph glyph-name="colon" unicode=":" horiz-adv-x="292" 
d="M79 397c0 65 48 111 115 111c55 0 95 -39 95 -90c0 -64 -49 -110 -117 -110c-54 0 -93 38 -93 89zM11 77c0 65 48 111 115 111c55 0 95 -39 95 -90c0 -64 -49 -110 -117 -110c-54 0 -93 38 -93 89z" />
    <glyph glyph-name="semicolon" unicode=";" horiz-adv-x="292" 
d="M213 84c0 -108 -52 -204 -155 -249l-82 80c55 17 114 34 142 95c-8 -2 -16 -2 -25 -2c-48 0 -82 33 -82 77c0 60 45 103 105 103s97 -32 97 -104zM75 397c0 65 48 111 115 111c55 0 95 -39 95 -90c0 -64 -49 -110 -117 -110c-54 0 -93 38 -93 89z" />
    <glyph glyph-name="exclam" unicode="!" horiz-adv-x="324" 
d="M354 692l-15 -70c-32 -152 -116 -396 -116 -396h-124s20 244 52 396l15 70h188zM37 71c0 60 46 103 110 103c52 0 90 -36 90 -84c0 -59 -47 -102 -111 -102c-52 0 -89 35 -89 83z" />
    <glyph glyph-name="question" unicode="?" horiz-adv-x="508" 
d="M384 526c0 24 -21 37 -49 37c-56 0 -105 -45 -121 -121l-150 97c58 100 149 165 293 165c112 0 200 -79 200 -163c0 -193 -244 -167 -244 -299c0 -8 1 -16 1 -16h-124s-14 28 -14 67c0 160 208 158 208 233zM127 71c0 60 46 103 110 103c52 0 90 -36 90 -84
c0 -59 -47 -102 -111 -102c-52 0 -89 35 -89 83z" />
    <glyph glyph-name="exclamdown" unicode="&#xa1;" horiz-adv-x="324" 
d="M-20 -188l15 70c32 152 116 396 116 396h124s-20 -244 -52 -396l-15 -70h-188zM297 433c0 -60 -46 -103 -110 -103c-52 0 -90 36 -90 84c0 59 47 102 111 102c52 0 89 -35 89 -83z" />
    <glyph glyph-name="questiondown" unicode="&#xbf;" horiz-adv-x="508" 
d="M141 -23c0 -24 21 -37 49 -37c56 0 105 45 121 121l150 -97c-58 -100 -149 -165 -293 -165c-112 0 -200 79 -200 163c0 193 244 167 244 299c0 8 -1 16 -1 16h124s14 -28 14 -67c0 -160 -208 -158 -208 -233zM398 432c0 -60 -46 -103 -110 -103c-52 0 -90 36 -90 84
c0 59 47 102 111 102c52 0 89 -35 89 -83z" />
    <glyph glyph-name="hyphen" unicode="-" horiz-adv-x="359" 
d="M317 219h-279l31 146h279z" />
    <glyph glyph-name="endash" unicode="&#x2013;" horiz-adv-x="613" 
d="M572 220h-533l30 145h533z" />
    <glyph glyph-name="emdash" unicode="&#x2014;" horiz-adv-x="860" 
d="M819 220h-780l30 145h780z" />
    <glyph glyph-name="underscore" unicode="_" horiz-adv-x="488" 
d="M369 -106h-392l31 145h392z" />
    <glyph glyph-name="bar" unicode="|" horiz-adv-x="324" 
d="M-11 -163l197 927h180l-197 -927h-180z" />
    <glyph glyph-name="brokenbar" unicode="&#xa6;" horiz-adv-x="324" 
d="M-11 -163l80 374h180l-80 -374h-180zM108 398l78 366h180l-78 -366h-180z" />
    <glyph glyph-name="dagger" unicode="&#x2020;" horiz-adv-x="568" 
d="M75 505l59 -2c37 -2 85 -6 125 -10l4 3c6 52 14 125 24 177l9 51h188l-13 -51c-13 -52 -35 -125 -51 -177l2 -3c42 4 90 8 130 10l59 2l-36 -171l-59 2c-38 1 -85 5 -125 10l-3 -3c-11 -72 -29 -184 -56 -327l-17 -90h-190l21 90c34 143 64 254 84 327l-3 3
c-42 -5 -90 -9 -129 -10l-59 -2z" />
    <glyph glyph-name="daggerdbl" unicode="&#x2021;" horiz-adv-x="592" 
d="M541 117l-59 2c-38 1 -85 5 -125 10l-5 -4c-4 -44 -10 -100 -19 -148l-9 -51h-184l13 51c12 47 29 105 43 148l-3 4c-42 -5 -90 -9 -129 -10l-59 -2l35 167l59 -2c37 -2 83 -6 123 -10l4 3l22 103l-3 4c-42 -5 -88 -9 -127 -10l-59 -2l35 167l59 -2c38 -2 85 -6 125 -10
l4 3c4 43 10 96 19 145l9 51h184l-13 -51c-12 -47 -29 -103 -43 -145l3 -3c43 4 90 8 130 10l59 2l-35 -167l-59 2c-37 1 -84 5 -124 10l-3 -3l-23 -105l2 -2c42 4 89 8 129 10l59 2z" />
    <glyph glyph-name="parenleft" unicode="(" horiz-adv-x="376" 
d="M346 776l133 -75c-148 -160 -227 -311 -227 -533c0 -108 19 -196 55 -268l-144 -75c-44 72 -91 210 -91 349c0 245 90 442 274 602z" />
    <glyph glyph-name="parenright" unicode=")" horiz-adv-x="376" 
d="M65 -175l-133 75c148 160 227 311 227 533c0 108 -19 196 -55 268l144 75c44 -72 91 -210 91 -349c0 -245 -90 -442 -274 -602z" />
    <glyph glyph-name="bracketleft" unicode="[" horiz-adv-x="394" 
d="M-12 -163l197 927h298l-32 -151h-126l-133 -625h126l-32 -151h-298z" />
    <glyph glyph-name="bracketright" unicode="]" horiz-adv-x="394" 
d="M435 764l-197 -927h-298l32 151h126l133 625h-126l32 151h298z" />
    <glyph glyph-name="braceleft" unicode="{" horiz-adv-x="430" 
d="M47 232l31 146c57 6 97 36 113 114l23 108c30 140 102 171 198 171c36 0 69 -6 69 -6l18 -151s-21 7 -48 7c-44 0 -64 -20 -76 -76l-20 -93c-21 -97 -66 -134 -137 -153l-1 -4c43 -16 75 -41 75 -106c0 -14 -1 -30 -5 -48l-17 -80c-4 -17 -6 -27 -6 -37
c0 -32 24 -43 56 -43c26 0 50 8 50 8l-54 -151s-29 -8 -76 -8c-92 0 -150 60 -150 152c0 18 2 40 6 61l17 80c3 15 5 28 5 40c0 48 -31 61 -71 69z" />
    <glyph glyph-name="braceright" unicode="}" horiz-adv-x="430" 
d="M248 311l1 4c-43 16 -75 41 -75 106c0 14 1 30 5 48l15 71c4 17 6 27 6 37c0 32 -24 43 -56 43c-26 0 -50 -8 -50 -8l54 151s29 8 76 8c92 0 150 -60 150 -152c0 -18 -2 -40 -6 -61l-15 -71c-3 -15 -5 -28 -5 -40c0 -48 31 -61 71 -69l-31 -146c-57 -6 -97 -36 -113 -114
l-25 -117c-30 -140 -102 -171 -198 -171c-36 0 -69 6 -69 6l-18 151s21 -7 48 -7c44 0 64 20 76 76l22 102c21 97 66 134 137 153z" />
    <glyph glyph-name="slash" unicode="/" horiz-adv-x="424" 
d="M-66 -163l411 927h194l-412 -927h-193z" />
    <glyph glyph-name="backslash" unicode="\" horiz-adv-x="424" 
d="M307 764l30 -927h-189l-30 927h189z" />
    <glyph glyph-name="quotesinglbase" unicode="&#x201a;" horiz-adv-x="292" 
d="M213 84c0 -108 -52 -204 -155 -249l-82 80c55 17 114 34 142 95c-8 -2 -16 -2 -25 -2c-48 0 -82 33 -82 77c0 60 45 103 105 103s97 -32 97 -104z" />
    <glyph glyph-name="quotedblbase" unicode="&#x201e;" horiz-adv-x="530" 
d="M213 84c0 -108 -52 -204 -155 -249l-82 80c55 17 114 34 142 95c-8 -2 -16 -2 -25 -2c-48 0 -82 33 -82 77c0 60 45 103 105 103s97 -32 97 -104zM451 84c0 -108 -52 -204 -155 -249l-82 80c55 17 114 34 142 95c-8 -2 -16 -2 -25 -2c-48 0 -82 33 -82 77
c0 60 45 103 105 103s97 -32 97 -104z" />
    <glyph glyph-name="quoteleft" unicode="&#x2018;" horiz-adv-x="292" 
d="M100 476c0 108 52 204 155 249l82 -80c-55 -17 -114 -34 -142 -95c8 2 16 2 25 2c48 0 82 -33 82 -77c0 -60 -45 -103 -105 -103s-97 32 -97 104z" />
    <glyph glyph-name="quotedblleft" unicode="&#x201c;" horiz-adv-x="530" 
d="M100 476c0 108 52 204 155 249l82 -80c-55 -17 -114 -34 -142 -95c8 2 16 2 25 2c48 0 82 -33 82 -77c0 -60 -45 -103 -105 -103s-97 32 -97 104zM338 476c0 108 52 204 155 249l82 -80c-55 -17 -114 -34 -142 -95c8 2 16 2 25 2c48 0 82 -33 82 -77
c0 -60 -45 -103 -105 -103s-97 32 -97 104z" />
    <glyph glyph-name="quoteright" unicode="&#x2019;" horiz-adv-x="292" 
d="M323 600c0 -108 -52 -204 -155 -249l-82 80c55 17 114 34 142 95c-8 -2 -16 -2 -25 -2c-48 0 -82 33 -82 77c0 60 45 103 105 103s97 -32 97 -104z" />
    <glyph glyph-name="quotedblright" unicode="&#x201d;" horiz-adv-x="530" 
d="M323 600c0 -108 -52 -204 -155 -249l-82 80c55 17 114 34 142 95c-8 -2 -16 -2 -25 -2c-48 0 -82 33 -82 77c0 60 45 103 105 103s97 -32 97 -104zM561 600c0 -108 -52 -204 -155 -249l-82 80c55 17 114 34 142 95c-8 -2 -16 -2 -25 -2c-48 0 -82 33 -82 77
c0 60 45 103 105 103s97 -32 97 -104z" />
    <glyph glyph-name="guilsinglleft" unicode="&#x2039;" horiz-adv-x="358" 
d="M204 276l-1 -4c32 -28 88 -86 116 -154l-151 -94c-21 66 -70 150 -126 205l22 104c68 51 121 124 159 191l151 -94c-44 -68 -118 -123 -170 -154z" />
    <glyph glyph-name="guilsinglright" unicode="&#x203a;" horiz-adv-x="358" 
d="M177 272l1 4c-32 28 -88 86 -116 154l151 94c21 -66 70 -150 126 -205l-22 -104c-68 -51 -121 -124 -159 -191l-151 94c44 68 118 123 170 154z" />
    <glyph glyph-name="guillemotleft" unicode="&#xab;" horiz-adv-x="592" 
d="M187 274l-1 -4c34 -28 98 -92 123 -160l-139 -86c-20 66 -75 152 -127 207l22 104c62 51 104 122 138 189l139 -86c-46 -72 -107 -133 -155 -164zM446 274l-1 -4c34 -28 84 -91 109 -159l-144 -87c-20 66 -60 152 -112 207l22 104c65 51 119 122 155 189l144 -87
c-48 -72 -123 -132 -173 -163z" />
    <glyph glyph-name="guillemotright" unicode="&#xbb;" horiz-adv-x="592" 
d="M425 274l1 4c-34 28 -98 92 -123 160l139 86c20 -66 75 -152 127 -207l-22 -104c-62 -51 -104 -122 -138 -189l-139 86c46 72 107 133 155 164zM166 274l1 4c-34 28 -84 91 -109 159l144 87c20 -66 60 -152 112 -207l-22 -104c-65 -51 -119 -122 -155 -189l-144 87
c48 72 123 132 173 163z" />
    <glyph glyph-name="quotesingle" unicode="'" horiz-adv-x="256" 
d="M128 614l11 78h176l-21 -78c-27 -102 -72 -236 -72 -236h-124s15 129 30 236z" />
    <glyph glyph-name="quotedbl" unicode="&#x22;" horiz-adv-x="512" 
d="M148 614l11 78h176l-21 -78c-27 -102 -72 -236 -72 -236h-124s15 129 30 236zM364 614l11 78h176l-21 -78c-27 -102 -72 -236 -72 -236h-124s15 129 30 236z" />
    <glyph glyph-name="asterisk" unicode="*" horiz-adv-x="521" 
d="M145 610l43 -24c31 -18 64 -43 84 -59l4 3c-5 34 -7 70 -5 105l3 57h158l-17 -57c-11 -37 -29 -78 -41 -103l4 -4c22 14 55 33 90 47l50 20l27 -139l-50 -10c-34 -7 -74 -10 -103 -11l-2 -5c18 -16 46 -42 69 -70l28 -35l-130 -84l-19 42c-15 36 -30 77 -36 97h-7
c-10 -19 -33 -59 -66 -99l-35 -42l-102 103l44 35c31 25 64 47 87 61l-1 5c-26 3 -62 9 -93 18l-49 14z" />
    <glyph glyph-name="degree" unicode="&#xb0;" horiz-adv-x="434" 
d="M472 555c0 -108 -90 -189 -210 -189c-92 0 -168 61 -168 149c0 108 90 189 210 189c92 0 168 -61 168 -149zM272 471c42 0 69 41 69 81c0 27 -19 47 -47 47c-42 0 -69 -41 -69 -81c0 -27 19 -47 47 -47z" />
    <glyph glyph-name="bullet" unicode="&#x2022;" horiz-adv-x="368" 
d="M55 273c0 87 65 149 155 149c74 0 128 -52 128 -121c0 -85 -66 -147 -158 -147c-73 0 -125 51 -125 119z" />
    <glyph glyph-name="periodcentered" unicode="&#xb7;" horiz-adv-x="300" 
d="M59 278c0 65 48 111 115 111c55 0 95 -39 95 -90c0 -64 -49 -110 -117 -110c-54 0 -93 38 -93 89z" />
    <glyph glyph-name="ellipsis" unicode="&#x2026;" horiz-adv-x="834" 
d="M15 77c0 65 48 111 115 111c55 0 95 -39 95 -90c0 -64 -49 -110 -117 -110c-54 0 -93 38 -93 89zM282 77c0 65 48 111 115 111c55 0 95 -39 95 -90c0 -64 -49 -110 -117 -110c-54 0 -93 38 -93 89zM549 77c0 65 48 111 115 111c55 0 95 -39 95 -90
c0 -64 -49 -110 -117 -110c-54 0 -93 38 -93 89z" />
    <glyph glyph-name="paragraph" unicode="&#xb6;" horiz-adv-x="683" 
d="M352 -196l156 732h-110l-156 -732h-160l106 500c-75 18 -117 77 -117 157c0 124 80 231 232 231h467l-33 -156h-69l-156 -732h-160z" />
    <glyph glyph-name="section" unicode="&#xa7;" horiz-adv-x="533" 
d="M534 324c0 -67 -51 -119 -117 -146l-1 -7c20 -25 33 -56 33 -93c0 -112 -99 -186 -227 -186c-99 0 -194 40 -230 120l147 87v-5c0 -44 37 -78 93 -78c32 0 56 16 56 42c0 40 -68 49 -139 79c-72 31 -115 68 -115 135s51 120 117 146l1 7c-18 25 -30 55 -30 92
c0 112 100 187 228 187c88 0 169 -39 211 -115l-147 -87v5c-1 42 -29 73 -75 73c-32 0 -56 -19 -56 -43c0 -39 66 -50 136 -80c72 -31 115 -66 115 -133zM254 353c-14 5 -29 12 -43 20c-14 -10 -23 -26 -23 -48c0 -44 59 -57 125 -82c14 -6 28 -12 42 -20c15 11 25 27 25 49
c0 44 -61 56 -126 81z" />
    <glyph glyph-name="copyright" unicode="&#xa9;" horiz-adv-x="776" 
d="M44 298c0 228 183 406 411 406c184 0 327 -134 327 -310c0 -228 -183 -406 -411 -406c-184 0 -327 134 -327 310zM388 89c168 0 282 137 282 305c0 132 -100 209 -232 209c-168 0 -282 -137 -282 -305c0 -132 100 -209 232 -209zM438 428c-52 0 -70 -64 -70 -108
c0 -32 13 -56 38 -56c32 0 48 30 54 64l121 -53c-31 -68 -100 -117 -187 -117c-90 0 -165 63 -165 155c0 128 83 222 219 222c80 0 153 -55 153 -119v-3l-129 -49s3 11 3 23c0 24 -13 41 -37 41z" />
    <glyph glyph-name="registered" unicode="&#xae;" horiz-adv-x="776" 
d="M44 298c0 228 183 406 411 406c184 0 327 -134 327 -310c0 -228 -183 -406 -411 -406c-184 0 -327 134 -327 310zM388 89c168 0 282 137 282 305c0 132 -100 209 -232 209c-168 0 -282 -137 -282 -305c0 -132 100 -209 232 -209zM601 422c0 -58 -34 -100 -84 -122
l26 -122h-115l-18 105h-33l-22 -105h-114l75 353h149c86 0 136 -47 136 -109zM441 375c24 0 48 10 48 36c0 14 -12 24 -35 24h-45l-12 -60h44z" />
    <glyph glyph-name="trademark" unicode="&#x2122;" horiz-adv-x="803" 
d="M83 577l24 115h306l-24 -115h-88l-42 -197h-130l42 197h-88zM612 519h2s8 24 17 43l64 130h163l-66 -312h-110l21 101c8 36 18 68 18 68h-3s-9 -21 -19 -42l-63 -127h-97l-11 127c-1 16 -2 42 -2 42h-4s-3 -32 -11 -68l-21 -101h-109l66 312h157l7 -130
c1 -25 1 -43 1 -43z" />
    <glyph glyph-name="ordfeminine" unicode="&#xaa;" horiz-adv-x="386" 
d="M242 699c38 0 64 -23 71 -54h4l10 47h132l-47 -217c-6 -25 -15 -57 -15 -75c0 -10 3 -19 3 -19h-99c-11 16 -15 33 -15 49v2h-3c-20 -30 -48 -58 -96 -58c-70 0 -99 70 -99 129c0 89 55 196 154 196zM247 468c41 0 52 60 52 94c0 26 -7 43 -26 43c-40 0 -52 -60 -52 -94
c0 -26 7 -43 26 -43z" />
    <glyph glyph-name="ordmasculine" unicode="&#xba;" horiz-adv-x="369" 
d="M82 507c0 107 69 192 196 192c83 0 149 -53 149 -133c0 -107 -68 -192 -195 -192c-83 0 -150 53 -150 133zM215 502c0 -24 7 -40 26 -40c40 0 53 69 53 109c0 24 -7 40 -26 40c-41 0 -53 -69 -53 -109z" />
    <glyph glyph-name="hyphen.case" horiz-adv-x="359" 
d="M330 278h-279l31 146h279z" />
    <glyph glyph-name="endash.case" horiz-adv-x="613" 
d="M585 278h-533l30 145h533z" />
    <glyph glyph-name="emdash.case" horiz-adv-x="860" 
d="M832 278h-780l30 145h780z" />
    <glyph glyph-name="periodcentered.case" horiz-adv-x="300" 
d="M71 340c0 65 48 111 115 111c55 0 95 -39 95 -90c0 -64 -49 -110 -117 -110c-54 0 -93 38 -93 89z" />
    <glyph glyph-name="bullet.case" horiz-adv-x="368" 
d="M69 335c0 87 65 149 155 149c74 0 128 -52 128 -121c0 -85 -66 -147 -158 -147c-73 0 -125 51 -125 119z" />
    <glyph glyph-name="guilsinglleft.case" horiz-adv-x="358" 
d="M220 352l-1 -4c32 -28 88 -86 116 -154l-151 -94c-21 66 -70 150 -126 205l22 104c68 51 121 124 159 191l151 -94c-44 -68 -118 -123 -170 -154z" />
    <glyph glyph-name="guilsinglright.case" horiz-adv-x="358" 
d="M193 348l1 4c-32 28 -88 86 -116 154l151 94c21 -66 70 -150 126 -205l-22 -104c-68 -51 -121 -124 -159 -191l-151 94c44 68 118 123 170 154z" />
    <glyph glyph-name="guillemotleft.case" horiz-adv-x="592" 
d="M203 350l-1 -4c34 -28 98 -92 123 -160l-139 -86c-20 66 -75 152 -127 207l22 104c62 51 104 122 138 189l139 -86c-46 -72 -107 -133 -155 -164zM462 350l-1 -4c34 -28 84 -91 109 -159l-144 -87c-20 66 -60 152 -112 207l22 104c65 51 119 122 155 189l144 -87
c-48 -72 -123 -132 -173 -163z" />
    <glyph glyph-name="guillemotright.case" horiz-adv-x="592" 
d="M442 350l1 4c-34 28 -98 92 -123 160l139 86c20 -66 75 -152 127 -207l-22 -104c-62 -51 -104 -122 -138 -189l-139 86c46 72 107 133 155 164zM183 350l1 4c-34 28 -84 91 -109 159l144 87c20 -66 60 -152 112 -207l-22 -104c-65 -51 -119 -122 -155 -189l-144 87
c48 72 123 132 173 163z" />
    <glyph glyph-name="exclamdown.case" horiz-adv-x="324" 
d="M20 0l15 70c32 152 116 396 116 396h124s-20 -244 -52 -396l-15 -70h-188zM337 621c0 -60 -46 -103 -110 -103c-52 0 -90 36 -90 84c0 59 47 102 111 102c52 0 89 -35 89 -83z" />
    <glyph glyph-name="questiondown.case" horiz-adv-x="508" 
d="M178 166c0 -24 21 -37 49 -37c56 0 105 45 121 121l150 -97c-58 -100 -149 -165 -293 -165c-112 0 -200 79 -200 163c0 193 244 167 244 299c0 8 -1 16 -1 16h124s14 -28 14 -67c0 -160 -208 -158 -208 -233zM435 621c0 -60 -46 -103 -110 -103c-52 0 -90 36 -90 84
c0 59 47 102 111 102c52 0 89 -35 89 -83z" />
    <glyph glyph-name="parenleft.case" horiz-adv-x="376" 
d="M335 775l133 -74c-138 -150 -211 -274 -211 -481c0 -93 22 -167 58 -229l-143 -76c-47 79 -95 187 -95 311c0 230 94 402 258 549z" />
    <glyph glyph-name="parenright.case" horiz-adv-x="376" 
d="M89 -85l-133 74c138 150 211 274 211 481c0 93 -22 167 -58 229l143 76c47 -79 95 -187 95 -311c0 -230 -94 -402 -258 -549z" />
    <glyph glyph-name="bracketleft.case" horiz-adv-x="394" 
d="M3 -72l177 836h298l-32 -151h-126l-113 -534h126l-32 -151h-298z" />
    <glyph glyph-name="bracketright.case" horiz-adv-x="394" 
d="M441 764l-177 -836h-298l32 151h126l113 534h-126l32 151h298z" />
    <glyph glyph-name="braceleft.case" horiz-adv-x="430" 
d="M221 346l-1 -4c43 -16 76 -41 76 -106c0 -14 -2 -30 -6 -48l-8 -37c-4 -17 -6 -26 -6 -36c0 -32 24 -43 56 -43c26 0 50 8 50 8l-54 -151s-29 -8 -76 -8c-92 0 -150 60 -150 152c0 18 2 40 6 61l8 36c3 15 5 28 5 40c0 48 -31 61 -71 69l31 146c57 6 97 36 113 114l13 61
c30 140 102 171 198 171c36 0 69 -6 69 -6l18 -151s-21 7 -48 7c-44 0 -64 -18 -76 -74l-10 -48c-21 -97 -66 -134 -137 -153z" />
    <glyph glyph-name="braceright.case" horiz-adv-x="430" 
d="M286 165l-15 -71c-30 -140 -102 -173 -198 -173c-36 0 -69 6 -69 6l-18 151s21 -7 48 -7c44 0 64 19 76 75l12 57c19 97 66 136 137 155l1 4c-43 16 -75 40 -75 105c0 14 2 30 6 48l5 23c4 17 5 29 5 39c0 32 -23 43 -55 43c-26 0 -50 -8 -50 -8l54 151s29 8 76 8
c92 0 150 -59 150 -151c0 -18 -3 -41 -7 -62l-5 -24c-3 -15 -5 -28 -5 -40c0 -48 31 -61 71 -69l-31 -146c-57 -6 -97 -36 -113 -114z" />
    <glyph glyph-name="colon.case" horiz-adv-x="292" 
d="M98 483c0 65 48 111 115 111c55 0 95 -39 95 -90c0 -64 -49 -110 -117 -110c-54 0 -93 38 -93 89zM36 195c0 65 48 111 115 111c55 0 95 -39 95 -90c0 -64 -49 -110 -117 -110c-54 0 -93 38 -93 89z" />
    <glyph glyph-name="plus.case" 
d="M187 64l44 210h-190l33 152h190l44 206h160l-44 -206h190l-33 -152h-190l-44 -210h-160z" />
    <glyph glyph-name="minus.case" 
d="M561 273h-504l33 156h504z" />
    <glyph glyph-name="multiply.case" 
d="M131 92l-101 115l196 152l-129 158l124 97l122 -156l179 150l101 -115l-191 -153l134 -157l-124 -97l-126 159z" />
    <glyph glyph-name="divide.case" 
d="M561 275h-504l33 152h504zM183 134c0 60 46 103 110 103c52 0 90 -36 90 -84c0 -59 -47 -102 -111 -102c-52 0 -89 35 -89 83zM268 554c0 60 46 103 110 103c52 0 90 -36 90 -84c0 -59 -47 -102 -111 -102c-52 0 -89 35 -89 83z" />
    <glyph glyph-name="equal.case" 
d="M539 170h-504l31 144h504zM585 388h-504l31 144h504z" />
    <glyph glyph-name="less.case" 
d="M599 470l-325 -127l268 -113l-77 -146l-392 185l35 164l432 184z" />
    <glyph glyph-name="greater.case" 
d="M52 231l325 127l-268 113l77 146l392 -185l-35 -164l-432 -184z" />
    <glyph glyph-name="plusminus.case" 
d="M230 254l31 143h-178l28 134h178l31 147h148l-31 -147h178l-28 -134h-178l-31 -143h-148zM518 74h-504l29 136h504z" />
    <glyph glyph-name="lessequal.case" 
d="M513 234l-410 133l33 154l421 139l43 -139l-292 -84l255 -65zM517 74h-488l29 136h488z" />
    <glyph glyph-name="greaterequal.case" 
d="M192 660l410 -139l-33 -154l-421 -133l-43 137l292 79l-255 70zM519 74h-488l29 136h488z" />
    <glyph glyph-name="notequal.case" 
d="M625 531l-30 -140h-169l-47 -82h199l-30 -140h-250l-84 -145l-118 67l45 78h-113l30 140h164l47 82h-194l30 140h245l86 147l118 -67l-47 -80h118z" />
    <glyph glyph-name="logicalnot.case" 
d="M91 433h504l-63 -297h-160l30 141h-344z" />
    <glyph glyph-name="asciitilde.case" 
d="M593 381c-37 -89 -88 -144 -173 -144c-76 0 -122 65 -170 65c-38 0 -53 -37 -60 -71l-131 89c36 89 88 144 173 144c76 0 122 -65 170 -65c38 0 53 37 60 71z" />
    <glyph glyph-name="approxequal.case" 
d="M571 262c-37 -74 -88 -120 -173 -120c-76 0 -122 51 -170 51c-38 0 -53 -33 -60 -59l-131 89c36 74 88 118 173 118c76 0 122 -51 170 -51c38 0 53 25 60 47zM619 488c-37 -79 -88 -128 -173 -128c-76 0 -122 51 -170 51c-38 0 -53 -29 -60 -51l-131 89
c36 69 88 110 173 110c76 0 122 -51 170 -51c38 0 53 29 60 55z" />
    <glyph glyph-name="infinity.case" horiz-adv-x="861" 
d="M298 564c76 0 133 -42 170 -100h4c57 58 126 100 205 100c110 0 183 -89 183 -188c0 -128 -102 -238 -242 -238c-77 0 -134 41 -171 100h-4c-56 -59 -125 -100 -204 -100c-110 0 -183 88 -183 187c0 128 103 239 242 239zM529 351c13 -29 32 -69 84 -69c41 0 83 37 83 85
c0 31 -20 53 -54 53c-52 0 -87 -40 -113 -69zM387 351c-14 29 -32 69 -84 69c-41 0 -83 -38 -83 -85c0 -31 20 -53 54 -53c52 0 86 40 113 69z" />
    <glyph glyph-name="uni2113" unicode="&#x2113;" horiz-adv-x="520" 
d="M45 108l-61 101l140 95l50 233c31 144 112 199 228 199c96 0 170 -57 170 -145c0 -126 -108 -209 -215 -295l-74 -60l-13 -62c-1 -8 -2 -15 -2 -21c0 -24 15 -37 39 -37c37 0 55 39 63 63l129 -90c-39 -57 -114 -101 -218 -101s-187 51 -187 148v3zM345 524l-24 -111l7 6
c44 36 105 101 105 153c0 20 -11 34 -31 34c-29 0 -45 -25 -57 -82z" />
    <glyph glyph-name="uni2116" unicode="&#x2116;" horiz-adv-x="1199" 
d="M617 0h-240l-80 322c-11 46 -25 144 -25 144h-4s-13 -97 -26 -159l-65 -307h-173l147 692h240l80 -322c11 -46 29 -144 29 -144h4s10 97 23 159l65 307h172zM788 470c0 140 127 234 265 234c105 0 184 -52 184 -148c0 -140 -128 -234 -266 -234c-105 0 -183 51 -183 148z
M1141 116h-425l30 145h425zM947 493c0 -30 17 -51 50 -51c45 0 81 43 81 90c0 30 -18 52 -51 52c-44 -1 -80 -41 -80 -91z" />
    <glyph glyph-name="estimated" unicode="&#x212e;" horiz-adv-x="844" 
d="M201 332v-197c0 -7 4 -15 10 -23c60 -62 145 -103 241 -103c102 0 192 45 254 118h57c-71 -84 -186 -139 -312 -139c-217 0 -394 161 -394 358c0 195 177 358 394 358c218 0 394 -163 394 -358v-10h-637c-4 0 -7 -1 -7 -4zM208 358h489c2 0 5 2 5 6v194
c0 10 -4 17 -11 25c-61 61 -146 99 -239 99c-94 0 -179 -41 -240 -102c-7 -8 -11 -16 -11 -26v-190c0 -4 3 -6 7 -6z" />
    <glyph glyph-name="uni25A0" unicode="&#x25a0;" horiz-adv-x="796" 
d="M72 0v692h692v-692h-692z" />
    <glyph glyph-name="uni25A1" unicode="&#x25a1;" horiz-adv-x="796" 
d="M72 0v692h692v-692h-692zM256 520v-351h324v351h-324z" />
    <glyph glyph-name="uni25FC" unicode="&#x25fc;" 
d="M60 0v504h504v-504h-504z" />
    <glyph glyph-name="uni25FB" unicode="&#x25fb;" 
d="M60 0v504h504v-504h-504zM222 349v-197h180v197h-180z" />
    <glyph glyph-name="uni25B6" unicode="&#x25b6;" horiz-adv-x="681" 
d="M68 -86v678l5 3l624 -338v-6l-624 -341z" />
    <glyph glyph-name="uni25B7" unicode="&#x25b7;" horiz-adv-x="681" 
d="M68 -86v678l5 3l624 -338v-6l-624 -341zM230 340v-179l4 -2l168 93v4l-168 86z" />
    <glyph glyph-name="uni25C0" unicode="&#x25c0;" horiz-adv-x="681" 
d="M633 592v-678l-5 -4l-624 341v6l624 338z" />
    <glyph glyph-name="uni25C1" unicode="&#x25c1;" horiz-adv-x="681" 
d="M633 592v-678l-5 -4l-624 341v6l624 338zM471 161v179l-4 2l-168 -86v-4l168 -93z" />
    <glyph glyph-name="circle" unicode="&#x25cb;" horiz-adv-x="768" 
d="M48 346c0 208 156 358 360 358s360 -150 360 -358s-156 -358 -360 -358s-360 150 -360 358zM408 159c105 0 178 79 178 187c0 107 -73 187 -178 187s-178 -80 -178 -187c0 -108 73 -187 178 -187z" />
    <glyph glyph-name="H18533" unicode="&#x25cf;" horiz-adv-x="768" 
d="M408 704c204 0 360 -150 360 -358s-156 -358 -360 -358s-360 150 -360 358s156 358 360 358z" />
    <glyph glyph-name="arrowleft" unicode="&#x2190;" horiz-adv-x="666" 
d="M335 -5l-303 356l298 347l116 -104l-155 -162h372v-162h-373l161 -171z" />
    <glyph glyph-name="arrowup" unicode="&#x2191;" horiz-adv-x="666" 
d="M362 679l334 -276l-104 -110l-143 127v-358h-174v358l-143 -127l-104 110z" />
    <glyph glyph-name="arrowright" unicode="&#x2192;" horiz-adv-x="666" 
d="M686 351l-303 -356l-116 104l161 171h-373v162h372l-155 162l116 104z" />
    <glyph glyph-name="arrowdown" unicode="&#x2193;" horiz-adv-x="666" 
d="M688 297l-334 -276l-334 276l104 110l143 -127v358h174v-358l143 127z" />
    <glyph glyph-name="uni2196" unicode="&#x2196;" horiz-adv-x="666" 
d="M525 73l-283 285l10 -257h-152v512h514v-152l-256 11l282 -283z" />
    <glyph glyph-name="uni2197" unicode="&#x2197;" horiz-adv-x="666" 
d="M468 358l-283 -285l-115 116l282 283l-256 -11v152h514v-512h-152z" />
    <glyph glyph-name="uni2198" unicode="&#x2198;" horiz-adv-x="666" 
d="M185 633l283 -285l-10 257h152v-512h-514v152l256 -11l-282 283z" />
    <glyph glyph-name="uni2199" unicode="&#x2199;" horiz-adv-x="666" 
d="M242 348l283 285l115 -116l-282 -283l256 11v-152h-514v512h152z" />
    <glyph glyph-name="uni2605" unicode="&#x2605;" horiz-adv-x="700" 
d="M275 416l107 228h8l106 -228l238 -22l2 -7l-173 -164l45 -242l-6 -3l-216 127l-216 -127l-6 3l44 242l-172 164l2 7z" />
    <glyph glyph-name="a.dnom" horiz-adv-x="386" 
d="M157 318c38 0 64 -23 71 -54h4l10 47h132l-47 -217c-6 -25 -15 -57 -15 -75c0 -10 3 -19 3 -19h-99c-11 16 -15 33 -15 49v2h-3c-20 -30 -48 -58 -96 -58c-70 0 -99 70 -99 129c0 89 55 196 154 196zM162 87c41 0 52 60 52 94c0 26 -7 43 -26 43c-40 0 -52 -60 -52 -94
c0 -26 7 -43 26 -43z" />
    <glyph glyph-name="b.dnom" horiz-adv-x="379" 
d="M81 447h133l-23 -102c-8 -36 -24 -80 -24 -80h2c21 25 46 53 85 53c69 0 98 -70 98 -129c0 -90 -55 -196 -154 -196c-42 0 -67 24 -76 59h-3l-11 -52h-127zM194 224c-41 0 -52 -60 -52 -94c0 -26 6 -43 25 -43c40 0 52 60 52 94c0 26 -7 43 -25 43z" />
    <glyph glyph-name="c.dnom" horiz-adv-x="338" 
d="M180 230c-41 0 -50 -69 -50 -109c0 -24 5 -40 24 -40c28 0 35 32 37 64l113 -54c-18 -48 -77 -98 -161 -98c-83 0 -146 58 -146 131c0 107 68 194 195 194c70 0 133 -40 135 -101l-129 -50c-1 -2 6 14 6 33c0 17 -8 30 -24 30z" />
    <glyph glyph-name="d.dnom" horiz-adv-x="378" 
d="M183 46h-3c-21 -25 -46 -53 -84 -53c-70 0 -99 70 -99 129c0 89 55 196 154 196c38 0 63 -23 71 -54h3l40 183h133l-99 -447h-132zM156 87c41 0 52 60 52 94c0 26 -7 43 -26 43c-40 0 -52 -60 -52 -94c0 -26 7 -43 26 -43z" />
    <glyph glyph-name="e.dnom" horiz-adv-x="351" 
d="M306 121h-190v-4c0 -28 11 -41 32 -41s37 13 47 34l105 -55c-38 -44 -98 -62 -156 -62c-87 0 -147 51 -147 132c0 107 69 193 194 193c78 0 137 -45 137 -117c0 -31 -11 -58 -22 -80zM181 236c-26 0 -42 -18 -51 -41h81v11c0 19 -11 30 -30 30z" />
    <glyph glyph-name="f.dnom" horiz-adv-x="255" 
d="M256 346c0 13 -7 23 -20 23c-15 0 -23 -13 -27 -30l-6 -28h60l-20 -88h-60l-49 -223h-131l48 223h-42l21 88h42l7 33c16 75 76 110 161 110c56 0 104 -21 130 -58l-115 -58c0 -1 1 3 1 8z" />
    <glyph glyph-name="g.dnom" horiz-adv-x="356" 
d="M7 7v3c-18 6 -36 23 -36 45c0 43 50 64 90 69l1 3c-24 12 -47 39 -47 74c0 75 77 117 159 117c28 0 50 -1 67 -1c48 0 47 52 46 81l102 -59c-8 -36 -36 -67 -79 -67c-5 0 -15 1 -18 2l-1 -3c16 -14 28 -34 28 -63c0 -77 -101 -111 -175 -111c-27 0 -57 -2 -57 -19
c0 -9 8 -12 20 -12c23 0 54 4 86 4c75 0 120 -30 120 -77c0 -98 -120 -117 -213 -117c-94 0 -171 26 -171 70c0 37 38 56 78 61zM117 -21c-27 0 -74 -2 -74 -19c0 -13 23 -15 65 -15c25 0 71 0 71 21c0 11 -25 13 -62 13zM175 243c-25 0 -44 -17 -44 -41
c0 -20 11 -30 31 -30c25 0 44 17 44 41c0 20 -11 30 -31 30z" />
    <glyph glyph-name="h.dnom" horiz-adv-x="376" 
d="M342 200l-45 -200h-133l39 176c2 7 3 16 3 23c0 11 -3 21 -19 21c-25 0 -30 -24 -35 -49l-38 -171h-133l100 447h133l-25 -108c-9 -42 -23 -76 -23 -76h3c25 29 55 55 99 55c46 0 78 -32 78 -80c0 -12 0 -23 -4 -38z" />
    <glyph glyph-name="i.dnom" horiz-adv-x="196" 
d="M62 388c0 40 33 68 79 68c37 0 64 -24 64 -55c0 -39 -34 -67 -80 -67c-37 0 -63 23 -63 54zM-20 0l69 311h135l-69 -311h-135z" />
    <glyph glyph-name="j.dnom" horiz-adv-x="201" 
d="M69 388c0 40 33 68 79 68c37 0 64 -24 64 -55c0 -39 -34 -67 -80 -67c-37 0 -63 23 -63 54zM-9 -128l-100 82c46 5 88 13 102 77l62 280h134l-65 -300c-17 -76 -58 -125 -133 -139z" />
    <glyph glyph-name="k.dnom" horiz-adv-x="383" 
d="M403 311l-136 -124l68 -187h-140l-32 97l-36 -36l-13 -61h-133l100 447h133l-38 -176c-9 -40 -23 -76 -23 -76h3s24 33 42 55l51 61h154z" />
    <glyph glyph-name="l.dnom" horiz-adv-x="196" 
d="M-19 0l99 447h135l-99 -447h-135z" />
    <glyph glyph-name="m.dnom" horiz-adv-x="544" 
d="M510 200l-45 -200h-129l38 176c2 10 4 16 4 23c0 11 -4 21 -19 21c-25 0 -27 -24 -33 -49l-38 -171h-129l38 176c2 9 3 16 3 23c0 11 -3 21 -18 21c-25 0 -27 -24 -33 -49l-38 -171h-130l69 311h132l-18 -48h3c25 29 53 55 98 55c37 0 63 -20 71 -53h3c23 30 47 53 98 53
c50 0 77 -32 77 -80c0 -12 -1 -23 -4 -38z" />
    <glyph glyph-name="n.dnom" horiz-adv-x="376" 
d="M342 200l-45 -200h-133l39 176c2 10 3 16 3 23c0 11 -3 21 -19 21c-25 0 -30 -24 -35 -49l-38 -171h-133l69 311h133l-17 -48h3c25 29 55 55 99 55c46 0 78 -32 78 -80c0 -12 -1 -23 -4 -38z" />
    <glyph glyph-name="o.dnom" horiz-adv-x="369" 
d="M-3 126c0 107 69 192 196 192c83 0 149 -53 149 -133c0 -107 -68 -192 -195 -192c-83 0 -150 53 -150 133zM130 121c0 -24 7 -40 26 -40c40 0 53 69 53 109c0 24 -7 40 -26 40c-41 0 -53 -69 -53 -109z" />
    <glyph glyph-name="p.dnom" horiz-adv-x="379" 
d="M166 265h3c21 25 46 53 85 53c69 0 98 -70 98 -129c0 -90 -55 -196 -154 -196c-38 0 -63 23 -71 54h-3l-37 -168h-133l96 432h133zM194 224c-40 0 -52 -60 -52 -94c0 -26 6 -43 25 -43c40 0 52 60 52 94c0 26 -7 43 -25 43z" />
    <glyph glyph-name="q.dnom" horiz-adv-x="379" 
d="M232 263l10 48h127l-96 -432h-133l20 89c9 40 23 78 23 78h-3c-21 -25 -46 -53 -84 -53c-70 0 -99 70 -99 129c0 89 55 196 154 196c41 0 69 -25 78 -55h3zM156 87c41 0 52 60 52 94c0 26 -7 43 -26 43c-40 0 -52 -60 -52 -94c0 -26 7 -43 26 -43z" />
    <glyph glyph-name="r.dnom" horiz-adv-x="320" 
d="M-19 0l69 311h133l-17 -48h3c23 29 55 56 93 56c36 0 55 -26 55 -60c0 -29 -9 -54 -14 -68l-129 -58c10 25 18 49 18 69c0 10 -3 19 -14 19s-17 -13 -25 -48l-39 -173h-133z" />
    <glyph glyph-name="s.dnom" horiz-adv-x="336" 
d="M87 113c13 -23 27 -36 55 -36c14 0 24 5 24 15c0 14 -34 21 -68 30c-41 11 -81 33 -81 86c0 71 77 110 155 110c79 0 124 -28 157 -67l-109 -49c-7 16 -21 32 -49 32c-12 0 -22 -4 -22 -13c0 -13 30 -14 75 -29c39 -14 75 -33 75 -86c0 -71 -79 -113 -156 -113
c-79 0 -135 23 -166 71z" />
    <glyph glyph-name="t.dnom" horiz-adv-x="254" 
d="M186 101l23 -87c-18 -10 -50 -21 -89 -21c-62 0 -100 32 -100 80c0 10 1 20 4 31l24 119h-44l20 88h45l12 55l146 63l-26 -118h62l-20 -88h-63l-22 -107c0 -3 -2 -7 -2 -12c0 -9 6 -13 14 -13s13 6 16 10z" />
    <glyph glyph-name="u.dnom" horiz-adv-x="374" 
d="M5 111l45 200h133l-39 -176c-2 -10 -3 -16 -3 -23c0 -11 2 -21 19 -21c25 0 27 24 33 49l38 171h133l-69 -311h-133l17 48h-3c-24 -29 -54 -55 -98 -55c-46 0 -77 32 -77 80c0 12 1 23 4 38z" />
    <glyph glyph-name="v.dnom" horiz-adv-x="345" 
d="M36 0l-17 311h136l-7 -114c-2 -29 -6 -94 -6 -94h3s20 58 35 94l45 114h141l-160 -311h-170z" />
    <glyph glyph-name="w.dnom" horiz-adv-x="514" 
d="M253 208c0 0 -10 -39 -21 -70l-50 -138h-165l13 311h130l-12 -98c-5 -39 -16 -108 -16 -108h2s20 62 35 108l31 98h152l-10 -98c-4 -39 -14 -108 -14 -108h3s20 69 32 108l30 98h131l-126 -311h-159l11 138c2 32 5 70 6 70h-3z" />
    <glyph glyph-name="x.dnom" horiz-adv-x="353" 
d="M148 111c0 0 -12 -26 -28 -62l-22 -49h-147l104 155l-28 156h138l2 -56c2 -34 1 -55 1 -55h3s7 23 24 57l26 54h145l-101 -156l39 -155h-140l-6 49c-4 33 -8 62 -8 62h-2z" />
    <glyph glyph-name="y.dnom" horiz-adv-x="350" 
d="M152 128h3s19 49 35 89l37 94h144l-181 -328c-29 -51 -57 -99 -116 -111l-105 78c35 7 72 16 92 52l3 5l-45 304h138l-2 -88c-1 -36 -3 -95 -3 -95z" />
    <glyph glyph-name="z.dnom" horiz-adv-x="330" 
d="M25 223l21 88h278l-15 -65l-143 -158h118l-20 -88h-290l15 65l144 158h-108z" />
    <glyph glyph-name="zero.dnom" horiz-adv-x="422" 
d="M231 330c-58 0 -81 -117 -81 -173c0 -32 5 -60 38 -60c58 0 81 117 81 173c0 32 -5 60 -38 60zM10 159c0 129 67 275 229 275c108 0 170 -73 170 -166c0 -129 -67 -275 -228 -275c-109 0 -171 73 -171 166z" />
    <glyph glyph-name="one.dnom" horiz-adv-x="274" 
d="M122 281h-3c-14 -14 -31 -24 -61 -28l-35 112c55 6 112 26 158 62h103l-95 -427h-132l48 219c6 26 17 62 17 62z" />
    <glyph glyph-name="two.dnom" horiz-adv-x="367" 
d="M155 224l-126 52s-2 10 -2 17c0 87 83 141 187 141c84 0 160 -56 160 -126c0 -135 -175 -178 -195 -199v-1h144l-25 -108h-317v14c0 171 255 198 255 282c0 19 -10 33 -31 33c-39 0 -51 -42 -51 -77c0 -11 1 -30 1 -28z" />
    <glyph glyph-name="three.dnom" horiz-adv-x="365" 
d="M144 -7c-87 0 -147 42 -161 104l128 55s-1 -6 -1 -9c0 -27 13 -45 41 -45c29 0 51 22 51 51c0 21 -16 36 -39 36c-26 0 -46 -10 -69 -18l-27 100l100 56h-122l24 104h317l-18 -89l-87 -49c-34 -19 -81 -32 -81 -32c0 -1 1 -2 1 -3h8c73 0 124 -45 124 -109
c0 -86 -92 -152 -189 -152z" />
    <glyph glyph-name="four.dnom" horiz-adv-x="388" 
d="M182 95h-165l-15 72c45 57 82 144 99 267l124 -58c-15 -83 -45 -130 -80 -180h60l51 231h130l-51 -231h38l-23 -101h-39l-20 -95h-130z" />
    <glyph glyph-name="five.dnom" horiz-adv-x="371" 
d="M148 -7c-86 0 -147 42 -161 104l128 55s-1 -6 -1 -9c0 -27 13 -45 41 -45c33 0 55 34 55 66c0 23 -12 40 -34 40s-38 -17 -49 -38l-107 44l77 217h272l-24 -104h-163l-5 -17c-7 -23 -20 -42 -20 -42l2 -1c19 13 45 26 77 26c71 0 107 -59 107 -125
c0 -85 -82 -171 -195 -171z" />
    <glyph glyph-name="six.dnom" horiz-adv-x="383" 
d="M246 434c66 0 131 -26 154 -87l-125 -59v1c0 23 -10 45 -38 45c-37 0 -64 -28 -85 -84c1 0 2 -1 3 -1c23 26 59 35 90 35c68 0 117 -52 117 -126c0 -92 -74 -165 -184 -165c-114 0 -168 66 -168 158c0 138 68 283 236 283zM177 88c38 0 60 29 60 65c0 27 -15 48 -44 48
c-38 0 -59 -29 -59 -65c0 -26 14 -48 43 -48z" />
    <glyph glyph-name="seven.dnom" horiz-adv-x="356" 
d="M397 427l-16 -79c-74 -101 -140 -229 -159 -348h-154c21 126 116 255 160 319h-72l-21 -98l-111 65l31 141h342z" />
    <glyph glyph-name="eight.dnom" horiz-adv-x="392" 
d="M164 -7c-101 0 -173 47 -173 117c0 72 68 109 118 115l1 3c-32 13 -61 41 -61 84c0 78 87 122 180 122c88 0 158 -48 158 -107c0 -57 -44 -91 -100 -106l-1 -3c32 -13 71 -39 71 -87c0 -87 -90 -138 -193 -138zM120 125c0 -25 22 -37 52 -37c29 0 58 15 58 46
c0 24 -22 37 -51 37c-30 0 -59 -16 -59 -46zM167 297c0 -19 18 -31 44 -31c27 0 56 10 56 43c0 18 -18 30 -44 30c-27 0 -56 -10 -56 -42z" />
    <glyph glyph-name="nine.dnom" horiz-adv-x="386" 
d="M144 -7c-64 0 -130 26 -153 86l124 59s1 0 1 -1c0 -22 9 -44 37 -44c40 0 60 26 77 81c-1 0 -1 1 -2 1c-24 -19 -50 -28 -84 -28c-72 0 -123 50 -123 125c0 92 76 162 184 162c113 0 168 -67 168 -160c0 -140 -54 -281 -229 -281zM205 339c-39 0 -59 -27 -59 -64
c0 -26 15 -45 43 -45c39 0 61 27 61 64c0 26 -16 45 -45 45z" />
    <glyph glyph-name="dollar.dnom" horiz-adv-x="409" 
d="M95 -57l14 66c-66 17 -103 59 -120 104l117 58s0 -1 1 0c0 -29 10 -55 30 -70l15 66c-67 23 -118 61 -118 127c0 74 78 125 168 131l13 57h103l-16 -67c50 -16 90 -46 112 -88l-117 -58c0 11 -1 21 -5 31s-10 18 -17 25l-15 -67c59 -25 121 -52 121 -122
c0 -76 -80 -125 -170 -134l-13 -59h-103zM259 124c0 11 -9 19 -23 26l-13 -60c23 6 36 17 36 34zM157 303c0 -12 7 -20 19 -26l13 58c-19 -6 -32 -18 -32 -32z" />
    <glyph glyph-name="cent.dnom" horiz-adv-x="389" 
d="M93 -57l14 65c-61 15 -105 57 -105 131c0 89 71 153 172 170l14 62h104l-15 -65c43 -11 74 -33 87 -59c4 -9 7 -18 7 -27l-112 -44c1 1 1 5 1 10c0 12 -4 21 -11 29l-26 -118c16 9 24 25 27 45l102 -49c-23 -46 -78 -77 -142 -87l-13 -63h-104zM124 140
c0 -19 3 -32 12 -40l26 116c-26 -15 -38 -43 -38 -76z" />
    <glyph glyph-name="Euro.dnom" horiz-adv-x="427" 
d="M271 223h-87c-2 -10 -3 -20 -4 -29h81l-35 -73h-44c5 -22 17 -34 38 -34c36 0 57 35 67 90l112 -73c-15 -41 -83 -111 -182 -111c-84 0 -150 42 -166 128h-56l16 73h38c1 10 2 19 4 29h-36l17 73h43c37 80 108 138 211 138c86 0 146 -44 159 -110l-127 -66
c-1 -1 5 15 5 32c0 32 -12 50 -47 50c-29 0 -51 -18 -67 -44h96z" />
    <glyph glyph-name="yen.dnom" horiz-adv-x="426" 
d="M346 78h-98l-17 -78h-133l17 78h-99l17 73h98l2 6l-9 29h-84l17 73h46l-49 168h139l16 -103c5 -33 8 -62 8 -62c5 0 2 4 18 31l79 134h152l-125 -168h46l-17 -73h-83l-21 -29l-2 -6h99z" />
    <glyph glyph-name="sterling.dnom" horiz-adv-x="400" 
d="M288 161h-81c-9 -22 -22 -42 -40 -57h188l-25 -104h-334l19 83c36 13 53 44 61 78h-63l19 87h51c0 10 2 20 2 26c0 100 61 160 176 160c68 0 139 -31 157 -98l-121 -62c0 -1 2 9 2 18c0 27 -10 45 -36 45c-10 0 -18 -3 -25 -9c-13 -11 -19 -31 -19 -54v-26h111z" />
    <glyph glyph-name="plus.dnom" horiz-adv-x="395" 
d="M95 24l27 127h-118l24 103h119l27 124h118l-28 -124h119l-25 -103h-118l-28 -127h-117z" />
    <glyph glyph-name="minus.dnom" horiz-adv-x="395" 
d="M346 150h-329l24 105h329z" />
    <glyph glyph-name="multiply.dnom" horiz-adv-x="395" 
d="M71 37l-74 78l120 90l-80 95l91 65l75 -93l109 89l74 -78l-118 -91l85 -94l-92 -65l-78 95z" />
    <glyph glyph-name="divide.dnom" horiz-adv-x="395" 
d="M345 151h-329l24 103h329zM94 67c0 39 33 67 78 67c37 0 63 -23 63 -55c0 -38 -33 -66 -78 -66c-37 0 -63 23 -63 54zM149 329c0 39 33 67 78 67c37 0 63 -23 63 -55c0 -38 -33 -66 -78 -66c-37 0 -63 23 -63 54z" />
    <glyph glyph-name="equal.dnom" horiz-adv-x="395" 
d="M331 81h-331l23 97h330zM362 220h-331l23 96h331z" />
    <glyph glyph-name="period.dnom" horiz-adv-x="200" 
d="M-11 51c0 43 34 73 82 73c39 0 67 -26 67 -59c0 -42 -35 -72 -83 -72c-38 0 -66 24 -66 58z" />
    <glyph glyph-name="comma.dnom" horiz-adv-x="200" 
d="M135 50c0 -70 -38 -125 -105 -153l-58 47c38 11 77 23 96 63c-5 -1 -11 -1 -18 -1c-34 0 -58 21 -58 50c0 39 33 68 74 68c43 0 69 -26 69 -74z" />
    <glyph glyph-name="hyphen.dnom" horiz-adv-x="244" 
d="M192 129h-183l23 98h183z" />
    <glyph glyph-name="parenleft.dnom" horiz-adv-x="260" 
d="M188 480l97 -50c-95 -102 -142 -193 -142 -329c0 -65 9 -118 31 -162l-106 -51c-27 44 -58 131 -58 217c0 152 56 274 178 375z" />
    <glyph glyph-name="parenright.dnom" horiz-adv-x="260" 
d="M47 -112l-97 51c95 102 141 192 141 329c0 65 -9 117 -31 162l106 51c28 -45 58 -132 58 -218c0 -152 -55 -273 -177 -375z" />
    <glyph glyph-name="a.numr" horiz-adv-x="386" 
d="M218 595c38 0 64 -23 71 -54h4l10 47h132l-47 -217c-6 -25 -15 -57 -15 -75c0 -10 3 -19 3 -19h-99c-11 16 -15 33 -15 49v2h-3c-20 -30 -48 -58 -96 -58c-70 0 -99 70 -99 129c0 89 55 196 154 196zM223 364c41 0 52 60 52 94c0 26 -7 43 -26 43c-40 0 -52 -60 -52 -94
c0 -26 7 -43 26 -43z" />
    <glyph glyph-name="b.numr" horiz-adv-x="379" 
d="M142 724h133l-23 -102c-8 -36 -24 -80 -24 -80h2c21 25 46 53 85 53c69 0 98 -70 98 -129c0 -90 -55 -196 -154 -196c-42 0 -67 24 -76 59h-3l-11 -52h-127zM255 501c-41 0 -52 -60 -52 -94c0 -26 6 -43 25 -43c40 0 52 60 52 94c0 26 -7 43 -25 43z" />
    <glyph glyph-name="c.numr" horiz-adv-x="338" 
d="M241 507c-41 0 -50 -69 -50 -109c0 -24 5 -40 24 -40c28 0 35 32 37 64l113 -54c-18 -48 -77 -98 -161 -98c-83 0 -146 58 -146 131c0 107 68 194 195 194c70 0 133 -40 135 -101l-129 -50c-1 -2 6 14 6 33c0 17 -8 30 -24 30z" />
    <glyph glyph-name="d.numr" horiz-adv-x="378" 
d="M244 323h-3c-21 -25 -46 -53 -84 -53c-70 0 -99 70 -99 129c0 89 55 196 154 196c38 0 63 -23 71 -54h3l40 183h133l-99 -447h-132zM217 364c41 0 52 60 52 94c0 26 -7 43 -26 43c-40 0 -52 -60 -52 -94c0 -26 7 -43 26 -43z" />
    <glyph glyph-name="e.numr" horiz-adv-x="351" 
d="M367 398h-190v-4c0 -28 11 -41 32 -41s37 13 47 34l105 -55c-38 -44 -98 -62 -156 -62c-87 0 -147 51 -147 132c0 107 69 193 194 193c78 0 137 -45 137 -117c0 -31 -11 -58 -22 -80zM242 513c-26 0 -42 -18 -51 -41h81v11c0 19 -11 30 -30 30z" />
    <glyph glyph-name="f.numr" horiz-adv-x="255" 
d="M317 623c0 13 -7 23 -20 23c-15 0 -23 -13 -27 -30l-6 -28h60l-20 -88h-60l-49 -223h-131l48 223h-42l21 88h42l7 33c16 75 76 110 161 110c56 0 104 -21 130 -58l-115 -58c0 -1 1 3 1 8z" />
    <glyph glyph-name="g.numr" horiz-adv-x="356" 
d="M68 284v3c-18 6 -36 23 -36 45c0 43 50 64 90 69l1 3c-24 12 -47 39 -47 74c0 75 77 117 159 117c28 0 50 -1 67 -1c48 0 47 52 46 81l102 -59c-8 -36 -36 -67 -79 -67c-5 0 -15 1 -18 2l-1 -3c16 -14 28 -34 28 -63c0 -77 -101 -111 -175 -111c-27 0 -57 -2 -57 -19
c0 -9 8 -12 20 -12c23 0 54 4 86 4c75 0 120 -30 120 -77c0 -98 -120 -117 -213 -117c-94 0 -171 26 -171 70c0 37 38 56 78 61zM178 256c-27 0 -74 -2 -74 -19c0 -13 23 -15 65 -15c25 0 71 0 71 21c0 11 -25 13 -62 13zM236 520c-25 0 -44 -17 -44 -41
c0 -20 11 -30 31 -30c25 0 44 17 44 41c0 20 -11 30 -31 30z" />
    <glyph glyph-name="h.numr" horiz-adv-x="376" 
d="M403 477l-45 -200h-133l39 176c2 7 3 16 3 23c0 11 -3 21 -19 21c-25 0 -30 -24 -35 -49l-38 -171h-133l100 447h133l-25 -108c-9 -42 -23 -76 -23 -76h3c25 29 55 55 99 55c46 0 78 -32 78 -80c0 -12 0 -23 -4 -38z" />
    <glyph glyph-name="i.numr" horiz-adv-x="196" 
d="M123 665c0 40 33 68 79 68c37 0 64 -24 64 -55c0 -39 -34 -67 -80 -67c-37 0 -63 23 -63 54zM41 277l69 311h135l-69 -311h-135z" />
    <glyph glyph-name="j.numr" horiz-adv-x="201" 
d="M130 665c0 40 33 68 79 68c37 0 64 -24 64 -55c0 -39 -34 -67 -80 -67c-37 0 -63 23 -63 54zM52 149l-100 82c46 5 88 13 102 77l62 280h134l-65 -300c-17 -76 -58 -125 -133 -139z" />
    <glyph glyph-name="k.numr" horiz-adv-x="383" 
d="M464 588l-136 -124l68 -187h-140l-32 97l-36 -36l-13 -61h-133l100 447h133l-38 -176c-9 -40 -23 -76 -23 -76h3s24 33 42 55l51 61h154z" />
    <glyph glyph-name="l.numr" horiz-adv-x="196" 
d="M42 277l99 447h135l-99 -447h-135z" />
    <glyph glyph-name="m.numr" horiz-adv-x="544" 
d="M571 477l-45 -200h-129l38 176c2 10 4 16 4 23c0 11 -4 21 -19 21c-25 0 -27 -24 -33 -49l-38 -171h-129l38 176c2 9 3 16 3 23c0 11 -3 21 -18 21c-25 0 -27 -24 -33 -49l-38 -171h-130l69 311h132l-18 -48h3c25 29 53 55 98 55c37 0 63 -20 71 -53h3c23 30 47 53 98 53
c50 0 77 -32 77 -80c0 -12 -1 -23 -4 -38z" />
    <glyph glyph-name="n.numr" horiz-adv-x="376" 
d="M403 477l-45 -200h-133l39 176c2 10 3 16 3 23c0 11 -3 21 -19 21c-25 0 -30 -24 -35 -49l-38 -171h-133l69 311h133l-17 -48h3c25 29 55 55 99 55c46 0 78 -32 78 -80c0 -12 -1 -23 -4 -38z" />
    <glyph glyph-name="o.numr" horiz-adv-x="369" 
d="M58 403c0 107 69 192 196 192c83 0 149 -53 149 -133c0 -107 -68 -192 -195 -192c-83 0 -150 53 -150 133zM191 398c0 -24 7 -40 26 -40c40 0 53 69 53 109c0 24 -7 40 -26 40c-41 0 -53 -69 -53 -109z" />
    <glyph glyph-name="p.numr" horiz-adv-x="379" 
d="M227 542h3c21 25 46 53 85 53c69 0 98 -70 98 -129c0 -90 -55 -196 -154 -196c-38 0 -63 23 -71 54h-3l-37 -168h-133l96 432h133zM255 501c-40 0 -52 -60 -52 -94c0 -26 6 -43 25 -43c40 0 52 60 52 94c0 26 -7 43 -25 43z" />
    <glyph glyph-name="q.numr" horiz-adv-x="379" 
d="M293 540l10 48h127l-96 -432h-133l20 89c9 40 23 78 23 78h-3c-21 -25 -46 -53 -84 -53c-70 0 -99 70 -99 129c0 89 55 196 154 196c41 0 69 -25 78 -55h3zM217 364c41 0 52 60 52 94c0 26 -7 43 -26 43c-40 0 -52 -60 -52 -94c0 -26 7 -43 26 -43z" />
    <glyph glyph-name="r.numr" horiz-adv-x="320" 
d="M42 277l69 311h133l-17 -48h3c23 29 55 56 93 56c36 0 55 -26 55 -60c0 -29 -9 -54 -14 -68l-129 -58c10 25 18 49 18 69c0 10 -3 19 -14 19s-17 -13 -25 -48l-39 -173h-133z" />
    <glyph glyph-name="s.numr" horiz-adv-x="336" 
d="M148 390c13 -23 27 -36 55 -36c14 0 24 5 24 15c0 14 -34 21 -68 30c-41 11 -81 33 -81 86c0 71 77 110 155 110c79 0 124 -28 157 -67l-109 -49c-7 16 -21 32 -49 32c-12 0 -22 -4 -22 -13c0 -13 30 -14 75 -29c39 -14 75 -33 75 -86c0 -71 -79 -113 -156 -113
c-79 0 -135 23 -166 71z" />
    <glyph glyph-name="t.numr" horiz-adv-x="254" 
d="M247 378l23 -87c-18 -10 -50 -21 -89 -21c-62 0 -100 32 -100 80c0 10 1 20 4 31l24 119h-44l20 88h45l12 55l146 63l-26 -118h62l-20 -88h-63l-22 -107c0 -3 -2 -7 -2 -12c0 -9 6 -13 14 -13s13 6 16 10z" />
    <glyph glyph-name="u.numr" horiz-adv-x="374" 
d="M66 388l45 200h133l-39 -176c-2 -10 -3 -16 -3 -23c0 -11 2 -21 19 -21c25 0 27 24 33 49l38 171h133l-69 -311h-133l17 48h-3c-24 -29 -54 -55 -98 -55c-46 0 -77 32 -77 80c0 12 1 23 4 38z" />
    <glyph glyph-name="v.numr" horiz-adv-x="345" 
d="M97 277l-17 311h136l-7 -114c-2 -29 -6 -94 -6 -94h3s20 58 35 94l45 114h141l-160 -311h-170z" />
    <glyph glyph-name="w.numr" horiz-adv-x="514" 
d="M314 485c0 0 -10 -39 -21 -70l-50 -138h-165l13 311h130l-12 -98c-5 -39 -16 -108 -16 -108h2s20 62 35 108l31 98h152l-10 -98c-4 -39 -14 -108 -14 -108h3s20 69 32 108l30 98h131l-126 -311h-159l11 138c2 32 5 70 6 70h-3z" />
    <glyph glyph-name="x.numr" horiz-adv-x="353" 
d="M209 388c0 0 -12 -26 -28 -62l-22 -49h-147l104 155l-28 156h138l2 -56c2 -34 1 -55 1 -55h3s7 23 24 57l26 54h145l-101 -156l39 -155h-140l-6 49c-4 33 -8 62 -8 62h-2z" />
    <glyph glyph-name="y.numr" horiz-adv-x="350" 
d="M213 405h3s19 49 35 89l37 94h144l-181 -328c-29 -51 -57 -99 -116 -111l-105 78c35 7 72 16 92 52l3 5l-45 304h138l-2 -88c-1 -36 -3 -95 -3 -95z" />
    <glyph glyph-name="z.numr" horiz-adv-x="330" 
d="M86 500l21 88h278l-15 -65l-143 -158h118l-20 -88h-290l15 65l144 158h-108z" />
    <glyph glyph-name="zero.numr" horiz-adv-x="422" 
d="M292 607c-58 0 -81 -117 -81 -173c0 -32 5 -60 38 -60c58 0 81 117 81 173c0 32 -5 60 -38 60zM71 436c0 129 67 275 229 275c108 0 170 -73 170 -166c0 -129 -67 -275 -228 -275c-109 0 -171 73 -171 166z" />
    <glyph glyph-name="one.numr" horiz-adv-x="274" 
d="M183 558h-3c-14 -14 -31 -24 -61 -28l-35 112c55 6 112 26 158 62h103l-95 -427h-132l48 219c6 26 17 62 17 62z" />
    <glyph glyph-name="two.numr" horiz-adv-x="367" 
d="M216 501l-126 52s-2 10 -2 17c0 87 83 141 187 141c84 0 160 -56 160 -126c0 -135 -175 -178 -195 -199v-1h144l-25 -108h-317v14c0 171 255 198 255 282c0 19 -10 33 -31 33c-39 0 -51 -42 -51 -77c0 -11 1 -30 1 -28z" />
    <glyph glyph-name="three.numr" horiz-adv-x="365" 
d="M205 270c-87 0 -147 42 -161 104l128 55s-1 -6 -1 -9c0 -27 13 -45 41 -45c29 0 51 22 51 51c0 21 -16 36 -39 36c-26 0 -46 -10 -69 -18l-27 100l100 56h-122l24 104h317l-18 -89l-87 -49c-34 -19 -81 -32 -81 -32c0 -1 1 -2 1 -3h8c73 0 124 -45 124 -109
c0 -86 -92 -152 -189 -152z" />
    <glyph glyph-name="four.numr" horiz-adv-x="388" 
d="M243 372h-165l-15 72c45 57 82 144 99 267l124 -58c-15 -83 -45 -130 -80 -180h60l51 231h130l-51 -231h38l-23 -101h-39l-20 -95h-130z" />
    <glyph glyph-name="five.numr" horiz-adv-x="371" 
d="M209 270c-86 0 -147 42 -161 104l128 55s-1 -6 -1 -9c0 -27 13 -45 41 -45c33 0 55 34 55 66c0 23 -12 40 -34 40s-38 -17 -49 -38l-107 44l77 217h272l-24 -104h-163l-5 -17c-7 -23 -20 -42 -20 -42l2 -1c19 13 45 26 77 26c71 0 107 -59 107 -125
c0 -85 -82 -171 -195 -171z" />
    <glyph glyph-name="six.numr" horiz-adv-x="383" 
d="M307 711c66 0 131 -26 154 -87l-125 -59v1c0 23 -10 45 -38 45c-37 0 -64 -28 -85 -84c1 0 2 -1 3 -1c23 26 59 35 90 35c68 0 117 -52 117 -126c0 -92 -74 -165 -184 -165c-114 0 -168 66 -168 158c0 138 68 283 236 283zM238 365c38 0 60 29 60 65c0 27 -15 48 -44 48
c-38 0 -59 -29 -59 -65c0 -26 14 -48 43 -48z" />
    <glyph glyph-name="seven.numr" horiz-adv-x="356" 
d="M458 704l-16 -79c-74 -101 -140 -229 -159 -348h-154c21 126 116 255 160 319h-72l-21 -98l-111 65l31 141h342z" />
    <glyph glyph-name="eight.numr" horiz-adv-x="392" 
d="M225 270c-101 0 -173 47 -173 117c0 72 68 109 118 115l1 3c-32 13 -61 41 -61 84c0 78 87 122 180 122c88 0 158 -48 158 -107c0 -57 -44 -91 -100 -106l-1 -3c32 -13 71 -39 71 -87c0 -87 -90 -138 -193 -138zM181 402c0 -25 22 -37 52 -37c29 0 58 15 58 46
c0 24 -22 37 -51 37c-30 0 -59 -16 -59 -46zM228 574c0 -19 18 -31 44 -31c27 0 56 10 56 43c0 18 -18 30 -44 30c-27 0 -56 -10 -56 -42z" />
    <glyph glyph-name="nine.numr" horiz-adv-x="386" 
d="M205 270c-64 0 -130 26 -153 86l124 59s1 0 1 -1c0 -22 9 -44 37 -44c40 0 60 26 77 81c-1 0 -1 1 -2 1c-24 -19 -50 -28 -84 -28c-72 0 -123 50 -123 125c0 92 76 162 184 162c113 0 168 -67 168 -160c0 -140 -54 -281 -229 -281zM266 616c-39 0 -59 -27 -59 -64
c0 -26 15 -45 43 -45c39 0 61 27 61 64c0 26 -16 45 -45 45z" />
    <glyph glyph-name="dollar.numr" horiz-adv-x="409" 
d="M156 220l14 66c-66 17 -103 59 -120 104l117 58s0 -1 1 0c0 -29 10 -55 30 -70l15 66c-67 23 -118 61 -118 127c0 74 78 125 168 131l13 57h103l-16 -67c50 -16 90 -46 112 -88l-117 -58c0 11 -1 21 -5 31s-10 18 -17 25l-15 -67c59 -25 121 -52 121 -122
c0 -76 -80 -125 -170 -134l-13 -59h-103zM320 401c0 11 -9 19 -23 26l-13 -60c23 6 36 17 36 34zM218 580c0 -12 7 -20 19 -26l13 58c-19 -6 -32 -18 -32 -32z" />
    <glyph glyph-name="cent.numr" horiz-adv-x="389" 
d="M154 220l14 65c-61 15 -105 57 -105 131c0 89 71 153 172 170l14 62h104l-15 -65c43 -11 74 -33 87 -59c4 -9 7 -18 7 -27l-112 -44c1 1 1 5 1 10c0 12 -4 21 -11 29l-26 -118c16 9 24 25 27 45l102 -49c-23 -46 -78 -77 -142 -87l-13 -63h-104zM185 417
c0 -19 3 -32 12 -40l26 116c-26 -15 -38 -43 -38 -76z" />
    <glyph glyph-name="Euro.numr" horiz-adv-x="427" 
d="M332 500h-87c-2 -10 -3 -20 -4 -29h81l-35 -73h-44c5 -22 17 -34 38 -34c36 0 57 35 67 90l112 -73c-15 -41 -83 -111 -182 -111c-84 0 -150 42 -166 128h-56l16 73h38c1 10 2 19 4 29h-36l17 73h43c37 80 108 138 211 138c86 0 146 -44 159 -110l-127 -66
c-1 -1 5 15 5 32c0 32 -12 50 -47 50c-29 0 -51 -18 -67 -44h96z" />
    <glyph glyph-name="yen.numr" horiz-adv-x="426" 
d="M415 355h-98l-17 -78h-133l17 78h-99l17 73h98l2 6l-9 29h-84l17 73h46l-49 168h139l16 -103c5 -33 8 -62 8 -62c5 0 2 4 18 31l79 134h152l-125 -168h46l-17 -73h-83l-21 -29l-2 -6h99z" />
    <glyph glyph-name="sterling.numr" horiz-adv-x="400" 
d="M349 438h-81c-9 -22 -22 -42 -40 -57h188l-25 -104h-334l19 83c36 13 53 44 61 78h-63l19 87h51c0 10 2 20 2 26c0 100 61 160 176 160c68 0 139 -31 157 -98l-121 -62c0 -1 2 9 2 18c0 27 -10 45 -36 45c-10 0 -18 -3 -25 -9c-13 -11 -19 -31 -19 -54v-26h111z" />
    <glyph glyph-name="plus.numr" horiz-adv-x="395" 
d="M156 301l27 127h-118l24 103h119l27 124h118l-28 -124h119l-25 -103h-118l-28 -127h-117z" />
    <glyph glyph-name="minus.numr" horiz-adv-x="395" 
d="M405 427h-329l24 105h329z" />
    <glyph glyph-name="multiply.numr" horiz-adv-x="395" 
d="M132 314l-74 78l120 90l-80 95l91 65l75 -93l109 89l74 -78l-118 -91l85 -94l-92 -65l-78 95z" />
    <glyph glyph-name="divide.numr" horiz-adv-x="395" 
d="M407 428h-329l24 103h329zM156 344c0 39 33 67 78 67c37 0 63 -23 63 -55c0 -38 -33 -66 -78 -66c-37 0 -63 23 -63 54zM211 606c0 39 33 67 78 67c37 0 63 -23 63 -55c0 -38 -33 -66 -78 -66c-37 0 -63 23 -63 54z" />
    <glyph glyph-name="equal.numr" horiz-adv-x="395" 
d="M392 358h-331l23 97h330zM423 497h-331l23 96h331z" />
    <glyph glyph-name="period.numr" horiz-adv-x="200" 
d="M50 328c0 43 34 73 82 73c39 0 67 -26 67 -59c0 -42 -35 -72 -83 -72c-38 0 -66 24 -66 58z" />
    <glyph glyph-name="comma.numr" horiz-adv-x="200" 
d="M197 327c0 -70 -38 -125 -105 -153l-58 47c38 11 77 23 96 63c-5 -1 -11 -1 -18 -1c-34 0 -58 21 -58 50c0 39 33 68 74 68c43 0 69 -26 69 -74z" />
    <glyph glyph-name="hyphen.numr" horiz-adv-x="244" 
d="M253 406h-183l23 98h183z" />
    <glyph glyph-name="parenleft.numr" horiz-adv-x="260" 
d="M247 757l97 -50c-95 -102 -142 -193 -142 -329c0 -65 9 -118 31 -162l-106 -51c-27 44 -58 131 -58 217c0 152 56 274 178 375z" />
    <glyph glyph-name="parenright.numr" horiz-adv-x="260" 
d="M108 165l-97 51c95 102 141 192 141 329c0 65 -9 117 -31 162l106 51c28 -45 58 -132 58 -218c0 -152 -55 -273 -177 -375z" />
    <glyph glyph-name="uni2090" unicode="&#x2090;" horiz-adv-x="386" 
d="M130 210c38 0 64 -23 71 -54h4l10 47h132l-47 -217c-6 -25 -15 -57 -15 -75c0 -10 3 -19 3 -19h-99c-11 16 -15 33 -15 49v2h-3c-20 -30 -48 -58 -96 -58c-70 0 -99 70 -99 129c0 89 55 196 154 196zM135 -21c41 0 52 60 52 94c0 26 -7 43 -26 43c-40 0 -52 -60 -52 -94
c0 -26 7 -43 26 -43z" />
    <glyph glyph-name="b.subs" horiz-adv-x="379" 
d="M57 339h133l-23 -102c-8 -36 -24 -80 -24 -80h2c21 25 46 53 85 53c69 0 98 -70 98 -129c0 -90 -55 -196 -154 -196c-42 0 -67 24 -76 59h-3l-11 -52h-127zM170 116c-41 0 -52 -60 -52 -94c0 -26 6 -43 25 -43c40 0 52 60 52 94c0 26 -7 43 -25 43z" />
    <glyph glyph-name="c.subs" horiz-adv-x="338" 
d="M156 122c-41 0 -50 -69 -50 -109c0 -24 5 -40 24 -40c28 0 35 32 37 64l113 -54c-18 -48 -77 -98 -161 -98c-83 0 -146 58 -146 131c0 107 68 194 195 194c70 0 133 -40 135 -101l-129 -50c-1 -2 6 14 6 33c0 17 -8 30 -24 30z" />
    <glyph glyph-name="d.subs" horiz-adv-x="378" 
d="M159 -62h-3c-21 -25 -46 -53 -84 -53c-70 0 -99 70 -99 129c0 89 55 196 154 196c38 0 63 -23 71 -54h3l40 183h133l-99 -447h-132zM132 -21c41 0 52 60 52 94c0 26 -7 43 -26 43c-40 0 -52 -60 -52 -94c0 -26 7 -43 26 -43z" />
    <glyph glyph-name="uni2091" unicode="&#x2091;" horiz-adv-x="351" 
d="M282 13h-190v-4c0 -28 11 -41 32 -41s37 13 47 34l105 -55c-38 -44 -98 -62 -156 -62c-87 0 -147 51 -147 132c0 107 69 193 194 193c78 0 137 -45 137 -117c0 -31 -11 -58 -22 -80zM157 128c-26 0 -42 -18 -51 -41h81v11c0 19 -11 30 -30 30z" />
    <glyph glyph-name="f.subs" horiz-adv-x="255" 
d="M232 238c0 13 -7 23 -20 23c-15 0 -23 -13 -27 -30l-6 -28h60l-20 -88h-60l-49 -223h-131l48 223h-42l21 88h42l7 33c16 75 76 110 161 110c56 0 104 -21 130 -58l-115 -58c0 -1 1 3 1 8z" />
    <glyph glyph-name="g.subs" horiz-adv-x="356" 
d="M-17 -101v3c-18 6 -36 23 -36 45c0 43 50 64 90 69l1 3c-24 12 -47 39 -47 74c0 75 77 117 159 117c28 0 50 -1 67 -1c48 0 47 52 46 81l102 -59c-8 -36 -36 -67 -79 -67c-5 0 -15 1 -18 2l-1 -3c16 -14 28 -34 28 -63c0 -77 -101 -111 -175 -111c-27 0 -57 -2 -57 -19
c0 -9 8 -12 20 -12c23 0 54 4 86 4c75 0 120 -30 120 -77c0 -98 -120 -117 -213 -117c-94 0 -171 26 -171 70c0 37 38 56 78 61zM93 -129c-27 0 -74 -2 -74 -19c0 -13 23 -15 65 -15c25 0 71 0 71 21c0 11 -25 13 -62 13zM151 135c-25 0 -44 -17 -44 -41
c0 -20 11 -30 31 -30c25 0 44 17 44 41c0 20 -11 30 -31 30z" />
    <glyph glyph-name="uni2095" unicode="&#x2095;" horiz-adv-x="376" 
d="M318 92l-45 -200h-133l39 176c2 7 3 16 3 23c0 11 -3 21 -19 21c-25 0 -30 -24 -35 -49l-38 -171h-133l100 447h133l-25 -108c-9 -42 -23 -76 -23 -76h3c25 29 55 55 99 55c46 0 78 -32 78 -80c0 -12 0 -23 -4 -38z" />
    <glyph glyph-name="i.subs" horiz-adv-x="196" 
d="M38 280c0 40 33 68 79 68c37 0 64 -24 64 -55c0 -39 -34 -67 -80 -67c-37 0 -63 23 -63 54zM-44 -108l69 311h135l-69 -311h-135z" />
    <glyph glyph-name="j.subs" horiz-adv-x="201" 
d="M46 280c0 40 33 68 79 68c37 0 64 -24 64 -55c0 -39 -34 -67 -80 -67c-37 0 -63 23 -63 54zM-32 -236l-100 82c46 5 88 13 102 77l62 280h134l-65 -300c-17 -76 -58 -125 -133 -139z" />
    <glyph glyph-name="uni2096" unicode="&#x2096;" horiz-adv-x="383" 
d="M379 203l-136 -124l68 -187h-140l-32 97l-36 -36l-13 -61h-133l100 447h133l-38 -176c-9 -40 -23 -76 -23 -76h3s24 33 42 55l51 61h154z" />
    <glyph glyph-name="uni2097" unicode="&#x2097;" horiz-adv-x="196" 
d="M-43 -108l99 447h135l-99 -447h-135z" />
    <glyph glyph-name="uni2098" unicode="&#x2098;" horiz-adv-x="544" 
d="M486 92l-45 -200h-129l38 176c2 10 4 16 4 23c0 11 -4 21 -19 21c-25 0 -27 -24 -33 -49l-38 -171h-129l38 176c2 9 3 16 3 23c0 11 -3 21 -18 21c-25 0 -27 -24 -33 -49l-38 -171h-130l69 311h132l-18 -48h3c25 29 53 55 98 55c37 0 63 -20 71 -53h3c23 30 47 53 98 53
c50 0 77 -32 77 -80c0 -12 -1 -23 -4 -38z" />
    <glyph glyph-name="uni2099" unicode="&#x2099;" horiz-adv-x="376" 
d="M318 92l-45 -200h-133l39 176c2 10 3 16 3 23c0 11 -3 21 -19 21c-25 0 -30 -24 -35 -49l-38 -171h-133l69 311h133l-17 -48h3c25 29 55 55 99 55c46 0 78 -32 78 -80c0 -12 -1 -23 -4 -38z" />
    <glyph glyph-name="uni2092" unicode="&#x2092;" horiz-adv-x="369" 
d="M-27 18c0 107 69 192 196 192c83 0 149 -53 149 -133c0 -107 -68 -192 -195 -192c-83 0 -150 53 -150 133zM106 13c0 -24 7 -40 26 -40c40 0 53 69 53 109c0 24 -7 40 -26 40c-41 0 -53 -69 -53 -109z" />
    <glyph glyph-name="uni209A" unicode="&#x209a;" horiz-adv-x="379" 
d="M142 157h3c21 25 46 53 85 53c69 0 98 -70 98 -129c0 -90 -55 -196 -154 -196c-38 0 -63 23 -71 54h-3l-37 -168h-133l96 432h133zM170 116c-40 0 -52 -60 -52 -94c0 -26 6 -43 25 -43c40 0 52 60 52 94c0 26 -7 43 -25 43z" />
    <glyph glyph-name="q.subs" horiz-adv-x="379" 
d="M208 155l10 48h127l-96 -432h-133l20 89c9 40 23 78 23 78h-3c-21 -25 -46 -53 -84 -53c-70 0 -99 70 -99 129c0 89 55 196 154 196c41 0 69 -25 78 -55h3zM132 -21c41 0 52 60 52 94c0 26 -7 43 -26 43c-40 0 -52 -60 -52 -94c0 -26 7 -43 26 -43z" />
    <glyph glyph-name="r.subs" horiz-adv-x="320" 
d="M-43 -108l69 311h133l-17 -48h3c23 29 55 56 93 56c36 0 55 -26 55 -60c0 -29 -9 -54 -14 -68l-129 -58c10 25 18 49 18 69c0 10 -3 19 -14 19s-17 -13 -25 -48l-39 -173h-133z" />
    <glyph glyph-name="uni209B" unicode="&#x209b;" horiz-adv-x="336" 
d="M63 5c13 -23 27 -36 55 -36c14 0 24 5 24 15c0 14 -34 21 -68 30c-41 11 -81 33 -81 86c0 71 77 110 155 110c79 0 124 -28 157 -67l-109 -49c-7 16 -21 32 -49 32c-12 0 -22 -4 -22 -13c0 -13 30 -14 75 -29c39 -14 75 -33 75 -86c0 -71 -79 -113 -156 -113
c-79 0 -135 23 -166 71z" />
    <glyph glyph-name="uni209C" unicode="&#x209c;" horiz-adv-x="254" 
d="M162 -7l23 -87c-18 -10 -50 -21 -89 -21c-62 0 -100 32 -100 80c0 10 1 20 4 31l24 119h-44l20 88h45l12 55l146 63l-26 -118h62l-20 -88h-63l-22 -107c0 -3 -2 -7 -2 -12c0 -9 6 -13 14 -13s13 6 16 10z" />
    <glyph glyph-name="u.subs" horiz-adv-x="374" 
d="M-19 3l45 200h133l-39 -176c-2 -10 -3 -16 -3 -23c0 -11 2 -21 19 -21c25 0 27 24 33 49l38 171h133l-69 -311h-133l17 48h-3c-24 -29 -54 -55 -98 -55c-46 0 -77 32 -77 80c0 12 1 23 4 38z" />
    <glyph glyph-name="v.subs" horiz-adv-x="345" 
d="M12 -108l-17 311h136l-7 -114c-2 -29 -6 -94 -6 -94h3s20 58 35 94l45 114h141l-160 -311h-170z" />
    <glyph glyph-name="w.subs" horiz-adv-x="514" 
d="M229 100c0 0 -10 -39 -21 -70l-50 -138h-165l13 311h130l-12 -98c-5 -39 -16 -108 -16 -108h2s20 62 35 108l31 98h152l-10 -98c-4 -39 -14 -108 -14 -108h3s20 69 32 108l30 98h131l-126 -311h-159l11 138c2 32 5 70 6 70h-3z" />
    <glyph glyph-name="uni2093" unicode="&#x2093;" horiz-adv-x="353" 
d="M124 3c0 0 -12 -26 -28 -62l-22 -49h-147l104 155l-28 156h138l2 -56c2 -34 1 -55 1 -55h3s7 23 24 57l26 54h145l-101 -156l39 -155h-140l-6 49c-4 33 -8 62 -8 62h-2z" />
    <glyph glyph-name="y.subs" horiz-adv-x="350" 
d="M128 20h3s19 49 35 89l37 94h144l-181 -328c-29 -51 -57 -99 -116 -111l-105 78c35 7 72 16 92 52l3 5l-45 304h138l-2 -88c-1 -36 -3 -95 -3 -95z" />
    <glyph glyph-name="z.subs" horiz-adv-x="330" 
d="M1 115l21 88h278l-15 -65l-143 -158h118l-20 -88h-290l15 65l144 158h-108z" />
    <glyph glyph-name="uni2080" unicode="&#x2080;" horiz-adv-x="422" 
d="M207 222c-58 0 -81 -117 -81 -173c0 -32 5 -60 38 -60c58 0 81 117 81 173c0 32 -5 60 -38 60zM-14 51c0 129 67 275 229 275c108 0 170 -73 170 -166c0 -129 -67 -275 -228 -275c-109 0 -171 73 -171 166z" />
    <glyph glyph-name="uni2081" unicode="&#x2081;" horiz-adv-x="274" 
d="M98 173h-3c-14 -14 -31 -24 -61 -28l-35 112c55 6 112 26 158 62h103l-95 -427h-132l48 219c6 26 17 62 17 62z" />
    <glyph glyph-name="uni2082" unicode="&#x2082;" horiz-adv-x="367" 
d="M131 116l-126 52s-2 10 -2 17c0 87 83 141 187 141c84 0 160 -56 160 -126c0 -135 -175 -178 -195 -199v-1h144l-25 -108h-317v14c0 171 255 198 255 282c0 19 -10 33 -31 33c-39 0 -51 -42 -51 -77c0 -11 1 -30 1 -28z" />
    <glyph glyph-name="uni2083" unicode="&#x2083;" horiz-adv-x="365" 
d="M120 -115c-87 0 -147 42 -161 104l128 55s-1 -6 -1 -9c0 -27 13 -45 41 -45c29 0 51 22 51 51c0 21 -16 36 -39 36c-26 0 -46 -10 -69 -18l-27 100l100 56h-122l24 104h317l-18 -89l-87 -49c-34 -19 -81 -32 -81 -32c0 -1 1 -2 1 -3h8c73 0 124 -45 124 -109
c0 -86 -92 -152 -189 -152z" />
    <glyph glyph-name="uni2084" unicode="&#x2084;" horiz-adv-x="388" 
d="M158 -13h-165l-15 72c45 57 82 144 99 267l124 -58c-15 -83 -45 -130 -80 -180h60l51 231h130l-51 -231h38l-23 -101h-39l-20 -95h-130z" />
    <glyph glyph-name="uni2085" unicode="&#x2085;" horiz-adv-x="371" 
d="M124 -115c-86 0 -147 42 -161 104l128 55s-1 -6 -1 -9c0 -27 13 -45 41 -45c33 0 55 34 55 66c0 23 -12 40 -34 40s-38 -17 -49 -38l-107 44l77 217h272l-24 -104h-163l-5 -17c-7 -23 -20 -42 -20 -42l2 -1c19 13 45 26 77 26c71 0 107 -59 107 -125
c0 -85 -82 -171 -195 -171z" />
    <glyph glyph-name="uni2086" unicode="&#x2086;" horiz-adv-x="383" 
d="M222 326c66 0 131 -26 154 -87l-125 -59v1c0 23 -10 45 -38 45c-37 0 -64 -28 -85 -84c1 0 2 -1 3 -1c23 26 59 35 90 35c68 0 117 -52 117 -126c0 -92 -74 -165 -184 -165c-114 0 -168 66 -168 158c0 138 68 283 236 283zM153 -20c38 0 60 29 60 65c0 27 -15 48 -44 48
c-38 0 -59 -29 -59 -65c0 -26 14 -48 43 -48z" />
    <glyph glyph-name="uni2087" unicode="&#x2087;" horiz-adv-x="356" 
d="M373 319l-16 -79c-74 -101 -140 -229 -159 -348h-154c21 126 116 255 160 319h-72l-21 -98l-111 65l31 141h342z" />
    <glyph glyph-name="uni2088" unicode="&#x2088;" horiz-adv-x="392" 
d="M140 -115c-101 0 -173 47 -173 117c0 72 68 109 118 115l1 3c-32 13 -61 41 -61 84c0 78 87 122 180 122c88 0 158 -48 158 -107c0 -57 -44 -91 -100 -106l-1 -3c32 -13 71 -39 71 -87c0 -87 -90 -138 -193 -138zM96 17c0 -25 22 -37 52 -37c29 0 58 15 58 46
c0 24 -22 37 -51 37c-30 0 -59 -16 -59 -46zM143 189c0 -19 18 -31 44 -31c27 0 56 10 56 43c0 18 -18 30 -44 30c-27 0 -56 -10 -56 -42z" />
    <glyph glyph-name="uni2089" unicode="&#x2089;" horiz-adv-x="386" 
d="M120 -115c-64 0 -130 26 -153 86l124 59s1 0 1 -1c0 -22 9 -44 37 -44c40 0 60 26 77 81c-1 0 -1 1 -2 1c-24 -19 -50 -28 -84 -28c-72 0 -123 50 -123 125c0 92 76 162 184 162c113 0 168 -67 168 -160c0 -140 -54 -281 -229 -281zM181 231c-39 0 -59 -27 -59 -64
c0 -26 15 -45 43 -45c39 0 61 27 61 64c0 26 -16 45 -45 45z" />
    <glyph glyph-name="dollar.subs" horiz-adv-x="409" 
d="M71 -165l14 66c-66 17 -103 59 -120 104l117 58s0 -1 1 0c0 -29 10 -55 30 -70l15 66c-67 23 -118 61 -118 127c0 74 78 125 168 131l13 57h103l-16 -67c50 -16 90 -46 112 -88l-117 -58c0 11 -1 21 -5 31s-10 18 -17 25l-15 -67c59 -25 121 -52 121 -122
c0 -76 -80 -125 -170 -134l-13 -59h-103zM235 16c0 11 -9 19 -23 26l-13 -60c23 6 36 17 36 34zM133 195c0 -12 7 -20 19 -26l13 58c-19 -6 -32 -18 -32 -32z" />
    <glyph glyph-name="cent.subs" horiz-adv-x="389" 
d="M69 -165l14 65c-61 15 -105 57 -105 131c0 89 71 153 172 170l14 62h104l-15 -65c43 -11 74 -33 87 -59c4 -9 7 -18 7 -27l-112 -44c1 1 1 5 1 10c0 12 -4 21 -11 29l-26 -118c16 9 24 25 27 45l102 -49c-23 -46 -78 -77 -142 -87l-13 -63h-104zM100 32
c0 -19 3 -32 12 -40l26 116c-26 -15 -38 -43 -38 -76z" />
    <glyph glyph-name="Euro.subs" horiz-adv-x="427" 
d="M247 115h-87c-2 -10 -3 -20 -4 -29h81l-35 -73h-44c5 -22 17 -34 38 -34c36 0 57 35 67 90l112 -73c-15 -41 -83 -111 -182 -111c-84 0 -150 42 -166 128h-56l16 73h38c1 10 2 19 4 29h-36l17 73h43c37 80 108 138 211 138c86 0 146 -44 159 -110l-127 -66
c-1 -1 5 15 5 32c0 32 -12 50 -47 50c-29 0 -51 -18 -67 -44h96z" />
    <glyph glyph-name="yen.subs" horiz-adv-x="426" 
d="M322 -30h-98l-17 -78h-133l17 78h-99l17 73h98l2 6l-9 29h-84l17 73h46l-49 168h139l16 -103c5 -33 8 -62 8 -62c5 0 2 4 18 31l79 134h152l-125 -168h46l-17 -73h-83l-21 -29l-2 -6h99z" />
    <glyph glyph-name="sterling.subs" horiz-adv-x="400" 
d="M264 53h-81c-9 -22 -22 -42 -40 -57h188l-25 -104h-334l19 83c36 13 53 44 61 78h-63l19 87h51c0 10 2 20 2 26c0 100 61 160 176 160c68 0 139 -31 157 -98l-121 -62c0 -1 2 9 2 18c0 27 -10 45 -36 45c-10 0 -18 -3 -25 -9c-13 -11 -19 -31 -19 -54v-26h111z" />
    <glyph glyph-name="uni208A" unicode="&#x208a;" horiz-adv-x="395" 
d="M71 -84l27 127h-118l24 103h119l27 124h118l-28 -124h119l-25 -103h-118l-28 -127h-117z" />
    <glyph glyph-name="uni208B" unicode="&#x208b;" horiz-adv-x="395" 
d="M322 42h-329l24 105h329z" />
    <glyph glyph-name="multiply.subs" horiz-adv-x="395" 
d="M47 -71l-74 78l120 90l-80 95l91 65l75 -93l109 89l74 -78l-118 -91l85 -94l-92 -65l-78 95z" />
    <glyph glyph-name="divide.subs" horiz-adv-x="395" 
d="M322 43h-329l24 103h329zM71 -41c0 39 33 67 78 67c37 0 63 -23 63 -55c0 -38 -33 -66 -78 -66c-37 0 -63 23 -63 54zM126 221c0 39 33 67 78 67c37 0 63 -23 63 -55c0 -38 -33 -66 -78 -66c-37 0 -63 23 -63 54z" />
    <glyph glyph-name="uni208C" unicode="&#x208c;" horiz-adv-x="395" 
d="M307 -27h-331l23 97h330zM338 112h-331l23 96h331z" />
    <glyph glyph-name="period.subs" horiz-adv-x="200" 
d="M-35 -57c0 43 34 73 82 73c39 0 67 -26 67 -59c0 -42 -35 -72 -83 -72c-38 0 -66 24 -66 58z" />
    <glyph glyph-name="comma.subs" horiz-adv-x="200" 
d="M111 -58c0 -70 -38 -125 -105 -153l-58 47c38 11 77 23 96 63c-5 -1 -11 -1 -18 -1c-34 0 -58 21 -58 50c0 39 33 68 74 68c43 0 69 -26 69 -74z" />
    <glyph glyph-name="hyphen.subs" horiz-adv-x="244" 
d="M168 21h-183l23 98h183z" />
    <glyph glyph-name="uni208D" unicode="&#x208d;" horiz-adv-x="260" 
d="M164 372l97 -50c-95 -102 -142 -193 -142 -329c0 -65 9 -118 31 -162l-106 -51c-27 44 -58 131 -58 217c0 152 56 274 178 375z" />
    <glyph glyph-name="uni208E" unicode="&#x208e;" horiz-adv-x="260" 
d="M23 -220l-97 51c95 102 141 192 141 329c0 65 -9 117 -31 162l106 51c28 -45 58 -132 58 -218c0 -152 -55 -273 -177 -375z" />
    <glyph glyph-name="a.sups" horiz-adv-x="386" 
d="M242 699c38 0 64 -23 71 -54h4l10 47h132l-47 -217c-6 -25 -15 -57 -15 -75c0 -10 3 -19 3 -19h-99c-11 16 -15 33 -15 49v2h-3c-20 -30 -48 -58 -96 -58c-70 0 -99 70 -99 129c0 89 55 196 154 196zM247 468c41 0 52 60 52 94c0 26 -7 43 -26 43c-40 0 -52 -60 -52 -94
c0 -26 7 -43 26 -43z" />
    <glyph glyph-name="b.sups" horiz-adv-x="379" 
d="M166 828h133l-23 -102c-8 -36 -24 -80 -24 -80h2c21 25 46 53 85 53c69 0 98 -70 98 -129c0 -90 -55 -196 -154 -196c-42 0 -67 24 -76 59h-3l-11 -52h-127zM279 605c-41 0 -52 -60 -52 -94c0 -26 6 -43 25 -43c40 0 52 60 52 94c0 26 -7 43 -25 43z" />
    <glyph glyph-name="c.sups" horiz-adv-x="338" 
d="M265 611c-41 0 -50 -69 -50 -109c0 -24 5 -40 24 -40c28 0 35 32 37 64l113 -54c-18 -48 -77 -98 -161 -98c-83 0 -146 58 -146 131c0 107 68 194 195 194c70 0 133 -40 135 -101l-129 -50c-1 -2 6 14 6 33c0 17 -8 30 -24 30z" />
    <glyph glyph-name="d.sups" horiz-adv-x="378" 
d="M268 427h-3c-21 -25 -46 -53 -84 -53c-70 0 -99 70 -99 129c0 89 55 196 154 196c38 0 63 -23 71 -54h3l40 183h133l-99 -447h-132zM241 468c41 0 52 60 52 94c0 26 -7 43 -26 43c-40 0 -52 -60 -52 -94c0 -26 7 -43 26 -43z" />
    <glyph glyph-name="e.sups" horiz-adv-x="351" 
d="M391 502h-190v-4c0 -28 11 -41 32 -41s37 13 47 34l105 -55c-38 -44 -98 -62 -156 -62c-87 0 -147 51 -147 132c0 107 69 193 194 193c78 0 137 -45 137 -117c0 -31 -11 -58 -22 -80zM266 617c-26 0 -42 -18 -51 -41h81v11c0 19 -11 30 -30 30z" />
    <glyph glyph-name="f.sups" horiz-adv-x="255" 
d="M341 727c0 13 -7 23 -20 23c-15 0 -23 -13 -27 -30l-6 -28h60l-20 -88h-60l-49 -223h-131l48 223h-42l21 88h42l7 33c16 75 76 110 161 110c56 0 104 -21 130 -58l-115 -58c0 -1 1 3 1 8z" />
    <glyph glyph-name="g.sups" horiz-adv-x="356" 
d="M92 388v3c-18 6 -36 23 -36 45c0 43 50 64 90 69l1 3c-24 12 -47 39 -47 74c0 75 77 117 159 117c28 0 50 -1 67 -1c48 0 47 52 46 81l102 -59c-8 -36 -36 -67 -79 -67c-5 0 -15 1 -18 2l-1 -3c16 -14 28 -34 28 -63c0 -77 -101 -111 -175 -111c-27 0 -57 -2 -57 -19
c0 -9 8 -12 20 -12c23 0 54 4 86 4c75 0 120 -30 120 -77c0 -98 -120 -117 -213 -117c-94 0 -171 26 -171 70c0 37 38 56 78 61zM202 360c-27 0 -74 -2 -74 -19c0 -13 23 -15 65 -15c25 0 71 0 71 21c0 11 -25 13 -62 13zM260 624c-25 0 -44 -17 -44 -41
c0 -20 11 -30 31 -30c25 0 44 17 44 41c0 20 -11 30 -31 30z" />
    <glyph glyph-name="h.sups" horiz-adv-x="376" 
d="M427 581l-45 -200h-133l39 176c2 7 3 16 3 23c0 11 -3 21 -19 21c-25 0 -30 -24 -35 -49l-38 -171h-133l100 447h133l-25 -108c-9 -42 -23 -76 -23 -76h3c25 29 55 55 99 55c46 0 78 -32 78 -80c0 -12 0 -23 -4 -38z" />
    <glyph glyph-name="uni2071" unicode="&#x2071;" horiz-adv-x="196" 
d="M147 769c0 40 33 68 79 68c37 0 64 -24 64 -55c0 -39 -34 -67 -80 -67c-37 0 -63 23 -63 54zM65 381l69 311h135l-69 -311h-135z" />
    <glyph glyph-name="j.sups" horiz-adv-x="201" 
d="M154 769c0 40 33 68 79 68c37 0 64 -24 64 -55c0 -39 -34 -67 -80 -67c-37 0 -63 23 -63 54zM76 253l-100 82c46 5 88 13 102 77l62 280h134l-65 -300c-17 -76 -58 -125 -133 -139z" />
    <glyph glyph-name="k.sups" horiz-adv-x="383" 
d="M488 692l-136 -124l68 -187h-140l-32 97l-36 -36l-13 -61h-133l100 447h133l-38 -176c-9 -40 -23 -76 -23 -76h3s24 33 42 55l51 61h154z" />
    <glyph glyph-name="l.sups" horiz-adv-x="196" 
d="M66 381l99 447h135l-99 -447h-135z" />
    <glyph glyph-name="m.sups" horiz-adv-x="544" 
d="M595 581l-45 -200h-129l38 176c2 10 4 16 4 23c0 11 -4 21 -19 21c-25 0 -27 -24 -33 -49l-38 -171h-129l38 176c2 9 3 16 3 23c0 11 -3 21 -18 21c-25 0 -27 -24 -33 -49l-38 -171h-130l69 311h132l-18 -48h3c25 29 53 55 98 55c37 0 63 -20 71 -53h3c23 30 47 53 98 53
c50 0 77 -32 77 -80c0 -12 -1 -23 -4 -38z" />
    <glyph glyph-name="uni207F" unicode="&#x207f;" horiz-adv-x="376" 
d="M427 581l-45 -200h-133l39 176c2 10 3 16 3 23c0 11 -3 21 -19 21c-25 0 -30 -24 -35 -49l-38 -171h-133l69 311h133l-17 -48h3c25 29 55 55 99 55c46 0 78 -32 78 -80c0 -12 -1 -23 -4 -38z" />
    <glyph glyph-name="o.sups" horiz-adv-x="369" 
d="M82 507c0 107 69 192 196 192c83 0 149 -53 149 -133c0 -107 -68 -192 -195 -192c-83 0 -150 53 -150 133zM215 502c0 -24 7 -40 26 -40c40 0 53 69 53 109c0 24 -7 40 -26 40c-41 0 -53 -69 -53 -109z" />
    <glyph glyph-name="p.sups" horiz-adv-x="379" 
d="M251 646h3c21 25 46 53 85 53c69 0 98 -70 98 -129c0 -90 -55 -196 -154 -196c-38 0 -63 23 -71 54h-3l-37 -168h-133l96 432h133zM279 605c-40 0 -52 -60 -52 -94c0 -26 6 -43 25 -43c40 0 52 60 52 94c0 26 -7 43 -25 43z" />
    <glyph glyph-name="q.sups" horiz-adv-x="379" 
d="M317 644l10 48h127l-96 -432h-133l20 89c9 40 23 78 23 78h-3c-21 -25 -46 -53 -84 -53c-70 0 -99 70 -99 129c0 89 55 196 154 196c41 0 69 -25 78 -55h3zM241 468c41 0 52 60 52 94c0 26 -7 43 -26 43c-40 0 -52 -60 -52 -94c0 -26 7 -43 26 -43z" />
    <glyph glyph-name="r.sups" horiz-adv-x="320" 
d="M66 381l69 311h133l-17 -48h3c23 29 55 56 93 56c36 0 55 -26 55 -60c0 -29 -9 -54 -14 -68l-129 -58c10 25 18 49 18 69c0 10 -3 19 -14 19s-17 -13 -25 -48l-39 -173h-133z" />
    <glyph glyph-name="s.sups" horiz-adv-x="336" 
d="M172 494c13 -23 27 -36 55 -36c14 0 24 5 24 15c0 14 -34 21 -68 30c-41 11 -81 33 -81 86c0 71 77 110 155 110c79 0 124 -28 157 -67l-109 -49c-7 16 -21 32 -49 32c-12 0 -22 -4 -22 -13c0 -13 30 -14 75 -29c39 -14 75 -33 75 -86c0 -71 -79 -113 -156 -113
c-79 0 -135 23 -166 71z" />
    <glyph glyph-name="t.sups" horiz-adv-x="254" 
d="M271 482l23 -87c-18 -10 -50 -21 -89 -21c-62 0 -100 32 -100 80c0 10 1 20 4 31l24 119h-44l20 88h45l12 55l146 63l-26 -118h62l-20 -88h-63l-22 -107c0 -3 -2 -7 -2 -12c0 -9 6 -13 14 -13s13 6 16 10z" />
    <glyph glyph-name="u.sups" horiz-adv-x="374" 
d="M90 492l45 200h133l-39 -176c-2 -10 -3 -16 -3 -23c0 -11 2 -21 19 -21c25 0 27 24 33 49l38 171h133l-69 -311h-133l17 48h-3c-24 -29 -54 -55 -98 -55c-46 0 -77 32 -77 80c0 12 1 23 4 38z" />
    <glyph glyph-name="v.sups" horiz-adv-x="345" 
d="M121 381l-17 311h136l-7 -114c-2 -29 -6 -94 -6 -94h3s20 58 35 94l45 114h141l-160 -311h-170z" />
    <glyph glyph-name="w.sups" horiz-adv-x="514" 
d="M338 589c0 0 -10 -39 -21 -70l-50 -138h-165l13 311h130l-12 -98c-5 -39 -16 -108 -16 -108h2s20 62 35 108l31 98h152l-10 -98c-4 -39 -14 -108 -14 -108h3s20 69 32 108l30 98h131l-126 -311h-159l11 138c2 32 5 70 6 70h-3z" />
    <glyph glyph-name="x.sups" horiz-adv-x="353" 
d="M233 492c0 0 -12 -26 -28 -62l-22 -49h-147l104 155l-28 156h138l2 -56c2 -34 1 -55 1 -55h3s7 23 24 57l26 54h145l-101 -156l39 -155h-140l-6 49c-4 33 -8 62 -8 62h-2z" />
    <glyph glyph-name="y.sups" horiz-adv-x="350" 
d="M237 509h3s19 49 35 89l37 94h144l-181 -328c-29 -51 -57 -99 -116 -111l-105 78c35 7 72 16 92 52l3 5l-45 304h138l-2 -88c-1 -36 -3 -95 -3 -95z" />
    <glyph glyph-name="z.sups" horiz-adv-x="330" 
d="M110 604l21 88h278l-15 -65l-143 -158h118l-20 -88h-290l15 65l144 158h-108z" />
    <glyph glyph-name="uni2070" unicode="&#x2070;" horiz-adv-x="422" 
d="M316 711c-58 0 -81 -117 -81 -173c0 -32 5 -60 38 -60c58 0 81 117 81 173c0 32 -5 60 -38 60zM95 540c0 129 67 275 229 275c108 0 170 -73 170 -166c0 -129 -67 -275 -228 -275c-109 0 -171 73 -171 166z" />
    <glyph glyph-name="onesuperior" unicode="&#xb9;" horiz-adv-x="274" 
d="M207 662h-3c-14 -14 -31 -24 -61 -28l-35 112c55 6 112 26 158 62h103l-95 -427h-132l48 219c6 26 17 62 17 62z" />
    <glyph glyph-name="twosuperior" unicode="&#xb2;" horiz-adv-x="367" 
d="M240 605l-126 52s-2 10 -2 17c0 87 83 141 187 141c84 0 160 -56 160 -126c0 -135 -175 -178 -195 -199v-1h144l-25 -108h-317v14c0 171 255 198 255 282c0 19 -10 33 -31 33c-39 0 -51 -42 -51 -77c0 -11 1 -30 1 -28z" />
    <glyph glyph-name="threesuperior" unicode="&#xb3;" horiz-adv-x="365" 
d="M229 374c-87 0 -147 42 -161 104l128 55s-1 -6 -1 -9c0 -27 13 -45 41 -45c29 0 51 22 51 51c0 21 -16 36 -39 36c-26 0 -46 -10 -69 -18l-27 100l100 56h-122l24 104h317l-18 -89l-87 -49c-34 -19 -81 -32 -81 -32c0 -1 1 -2 1 -3h8c73 0 124 -45 124 -109
c0 -86 -92 -152 -189 -152z" />
    <glyph glyph-name="uni2074" unicode="&#x2074;" horiz-adv-x="388" 
d="M267 476h-165l-15 72c45 57 82 144 99 267l124 -58c-15 -83 -45 -130 -80 -180h60l51 231h130l-51 -231h38l-23 -101h-39l-20 -95h-130z" />
    <glyph glyph-name="uni2075" unicode="&#x2075;" horiz-adv-x="371" 
d="M233 374c-86 0 -147 42 -161 104l128 55s-1 -6 -1 -9c0 -27 13 -45 41 -45c33 0 55 34 55 66c0 23 -12 40 -34 40s-38 -17 -49 -38l-107 44l77 217h272l-24 -104h-163l-5 -17c-7 -23 -20 -42 -20 -42l2 -1c19 13 45 26 77 26c71 0 107 -59 107 -125
c0 -85 -82 -171 -195 -171z" />
    <glyph glyph-name="uni2076" unicode="&#x2076;" horiz-adv-x="383" 
d="M331 815c66 0 131 -26 154 -87l-125 -59v1c0 23 -10 45 -38 45c-37 0 -64 -28 -85 -84c1 0 2 -1 3 -1c23 26 59 35 90 35c68 0 117 -52 117 -126c0 -92 -74 -165 -184 -165c-114 0 -168 66 -168 158c0 138 68 283 236 283zM262 469c38 0 60 29 60 65c0 27 -15 48 -44 48
c-38 0 -59 -29 -59 -65c0 -26 14 -48 43 -48z" />
    <glyph glyph-name="uni2077" unicode="&#x2077;" horiz-adv-x="356" 
d="M482 808l-16 -79c-74 -101 -140 -229 -159 -348h-154c21 126 116 255 160 319h-72l-21 -98l-111 65l31 141h342z" />
    <glyph glyph-name="uni2078" unicode="&#x2078;" horiz-adv-x="392" 
d="M249 374c-101 0 -173 47 -173 117c0 72 68 109 118 115l1 3c-32 13 -61 41 -61 84c0 78 87 122 180 122c88 0 158 -48 158 -107c0 -57 -44 -91 -100 -106l-1 -3c32 -13 71 -39 71 -87c0 -87 -90 -138 -193 -138zM205 506c0 -25 22 -37 52 -37c29 0 58 15 58 46
c0 24 -22 37 -51 37c-30 0 -59 -16 -59 -46zM252 678c0 -19 18 -31 44 -31c27 0 56 10 56 43c0 18 -18 30 -44 30c-27 0 -56 -10 -56 -42z" />
    <glyph glyph-name="uni2079" unicode="&#x2079;" horiz-adv-x="386" 
d="M229 374c-64 0 -130 26 -153 86l124 59s1 0 1 -1c0 -22 9 -44 37 -44c40 0 60 26 77 81c-1 0 -1 1 -2 1c-24 -19 -50 -28 -84 -28c-72 0 -123 50 -123 125c0 92 76 162 184 162c113 0 168 -67 168 -160c0 -140 -54 -281 -229 -281zM290 720c-39 0 -59 -27 -59 -64
c0 -26 15 -45 43 -45c39 0 61 27 61 64c0 26 -16 45 -45 45z" />
    <glyph glyph-name="dollar.sups" horiz-adv-x="409" 
d="M180 324l14 66c-66 17 -103 59 -120 104l117 58s0 -1 1 0c0 -29 10 -55 30 -70l15 66c-67 23 -118 61 -118 127c0 74 78 125 168 131l13 57h103l-16 -67c50 -16 90 -46 112 -88l-117 -58c0 11 -1 21 -5 31s-10 18 -17 25l-15 -67c59 -25 121 -52 121 -122
c0 -76 -80 -125 -170 -134l-13 -59h-103zM344 505c0 11 -9 19 -23 26l-13 -60c23 6 36 17 36 34zM242 684c0 -12 7 -20 19 -26l13 58c-19 -6 -32 -18 -32 -32z" />
    <glyph glyph-name="cent.sups" horiz-adv-x="389" 
d="M178 324l14 65c-61 15 -105 57 -105 131c0 89 71 153 172 170l14 62h104l-15 -65c43 -11 74 -33 87 -59c4 -9 7 -18 7 -27l-112 -44c1 1 1 5 1 10c0 12 -4 21 -11 29l-26 -118c16 9 24 25 27 45l102 -49c-23 -46 -78 -77 -142 -87l-13 -63h-104zM209 521
c0 -19 3 -32 12 -40l26 116c-26 -15 -38 -43 -38 -76z" />
    <glyph glyph-name="Euro.sups" horiz-adv-x="427" 
d="M356 604h-87c-2 -10 -3 -20 -4 -29h81l-35 -73h-44c5 -22 17 -34 38 -34c36 0 57 35 67 90l112 -73c-15 -41 -83 -111 -182 -111c-84 0 -150 42 -166 128h-56l16 73h38c1 10 2 19 4 29h-36l17 73h43c37 80 108 138 211 138c86 0 146 -44 159 -110l-127 -66
c-1 -1 5 15 5 32c0 32 -12 50 -47 50c-29 0 -51 -18 -67 -44h96z" />
    <glyph glyph-name="yen.sups" horiz-adv-x="426" 
d="M431 459h-98l-17 -78h-133l17 78h-99l17 73h98l2 6l-9 29h-84l17 73h46l-49 168h139l16 -103c5 -33 8 -62 8 -62c5 0 2 4 18 31l79 134h152l-125 -168h46l-17 -73h-83l-21 -29l-2 -6h99z" />
    <glyph glyph-name="sterling.sups" horiz-adv-x="400" 
d="M373 542h-81c-9 -22 -22 -42 -40 -57h188l-25 -104h-334l19 83c36 13 53 44 61 78h-63l19 87h51c0 10 2 20 2 26c0 100 61 160 176 160c68 0 139 -31 157 -98l-121 -62c0 -1 2 9 2 18c0 27 -10 45 -36 45c-10 0 -18 -3 -25 -9c-13 -11 -19 -31 -19 -54v-26h111z" />
    <glyph glyph-name="uni207A" unicode="&#x207a;" horiz-adv-x="395" 
d="M180 405l27 127h-118l24 103h119l27 124h118l-28 -124h119l-25 -103h-118l-28 -127h-117z" />
    <glyph glyph-name="uni207B" unicode="&#x207b;" horiz-adv-x="395" 
d="M431 531h-329l24 105h329z" />
    <glyph glyph-name="multiply.sups" horiz-adv-x="395" 
d="M156 418l-74 78l120 90l-80 95l91 65l75 -93l109 89l74 -78l-118 -91l85 -94l-92 -65l-78 95z" />
    <glyph glyph-name="divide.sups" horiz-adv-x="395" 
d="M430 532h-329l24 103h329zM179 448c0 39 33 67 78 67c37 0 63 -23 63 -55c0 -38 -33 -66 -78 -66c-37 0 -63 23 -63 54zM234 710c0 39 33 67 78 67c37 0 63 -23 63 -55c0 -38 -33 -66 -78 -66c-37 0 -63 23 -63 54z" />
    <glyph glyph-name="uni207C" unicode="&#x207c;" horiz-adv-x="395" 
d="M416 462h-331l23 97h330zM447 601h-331l23 96h331z" />
    <glyph glyph-name="period.sups" horiz-adv-x="200" 
d="M74 432c0 43 34 73 82 73c39 0 67 -26 67 -59c0 -42 -35 -72 -83 -72c-38 0 -66 24 -66 58z" />
    <glyph glyph-name="comma.sups" horiz-adv-x="200" 
d="M220 431c0 -70 -38 -125 -105 -153l-58 47c38 11 77 23 96 63c-5 -1 -11 -1 -18 -1c-34 0 -58 21 -58 50c0 39 33 68 74 68c43 0 69 -26 69 -74z" />
    <glyph glyph-name="hyphen.sups" horiz-adv-x="244" 
d="M277 510h-183l23 98h183z" />
    <glyph glyph-name="uni207D" unicode="&#x207d;" horiz-adv-x="260" 
d="M268 861l97 -50c-95 -102 -142 -193 -142 -329c0 -65 9 -118 31 -162l-106 -51c-27 44 -58 131 -58 217c0 152 56 274 178 375z" />
    <glyph glyph-name="uni207E" unicode="&#x207e;" horiz-adv-x="260" 
d="M132 269l-97 51c95 102 141 192 141 329c0 65 -9 117 -31 162l106 51c28 -45 58 -132 58 -218c0 -152 -55 -273 -177 -375z" />
    <glyph glyph-name="fraction" unicode="&#x2044;" horiz-adv-x="210" 
d="M-210 62l586 650l94 -83l-586 -650z" />
    <glyph glyph-name="percent" unicode="%" horiz-adv-x="946" 
d="M471 541c0 -112 -89 -221 -220 -221c-96 0 -167 67 -167 163c0 120 88 221 221 221c96 0 166 -67 166 -163zM260 430c52 0 76 61 76 113c0 28 -13 51 -41 51c-52 0 -76 -60 -76 -112c0 -29 13 -52 41 -52zM912 209c0 -112 -89 -221 -220 -221c-96 0 -167 67 -167 163
c0 120 88 221 221 221c96 0 166 -67 166 -163zM701 98c52 0 76 61 76 113c0 28 -13 51 -41 51c-52 0 -76 -60 -76 -112c0 -29 13 -52 41 -52zM156 62l586 650l94 -83l-586 -650z" />
    <glyph glyph-name="perthousand" unicode="&#x2030;" horiz-adv-x="1365" 
d="M471 541c0 -112 -89 -221 -220 -221c-96 0 -167 67 -167 163c0 120 88 221 221 221c96 0 166 -67 166 -163zM260 430c52 0 76 61 76 113c0 28 -13 51 -41 51c-52 0 -76 -60 -76 -112c0 -29 13 -52 41 -52zM912 209c0 -112 -89 -221 -220 -221c-96 0 -167 67 -167 163
c0 120 88 221 221 221c96 0 166 -67 166 -163zM701 98c52 0 76 61 76 113c0 28 -13 51 -41 51c-52 0 -76 -60 -76 -112c0 -29 13 -52 41 -52zM1329 209c0 -112 -89 -221 -220 -221c-96 0 -167 67 -167 163c0 120 88 221 221 221c96 0 166 -67 166 -163zM1118 98
c52 0 76 61 76 113c0 28 -13 51 -41 51c-52 0 -76 -60 -76 -112c0 -29 13 -52 41 -52zM156 62l586 650l94 -83l-586 -650z" />
    <glyph glyph-name="onehalf" unicode="&#xbd;" horiz-adv-x="904" 
d="M104 62l586 650l94 -83l-586 -650zM170 558h-3c-14 -14 -31 -24 -61 -28l-35 112c55 6 112 26 158 62h103l-95 -427h-132l48 219c6 26 17 62 17 62zM691 224l-126 52s-2 10 -2 17c0 87 83 141 187 141c84 0 160 -56 160 -126c0 -135 -175 -178 -195 -199v-1h144l-25 -108
h-317v14c0 171 255 198 255 282c0 19 -10 33 -31 33c-39 0 -51 -42 -51 -77c0 -11 1 -30 1 -28z" />
    <glyph glyph-name="onethird" unicode="&#x2153;" horiz-adv-x="940" 
d="M104 62l586 650l94 -83l-586 -650zM170 558h-3c-14 -14 -31 -24 -61 -28l-35 112c55 6 112 26 158 62h103l-95 -427h-132l48 219c6 26 17 62 17 62zM700 -7c-87 0 -147 42 -161 104l128 55s-1 -6 -1 -9c0 -27 13 -45 41 -45c29 0 51 22 51 51c0 21 -16 36 -39 36
c-26 0 -46 -10 -69 -18l-27 100l100 56h-122l24 104h317l-18 -89l-87 -49c-34 -19 -81 -32 -81 -32c0 -1 1 -2 1 -3h8c73 0 124 -45 124 -109c0 -86 -92 -152 -189 -152z" />
    <glyph glyph-name="twothirds" unicode="&#x2154;" horiz-adv-x="1019" 
d="M187 62l586 650l94 -83l-586 -650zM207 501l-126 52s-2 10 -2 17c0 87 83 141 187 141c84 0 160 -56 160 -126c0 -135 -175 -178 -195 -199v-1h144l-25 -108h-317v14c0 171 255 198 255 282c0 19 -10 33 -31 33c-39 0 -51 -42 -51 -77c0 -11 1 -30 1 -28zM787 -7
c-87 0 -147 42 -161 104l128 55s-1 -6 -1 -9c0 -27 13 -45 41 -45c29 0 51 22 51 51c0 21 -16 36 -39 36c-26 0 -46 -10 -69 -18l-27 100l100 56h-122l24 104h317l-18 -89l-87 -49c-34 -19 -81 -32 -81 -32c0 -1 1 -2 1 -3h8c73 0 124 -45 124 -109
c0 -86 -92 -152 -189 -152z" />
    <glyph glyph-name="onequarter" unicode="&#xbc;" horiz-adv-x="936" 
d="M96 62l586 650l94 -83l-586 -650zM170 558h-3c-14 -14 -31 -24 -61 -28l-35 112c55 6 112 26 158 62h103l-95 -427h-132l48 219c6 26 17 62 17 62zM714 95h-165l-15 72c45 57 82 144 99 267l124 -58c-15 -83 -45 -130 -80 -180h60l51 231h130l-51 -231h38l-23 -101h-39
l-20 -95h-130z" />
    <glyph glyph-name="threequarters" unicode="&#xbe;" horiz-adv-x="993" 
d="M153 62l586 650l94 -83l-586 -650zM771 95h-165l-15 72c45 57 82 144 99 267l124 -58c-15 -83 -45 -130 -80 -180h60l51 231h130l-51 -231h38l-23 -101h-39l-20 -95h-130zM188 270c-87 0 -147 42 -161 104l128 55s-1 -6 -1 -9c0 -27 13 -45 41 -45c29 0 51 22 51 51
c0 21 -16 36 -39 36c-26 0 -46 -10 -69 -18l-27 100l100 56h-122l24 104h317l-18 -89l-87 -49c-34 -19 -81 -32 -81 -32c0 -1 1 -2 1 -3h8c73 0 124 -45 124 -109c0 -86 -92 -152 -189 -152z" />
    <glyph glyph-name="uni2155" unicode="&#x2155;" horiz-adv-x="917" 
d="M104 62l586 650l94 -83l-586 -650zM170 558h-3c-14 -14 -31 -24 -61 -28l-35 112c55 6 112 26 158 62h103l-95 -427h-132l48 219c6 26 17 62 17 62zM684 -7c-86 0 -147 42 -161 104l128 55s-1 -6 -1 -9c0 -27 13 -45 41 -45c33 0 55 34 55 66c0 23 -12 40 -34 40
s-38 -17 -49 -38l-107 44l77 217h272l-24 -104h-163l-5 -17c-7 -23 -20 -42 -20 -42l2 -1c19 13 45 26 77 26c71 0 107 -59 107 -125c0 -85 -82 -171 -195 -171z" />
    <glyph glyph-name="uni2156" unicode="&#x2156;" horiz-adv-x="1000" 
d="M187 62l586 650l94 -83l-586 -650zM207 501l-126 52s-2 10 -2 17c0 87 83 141 187 141c84 0 160 -56 160 -126c0 -135 -175 -178 -195 -199v-1h144l-25 -108h-317v14c0 171 255 198 255 282c0 19 -10 33 -31 33c-39 0 -51 -42 -51 -77c0 -11 1 -30 1 -28zM775 -7
c-86 0 -147 42 -161 104l128 55s-1 -6 -1 -9c0 -27 13 -45 41 -45c33 0 55 34 55 66c0 23 -12 40 -34 40s-38 -17 -49 -38l-107 44l77 217h272l-24 -104h-163l-5 -17c-7 -23 -20 -42 -20 -42l2 -1c19 13 45 26 77 26c71 0 107 -59 107 -125c0 -85 -82 -171 -195 -171z" />
    <glyph glyph-name="uni2157" unicode="&#x2157;" horiz-adv-x="982" 
d="M153 62l586 650l94 -83l-586 -650zM749 -7c-86 0 -147 42 -161 104l128 55s-1 -6 -1 -9c0 -27 13 -45 41 -45c33 0 55 34 55 66c0 23 -12 40 -34 40s-38 -17 -49 -38l-107 44l77 217h272l-24 -104h-163l-5 -17c-7 -23 -20 -42 -20 -42l2 -1c19 13 45 26 77 26
c71 0 107 -59 107 -125c0 -85 -82 -171 -195 -171zM188 270c-87 0 -147 42 -161 104l128 55s-1 -6 -1 -9c0 -27 13 -45 41 -45c29 0 51 22 51 51c0 21 -16 36 -39 36c-26 0 -46 -10 -69 -18l-27 100l100 56h-122l24 104h317l-18 -89l-87 -49c-34 -19 -81 -32 -81 -32
c0 -1 1 -2 1 -3h8c73 0 124 -45 124 -109c0 -86 -92 -152 -189 -152z" />
    <glyph glyph-name="uni2158" unicode="&#x2158;" horiz-adv-x="1008" 
d="M187 62l586 650l94 -83l-586 -650zM775 -7c-86 0 -147 42 -161 104l128 55s-1 -6 -1 -9c0 -27 13 -45 41 -45c33 0 55 34 55 66c0 23 -12 40 -34 40s-38 -17 -49 -38l-107 44l77 217h272l-24 -104h-163l-5 -17c-7 -23 -20 -42 -20 -42l2 -1c19 13 45 26 77 26
c71 0 107 -59 107 -125c0 -85 -82 -171 -195 -171zM227 372h-165l-15 72c45 57 82 144 99 267l124 -58c-15 -83 -45 -130 -80 -180h60l51 231h130l-51 -231h38l-23 -101h-39l-20 -95h-130z" />
    <glyph glyph-name="uni2159" unicode="&#x2159;" horiz-adv-x="904" 
d="M96 62l586 650l94 -83l-586 -650zM170 558h-3c-14 -14 -31 -24 -61 -28l-35 112c55 6 112 26 158 62h103l-95 -427h-132l48 219c6 26 17 62 17 62zM744 434c66 0 131 -26 154 -87l-125 -59v1c0 23 -10 45 -38 45c-37 0 -64 -28 -85 -84c1 0 2 -1 3 -1c23 26 59 35 90 35
c68 0 117 -52 117 -126c0 -92 -74 -165 -184 -165c-114 0 -168 66 -168 158c0 138 68 283 236 283zM675 88c38 0 60 29 60 65c0 27 -15 48 -44 48c-38 0 -59 -29 -59 -65c0 -26 14 -48 43 -48z" />
    <glyph glyph-name="uni215A" unicode="&#x215a;" horiz-adv-x="965" 
d="M155 62l586 650l94 -83l-586 -650zM805 434c66 0 131 -26 154 -87l-125 -59v1c0 23 -10 45 -38 45c-37 0 -64 -28 -85 -84c1 0 2 -1 3 -1c23 26 59 35 90 35c68 0 117 -52 117 -126c0 -92 -74 -165 -184 -165c-114 0 -168 66 -168 158c0 138 68 283 236 283zM736 88
c38 0 60 29 60 65c0 27 -15 48 -44 48c-38 0 -59 -29 -59 -65c0 -26 14 -48 43 -48zM194 270c-86 0 -147 42 -161 104l128 55s-1 -6 -1 -9c0 -27 13 -45 41 -45c33 0 55 34 55 66c0 23 -12 40 -34 40s-38 -17 -49 -38l-107 44l77 217h272l-24 -104h-163l-5 -17
c-7 -23 -20 -42 -20 -42l2 -1c19 13 45 26 77 26c71 0 107 -59 107 -125c0 -85 -82 -171 -195 -171z" />
    <glyph glyph-name="oneeighth" unicode="&#x215b;" horiz-adv-x="933" 
d="M96 62l586 650l94 -83l-586 -650zM170 558h-3c-14 -14 -31 -24 -61 -28l-35 112c55 6 112 26 158 62h103l-95 -427h-132l48 219c6 26 17 62 17 62zM688 -7c-101 0 -173 47 -173 117c0 72 68 109 118 115l1 3c-32 13 -61 41 -61 84c0 78 87 122 180 122
c88 0 158 -48 158 -107c0 -57 -44 -91 -100 -106l-1 -3c32 -13 71 -39 71 -87c0 -87 -90 -138 -193 -138zM644 125c0 -25 22 -37 52 -37c29 0 58 15 58 46c0 24 -22 37 -51 37c-30 0 -59 -16 -59 -46zM691 297c0 -19 18 -31 44 -31c27 0 56 10 56 43c0 18 -18 30 -44 30
c-27 0 -56 -10 -56 -42z" />
    <glyph glyph-name="threeeighths" unicode="&#x215c;" horiz-adv-x="990" 
d="M153 62l586 650l94 -83l-586 -650zM745 -7c-101 0 -173 47 -173 117c0 72 68 109 118 115l1 3c-32 13 -61 41 -61 84c0 78 87 122 180 122c88 0 158 -48 158 -107c0 -57 -44 -91 -100 -106l-1 -3c32 -13 71 -39 71 -87c0 -87 -90 -138 -193 -138zM701 125
c0 -25 22 -37 52 -37c29 0 58 15 58 46c0 24 -22 37 -51 37c-30 0 -59 -16 -59 -46zM748 297c0 -19 18 -31 44 -31c27 0 56 10 56 43c0 18 -18 30 -44 30c-27 0 -56 -10 -56 -42zM188 270c-87 0 -147 42 -161 104l128 55s-1 -6 -1 -9c0 -27 13 -45 41 -45c29 0 51 22 51 51
c0 21 -16 36 -39 36c-26 0 -46 -10 -69 -18l-27 100l100 56h-122l24 104h317l-18 -89l-87 -49c-34 -19 -81 -32 -81 -32c0 -1 1 -2 1 -3h8c73 0 124 -45 124 -109c0 -86 -92 -152 -189 -152z" />
    <glyph glyph-name="fiveeighths" unicode="&#x215d;" horiz-adv-x="992" 
d="M155 62l586 650l94 -83l-586 -650zM194 270c-86 0 -147 42 -161 104l128 55s-1 -6 -1 -9c0 -27 13 -45 41 -45c33 0 55 34 55 66c0 23 -12 40 -34 40s-38 -17 -49 -38l-107 44l77 217h272l-24 -104h-163l-5 -17c-7 -23 -20 -42 -20 -42l2 -1c19 13 45 26 77 26
c71 0 107 -59 107 -125c0 -85 -82 -171 -195 -171zM747 -7c-101 0 -173 47 -173 117c0 72 68 109 118 115l1 3c-32 13 -61 41 -61 84c0 78 87 122 180 122c88 0 158 -48 158 -107c0 -57 -44 -91 -100 -106l-1 -3c32 -13 71 -39 71 -87c0 -87 -90 -138 -193 -138zM703 125
c0 -25 22 -37 52 -37c29 0 58 15 58 46c0 24 -22 37 -51 37c-30 0 -59 -16 -59 -46zM750 297c0 -19 18 -31 44 -31c27 0 56 10 56 43c0 18 -18 30 -44 30c-27 0 -56 -10 -56 -42z" />
    <glyph glyph-name="seveneighths" unicode="&#x215e;" horiz-adv-x="981" 
d="M136 62l586 650l94 -83l-586 -650zM736 -7c-101 0 -173 47 -173 117c0 72 68 109 118 115l1 3c-32 13 -61 41 -61 84c0 78 87 122 180 122c88 0 158 -48 158 -107c0 -57 -44 -91 -100 -106l-1 -3c32 -13 71 -39 71 -87c0 -87 -90 -138 -193 -138zM692 125
c0 -25 22 -37 52 -37c29 0 58 15 58 46c0 24 -22 37 -51 37c-30 0 -59 -16 -59 -46zM739 297c0 -19 18 -31 44 -31c27 0 56 10 56 43c0 18 -18 30 -44 30c-27 0 -56 -10 -56 -42zM438 704l-16 -79c-74 -101 -140 -229 -159 -348h-154c21 126 116 255 160 319h-72l-21 -98
l-111 65l31 141h342z" />
    <glyph glyph-name="uni03A9" unicode="&#x3a9;" horiz-adv-x="728" 
d="M317 136l-29 -136h-285l33 154h26c58 0 87 -9 87 -9l3 4c-53 57 -86 132 -86 212c0 184 147 343 367 343c179 0 288 -125 288 -277c0 -124 -63 -215 -157 -283l2 -3s44 13 92 13h20l-33 -154h-299l29 133c93 50 155 150 155 278c0 72 -38 130 -110 130
c-116 0 -171 -124 -171 -234c0 -77 29 -131 68 -171z" />
    <glyph glyph-name="uni0394" unicode="&#x394;" horiz-adv-x="635" 
d="M-35 0l26 122l332 570h211l94 -570l-26 -122h-637zM355 417l-144 -259h227l-32 259c-5 43 -7 85 -7 85h-4s-18 -45 -40 -85z" />
    <glyph glyph-name="uni03BC" unicode="&#x3bc;" horiz-adv-x="544" 
d="M575 504l-107 -504h-180l27 80h-4c-35 -43 -81 -85 -149 -88c-1 -23 -5 -85 -20 -153l-8 -35h-176l149 700h180l-61 -288c-3 -13 -5 -27 -5 -39c0 -24 9 -43 41 -43c48 0 64 43 74 91l59 279h180z" />
    <glyph glyph-name="uni00AD" unicode="&#xad;" horiz-adv-x="331" 
d="M317 219h-279l31 146h279z" />
    <glyph glyph-name="uni2219" unicode="&#x2219;" horiz-adv-x="264" 
d="M7 300l36 170h188l-36 -170h-188z" />
    <glyph glyph-name="uni02C9" unicode="&#x2c9;" horiz-adv-x="544" 
d="M205 564l27 128h295l-27 -128h-295z" />
    <glyph glyph-name="uni2215" unicode="&#x2215;" horiz-adv-x="209" 
d="M-204 62l586 650l94 -83l-586 -650z" />
    <glyph glyph-name="AEacute" unicode="&#x1fc;" horiz-adv-x="872" 
d="M362 0l29 140h-158l-86 -140h-211l447 692h556l-33 -153h-250l-24 -114h230l-31 -149h-230l-27 -123h258l-32 -153h-438zM426 455l-103 -167h100l53 251h-4s-21 -44 -46 -84zM592 728l-72 60c68 47 124 114 151 168l118 -103c-41 -48 -125 -102 -197 -125z" />
    <glyph glyph-name="Agrave" unicode="&#xc0;" horiz-adv-x="693" 
d="M462 0l-13 132h-231l-69 -132h-197l380 692h227l86 -692h-183zM371 425l-74 -141h137l-14 141c-3 33 -6 87 -6 87h-4s-18 -47 -39 -87zM531 776l-88 -48c-58 29 -127 85 -160 147l138 81c17 -54 58 -128 110 -180z" />
    <glyph glyph-name="Aacute" unicode="&#xc1;" horiz-adv-x="693" 
d="M462 0l-13 132h-231l-69 -132h-197l380 692h227l86 -692h-183zM371 425l-74 -141h137l-14 141c-3 33 -6 87 -6 87h-4s-18 -47 -39 -87zM447 728l-72 60c68 47 124 114 151 168l118 -103c-41 -48 -125 -102 -197 -125z" />
    <glyph glyph-name="Adieresis" unicode="&#xc4;" horiz-adv-x="693" 
d="M462 0l-13 132h-231l-69 -132h-197l380 692h227l86 -692h-183zM371 425l-74 -141h137l-14 141c-3 33 -6 87 -6 87h-4s-18 -47 -39 -87zM267 803c0 56 41 99 99 99c47 0 77 -30 77 -74c0 -56 -41 -99 -99 -99c-47 0 -77 30 -77 74zM480 803c0 56 41 99 99 99
c47 0 77 -30 77 -74c0 -56 -41 -99 -99 -99c-47 0 -77 30 -77 74z" />
    <glyph glyph-name="Acircumflex" unicode="&#xc2;" horiz-adv-x="693" 
d="M462 0l-13 132h-231l-69 -132h-197l380 692h227l86 -692h-183zM371 425l-74 -141h137l-14 141c-3 33 -6 87 -6 87h-4s-18 -47 -39 -87zM459 800h-4c-27 -32 -75 -67 -127 -85l-69 108c56 16 115 39 155 81h102c30 -38 84 -72 139 -90l-81 -102c-49 20 -93 56 -115 88z
" />
    <glyph glyph-name="Amacron" unicode="&#x100;" horiz-adv-x="693" 
d="M462 0l-13 132h-231l-69 -132h-197l380 692h227l86 -692h-183zM371 425l-74 -141h137l-14 141c-3 33 -6 87 -6 87h-4s-18 -47 -39 -87zM304 744l27 128h295l-27 -128h-295z" />
    <glyph glyph-name="Atilde" unicode="&#xc3;" horiz-adv-x="693" 
d="M462 0l-13 132h-231l-69 -132h-197l380 692h227l86 -692h-183zM371 425l-74 -141h137l-14 141c-3 33 -6 87 -6 87h-4s-18 -47 -39 -87zM660 846c-12 -68 -64 -118 -120 -118c-60 0 -92 49 -132 49c-24 0 -33 -25 -37 -49l-103 58c12 68 64 118 120 118
c60 0 93 -48 133 -48c24 0 32 24 36 48z" />
    <glyph glyph-name="Aring" unicode="&#xc5;" horiz-adv-x="693" 
d="M462 0l-13 132h-231l-69 -132h-197l380 692h227l86 -692h-183zM371 425l-74 -141h137l-14 141c-3 33 -6 87 -6 87h-4s-18 -47 -39 -87zM331 825c0 72 56 125 144 125c68 0 119 -45 119 -101c0 -72 -56 -125 -144 -125c-68 0 -119 45 -119 101zM467 874
c-25 0 -43 -18 -43 -42c0 -19 14 -32 34 -32c25 0 43 18 43 42c0 19 -14 32 -34 32z" />
    <glyph glyph-name="Abreve" unicode="&#x102;" horiz-adv-x="693" 
d="M462 0l-13 132h-231l-69 -132h-197l380 692h227l86 -692h-183zM371 425l-74 -141h137l-14 141c-3 33 -6 87 -6 87h-4s-18 -47 -39 -87zM525 909l130 -37c-33 -98 -114 -144 -206 -144c-89 0 -152 53 -152 140v4l132 37c-4 -9 -7 -21 -7 -33c0 -22 14 -38 42 -38
c42 0 59 34 61 71z" />
    <glyph glyph-name="Aogonek" unicode="&#x104;" horiz-adv-x="694" 
d="M576 -76l95 -60c-30 -44 -88 -72 -156 -72c-72 0 -128 41 -128 93c0 47 34 82 75 109l-13 138h-231l-69 -132h-197l380 692h227l86 -692c-77 -14 -145 -50 -145 -91c0 -17 13 -26 29 -26c24 0 40 20 47 41zM371 425l-74 -141h137l-14 141c-3 33 -6 87 -6 87h-4
s-18 -47 -39 -87z" />
    <glyph glyph-name="Cacute" unicode="&#x106;" horiz-adv-x="651" 
d="M421 704c144 0 266 -99 266 -215v-2l-186 -102s4 20 4 40c0 64 -30 116 -98 116c-116 0 -170 -134 -170 -258c0 -80 39 -132 111 -132c78 0 126 73 136 161l158 -113c-36 -112 -152 -211 -308 -211c-184 0 -288 135 -288 299c0 224 139 417 375 417zM433 728l-72 60
c68 47 124 114 151 168l118 -103c-41 -48 -125 -102 -197 -125z" />
    <glyph glyph-name="Cdotaccent" unicode="&#x10a;" horiz-adv-x="651" 
d="M421 704c144 0 266 -99 266 -215v-2l-186 -102s4 20 4 40c0 64 -30 116 -98 116c-116 0 -170 -134 -170 -258c0 -80 39 -132 111 -132c78 0 126 73 136 161l158 -113c-36 -112 -152 -211 -308 -211c-184 0 -288 135 -288 299c0 224 139 417 375 417zM349 811
c0 60 46 103 110 103c52 0 90 -36 90 -84c0 -59 -47 -102 -111 -102c-52 0 -89 35 -89 83z" />
    <glyph glyph-name="Ccircumflex" unicode="&#x108;" horiz-adv-x="651" 
d="M421 704c144 0 266 -99 266 -215v-2l-186 -102s4 20 4 40c0 64 -30 116 -98 116c-116 0 -170 -134 -170 -258c0 -80 39 -132 111 -132c78 0 126 73 136 161l158 -113c-36 -112 -152 -211 -308 -211c-184 0 -288 135 -288 299c0 224 139 417 375 417zM445 800h-4
c-27 -32 -75 -67 -127 -85l-69 108c56 16 115 39 155 81h102c30 -38 84 -72 139 -90l-81 -102c-49 20 -93 56 -115 88z" />
    <glyph glyph-name="Ccaron" unicode="&#x10c;" horiz-adv-x="651" 
d="M421 704c144 0 266 -99 266 -215v-2l-186 -102s4 20 4 40c0 64 -30 116 -98 116c-116 0 -170 -134 -170 -258c0 -80 39 -132 111 -132c78 0 126 73 136 161l158 -113c-36 -112 -152 -211 -308 -211c-184 0 -288 135 -288 299c0 224 139 417 375 417zM443 840h4
c27 32 75 67 127 85l69 -108c-56 -16 -115 -39 -155 -81h-102c-30 38 -84 72 -139 90l81 102c49 -20 93 -56 115 -88z" />
    <glyph glyph-name="Ccedilla" unicode="&#xc7;" horiz-adv-x="651" 
d="M421 704c144 0 266 -99 266 -215v-2l-186 -102s4 20 4 40c0 64 -30 116 -98 116c-116 0 -170 -134 -170 -258c0 -80 39 -132 111 -132c78 0 126 73 136 161l158 -113c-34 -104 -136 -197 -276 -209l-9 -22c39 -9 75 -32 75 -74c0 -64 -67 -102 -139 -102
c-60 0 -105 26 -121 58l77 52c6 -23 21 -44 53 -44c22 0 39 11 39 33c0 14 -14 24 -30 24c-14 0 -24 -7 -24 -7l-46 47l34 38c-147 26 -229 148 -229 294c0 224 139 417 375 417z" />
    <glyph glyph-name="Dcaron" unicode="&#x10e;" horiz-adv-x="694" 
d="M305 0h-301l147 692h246c196 0 302 -128 302 -288c0 -220 -140 -404 -394 -404zM333 159c120 0 175 129 175 249c0 74 -43 125 -117 125h-88l-79 -374h109zM436 840h4c27 32 75 67 127 85l69 -108c-56 -16 -115 -39 -155 -81h-102c-30 38 -84 72 -139 90l81 102
c49 -20 93 -56 115 -88z" />
    <glyph glyph-name="Egrave" unicode="&#xc8;" horiz-adv-x="578" 
d="M4 0l147 692h494l-33 -157h-310l-23 -108h290l-33 -153h-290l-25 -117h318l-33 -157h-502zM485 776l-88 -48c-58 29 -127 85 -160 147l138 81c17 -54 58 -128 110 -180z" />
    <glyph glyph-name="Eacute" unicode="&#xc9;" horiz-adv-x="578" 
d="M4 0l147 692h494l-33 -157h-310l-23 -108h290l-33 -153h-290l-25 -117h318l-33 -157h-502zM401 728l-72 60c68 47 124 114 151 168l118 -103c-41 -48 -125 -102 -197 -125z" />
    <glyph glyph-name="Edotaccent" unicode="&#x116;" horiz-adv-x="578" 
d="M4 0l147 692h494l-33 -157h-310l-23 -108h290l-33 -153h-290l-25 -117h318l-33 -157h-502zM317 811c0 60 46 103 110 103c52 0 90 -36 90 -84c0 -59 -47 -102 -111 -102c-52 0 -89 35 -89 83z" />
    <glyph glyph-name="Edieresis" unicode="&#xcb;" horiz-adv-x="578" 
d="M4 0l147 692h494l-33 -157h-310l-23 -108h290l-33 -153h-290l-25 -117h318l-33 -157h-502zM221 803c0 56 41 99 99 99c47 0 77 -30 77 -74c0 -56 -41 -99 -99 -99c-47 0 -77 30 -77 74zM434 803c0 56 41 99 99 99c47 0 77 -30 77 -74c0 -56 -41 -99 -99 -99
c-47 0 -77 30 -77 74z" />
    <glyph glyph-name="Ecircumflex" unicode="&#xca;" horiz-adv-x="578" 
d="M4 0l147 692h494l-33 -157h-310l-23 -108h290l-33 -153h-290l-25 -117h318l-33 -157h-502zM413 800h-4c-27 -32 -75 -67 -127 -85l-69 108c56 16 115 39 155 81h102c30 -38 84 -72 139 -90l-81 -102c-49 20 -93 56 -115 88z" />
    <glyph glyph-name="Ecaron" unicode="&#x11a;" horiz-adv-x="578" 
d="M4 0l147 692h494l-33 -157h-310l-23 -108h290l-33 -153h-290l-25 -117h318l-33 -157h-502zM411 840h4c27 32 75 67 127 85l69 -108c-56 -16 -115 -39 -155 -81h-102c-30 38 -84 72 -139 90l81 102c49 -20 93 -56 115 -88z" />
    <glyph glyph-name="Emacron" unicode="&#x112;" horiz-adv-x="578" 
d="M4 0l147 692h494l-33 -157h-310l-23 -108h290l-33 -153h-290l-25 -117h318l-33 -157h-502zM258 744l27 128h295l-27 -128h-295z" />
    <glyph glyph-name="Ebreve" unicode="&#x114;" horiz-adv-x="578" 
d="M4 0l147 692h494l-33 -157h-310l-23 -108h290l-33 -153h-290l-25 -117h318l-33 -157h-502zM479 909l130 -37c-33 -98 -114 -144 -206 -144c-89 0 -152 53 -152 140v4l132 37c-4 -9 -7 -21 -7 -33c0 -22 14 -38 42 -38c42 0 59 34 61 71z" />
    <glyph glyph-name="Eogonek" unicode="&#x118;" horiz-adv-x="578" 
d="M4 0l147 692h494l-33 -157h-310l-23 -108h290l-33 -153h-290l-25 -117h318l-32 -152l22 -5l-56 -26c-39 -18 -88 -34 -88 -65c0 -17 13 -26 29 -26c24 0 40 20 47 41l95 -60c-30 -44 -88 -72 -156 -72c-72 0 -128 41 -128 93c0 48 39 81 89 105l20 10h-377z" />
    <glyph glyph-name="Gdotaccent" unicode="&#x120;" horiz-adv-x="686" 
d="M427 704c144 0 253 -64 278 -164l2 -8l-183 -100v7c0 52 -33 104 -109 104c-121 0 -178 -135 -178 -260c0 -85 34 -138 110 -138c81 0 120 66 131 113h-167l31 149h335l-86 -407h-153l25 72h-4c-28 -34 -81 -84 -173 -84c-140 0 -240 110 -240 286c0 236 140 430 381 430
zM351 811c0 60 46 103 110 103c52 0 90 -36 90 -84c0 -59 -47 -102 -111 -102c-52 0 -89 35 -89 83z" />
    <glyph glyph-name="Gcircumflex" unicode="&#x11c;" horiz-adv-x="686" 
d="M427 704c144 0 253 -64 278 -164l2 -8l-183 -100v7c0 52 -33 104 -109 104c-121 0 -178 -135 -178 -260c0 -85 34 -138 110 -138c81 0 120 66 131 113h-167l31 149h335l-86 -407h-153l25 72h-4c-28 -34 -81 -84 -173 -84c-140 0 -240 110 -240 286c0 236 140 430 381 430
zM447 800h-4c-27 -32 -75 -67 -127 -85l-69 108c56 16 115 39 155 81h102c30 -38 84 -72 139 -90l-81 -102c-49 20 -93 56 -115 88z" />
    <glyph glyph-name="Gbreve" unicode="&#x11e;" horiz-adv-x="686" 
d="M427 704c144 0 253 -64 278 -164l2 -8l-183 -100v7c0 52 -33 104 -109 104c-121 0 -178 -135 -178 -260c0 -85 34 -138 110 -138c81 0 120 66 131 113h-167l31 149h335l-86 -407h-153l25 72h-4c-28 -34 -81 -84 -173 -84c-140 0 -240 110 -240 286c0 236 140 430 381 430
zM513 909l130 -37c-33 -98 -114 -144 -206 -144c-89 0 -152 53 -152 140v4l132 37c-4 -9 -7 -21 -7 -33c0 -22 14 -38 42 -38c42 0 59 34 61 71z" />
    <glyph glyph-name="uni0122" unicode="&#x122;" horiz-adv-x="686" 
d="M427 704c144 0 253 -64 278 -164l2 -8l-183 -100v7c0 52 -33 104 -109 104c-121 0 -178 -135 -178 -260c0 -85 34 -138 110 -138c81 0 120 66 131 113h-167l31 149h335l-86 -407h-153l25 72h-4c-28 -34 -81 -84 -173 -84c-140 0 -240 110 -240 286c0 236 140 430 381 430
zM180 -220c36 4 88 8 107 55c-4 -1 -7 -1 -10 -1c-32 0 -58 18 -58 54c0 45 36 72 84 72s75 -35 75 -79c0 -84 -45 -140 -113 -156z" />
    <glyph glyph-name="Hcircumflex" unicode="&#x124;" horiz-adv-x="701" 
d="M413 0l57 268h-225l-57 -268h-186l147 692h186l-55 -259h225l55 259h186l-147 -692h-186zM467 800h-4c-27 -32 -75 -67 -127 -85l-69 108c56 16 115 39 155 81h102c30 -38 84 -72 139 -90l-81 -102c-49 20 -93 56 -115 88z" />
    <glyph glyph-name="Igrave" unicode="&#xcc;" horiz-adv-x="292" 
d="M4 0l147 692h188l-147 -692h-188zM337 776l-88 -48c-58 29 -127 85 -160 147l138 81c17 -54 58 -128 110 -180z" />
    <glyph glyph-name="Iacute" unicode="&#xcd;" horiz-adv-x="292" 
d="M4 0l147 692h188l-147 -692h-188zM253 728l-72 60c68 47 124 114 151 168l118 -103c-41 -48 -125 -102 -197 -125z" />
    <glyph glyph-name="Idotaccent" unicode="&#x130;" horiz-adv-x="292" 
d="M4 0l147 692h188l-147 -692h-188zM169 811c0 60 46 103 110 103c52 0 90 -36 90 -84c0 -59 -47 -102 -111 -102c-52 0 -89 35 -89 83z" />
    <glyph glyph-name="Idieresis" unicode="&#xcf;" horiz-adv-x="292" 
d="M4 0l147 692h188l-147 -692h-188zM73 803c0 56 41 99 99 99c47 0 77 -30 77 -74c0 -56 -41 -99 -99 -99c-47 0 -77 30 -77 74zM286 803c0 56 41 99 99 99c47 0 77 -30 77 -74c0 -56 -41 -99 -99 -99c-47 0 -77 30 -77 74z" />
    <glyph glyph-name="Icircumflex" unicode="&#xce;" horiz-adv-x="292" 
d="M4 0l147 692h188l-147 -692h-188zM265 800h-4c-27 -32 -75 -67 -127 -85l-69 108c56 16 115 39 155 81h102c30 -38 84 -72 139 -90l-81 -102c-49 20 -93 56 -115 88z" />
    <glyph glyph-name="Imacron" unicode="&#x12a;" horiz-adv-x="292" 
d="M4 0l147 692h188l-147 -692h-188zM110 744l27 128h295l-27 -128h-295z" />
    <glyph glyph-name="Itilde" unicode="&#x128;" horiz-adv-x="292" 
d="M4 0l147 692h188l-147 -692h-188zM466 846c-12 -68 -64 -118 -120 -118c-60 0 -92 49 -132 49c-24 0 -33 -25 -37 -49l-103 58c12 68 64 118 120 118c60 0 93 -48 133 -48c24 0 32 24 36 48z" />
    <glyph glyph-name="Ibreve" unicode="&#x12c;" horiz-adv-x="292" 
d="M4 0l147 692h188l-147 -692h-188zM331 909l130 -37c-33 -98 -114 -144 -206 -144c-89 0 -152 53 -152 140v4l132 37c-4 -9 -7 -21 -7 -33c0 -22 14 -38 42 -38c42 0 59 34 61 71z" />
    <glyph glyph-name="Iogonek" unicode="&#x12e;" horiz-adv-x="294" 
d="M123 -76l95 -60c-30 -44 -88 -72 -156 -72c-72 0 -128 41 -128 93c0 45 28 79 65 102l2 2l150 703h188l-147 -692c-77 -14 -145 -50 -145 -91c0 -17 13 -26 29 -26c24 0 40 20 47 41z" />
    <glyph glyph-name="Jcircumflex" unicode="&#x134;" horiz-adv-x="594" 
d="M42 285l202 105c-17 -48 -39 -101 -39 -161c0 -44 17 -78 65 -78c52 0 82 41 100 123l89 418h186l-89 -415c-43 -202 -147 -289 -303 -289c-140 0 -225 85 -225 213c0 41 14 84 14 84zM567 800h-4c-27 -32 -75 -67 -127 -85l-69 108c56 16 115 39 155 81h102
c30 -38 84 -72 139 -90l-81 -102c-49 20 -93 56 -115 88z" />
    <glyph glyph-name="uni0136" unicode="&#x136;" horiz-adv-x="664" 
d="M4 0l147 692h186l-40 -189c-13 -61 -33 -131 -33 -131h4s60 90 116 155l144 165h230l-279 -296l143 -396h-195l-88 252l-123 -129l-26 -123h-186zM184 -220c36 4 88 8 107 55c-4 -1 -7 -1 -10 -1c-32 0 -58 18 -58 54c0 45 36 72 84 72s75 -35 75 -79
c0 -84 -45 -140 -113 -156z" />
    <glyph glyph-name="Lacute" unicode="&#x139;" horiz-adv-x="538" 
d="M4 0l147 692h188l-112 -527h282l-35 -165h-470zM253 728l-72 60c68 47 124 114 151 168l118 -103c-41 -48 -125 -102 -197 -125z" />
    <glyph glyph-name="uni013B" unicode="&#x13b;" horiz-adv-x="538" 
d="M4 0l147 692h188l-112 -527h282l-35 -165h-470zM112 -220c36 4 88 8 107 55c-4 -1 -7 -1 -10 -1c-32 0 -58 18 -58 54c0 45 36 72 84 72s75 -35 75 -79c0 -84 -45 -140 -113 -156z" />
    <glyph glyph-name="Nacute" unicode="&#x143;" horiz-adv-x="717" 
d="M617 0h-232l-81 322c-11 46 -30 144 -30 144h-4s-15 -97 -28 -159l-65 -307h-173l147 692h232l81 -322c11 -46 34 -144 34 -144h4s12 97 25 159l65 307h172zM459 728l-72 60c68 47 124 114 151 168l118 -103c-41 -48 -125 -102 -197 -125z" />
    <glyph glyph-name="Ncaron" unicode="&#x147;" horiz-adv-x="717" 
d="M617 0h-232l-81 322c-11 46 -30 144 -30 144h-4s-15 -97 -28 -159l-65 -307h-173l147 692h232l81 -322c11 -46 34 -144 34 -144h4s12 97 25 159l65 307h172zM469 840h4c27 32 75 67 127 85l69 -108c-56 -16 -115 -39 -155 -81h-102c-30 38 -84 72 -139 90l81 102
c49 -20 93 -56 115 -88z" />
    <glyph glyph-name="Ntilde" unicode="&#xd1;" horiz-adv-x="717" 
d="M617 0h-232l-81 322c-11 46 -30 144 -30 144h-4s-15 -97 -28 -159l-65 -307h-173l147 692h232l81 -322c11 -46 34 -144 34 -144h4s12 97 25 159l65 307h172zM672 846c-12 -68 -64 -118 -120 -118c-60 0 -92 49 -132 49c-24 0 -33 -25 -37 -49l-103 58
c12 68 64 118 120 118c60 0 93 -48 133 -48c24 0 32 24 36 48z" />
    <glyph glyph-name="uni0145" unicode="&#x145;" horiz-adv-x="717" 
d="M617 0h-232l-81 322c-11 46 -30 144 -30 144h-4s-15 -97 -28 -159l-65 -307h-173l147 692h232l81 -322c11 -46 34 -144 34 -144h4s12 97 25 159l65 307h172zM175 -220c36 4 88 8 107 55c-4 -1 -7 -1 -10 -1c-32 0 -58 18 -58 54c0 45 36 72 84 72s75 -35 75 -79
c0 -84 -45 -140 -113 -156z" />
    <glyph glyph-name="Ograve" unicode="&#xd2;" horiz-adv-x="703" 
d="M334 -12c-184 0 -288 135 -288 299c0 224 139 417 375 417c184 0 288 -135 288 -299c0 -224 -139 -417 -375 -417zM237 283c0 -80 39 -132 111 -132c116 0 170 134 170 258c0 80 -39 132 -111 132c-116 0 -170 -134 -170 -258zM521 776l-88 -48c-58 29 -127 85 -160 147
l138 81c17 -54 58 -128 110 -180z" />
    <glyph glyph-name="Oacute" unicode="&#xd3;" horiz-adv-x="703" 
d="M334 -12c-184 0 -288 135 -288 299c0 224 139 417 375 417c184 0 288 -135 288 -299c0 -224 -139 -417 -375 -417zM237 283c0 -80 39 -132 111 -132c116 0 170 134 170 258c0 80 -39 132 -111 132c-116 0 -170 -134 -170 -258zM437 728l-72 60c68 47 124 114 151 168
l118 -103c-41 -48 -125 -102 -197 -125z" />
    <glyph glyph-name="Ohungarumlaut" unicode="&#x150;" horiz-adv-x="703" 
d="M334 -12c-184 0 -288 135 -288 299c0 224 139 417 375 417c184 0 288 -135 288 -299c0 -224 -139 -417 -375 -417zM237 283c0 -80 39 -132 111 -132c116 0 170 134 170 258c0 80 -39 132 -111 132c-116 0 -170 -134 -170 -258zM329 728l-67 56c58 49 104 120 127 174
l114 -91c-35 -52 -108 -113 -174 -139zM545 728l-67 56c58 49 107 120 130 174l114 -91c-35 -52 -111 -113 -177 -139z" />
    <glyph glyph-name="Odieresis" unicode="&#xd6;" horiz-adv-x="703" 
d="M334 -12c-184 0 -288 135 -288 299c0 224 139 417 375 417c184 0 288 -135 288 -299c0 -224 -139 -417 -375 -417zM237 283c0 -80 39 -132 111 -132c116 0 170 134 170 258c0 80 -39 132 -111 132c-116 0 -170 -134 -170 -258zM257 803c0 56 41 99 99 99
c47 0 77 -30 77 -74c0 -56 -41 -99 -99 -99c-47 0 -77 30 -77 74zM470 803c0 56 41 99 99 99c47 0 77 -30 77 -74c0 -56 -41 -99 -99 -99c-47 0 -77 30 -77 74z" />
    <glyph glyph-name="Ocircumflex" unicode="&#xd4;" horiz-adv-x="703" 
d="M334 -12c-184 0 -288 135 -288 299c0 224 139 417 375 417c184 0 288 -135 288 -299c0 -224 -139 -417 -375 -417zM237 283c0 -80 39 -132 111 -132c116 0 170 134 170 258c0 80 -39 132 -111 132c-116 0 -170 -134 -170 -258zM449 800h-4c-27 -32 -75 -67 -127 -85
l-69 108c56 16 115 39 155 81h102c30 -38 84 -72 139 -90l-81 -102c-49 20 -93 56 -115 88z" />
    <glyph glyph-name="Omacron" unicode="&#x14c;" horiz-adv-x="703" 
d="M334 -12c-184 0 -288 135 -288 299c0 224 139 417 375 417c184 0 288 -135 288 -299c0 -224 -139 -417 -375 -417zM237 283c0 -80 39 -132 111 -132c116 0 170 134 170 258c0 80 -39 132 -111 132c-116 0 -170 -134 -170 -258zM294 744l27 128h295l-27 -128h-295z" />
    <glyph glyph-name="Obreve" unicode="&#x14e;" horiz-adv-x="703" 
d="M334 -12c-184 0 -288 135 -288 299c0 224 139 417 375 417c184 0 288 -135 288 -299c0 -224 -139 -417 -375 -417zM237 283c0 -80 39 -132 111 -132c116 0 170 134 170 258c0 80 -39 132 -111 132c-116 0 -170 -134 -170 -258zM515 909l130 -37
c-33 -98 -114 -144 -206 -144c-89 0 -152 53 -152 140v4l132 37c-4 -9 -7 -21 -7 -33c0 -22 14 -38 42 -38c42 0 59 34 61 71z" />
    <glyph glyph-name="Otilde" unicode="&#xd5;" horiz-adv-x="703" 
d="M334 -12c-184 0 -288 135 -288 299c0 224 139 417 375 417c184 0 288 -135 288 -299c0 -224 -139 -417 -375 -417zM237 283c0 -80 39 -132 111 -132c116 0 170 134 170 258c0 80 -39 132 -111 132c-116 0 -170 -134 -170 -258zM650 846c-12 -68 -64 -118 -120 -118
c-60 0 -92 49 -132 49c-24 0 -33 -25 -37 -49l-103 58c12 68 64 118 120 118c60 0 93 -48 133 -48c24 0 32 24 36 48z" />
    <glyph glyph-name="Oslashacute" unicode="&#x1fe;" horiz-adv-x="723" 
d="M344 -12c-64 0 -118 16 -161 44l-68 -70l-106 107l77 79c-19 41 -28 89 -28 139c0 224 137 417 373 417c63 0 116 -16 159 -44l71 72l106 -107l-78 -81c18 -41 28 -89 28 -139c0 -224 -137 -417 -373 -417zM292 156c17 -11 37 -17 62 -17c121 0 182 140 182 268v2z
M239 285v-2l243 253c-17 11 -37 17 -61 17c-121 0 -182 -140 -182 -268zM443 728l-72 60c68 47 124 114 151 168l118 -103c-41 -48 -125 -102 -197 -125z" />
    <glyph glyph-name="Racute" unicode="&#x154;" horiz-adv-x="651" 
d="M4 0l147 692h291c140 0 241 -79 241 -203c0 -105 -65 -184 -172 -218l79 -271h-186l-69 252h-94l-53 -252h-184zM398 401c56 0 97 29 97 81c0 36 -21 59 -71 59h-121l-30 -140h125zM415 728l-72 60c68 47 124 114 151 168l118 -103c-41 -48 -125 -102 -197 -125z" />
    <glyph glyph-name="Rcaron" unicode="&#x158;" horiz-adv-x="651" 
d="M4 0l147 692h291c140 0 241 -79 241 -203c0 -105 -65 -184 -172 -218l79 -271h-186l-69 252h-94l-53 -252h-184zM398 401c56 0 97 29 97 81c0 36 -21 59 -71 59h-121l-30 -140h125zM425 840h4c27 32 75 67 127 85l69 -108c-56 -16 -115 -39 -155 -81h-102
c-30 38 -84 72 -139 90l81 102c49 -20 93 -56 115 -88z" />
    <glyph glyph-name="uni0156" unicode="&#x156;" horiz-adv-x="651" 
d="M4 0l147 692h291c140 0 241 -79 241 -203c0 -105 -65 -184 -172 -218l79 -271h-186l-69 252h-94l-53 -252h-184zM398 401c56 0 97 29 97 81c0 36 -21 59 -71 59h-121l-30 -140h125zM167 -220c36 4 88 8 107 55c-4 -1 -7 -1 -10 -1c-32 0 -58 18 -58 54c0 45 36 72 84 72
s75 -35 75 -79c0 -84 -45 -140 -113 -156z" />
    <glyph glyph-name="Sacute" unicode="&#x15a;" horiz-adv-x="612" 
d="M415 200c0 44 -76 66 -164 98c-90 33 -162 93 -162 185c0 140 125 221 273 221c140 0 251 -70 295 -178l-168 -95v3c0 52 -52 121 -136 121c-40 0 -80 -19 -80 -55c0 -44 78 -54 162 -90c91 -39 164 -88 164 -188c0 -144 -125 -234 -273 -234c-172 0 -296 77 -324 205
l169 95v-2c0 -68 55 -149 159 -149c44 0 85 21 85 63zM393 728l-72 60c68 47 124 114 151 168l118 -103c-41 -48 -125 -102 -197 -125z" />
    <glyph glyph-name="Scaron" unicode="&#x160;" horiz-adv-x="612" 
d="M415 200c0 44 -76 66 -164 98c-90 33 -162 93 -162 185c0 140 125 221 273 221c140 0 251 -70 295 -178l-168 -95v3c0 52 -52 121 -136 121c-40 0 -80 -19 -80 -55c0 -44 78 -54 162 -90c91 -39 164 -88 164 -188c0 -144 -125 -234 -273 -234c-172 0 -296 77 -324 205
l169 95v-2c0 -68 55 -149 159 -149c44 0 85 21 85 63zM403 840h4c27 32 75 67 127 85l69 -108c-56 -16 -115 -39 -155 -81h-102c-30 38 -84 72 -139 90l81 102c49 -20 93 -56 115 -88z" />
    <glyph glyph-name="Scircumflex" unicode="&#x15c;" horiz-adv-x="612" 
d="M415 200c0 44 -76 66 -164 98c-90 33 -162 93 -162 185c0 140 125 221 273 221c140 0 251 -70 295 -178l-168 -95v3c0 52 -52 121 -136 121c-40 0 -80 -19 -80 -55c0 -44 78 -54 162 -90c91 -39 164 -88 164 -188c0 -144 -125 -234 -273 -234c-172 0 -296 77 -324 205
l169 95v-2c0 -68 55 -149 159 -149c44 0 85 21 85 63zM405 800h-4c-27 -32 -75 -67 -127 -85l-69 108c56 16 115 39 155 81h102c30 -38 84 -72 139 -90l-81 -102c-49 20 -93 56 -115 88z" />
    <glyph glyph-name="uni0218" unicode="&#x218;" horiz-adv-x="612" 
d="M415 200c0 44 -76 66 -164 98c-90 33 -162 93 -162 185c0 140 125 221 273 221c140 0 251 -70 295 -178l-168 -95v3c0 52 -52 121 -136 121c-40 0 -80 -19 -80 -55c0 -44 78 -54 162 -90c91 -39 164 -88 164 -188c0 -144 -125 -234 -273 -234c-172 0 -296 77 -324 205
l169 95v-2c0 -68 55 -149 159 -149c44 0 85 21 85 63zM156 -220c36 4 88 8 107 55c-4 -1 -7 -1 -10 -1c-32 0 -58 18 -58 54c0 45 36 72 84 72s75 -35 75 -79c0 -84 -45 -140 -113 -156z" />
    <glyph glyph-name="uni015E" unicode="&#x15e;" horiz-adv-x="612" 
d="M415 200c0 44 -76 66 -164 98c-90 33 -162 93 -162 185c0 140 125 221 273 221c140 0 251 -70 295 -178l-168 -95v3c0 52 -52 121 -136 121c-40 0 -80 -19 -80 -55c0 -44 78 -54 162 -90c91 -39 164 -88 164 -188c0 -140 -119 -229 -261 -234l-9 -20c39 -9 75 -32 75 -74
c0 -64 -67 -102 -139 -102c-60 0 -105 26 -121 58l77 52c6 -23 21 -44 53 -44c22 0 39 11 39 33c0 14 -14 24 -30 24c-14 0 -24 -7 -24 -7l-46 47l35 39c-131 19 -223 91 -246 199l169 95v-2c0 -68 55 -149 159 -149c44 0 85 21 85 63z" />
    <glyph glyph-name="Tcaron" unicode="&#x164;" horiz-adv-x="583" 
d="M72 527l35 165h567l-35 -165h-190l-112 -527h-188l112 527h-189zM410 840h4c27 32 75 67 127 85l69 -108c-56 -16 -115 -39 -155 -81h-102c-30 38 -84 72 -139 90l81 102c49 -20 93 -56 115 -88z" />
    <glyph glyph-name="uni021A" unicode="&#x21a;" horiz-adv-x="583" 
d="M72 527l35 165h567l-35 -165h-190l-112 -527h-188l112 527h-189zM111 -220c36 4 88 8 107 55c-4 -1 -7 -1 -10 -1c-32 0 -58 18 -58 54c0 45 36 72 84 72s75 -35 75 -79c0 -84 -45 -140 -113 -156z" />
    <glyph glyph-name="uni0162" unicode="&#x162;" horiz-adv-x="583" 
d="M72 527l35 165h567l-35 -165h-190l-112 -527h-39l-14 -32c39 -9 75 -32 75 -74c0 -64 -67 -102 -139 -102c-60 0 -105 26 -121 58l77 52c6 -23 21 -44 53 -44c22 0 39 11 39 33c0 14 -14 24 -30 24c-14 0 -24 -7 -24 -7l-46 47l40 45h-59l112 527h-189z" />
    <glyph glyph-name="Ugrave" unicode="&#xd9;" horiz-adv-x="685" 
d="M649 285c-45 -200 -145 -297 -340 -297c-152 0 -252 100 -252 232c0 31 2 57 9 91l81 381h186l-86 -405c-4 -19 -6 -35 -6 -49c0 -52 24 -87 88 -87c76 0 117 46 133 124l88 417h186zM531 776l-88 -48c-58 29 -127 85 -160 147l138 81c17 -54 58 -128 110 -180z" />
    <glyph glyph-name="Uacute" unicode="&#xda;" horiz-adv-x="685" 
d="M649 285c-45 -200 -145 -297 -340 -297c-152 0 -252 100 -252 232c0 31 2 57 9 91l81 381h186l-86 -405c-4 -19 -6 -35 -6 -49c0 -52 24 -87 88 -87c76 0 117 46 133 124l88 417h186zM447 728l-72 60c68 47 124 114 151 168l118 -103c-41 -48 -125 -102 -197 -125z" />
    <glyph glyph-name="Uhungarumlaut" unicode="&#x170;" horiz-adv-x="685" 
d="M649 285c-45 -200 -145 -297 -340 -297c-152 0 -252 100 -252 232c0 31 2 57 9 91l81 381h186l-86 -405c-4 -19 -6 -35 -6 -49c0 -52 24 -87 88 -87c76 0 117 46 133 124l88 417h186zM339 728l-67 56c58 49 104 120 127 174l114 -91c-35 -52 -108 -113 -174 -139z
M555 728l-67 56c58 49 107 120 130 174l114 -91c-35 -52 -111 -113 -177 -139z" />
    <glyph glyph-name="Udieresis" unicode="&#xdc;" horiz-adv-x="685" 
d="M649 285c-45 -200 -145 -297 -340 -297c-152 0 -252 100 -252 232c0 31 2 57 9 91l81 381h186l-86 -405c-4 -19 -6 -35 -6 -49c0 -52 24 -87 88 -87c76 0 117 46 133 124l88 417h186zM267 803c0 56 41 99 99 99c47 0 77 -30 77 -74c0 -56 -41 -99 -99 -99
c-47 0 -77 30 -77 74zM480 803c0 56 41 99 99 99c47 0 77 -30 77 -74c0 -56 -41 -99 -99 -99c-47 0 -77 30 -77 74z" />
    <glyph glyph-name="Ucircumflex" unicode="&#xdb;" horiz-adv-x="685" 
d="M649 285c-45 -200 -145 -297 -340 -297c-152 0 -252 100 -252 232c0 31 2 57 9 91l81 381h186l-86 -405c-4 -19 -6 -35 -6 -49c0 -52 24 -87 88 -87c76 0 117 46 133 124l88 417h186zM459 800h-4c-27 -32 -75 -67 -127 -85l-69 108c56 16 115 39 155 81h102
c30 -38 84 -72 139 -90l-81 -102c-49 20 -93 56 -115 88z" />
    <glyph glyph-name="Umacron" unicode="&#x16a;" horiz-adv-x="685" 
d="M649 285c-45 -200 -145 -297 -340 -297c-152 0 -252 100 -252 232c0 31 2 57 9 91l81 381h186l-86 -405c-4 -19 -6 -35 -6 -49c0 -52 24 -87 88 -87c76 0 117 46 133 124l88 417h186zM304 744l27 128h295l-27 -128h-295z" />
    <glyph glyph-name="Utilde" unicode="&#x168;" horiz-adv-x="685" 
d="M649 285c-45 -200 -145 -297 -340 -297c-152 0 -252 100 -252 232c0 31 2 57 9 91l81 381h186l-86 -405c-4 -19 -6 -35 -6 -49c0 -52 24 -87 88 -87c76 0 117 46 133 124l88 417h186zM660 846c-12 -68 -64 -118 -120 -118c-60 0 -92 49 -132 49c-24 0 -33 -25 -37 -49
l-103 58c12 68 64 118 120 118c60 0 93 -48 133 -48c24 0 32 24 36 48z" />
    <glyph glyph-name="Ubreve" unicode="&#x16c;" horiz-adv-x="685" 
d="M649 285c-45 -200 -145 -297 -340 -297c-152 0 -252 100 -252 232c0 31 2 57 9 91l81 381h186l-86 -405c-4 -19 -6 -35 -6 -49c0 -52 24 -87 88 -87c76 0 117 46 133 124l88 417h186zM525 909l130 -37c-33 -98 -114 -144 -206 -144c-89 0 -152 53 -152 140v4l132 37
c-4 -9 -7 -21 -7 -33c0 -22 14 -38 42 -38c42 0 59 34 61 71z" />
    <glyph glyph-name="Uring" unicode="&#x16e;" horiz-adv-x="685" 
d="M649 285c-45 -200 -145 -297 -340 -297c-152 0 -252 100 -252 232c0 31 2 57 9 91l81 381h186l-86 -405c-4 -19 -6 -35 -6 -49c0 -52 24 -87 88 -87c76 0 117 46 133 124l88 417h186zM331 825c0 72 56 125 144 125c68 0 119 -45 119 -101c0 -72 -56 -125 -144 -125
c-68 0 -119 45 -119 101zM467 874c-25 0 -43 -18 -43 -42c0 -19 14 -32 34 -32c25 0 43 18 43 42c0 19 -14 32 -34 32z" />
    <glyph glyph-name="Wgrave" unicode="&#x1e80;" horiz-adv-x="869" 
d="M623 692l-14 -366c-2 -45 -7 -128 -7 -128h4s15 67 30 113l119 381h203l-263 -692h-227l12 329c2 60 7 131 7 131h-4s-23 -71 -47 -131l-131 -329h-227l35 692h192l-43 -381c-5 -46 -13 -113 -13 -113h4s25 83 42 128l143 366h185zM619 776l-88 -48
c-58 29 -127 85 -160 147l138 81c17 -54 58 -128 110 -180z" />
    <glyph glyph-name="Wacute" unicode="&#x1e82;" horiz-adv-x="869" 
d="M623 692l-14 -366c-2 -45 -7 -128 -7 -128h4s15 67 30 113l119 381h203l-263 -692h-227l12 329c2 60 7 131 7 131h-4s-23 -71 -47 -131l-131 -329h-227l35 692h192l-43 -381c-5 -46 -13 -113 -13 -113h4s25 83 42 128l143 366h185zM535 728l-72 60c68 47 124 114 151 168
l118 -103c-41 -48 -125 -102 -197 -125z" />
    <glyph glyph-name="Wdieresis" unicode="&#x1e84;" horiz-adv-x="869" 
d="M623 692l-14 -366c-2 -45 -7 -128 -7 -128h4s15 67 30 113l119 381h203l-263 -692h-227l12 329c2 60 7 131 7 131h-4s-23 -71 -47 -131l-131 -329h-227l35 692h192l-43 -381c-5 -46 -13 -113 -13 -113h4s25 83 42 128l143 366h185zM355 803c0 56 41 99 99 99
c47 0 77 -30 77 -74c0 -56 -41 -99 -99 -99c-47 0 -77 30 -77 74zM568 803c0 56 41 99 99 99c47 0 77 -30 77 -74c0 -56 -41 -99 -99 -99c-47 0 -77 30 -77 74z" />
    <glyph glyph-name="Wcircumflex" unicode="&#x174;" horiz-adv-x="869" 
d="M623 692l-14 -366c-2 -45 -7 -128 -7 -128h4s15 67 30 113l119 381h203l-263 -692h-227l12 329c2 60 7 131 7 131h-4s-23 -71 -47 -131l-131 -329h-227l35 692h192l-43 -381c-5 -46 -13 -113 -13 -113h4s25 83 42 128l143 366h185zM547 800h-4c-27 -32 -75 -67 -127 -85
l-69 108c56 16 115 39 155 81h102c30 -38 84 -72 139 -90l-81 -102c-49 20 -93 56 -115 88z" />
    <glyph glyph-name="Ygrave" unicode="&#x1ef2;" horiz-adv-x="638" 
d="M180 0l52 245l-139 447h196l47 -185c12 -48 18 -90 18 -90h4s20 41 53 90l126 185h210l-326 -442l-53 -250h-188zM495 776l-88 -48c-58 29 -127 85 -160 147l138 81c17 -54 58 -128 110 -180z" />
    <glyph glyph-name="Yacute" unicode="&#xdd;" horiz-adv-x="638" 
d="M180 0l52 245l-139 447h196l47 -185c12 -48 18 -90 18 -90h4s20 41 53 90l126 185h210l-326 -442l-53 -250h-188zM411 728l-72 60c68 47 124 114 151 168l118 -103c-41 -48 -125 -102 -197 -125z" />
    <glyph glyph-name="Ydieresis" unicode="&#x178;" horiz-adv-x="638" 
d="M180 0l52 245l-139 447h196l47 -185c12 -48 18 -90 18 -90h4s20 41 53 90l126 185h210l-326 -442l-53 -250h-188zM231 803c0 56 41 99 99 99c47 0 77 -30 77 -74c0 -56 -41 -99 -99 -99c-47 0 -77 30 -77 74zM444 803c0 56 41 99 99 99c47 0 77 -30 77 -74
c0 -56 -41 -99 -99 -99c-47 0 -77 30 -77 74z" />
    <glyph glyph-name="Ycircumflex" unicode="&#x176;" horiz-adv-x="638" 
d="M180 0l52 245l-139 447h196l47 -185c12 -48 18 -90 18 -90h4s20 41 53 90l126 185h210l-326 -442l-53 -250h-188zM423 800h-4c-27 -32 -75 -67 -127 -85l-69 108c56 16 115 39 155 81h102c30 -38 84 -72 139 -90l-81 -102c-49 20 -93 56 -115 88z" />
    <glyph glyph-name="Zacute" unicode="&#x179;" horiz-adv-x="586" 
d="M-24 0l23 108l361 421h-262l35 163h523l-25 -118l-353 -411h275l-35 -163h-542zM389 728l-72 60c68 47 124 114 151 168l118 -103c-41 -48 -125 -102 -197 -125z" />
    <glyph glyph-name="Zdotaccent" unicode="&#x17b;" horiz-adv-x="586" 
d="M-24 0l23 108l361 421h-262l35 163h523l-25 -118l-353 -411h275l-35 -163h-542zM309 811c0 60 46 103 110 103c52 0 90 -36 90 -84c0 -59 -47 -102 -111 -102c-52 0 -89 35 -89 83z" />
    <glyph glyph-name="Zcaron" unicode="&#x17d;" horiz-adv-x="586" 
d="M-24 0l23 108l361 421h-262l35 163h523l-25 -118l-353 -411h275l-35 -163h-542zM399 840h4c27 32 75 67 127 85l69 -108c-56 -16 -115 -39 -155 -81h-102c-30 38 -84 72 -139 90l81 102c49 -20 93 -56 115 -88z" />
    <glyph glyph-name="aeacute" unicode="&#x1fd;" horiz-adv-x="834" 
d="M789 202h-302v-15c0 -53 34 -73 67 -73c47 0 67 25 81 64l141 -82c-34 -56 -90 -108 -183 -108c-58 0 -100 23 -121 70h-4l-12 -58h-172l12 58h-4c-25 -39 -59 -70 -116 -70c-98 0 -150 110 -150 210c0 148 85 318 227 318c56 0 96 -28 117 -82h4l15 70h172l-11 -50h5
c31 37 71 62 119 62c88 0 147 -73 147 -166c0 -50 -11 -101 -32 -148zM254 128c67 0 91 103 91 167c0 48 -14 81 -48 81c-66 0 -91 -103 -91 -167c0 -48 14 -81 48 -81zM601 392c-45 0 -73 -35 -91 -78h148c1 8 2 15 2 22c0 35 -20 56 -59 56zM505 548l-72 60
c68 47 124 114 151 168l118 -103c-41 -48 -125 -102 -197 -125z" />
    <glyph glyph-name="agrave" unicode="&#xe0;" horiz-adv-x="573" 
d="M266 516c64 0 105 -42 118 -90h4l17 78h179l-76 -359c-8 -40 -20 -87 -20 -115c0 -16 4 -30 4 -30h-135c-16 24 -21 50 -21 75v5h-4c-30 -47 -73 -92 -149 -92c-108 0 -159 110 -159 210c0 148 90 318 242 318zM261 128c73 0 100 103 100 167c0 48 -17 81 -57 81
c-72 0 -100 -103 -100 -167c0 -48 17 -81 57 -81zM430 596l-88 -48c-58 29 -127 85 -160 147l138 81c17 -54 58 -128 110 -180z" />
    <glyph glyph-name="aacute" unicode="&#xe1;" horiz-adv-x="573" 
d="M266 516c64 0 105 -42 118 -90h4l17 78h179l-76 -359c-8 -40 -20 -87 -20 -115c0 -16 4 -30 4 -30h-135c-16 24 -21 50 -21 75v5h-4c-30 -47 -73 -92 -149 -92c-108 0 -159 110 -159 210c0 148 90 318 242 318zM261 128c73 0 100 103 100 167c0 48 -17 81 -57 81
c-72 0 -100 -103 -100 -167c0 -48 17 -81 57 -81zM346 548l-72 60c68 47 124 114 151 168l118 -103c-41 -48 -125 -102 -197 -125z" />
    <glyph glyph-name="adieresis" unicode="&#xe4;" horiz-adv-x="573" 
d="M266 516c64 0 105 -42 118 -90h4l17 78h179l-76 -359c-8 -40 -20 -87 -20 -115c0 -16 4 -30 4 -30h-135c-16 24 -21 50 -21 75v5h-4c-30 -47 -73 -92 -149 -92c-108 0 -159 110 -159 210c0 148 90 318 242 318zM261 128c73 0 100 103 100 167c0 48 -17 81 -57 81
c-72 0 -100 -103 -100 -167c0 -48 17 -81 57 -81zM166 623c0 56 41 99 99 99c47 0 77 -30 77 -74c0 -56 -41 -99 -99 -99c-47 0 -77 30 -77 74zM379 623c0 56 41 99 99 99c47 0 77 -30 77 -74c0 -56 -41 -99 -99 -99c-47 0 -77 30 -77 74z" />
    <glyph glyph-name="acircumflex" unicode="&#xe2;" horiz-adv-x="573" 
d="M266 516c64 0 105 -42 118 -90h4l17 78h179l-76 -359c-8 -40 -20 -87 -20 -115c0 -16 4 -30 4 -30h-135c-16 24 -21 50 -21 75v5h-4c-30 -47 -73 -92 -149 -92c-108 0 -159 110 -159 210c0 148 90 318 242 318zM261 128c73 0 100 103 100 167c0 48 -17 81 -57 81
c-72 0 -100 -103 -100 -167c0 -48 17 -81 57 -81zM358 620h-4c-27 -32 -75 -67 -127 -85l-69 108c56 16 115 39 155 81h102c30 -38 84 -72 139 -90l-81 -102c-49 20 -93 56 -115 88z" />
    <glyph glyph-name="amacron" unicode="&#x101;" horiz-adv-x="573" 
d="M266 516c64 0 105 -42 118 -90h4l17 78h179l-76 -359c-8 -40 -20 -87 -20 -115c0 -16 4 -30 4 -30h-135c-16 24 -21 50 -21 75v5h-4c-30 -47 -73 -92 -149 -92c-108 0 -159 110 -159 210c0 148 90 318 242 318zM261 128c73 0 100 103 100 167c0 48 -17 81 -57 81
c-72 0 -100 -103 -100 -167c0 -48 17 -81 57 -81zM203 564l27 128h295l-27 -128h-295z" />
    <glyph glyph-name="atilde" unicode="&#xe3;" horiz-adv-x="573" 
d="M266 516c64 0 105 -42 118 -90h4l17 78h179l-76 -359c-8 -40 -20 -87 -20 -115c0 -16 4 -30 4 -30h-135c-16 24 -21 50 -21 75v5h-4c-30 -47 -73 -92 -149 -92c-108 0 -159 110 -159 210c0 148 90 318 242 318zM261 128c73 0 100 103 100 167c0 48 -17 81 -57 81
c-72 0 -100 -103 -100 -167c0 -48 17 -81 57 -81zM559 666c-12 -68 -64 -118 -120 -118c-60 0 -92 49 -132 49c-24 0 -33 -25 -37 -49l-103 58c12 68 64 118 120 118c60 0 93 -48 133 -48c24 0 32 24 36 48z" />
    <glyph glyph-name="aring" unicode="&#xe5;" horiz-adv-x="573" 
d="M266 516c64 0 105 -42 118 -90h4l17 78h179l-76 -359c-8 -40 -20 -87 -20 -115c0 -16 4 -30 4 -30h-135c-16 24 -21 50 -21 75v5h-4c-30 -47 -73 -92 -149 -92c-108 0 -159 110 -159 210c0 148 90 318 242 318zM261 128c73 0 100 103 100 167c0 48 -17 81 -57 81
c-72 0 -100 -103 -100 -167c0 -48 17 -81 57 -81zM230 645c0 72 56 125 144 125c68 0 119 -45 119 -101c0 -72 -56 -125 -144 -125c-68 0 -119 45 -119 101zM366 694c-25 0 -43 -18 -43 -42c0 -19 14 -32 34 -32c25 0 43 18 43 42c0 19 -14 32 -34 32z" />
    <glyph glyph-name="abreve" unicode="&#x103;" horiz-adv-x="573" 
d="M266 516c64 0 105 -42 118 -90h4l17 78h179l-76 -359c-8 -40 -20 -87 -20 -115c0 -16 4 -30 4 -30h-135c-16 24 -21 50 -21 75v5h-4c-30 -47 -73 -92 -149 -92c-108 0 -159 110 -159 210c0 148 90 318 242 318zM261 128c73 0 100 103 100 167c0 48 -17 81 -57 81
c-72 0 -100 -103 -100 -167c0 -48 17 -81 57 -81zM424 729l130 -37c-33 -98 -114 -144 -206 -144c-89 0 -152 53 -152 140v4l132 37c-4 -9 -7 -21 -7 -33c0 -22 14 -38 42 -38c42 0 59 34 61 71z" />
    <glyph glyph-name="aogonek" unicode="&#x105;" horiz-adv-x="573" 
d="M421 -76l95 -60c-30 -44 -88 -72 -156 -72c-72 0 -128 41 -128 93c0 48 39 81 89 105l32 15c-13 23 -17 47 -17 70v5h-4c-30 -47 -73 -92 -149 -92c-108 0 -159 110 -159 210c0 148 90 318 242 318c64 0 105 -42 118 -90h4l17 78h179l-76 -359c-8 -40 -20 -87 -20 -115
c0 -16 4 -30 4 -30h-3l-56 -26c-39 -18 -88 -34 -88 -65c0 -17 13 -26 29 -26c24 0 40 20 47 41zM261 128c73 0 100 103 100 167c0 48 -17 81 -57 81c-72 0 -100 -103 -100 -167c0 -48 17 -81 57 -81z" />
    <glyph glyph-name="cacute" unicode="&#x107;" horiz-adv-x="513" 
d="M301 384c-73 0 -97 -115 -97 -187c0 -45 13 -77 53 -77c49 0 72 54 76 110l154 -81c-26 -77 -116 -161 -244 -161s-219 93 -219 213c0 172 104 315 292 315c112 0 205 -68 205 -164v-1l-175 -76s8 23 8 51c0 32 -17 58 -53 58zM321 548l-72 60c68 47 124 114 151 168
l118 -103c-41 -48 -125 -102 -197 -125z" />
    <glyph glyph-name="cdotaccent" unicode="&#x10b;" horiz-adv-x="513" 
d="M301 384c-73 0 -97 -115 -97 -187c0 -45 13 -77 53 -77c49 0 72 54 76 110l154 -81c-26 -77 -116 -161 -244 -161s-219 93 -219 213c0 172 104 315 292 315c112 0 205 -68 205 -164v-1l-175 -76s8 23 8 51c0 32 -17 58 -53 58zM237 631c0 60 46 103 110 103
c52 0 90 -36 90 -84c0 -59 -47 -102 -111 -102c-52 0 -89 35 -89 83z" />
    <glyph glyph-name="ccircumflex" unicode="&#x109;" horiz-adv-x="513" 
d="M301 384c-73 0 -97 -115 -97 -187c0 -45 13 -77 53 -77c49 0 72 54 76 110l154 -81c-26 -77 -116 -161 -244 -161s-219 93 -219 213c0 172 104 315 292 315c112 0 205 -68 205 -164v-1l-175 -76s8 23 8 51c0 32 -17 58 -53 58zM333 620h-4c-27 -32 -75 -67 -127 -85
l-69 108c56 16 115 39 155 81h102c30 -38 84 -72 139 -90l-81 -102c-49 20 -93 56 -115 88z" />
    <glyph glyph-name="ccaron" unicode="&#x10d;" horiz-adv-x="513" 
d="M301 384c-73 0 -97 -115 -97 -187c0 -45 13 -77 53 -77c49 0 72 54 76 110l154 -81c-26 -77 -116 -161 -244 -161s-219 93 -219 213c0 172 104 315 292 315c112 0 205 -68 205 -164v-1l-175 -76s8 23 8 51c0 32 -17 58 -53 58zM331 660h4c27 32 75 67 127 85l69 -108
c-56 -16 -115 -39 -155 -81h-102c-30 38 -84 72 -139 90l81 102c49 -20 93 -56 115 -88z" />
    <glyph glyph-name="ccedilla" unicode="&#xe7;" horiz-adv-x="513" 
d="M301 384c-73 0 -97 -115 -97 -187c0 -45 13 -77 53 -77c49 0 72 54 76 110l154 -81c-23 -69 -98 -143 -204 -158l-10 -23c39 -9 75 -32 75 -74c0 -64 -67 -102 -139 -102c-60 0 -105 26 -121 58l77 52c6 -23 21 -44 53 -44c22 0 39 11 39 33c0 14 -14 24 -30 24
c-14 0 -24 -7 -24 -7l-46 47l34 39c-100 21 -167 104 -167 207c0 172 104 315 292 315c112 0 205 -68 205 -164v-1l-175 -76s8 23 8 51c0 32 -17 58 -53 58z" />
    <glyph glyph-name="egrave" unicode="&#xe8;" horiz-adv-x="530" 
d="M492 202h-306v-10c0 -52 22 -78 66 -78s71 24 86 63l144 -83c-52 -71 -143 -106 -235 -106c-136 0 -223 83 -223 215c0 172 106 313 294 313c120 0 206 -73 206 -189c0 -48 -16 -91 -32 -125zM304 392c-46 0 -76 -35 -94 -78h153s2 7 2 20c0 36 -21 58 -61 58zM413 596
l-88 -48c-58 29 -127 85 -160 147l138 81c17 -54 58 -128 110 -180z" />
    <glyph glyph-name="eacute" unicode="&#xe9;" horiz-adv-x="530" 
d="M492 202h-306v-10c0 -52 22 -78 66 -78s71 24 86 63l144 -83c-52 -71 -143 -106 -235 -106c-136 0 -223 83 -223 215c0 172 106 313 294 313c120 0 206 -73 206 -189c0 -48 -16 -91 -32 -125zM304 392c-46 0 -76 -35 -94 -78h153s2 7 2 20c0 36 -21 58 -61 58zM329 548
l-72 60c68 47 124 114 151 168l118 -103c-41 -48 -125 -102 -197 -125z" />
    <glyph glyph-name="edotaccent" unicode="&#x117;" horiz-adv-x="530" 
d="M492 202h-306v-10c0 -52 22 -78 66 -78s71 24 86 63l144 -83c-52 -71 -143 -106 -235 -106c-136 0 -223 83 -223 215c0 172 106 313 294 313c120 0 206 -73 206 -189c0 -48 -16 -91 -32 -125zM304 392c-46 0 -76 -35 -94 -78h153s2 7 2 20c0 36 -21 58 -61 58zM245 631
c0 60 46 103 110 103c52 0 90 -36 90 -84c0 -59 -47 -102 -111 -102c-52 0 -89 35 -89 83z" />
    <glyph glyph-name="edieresis" unicode="&#xeb;" horiz-adv-x="530" 
d="M492 202h-306v-10c0 -52 22 -78 66 -78s71 24 86 63l144 -83c-52 -71 -143 -106 -235 -106c-136 0 -223 83 -223 215c0 172 106 313 294 313c120 0 206 -73 206 -189c0 -48 -16 -91 -32 -125zM304 392c-46 0 -76 -35 -94 -78h153s2 7 2 20c0 36 -21 58 -61 58zM149 623
c0 56 41 99 99 99c47 0 77 -30 77 -74c0 -56 -41 -99 -99 -99c-47 0 -77 30 -77 74zM362 623c0 56 41 99 99 99c47 0 77 -30 77 -74c0 -56 -41 -99 -99 -99c-47 0 -77 30 -77 74z" />
    <glyph glyph-name="ecircumflex" unicode="&#xea;" horiz-adv-x="530" 
d="M492 202h-306v-10c0 -52 22 -78 66 -78s71 24 86 63l144 -83c-52 -71 -143 -106 -235 -106c-136 0 -223 83 -223 215c0 172 106 313 294 313c120 0 206 -73 206 -189c0 -48 -16 -91 -32 -125zM304 392c-46 0 -76 -35 -94 -78h153s2 7 2 20c0 36 -21 58 -61 58zM341 620
h-4c-27 -32 -75 -67 -127 -85l-69 108c56 16 115 39 155 81h102c30 -38 84 -72 139 -90l-81 -102c-49 20 -93 56 -115 88z" />
    <glyph glyph-name="ecaron" unicode="&#x11b;" horiz-adv-x="530" 
d="M492 202h-306v-10c0 -52 22 -78 66 -78s71 24 86 63l144 -83c-52 -71 -143 -106 -235 -106c-136 0 -223 83 -223 215c0 172 106 313 294 313c120 0 206 -73 206 -189c0 -48 -16 -91 -32 -125zM304 392c-46 0 -76 -35 -94 -78h153s2 7 2 20c0 36 -21 58 -61 58zM339 660h4
c27 32 75 67 127 85l69 -108c-56 -16 -115 -39 -155 -81h-102c-30 38 -84 72 -139 90l81 102c49 -20 93 -56 115 -88z" />
    <glyph glyph-name="emacron" unicode="&#x113;" horiz-adv-x="530" 
d="M492 202h-306v-10c0 -52 22 -78 66 -78s71 24 86 63l144 -83c-52 -71 -143 -106 -235 -106c-136 0 -223 83 -223 215c0 172 106 313 294 313c120 0 206 -73 206 -189c0 -48 -16 -91 -32 -125zM304 392c-46 0 -76 -35 -94 -78h153s2 7 2 20c0 36 -21 58 -61 58zM186 564
l27 128h295l-27 -128h-295z" />
    <glyph glyph-name="ebreve" unicode="&#x115;" horiz-adv-x="530" 
d="M492 202h-306v-10c0 -52 22 -78 66 -78s71 24 86 63l144 -83c-52 -71 -143 -106 -235 -106c-136 0 -223 83 -223 215c0 172 106 313 294 313c120 0 206 -73 206 -189c0 -48 -16 -91 -32 -125zM304 392c-46 0 -76 -35 -94 -78h153s2 7 2 20c0 36 -21 58 -61 58zM407 729
l130 -37c-33 -98 -114 -144 -206 -144c-89 0 -152 53 -152 140v4l132 37c-4 -9 -7 -21 -7 -33c0 -22 14 -38 42 -38c42 0 59 34 61 71z" />
    <glyph glyph-name="gdotaccent" unicode="&#x121;" horiz-adv-x="542" 
d="M49 16l1 4c-28 10 -56 36 -56 72c0 68 75 102 137 111l1 4c-37 19 -71 64 -71 120c0 120 113 189 237 189c44 0 78 -5 108 -5c70 0 70 78 70 125l141 -89c-12 -56 -52 -105 -115 -105c-11 0 -27 2 -33 4l-1 -4c23 -22 41 -56 41 -102c0 -120 -144 -179 -256 -179
c-46 0 -99 -6 -99 -36c0 -16 15 -22 39 -22c38 0 83 7 134 7c109 0 178 -47 178 -123c0 -156 -179 -189 -323 -189c-141 0 -255 42 -255 115c0 62 61 94 122 103zM223 -27c-53 0 -141 -3 -141 -39c0 -24 43 -31 111 -31c45 0 131 3 131 43c0 24 -41 27 -101 27zM297 402
c-44 0 -79 -29 -79 -73c0 -36 23 -55 59 -55c44 0 79 29 79 73c0 36 -23 55 -59 55zM233 631c0 60 46 103 110 103c52 0 90 -36 90 -84c0 -59 -47 -102 -111 -102c-52 0 -89 35 -89 83z" />
    <glyph glyph-name="gcircumflex" unicode="&#x11d;" horiz-adv-x="542" 
d="M44 16l1 4c-28 10 -56 36 -56 72c0 68 78 102 140 111l1 4c-37 19 -73 64 -73 120c0 120 115 189 239 189c47 0 85 -9 117 -9c88 0 111 50 112 93l105 -62c-14 -52 -59 -96 -130 -96c-11 0 -27 2 -33 4l-1 -4c23 -22 43 -54 43 -101c0 -123 -144 -180 -258 -180
c-46 0 -102 -6 -102 -36c0 -16 15 -22 39 -22c38 0 83 7 134 7c109 0 178 -47 178 -123c0 -156 -179 -189 -323 -189c-141 0 -255 42 -255 115c0 62 61 94 122 103zM218 -27c-53 0 -141 -3 -141 -39c0 -24 43 -31 111 -31c45 0 131 3 131 43c0 24 -41 27 -101 27zM295 402
c-44 0 -80 -29 -80 -73c0 -36 24 -55 60 -55c44 0 80 29 80 73c0 36 -24 55 -60 55zM329 620h-4c-27 -32 -75 -67 -127 -85l-69 108c56 16 115 39 155 81h102c30 -38 84 -72 139 -90l-81 -102c-49 20 -93 56 -115 88z" />
    <glyph glyph-name="gbreve" unicode="&#x11f;" horiz-adv-x="542" 
d="M44 16l1 4c-28 10 -56 36 -56 72c0 68 78 102 140 111l1 4c-37 19 -73 64 -73 120c0 120 115 189 239 189c47 0 85 -9 117 -9c88 0 109 51 110 98l107 -67c-14 -52 -59 -96 -130 -96c-11 0 -27 2 -33 4l-1 -4c23 -22 43 -54 43 -101c0 -123 -144 -180 -258 -180
c-46 0 -102 -6 -102 -36c0 -16 15 -22 39 -22c38 0 83 7 134 7c109 0 178 -47 178 -123c0 -156 -179 -189 -323 -189c-141 0 -255 42 -255 115c0 62 61 94 122 103zM400 729l130 -37c-33 -98 -114 -144 -206 -144c-89 0 -152 53 -152 140v4l132 37c-4 -9 -7 -21 -7 -33
c0 -22 14 -38 42 -38c42 0 59 34 61 71zM295 402c-44 0 -80 -29 -80 -73c0 -36 24 -55 60 -55c44 0 80 29 80 73c0 36 -24 55 -60 55zM218 -27c-53 0 -141 -3 -141 -39c0 -24 43 -31 111 -31c45 0 131 3 131 43c0 24 -41 27 -101 27z" />
    <glyph glyph-name="uni0123" unicode="&#x123;" horiz-adv-x="542" 
d="M49 16l1 4c-28 10 -56 36 -56 72c0 68 75 102 137 111l1 4c-37 19 -71 64 -71 120c0 120 113 189 237 189c44 0 78 -5 108 -5c70 0 70 78 70 125l141 -89c-12 -56 -52 -105 -115 -105c-11 0 -27 2 -33 4l-1 -4c23 -22 41 -56 41 -102c0 -120 -144 -179 -256 -179
c-46 0 -99 -6 -99 -36c0 -16 15 -22 39 -22c38 0 83 7 134 7c109 0 178 -47 178 -123c0 -156 -179 -189 -323 -189c-141 0 -255 42 -255 115c0 62 61 94 122 103zM223 -27c-53 0 -141 -3 -141 -39c0 -24 43 -31 111 -31c45 0 131 3 131 43c0 24 -41 27 -101 27zM297 402
c-44 0 -79 -29 -79 -73c0 -36 23 -55 59 -55c44 0 79 29 79 73c0 36 -23 55 -59 55zM443 723c-37 -4 -89 -8 -108 -55c4 1 7 1 11 1c32 0 58 -18 58 -54c0 -45 -36 -72 -84 -72s-75 35 -75 79c0 84 45 140 113 156z" />
    <glyph glyph-name="hcircumflex" unicode="&#x125;" horiz-adv-x="566" 
d="M540 319l-68 -319h-180l61 288c3 13 5 27 5 39c0 24 -11 43 -43 43c-48 0 -66 -43 -76 -91l-59 -279h-180l154 724h180l-38 -176c-13 -64 -36 -124 -36 -124h4c36 48 85 92 157 92c76 0 126 -53 126 -133c0 -19 -2 -41 -7 -64zM261 840h-4c-27 -32 -75 -67 -127 -85
l-69 108c56 16 115 39 155 81h102c30 -38 84 -72 139 -90l-81 -102c-49 20 -93 56 -115 88z" />
    <glyph glyph-name="igrave" unicode="&#xec;" horiz-adv-x="278" 
d="M0 0l107 504h182l-107 -504h-182zM291 596l-88 -48c-58 29 -127 85 -160 147l138 81c17 -54 58 -128 110 -180z" />
    <glyph glyph-name="iacute" unicode="&#xed;" horiz-adv-x="278" 
d="M0 0l107 504h182l-107 -504h-182zM207 548l-72 60c68 47 124 114 151 168l118 -103c-41 -48 -125 -102 -197 -125z" />
    <glyph glyph-name="idieresis" unicode="&#xef;" horiz-adv-x="278" 
d="M0 0l107 504h182l-107 -504h-182zM27 623c0 56 41 99 99 99c47 0 77 -30 77 -74c0 -56 -41 -99 -99 -99c-47 0 -77 30 -77 74zM240 623c0 56 41 99 99 99c47 0 77 -30 77 -74c0 -56 -41 -99 -99 -99c-47 0 -77 30 -77 74z" />
    <glyph glyph-name="icircumflex" unicode="&#xee;" horiz-adv-x="278" 
d="M0 0l107 504h182l-107 -504h-182zM219 620h-4c-27 -32 -75 -67 -127 -85l-69 108c56 16 115 39 155 81h102c30 -38 84 -72 139 -90l-81 -102c-49 20 -93 56 -115 88z" />
    <glyph glyph-name="imacron" unicode="&#x12b;" horiz-adv-x="278" 
d="M0 0l107 504h182l-107 -504h-182zM64 564l27 128h295l-27 -128h-295z" />
    <glyph glyph-name="itilde" unicode="&#x129;" horiz-adv-x="278" 
d="M0 0l107 504h182l-107 -504h-182zM420 666c-12 -68 -64 -118 -120 -118c-60 0 -92 49 -132 49c-24 0 -33 -25 -37 -49l-103 58c12 68 64 118 120 118c60 0 93 -48 133 -48c24 0 32 24 36 48z" />
    <glyph glyph-name="ibreve" unicode="&#x12d;" horiz-adv-x="278" 
d="M0 0l107 504h182l-107 -504h-182zM285 729l130 -37c-33 -98 -114 -144 -206 -144c-89 0 -152 53 -152 140v4l132 37c-4 -9 -7 -21 -7 -33c0 -22 14 -38 42 -38c42 0 59 34 61 71z" />
    <glyph glyph-name="iogonek" unicode="&#x12f;" horiz-adv-x="278" 
d="M113 -76l95 -60c-30 -44 -88 -72 -156 -72c-72 0 -128 41 -128 93c0 45 30 80 67 103l7 5l109 511h182l-107 -504c-77 -14 -145 -50 -145 -91c0 -17 13 -26 29 -26c24 0 40 20 47 41zM123 629v2c0 59 44 101 107 103h5c51 0 87 -34 88 -81v-6c-2 -57 -48 -99 -111 -99h-4
c-51 1 -85 33 -85 81z" />
    <glyph glyph-name="jcircumflex" unicode="&#x135;" horiz-adv-x="286" 
d="M-5 -208l-137 122c79 10 138 29 160 133l97 457h182l-103 -489c-26 -123 -88 -201 -199 -223zM227 620h-4c-27 -32 -75 -67 -127 -85l-69 108c56 16 115 39 155 81h102c30 -38 84 -72 139 -90l-81 -102c-49 20 -93 56 -115 88z" />
    <glyph glyph-name="uni0137" unicode="&#x137;" horiz-adv-x="564" 
d="M623 504l-212 -200l112 -304h-190l-63 175l-69 -71l-21 -104h-180l154 724h180l-63 -297c-14 -64 -35 -124 -35 -124h4s39 55 72 91l100 110h211zM125 -220c36 4 88 8 107 55c-4 -1 -7 -1 -10 -1c-32 0 -58 18 -58 54c0 45 36 72 84 72s75 -35 75 -79
c0 -84 -45 -140 -113 -156z" />
    <glyph glyph-name="lacute" unicode="&#x13a;" horiz-adv-x="278" 
d="M0 0l153 724h182l-153 -724h-182zM253 768l-72 60c68 47 124 114 151 168l118 -103c-41 -48 -125 -102 -197 -125z" />
    <glyph glyph-name="uni013C" unicode="&#x13c;" horiz-adv-x="278" 
d="M0 0l153 724h182l-153 -724h-182zM-43 -220c36 4 88 8 107 55c-4 -1 -7 -1 -10 -1c-32 0 -58 18 -58 54c0 45 36 72 84 72s75 -35 75 -79c0 -84 -45 -140 -113 -156z" />
    <glyph glyph-name="nacute" unicode="&#x144;" horiz-adv-x="566" 
d="M540 319l-68 -319h-180l61 288c3 13 5 27 5 39c0 24 -11 43 -43 43c-48 0 -66 -43 -76 -91l-59 -279h-180l107 504h180l-27 -80h4c36 48 85 92 157 92c76 0 126 -53 126 -133c0 -19 -2 -41 -7 -64zM347 548l-72 60c68 47 124 114 151 168l118 -103
c-41 -48 -125 -102 -197 -125z" />
    <glyph glyph-name="ncaron" unicode="&#x148;" horiz-adv-x="566" 
d="M540 319l-68 -319h-180l61 288c3 13 5 27 5 39c0 24 -11 43 -43 43c-48 0 -66 -43 -76 -91l-59 -279h-180l107 504h180l-27 -80h4c36 48 85 92 157 92c76 0 126 -53 126 -133c0 -19 -2 -41 -7 -64zM357 660h4c27 32 75 67 127 85l69 -108c-56 -16 -115 -39 -155 -81h-102
c-30 38 -84 72 -139 90l81 102c49 -20 93 -56 115 -88z" />
    <glyph glyph-name="ntilde" unicode="&#xf1;" horiz-adv-x="566" 
d="M540 319l-68 -319h-180l61 288c3 13 5 27 5 39c0 24 -11 43 -43 43c-48 0 -66 -43 -76 -91l-59 -279h-180l107 504h180l-27 -80h4c36 48 85 92 157 92c76 0 126 -53 126 -133c0 -19 -2 -41 -7 -64zM560 666c-12 -68 -64 -118 -120 -118c-60 0 -92 49 -132 49
c-24 0 -33 -25 -37 -49l-103 58c12 68 64 118 120 118c60 0 93 -48 133 -48c24 0 32 24 36 48z" />
    <glyph glyph-name="uni0146" unicode="&#x146;" horiz-adv-x="566" 
d="M540 319l-68 -319h-180l61 288c3 13 5 27 5 39c0 24 -11 43 -43 43c-48 0 -66 -43 -76 -91l-59 -279h-180l107 504h180l-27 -80h4c36 48 85 92 157 92c76 0 126 -53 126 -133c0 -19 -2 -41 -7 -64zM108 -220c36 4 88 8 107 55c-4 -1 -7 -1 -10 -1c-32 0 -58 18 -58 54
c0 45 36 72 84 72s75 -35 75 -79c0 -84 -45 -140 -113 -156z" />
    <glyph glyph-name="napostrophe" unicode="&#x149;" horiz-adv-x="832" 
d="M806 319l-68 -319h-180l61 288c3 13 5 27 5 39c0 24 -11 43 -43 43c-48 0 -66 -43 -76 -91l-59 -279h-180l107 504h180l-27 -80h4c36 48 85 92 157 92c76 0 126 -53 126 -133c0 -19 -2 -41 -7 -64zM323 600c0 -108 -52 -204 -155 -249l-82 80c55 17 114 34 142 95
c-8 -2 -16 -2 -25 -2c-48 0 -82 33 -82 77c0 60 45 103 105 103s97 -32 97 -104z" />
    <glyph glyph-name="ograve" unicode="&#xf2;" horiz-adv-x="556" 
d="M24 203c0 172 106 313 294 313c128 0 225 -87 225 -215c0 -172 -106 -313 -294 -313c-128 0 -225 87 -225 215zM204 197c0 -45 17 -77 57 -77c72 0 102 115 102 187c0 45 -18 77 -58 77c-73 0 -101 -115 -101 -187zM415 596l-88 -48c-58 29 -127 85 -160 147l138 81
c17 -54 58 -128 110 -180z" />
    <glyph glyph-name="oacute" unicode="&#xf3;" horiz-adv-x="556" 
d="M24 203c0 172 106 313 294 313c128 0 225 -87 225 -215c0 -172 -106 -313 -294 -313c-128 0 -225 87 -225 215zM204 197c0 -45 17 -77 57 -77c72 0 102 115 102 187c0 45 -18 77 -58 77c-73 0 -101 -115 -101 -187zM331 548l-72 60c68 47 124 114 151 168l118 -103
c-41 -48 -125 -102 -197 -125z" />
    <glyph glyph-name="ohungarumlaut" unicode="&#x151;" horiz-adv-x="556" 
d="M24 203c0 172 106 313 294 313c128 0 225 -87 225 -215c0 -172 -106 -313 -294 -313c-128 0 -225 87 -225 215zM204 197c0 -45 17 -77 57 -77c72 0 102 115 102 187c0 45 -18 77 -58 77c-73 0 -101 -115 -101 -187zM223 548l-67 56c58 49 104 120 127 174l114 -91
c-35 -52 -108 -113 -174 -139zM439 548l-67 56c58 49 107 120 130 174l114 -91c-35 -52 -111 -113 -177 -139z" />
    <glyph glyph-name="odieresis" unicode="&#xf6;" horiz-adv-x="556" 
d="M24 203c0 172 106 313 294 313c128 0 225 -87 225 -215c0 -172 -106 -313 -294 -313c-128 0 -225 87 -225 215zM204 197c0 -45 17 -77 57 -77c72 0 102 115 102 187c0 45 -18 77 -58 77c-73 0 -101 -115 -101 -187zM151 623c0 56 41 99 99 99c47 0 77 -30 77 -74
c0 -56 -41 -99 -99 -99c-47 0 -77 30 -77 74zM364 623c0 56 41 99 99 99c47 0 77 -30 77 -74c0 -56 -41 -99 -99 -99c-47 0 -77 30 -77 74z" />
    <glyph glyph-name="ocircumflex" unicode="&#xf4;" horiz-adv-x="556" 
d="M24 203c0 172 106 313 294 313c128 0 225 -87 225 -215c0 -172 -106 -313 -294 -313c-128 0 -225 87 -225 215zM204 197c0 -45 17 -77 57 -77c72 0 102 115 102 187c0 45 -18 77 -58 77c-73 0 -101 -115 -101 -187zM343 620h-4c-27 -32 -75 -67 -127 -85l-69 108
c56 16 115 39 155 81h102c30 -38 84 -72 139 -90l-81 -102c-49 20 -93 56 -115 88z" />
    <glyph glyph-name="omacron" unicode="&#x14d;" horiz-adv-x="556" 
d="M24 203c0 172 106 313 294 313c128 0 225 -87 225 -215c0 -172 -106 -313 -294 -313c-128 0 -225 87 -225 215zM204 197c0 -45 17 -77 57 -77c72 0 102 115 102 187c0 45 -18 77 -58 77c-73 0 -101 -115 -101 -187zM188 564l27 128h295l-27 -128h-295z" />
    <glyph glyph-name="obreve" unicode="&#x14f;" horiz-adv-x="556" 
d="M24 203c0 172 106 313 294 313c128 0 225 -87 225 -215c0 -172 -106 -313 -294 -313c-128 0 -225 87 -225 215zM204 197c0 -45 17 -77 57 -77c72 0 102 115 102 187c0 45 -18 77 -58 77c-73 0 -101 -115 -101 -187zM409 729l130 -37c-33 -98 -114 -144 -206 -144
c-89 0 -152 53 -152 140v4l132 37c-4 -9 -7 -21 -7 -33c0 -22 14 -38 42 -38c42 0 59 34 61 71z" />
    <glyph glyph-name="otilde" unicode="&#xf5;" horiz-adv-x="556" 
d="M24 203c0 172 106 313 294 313c128 0 225 -87 225 -215c0 -172 -106 -313 -294 -313c-128 0 -225 87 -225 215zM204 197c0 -45 17 -77 57 -77c72 0 102 115 102 187c0 45 -18 77 -58 77c-73 0 -101 -115 -101 -187zM544 666c-12 -68 -64 -118 -120 -118
c-60 0 -92 49 -132 49c-24 0 -33 -25 -37 -49l-103 58c12 68 64 118 120 118c60 0 93 -48 133 -48c24 0 32 24 36 48z" />
    <glyph glyph-name="oslashacute" unicode="&#x1ff;" horiz-adv-x="570" 
d="M90 -47l-99 98l59 58c-12 28 -19 59 -19 94c0 172 106 313 294 313c39 0 75 -8 106 -23l59 59l99 -98l-59 -59c13 -28 20 -59 20 -94c0 -172 -106 -313 -294 -313c-40 0 -76 9 -108 23zM229 119c11 -5 23 -7 39 -7c80 0 114 95 121 169zM312 392
c-81 0 -113 -94 -120 -167l158 160c-11 5 -23 7 -38 7zM223 548l-72 60c68 47 124 114 151 168l118 -103c-41 -48 -125 -102 -197 -125z" />
    <glyph glyph-name="racute" unicode="&#x155;" horiz-adv-x="468" 
d="M0 0l107 504h180l-27 -80h4c34 48 82 92 142 92c56 0 85 -42 85 -98c0 -44 -13 -82 -21 -105l-176 -88c16 39 29 79 29 112c0 18 -6 33 -26 33c-28 0 -45 -30 -58 -90l-59 -280h-180zM313 548l-72 60c68 47 124 114 151 168l118 -103c-41 -48 -125 -102 -197 -125z" />
    <glyph glyph-name="rcaron" unicode="&#x159;" horiz-adv-x="468" 
d="M0 0l107 504h180l-27 -80h4c34 48 82 92 142 92c56 0 85 -42 85 -98c0 -44 -13 -82 -21 -105l-176 -88c16 39 29 79 29 112c0 18 -6 33 -26 33c-28 0 -45 -30 -58 -90l-59 -280h-180zM323 660h4c27 32 75 67 127 85l69 -108c-56 -16 -115 -39 -155 -81h-102
c-30 38 -84 72 -139 90l81 102c49 -20 93 -56 115 -88z" />
    <glyph glyph-name="uni0157" unicode="&#x157;" horiz-adv-x="468" 
d="M0 0l107 504h180l-27 -80h4c34 48 82 92 142 92c56 0 85 -42 85 -98c0 -44 -13 -82 -21 -105l-176 -88c16 39 29 79 29 112c0 18 -6 33 -26 33c-28 0 -45 -30 -58 -90l-59 -280h-180zM-42 -220c36 4 88 8 107 55c-4 -1 -7 -1 -10 -1c-32 0 -58 18 -58 54
c0 45 36 72 84 72s75 -35 75 -79c0 -84 -45 -140 -113 -156z" />
    <glyph glyph-name="sacute" unicode="&#x15b;" horiz-adv-x="507" 
d="M146 185c17 -45 46 -71 98 -71c28 0 51 12 51 33c0 28 -55 40 -109 56c-64 19 -127 54 -127 138c0 112 112 175 228 175s189 -46 235 -114l-150 -73c-10 33 -40 61 -88 61c-24 0 -47 -10 -47 -30c0 -24 51 -28 119 -53c62 -23 119 -55 119 -139
c0 -112 -115 -180 -231 -180c-123 0 -209 43 -250 123zM305 548l-72 60c68 47 124 114 151 168l118 -103c-41 -48 -125 -102 -197 -125z" />
    <glyph glyph-name="scaron" unicode="&#x161;" horiz-adv-x="507" 
d="M146 185c17 -45 46 -71 98 -71c28 0 51 12 51 33c0 28 -55 40 -109 56c-64 19 -127 54 -127 138c0 112 112 175 228 175s189 -46 235 -114l-150 -73c-10 33 -40 61 -88 61c-24 0 -47 -10 -47 -30c0 -24 51 -28 119 -53c62 -23 119 -55 119 -139
c0 -112 -115 -180 -231 -180c-123 0 -209 43 -250 123zM315 660h4c27 32 75 67 127 85l69 -108c-56 -16 -115 -39 -155 -81h-102c-30 38 -84 72 -139 90l81 102c49 -20 93 -56 115 -88z" />
    <glyph glyph-name="scircumflex" unicode="&#x15d;" horiz-adv-x="507" 
d="M146 185c17 -45 46 -71 98 -71c28 0 51 12 51 33c0 28 -55 40 -109 56c-64 19 -127 54 -127 138c0 112 112 175 228 175s189 -46 235 -114l-150 -73c-10 33 -40 61 -88 61c-24 0 -47 -10 -47 -30c0 -24 51 -28 119 -53c62 -23 119 -55 119 -139
c0 -112 -115 -180 -231 -180c-123 0 -209 43 -250 123zM317 620h-4c-27 -32 -75 -67 -127 -85l-69 108c56 16 115 39 155 81h102c30 -38 84 -72 139 -90l-81 -102c-49 20 -93 56 -115 88z" />
    </font>
</defs>
</svg>
