<?xml version="1.0" standalone="no"?>
<!DOCTYPE svg PUBLIC "-//W3C//DTD SVG 1.1//EN" "http://www.w3.org/Graphics/SVG/1.1/DTD/svg11.dtd" >
<svg xmlns="http://www.w3.org/2000/svg" xmlns:xlink="http://www.w3.org/1999/xlink" version="1.1">
<metadata>
Created by FontForge 20170924 at Mon Feb 13 15:47:46 2017
 By www-data
Copyright (c) 2017. All rights reserved. Helsinki Grotesk is a customized version of Graebenbach for the City of Helsinki. Graebenbach is a design by Wolfgang Schwaerzler, published by Camelot Typefaces. www.camelot-typefaces.com
</metadata>
<defs>
<font id="HelsinkiGrotesk-BoldItalic" horiz-adv-x="600" >
  <font-face 
    font-family="Helsinki Grotesk Bold"
    font-weight="700"
    font-style="italic"
    font-stretch="normal"
    units-per-em="1000"
    panose-1="2 11 0 3 4 2 2 0 0 3"
    ascent="736"
    descent="-264"
    x-height="504"
    cap-height="692"
    bbox="-212 -267 1308 984"
    underline-thickness="50"
    underline-position="-200"
    slope="-12"
    stemh="108"
    stemv="141"
    unicode-range="U+0020-FEFF"
  />
<missing-glyph 
d="M11 0l147 692h478l-147 -692h-478zM501 588h-176l95 -381zM226 479l-80 -377h174z" />
    <glyph glyph-name="f_j" unicode="fj" horiz-adv-x="584" 
d="M44 0l84 396h-77l23 108h77l5 23c33 153 128 209 249 209c90 0 160 -39 189 -106l-138 -75s1 3 1 9c0 35 -20 63 -63 63c-48 0 -84 -30 -100 -107l-3 -16h100l-23 -108h-100l-84 -396h-140zM289 -208l-110 96c91 14 140 46 163 153l98 463h143l-105 -497
c-25 -121 -85 -196 -189 -215z" />
    <glyph glyph-name="f_adieresis" unicode="f&#xe4;" horiz-adv-x="917" 
d="M410 583c-6 22 -18 42 -47 42c-37 0 -52 -27 -61 -72l-11 -49h107l-22 -108h-108l-84 -396h-140l85 396h-78l23 108h77l13 59c25 116 98 173 200 173c62 0 106 -33 124 -61l-76 -101s-1 5 -2 9zM626 516c72 0 115 -50 129 -95h4l17 83h141l-79 -374
c-8 -39 -17 -78 -17 -103c0 -14 3 -27 3 -27h-108c-13 21 -17 42 -17 64v10h-3c-27 -42 -71 -86 -148 -86c-108 0 -169 101 -169 211c0 154 97 317 247 317zM603 101c87 0 129 113 129 198c0 60 -27 104 -83 104c-86 0 -129 -113 -129 -198c0 -60 27 -104 83 -104zM532 629
c0 48 35 85 86 85c41 0 68 -27 68 -65c0 -48 -35 -85 -86 -85c-41 0 -68 27 -68 65zM733 629c0 48 34 85 85 85c41 0 68 -27 68 -65c0 -48 -35 -85 -86 -85c-41 0 -67 27 -67 65z" />
    <glyph glyph-name="f_odieresis" unicode="f&#xf6;" horiz-adv-x="897" 
d="M410 583c-6 22 -18 42 -47 42c-37 0 -52 -27 -61 -72l-11 -49h107l-22 -108h-108l-84 -396h-140l85 396h-78l23 108h77l13 59c25 116 98 173 200 173c62 0 106 -33 124 -61l-76 -101s-1 5 -2 9zM377 202c0 169 105 314 284 314c125 0 214 -89 214 -214
c0 -169 -106 -314 -284 -314c-125 0 -214 89 -214 214zM518 198c0 -59 28 -102 82 -102c88 0 133 120 133 210c0 59 -28 102 -82 102c-89 0 -133 -120 -133 -210zM525 629c0 48 35 85 86 85c41 0 68 -27 68 -65c0 -48 -35 -85 -86 -85c-41 0 -68 27 -68 65zM726 629
c0 48 34 85 85 85c41 0 68 -27 68 -65c0 -48 -35 -85 -86 -85c-41 0 -67 27 -67 65z" />
    <glyph glyph-name="f_udieresis" unicode="f&#xfc;" horiz-adv-x="918" 
d="M410 583c-6 22 -18 42 -47 42c-37 0 -52 -27 -61 -72l-11 -49h107l-22 -108h-108l-84 -396h-140l85 396h-78l23 108h77l13 59c25 116 98 173 200 173c62 0 106 -33 124 -61l-76 -101s-1 5 -2 9zM412 198l65 306h141l-62 -293c-3 -16 -5 -32 -5 -45c0 -37 17 -61 58 -61
c61 0 93 52 106 115l60 284h142l-107 -504h-142l27 83h-3c-32 -49 -82 -95 -159 -95c-83 0 -130 55 -130 139c0 18 4 49 9 71zM543 629c0 48 35 85 86 85c41 0 68 -27 68 -65c0 -48 -35 -85 -86 -85c-41 0 -68 27 -68 65zM744 629c0 48 34 85 85 85c41 0 68 -27 68 -65
c0 -48 -35 -85 -86 -85c-41 0 -67 27 -67 65z" />
    <glyph glyph-name="f_b" unicode="fb" horiz-adv-x="949" 
d="M410 583c-6 22 -18 42 -47 42c-37 0 -52 -27 -61 -72l-11 -49h107l-22 -108h-108l-84 -396h-140l85 396h-78l23 108h77l13 59c25 116 98 173 200 173c62 0 106 -33 124 -61l-76 -101s-1 5 -2 9zM540 724h142l-37 -172c-11 -51 -36 -124 -36 -124h4c29 40 71 88 143 88
c108 0 169 -101 169 -211c0 -154 -97 -317 -247 -317c-75 0 -119 52 -134 99h-3l-19 -87h-136zM701 403c-87 0 -129 -113 -129 -198c0 -60 27 -104 83 -104c86 0 129 113 129 198c0 60 -27 104 -83 104z" />
    <glyph glyph-name="f_h" unicode="fh" horiz-adv-x="937" 
d="M410 583c-6 22 -18 42 -47 42c-37 0 -52 -27 -61 -72l-11 -49h107l-22 -108h-108l-84 -396h-140l85 396h-78l23 108h77l13 59c25 116 98 173 200 173c62 0 106 -33 124 -61l-76 -101s-1 5 -2 9zM898 306l-66 -306h-141l62 293c3 16 5 32 5 45c0 37 -21 61 -62 61
c-61 0 -95 -52 -108 -115l-60 -284h-142l154 724h142l-39 -179c-11 -56 -35 -124 -35 -124h3c32 49 84 95 161 95c83 0 134 -55 134 -139c0 -18 -3 -49 -8 -71z" />
    <glyph glyph-name="f_k" unicode="fk" horiz-adv-x="916" 
d="M410 583c-6 22 -18 42 -47 42c-37 0 -52 -27 -61 -72l-11 -49h107l-22 -108h-108l-84 -396h-140l85 396h-78l23 108h77l13 59c25 116 98 173 200 173c62 0 106 -33 124 -61l-76 -101s-1 5 -2 9zM964 504l-213 -201l120 -303h-149l-81 203l-90 -90l-23 -113h-142l154 724
h142l-69 -324c-13 -62 -34 -124 -34 -124h3s43 54 80 92l133 136h169z" />
    <glyph glyph-name="f_t" unicode="ft" horiz-adv-x="705" 
d="M411 576c0 34 -14 54 -45 54c-38 0 -55 -29 -64 -74l-11 -52h90l-23 -108h-90l-84 -396h-140l84 396h-77l23 108h77l13 59c25 116 97 173 203 173c74 0 119 -38 142 -76l-98 -86v2zM628 136l36 -104c-22 -18 -68 -44 -128 -44c-76 0 -125 40 -125 109c0 14 2 34 6 52
l52 247h-68l23 108h68l22 102l156 78l-38 -180h110l-22 -108h-111l-51 -239c-1 -8 -3 -17 -3 -26c0 -19 10 -27 26 -27c22 0 37 20 47 32z" />
    <glyph glyph-name="t_t" unicode="tt" horiz-adv-x="712" 
d="M283 136l36 -104c-22 -18 -68 -44 -127 -44c-77 0 -126 40 -126 109c0 14 2 34 6 52l53 247h-82l23 108h81l22 102l156 78l-38 -180h94l-23 -108h-94l-51 -239c-1 -8 -3 -17 -3 -26c0 -19 11 -27 26 -27c23 0 37 20 47 32zM632 136l36 -104c-22 -18 -68 -44 -128 -44
c-76 0 -125 40 -125 109c0 14 2 34 6 52l52 247h-73l22 108h74l22 102l156 78l-38 -180h112l-23 -108h-112l-51 -239c-1 -8 -3 -17 -3 -26c0 -19 10 -27 26 -27c22 0 37 20 47 32z" />
    <glyph glyph-name="f_f_j" unicode="ffj" horiz-adv-x="980" 
d="M411 576c0 34 -14 54 -45 54c-38 0 -55 -29 -64 -74l-11 -52h94l-23 -108h-94l-84 -396h-140l84 396h-77l23 108h77l13 59c25 116 97 173 203 173c74 0 119 -38 142 -76l-98 -86v2zM754 583c-6 22 -18 42 -47 42c-37 0 -52 -27 -61 -72l-11 -49h110l-22 -108h-111
l-84 -396h-140l85 396h-68l23 108h67l13 59c25 116 98 173 200 173c62 0 106 -33 124 -61l-76 -101s-1 5 -2 9zM685 -208l-110 96c91 14 140 46 163 153l98 463h143l-105 -497c-26 -121 -85 -196 -189 -215zM850 635c0 50 37 87 92 87c44 0 76 -30 76 -71
c0 -50 -39 -87 -93 -87c-44 0 -75 30 -75 71z" />
    <glyph glyph-name="f_f_adieresis" unicode="ff&#xe4;" horiz-adv-x="1261" 
d="M411 576c0 34 -14 54 -45 54c-38 0 -55 -29 -64 -74l-11 -52h94l-23 -108h-94l-84 -396h-140l84 396h-77l23 108h77l13 59c25 116 97 173 203 173c74 0 119 -38 142 -76l-98 -86v2zM754 583c-6 22 -18 42 -47 42c-37 0 -52 -27 -61 -72l-11 -49h110l-22 -108h-111
l-84 -396h-140l85 396h-68l23 108h67l13 59c25 116 98 173 200 173c62 0 106 -33 124 -61l-76 -101s-1 5 -2 9zM970 516c72 0 115 -50 129 -95h4l17 83h141l-79 -374c-8 -39 -17 -78 -17 -103c0 -14 3 -27 3 -27h-108c-13 21 -17 42 -17 64v10h-3c-27 -42 -71 -86 -148 -86
c-108 0 -169 101 -169 211c0 154 97 317 247 317zM947 101c87 0 129 113 129 198c0 60 -27 104 -83 104c-86 0 -129 -113 -129 -198c0 -60 27 -104 83 -104zM876 629c0 48 35 85 86 85c41 0 68 -27 68 -65c0 -48 -35 -85 -86 -85c-41 0 -68 27 -68 65zM1077 629
c0 48 34 85 85 85c41 0 68 -27 68 -65c0 -48 -35 -85 -86 -85c-41 0 -67 27 -67 65z" />
    <glyph glyph-name="f_f_odieresis" unicode="ff&#xf6;" horiz-adv-x="1244" 
d="M411 576c0 34 -14 54 -45 54c-38 0 -55 -29 -64 -74l-11 -52h94l-23 -108h-94l-84 -396h-140l84 396h-77l23 108h77l13 59c25 116 97 173 203 173c74 0 119 -38 142 -76l-98 -86v2zM754 583c-6 22 -18 42 -47 42c-37 0 -52 -27 -61 -72l-11 -49h110l-22 -108h-111
l-84 -396h-140l85 396h-68l23 108h67l13 59c25 116 98 173 200 173c62 0 106 -33 124 -61l-76 -101s-1 5 -2 9zM724 202c0 169 105 314 284 314c125 0 214 -89 214 -214c0 -169 -106 -314 -284 -314c-125 0 -214 89 -214 214zM865 198c0 -59 28 -102 82 -102
c88 0 133 120 133 210c0 59 -28 102 -82 102c-89 0 -133 -120 -133 -210zM872 629c0 48 35 85 86 85c41 0 68 -27 68 -65c0 -48 -35 -85 -86 -85c-41 0 -68 27 -68 65zM1073 629c0 48 34 85 85 85c41 0 68 -27 68 -65c0 -48 -35 -85 -86 -85c-41 0 -67 27 -67 65z" />
    <glyph glyph-name="f_f_udieresis" unicode="ff&#xfc;" horiz-adv-x="1262" 
d="M411 576c0 34 -14 54 -45 54c-38 0 -55 -29 -64 -74l-11 -52h94l-23 -108h-94l-84 -396h-140l84 396h-77l23 108h77l13 59c25 116 97 173 203 173c74 0 119 -38 142 -76l-98 -86v2zM754 583c-6 22 -18 42 -47 42c-37 0 -52 -27 -61 -72l-11 -49h110l-22 -108h-111
l-84 -396h-140l85 396h-68l23 108h67l13 59c25 116 98 173 200 173c62 0 106 -33 124 -61l-76 -101s-1 5 -2 9zM756 198l65 306h141l-62 -293c-3 -16 -5 -32 -5 -45c0 -37 17 -61 58 -61c61 0 93 52 106 115l60 284h142l-107 -504h-142l27 83h-3c-32 -49 -82 -95 -159 -95
c-83 0 -130 55 -130 139c0 18 4 49 9 71zM887 629c0 48 35 85 86 85c41 0 68 -27 68 -65c0 -48 -35 -85 -86 -85c-41 0 -68 27 -68 65zM1088 629c0 48 34 85 85 85c41 0 68 -27 68 -65c0 -48 -35 -85 -86 -85c-41 0 -67 27 -67 65z" />
    <glyph glyph-name="f_f_b" unicode="ffb" horiz-adv-x="1293" 
d="M411 576c0 34 -14 54 -45 54c-38 0 -55 -29 -64 -74l-11 -52h94l-23 -108h-94l-84 -396h-140l84 396h-77l23 108h77l13 59c25 116 97 173 203 173c74 0 119 -38 142 -76l-98 -86v2zM754 583c-6 22 -18 42 -47 42c-37 0 -52 -27 -61 -72l-11 -49h110l-22 -108h-111
l-84 -396h-140l85 396h-68l23 108h67l13 59c25 116 98 173 200 173c62 0 106 -33 124 -61l-76 -101s-1 5 -2 9zM884 724h142l-37 -172c-11 -51 -36 -124 -36 -124h4c29 40 71 88 143 88c108 0 169 -101 169 -211c0 -154 -97 -317 -247 -317c-75 0 -119 52 -134 99h-3
l-19 -87h-136zM1045 403c-87 0 -129 -113 -129 -198c0 -60 27 -104 83 -104c86 0 129 113 129 198c0 60 -27 104 -83 104z" />
    <glyph glyph-name="f_f_h" unicode="ffh" horiz-adv-x="1280" 
d="M411 576c0 34 -14 54 -45 54c-38 0 -55 -29 -64 -74l-11 -52h94l-23 -108h-94l-84 -396h-140l84 396h-77l23 108h77l13 59c25 116 97 173 203 173c74 0 119 -38 142 -76l-98 -86v2zM754 583c-6 22 -18 42 -47 42c-37 0 -52 -27 -61 -72l-11 -49h110l-22 -108h-111
l-84 -396h-140l85 396h-68l23 108h67l13 59c25 116 98 173 200 173c62 0 106 -33 124 -61l-76 -101s-1 5 -2 9zM1242 306l-66 -306h-141l62 293c3 16 5 32 5 45c0 37 -21 61 -62 61c-61 0 -95 -52 -108 -115l-60 -284h-142l154 724h142l-39 -179c-11 -56 -35 -124 -35 -124
h3c32 49 84 95 161 95c83 0 134 -55 134 -139c0 -18 -3 -49 -8 -71z" />
    <glyph glyph-name="f_f_k" unicode="ffk" horiz-adv-x="1260" 
d="M411 576c0 34 -14 54 -45 54c-38 0 -55 -29 -64 -74l-11 -52h94l-23 -108h-94l-84 -396h-140l84 396h-77l23 108h77l13 59c25 116 97 173 203 173c74 0 119 -38 142 -76l-98 -86v2zM754 583c-6 22 -18 42 -47 42c-37 0 -52 -27 -61 -72l-11 -49h110l-22 -108h-111
l-84 -396h-140l85 396h-68l23 108h67l13 59c25 116 98 173 200 173c62 0 106 -33 124 -61l-76 -101s-1 5 -2 9zM1308 504l-213 -201l120 -303h-149l-81 203l-90 -90l-23 -113h-142l154 724h142l-69 -324c-13 -62 -34 -124 -34 -124h3s43 54 80 92l133 136h169z" />
    <glyph glyph-name="f_f_t" unicode="fft" horiz-adv-x="1048" 
d="M411 576c0 34 -14 54 -45 54c-38 0 -55 -29 -64 -74l-11 -52h94l-23 -108h-94l-84 -396h-140l84 396h-77l23 108h77l13 59c25 116 97 173 203 173c74 0 119 -38 142 -76l-98 -86v2zM755 576c0 34 -14 54 -45 54c-38 0 -55 -29 -64 -74l-11 -52h89l-23 -108h-89l-84 -396
h-140l84 396h-68l23 108h68l13 59c25 116 97 173 203 173c74 0 119 -38 142 -76l-98 -86v2zM970 136l36 -104c-22 -18 -68 -44 -128 -44c-76 0 -125 40 -125 109c0 14 2 34 6 52l52 247h-67l23 108h67l22 102l156 78l-38 -180h111l-22 -108h-112l-51 -239
c-1 -8 -3 -17 -3 -26c0 -19 10 -27 26 -27c22 0 37 20 47 32z" />
    <glyph glyph-name="f_f" unicode="ff" horiz-adv-x="706" 
d="M754 585c0 25 -14 45 -43 45c-38 0 -55 -29 -65 -74l-11 -52h107l-22 -108h-108l-84 -396h-140l84 396h-67l23 108h67l13 59c25 116 99 173 209 173c82 0 140 -46 161 -98l-125 -69c0 2 1 9 1 16zM411 583c0 26 -13 47 -44 47c-38 0 -55 -29 -65 -74l-11 -52h94l-23 -108
h-94l-84 -396h-140l84 396h-77l23 108h77l13 59c25 116 98 173 203 173c74 0 119 -38 142 -76l-99 -87c0 2 1 6 1 10z" />
    <glyph glyph-name="f_f_i" unicode="ffi" horiz-adv-x="980" 
d="M411 576c0 34 -14 54 -45 54c-38 0 -55 -29 -64 -74l-11 -52h94l-23 -108h-94l-84 -396h-140l84 396h-77l23 108h77l13 59c25 116 97 173 203 173c74 0 119 -38 142 -76l-98 -86v2zM754 583c-6 22 -18 42 -47 42c-37 0 -52 -27 -61 -72l-11 -49h110l-22 -108h-111
l-84 -396h-140l85 396h-68l23 108h67l13 59c25 116 98 173 200 173c62 0 106 -33 124 -61l-76 -101s-1 5 -2 9zM730 0l107 504h143l-107 -504h-143zM850 635c0 50 37 87 92 87c44 0 76 -30 76 -71c0 -50 -39 -87 -93 -87c-44 0 -75 30 -75 71z" />
    <glyph glyph-name="f_f_l" unicode="ffl" horiz-adv-x="980" 
d="M411 576c0 34 -14 54 -45 54c-38 0 -55 -29 -64 -74l-11 -52h94l-23 -108h-94l-84 -396h-140l84 396h-77l23 108h77l13 59c25 116 97 173 203 173c74 0 119 -38 142 -76l-98 -86v2zM754 583c-6 22 -18 42 -47 42c-37 0 -52 -27 -61 -72l-11 -49h110l-22 -108h-111
l-84 -396h-140l85 396h-68l23 108h67l13 59c25 116 98 173 200 173c62 0 106 -33 124 -61l-76 -101s-1 5 -2 9zM730 0l153 724h143l-153 -724h-143z" />
    <glyph glyph-name="f_i" unicode="fi" horiz-adv-x="584" 
d="M44 0l84 396h-77l23 108h77l5 23c33 153 128 209 249 209c90 0 160 -39 189 -106l-138 -75s1 3 1 9c0 35 -20 63 -63 63c-48 0 -84 -30 -100 -107l-3 -16h99l-23 -108h-99l-84 -396h-140zM333 0l107 504h143l-107 -504h-143z" />
    <glyph glyph-name="f_l" unicode="fl" horiz-adv-x="589" 
d="M339 0l114 538c3 15 4 23 4 32c0 38 -26 58 -65 58c-50 0 -81 -29 -95 -95l-6 -29h100l-23 -108h-100l-84 -396h-140l84 396h-77l23 108h76l11 49c26 122 100 183 198 183c64 0 107 -36 123 -67h3l12 55h139l-154 -724h-143z" />
    <glyph glyph-name=".notdef" 
d="M11 0l147 692h478l-147 -692h-478zM501 588h-176l95 -381zM226 479l-80 -377h174z" />
    <glyph glyph-name="space" unicode=" " horiz-adv-x="224" 
 />
    <glyph glyph-name="at" unicode="@" horiz-adv-x="847" 
d="M418 444c49 0 78 -30 90 -56h3l10 48h111l-46 -217c-2 -9 -4 -19 -4 -26c0 -22 9 -34 32 -34c75 0 104 115 104 173c0 134 -91 218 -234 218c-195 0 -341 -158 -341 -347c0 -143 96 -243 234 -243c105 0 173 38 213 88l99 -69c-53 -53 -160 -113 -320 -113
c-198 0 -334 136 -334 335c0 249 200 445 458 445c194 0 332 -126 332 -311c0 -121 -72 -261 -230 -261c-50 0 -95 17 -111 55h-2c-16 -25 -55 -55 -109 -55c-82 0 -129 69 -129 153c0 99 66 217 174 217zM406 160c58 0 86 75 86 131c0 35 -14 65 -48 65
c-58 0 -85 -75 -85 -131c0 -34 13 -65 47 -65z" />
    <glyph glyph-name="A" unicode="A" horiz-adv-x="670" 
d="M471 0l-19 158h-256l-85 -158h-156l388 692h178l94 -692h-144zM359 457l-97 -178h175l-21 178c-4 34 -8 93 -8 93h-3s-25 -55 -46 -93z" />
    <glyph glyph-name="B" unicode="B" horiz-adv-x="637" 
d="M13 0l147 692h266c128 0 223 -65 223 -169c0 -83 -60 -143 -140 -166l-1 -3c43 -15 100 -58 100 -134c0 -144 -125 -220 -291 -220h-304zM380 413c69 0 119 32 119 94c0 40 -29 65 -85 65h-134l-34 -159h134zM340 120c72 0 122 38 122 102c0 44 -27 71 -84 71h-157
l-37 -173h156z" />
    <glyph glyph-name="C" unicode="C" horiz-adv-x="658" 
d="M422 704c145 0 259 -101 259 -217v-6l-148 -80s4 17 4 37c0 75 -40 136 -126 136c-137 0 -209 -150 -209 -293c0 -96 48 -163 138 -163c98 0 155 84 169 178l127 -89c-33 -109 -144 -219 -308 -219c-172 0 -276 130 -276 292c0 224 140 424 370 424z" />
    <glyph glyph-name="D" unicode="D" horiz-adv-x="693" 
d="M292 0h-279l147 692h230c186 0 298 -123 298 -282c0 -221 -143 -410 -396 -410zM315 127c150 0 223 146 223 283c0 91 -55 155 -150 155h-108l-93 -438h128z" />
    <glyph glyph-name="E" unicode="E" horiz-adv-x="574" 
d="M13 0l147 692h471l-27 -126h-325l-32 -151h307l-27 -124h-307l-35 -165h334l-27 -126h-479z" />
    <glyph glyph-name="F" unicode="F" horiz-adv-x="550" 
d="M13 0l147 692h461l-28 -127h-313l-33 -158h295l-27 -125h-295l-60 -282h-147z" />
    <glyph glyph-name="G" unicode="G" horiz-adv-x="693" 
d="M429 704c147 0 248 -73 269 -178c1 -5 1 -8 1 -8l-146 -80v15c0 66 -47 122 -134 122c-141 0 -217 -150 -217 -294c0 -99 43 -167 137 -167c96 0 155 79 170 158v1h-198l25 122h334l-84 -395h-128l29 88h-3c-32 -46 -91 -100 -188 -100c-146 0 -244 116 -244 284
c0 232 142 432 377 432z" />
    <glyph glyph-name="H" unicode="H" horiz-adv-x="696" 
d="M435 0l61 287h-276l-61 -287h-147l147 692h147l-58 -274h275l59 274h146l-147 -692h-146z" />
    <glyph glyph-name="I" unicode="I" horiz-adv-x="275" 
d="M13 0l147 692h149l-147 -692h-149z" />
    <glyph glyph-name="J" unicode="J" horiz-adv-x="572" 
d="M46 277l163 83c-17 -46 -39 -96 -39 -157c0 -50 25 -85 79 -85c70 0 105 59 125 150l90 424h147l-90 -422c-40 -187 -129 -282 -285 -282c-130 0 -207 79 -207 198c0 42 13 82 17 91z" />
    <glyph glyph-name="K" unicode="K" horiz-adv-x="646" 
d="M13 0l147 692h146l-44 -209c-14 -64 -32 -130 -32 -130h4s54 74 113 138l195 201h183l-283 -286l158 -406h-155l-114 295l-139 -139l-33 -156h-146z" />
    <glyph glyph-name="L" unicode="L" horiz-adv-x="528" 
d="M13 0l147 692h148l-119 -561h302l-28 -131h-450z" />
    <glyph glyph-name="M" unicode="M" horiz-adv-x="854" 
d="M409 173h3s28 68 53 117l209 402h213l-147 -692h-139l79 376c14 63 33 137 33 137h-3s-30 -60 -55 -108l-212 -405h-137l-37 405c-4 48 -9 113 -9 113h-3s-13 -79 -26 -142l-80 -376h-138l147 692h207l36 -403c4 -46 6 -116 6 -116z" />
    <glyph glyph-name="N" unicode="N" horiz-adv-x="709" 
d="M595 0h-187l-114 385c-14 47 -34 136 -34 136l-3 -1c-1 -3 -13 -84 -27 -147l-79 -373h-138l147 692h187l114 -385c14 -47 37 -136 37 -136h3s11 84 25 148l79 373h137z" />
    <glyph glyph-name="O" unicode="O" horiz-adv-x="710" 
d="M332 -12c-174 0 -280 130 -280 292c0 224 142 424 373 424c174 0 281 -130 281 -292c0 -224 -142 -424 -374 -424zM202 281c0 -96 50 -163 141 -163c139 0 213 150 213 293c0 96 -51 163 -142 163c-138 0 -212 -150 -212 -293z" />
    <glyph glyph-name="P" unicode="P" horiz-adv-x="631" 
d="M13 0l147 692h279c135 0 232 -75 232 -193c0 -148 -122 -241 -295 -241h-162l-54 -258h-147zM395 384c74 0 127 40 127 106c0 49 -33 76 -93 76h-149l-38 -182h153z" />
    <glyph glyph-name="Q" unicode="Q" horiz-adv-x="712" 
d="M332 -12c-175 0 -280 130 -280 292c0 224 143 424 374 424c174 0 280 -130 280 -292c0 -155 -73 -296 -196 -366l1 -2c8 3 16 5 30 5c60 0 116 -24 147 -72l-120 -101c-27 58 -92 112 -236 112zM202 281c0 -96 50 -163 141 -163c139 0 213 150 213 293
c0 96 -51 163 -142 163c-138 0 -212 -150 -212 -293z" />
    <glyph glyph-name="R" unicode="R" horiz-adv-x="641" 
d="M13 0l147 692h274c135 0 232 -73 232 -190c0 -112 -73 -189 -185 -219l96 -283h-149l-89 270h-123l-57 -270h-146zM390 391c74 0 127 38 127 104c0 49 -33 74 -93 74h-144l-38 -178h148z" />
    <glyph glyph-name="S" unicode="S" horiz-adv-x="614" 
d="M437 196c0 55 -82 84 -168 116c-84 31 -167 89 -167 183c0 130 115 209 254 209c135 0 252 -75 283 -188l-136 -77v4c0 71 -62 140 -152 140c-53 0 -102 -26 -102 -75c0 -55 82 -70 166 -107c91 -40 168 -88 168 -189c0 -136 -116 -224 -265 -224
c-159 0 -284 84 -303 217l138 77v-7c0 -86 64 -166 171 -166c62 0 113 30 113 87z" />
    <glyph glyph-name="T" unicode="T" horiz-adv-x="564" 
d="M76 561l27 131h552l-28 -131h-202l-119 -561h-148l119 561h-201z" />
    <glyph glyph-name="U" unicode="U" horiz-adv-x="679" 
d="M630 281c-44 -196 -142 -293 -329 -293c-142 0 -240 89 -240 221c0 32 4 62 11 95l83 388h146l-87 -409c-5 -24 -7 -43 -7 -62c0 -66 37 -103 109 -103c97 0 146 57 167 157l88 417h147z" />
    <glyph glyph-name="V" unicode="V" horiz-adv-x="650" 
d="M252 692l41 -434c4 -40 7 -106 7 -106h3s28 67 48 106l226 434h164l-378 -692h-178l-84 692h151z" />
    <glyph glyph-name="W" unicode="W" horiz-adv-x="857" 
d="M600 692l-3 -422c0 -40 -5 -102 -5 -116h3s17 65 32 107l158 431h158l-278 -692h-181l2 397c0 50 4 107 5 121h-4s-21 -65 -45 -121l-169 -397h-181l19 692h150l-27 -431c-3 -42 -10 -107 -10 -107h3s24 75 41 116l177 422h155z" />
    <glyph glyph-name="X" unicode="X" horiz-adv-x="636" 
d="M323 266h-3s-30 -49 -61 -90l-134 -176h-167l290 367l-131 325h156l58 -156c16 -42 31 -88 31 -88h3s29 45 60 87l120 157h164l-274 -347l145 -345h-154l-73 179c-16 40 -30 87 -30 87z" />
    <glyph glyph-name="Y" unicode="Y" horiz-adv-x="608" 
d="M185 0l53 254l-145 438h154l64 -213c14 -46 23 -91 23 -91h3s25 42 58 90l150 214h166l-323 -434l-55 -258h-148z" />
    <glyph glyph-name="Z" unicode="Z" horiz-adv-x="575" 
d="M-24 0l19 90l415 472h-308l28 130h513l-21 -96l-410 -466h319l-27 -130h-528z" />
    <glyph glyph-name="ampersand" unicode="&#x26;" horiz-adv-x="674" 
d="M351 343c21 -57 49 -110 79 -153c47 55 81 126 105 217l112 -71c-37 -83 -87 -153 -152 -214c12 -11 26 -19 46 -19c24 0 41 18 49 33l38 -107c-25 -20 -67 -41 -116 -41c-55 0 -91 23 -117 48c-48 -28 -104 -48 -169 -48c-130 0 -211 63 -211 159c0 110 90 180 188 231
c-7 33 -11 65 -11 95c0 126 83 231 223 231c91 0 155 -52 155 -128c0 -111 -122 -179 -219 -233zM328 109c-39 52 -73 114 -97 178c-39 -30 -70 -66 -70 -113c0 -52 39 -82 95 -82c26 0 50 7 72 17zM324 483c0 -19 1 -39 5 -58c53 29 124 74 124 128c0 28 -19 47 -47 47
c-55 0 -82 -61 -82 -117z" />
    <glyph glyph-name="AE" unicode="&#xc6;" horiz-adv-x="886" 
d="M380 0l34 161h-195l-111 -161h-168l490 692h513l-26 -123h-274l-33 -156h256l-26 -121h-255l-37 -169h282l-26 -123h-424zM443 483l-142 -204h138l62 290h-4s-26 -46 -54 -86z" />
    <glyph glyph-name="OE" unicode="&#x152;" horiz-adv-x="903" 
d="M426 704c35 0 71 -4 104 -12h430l-26 -123h-274l-33 -156h255l-25 -121h-256l-36 -169h282l-26 -123h-413c-26 -7 -53 -12 -81 -12c-172 0 -275 130 -275 292c0 224 143 424 374 424zM515 556c-24 14 -56 23 -97 23c-139 -1 -217 -156 -217 -298c0 -96 50 -168 142 -168
c31 0 57 6 81 18z" />
    <glyph glyph-name="Eth" unicode="&#xd0;" horiz-adv-x="743" 
d="M342 0h-279l63 300h-90l23 105h90l61 287h233c184 0 295 -122 295 -281c0 -221 -143 -411 -396 -411zM365 126c149 0 223 147 223 284c0 91 -56 156 -150 156h-111l-35 -161h144l-23 -105h-143l-37 -174h132z" />
    <glyph glyph-name="Dcroat" unicode="&#x110;" horiz-adv-x="743" 
d="M342 0h-279l63 300h-90l23 105h90l61 287h233c184 0 295 -122 295 -281c0 -221 -143 -411 -396 -411zM365 126c149 0 223 147 223 284c0 91 -56 156 -150 156h-111l-35 -161h144l-23 -105h-143l-37 -174h132z" />
    <glyph glyph-name="Hbar" unicode="&#x126;" horiz-adv-x="789" 
d="M819 488h-88l-103 -488h-143l58 278h-282l-58 -278h-144l103 488h-85l22 105h86l21 99h144l-22 -99h283l21 99h143l-21 -99h87zM288 403h283l18 85h-283z" />
    <glyph glyph-name="IJ" unicode="&#x132;" horiz-adv-x="596" 
d="M65 270l90 422h146l-89 -422h-147zM61 165l143 56c-1 -5 -4 -20 -4 -35c0 -40 27 -69 78 -69c67 0 102 60 119 141l91 434h147l-89 -419c-42 -197 -133 -285 -285 -285c-127 0 -201 75 -201 166c0 5 1 11 1 11z" />
    <glyph glyph-name="Lslash" unicode="&#x141;" horiz-adv-x="586" 
d="M70 0l47 223l-76 -33l-41 106l146 64l71 332h144l-56 -263l144 63l41 -105l-214 -94l-35 -164h306l-27 -129h-450z" />
    <glyph glyph-name="Ldot" unicode="&#x13f;" horiz-adv-x="532" 
d="M304 344c0 50 37 87 92 87c44 0 76 -30 76 -71c0 -50 -39 -87 -93 -87c-44 0 -75 30 -75 71zM13 0l147 692h148l-119 -561h302l-28 -131h-450z" />
    <glyph glyph-name="Lcaron" unicode="&#x13d;" horiz-adv-x="540" 
d="M13 0l147 692h148l-119 -561h302l-28 -131h-450zM367 537c34 3 79 12 96 55h-10c-28 0 -51 17 -51 48c0 40 32 65 73 65c44 0 64 -35 64 -72c0 -75 -40 -128 -100 -146z" />
    <glyph glyph-name="Eng" unicode="&#x14a;" horiz-adv-x="721" 
d="M176 -92l128 83c4 -35 16 -77 64 -77c45 0 75 35 89 90l-149 394c-17 44 -47 133 -47 133l-3 -1c-1 -3 -11 -84 -25 -147l-82 -383h-138l147 692h181l130 -338c19 -49 39 -112 39 -112h3s14 82 27 146l65 304h137l-140 -657c-36 -169 -114 -244 -248 -244
c-84 0 -159 51 -178 117z" />
    <glyph glyph-name="Oslash" unicode="&#xd8;" horiz-adv-x="725" 
d="M338 -12c-67 0 -123 18 -168 51l-69 -72l-86 86l77 80c-21 43 -33 93 -33 147c0 224 142 424 373 424c66 0 122 -19 166 -51l71 72l86 -85l-78 -81c22 -43 34 -93 34 -147c0 -224 -142 -424 -373 -424zM201 282c0 -17 1 -33 4 -48l306 321c-23 17 -52 27 -88 27
c-142 0 -222 -154 -222 -300zM259 136c22 -17 52 -26 88 -26c141 0 221 154 221 300c0 16 -1 32 -4 46z" />
    <glyph glyph-name="Tbar" unicode="&#x166;" horiz-adv-x="575" 
d="M82 563l27 129h551l-27 -129h-202l-38 -179h118l-23 -105h-118l-59 -279h-148l59 279h-116l22 105h117l38 179h-201z" />
    <glyph glyph-name="Thorn" unicode="&#xde;" horiz-adv-x="631" 
d="M13 0l147 692h147l-22 -104h132c135 0 232 -75 232 -193c0 -148 -123 -241 -296 -241h-160l-33 -154h-147zM373 281c74 0 127 39 127 105c0 49 -34 76 -94 76h-148l-38 -181h153z" />
    <glyph glyph-name="Uogonek" unicode="&#x172;" horiz-adv-x="679" 
d="M630 281c-44 -196 -127 -233 -176 -271c-30 -22 -102 -69 -102 -110c0 -17 13 -27 29 -27c26 0 45 21 53 46l81 -55c-26 -40 -77 -72 -147 -72c-63 0 -113 36 -113 86c0 46 36 82 77 109v3c-10 -1 -20 -2 -31 -2c-142 0 -240 89 -240 221c0 32 4 62 11 95l83 388h146
l-87 -409c-5 -24 -7 -43 -7 -62c0 -66 37 -103 109 -103c97 0 146 57 167 157l88 417h147z" />
    <glyph glyph-name="a" unicode="a" horiz-adv-x="569" 
d="M278 516c72 0 115 -50 129 -95h4l17 83h141l-79 -374c-8 -39 -17 -78 -17 -103c0 -14 3 -27 3 -27h-108c-13 21 -17 42 -17 64v10h-3c-27 -42 -71 -86 -148 -86c-108 0 -169 101 -169 211c0 154 97 317 247 317zM255 101c87 0 129 113 129 198c0 60 -27 104 -83 104
c-86 0 -129 -113 -129 -198c0 -60 27 -104 83 -104z" />
    <glyph glyph-name="b" unicode="b" horiz-adv-x="572" 
d="M162 724h142l-37 -172c-11 -51 -36 -124 -36 -124h4c29 40 71 88 143 88c108 0 169 -101 169 -211c0 -154 -97 -317 -247 -317c-75 0 -119 52 -134 99h-3l-19 -87h-136zM323 403c-87 0 -129 -113 -129 -198c0 -60 27 -104 83 -104c86 0 129 113 129 198
c0 60 -27 104 -83 104z" />
    <glyph glyph-name="c" unicode="c" horiz-adv-x="511" 
d="M300 408c-87 0 -128 -119 -128 -209c0 -59 23 -103 79 -103c61 0 96 61 102 124l122 -69c-22 -75 -110 -163 -235 -163c-126 0 -209 91 -209 214c0 169 103 314 280 314c114 0 196 -74 196 -166v-2l-139 -63c1 6 6 24 6 47c0 41 -24 76 -74 76z" />
    <glyph glyph-name="d" unicode="d" horiz-adv-x="571" 
d="M347 76h-4c-29 -40 -71 -88 -143 -88c-108 0 -169 101 -169 211c0 154 97 317 247 317c72 0 116 -50 130 -95h3l64 303h142l-154 -724h-141zM255 101c87 0 129 113 129 198c0 60 -27 104 -83 104c-86 0 -129 -113 -129 -198c0 -60 27 -104 83 -104z" />
    <glyph glyph-name="e" unicode="e" horiz-adv-x="528" 
d="M484 214h-323v-18c0 -64 28 -104 90 -104c57 0 90 36 105 84l116 -70c-42 -70 -129 -118 -224 -118c-137 0 -216 83 -216 216c0 168 104 312 284 312c118 0 197 -73 197 -186c0 -45 -14 -84 -29 -116zM305 414c-61 0 -101 -49 -123 -106h201c1 6 3 14 3 27
c0 45 -27 79 -81 79z" />
    <glyph glyph-name="f" unicode="f" horiz-adv-x="363" 
d="M410 585c0 25 -14 45 -43 45c-38 0 -55 -29 -65 -74l-11 -52h107l-23 -108h-107l-84 -396h-140l84 396h-77l23 108h77l13 59c25 116 99 173 208 173c83 0 141 -46 162 -98l-125 -69c0 2 1 9 1 16z" />
    <glyph glyph-name="g" unicode="g" horiz-adv-x="540" 
d="M63 25l1 3c-28 10 -55 35 -55 70c0 66 73 100 134 108l1 3c-37 20 -71 65 -71 121c0 117 106 186 225 186c46 0 80 -9 116 -9c62 0 65 62 67 110l116 -74c-10 -53 -46 -97 -105 -97c-14 0 -31 2 -39 5l-1 -3c21 -19 42 -54 42 -100c0 -116 -125 -179 -237 -179
c-52 0 -119 -12 -119 -48c0 -18 19 -26 51 -26c42 0 82 7 135 7c98 0 167 -44 167 -120c0 -150 -169 -186 -313 -186c-134 0 -241 41 -241 118c0 66 65 101 126 111zM240 -10c-69 0 -179 -6 -179 -59c0 -32 54 -45 126 -45c54 0 163 9 163 64c0 35 -47 40 -110 40zM295 421
c-52 0 -97 -34 -97 -90c0 -44 34 -68 76 -68c52 0 96 34 96 90c0 44 -33 68 -75 68z" />
    <glyph glyph-name="h" unicode="h" horiz-adv-x="559" 
d="M520 306l-66 -306h-141l62 293c3 16 5 32 5 45c0 37 -21 61 -62 61c-61 0 -95 -52 -108 -115l-60 -284h-142l154 724h142l-39 -179c-11 -56 -35 -124 -35 -124h3c32 49 84 95 161 95c83 0 134 -55 134 -139c0 -18 -3 -49 -8 -71z" />
    <glyph glyph-name="i" unicode="i" horiz-adv-x="258" 
d="M8 0l107 504h143l-107 -504h-143zM127 635c0 50 37 87 92 87c44 0 76 -30 76 -71c0 -50 -39 -87 -93 -87c-44 0 -75 30 -75 71z" />
    <glyph glyph-name="j" unicode="j" horiz-adv-x="266" 
d="M-29 -208l-110 96c91 14 140 46 163 153l98 463h143l-105 -497c-26 -121 -85 -196 -189 -215zM135 635c0 50 37 87 92 87c44 0 76 -30 76 -71c0 -50 -39 -87 -93 -87c-44 0 -75 30 -75 71z" />
    <glyph glyph-name="k" unicode="k" horiz-adv-x="538" 
d="M586 504l-213 -201l120 -303h-149l-81 203l-90 -90l-23 -113h-142l154 724h142l-69 -324c-13 -62 -34 -124 -34 -124h3s43 54 80 92l133 136h169z" />
    <glyph glyph-name="l" unicode="l" horiz-adv-x="258" 
d="M8 0l153 724h143l-153 -724h-143z" />
    <glyph glyph-name="m" unicode="m" horiz-adv-x="828" 
d="M788 306l-65 -306h-139l62 293c3 16 6 32 6 45c0 37 -18 61 -56 61c-58 0 -87 -52 -101 -115l-60 -284h-139l62 293c3 16 6 32 6 45c0 37 -18 61 -56 61c-58 0 -87 -52 -101 -115l-60 -284h-139l107 504h140l-27 -83h4c32 49 79 95 155 95c64 0 104 -37 118 -93h3
c31 49 77 93 159 93c85 0 130 -55 130 -139c0 -18 -4 -49 -9 -71z" />
    <glyph glyph-name="n" unicode="n" horiz-adv-x="559" 
d="M520 306l-66 -306h-141l62 293c3 16 5 32 5 45c0 37 -21 61 -62 61c-61 0 -95 -52 -108 -115l-60 -284h-142l107 504h142l-27 -83h3c32 49 84 95 161 95c83 0 134 -55 134 -139c0 -18 -3 -49 -8 -71z" />
    <glyph glyph-name="o" unicode="o" horiz-adv-x="551" 
d="M31 202c0 169 105 314 284 314c125 0 214 -89 214 -214c0 -169 -106 -314 -284 -314c-125 0 -214 89 -214 214zM172 198c0 -59 28 -102 82 -102c88 0 133 120 133 210c0 59 -28 102 -82 102c-89 0 -133 -120 -133 -210z" />
    <glyph glyph-name="p" unicode="p" horiz-adv-x="572" 
d="M231 428h4c29 40 71 88 143 88c108 0 169 -101 169 -211c0 -154 -97 -317 -247 -317c-72 0 -116 50 -130 95h-4l-58 -279h-142l149 700h141zM323 403c-87 0 -129 -113 -129 -198c0 -60 27 -104 83 -104c86 0 129 113 129 198c0 60 -27 104 -83 104z" />
    <glyph glyph-name="q" unicode="q" horiz-adv-x="572" 
d="M416 420l18 84h137l-149 -700h-142l33 152c13 63 34 120 34 120h-4c-29 -40 -71 -88 -143 -88c-108 0 -169 101 -169 211c0 154 97 317 247 317c75 0 120 -51 135 -96h3zM255 101c87 0 129 113 129 198c0 60 -27 104 -83 104c-86 0 -129 -113 -129 -198
c0 -60 27 -104 83 -104z" />
    <glyph glyph-name="r" unicode="r" horiz-adv-x="445" 
d="M8 0l107 504h142l-27 -83h3c31 49 80 93 140 93c58 0 90 -42 90 -100c0 -39 -11 -71 -20 -94l-143 -73c16 36 30 75 30 110c0 23 -11 39 -35 39c-44 0 -72 -51 -86 -118l-59 -278h-142z" />
    <glyph glyph-name="s" unicode="s" horiz-adv-x="504" 
d="M127 188c14 -61 53 -97 117 -97c38 0 73 18 73 52c0 39 -58 52 -115 71c-64 22 -132 57 -132 137c0 105 102 165 210 165c107 0 186 -46 224 -123l-122 -61c-10 50 -51 81 -105 81c-34 0 -66 -16 -66 -47c0 -34 58 -42 124 -68c64 -26 123 -57 123 -140
c0 -105 -104 -170 -216 -170c-124 0 -209 53 -238 138z" />
    <glyph glyph-name="t" unicode="t" horiz-adv-x="362" 
d="M283 136l36 -104c-22 -18 -68 -44 -127 -44c-77 0 -126 40 -126 109c0 14 2 34 6 52l53 247h-82l23 108h81l22 102l156 78l-38 -180h112l-23 -108h-112l-51 -239c-1 -8 -3 -17 -3 -26c0 -19 11 -27 26 -27c23 0 37 20 47 32z" />
    <glyph glyph-name="u" unicode="u" horiz-adv-x="553" 
d="M47 198l65 306h141l-62 -293c-3 -16 -5 -32 -5 -45c0 -37 17 -61 58 -61c61 0 93 52 106 115l60 284h142l-107 -504h-142l27 83h-3c-32 -49 -82 -95 -159 -95c-83 0 -130 55 -130 139c0 18 4 49 9 71z" />
    <glyph glyph-name="v" unicode="v" horiz-adv-x="498" 
d="M113 0l-58 504h144l15 -220c4 -57 6 -151 6 -151h4s36 88 66 151l107 220h150l-266 -504h-168z" />
    <glyph glyph-name="w" unicode="w" horiz-adv-x="746" 
d="M403 375c0 0 -35 -85 -62 -147l-96 -228h-173l2 504h140l-9 -183c-4 -70 -12 -187 -12 -187h3s44 118 74 187l80 183h158l1 -183c0 -69 -4 -187 -4 -187h3s42 117 68 187l68 183h142l-212 -504h-167v228c0 63 -1 147 -1 147h-3z" />
    <glyph glyph-name="x" unicode="x" horiz-adv-x="499" 
d="M267 319c0 0 19 37 54 88l66 97h158l-193 -253l97 -251h-149l-37 106c-16 47 -22 83 -22 83h-4s-15 -34 -50 -82l-78 -107h-159l202 260l-84 244h148l25 -93c14 -51 23 -92 23 -92h3z" />
    <glyph glyph-name="y" unicode="y" horiz-adv-x="495" 
d="M231 159h3s32 80 62 141l101 204h153l-286 -529c-41 -74 -91 -160 -182 -183l-110 96c64 14 119 42 153 105l9 16l-75 495h146l17 -200c5 -56 9 -145 9 -145z" />
    <glyph glyph-name="z" unicode="z" horiz-adv-x="479" 
d="M73 396l23 108h400l-17 -79l-286 -317h230l-23 -108h-415l17 79l286 317h-215z" />
    <glyph glyph-name="ae" unicode="&#xe6;" horiz-adv-x="844" 
d="M795 214h-312v-23c0 -63 35 -99 86 -99c57 0 82 36 98 84l114 -69c-33 -65 -96 -119 -192 -119c-59 0 -104 26 -126 73h-3l-13 -62h-136l13 62h-3c-24 -38 -62 -73 -128 -73c-102 0 -162 101 -162 211c0 154 92 317 237 317c67 0 107 -36 127 -87h3l16 74h136l-12 -56h4
c33 41 76 69 130 69c92 0 152 -73 152 -167c0 -47 -10 -91 -29 -135zM248 101c84 0 122 113 122 198c0 60 -23 104 -76 104c-83 0 -122 -113 -122 -198c0 -60 24 -104 76 -104zM621 414c-59 0 -96 -49 -117 -106h188c0 5 3 17 3 30c0 43 -23 76 -74 76z" />
    <glyph glyph-name="oe" unicode="&#x153;" horiz-adv-x="836" 
d="M31 202c0 169 101 314 268 314c67 0 119 -30 152 -79c43 49 103 79 180 79c117 0 191 -73 191 -186c0 -45 -14 -84 -29 -116h-309v-18c0 -64 23 -104 83 -104c55 0 83 36 98 84l116 -70c-42 -70 -124 -118 -217 -118c-72 0 -125 27 -157 76c-42 -47 -101 -76 -173 -76
c-119 0 -203 89 -203 214zM172 198c0 -59 25 -102 76 -102c81 0 122 120 122 210c0 59 -25 102 -76 102c-81 0 -122 -120 -122 -210zM621 414c-60 0 -97 -49 -118 -106h188c1 6 3 14 3 27c0 45 -21 79 -73 79z" />
    <glyph glyph-name="germandbls" unicode="&#xdf;" horiz-adv-x="570" 
d="M304 353l22 104c61 17 107 54 107 107c0 40 -25 64 -68 64c-52 0 -90 -36 -106 -110l-109 -518h-142l110 517c33 158 125 219 260 219c109 0 190 -65 190 -150c0 -80 -60 -138 -133 -161l-1 -3c54 -23 107 -75 107 -166c0 -148 -93 -268 -226 -268c-63 0 -110 24 -130 50
l63 101c7 -14 25 -38 56 -38c69 0 97 93 97 156c0 57 -32 93 -97 96z" />
    <glyph glyph-name="dotlessi" unicode="&#x131;" horiz-adv-x="258" 
d="M8 0l107 504h143l-107 -504h-143z" />
    <glyph glyph-name="dotlessj" unicode="&#xf6be;" horiz-adv-x="268" 
d="M-27 -208l-110 96c91 14 140 46 163 153l98 463h143l-105 -497c-26 -121 -85 -196 -189 -215z" />
    <glyph glyph-name="eth" unicode="&#xf0;" horiz-adv-x="562" 
d="M570 637l-84 -42c38 -56 61 -125 61 -204c0 -193 -91 -403 -304 -403c-128 0 -216 87 -216 208c0 140 99 270 252 270c62 0 117 -34 141 -77l4 1c-1 57 -19 108 -51 149l-110 -55l-53 81l92 47c-28 20 -59 38 -88 53l119 71c31 -17 62 -39 89 -63l94 48zM295 360
c-83 0 -130 -84 -130 -162c0 -62 32 -101 93 -101c84 0 131 87 131 166c0 61 -33 97 -94 97z" />
    <glyph glyph-name="dcroat" unicode="&#x111;" horiz-adv-x="590" 
d="M347 76h-4c-29 -40 -71 -88 -143 -88c-108 0 -169 101 -169 211c0 154 97 317 247 317c72 0 116 -50 130 -95h3l27 127h-101l21 97h101l17 79h138l-17 -79h85l-21 -97h-85l-116 -548h-138zM255 101c87 0 129 113 129 198c0 60 -27 104 -83 104c-86 0 -129 -113 -129 -198
c0 -60 27 -104 83 -104z" />
    <glyph glyph-name="dcaron" unicode="&#x10f;" horiz-adv-x="738" 
d="M347 76h-4c-29 -40 -71 -88 -143 -88c-108 0 -169 101 -169 211c0 154 97 317 247 317c72 0 116 -50 130 -95h3l64 303h142l-154 -724h-141zM255 101c87 0 129 113 129 198c0 60 -27 104 -83 104c-86 0 -129 -113 -129 -198c0 -60 27 -104 83 -104zM639 571
c34 3 79 12 96 55h-10c-28 0 -51 17 -51 48c0 40 32 65 73 65c44 0 64 -35 64 -72c0 -75 -40 -128 -100 -146z" />
    <glyph glyph-name="hbar" unicode="&#x127;" horiz-adv-x="559" 
d="M397 645l-20 -97h-111v-3c-11 -56 -32 -124 -32 -124h3c32 49 84 95 161 95c83 0 134 -55 134 -139c0 -18 -3 -49 -8 -71l-66 -306h-141l62 293c3 16 5 32 5 45c0 37 -21 61 -62 61c-61 0 -95 -52 -108 -115l-60 -284h-142l116 548h-75l21 97h75l17 79h138l-17 -79h110z
" />
    <glyph glyph-name="ij" unicode="&#x133;" horiz-adv-x="516" 
d="M8 0l107 504h143l-107 -504h-143zM221 -208l-110 96c91 14 140 46 163 153l98 463h143l-105 -497c-26 -121 -85 -196 -189 -215zM128 635c0 50 37 87 92 87c44 0 76 -30 76 -71c0 -50 -39 -87 -93 -87c-44 0 -75 30 -75 71zM385 635c0 50 37 87 92 87c44 0 76 -30 76 -71
c0 -50 -39 -87 -93 -87c-44 0 -75 30 -75 71z" />
    <glyph glyph-name="lslash" unicode="&#x142;" horiz-adv-x="403" 
d="M438 368l-156 -67l-64 -301h-139l50 235l-81 -35l-40 100l148 64l77 360h139l-63 -293l88 38z" />
    <glyph glyph-name="ldot" unicode="&#x140;" horiz-adv-x="457" 
d="M8 0l153 724h143l-153 -724h-143zM281 297c0 50 37 87 92 87c44 0 76 -30 76 -71c0 -50 -39 -87 -93 -87c-44 0 -75 30 -75 71z" />
    <glyph glyph-name="lcaron" unicode="&#x13e;" horiz-adv-x="426" 
d="M8 0l153 724h143l-153 -724h-143zM322 571c34 3 79 12 96 55h-10c-28 0 -51 17 -51 48c0 40 32 65 73 65c44 0 64 -35 64 -72c0 -75 -40 -128 -100 -146z" />
    <glyph glyph-name="eng" unicode="&#x14b;" horiz-adv-x="548" 
d="M267 -208l-109 96c90 14 141 46 164 153l53 252c3 16 5 32 5 45c0 37 -21 61 -62 61c-61 0 -95 -52 -108 -115l-60 -284h-142l107 504h142l-27 -83h3c32 49 84 95 161 95c83 0 134 -55 134 -139c0 -18 -3 -49 -8 -71l-64 -299c-26 -121 -85 -196 -189 -215z" />
    <glyph glyph-name="oslash" unicode="&#xf8;" horiz-adv-x="563" 
d="M77 -37l-79 80l60 59c-14 29 -21 63 -21 100c0 169 106 314 281 314c45 0 85 -12 118 -32l56 58l79 -80l-60 -60c14 -30 22 -63 22 -100c0 -169 -105 -314 -281 -314c-45 0 -86 12 -119 31zM166 198v-4l199 204c-14 9 -33 15 -57 15c-98 0 -142 -123 -142 -215zM204 106
c14 -10 33 -15 58 -15c97 0 142 123 142 215v3z" />
    <glyph glyph-name="longs" unicode="&#x17f;" horiz-adv-x="265" 
d="M374 585c0 25 -14 45 -42 45c-38 0 -54 -29 -63 -74l-119 -556h-142l119 563c25 116 99 173 209 173c82 0 141 -46 161 -98l-125 -69c1 2 2 9 2 16z" />
    <glyph glyph-name="thorn" unicode="&#xfe;" horiz-adv-x="572" 
d="M265 545c-13 -63 -34 -117 -34 -117h4c29 40 71 88 143 88c108 0 169 -101 169 -211c0 -154 -97 -317 -247 -317c-72 0 -116 50 -130 95h-3l-59 -279h-142l196 920h142zM323 403c-87 0 -129 -113 -129 -198c0 -60 27 -104 83 -104c86 0 129 113 129 198
c0 60 -27 104 -83 104z" />
    <glyph glyph-name="tcaron" unicode="&#x165;" horiz-adv-x="507" 
d="M283 136l36 -104c-22 -18 -68 -44 -127 -44c-77 0 -126 40 -126 109c0 14 2 34 6 52l53 247h-82l23 108h81l22 102l156 78l-38 -180h112l-23 -108h-112l-51 -239c-1 -8 -3 -17 -3 -26c0 -19 11 -27 26 -27c23 0 37 20 47 32zM425 554c34 3 79 12 96 55h-10
c-28 0 -51 17 -51 48c0 40 32 65 73 65c44 0 64 -35 64 -72c0 -75 -40 -128 -100 -146z" />
    <glyph glyph-name="tbar" unicode="&#x167;" horiz-adv-x="397" 
d="M24 227l21 97h88l16 74h-81l23 106h81l22 102l153 78l-38 -180h114l-22 -106h-115l-16 -74h123l-22 -97h-121l-15 -70c-2 -8 -4 -17 -4 -26c0 -19 13 -27 29 -27c23 0 38 20 48 32l36 -104c-22 -18 -68 -44 -128 -44c-76 0 -125 40 -125 109c0 14 2 34 6 52l16 78h-89z
" />
    <glyph glyph-name="eogonek" unicode="&#x119;" horiz-adv-x="528" 
d="M165 -123c0 50 42 82 76 108v3c-133 3 -210 85 -210 216c0 168 105 312 285 312c118 0 198 -73 198 -186c0 -45 -15 -84 -29 -116h-324v-18c0 -64 28 -104 90 -104c57 0 90 36 105 84l4 -3v2l113 -69c-26 -42 -60 -67 -104 -94c-39 -25 -107 -71 -107 -113
c0 -16 12 -26 29 -26c25 0 44 19 52 43l79 -57c-27 -39 -79 -67 -143 -67s-114 36 -114 85zM305 414c-61 0 -101 -49 -123 -106h201c1 6 3 14 3 27c0 45 -27 79 -81 79z" />
    <glyph glyph-name="uniFB00" unicode="&#xfb00;" horiz-adv-x="706" 
d="M754 585c0 25 -14 45 -43 45c-38 0 -55 -29 -65 -74l-11 -52h107l-22 -108h-108l-84 -396h-140l84 396h-67l23 108h67l13 59c25 116 99 173 209 173c82 0 140 -46 161 -98l-125 -69c0 2 1 9 1 16zM411 583c0 26 -13 47 -44 47c-38 0 -55 -29 -65 -74l-11 -52h94l-23 -108
h-94l-84 -396h-140l84 396h-77l23 108h77l13 59c25 116 98 173 203 173c74 0 119 -38 142 -76l-99 -87c0 2 1 6 1 10z" />
    <glyph glyph-name="fi" unicode="&#xfb01;" horiz-adv-x="584" 
d="M44 0l84 396h-77l23 108h77l5 23c33 153 128 209 249 209c90 0 160 -39 189 -106l-138 -75s1 3 1 9c0 35 -20 63 -63 63c-48 0 -84 -30 -100 -107l-3 -16h99l-23 -108h-99l-84 -396h-140zM333 0l107 504h143l-107 -504h-143z" />
    <glyph glyph-name="fl" unicode="&#xfb02;" horiz-adv-x="589" 
d="M339 0l114 538c3 15 4 23 4 32c0 38 -26 58 -65 58c-50 0 -81 -29 -95 -95l-6 -29h100l-23 -108h-100l-84 -396h-140l84 396h-77l23 108h76l11 49c26 122 100 183 198 183c64 0 107 -36 123 -67h3l12 55h139l-154 -724h-143z" />
    <glyph glyph-name="uniFB03" unicode="&#xfb03;" horiz-adv-x="980" 
d="M411 576c0 34 -14 54 -45 54c-38 0 -55 -29 -64 -74l-11 -52h94l-23 -108h-94l-84 -396h-140l84 396h-77l23 108h77l13 59c25 116 97 173 203 173c74 0 119 -38 142 -76l-98 -86v2zM754 583c-6 22 -18 42 -47 42c-37 0 -52 -27 -61 -72l-11 -49h110l-22 -108h-111
l-84 -396h-140l85 396h-68l23 108h67l13 59c25 116 98 173 200 173c62 0 106 -33 124 -61l-76 -101s-1 5 -2 9zM730 0l107 504h143l-107 -504h-143zM849 635c0 50 37 87 92 87c44 0 76 -30 76 -71c0 -50 -39 -87 -93 -87c-44 0 -75 30 -75 71z" />
    <glyph glyph-name="uniFB04" unicode="&#xfb04;" horiz-adv-x="980" 
d="M411 576c0 34 -14 54 -45 54c-38 0 -55 -29 -64 -74l-11 -52h94l-23 -108h-94l-84 -396h-140l84 396h-77l23 108h77l13 59c25 116 97 173 203 173c74 0 119 -38 142 -76l-98 -86v2zM754 583c-6 22 -18 42 -47 42c-37 0 -52 -27 -61 -72l-11 -49h110l-22 -108h-111
l-84 -396h-140l85 396h-68l23 108h67l13 59c25 116 98 173 200 173c62 0 106 -33 124 -61l-76 -101s-1 5 -2 9zM730 0l153 724h143l-153 -724h-143z" />
    <glyph glyph-name="t_f" horiz-adv-x="716" 
d="M283 136l36 -104c-22 -18 -68 -44 -127 -44c-77 0 -126 40 -126 109c0 14 2 34 6 52l53 247h-82l23 108h81l22 102l156 78l-38 -180h102l-23 -108h-102l-51 -239c-1 -8 -3 -17 -3 -26c0 -19 11 -27 26 -27c23 0 37 20 47 32zM763 585c0 25 -14 45 -43 45
c-37 0 -55 -29 -65 -74l-11 -52h110l-22 -108h-111l-84 -396h-140l85 396h-69l23 108h68l13 59c25 116 99 173 209 173c82 0 140 -46 161 -98l-125 -69c0 2 1 9 1 16z" />
    <glyph glyph-name="grave" unicode="`" horiz-adv-x="551" 
d="M415 594l-67 -43c-56 28 -121 81 -154 140l109 73c20 -54 63 -124 112 -170z" />
    <glyph glyph-name="acute" unicode="&#xb4;" horiz-adv-x="551" 
d="M338 551l-54 53c66 45 118 104 151 160l92 -89c-45 -52 -120 -100 -189 -124z" />
    <glyph glyph-name="hungarumlaut" unicode="&#x2dd;" horiz-adv-x="551" 
d="M244 551l-50 49c62 48 105 109 137 166l89 -82c-43 -54 -110 -106 -176 -133zM438 551l-51 49c62 48 108 109 139 166l89 -82c-42 -54 -111 -106 -177 -133z" />
    <glyph glyph-name="dotaccent" unicode="&#x2d9;" horiz-adv-x="551" 
d="M274 635c0 50 37 87 92 87c44 0 76 -30 76 -71c0 -50 -39 -87 -93 -87c-44 0 -75 30 -75 71z" />
    <glyph glyph-name="dieresis" unicode="&#xa8;" horiz-adv-x="551" 
d="M182 629c0 48 35 85 86 85c41 0 68 -27 68 -65c0 -48 -35 -85 -86 -85c-41 0 -68 27 -68 65zM383 629c0 48 34 85 85 85c41 0 68 -27 68 -65c0 -48 -35 -85 -86 -85c-41 0 -67 27 -67 65z" />
    <glyph glyph-name="circumflex" unicode="&#x2c6;" horiz-adv-x="551" 
d="M357 630h-3c-29 -34 -75 -69 -123 -87l-60 89c60 21 108 43 148 86h87c29 -40 72 -70 126 -94l-71 -82c-44 20 -82 56 -104 88z" />
    <glyph glyph-name="caron" unicode="&#x2c7;" horiz-adv-x="551" 
d="M352 648h3c29 34 74 69 123 86l60 -88c-60 -22 -108 -44 -149 -87h-86c-29 40 -72 71 -126 95l70 82c45 -20 83 -56 105 -88z" />
    <glyph glyph-name="macron" unicode="&#xaf;" horiz-adv-x="551" 
d="M213 580l22 107h276l-23 -107h-275z" />
    <glyph glyph-name="tilde" unicode="&#x2dc;" horiz-adv-x="551" 
d="M543 666c-12 -56 -58 -106 -113 -106c-61 0 -87 52 -126 52c-25 0 -34 -27 -39 -52l-85 50c12 57 58 106 113 106c61 0 87 -51 126 -51c25 0 34 27 39 51z" />
    <glyph glyph-name="breve" unicode="&#x2d8;" horiz-adv-x="551" 
d="M424 719l105 -33c-25 -85 -96 -132 -183 -132c-77 0 -137 47 -137 124c0 5 1 8 1 8l106 33c-2 -5 -5 -17 -5 -29c0 -26 16 -44 47 -44c43 0 63 33 66 73z" />
    <glyph glyph-name="ring" unicode="&#x2da;" horiz-adv-x="551" 
d="M238 648c0 67 55 121 135 121c63 0 112 -43 112 -99c0 -67 -55 -121 -135 -121c-63 0 -112 43 -112 99zM367 702c-28 0 -48 -22 -48 -50c0 -21 14 -36 37 -36c29 0 49 22 49 50c0 21 -15 36 -38 36z" />
    <glyph glyph-name="caronquoteleft" horiz-adv-x="551" 
d="M456 716c-35 -5 -80 -13 -96 -56c3 1 6 1 10 1c29 0 51 -17 51 -48c0 -40 -32 -65 -73 -65c-43 0 -64 34 -64 72c0 74 40 128 100 146z" />
    <glyph glyph-name="caronquoteright" horiz-adv-x="551" 
d="M273 598c34 3 79 12 96 55h-10c-28 0 -51 17 -51 48c0 40 32 65 73 65c44 0 64 -35 64 -72c0 -75 -40 -128 -100 -146z" />
    <glyph glyph-name="uni0326" unicode="&#x326;" horiz-adv-x="551" 
d="M105 -217c35 5 79 13 96 56c-3 -1 -6 -1 -9 -1c-29 0 -51 17 -51 48c0 40 31 65 73 65c43 0 64 -34 64 -72c0 -74 -41 -128 -101 -146z" />
    <glyph glyph-name="cedilla" unicode="&#xb8;" horiz-adv-x="551" 
d="M206 15l69 -6l-21 -44c39 -8 74 -32 74 -75c0 -60 -61 -98 -127 -98c-58 0 -98 26 -114 58l70 45c6 -21 21 -42 51 -42c23 0 39 13 39 35c0 15 -13 26 -30 26c-15 0 -26 -8 -26 -8l-40 44z" />
    <glyph glyph-name="ogonek" unicode="&#x2db;" horiz-adv-x="551" 
d="M282 -84l78 -57c-27 -39 -79 -67 -142 -67c-64 0 -114 37 -114 87s41 83 88 110l61 34l79 -23l-52 -30c-38 -22 -79 -42 -79 -71c0 -16 12 -26 29 -26c25 0 43 19 52 43z" />
    <glyph glyph-name="zero" unicode="0" horiz-adv-x="618" 
d="M376 578c-125 0 -179 -222 -179 -331c0 -77 22 -133 93 -133c125 0 179 222 179 331c0 77 -22 133 -93 133zM49 246c0 204 104 458 339 458c149 0 229 -114 229 -258c0 -204 -104 -458 -339 -458c-149 0 -229 114 -229 258z" />
    <glyph glyph-name="one" unicode="1" horiz-adv-x="385" 
d="M238 509h-3c-26 -29 -69 -51 -115 -61l-48 129c91 18 175 58 234 115h109l-147 -692h-143l87 407c10 49 26 102 26 102z" />
    <glyph glyph-name="two" unicode="2" horiz-adv-x="546" 
d="M230 360l-135 68s-5 17 -5 39c0 138 109 237 258 237c124 0 221 -85 221 -198c0 -224 -300 -311 -353 -376l-1 -2h271l-27 -128h-449v12c0 246 413 302 413 484c0 47 -31 84 -82 84c-85 0 -116 -82 -116 -162c0 -22 5 -52 5 -58z" />
    <glyph glyph-name="three" unicode="3" horiz-adv-x="543" 
d="M240 -12c-128 0 -216 74 -227 176l138 68s-1 -10 -1 -19c0 -58 34 -101 98 -101c72 0 123 61 123 132c0 52 -35 90 -90 90c-47 0 -81 -18 -114 -34l-29 122l215 145h-233l26 125h445l-20 -106l-155 -104c-47 -31 -113 -60 -113 -60l1 -3s11 2 23 2
c110 0 186 -75 186 -180c0 -140 -119 -253 -273 -253z" />
    <glyph glyph-name="four" unicode="4" horiz-adv-x="572" 
d="M320 174h-273l-17 88c96 117 171 259 201 442l132 -71c-34 -149 -104 -248 -171 -336h154l84 395h139l-84 -395h81l-26 -123h-81l-37 -174h-139z" />
    <glyph glyph-name="five" unicode="5" horiz-adv-x="552" 
d="M243 -12c-128 0 -216 74 -227 176l138 68s-1 -10 -1 -19c0 -58 34 -101 98 -101c82 1 133 80 133 156c0 57 -28 98 -86 98c-52 0 -89 -37 -111 -79l-116 57l119 348h380l-27 -125h-262l-24 -69c-14 -43 -33 -77 -33 -77l2 -1c27 26 73 53 129 53c113 0 171 -97 171 -205
c0 -145 -115 -280 -283 -280z" />
    <glyph glyph-name="six" unicode="6" horiz-adv-x="572" 
d="M401 704c97 0 186 -54 203 -143l-135 -72s1 4 1 8c0 47 -28 87 -83 87c-78 0 -145 -73 -181 -193l4 -1c35 49 95 73 154 73c108 0 187 -83 187 -203c0 -146 -110 -272 -273 -272c-157 0 -230 104 -230 247c0 215 108 469 353 469zM280 104c83 0 134 72 134 153
c0 59 -35 101 -97 101c-82 0 -134 -66 -134 -147c0 -61 36 -107 97 -107z" />
    <glyph glyph-name="seven" unicode="7" horiz-adv-x="521" 
d="M611 692l-19 -96c-134 -170 -247 -382 -299 -596h-164c56 224 193 432 298 564h-200l-33 -159l-119 74l45 213h491z" />
    <glyph glyph-name="eight" unicode="8" horiz-adv-x="581" 
d="M261 -12c-135 0 -238 75 -238 188c0 115 97 180 181 195l1 4c-52 24 -91 70 -91 133c0 121 124 196 258 196c117 0 214 -74 214 -170c0 -91 -70 -150 -153 -172l-1 -3c45 -19 111 -63 111 -149c0 -135 -132 -222 -282 -222zM162 191c0 -53 48 -87 109 -87
c71 0 134 43 134 113c0 54 -47 88 -109 88c-70 0 -134 -43 -134 -114zM245 493c0 -42 37 -73 92 -73c57 0 117 32 117 96c0 42 -37 72 -92 72c-58 0 -117 -31 -117 -95z" />
    <glyph glyph-name="nine" unicode="9" horiz-adv-x="572" 
d="M247 -12c-100 0 -193 54 -210 146l135 72v-8c0 -50 29 -90 85 -90c84 0 131 80 161 200l-3 1c-35 -46 -92 -70 -152 -70c-114 0 -194 84 -194 202c0 145 111 263 268 263c156 0 234 -104 234 -249c0 -203 -74 -467 -324 -467zM336 588c-79 0 -130 -65 -130 -144
c0 -61 36 -100 99 -100c79 0 131 61 131 141c0 59 -37 103 -100 103z" />
    <glyph glyph-name="zero.zero" horiz-adv-x="618" 
d="M376 584c-128 0 -184 -227 -184 -337c0 -79 22 -139 98 -139c128 0 184 227 184 337c0 79 -22 139 -98 139zM49 246c0 204 104 458 339 458c149 0 229 -114 229 -258c0 -204 -104 -458 -339 -458c-149 0 -229 114 -229 258zM256 333c0 57 37 101 89 101
c40 0 67 -29 67 -71c0 -57 -38 -101 -89 -101c-41 0 -67 29 -67 71z" />
    <glyph glyph-name="currency" unicode="&#xa4;" 
d="M534 380c0 -49 -19 -97 -49 -135l70 -86l-92 -74l-70 87c-29 -14 -61 -21 -93 -21c-33 0 -65 10 -93 26l-98 -82l-74 87l95 79c-9 20 -13 42 -13 64c0 48 18 94 47 132l-71 88l92 73l70 -87c29 14 62 22 96 22c33 0 64 -10 92 -26l98 81l73 -86l-94 -78
c9 -20 14 -42 14 -64zM311 259c63 0 104 52 104 114c0 44 -29 72 -75 72c-63 0 -104 -52 -104 -114c0 -44 29 -72 75 -72z" />
    <glyph glyph-name="dollar" unicode="$" horiz-adv-x="611" 
d="M187 -92l22 106c-104 25 -175 93 -187 189l131 71v-10c0 -63 28 -117 85 -141l38 176c-89 33 -175 88 -175 192c0 118 116 195 252 198l20 93h116l-23 -108c84 -26 151 -82 170 -159l-132 -71s1 3 1 9c0 49 -25 91 -68 113l-35 -164c90 -39 180 -82 180 -192
c0 -120 -114 -200 -259 -207l-20 -95h-116zM448 196c0 38 -31 60 -73 78l-35 -164c65 7 108 38 108 86zM236 502c0 -37 27 -57 67 -74l33 153c-56 -7 -100 -36 -100 -79z" />
    <glyph glyph-name="cent" unicode="&#xa2;" horiz-adv-x="578" 
d="M177 -92l22 103c-96 22 -158 93 -158 204c0 149 106 268 263 289l21 98h116l-22 -102c90 -21 146 -81 146 -143v-7l-126 -58c1 6 3 15 3 29c0 32 -17 60 -52 73l-59 -279c52 15 81 55 90 102l113 -64c-27 -71 -112 -132 -220 -146l-21 -99h-116zM173 215
c0 -48 17 -81 55 -97l59 276c-73 -26 -114 -101 -114 -179z" />
    <glyph glyph-name="Euro" unicode="&#x20ac;" horiz-adv-x="650" 
d="M452 369h-176c-5 -20 -8 -39 -10 -58h159l-49 -95h-113c5 -67 32 -112 98 -112c76 0 122 71 134 158l123 -86c-26 -83 -125 -188 -265 -188c-132 0 -219 79 -230 228h-88l19 95h71c2 19 5 38 9 58h-67l20 95h75c52 132 153 240 308 240c122 0 207 -76 217 -185l-138 -77
c0 6 5 25 5 45c0 56 -27 101 -95 101c-70 0 -120 -54 -152 -124h194z" />
    <glyph glyph-name="yen" unicode="&#xa5;" horiz-adv-x="623" 
d="M541 162h-175l-34 -162h-141l34 162h-174l20 95h174l1 3l-19 60h-143l21 95h92l-87 277h150l55 -210c12 -48 21 -98 21 -98h4s27 49 60 98l145 210h163l-206 -277h93l-20 -95h-144l-44 -60l-1 -3h176z" />
    <glyph glyph-name="sterling" unicode="&#xa3;" horiz-adv-x="584" 
d="M427 281h-126c-7 -64 -37 -119 -85 -156h313l-27 -125h-482l21 100c73 34 108 103 117 181h-111l23 108h86c-1 19 -2 37 -2 54c0 159 88 261 252 261c111 0 206 -66 219 -174l-132 -72c1 4 2 16 2 29c0 57 -29 98 -88 98c-79 0 -112 -62 -112 -143c0 -18 1 -36 3 -53h183
z" />
    <glyph glyph-name="florin" unicode="&#x192;" horiz-adv-x="559" 
d="M116 34l77 308h-94l23 108h98l12 49c40 156 135 205 238 205c82 0 154 -41 175 -112l-124 -68s1 4 1 9c0 36 -20 62 -57 62c-40 0 -71 -26 -88 -94l-13 -51h168l-54 -108h-141l-77 -308c-37 -150 -122 -202 -226 -202c-80 0 -142 38 -161 96l125 69v-4
c0 -28 13 -52 43 -52c32 0 58 23 75 93z" />
    <glyph glyph-name="zero.tf" 
d="M367 578c-113 0 -168 -225 -168 -335c0 -75 19 -129 81 -129c113 0 168 225 168 335c0 75 -19 129 -81 129zM51 245c0 210 100 459 328 459c142 0 217 -114 217 -257c0 -210 -100 -459 -329 -459c-142 0 -216 114 -216 257z" />
    <glyph glyph-name="one.tf" 
d="M334 507h-3c-36 -39 -94 -70 -155 -81l-47 128c106 22 212 71 271 138h110l-121 -570h153l-26 -122h-458l26 122h163l61 285c10 49 26 100 26 100z" />
    <glyph glyph-name="two.tf" 
d="M256 360l-135 68s-5 17 -5 39c0 138 109 237 258 237c124 0 221 -85 221 -198c0 -224 -300 -311 -353 -376l-1 -2h271l-27 -128h-449v12c0 246 413 302 413 484c0 47 -31 84 -82 84c-85 0 -116 -82 -116 -162c0 -22 5 -52 5 -58z" />
    <glyph glyph-name="three.tf" 
d="M269 -12c-128 0 -216 74 -227 176l138 68s-1 -10 -1 -19c0 -58 34 -101 98 -101c72 0 123 61 123 132c0 52 -35 90 -90 90c-47 0 -81 -18 -114 -34l-29 122l215 145h-233l26 125h445l-20 -106l-155 -104c-47 -31 -113 -60 -113 -60l1 -3s11 2 23 2
c110 0 186 -75 186 -180c0 -140 -119 -253 -273 -253z" />
    <glyph glyph-name="four.tf" 
d="M325 174h-262l-17 88c90 117 159 259 189 442l131 -71c-32 -149 -97 -251 -159 -336h144l83 395h139l-84 -395h81l-26 -123h-81l-37 -174h-139z" />
    <glyph glyph-name="five.tf" 
d="M272 -12c-128 0 -216 74 -227 176l138 68s-1 -10 -1 -19c0 -58 34 -101 98 -101c82 1 133 80 133 156c0 57 -28 98 -86 98c-52 0 -89 -37 -111 -79l-116 57l119 348h380l-27 -125h-262l-24 -69c-14 -43 -33 -77 -33 -77l2 -1c27 26 73 53 129 53c113 0 171 -97 171 -205
c0 -145 -115 -280 -283 -280z" />
    <glyph glyph-name="six.tf" 
d="M415 704c94 0 184 -54 200 -143l-134 -72v8c0 47 -29 87 -80 87c-75 0 -145 -73 -181 -193l4 -1c33 49 95 73 152 73c104 0 183 -83 183 -203c0 -146 -109 -272 -269 -272c-155 0 -228 104 -228 247c0 215 111 469 353 469zM292 104c80 0 130 72 130 153
c0 59 -35 101 -93 101c-80 0 -132 -66 -132 -147c0 -61 36 -107 95 -107z" />
    <glyph glyph-name="seven.tf" 
d="M662 692l-18 -96c-139 -170 -254 -382 -308 -596h-163c57 225 198 432 305 564h-215l-34 -159l-119 74l45 213h507z" />
    <glyph glyph-name="eight.tf" 
d="M271 -12c-135 0 -235 75 -235 188c0 115 93 180 178 195v4c-52 24 -88 70 -88 133c0 121 122 196 255 196c117 0 212 -74 212 -170c0 -91 -67 -149 -151 -171v-3c45 -20 106 -64 106 -150c0 -135 -128 -222 -277 -222zM175 191c0 -53 44 -87 106 -87c70 0 130 43 130 113
c0 54 -44 88 -105 88c-71 0 -131 -43 -131 -114zM256 493c0 -42 35 -73 90 -73c58 0 115 32 115 96c0 42 -35 72 -90 72c-57 0 -115 -31 -115 -95z" />
    <glyph glyph-name="nine.tf" 
d="M264 -12c-100 0 -191 54 -208 146l135 72s-1 -4 -1 -8c0 -50 28 -90 84 -90c80 0 126 79 154 200l-4 1c-32 -46 -86 -70 -143 -70c-113 0 -194 84 -194 202c0 145 109 263 263 263s230 -104 230 -249c0 -203 -73 -467 -316 -467zM350 588c-77 0 -126 -65 -126 -144
c0 -61 34 -100 95 -100c76 0 126 61 126 141c0 59 -35 103 -95 103z" />
    <glyph glyph-name="zero.tf.zero" 
d="M250 333c0 57 36 101 87 101c41 0 67 -29 67 -71c0 -57 -37 -101 -88 -101c-41 0 -66 29 -66 71zM367 584c-119 0 -179 -229 -179 -341c0 -77 22 -135 92 -135c119 0 179 229 179 341c0 77 -22 135 -92 135zM51 245c0 210 100 459 328 459c142 0 217 -114 217 -257
c0 -210 -100 -459 -329 -459c-142 0 -216 114 -216 257z" />
    <glyph glyph-name="currency.tf" 
d="M534 380c0 -49 -19 -97 -49 -135l70 -86l-92 -74l-70 87c-29 -14 -61 -21 -93 -21c-33 0 -65 10 -93 26l-98 -82l-74 87l95 79c-9 20 -13 42 -13 64c0 48 18 94 47 132l-71 88l92 73l70 -87c29 14 62 22 96 22c33 0 64 -10 92 -26l98 81l73 -86l-94 -78
c9 -20 14 -42 14 -64zM311 259c63 0 104 52 104 114c0 44 -29 72 -75 72c-63 0 -104 -52 -104 -114c0 -44 29 -72 75 -72z" />
    <glyph glyph-name="dollar.tf" 
d="M182 -92l23 107c-96 26 -163 94 -174 188l131 71s-1 -4 -1 -10c0 -60 25 -112 73 -138l37 174c-82 32 -162 87 -162 191c0 118 111 194 239 198l20 93h116l-24 -109c79 -26 140 -82 158 -158l-131 -71v9c0 48 -20 88 -56 111l-35 -163c84 -39 168 -81 168 -191
c0 -120 -108 -200 -246 -207l-20 -95h-116zM430 196c0 36 -26 58 -61 76l-34 -161c58 7 95 38 95 85zM244 502c0 -35 22 -55 55 -71l32 149c-48 -8 -87 -37 -87 -78z" />
    <glyph glyph-name="cent.tf" 
d="M185 -92l22 103c-96 22 -158 93 -158 204c0 149 106 268 263 289l21 98h116l-22 -102c90 -21 146 -81 146 -143v-7l-126 -58c1 6 3 15 3 29c0 32 -17 60 -52 73l-59 -279c52 15 81 55 90 102l113 -64c-27 -71 -112 -132 -220 -146l-21 -99h-116zM181 215
c0 -48 17 -81 55 -97l59 276c-73 -26 -114 -101 -114 -179z" />
    <glyph glyph-name="Euro.tf" 
d="M406 369h-154c-4 -20 -7 -39 -9 -58h137l-45 -95h-96c4 -67 23 -112 87 -112c67 0 106 72 116 158l120 -85c-25 -83 -113 -189 -244 -189c-130 0 -205 82 -213 228h-75l20 95h57c2 19 5 38 9 58h-54l21 95h58c47 132 140 240 289 240c115 0 192 -77 200 -187l-136 -75
c0 6 5 26 5 49c0 53 -23 97 -81 97c-64 0 -109 -54 -138 -124h172z" />
    <glyph glyph-name="yen.tf" 
d="M528 157h-175l-33 -157h-141l33 157h-174l20 95h174l1 5l-15 58h-147l21 95h100l-75 282h149l41 -196c11 -52 18 -112 18 -112h3s32 60 64 112l123 196h162l-196 -282h101l-20 -95h-147l-41 -59l-1 -4h176z" />
    <glyph glyph-name="sterling.tf" 
d="M434 281h-126c-7 -64 -37 -119 -85 -156h313l-27 -125h-482l21 100c73 34 108 103 117 181h-111l23 108h86c-1 19 -2 37 -2 54c0 159 88 261 252 261c111 0 206 -66 219 -174l-132 -72c1 4 2 16 2 29c0 57 -29 98 -88 98c-79 0 -112 -62 -112 -143c0 -18 1 -36 3 -53h183
z" />
    <glyph glyph-name="florin.tf" 
d="M135 34l77 308h-94l23 108h98l12 49c40 156 135 205 238 205c82 0 154 -41 175 -112l-124 -68s1 4 1 9c0 36 -20 62 -57 62c-40 0 -71 -26 -88 -94l-13 -51h168l-54 -108h-141l-77 -308c-37 -150 -122 -202 -226 -202c-80 0 -142 38 -161 96l125 69v-4
c0 -28 13 -52 43 -52c32 0 58 23 75 93z" />
    <glyph glyph-name="plus" unicode="+" 
d="M197 49l46 218h-199l26 122h199l45 214h128l-45 -214h199l-27 -122h-198l-46 -218h-128z" />
    <glyph glyph-name="minus" unicode="&#x2212;" 
d="M553 266h-494l27 124h494z" />
    <glyph glyph-name="multiply" unicode="&#xd7;" 
d="M107 75l-79 91l208 167l-134 167l97 77l130 -166l196 162l79 -91l-203 -165l139 -169l-97 -77l-134 170z" />
    <glyph glyph-name="divide" unicode="&#xf7;" 
d="M554 267h-495l27 122h494zM191 117c0 52 40 90 95 90c45 0 77 -32 77 -73c0 -52 -39 -90 -95 -90c-44 0 -77 31 -77 73zM276 525c0 52 39 91 94 91c45 0 78 -32 78 -74c0 -51 -40 -89 -95 -89c-45 0 -77 31 -77 72z" />
    <glyph glyph-name="equal" unicode="=" 
d="M530 165h-491l26 117h491zM574 368h-492l25 117h492z" />
    <glyph glyph-name="less" unicode="&#x3c;" 
d="M592 470l-362 -151l297 -138l-62 -115l-392 198l26 126l446 197z" />
    <glyph glyph-name="greater" unicode="&#x3e;" 
d="M46 184l362 151l-297 138l62 115l392 -198l-26 -126l-446 -197z" />
    <glyph glyph-name="plusminus" unicode="&#xb1;" 
d="M241 242l34 156h-188l24 110h187l33 158h121l-34 -158h187l-23 -110h-187l-33 -156h-121zM513 75h-494l24 112h494z" />
    <glyph glyph-name="lessequal" unicode="&#x2264;" 
d="M509 221l-409 138l27 124l431 144l35 -114l-324 -98l282 -82zM508 75h-475l24 112h475z" />
    <glyph glyph-name="greaterequal" unicode="&#x2265;" 
d="M180 627l408 -144l-26 -124l-431 -138l-35 112l324 94l-282 87zM508 75h-475l24 112h475z" />
    <glyph glyph-name="notequal" unicode="&#x2260;" 
d="M604 486l-24 -113h-166l-60 -93h206l-24 -113h-255l-97 -150l-94 57l60 93h-115l25 113h163l60 93h-204l24 113h253l98 152l94 -58l-61 -94h117z" />
    <glyph glyph-name="logicalnot" unicode="&#xac;" 
d="M85 400h495l-60 -281h-128l33 156h-366z" />
    <glyph glyph-name="asciicircum" unicode="^" 
d="M85 410l257 282h110l146 -301l-114 -55l-103 222l-200 -226z" />
    <glyph glyph-name="asciitilde" unicode="~" 
d="M579 357c-32 -75 -83 -130 -162 -130c-84 0 -129 75 -183 75c-39 0 -59 -39 -69 -77l-104 75c32 75 83 130 162 130c84 0 129 -75 183 -75c39 0 59 39 69 77z" />
    <glyph glyph-name="approxequal" unicode="&#x2248;" 
d="M556 242c-32 -64 -82 -110 -161 -110c-84 0 -129 60 -184 60c-38 0 -58 -31 -68 -62l-104 74c31 65 82 109 161 109c84 0 129 -61 184 -61c39 0 58 27 68 56zM601 452c-32 -67 -82 -114 -161 -114c-84 0 -129 60 -184 60c-39 0 -58 -29 -68 -58l-104 74
c31 62 82 104 161 104c84 0 129 -60 184 -60c38 0 58 29 68 60z" />
    <glyph glyph-name="infinity" unicode="&#x221e;" horiz-adv-x="867" 
d="M285 529c82 0 141 -49 178 -110h2c56 61 127 110 208 110c104 0 176 -81 176 -177c0 -120 -98 -225 -227 -225c-82 0 -141 48 -178 110h-3c-56 -62 -126 -110 -207 -110c-105 0 -176 80 -176 177c0 120 99 225 227 225zM513 327c17 -34 43 -82 103 -82
c52 0 102 43 102 99c0 39 -26 67 -67 67c-63 0 -104 -51 -138 -84zM393 329c-17 34 -42 82 -102 82c-52 0 -102 -43 -102 -99c0 -39 26 -67 67 -67c63 0 103 51 137 84z" />
    <glyph glyph-name="numbersign" unicode="#" horiz-adv-x="696" 
d="M505 523l67 169h129l-67 -169h93l-23 -110h-114l-50 -124h111l-23 -110h-132l-71 -179h-128l71 179h-131l-71 -179h-129l71 179h-90l23 110h111l50 124h-108l23 110h129l67 169h129l-67 -169h130zM331 413l-50 -124h130l50 124h-130z" />
    <glyph glyph-name="radical" unicode="&#x221a;" horiz-adv-x="666" 
d="M31 264l26 121h196l1 -207c0 -61 -1 -146 -1 -146h3s37 81 70 144l294 572h153l-450 -856h-189l-8 372h-95z" />
    <glyph glyph-name="lozenge" unicode="&#x25ca;" horiz-adv-x="610" 
d="M49 349l281 343h144l135 -343l-282 -349h-144zM317 479l-120 -147l43 -117c19 -52 31 -89 31 -89h3s26 37 66 89l120 152l-43 112c-20 51 -31 88 -31 88h-3s-25 -37 -66 -88z" />
    <glyph glyph-name="Delta" unicode="&#x2206;" horiz-adv-x="652" 
d="M-33 0l21 95l350 597h168l99 -597l-21 -95h-617zM350 453l-186 -327h291l-46 327c-6 40 -10 91 -10 91h-4s-24 -53 -45 -91z" />
    <glyph glyph-name="Omega" unicode="&#x2126;" horiz-adv-x="724" 
d="M299 108l-23 -108h-272l26 122h46c48 0 83 -7 83 -7l1 2c-56 56 -94 136 -94 225c0 188 146 362 365 362c174 0 284 -123 284 -280c0 -129 -69 -236 -177 -309l1 -2s44 9 85 9h35l-26 -122h-282l23 106c108 54 190 162 190 306c0 89 -50 162 -144 162
c-136 0 -209 -141 -209 -269c0 -89 38 -154 88 -197z" />
    <glyph glyph-name="summation" unicode="&#x2211;" horiz-adv-x="532" 
d="M401 314l-242 -338h311l-26 -123h-494l21 98l274 381l-125 327l21 99h495l-26 -124h-330z" />
    <glyph glyph-name="partialdiff" unicode="&#x2202;" horiz-adv-x="570" 
d="M147 583l97 121c179 -5 312 -128 312 -313c0 -206 -92 -403 -309 -403c-135 0 -221 86 -221 208c0 152 116 259 254 259c69 0 113 -30 139 -57l2 1c-6 131 -90 188 -235 188c-23 0 -39 -4 -39 -4zM304 352c-84 0 -144 -73 -144 -150c0 -58 32 -99 100 -99
c102 0 146 115 158 216c-19 13 -56 33 -114 33z" />
    <glyph glyph-name="integral" unicode="&#x222b;" horiz-adv-x="391" 
d="M337 566l-118 -555c-26 -124 -112 -164 -199 -164c-39 0 -64 7 -64 7l-8 119s20 -8 46 -8c47 0 76 18 89 79l118 555c26 124 112 164 199 164c40 0 64 -6 64 -6l9 -119s-20 7 -46 7c-48 0 -77 -18 -90 -79z" />
    <glyph glyph-name="product" unicode="&#x220f;" horiz-adv-x="668" 
d="M371 -147l166 783h-235l-167 -783h-140l193 905h514l-192 -905h-139z" />
    <glyph glyph-name="pi" unicode="&#x3c0;" horiz-adv-x="640" 
d="M47 389l24 115h609l-24 -115h-120l-49 -232c-2 -8 -3 -17 -3 -26c0 -19 10 -27 26 -27c22 0 37 20 47 32l36 -104c-22 -18 -68 -44 -128 -44c-76 0 -125 40 -125 109c0 14 2 34 6 52l51 240h-129l-83 -390h-131l82 390h-89z" />
    <glyph glyph-name="mu" unicode="&#xb5;" horiz-adv-x="556" 
d="M555 504l-107 -504h-142l27 83h-3c-32 -46 -82 -93 -159 -93c-13 0 -24 2 -35 5c-2 -29 -8 -86 -20 -141l-12 -50h-138l149 700h142l-63 -293c-3 -16 -5 -32 -5 -45c0 -37 17 -61 59 -61c60 0 91 52 105 115l60 284h142z" />
    <glyph glyph-name="period" unicode="." horiz-adv-x="281" 
d="M15 65c0 56 41 96 99 96c47 0 82 -34 82 -78c0 -55 -42 -95 -100 -95c-47 0 -81 33 -81 77z" />
    <glyph glyph-name="comma" unicode="," horiz-adv-x="281" 
d="M189 68c0 -94 -46 -180 -135 -222l-70 65c51 19 102 41 125 97c-7 -2 -14 -2 -23 -2c-40 0 -70 28 -70 65c0 52 38 90 91 90c51 0 82 -31 82 -93z" />
    <glyph glyph-name="colon" unicode=":" horiz-adv-x="281" 
d="M89 415c0 56 41 96 99 96c47 0 82 -34 82 -78c0 -55 -42 -95 -100 -95c-47 0 -81 33 -81 77zM15 65c0 56 41 96 99 96c47 0 82 -34 82 -78c0 -55 -42 -95 -100 -95c-47 0 -81 33 -81 77z" />
    <glyph glyph-name="semicolon" unicode=";" horiz-adv-x="281" 
d="M189 68c0 -94 -46 -180 -135 -222l-70 65c51 19 102 41 125 97c-7 -2 -14 -2 -23 -2c-40 0 -70 28 -70 65c0 52 38 90 91 90c51 0 82 -31 82 -93zM87 415c0 56 41 96 99 96c47 0 82 -34 82 -78c0 -55 -42 -95 -100 -95c-47 0 -81 33 -81 77z" />
    <glyph glyph-name="exclam" unicode="!" horiz-adv-x="310" 
d="M326 692l-15 -71c-32 -149 -112 -406 -112 -406h-98s29 257 60 406l15 71h150zM37 61c0 52 40 90 95 90c45 0 77 -32 77 -73c0 -52 -39 -90 -95 -90c-44 0 -77 31 -77 73z" />
    <glyph glyph-name="question" unicode="?" horiz-adv-x="498" 
d="M398 535c0 31 -25 54 -68 54c-67 0 -120 -55 -136 -139l-120 81c46 98 137 173 271 173c111 0 190 -75 190 -160c0 -183 -246 -182 -246 -307c0 -10 1 -22 1 -22h-98s-12 25 -12 59c0 156 218 167 218 261zM129 61c0 52 39 90 94 90c45 0 78 -32 78 -73
c0 -52 -40 -90 -95 -90c-45 0 -77 31 -77 73z" />
    <glyph glyph-name="exclamdown" unicode="&#xa1;" horiz-adv-x="310" 
d="M-10 -188l15 71c32 149 112 406 112 406h98s-29 -257 -60 -406l-15 -71h-150zM279 443c0 -52 -40 -90 -95 -90c-45 0 -77 32 -77 73c0 52 39 90 95 90c44 0 77 -31 77 -73z" />
    <glyph glyph-name="questiondown" unicode="&#xbf;" horiz-adv-x="498" 
d="M117 -32c0 -31 25 -54 68 -54c67 0 120 55 136 139l120 -81c-46 -98 -137 -173 -271 -173c-111 0 -190 75 -190 160c0 183 246 182 246 307c0 10 -1 22 -1 22h98s12 -25 12 -59c0 -156 -218 -167 -218 -261zM386 442c0 -52 -39 -90 -94 -90c-45 0 -78 32 -78 73
c0 52 40 90 95 90c45 0 77 -31 77 -73z" />
    <glyph glyph-name="hyphen" unicode="-" horiz-adv-x="348" 
d="M310 241h-271l25 116h271z" />
    <glyph glyph-name="endash" unicode="&#x2013;" horiz-adv-x="579" 
d="M542 241h-502l24 116h502z" />
    <glyph glyph-name="emdash" unicode="&#x2014;" horiz-adv-x="821" 
d="M784 241h-744l24 116h744z" />
    <glyph glyph-name="underscore" unicode="_" horiz-adv-x="485" 
d="M364 -83h-379l25 116h379z" />
    <glyph glyph-name="bar" unicode="|" horiz-adv-x="301" 
d="M-1 -147l192 905h141l-193 -905h-140z" />
    <glyph glyph-name="brokenbar" unicode="&#xa6;" horiz-adv-x="301" 
d="M-1 -147l77 364h141l-78 -364h-140zM115 401l76 357h141l-76 -357h-141z" />
    <glyph glyph-name="dagger" unicode="&#x2020;" horiz-adv-x="538" 
d="M78 505l58 -2c41 -2 89 -6 124 -10l4 3c7 51 18 135 29 193l7 35h147l-9 -35c-15 -58 -38 -141 -53 -192l3 -4c37 4 85 8 128 10l59 2l-29 -136l-58 2c-41 1 -89 5 -124 9l-5 -3c-11 -69 -30 -187 -59 -337l-22 -114h-149l26 114c35 150 65 267 84 336l-3 4
c-38 -4 -85 -8 -128 -9l-59 -2z" />
    <glyph glyph-name="daggerdbl" unicode="&#x2021;" horiz-adv-x="562" 
d="M508 135l-58 2c-41 1 -89 5 -124 9l-5 -4c-6 -48 -16 -125 -27 -181l-6 -35h-145l8 35c13 56 36 133 50 181l-3 4c-38 -4 -85 -8 -128 -9l-59 -2l29 133l57 -2c41 -2 87 -6 123 -10l5 4l29 138l-3 4c-38 -4 -85 -8 -127 -9l-58 -2l28 133l58 -2c41 -2 88 -6 124 -10l5 5
c5 45 14 115 25 172l7 35h145l-9 -35c-13 -55 -34 -126 -49 -172l4 -5c38 4 86 8 129 10l58 2l-28 -133l-58 2c-41 1 -88 5 -124 9l-3 -3l-30 -140l3 -3c37 4 84 8 127 10l58 2z" />
    <glyph glyph-name="parenleft" unicode="(" horiz-adv-x="355" 
d="M350 770l107 -58c-150 -149 -239 -310 -239 -533c0 -115 27 -209 65 -281l-114 -58c-45 72 -92 203 -92 341c0 243 95 441 273 589z" />
    <glyph glyph-name="parenright" unicode=")" horiz-adv-x="355" 
d="M37 -161l-107 58c150 149 239 310 239 533c0 115 -27 209 -65 281l114 58c45 -72 92 -203 92 -341c0 -243 -95 -441 -273 -589z" />
    <glyph glyph-name="bracketleft" unicode="[" horiz-adv-x="369" 
d="M-2 -147l192 905h266l-25 -120h-131l-142 -666h131l-25 -119h-266z" />
    <glyph glyph-name="bracketright" unicode="]" horiz-adv-x="369" 
d="M406 757l-192 -905h-266l25 120h131l142 666h-131l25 119h266z" />
    <glyph glyph-name="braceleft" unicode="{" horiz-adv-x="408" 
d="M49 254l23 111c60 8 104 32 122 117l27 125c26 124 91 156 179 156c33 0 60 -5 60 -5l18 -119s-20 6 -45 6c-46 0 -72 -18 -85 -79l-25 -114c-22 -100 -68 -134 -137 -148v-3c42 -16 77 -44 77 -103c0 -19 -2 -34 -5 -51l-22 -102c-3 -15 -6 -25 -6 -34
c0 -35 25 -46 58 -46c27 0 51 8 51 8l-48 -119s-25 -7 -62 -7c-81 0 -135 51 -135 132c0 17 1 36 5 56l22 102c3 14 6 27 6 43c0 53 -35 65 -78 74z" />
    <glyph glyph-name="braceright" unicode="}" horiz-adv-x="408" 
d="M255 315v3c-41 16 -77 44 -77 103c0 18 1 34 5 51l21 94c3 14 5 24 5 33c0 36 -25 46 -58 46c-27 0 -51 -7 -51 -7l48 119s25 6 62 6c81 0 136 -51 136 -132c0 -16 -2 -36 -6 -55l-20 -95c-3 -13 -6 -26 -6 -42c0 -53 35 -65 78 -74l-23 -111c-60 -8 -104 -32 -122 -118
l-29 -133c-26 -124 -91 -156 -179 -156c-33 0 -60 5 -60 5l-18 119s20 -6 46 -6c45 0 71 18 84 79l27 123c22 100 69 133 137 148z" />
    <glyph glyph-name="slash" unicode="/" horiz-adv-x="411" 
d="M-65 -147l421 905h153l-424 -905h-150z" />
    <glyph glyph-name="backslash" unicode="\" horiz-adv-x="411" 
d="M269 758l48 -905h-145l-49 905h146z" />
    <glyph glyph-name="quotesinglbase" unicode="&#x201a;" horiz-adv-x="281" 
d="M189 68c0 -94 -46 -180 -135 -222l-70 65c51 19 102 41 125 97c-7 -2 -14 -2 -23 -2c-40 0 -70 28 -70 65c0 52 38 90 91 90c51 0 82 -31 82 -93z" />
    <glyph glyph-name="quotedblbase" unicode="&#x201e;" horiz-adv-x="491" 
d="M189 68c0 -94 -46 -180 -135 -222l-70 65c51 19 102 41 125 97c-7 -2 -14 -2 -23 -2c-40 0 -70 28 -70 65c0 52 38 90 91 90c51 0 82 -31 82 -93zM399 68c0 -94 -46 -180 -135 -222l-70 65c51 19 102 41 125 97c-7 -2 -14 -2 -23 -2c-40 0 -70 28 -70 65
c0 52 38 90 91 90c51 0 82 -31 82 -93z" />
    <glyph glyph-name="quoteleft" unicode="&#x2018;" horiz-adv-x="281" 
d="M111 498c0 94 46 180 135 222l70 -65c-51 -19 -102 -41 -125 -97c7 2 14 2 23 2c40 0 70 -28 70 -65c0 -52 -38 -90 -91 -90c-51 0 -82 31 -82 93z" />
    <glyph glyph-name="quotedblleft" unicode="&#x201c;" horiz-adv-x="491" 
d="M111 498c0 94 46 180 135 222l70 -65c-51 -19 -102 -41 -125 -97c7 2 14 2 23 2c40 0 70 -28 70 -65c0 -52 -38 -90 -91 -90c-51 0 -82 31 -82 93zM321 498c0 94 46 180 135 222l70 -65c-51 -19 -102 -41 -125 -97c7 2 14 2 23 2c40 0 70 -28 70 -65
c0 -52 -38 -90 -91 -90c-51 0 -82 31 -82 93z" />
    <glyph glyph-name="quoteright" unicode="&#x2019;" horiz-adv-x="281" 
d="M306 611c0 -94 -46 -180 -135 -222l-70 65c51 19 102 41 125 97c-7 -2 -14 -2 -23 -2c-40 0 -70 28 -70 65c0 52 38 90 91 90c51 0 82 -31 82 -93z" />
    <glyph glyph-name="quotedblright" unicode="&#x201d;" horiz-adv-x="491" 
d="M306 611c0 -94 -46 -180 -135 -222l-70 65c51 19 102 41 125 97c-7 -2 -14 -2 -23 -2c-40 0 -70 28 -70 65c0 52 38 90 91 90c51 0 82 -31 82 -93zM516 611c0 -94 -46 -180 -135 -222l-70 65c51 19 102 41 125 97c-7 -2 -14 -2 -23 -2c-40 0 -70 28 -70 65
c0 52 38 90 91 90c51 0 82 -31 82 -93z" />
    <glyph glyph-name="guilsinglleft" unicode="&#x2039;" horiz-adv-x="351" 
d="M176 273l-1 -3c35 -34 89 -94 116 -166l-118 -75c-24 70 -69 149 -124 206l19 89c72 51 126 121 170 194l118 -76c-44 -71 -120 -131 -180 -169z" />
    <glyph glyph-name="guilsinglright" unicode="&#x203a;" horiz-adv-x="351" 
d="M193 273l1 3c-35 34 -89 94 -116 166l118 75c24 -70 69 -149 124 -206l-19 -89c-72 -51 -126 -121 -170 -194l-118 76c44 71 120 131 180 169z" />
    <glyph glyph-name="guillemotleft" unicode="&#xab;" horiz-adv-x="565" 
d="M166 272l-1 -3c35 -35 93 -98 118 -170l-110 -70c-23 70 -72 150 -124 207l19 89c65 51 107 120 145 193l110 -70c-43 -74 -104 -138 -157 -176zM398 272v-3c34 -35 83 -98 108 -170l-114 -70c-22 70 -61 150 -112 207l18 89c70 51 124 120 166 193l113 -71
c-45 -74 -121 -137 -179 -175z" />
    <glyph glyph-name="guillemotright" unicode="&#xbb;" horiz-adv-x="565" 
d="M416 274l1 3c-35 35 -93 98 -118 170l110 70c23 -70 72 -150 124 -207l-19 -89c-65 -51 -107 -120 -145 -193l-110 70c43 74 104 138 157 176zM184 274v3c-34 35 -83 98 -108 170l114 70c22 -70 61 -150 112 -207l-18 -89c-70 -51 -124 -120 -166 -193l-113 71
c45 74 121 137 179 175z" />
    <glyph glyph-name="quotesingle" unicode="'" horiz-adv-x="240" 
d="M133 613l12 79h144l-21 -79c-25 -90 -64 -212 -64 -212h-97s13 119 26 212z" />
    <glyph glyph-name="quotedbl" unicode="&#x22;" horiz-adv-x="456" 
d="M145 613l12 79h144l-21 -79c-25 -90 -64 -212 -64 -212h-97s13 119 26 212zM337 613l12 79h144l-21 -79c-25 -90 -64 -212 -64 -212h-97s13 119 26 212z" />
    <glyph glyph-name="asterisk" unicode="*" horiz-adv-x="497" 
d="M135 605l48 -24c34 -17 66 -41 83 -55l4 3c-3 27 -3 69 1 105l6 58h129l-17 -58c-12 -39 -28 -81 -37 -104l4 -4c20 12 54 31 92 46l50 19l25 -115l-52 -12c-37 -8 -79 -12 -105 -14l-2 -5c15 -15 41 -42 64 -73l29 -41l-108 -68l-21 46c-17 38 -32 78 -38 95h-5
c-9 -16 -34 -55 -68 -95l-37 -44l-87 84l44 38c32 28 67 52 87 66v6c-24 4 -60 10 -94 20l-50 15z" />
    <glyph glyph-name="degree" unicode="&#xb0;" horiz-adv-x="407" 
d="M441 565c0 -99 -81 -176 -190 -176c-84 0 -153 58 -153 140c0 98 81 175 190 175c84 0 153 -58 153 -139zM259 479c44 0 73 42 73 83c0 29 -21 52 -52 52c-44 0 -73 -42 -73 -83c0 -29 21 -52 52 -52z" />
    <glyph glyph-name="bullet" unicode="&#x2022;" horiz-adv-x="348" 
d="M64 284c0 76 56 130 135 130c64 0 111 -46 111 -106c0 -74 -57 -128 -136 -128c-63 0 -110 44 -110 104z" />
    <glyph glyph-name="periodcentered" unicode="&#xb7;" horiz-adv-x="286" 
d="M66 288c0 56 41 96 99 96c47 0 82 -34 82 -78c0 -55 -42 -95 -100 -95c-47 0 -81 33 -81 77z" />
    <glyph glyph-name="ellipsis" unicode="&#x2026;" horiz-adv-x="784" 
d="M17 65c0 56 41 96 99 96c47 0 82 -34 82 -78c0 -55 -42 -95 -100 -95c-47 0 -81 33 -81 77zM267 65c0 56 41 96 99 96c47 0 82 -34 82 -78c0 -55 -42 -95 -100 -95c-47 0 -81 33 -81 77zM516 65c0 56 41 96 99 96c47 0 82 -34 82 -78c0 -55 -42 -95 -100 -95
c-47 0 -81 33 -81 77z" />
    <glyph glyph-name="paragraph" unicode="&#xb6;" horiz-adv-x="647" 
d="M334 -196l163 764h-112l-163 -764h-128l109 511c-79 16 -126 75 -126 158c0 126 91 219 238 219h411l-26 -124h-76l-163 -764h-127z" />
    <glyph glyph-name="section" unicode="&#xa7;" horiz-adv-x="516" 
d="M505 310c0 -67 -53 -116 -120 -139l-1 -4c24 -26 40 -59 40 -98c0 -105 -90 -175 -212 -175c-103 0 -188 50 -212 133l122 69s-1 -6 -1 -10c0 -52 40 -90 101 -90c40 0 71 23 71 59c0 43 -63 60 -129 92c-68 33 -118 72 -118 141c0 67 53 116 120 139l1 4
c-23 26 -38 58 -38 98c0 103 93 175 212 175c89 0 166 -49 196 -129l-122 -69s1 6 1 10c-1 48 -31 86 -85 86c-40 0 -71 -27 -71 -60c0 -42 62 -60 127 -92c68 -33 118 -71 118 -140zM259 367c-15 7 -29 14 -42 23c-25 -13 -45 -34 -45 -66c0 -45 55 -64 119 -93
c14 -7 29 -14 43 -23c25 13 45 34 45 67c0 45 -56 63 -120 92z" />
    <glyph glyph-name="copyright" unicode="&#xa9;" horiz-adv-x="794" 
d="M56 291c0 226 180 413 411 413c181 0 317 -130 317 -303c0 -226 -179 -413 -411 -413c-180 0 -317 130 -317 303zM386 74c173 0 302 149 302 327c0 132 -95 217 -234 217c-172 0 -301 -149 -301 -327c0 -132 95 -217 233 -217zM447 444c-62 0 -91 -72 -91 -128
c0 -38 17 -68 56 -68c43 0 67 38 73 75l98 -47c-25 -62 -95 -118 -180 -118c-95 0 -161 63 -161 155c0 124 83 222 213 222c81 0 150 -55 150 -119v-4l-107 -42s3 9 3 19c0 30 -18 55 -54 55z" />
    <glyph glyph-name="registered" unicode="&#xae;" horiz-adv-x="794" 
d="M56 291c0 226 180 413 411 413c181 0 317 -130 317 -303c0 -226 -179 -413 -411 -413c-180 0 -317 130 -317 303zM386 74c173 0 302 149 302 327c0 132 -95 217 -234 217c-172 0 -301 -149 -301 -327c0 -132 95 -217 233 -217zM604 425c0 -59 -37 -100 -90 -119l33 -128
h-97l-27 115h-52l-24 -115h-96l75 353h149c79 0 129 -43 129 -106zM449 372c31 0 61 14 61 45c0 19 -15 31 -43 31h-64l-15 -76h61z" />
    <glyph glyph-name="trademark" unicode="&#x2122;" horiz-adv-x="791" 
d="M86 595l21 97h304l-21 -97h-99l-46 -215h-106l45 215h-98zM599 493h1s9 24 18 42l81 157h139l-66 -312h-92l27 131c8 37 16 66 16 66h-2s-11 -25 -22 -46l-78 -151h-84l-16 151c-2 18 -3 46 -3 46h-3s-4 -32 -11 -66l-28 -131h-91l66 312h133l13 -157c2 -23 2 -42 2 -42z
" />
    <glyph glyph-name="ordfeminine" unicode="&#xaa;" horiz-adv-x="379" 
d="M243 699c43 0 70 -27 78 -56h3l11 49h107l-49 -225c-5 -24 -12 -52 -12 -68c0 -9 2 -18 2 -18h-81c-10 14 -13 29 -13 44v4h-2c-19 -28 -47 -55 -96 -55c-69 0 -104 66 -104 129c0 93 59 196 156 196zM237 454c50 0 70 66 70 110c0 32 -13 55 -42 55
c-49 0 -69 -66 -69 -110c0 -32 13 -55 41 -55z" />
    <glyph glyph-name="ordmasculine" unicode="&#xba;" horiz-adv-x="364" 
d="M84 506c0 106 68 193 186 193c82 0 143 -54 143 -132c0 -106 -68 -193 -186 -193c-82 0 -143 54 -143 132zM193 503c0 -31 13 -53 41 -53c49 0 70 71 70 120c0 31 -13 53 -41 53c-50 0 -70 -71 -70 -120z" />
    <glyph glyph-name="hyphen.case" horiz-adv-x="348" 
d="M321 295h-271l25 116h271z" />
    <glyph glyph-name="endash.case" horiz-adv-x="579" 
d="M553 294h-502l24 116h502z" />
    <glyph glyph-name="emdash.case" horiz-adv-x="821" 
d="M795 294h-744l24 116h744z" />
    <glyph glyph-name="periodcentered.case" horiz-adv-x="286" 
d="M77 344c0 56 41 96 99 96c47 0 82 -34 82 -78c0 -55 -42 -95 -100 -95c-47 0 -81 33 -81 77z" />
    <glyph glyph-name="bullet.case" horiz-adv-x="348" 
d="M76 340c0 76 56 130 135 130c64 0 111 -46 111 -106c0 -74 -57 -128 -136 -128c-63 0 -110 44 -110 104z" />
    <glyph glyph-name="guilsinglleft.case" horiz-adv-x="351" 
d="M192 352l-1 -3c35 -34 89 -94 116 -166l-118 -75c-24 70 -69 149 -124 206l19 89c72 51 126 121 170 194l118 -76c-44 -71 -120 -131 -180 -169z" />
    <glyph glyph-name="guilsinglright.case" horiz-adv-x="351" 
d="M210 353l1 3c-35 34 -89 94 -116 166l118 75c24 -70 69 -149 124 -206l-19 -89c-72 -51 -126 -121 -170 -194l-118 76c44 71 120 131 180 169z" />
    <glyph glyph-name="guillemotleft.case" horiz-adv-x="565" 
d="M182 351l-1 -3c35 -35 93 -98 118 -170l-110 -70c-23 70 -72 150 -124 207l19 89c65 51 107 120 145 193l110 -70c-43 -74 -104 -138 -157 -176zM414 351v-3c34 -35 83 -98 108 -170l-114 -70c-22 70 -61 150 -112 207l18 89c70 51 124 120 166 193l113 -71
c-45 -74 -121 -137 -179 -175z" />
    <glyph glyph-name="guillemotright.case" horiz-adv-x="565" 
d="M434 354l1 3c-35 35 -93 98 -118 170l110 70c23 -70 72 -150 124 -207l-19 -89c-65 -51 -107 -120 -145 -193l-110 70c43 74 104 138 157 176zM202 354v3c-34 35 -83 98 -108 170l114 70c22 -70 61 -150 112 -207l-18 -89c-70 -51 -124 -120 -166 -193l-113 71
c45 74 121 137 179 175z" />
    <glyph glyph-name="exclamdown.case" horiz-adv-x="310" 
d="M30 0l15 71c32 149 112 406 112 406h98s-29 -257 -60 -406l-15 -71h-150zM319 631c0 -52 -40 -90 -95 -90c-45 0 -77 32 -77 73c0 52 39 90 95 90c44 0 77 -31 77 -73z" />
    <glyph glyph-name="questiondown.case" horiz-adv-x="498" 
d="M154 157c0 -31 25 -54 68 -54c67 0 120 55 136 139l120 -81c-46 -98 -137 -173 -271 -173c-111 0 -190 75 -190 160c0 183 246 182 246 307c0 10 -1 22 -1 22h98s12 -25 12 -59c0 -156 -218 -167 -218 -261zM423 631c0 -52 -39 -90 -94 -90c-45 0 -78 32 -78 73
c0 52 40 90 95 90c45 0 77 -31 77 -73z" />
    <glyph glyph-name="parenleft.case" horiz-adv-x="356" 
d="M338 759l106 -58c-134 -132 -221 -269 -221 -471c0 -102 28 -179 66 -241l-113 -59c-47 74 -95 180 -95 302c0 221 100 394 257 527z" />
    <glyph glyph-name="parenright.case" horiz-adv-x="356" 
d="M65 -70l-106 58c134 132 221 269 221 471c0 102 -28 179 -66 241l113 59c47 -74 95 -180 95 -302c0 -221 -100 -394 -257 -527z" />
    <glyph glyph-name="bracketleft.case" horiz-adv-x="370" 
d="M13 -56l170 804h267l-26 -119h-131l-120 -566h131l-25 -119h-266z" />
    <glyph glyph-name="bracketright.case" horiz-adv-x="370" 
d="M403 748l-170 -804h-267l26 119h131l120 566h-131l25 119h266z" />
    <glyph glyph-name="braceleft.case" horiz-adv-x="408" 
d="M193 348l-1 -4c42 -15 78 -43 78 -102c0 -19 -2 -34 -6 -51l-12 -56c-3 -14 -5 -24 -5 -33c0 -35 24 -46 58 -46c26 0 50 8 50 8l-48 -119s-25 -7 -62 -7c-81 0 -135 51 -135 132c0 17 2 36 6 56l12 55c3 14 5 27 5 43c0 52 -34 65 -77 74l23 111c60 8 104 32 122 117
l15 72c27 124 92 156 180 156c33 0 59 -5 59 -5l19 -119s-21 6 -46 6c-46 0 -72 -17 -85 -78l-13 -63c-20 -99 -69 -133 -137 -147z" />
    <glyph glyph-name="braceright.case" horiz-adv-x="408" 
d="M400 409l-23 -111c-60 -9 -104 -33 -122 -118l-18 -85c-26 -124 -92 -157 -180 -157c-32 0 -59 5 -59 5l-18 119s20 -6 45 -6c46 0 72 18 85 78l16 76c21 100 69 134 137 149l1 3c-42 16 -78 43 -78 102c0 19 2 34 6 51l9 40c3 14 5 26 5 35c0 35 -24 46 -58 46
c-26 0 -50 -8 -50 -8l48 119s25 7 62 7c81 0 135 -51 135 -132c0 -16 -2 -36 -6 -56l-9 -41c-3 -14 -5 -27 -5 -42c0 -53 34 -65 77 -74z" />
    <glyph glyph-name="colon.case" horiz-adv-x="281" 
d="M106 489c0 56 41 96 99 96c47 0 82 -34 82 -78c0 -55 -42 -95 -100 -95c-47 0 -81 33 -81 77zM43 197c0 56 41 96 99 96c47 0 82 -34 82 -78c0 -55 -42 -95 -100 -95c-47 0 -81 33 -81 77z" />
    <glyph glyph-name="plus.case" 
d="M203 73l46 218h-199l26 122h199l45 214h128l-45 -214h199l-27 -122h-198l-46 -218h-128z" />
    <glyph glyph-name="minus.case" 
d="M558 291h-494l27 124h494z" />
    <glyph glyph-name="multiply.case" 
d="M115 102l-79 91l208 167l-134 167l97 77l130 -166l196 162l79 -91l-203 -165l139 -169l-97 -77l-134 170z" />
    <glyph glyph-name="divide.case" 
d="M559 292h-495l27 122h494zM196 142c0 52 40 90 95 90c45 0 77 -32 77 -73c0 -52 -39 -90 -95 -90c-44 0 -77 31 -77 73zM281 550c0 52 39 91 94 91c45 0 78 -32 78 -74c0 -51 -40 -89 -95 -89c-45 0 -77 31 -77 72z" />
    <glyph glyph-name="equal.case" 
d="M535 193h-491l26 117h491zM579 396h-492l25 117h492z" />
    <glyph glyph-name="less.case" 
d="M597 496l-362 -151l297 -138l-62 -115l-392 198l26 126l446 197z" />
    <glyph glyph-name="greater.case" 
d="M52 209l362 151l-297 138l62 115l392 -198l-26 -126l-446 -197z" />
    <glyph glyph-name="plusminus.case" 
d="M243 256l34 156h-188l24 110h187l33 158h121l-34 -158h187l-23 -110h-187l-33 -156h-121zM515 89h-494l24 112h494z" />
    <glyph glyph-name="lessequal.case" 
d="M509 235l-409 138l27 124l431 144l35 -114l-324 -98l282 -82zM508 89h-475l24 112h475z" />
    <glyph glyph-name="greaterequal.case" 
d="M183 638l408 -144l-26 -124l-431 -138l-35 112l324 94l-282 87zM511 86h-475l24 112h475z" />
    <glyph glyph-name="notequal.case" 
d="M610 512l-24 -113h-166l-60 -93h206l-24 -113h-255l-97 -150l-94 57l60 93h-115l25 113h163l60 93h-204l24 113h253l98 152l94 -58l-61 -94h117z" />
    <glyph glyph-name="logicalnot.case" 
d="M89 417h495l-60 -281h-128l33 156h-366z" />
    <glyph glyph-name="asciitilde.case" 
d="M584 381c-32 -75 -83 -130 -162 -130c-84 0 -129 75 -183 75c-39 0 -59 -39 -69 -77l-104 75c32 75 83 130 162 130c84 0 129 -75 183 -75c39 0 59 39 69 77z" />
    <glyph glyph-name="approxequal.case" 
d="M562 269c-32 -64 -82 -110 -161 -110c-84 0 -129 60 -184 60c-38 0 -58 -31 -68 -62l-104 74c31 65 82 109 161 109c84 0 129 -61 184 -61c39 0 58 27 68 56zM607 479c-32 -67 -82 -114 -161 -114c-84 0 -129 60 -184 60c-39 0 -58 -29 -68 -58l-104 74
c31 62 82 104 161 104c84 0 129 -60 184 -60c38 0 58 29 68 60z" />
    <glyph glyph-name="infinity.case" horiz-adv-x="867" 
d="M291 554c82 0 141 -49 178 -110h2c56 61 127 110 208 110c104 0 176 -81 176 -177c0 -120 -98 -225 -227 -225c-82 0 -141 48 -178 110h-3c-56 -62 -126 -110 -207 -110c-105 0 -176 80 -176 177c0 120 99 225 227 225zM519 352c17 -34 43 -82 103 -82
c52 0 102 43 102 99c0 39 -26 67 -67 67c-63 0 -104 -51 -138 -84zM399 354c-17 34 -42 82 -102 82c-52 0 -102 -43 -102 -99c0 -39 26 -67 67 -67c63 0 103 51 137 84z" />
    <glyph glyph-name="uni2113" unicode="&#x2113;" horiz-adv-x="484" 
d="M38 108l-53 84l138 98l57 269c27 124 96 177 199 177c87 0 153 -53 153 -140c0 -123 -110 -216 -211 -301l-74 -62l-15 -71c-1 -10 -3 -18 -3 -26c0 -27 16 -42 43 -42c41 0 62 39 72 70l105 -73c-31 -53 -99 -103 -196 -103c-91 0 -161 48 -161 134c0 7 0 16 1 24z
M313 543l-34 -158l12 10c53 47 124 119 124 189c0 26 -12 45 -38 45c-35 0 -52 -30 -64 -86z" />
    <glyph glyph-name="uni2116" unicode="&#x2116;" horiz-adv-x="1163" 
d="M595 0h-192l-113 385c-14 47 -31 136 -31 136l-3 -1c-1 -3 -12 -84 -26 -147l-79 -373h-138l147 692h192l113 -385c14 -47 34 -136 34 -136h3s10 84 24 148l79 373h137zM777 474c0 130 108 230 241 230c103 0 175 -59 175 -150c0 -130 -109 -230 -241 -230
c-103 0 -175 58 -175 150zM1104 142h-395l24 115h395zM903 487c0 -37 23 -64 65 -64c59 1 99 58 99 117c0 37 -23 64 -66 64c-58 0 -98 -56 -98 -117z" />
    <glyph glyph-name="estimated" unicode="&#x212e;" horiz-adv-x="840" 
d="M201 332v-197c0 -7 4 -15 10 -23c60 -62 145 -103 241 -103c102 0 192 45 254 118h57c-71 -84 -186 -139 -312 -139c-217 0 -394 161 -394 358c0 195 177 358 394 358c218 0 394 -163 394 -358v-10h-637c-4 0 -7 -1 -7 -4zM208 358h489c2 0 5 2 5 6v194
c0 10 -4 17 -11 25c-61 61 -146 99 -239 99c-94 0 -179 -41 -240 -102c-7 -8 -11 -16 -11 -26v-190c0 -4 3 -6 7 -6z" />
    <glyph glyph-name="uni25A0" unicode="&#x25a0;" horiz-adv-x="815" 
d="M83 0v692h689v-692h-689z" />
    <glyph glyph-name="uni25A1" unicode="&#x25a1;" horiz-adv-x="815" 
d="M83 0v692h689v-692h-689zM227 557v-424h401v424h-401z" />
    <glyph glyph-name="uni25FC" unicode="&#x25fc;" horiz-adv-x="614" 
d="M65 0v504h498v-504h-498z" />
    <glyph glyph-name="uni25FB" unicode="&#x25fb;" horiz-adv-x="614" 
d="M65 0v504h498v-504h-498zM195 379v-255h238v255h-238z" />
    <glyph glyph-name="uni25B6" unicode="&#x25b6;" horiz-adv-x="645" 
d="M74 -59v624l4 2l575 -311v-5l-575 -313z" />
    <glyph glyph-name="uni25B7" unicode="&#x25b7;" horiz-adv-x="645" 
d="M74 -59v624l4 2l575 -311v-5l-575 -313zM205 359v-216l3 -2l201 111v3l-201 105z" />
    <glyph glyph-name="uni25C0" unicode="&#x25c0;" horiz-adv-x="645" 
d="M585 565v-624l-4 -3l-575 313v5l575 311z" />
    <glyph glyph-name="uni25C1" unicode="&#x25c1;" horiz-adv-x="645" 
d="M585 565v-624l-4 -3l-575 313v5l575 311zM454 143v216l-3 1l-201 -105v-3l201 -111z" />
    <glyph glyph-name="circle" unicode="&#x25cb;" horiz-adv-x="780" 
d="M56 346c0 208 152 358 356 358s357 -150 357 -358s-153 -358 -357 -358s-356 150 -356 358zM412 122c126 0 214 95 214 224s-88 224 -214 224c-125 0 -214 -95 -214 -224s89 -224 214 -224z" />
    <glyph glyph-name="H18533" unicode="&#x25cf;" horiz-adv-x="780" 
d="M412 704c204 0 357 -150 357 -358s-153 -358 -357 -358s-356 150 -356 358s152 358 356 358z" />
    <glyph glyph-name="arrowleft" unicode="&#x2190;" horiz-adv-x="690" 
d="M346 -5l-311 358l307 348l91 -82l-192 -203h443v-127h-443l196 -212z" />
    <glyph glyph-name="arrowup" unicode="&#x2191;" horiz-adv-x="690" 
d="M372 680l340 -291l-82 -87l-190 172v-425h-135v425l-191 -172l-81 87z" />
    <glyph glyph-name="arrowright" unicode="&#x2192;" horiz-adv-x="690" 
d="M703 353l-311 -358l-91 82l196 212h-443v127h443l-192 203l91 82z" />
    <glyph glyph-name="arrowdown" unicode="&#x2193;" horiz-adv-x="690" 
d="M706 315l-340 -291l-339 291l81 87l191 -172v425h135v-425l190 172z" />
    <glyph glyph-name="uni2196" unicode="&#x2196;" horiz-adv-x="690" 
d="M564 73l-340 342l6 -319h-118v520h519v-118l-316 7l339 -341z" />
    <glyph glyph-name="uni2197" unicode="&#x2197;" horiz-adv-x="690" 
d="M512 415l-340 -342l-90 91l339 341l-316 -7v118h519v-520h-118z" />
    <glyph glyph-name="uni2198" unicode="&#x2198;" horiz-adv-x="690" 
d="M172 636l340 -342l-6 319h118v-520h-519v118l316 -7l-339 341z" />
    <glyph glyph-name="uni2199" unicode="&#x2199;" horiz-adv-x="690" 
d="M224 294l340 342l90 -91l-339 -341l316 7v-118h-519v520h118z" />
    <glyph glyph-name="uni2605" unicode="&#x2605;" horiz-adv-x="705" 
d="M289 403l95 241h5l95 -241l250 -10l2 -5l-193 -159l65 -248l-5 -3l-217 142l-216 -142l-4 3l63 249l-192 158l2 5z" />
    <glyph glyph-name="a.dnom" horiz-adv-x="379" 
d="M160 318c43 0 70 -27 78 -56h3l11 49h107l-49 -225c-5 -24 -12 -52 -12 -68c0 -9 2 -18 2 -18h-81c-10 14 -13 29 -13 44v4h-2c-19 -28 -47 -55 -96 -55c-69 0 -104 66 -104 129c0 93 59 196 156 196zM154 73c50 0 70 66 70 110c0 32 -13 55 -42 55
c-49 0 -69 -66 -69 -110c0 -32 13 -55 41 -55z" />
    <glyph glyph-name="b.dnom" horiz-adv-x="376" 
d="M84 447h109l-24 -104c-8 -34 -23 -78 -23 -78h2c19 24 46 53 89 53c69 0 104 -66 104 -129c0 -94 -59 -196 -157 -196c-45 0 -72 28 -81 60h-3l-11 -53h-104zM191 238c-49 0 -70 -66 -70 -110c0 -32 13 -55 42 -55c49 0 69 66 69 110c0 32 -13 55 -41 55z" />
    <glyph glyph-name="c.dnom" horiz-adv-x="336" 
d="M176 242c-48 0 -67 -71 -67 -120c0 -31 10 -53 39 -53c35 0 50 35 53 71l93 -48c-16 -47 -73 -99 -155 -99s-139 57 -139 131c0 106 67 194 185 194c75 0 130 -44 131 -102l-106 -44c0 1 5 15 5 31c0 22 -13 39 -39 39z" />
    <glyph glyph-name="d.dnom" horiz-adv-x="375" 
d="M195 46h-2c-20 -24 -46 -53 -89 -53c-69 0 -104 66 -104 129c0 93 59 196 156 196c43 0 70 -27 78 -56h3l41 185h108l-99 -447h-107zM150 73c50 0 70 66 70 110c0 32 -13 55 -42 55c-49 0 -69 -66 -69 -110c0 -32 13 -55 41 -55z" />
    <glyph glyph-name="e.dnom" horiz-adv-x="348" 
d="M298 127h-200v-8c0 -28 16 -52 46 -52s49 15 60 42l87 -48c-32 -44 -89 -68 -149 -68c-87 0 -142 51 -142 132c0 105 68 193 187 193c77 0 131 -45 131 -115c0 -30 -10 -55 -20 -76zM179 247c-34 0 -55 -25 -67 -55h108c1 2 2 8 2 14c0 25 -15 41 -43 41z" />
    <glyph glyph-name="f.dnom" horiz-adv-x="246" 
d="M249 352c0 14 -7 26 -23 26c-21 0 -31 -14 -36 -37l-7 -30h66l-17 -76h-66l-52 -235h-106l51 235h-47l18 76h46l8 35c16 73 69 108 145 108c54 0 96 -25 114 -59l-94 -50v7z" />
    <glyph glyph-name="g.dnom" horiz-adv-x="353" 
d="M15 12v2c-18 6 -35 23 -35 44c0 42 50 63 89 68l1 2c-24 12 -47 40 -47 75c0 73 72 115 151 115c29 0 51 -3 71 -3c43 0 44 44 44 73l86 -51c-7 -34 -32 -63 -72 -63c-7 0 -17 1 -22 2l-1 -2c14 -13 28 -33 28 -62c0 -75 -89 -111 -162 -111c-31 0 -70 -5 -70 -25
c0 -10 11 -14 28 -14c25 0 53 4 86 4c68 0 112 -28 112 -75c0 -95 -112 -116 -205 -116c-89 0 -161 25 -161 72c0 39 40 59 79 65zM127 -13c-37 0 -97 -2 -97 -28c0 -17 29 -23 74 -23c30 0 90 3 90 32c0 17 -28 19 -67 19zM173 253c-30 0 -54 -20 -54 -50
c0 -24 17 -37 41 -37c30 0 55 20 55 50c0 24 -18 37 -42 37z" />
    <glyph glyph-name="h.dnom" horiz-adv-x="370" 
d="M326 194l-43 -194h-108l39 178c2 9 3 19 3 26c0 18 -9 31 -31 31c-33 0 -47 -29 -54 -62l-39 -173h-108l99 447h109l-25 -110c-9 -38 -23 -76 -23 -76h2c23 30 55 57 102 57c50 0 82 -33 82 -83c0 -11 -1 -27 -5 -41z" />
    <glyph glyph-name="i.dnom" horiz-adv-x="183" 
d="M63 390c0 35 28 60 68 60c31 0 55 -21 55 -49c0 -34 -29 -59 -69 -59c-31 0 -54 20 -54 48zM-15 0l68 311h110l-68 -311h-110z" />
    <glyph glyph-name="j.dnom" horiz-adv-x="188" 
d="M69 390c0 35 28 60 68 60c32 0 55 -21 55 -49c0 -34 -29 -59 -68 -59c-32 0 -55 20 -55 48zM-24 -128l-83 69c53 7 89 22 104 87l62 283h109l-66 -304c-17 -75 -56 -123 -126 -135z" />
    <glyph glyph-name="k.dnom" horiz-adv-x="365" 
d="M377 311l-137 -124l74 -187h-114l-44 113l-49 -48l-14 -65h-108l99 447h109l-42 -190c-9 -39 -22 -76 -22 -76h2s26 33 48 56l70 74h128z" />
    <glyph glyph-name="l.dnom" horiz-adv-x="183" 
d="M-15 0l98 447h110l-98 -447h-110z" />
    <glyph glyph-name="m.dnom" horiz-adv-x="540" 
d="M497 194l-43 -194h-106l39 178c2 11 3 19 3 26c0 18 -8 31 -28 31c-33 0 -44 -29 -51 -62l-39 -173h-106l39 178c3 11 4 19 4 26c0 18 -8 31 -28 31c-33 0 -44 -29 -51 -62l-39 -173h-106l68 311h108l-18 -50h3c22 30 52 57 99 57c39 0 65 -22 73 -55h3
c21 30 48 55 100 55c53 0 80 -33 80 -83c0 -11 -1 -27 -4 -41z" />
    <glyph glyph-name="n.dnom" horiz-adv-x="370" 
d="M326 194l-43 -194h-108l39 178c2 11 3 19 3 26c0 18 -9 31 -31 31c-33 0 -47 -29 -54 -62l-39 -173h-108l68 311h109l-17 -50h2c23 30 55 57 102 57c50 0 82 -33 82 -83c0 -11 -2 -27 -5 -41z" />
    <glyph glyph-name="o.dnom" horiz-adv-x="364" 
d="M0 125c0 106 68 193 186 193c82 0 143 -54 143 -132c0 -106 -68 -193 -186 -193c-82 0 -143 54 -143 132zM109 122c0 -31 13 -53 41 -53c49 0 70 71 70 120c0 31 -13 53 -41 53c-50 0 -70 -71 -70 -120z" />
    <glyph glyph-name="p.dnom" horiz-adv-x="376" 
d="M145 265h3c19 24 46 53 89 53c69 0 104 -66 104 -129c0 -94 -59 -196 -157 -196c-42 0 -69 27 -78 56h-2l-38 -170h-108l95 432h109zM191 238c-49 0 -70 -66 -70 -110c0 -32 13 -55 42 -55c49 0 69 66 69 110c0 32 -13 55 -41 55z" />
    <glyph glyph-name="q.dnom" horiz-adv-x="376" 
d="M242 261l10 50h105l-96 -432h-108l20 92c9 39 22 75 22 75h-2c-20 -24 -46 -53 -89 -53c-69 0 -104 66 -104 129c0 93 59 196 156 196c45 0 74 -29 83 -57h3zM150 73c50 0 70 66 70 110c0 32 -13 55 -42 55c-49 0 -69 -66 -69 -110c0 -32 13 -55 41 -55z" />
    <glyph glyph-name="r.dnom" horiz-adv-x="304" 
d="M-15 0l68 311h109l-17 -50h2c22 30 53 57 92 57c36 0 57 -26 57 -61c0 -26 -8 -48 -13 -62l-108 -51c10 23 18 48 18 68c0 13 -5 22 -19 22c-21 0 -33 -23 -42 -62l-39 -172h-108z" />
    <glyph glyph-name="s.dnom" horiz-adv-x="333" 
d="M74 115c10 -31 31 -50 66 -50c20 0 37 9 37 25c0 20 -36 27 -71 38c-41 12 -82 34 -82 85c0 68 70 105 143 105c72 0 121 -28 149 -72l-91 -42c-7 24 -28 42 -60 42c-17 0 -34 -8 -34 -22c0 -18 34 -20 77 -36c40 -15 78 -35 78 -87c0 -68 -72 -108 -146 -108
c-79 0 -134 28 -158 79z" />
    <glyph glyph-name="t.dnom" horiz-adv-x="246" 
d="M173 91l23 -74c-16 -11 -46 -24 -85 -24c-54 0 -88 28 -88 72c0 10 1 21 4 32l29 138h-48l17 76h49l13 59l119 55l-25 -114h68l-17 -76h-69l-28 -130c0 -4 -2 -9 -2 -14c0 -10 7 -15 16 -15c12 0 19 9 24 15z" />
    <glyph glyph-name="u.dnom" horiz-adv-x="367" 
d="M9 117l43 194h109l-40 -178c-2 -11 -3 -19 -3 -26c0 -18 7 -31 30 -31c33 0 46 29 53 62l38 173h108l-68 -311h-109l18 50h-3c-22 -30 -53 -57 -100 -57c-50 0 -81 33 -81 83c0 11 2 27 5 41z" />
    <glyph glyph-name="v.dnom" horiz-adv-x="334" 
d="M49 0l-29 311h111l2 -126v-94h3s22 56 39 94l58 126h116l-166 -311h-134z" />
    <glyph glyph-name="w.dnom" horiz-adv-x="497" 
d="M246 221c0 0 -18 -46 -32 -81l-57 -140h-133l6 311h107l-9 -106c-3 -42 -11 -113 -11 -113h2s32 84 48 125l37 94h122l-3 -106c-1 -41 -8 -113 -8 -113h3c0 1 30 87 43 125l33 94h108l-132 -311h-129l5 140c1 35 2 81 2 81h-2z" />
    <glyph glyph-name="x.dnom" horiz-adv-x="338" 
d="M141 115c0 0 -11 -24 -31 -56l-38 -59h-121l118 158l-42 153h113l9 -57c6 -33 9 -56 9 -56h3s10 23 30 56l35 57h120l-114 -156l52 -155h-114l-17 58c-7 31 -11 57 -11 57h-1z" />
    <glyph glyph-name="y.dnom" horiz-adv-x="335" 
d="M139 111h3s20 49 38 88l52 112h118l-183 -327c-27 -48 -57 -99 -116 -112l-84 67c38 8 74 22 95 59l5 8l-47 305h112l5 -108c1 -35 2 -92 2 -92z" />
    <glyph glyph-name="z.dnom" horiz-adv-x="321" 
d="M28 235l17 76h265l-12 -56l-167 -179h135l-17 -76h-276l13 56l166 179h-124z" />
    <glyph glyph-name="zero.dnom" horiz-adv-x="411" 
d="M226 345c-70 0 -100 -128 -100 -191c0 -40 10 -72 50 -72c71 0 101 128 101 191c0 40 -10 72 -51 72zM12 155c0 127 67 279 222 279c101 0 157 -71 157 -162c0 -127 -67 -279 -222 -279c-101 0 -157 71 -157 162z" />
    <glyph glyph-name="one.dnom" horiz-adv-x="263" 
d="M129 300h-2c-15 -16 -38 -29 -68 -34l-33 94c57 9 112 31 153 67h84l-95 -427h-108l52 237c7 29 17 63 17 63z" />
    <glyph glyph-name="two.dnom" horiz-adv-x="361" 
d="M140 223l-103 46s-2 11 -2 21c0 86 75 144 174 144c81 0 149 -54 149 -124c0 -137 -185 -186 -213 -217v-1h161l-21 -92h-299v10c0 160 260 192 260 292c0 25 -16 43 -44 43c-47 0 -64 -46 -64 -90c0 -12 2 -31 2 -32z" />
    <glyph glyph-name="three.dnom" horiz-adv-x="359" 
d="M139 -7c-84 0 -141 44 -151 106l104 48v-11c0 -32 18 -54 54 -54c38 0 66 30 66 68c0 27 -19 47 -49 47c-29 0 -50 -11 -72 -20l-22 86l121 75h-137l20 89h298l-15 -76l-94 -57c-31 -19 -76 -35 -76 -35c0 -1 1 -2 1 -3c2 0 7 1 12 1c72 0 121 -45 121 -110
c0 -86 -83 -154 -181 -154z" />
    <glyph glyph-name="four.dnom" horiz-adv-x="380" 
d="M185 102h-171l-12 62c54 66 97 153 116 270l101 -50c-19 -88 -57 -143 -97 -195h82l53 238h106l-52 -238h45l-19 -87h-46l-22 -102h-107z" />
    <glyph glyph-name="five.dnom" horiz-adv-x="365" 
d="M142 -7c-83 0 -142 44 -152 106l105 48v-11c0 -28 16 -52 48 -52c42 0 78 32 78 81c0 34 -21 49 -44 49c-24 0 -51 -13 -64 -42l-88 39l76 216h255l-20 -89h-165l-11 -31c-8 -25 -22 -45 -21 -45l1 -1c19 15 47 30 81 30c71 0 108 -60 108 -126c0 -88 -77 -172 -187 -172
z" />
    <glyph glyph-name="six.dnom" horiz-adv-x="377" 
d="M242 434c64 0 124 -30 140 -87l-103 -51s1 1 1 3c0 26 -15 50 -47 50c-44 0 -81 -38 -103 -104c1 0 2 -1 3 -1c22 29 60 41 95 41c68 0 118 -51 118 -125c0 -92 -72 -167 -178 -167c-107 0 -156 65 -156 154c0 136 69 287 230 287zM168 74c47 0 75 38 75 82
c0 32 -19 56 -54 56c-47 0 -75 -36 -75 -79c0 -33 19 -59 54 -59z" />
    <glyph glyph-name="seven.dnom" horiz-adv-x="347" 
d="M383 427l-13 -68c-81 -103 -151 -233 -178 -359h-125c29 133 119 261 177 335h-105l-21 -98l-90 55l30 135h325z" />
    <glyph glyph-name="eight.dnom" horiz-adv-x="385" 
d="M156 -7c-93 0 -161 47 -161 116c0 71 64 110 117 118v3c-33 14 -59 42 -59 83c0 76 82 121 171 121c80 0 146 -46 146 -106c0 -56 -44 -92 -99 -105l-1 -3c31 -13 71 -39 71 -90c0 -85 -87 -137 -185 -137zM101 121c0 -29 26 -47 62 -47c38 0 74 22 74 60
c0 29 -27 47 -62 47c-39 0 -74 -22 -74 -60zM151 301c0 -23 21 -39 52 -39c33 0 67 16 67 52c0 23 -21 39 -52 39c-33 0 -67 -16 -67 -52z" />
    <glyph glyph-name="nine.dnom" horiz-adv-x="379" 
d="M142 -7c-64 0 -126 30 -142 88l102 51v-3c0 -27 15 -51 48 -51c47 0 74 39 91 105c-1 0 -1 1 -2 1c-22 -24 -54 -37 -91 -37c-73 0 -124 51 -124 125c0 91 73 162 177 162c106 0 157 -65 157 -156c0 -132 -50 -285 -216 -285zM200 353c-45 0 -73 -35 -73 -79
c0 -32 20 -54 55 -54c46 0 75 33 75 77c0 32 -21 56 -57 56z" />
    <glyph glyph-name="dollar.dnom" horiz-adv-x="403" 
d="M99 -57l14 66c-66 16 -108 58 -119 111l97 50s0 -2 1 -4c0 -34 15 -64 44 -79l20 90c-61 21 -114 57 -114 122c0 74 76 122 164 126l12 57h87l-16 -67c53 -15 94 -48 111 -93l-98 -50c-1 8 -1 14 -3 22c-2 19 -14 35 -32 44l-19 -86c58 -25 118 -51 118 -120
c0 -75 -76 -124 -168 -130l-13 -59h-86zM265 122c0 19 -16 30 -37 40l-18 -84c33 4 55 20 55 44zM144 307c0 -18 13 -29 32 -38l18 79c-29 -5 -50 -20 -50 -41z" />
    <glyph glyph-name="cent.dnom" horiz-adv-x="382" 
d="M94 -57l14 64c-61 14 -102 58 -102 128c0 91 69 161 169 175l14 61h87l-14 -64c49 -11 82 -40 89 -70c3 -7 4 -14 4 -19l-93 -40c1 3 1 8 1 15c0 16 -8 29 -24 37l-32 -147c25 9 40 30 44 55l85 -44c-20 -45 -74 -80 -142 -89l-12 -62h-88zM106 136c0 -25 8 -42 25 -51
l33 146c-37 -15 -58 -54 -58 -95z" />
    <glyph glyph-name="Euro.dnom" horiz-adv-x="425" 
d="M271 226h-102c-2 -11 -4 -23 -5 -33h93l-33 -65h-60c4 -33 19 -54 52 -54c43 0 69 40 78 94l92 -62c-15 -46 -80 -113 -174 -113c-84 0 -144 46 -155 135h-56l14 65h41c2 11 3 22 6 33h-40l15 64h45c35 81 102 144 203 144c82 0 138 -45 147 -112l-104 -56c0 2 4 16 4 30
c0 34 -15 57 -55 57c-38 0 -66 -27 -85 -63h112z" />
    <glyph glyph-name="yen.dnom" horiz-adv-x="414" 
d="M336 90h-106l-20 -90h-108l20 90h-107l15 65h106c0 2 1 3 1 5l-10 32h-89l15 65h53l-53 170h115l26 -118c7 -31 12 -61 12 -61c3 0 9 14 28 42l90 137h124l-128 -170h53l-14 -65h-89l-19 -25l-7 -12h107z" />
    <glyph glyph-name="sterling.dnom" horiz-adv-x="390" 
d="M269 168h-82c-6 -33 -21 -60 -46 -79h194l-20 -89h-320l16 71c42 17 64 54 69 97h-67l16 76h53c0 10 1 21 1 30c0 99 58 160 167 160c70 0 135 -36 147 -103l-99 -52c0 1 1 14 1 22c0 25 -14 47 -46 47c-41 0 -61 -30 -61 -75v-29h115z" />
    <glyph glyph-name="plus.dnom" horiz-adv-x="393" 
d="M103 28l28 131h-123l20 87h123l28 128h98l-29 -128h124l-21 -87h-123l-29 -131h-96z" />
    <glyph glyph-name="minus.dnom" horiz-adv-x="393" 
d="M341 158h-322l20 89h322z" />
    <glyph glyph-name="multiply.dnom" horiz-adv-x="393" 
d="M59 42l-60 66l127 97l-83 100l74 55l80 -99l119 96l60 -66l-125 -97l87 -100l-74 -55l-83 101z" />
    <glyph glyph-name="divide.dnom" horiz-adv-x="393" 
d="M341 159h-322l20 87h321zM100 70c0 35 29 60 68 60c33 0 55 -21 55 -49c0 -34 -28 -60 -68 -60c-32 0 -55 21 -55 49zM155 326c0 35 28 61 68 61c32 0 55 -21 55 -50c0 -34 -29 -60 -68 -60c-33 0 -55 21 -55 49z" />
    <glyph glyph-name="equal.dnom" horiz-adv-x="393" 
d="M326 93h-322l20 83h320zM355 224h-321l19 82h321z" />
    <glyph glyph-name="period.dnom" horiz-adv-x="193" 
d="M-9 45c0 38 30 65 72 65c34 0 58 -23 58 -53c0 -37 -30 -64 -72 -64c-33 0 -58 22 -58 52z" />
    <glyph glyph-name="comma.dnom" horiz-adv-x="193" 
d="M118 44c0 -63 -33 -115 -93 -142l-50 41c35 12 69 26 85 63c-4 -1 -9 -1 -16 -1c-29 0 -50 18 -50 44c0 35 28 61 65 61s59 -24 59 -66z" />
    <glyph glyph-name="hyphen.dnom" horiz-adv-x="236" 
d="M185 140h-177l19 83h177z" />
    <glyph glyph-name="parenleft.dnom" horiz-adv-x="246" 
d="M190 477l81 -42c-95 -96 -148 -192 -148 -329c0 -68 14 -124 37 -168l-87 -42c-28 44 -59 127 -59 213c0 150 59 273 176 368z" />
    <glyph glyph-name="parenright.dnom" horiz-adv-x="246" 
d="M24 -105l-81 43c96 96 148 191 148 329c0 68 -14 123 -37 168l87 42c29 -44 59 -128 59 -213c0 -151 -58 -272 -176 -369z" />
    <glyph glyph-name="a.numr" horiz-adv-x="375" 
d="M217 595c43 0 70 -27 78 -56h3l11 49h107l-49 -225c-5 -24 -12 -52 -12 -68c0 -9 2 -18 2 -18h-81c-10 14 -13 29 -13 44v4h-2c-19 -28 -47 -55 -96 -55c-69 0 -104 66 -104 129c0 93 59 196 156 196zM211 350c50 0 70 66 70 110c0 32 -13 55 -42 55
c-49 0 -69 -66 -69 -110c0 -32 13 -55 41 -55z" />
    <glyph glyph-name="b.numr" horiz-adv-x="376" 
d="M145 724h109l-24 -104c-8 -34 -23 -78 -23 -78h2c19 24 46 53 89 53c69 0 104 -66 104 -129c0 -94 -59 -196 -157 -196c-45 0 -72 28 -81 60h-3l-11 -53h-104zM252 515c-49 0 -70 -66 -70 -110c0 -32 13 -55 42 -55c49 0 69 66 69 110c0 32 -13 55 -41 55z" />
    <glyph glyph-name="c.numr" horiz-adv-x="336" 
d="M237 519c-48 0 -67 -71 -67 -120c0 -31 10 -53 39 -53c35 0 50 35 53 71l93 -48c-16 -47 -73 -99 -155 -99s-139 57 -139 131c0 106 67 194 185 194c75 0 130 -44 131 -102l-106 -44c0 1 5 15 5 31c0 22 -13 39 -39 39z" />
    <glyph glyph-name="d.numr" horiz-adv-x="375" 
d="M256 323h-2c-20 -24 -46 -53 -89 -53c-69 0 -104 66 -104 129c0 93 59 196 156 196c43 0 70 -27 78 -56h3l41 185h108l-99 -447h-107zM211 350c50 0 70 66 70 110c0 32 -13 55 -42 55c-49 0 -69 -66 -69 -110c0 -32 13 -55 41 -55z" />
    <glyph glyph-name="e.numr" horiz-adv-x="348" 
d="M359 404h-200v-8c0 -28 16 -52 46 -52s49 15 60 42l87 -48c-32 -44 -89 -68 -149 -68c-87 0 -142 51 -142 132c0 105 68 193 187 193c77 0 131 -45 131 -115c0 -30 -10 -55 -20 -76zM240 524c-34 0 -55 -25 -67 -55h108c1 2 2 8 2 14c0 25 -15 41 -43 41z" />
    <glyph glyph-name="f.numr" horiz-adv-x="246" 
d="M310 629c0 14 -7 26 -23 26c-21 0 -31 -14 -36 -37l-7 -30h66l-17 -76h-66l-52 -235h-106l51 235h-47l18 76h46l8 35c16 73 69 108 145 108c54 0 96 -25 114 -59l-94 -50v7z" />
    <glyph glyph-name="g.numr" horiz-adv-x="353" 
d="M76 289v2c-18 6 -35 23 -35 44c0 42 50 63 89 68l1 2c-24 12 -47 40 -47 75c0 73 72 115 151 115c29 0 51 -3 71 -3c43 0 44 44 44 73l86 -51c-7 -34 -32 -63 -72 -63c-7 0 -17 1 -22 2l-1 -2c14 -13 28 -33 28 -62c0 -75 -89 -111 -162 -111c-31 0 -70 -5 -70 -25
c0 -10 11 -14 28 -14c25 0 53 4 86 4c68 0 112 -28 112 -75c0 -95 -112 -116 -205 -116c-89 0 -161 25 -161 72c0 39 40 59 79 65zM188 264c-37 0 -97 -2 -97 -28c0 -17 29 -23 74 -23c30 0 90 3 90 32c0 17 -28 19 -67 19zM234 530c-30 0 -54 -20 -54 -50
c0 -24 17 -37 41 -37c30 0 55 20 55 50c0 24 -18 37 -42 37z" />
    <glyph glyph-name="h.numr" horiz-adv-x="370" 
d="M387 471l-43 -194h-108l39 178c2 9 3 19 3 26c0 18 -9 31 -31 31c-33 0 -47 -29 -54 -62l-39 -173h-108l99 447h109l-25 -110c-9 -38 -23 -76 -23 -76h2c23 30 55 57 102 57c50 0 82 -33 82 -83c0 -11 -1 -27 -5 -41z" />
    <glyph glyph-name="i.numr" horiz-adv-x="183" 
d="M124 667c0 35 28 60 68 60c31 0 55 -21 55 -49c0 -34 -29 -59 -69 -59c-31 0 -54 20 -54 48zM46 277l68 311h110l-68 -311h-110z" />
    <glyph glyph-name="j.numr" horiz-adv-x="188" 
d="M130 667c0 35 28 60 68 60c32 0 55 -21 55 -49c0 -34 -29 -59 -68 -59c-32 0 -55 20 -55 48zM37 149l-83 69c53 7 89 22 104 87l62 283h109l-66 -304c-17 -75 -56 -123 -126 -135z" />
    <glyph glyph-name="k.numr" horiz-adv-x="365" 
d="M438 588l-137 -124l74 -187h-114l-44 113l-49 -48l-14 -65h-108l99 447h109l-42 -190c-9 -39 -22 -76 -22 -76h2s26 33 48 56l70 74h128z" />
    <glyph glyph-name="l.numr" horiz-adv-x="183" 
d="M46 277l98 447h110l-98 -447h-110z" />
    <glyph glyph-name="m.numr" horiz-adv-x="540" 
d="M558 471l-43 -194h-106l39 178c2 11 3 19 3 26c0 18 -8 31 -28 31c-33 0 -44 -29 -51 -62l-39 -173h-106l39 178c3 11 4 19 4 26c0 18 -8 31 -28 31c-33 0 -44 -29 -51 -62l-39 -173h-106l68 311h108l-18 -50h3c22 30 52 57 99 57c39 0 65 -22 73 -55h3
c21 30 48 55 100 55c53 0 80 -33 80 -83c0 -11 -1 -27 -4 -41z" />
    <glyph glyph-name="n.numr" horiz-adv-x="370" 
d="M387 471l-43 -194h-108l39 178c2 11 3 19 3 26c0 18 -9 31 -31 31c-33 0 -47 -29 -54 -62l-39 -173h-108l68 311h109l-17 -50h2c23 30 55 57 102 57c50 0 82 -33 82 -83c0 -11 -2 -27 -5 -41z" />
    <glyph glyph-name="o.numr" horiz-adv-x="364" 
d="M61 402c0 106 68 193 186 193c82 0 143 -54 143 -132c0 -106 -68 -193 -186 -193c-82 0 -143 54 -143 132zM170 399c0 -31 13 -53 41 -53c49 0 70 71 70 120c0 31 -13 53 -41 53c-50 0 -70 -71 -70 -120z" />
    <glyph glyph-name="p.numr" horiz-adv-x="376" 
d="M206 542h3c19 24 46 53 89 53c69 0 104 -66 104 -129c0 -94 -59 -196 -157 -196c-42 0 -69 27 -78 56h-2l-38 -170h-108l95 432h109zM252 515c-49 0 -70 -66 -70 -110c0 -32 13 -55 42 -55c49 0 69 66 69 110c0 32 -13 55 -41 55z" />
    <glyph glyph-name="q.numr" horiz-adv-x="376" 
d="M303 538l10 50h105l-96 -432h-108l20 92c9 39 22 75 22 75h-2c-20 -24 -46 -53 -89 -53c-69 0 -104 66 -104 129c0 93 59 196 156 196c45 0 74 -29 83 -57h3zM211 350c50 0 70 66 70 110c0 32 -13 55 -42 55c-49 0 -69 -66 -69 -110c0 -32 13 -55 41 -55z" />
    <glyph glyph-name="r.numr" horiz-adv-x="304" 
d="M46 277l68 311h109l-17 -50h2c22 30 53 57 92 57c36 0 57 -26 57 -61c0 -26 -8 -48 -13 -62l-108 -51c10 23 18 48 18 68c0 13 -5 22 -19 22c-21 0 -33 -23 -42 -62l-39 -172h-108z" />
    <glyph glyph-name="s.numr" horiz-adv-x="333" 
d="M135 392c10 -31 31 -50 66 -50c20 0 37 9 37 25c0 20 -36 27 -71 38c-41 12 -82 34 -82 85c0 68 70 105 143 105c72 0 121 -28 149 -72l-91 -42c-7 24 -28 42 -60 42c-17 0 -34 -8 -34 -22c0 -18 34 -20 77 -36c40 -15 78 -35 78 -87c0 -68 -72 -108 -146 -108
c-79 0 -134 28 -158 79z" />
    <glyph glyph-name="t.numr" horiz-adv-x="246" 
d="M234 368l23 -74c-16 -11 -46 -24 -85 -24c-54 0 -88 28 -88 72c0 10 1 21 4 32l29 138h-48l17 76h49l13 59l119 55l-25 -114h68l-17 -76h-69l-28 -130c0 -4 -2 -9 -2 -14c0 -10 7 -15 16 -15c12 0 19 9 24 15z" />
    <glyph glyph-name="u.numr" horiz-adv-x="367" 
d="M70 394l43 194h109l-40 -178c-2 -11 -3 -19 -3 -26c0 -18 7 -31 30 -31c33 0 46 29 53 62l38 173h108l-68 -311h-109l18 50h-3c-22 -30 -53 -57 -100 -57c-50 0 -81 33 -81 83c0 11 2 27 5 41z" />
    <glyph glyph-name="v.numr" horiz-adv-x="334" 
d="M110 277l-29 311h111l2 -126v-94h3s22 56 39 94l58 126h116l-166 -311h-134z" />
    <glyph glyph-name="w.numr" horiz-adv-x="497" 
d="M307 498c0 0 -18 -46 -32 -81l-57 -140h-133l6 311h107l-9 -106c-3 -42 -11 -113 -11 -113h2s32 84 48 125l37 94h122l-3 -106c-1 -41 -8 -113 -8 -113h3c0 1 30 87 43 125l33 94h108l-132 -311h-129l5 140c1 35 2 81 2 81h-2z" />
    <glyph glyph-name="x.numr" horiz-adv-x="338" 
d="M202 392c0 0 -11 -24 -31 -56l-38 -59h-121l118 158l-42 153h113l9 -57c6 -33 9 -56 9 -56h3s10 23 30 56l35 57h120l-114 -156l52 -155h-114l-17 58c-7 31 -11 57 -11 57h-1z" />
    <glyph glyph-name="y.numr" horiz-adv-x="335" 
d="M200 388h3s20 49 38 88l52 112h118l-183 -327c-27 -48 -57 -99 -116 -112l-84 67c38 8 74 22 95 59l5 8l-47 305h112l5 -108c1 -35 2 -92 2 -92z" />
    <glyph glyph-name="z.numr" horiz-adv-x="321" 
d="M89 512l17 76h265l-12 -56l-167 -179h135l-17 -76h-276l13 56l166 179h-124z" />
    <glyph glyph-name="zero.numr" horiz-adv-x="411" 
d="M287 622c-70 0 -100 -128 -100 -191c0 -40 10 -72 50 -72c71 0 101 128 101 191c0 40 -10 72 -51 72zM73 432c0 127 67 279 222 279c101 0 157 -71 157 -162c0 -127 -67 -279 -222 -279c-101 0 -157 71 -157 162z" />
    <glyph glyph-name="one.numr" horiz-adv-x="263" 
d="M190 577h-2c-15 -16 -38 -29 -68 -34l-33 94c57 9 112 31 153 67h84l-95 -427h-108l52 237c7 29 17 63 17 63z" />
    <glyph glyph-name="two.numr" horiz-adv-x="361" 
d="M201 500l-103 46s-2 11 -2 21c0 86 75 144 174 144c81 0 149 -54 149 -124c0 -137 -185 -186 -213 -217v-1h161l-21 -92h-299v10c0 160 260 192 260 292c0 25 -16 43 -44 43c-47 0 -64 -46 -64 -90c0 -12 2 -31 2 -32z" />
    <glyph glyph-name="three.numr" horiz-adv-x="359" 
d="M200 270c-84 0 -141 44 -151 106l104 48v-11c0 -32 18 -54 54 -54c38 0 66 30 66 68c0 27 -19 47 -49 47c-29 0 -50 -11 -72 -20l-22 86l121 75h-137l20 89h298l-15 -76l-94 -57c-31 -19 -76 -35 -76 -35c0 -1 1 -2 1 -3c2 0 7 1 12 1c72 0 121 -45 121 -110
c0 -86 -83 -154 -181 -154z" />
    <glyph glyph-name="four.numr" horiz-adv-x="380" 
d="M246 379h-171l-12 62c54 66 97 153 116 270l101 -50c-19 -88 -57 -143 -97 -195h82l53 238h106l-52 -238h45l-19 -87h-46l-22 -102h-107z" />
    <glyph glyph-name="five.numr" horiz-adv-x="365" 
d="M203 270c-83 0 -142 44 -152 106l105 48v-11c0 -28 16 -52 48 -52c42 0 78 32 78 81c0 34 -21 49 -44 49c-24 0 -51 -13 -64 -42l-88 39l76 216h255l-20 -89h-165l-11 -31c-8 -25 -22 -45 -21 -45l1 -1c19 15 47 30 81 30c71 0 108 -60 108 -126
c0 -88 -77 -172 -187 -172z" />
    <glyph glyph-name="six.numr" horiz-adv-x="377" 
d="M303 711c64 0 124 -30 140 -87l-103 -51s1 1 1 3c0 26 -15 50 -47 50c-44 0 -81 -38 -103 -104c1 0 2 -1 3 -1c22 29 60 41 95 41c68 0 118 -51 118 -125c0 -92 -72 -167 -178 -167c-107 0 -156 65 -156 154c0 136 69 287 230 287zM229 351c47 0 75 38 75 82
c0 32 -19 56 -54 56c-47 0 -75 -36 -75 -79c0 -33 19 -59 54 -59z" />
    <glyph glyph-name="seven.numr" horiz-adv-x="347" 
d="M444 704l-13 -68c-81 -103 -151 -233 -178 -359h-125c29 133 119 261 177 335h-105l-21 -98l-90 55l30 135h325z" />
    <glyph glyph-name="eight.numr" horiz-adv-x="385" 
d="M217 270c-93 0 -161 47 -161 116c0 71 64 110 117 118v3c-33 14 -59 42 -59 83c0 76 82 121 171 121c80 0 146 -46 146 -106c0 -56 -44 -92 -99 -105l-1 -3c31 -13 71 -39 71 -90c0 -85 -87 -137 -185 -137zM162 398c0 -29 26 -47 62 -47c38 0 74 22 74 60
c0 29 -27 47 -62 47c-39 0 -74 -22 -74 -60zM212 578c0 -23 21 -39 52 -39c33 0 67 16 67 52c0 23 -21 39 -52 39c-33 0 -67 -16 -67 -52z" />
    <glyph glyph-name="nine.numr" horiz-adv-x="379" 
d="M203 270c-64 0 -126 30 -142 88l102 51v-3c0 -27 15 -51 48 -51c47 0 74 39 91 105c-1 0 -1 1 -2 1c-22 -24 -54 -37 -91 -37c-73 0 -124 51 -124 125c0 91 73 162 177 162c106 0 157 -65 157 -156c0 -132 -50 -285 -216 -285zM261 630c-45 0 -73 -35 -73 -79
c0 -32 20 -54 55 -54c46 0 75 33 75 77c0 32 -21 56 -57 56z" />
    <glyph glyph-name="dollar.numr" horiz-adv-x="403" 
d="M160 220l14 66c-66 16 -108 58 -119 111l97 50s0 -2 1 -4c0 -34 15 -64 44 -79l20 90c-61 21 -114 57 -114 122c0 74 76 122 164 126l12 57h87l-16 -67c53 -15 94 -48 111 -93l-98 -50c-1 8 -1 14 -3 22c-2 19 -14 35 -32 44l-19 -86c58 -25 118 -51 118 -120
c0 -75 -76 -124 -168 -130l-13 -59h-86zM326 399c0 19 -16 30 -37 40l-18 -84c33 4 55 20 55 44zM205 584c0 -18 13 -29 32 -38l18 79c-29 -5 -50 -20 -50 -41z" />
    <glyph glyph-name="cent.numr" horiz-adv-x="382" 
d="M155 220l14 64c-61 14 -102 58 -102 128c0 91 69 161 169 175l14 61h87l-14 -64c49 -11 82 -40 89 -70c3 -7 4 -14 4 -19l-93 -40c1 3 1 8 1 15c0 16 -8 29 -24 37l-32 -147c25 9 40 30 44 55l85 -44c-20 -45 -74 -80 -142 -89l-12 -62h-88zM167 413c0 -25 8 -42 25 -51
l33 146c-37 -15 -58 -54 -58 -95z" />
    <glyph glyph-name="Euro.numr" horiz-adv-x="425" 
d="M332 503h-102c-2 -11 -4 -23 -5 -33h93l-33 -65h-60c4 -33 19 -54 52 -54c43 0 69 40 78 94l92 -62c-15 -46 -80 -113 -174 -113c-84 0 -144 46 -155 135h-56l14 65h41c2 11 3 22 6 33h-40l15 64h45c35 81 102 144 203 144c82 0 138 -45 147 -112l-104 -56c0 2 4 16 4 30
c0 34 -15 57 -55 57c-38 0 -66 -27 -85 -63h112z" />
    <glyph glyph-name="yen.numr" horiz-adv-x="414" 
d="M402 367h-106l-20 -90h-108l20 90h-107l15 65h106c0 2 1 3 1 5l-10 32h-89l15 65h53l-53 170h115l26 -118c7 -31 12 -61 12 -61c3 0 9 14 28 42l90 137h124l-128 -170h53l-14 -65h-89l-19 -25l-7 -12h107z" />
    <glyph glyph-name="sterling.numr" horiz-adv-x="390" 
d="M330 445h-82c-6 -33 -21 -60 -46 -79h194l-20 -89h-320l16 71c42 17 64 54 69 97h-67l16 76h53c0 10 1 21 1 30c0 99 58 160 167 160c70 0 135 -36 147 -103l-99 -52c0 1 1 14 1 22c0 25 -14 47 -46 47c-41 0 -61 -30 -61 -75v-29h115z" />
    <glyph glyph-name="plus.numr" horiz-adv-x="393" 
d="M164 305l28 131h-123l20 87h123l28 128h98l-29 -128h124l-21 -87h-123l-29 -131h-96z" />
    <glyph glyph-name="minus.numr" horiz-adv-x="393" 
d="M402 435h-322l20 89h322z" />
    <glyph glyph-name="multiply.numr" horiz-adv-x="393" 
d="M120 319l-60 66l127 97l-83 100l74 55l80 -99l119 96l60 -66l-125 -97l87 -100l-74 -55l-83 101z" />
    <glyph glyph-name="divide.numr" horiz-adv-x="393" 
d="M403 436h-322l20 87h321zM162 347c0 35 29 60 68 60c33 0 55 -21 55 -49c0 -34 -28 -60 -68 -60c-32 0 -55 21 -55 49zM217 603c0 35 28 61 68 61c32 0 55 -21 55 -50c0 -34 -29 -60 -68 -60c-33 0 -55 21 -55 49z" />
    <glyph glyph-name="equal.numr" horiz-adv-x="393" 
d="M387 370h-322l20 83h320zM416 501h-321l19 82h321z" />
    <glyph glyph-name="period.numr" horiz-adv-x="193" 
d="M52 322c0 38 30 65 72 65c34 0 58 -23 58 -53c0 -37 -30 -64 -72 -64c-33 0 -58 22 -58 52z" />
    <glyph glyph-name="comma.numr" horiz-adv-x="193" 
d="M180 321c0 -63 -33 -115 -93 -142l-50 41c35 12 69 26 85 63c-4 -1 -9 -1 -16 -1c-29 0 -50 18 -50 44c0 35 28 61 65 61s59 -24 59 -66z" />
    <glyph glyph-name="hyphen.numr" horiz-adv-x="236" 
d="M246 417h-177l19 83h177z" />
    <glyph glyph-name="parenleft.numr" horiz-adv-x="246" 
d="M250 754l81 -42c-95 -96 -148 -192 -148 -329c0 -68 14 -124 37 -168l-87 -42c-28 44 -59 127 -59 213c0 150 59 273 176 368z" />
    <glyph glyph-name="parenright.numr" horiz-adv-x="246" 
d="M85 172l-81 43c96 96 148 191 148 329c0 68 -14 123 -37 168l87 42c29 -44 59 -128 59 -213c0 -151 -58 -272 -176 -369z" />
    <glyph glyph-name="uni2090" unicode="&#x2090;" horiz-adv-x="375" 
d="M133 210c43 0 70 -27 78 -56h3l11 49h107l-49 -225c-5 -24 -12 -52 -12 -68c0 -9 2 -18 2 -18h-81c-10 14 -13 29 -13 44v4h-2c-19 -28 -47 -55 -96 -55c-69 0 -104 66 -104 129c0 93 59 196 156 196zM127 -35c50 0 70 66 70 110c0 32 -13 55 -42 55
c-49 0 -69 -66 -69 -110c0 -32 13 -55 41 -55z" />
    <glyph glyph-name="b.subs" horiz-adv-x="376" 
d="M61 339h109l-24 -104c-8 -34 -23 -78 -23 -78h2c19 24 46 53 89 53c69 0 104 -66 104 -129c0 -94 -59 -196 -157 -196c-45 0 -72 28 -81 60h-3l-11 -53h-104zM168 130c-49 0 -70 -66 -70 -110c0 -32 13 -55 42 -55c49 0 69 66 69 110c0 32 -13 55 -41 55z" />
    <glyph glyph-name="c.subs" horiz-adv-x="336" 
d="M153 134c-48 0 -67 -71 -67 -120c0 -31 10 -53 39 -53c35 0 50 35 53 71l93 -48c-16 -47 -73 -99 -155 -99s-139 57 -139 131c0 106 67 194 185 194c75 0 130 -44 131 -102l-106 -44c0 1 5 15 5 31c0 22 -13 39 -39 39z" />
    <glyph glyph-name="d.subs" horiz-adv-x="375" 
d="M172 -62h-2c-20 -24 -46 -53 -89 -53c-69 0 -104 66 -104 129c0 93 59 196 156 196c43 0 70 -27 78 -56h3l41 185h108l-99 -447h-107zM127 -35c50 0 70 66 70 110c0 32 -13 55 -42 55c-49 0 -69 -66 -69 -110c0 -32 13 -55 41 -55z" />
    <glyph glyph-name="uni2091" unicode="&#x2091;" horiz-adv-x="348" 
d="M275 19h-200v-8c0 -28 16 -52 46 -52s49 15 60 42l87 -48c-32 -44 -89 -68 -149 -68c-87 0 -142 51 -142 132c0 105 68 193 187 193c77 0 131 -45 131 -115c0 -30 -10 -55 -20 -76zM156 139c-34 0 -55 -25 -67 -55h108c1 2 2 8 2 14c0 25 -15 41 -43 41z" />
    <glyph glyph-name="f.subs" horiz-adv-x="246" 
d="M226 244c0 14 -7 26 -23 26c-21 0 -31 -14 -36 -37l-7 -30h66l-17 -76h-66l-52 -235h-106l51 235h-47l18 76h46l8 35c16 73 69 108 145 108c54 0 96 -25 114 -59l-94 -50v7z" />
    <glyph glyph-name="g.subs" horiz-adv-x="353" 
d="M-8 -96v2c-18 6 -35 23 -35 44c0 42 50 63 89 68l1 2c-24 12 -47 40 -47 75c0 73 72 115 151 115c29 0 51 -3 71 -3c43 0 44 44 44 73l86 -51c-7 -34 -32 -63 -72 -63c-7 0 -17 1 -22 2l-1 -2c14 -13 28 -33 28 -62c0 -75 -89 -111 -162 -111c-31 0 -70 -5 -70 -25
c0 -10 11 -14 28 -14c25 0 53 4 86 4c68 0 112 -28 112 -75c0 -95 -112 -116 -205 -116c-89 0 -161 25 -161 72c0 39 40 59 79 65zM104 -121c-37 0 -97 -2 -97 -28c0 -17 29 -23 74 -23c30 0 90 3 90 32c0 17 -28 19 -67 19zM150 145c-30 0 -54 -20 -54 -50
c0 -24 17 -37 41 -37c30 0 55 20 55 50c0 24 -18 37 -42 37z" />
    <glyph glyph-name="uni2095" unicode="&#x2095;" horiz-adv-x="370" 
d="M303 86l-43 -194h-108l39 178c2 9 3 19 3 26c0 18 -9 31 -31 31c-33 0 -47 -29 -54 -62l-39 -173h-108l99 447h109l-25 -110c-9 -38 -23 -76 -23 -76h2c23 30 55 57 102 57c50 0 82 -33 82 -83c0 -11 -1 -27 -5 -41z" />
    <glyph glyph-name="i.subs" horiz-adv-x="183" 
d="M40 282c0 35 28 60 68 60c31 0 55 -21 55 -49c0 -34 -29 -59 -69 -59c-31 0 -54 20 -54 48zM-38 -108l68 311h110l-68 -311h-110z" />
    <glyph glyph-name="j.subs" horiz-adv-x="188" 
d="M47 282c0 35 28 60 68 60c32 0 55 -21 55 -49c0 -34 -29 -59 -68 -59c-32 0 -55 20 -55 48zM-46 -236l-83 69c53 7 89 22 104 87l62 283h109l-66 -304c-17 -75 -56 -123 -126 -135z" />
    <glyph glyph-name="uni2096" unicode="&#x2096;" horiz-adv-x="365" 
d="M354 203l-137 -124l74 -187h-114l-44 113l-49 -48l-14 -65h-108l99 447h109l-42 -190c-9 -39 -22 -76 -22 -76h2s26 33 48 56l70 74h128z" />
    <glyph glyph-name="uni2097" unicode="&#x2097;" horiz-adv-x="183" 
d="M-38 -108l98 447h110l-98 -447h-110z" />
    <glyph glyph-name="uni2098" unicode="&#x2098;" horiz-adv-x="540" 
d="M474 86l-43 -194h-106l39 178c2 11 3 19 3 26c0 18 -8 31 -28 31c-33 0 -44 -29 -51 -62l-39 -173h-106l39 178c3 11 4 19 4 26c0 18 -8 31 -28 31c-33 0 -44 -29 -51 -62l-39 -173h-106l68 311h108l-18 -50h3c22 30 52 57 99 57c39 0 65 -22 73 -55h3
c21 30 48 55 100 55c53 0 80 -33 80 -83c0 -11 -1 -27 -4 -41z" />
    <glyph glyph-name="uni2099" unicode="&#x2099;" horiz-adv-x="370" 
d="M303 86l-43 -194h-108l39 178c2 11 3 19 3 26c0 18 -9 31 -31 31c-33 0 -47 -29 -54 -62l-39 -173h-108l68 311h109l-17 -50h2c23 30 55 57 102 57c50 0 82 -33 82 -83c0 -11 -2 -27 -5 -41z" />
    <glyph glyph-name="uni2092" unicode="&#x2092;" horiz-adv-x="364" 
d="M-23 17c0 106 68 193 186 193c82 0 143 -54 143 -132c0 -106 -68 -193 -186 -193c-82 0 -143 54 -143 132zM86 14c0 -31 13 -53 41 -53c49 0 70 71 70 120c0 31 -13 53 -41 53c-50 0 -70 -71 -70 -120z" />
    <glyph glyph-name="uni209A" unicode="&#x209a;" horiz-adv-x="376" 
d="M122 157h3c19 24 46 53 89 53c69 0 104 -66 104 -129c0 -94 -59 -196 -157 -196c-42 0 -69 27 -78 56h-2l-38 -170h-108l95 432h109zM168 130c-49 0 -70 -66 -70 -110c0 -32 13 -55 42 -55c49 0 69 66 69 110c0 32 -13 55 -41 55z" />
    <glyph glyph-name="q.subs" horiz-adv-x="376" 
d="M219 153l10 50h105l-96 -432h-108l20 92c9 39 22 75 22 75h-2c-20 -24 -46 -53 -89 -53c-69 0 -104 66 -104 129c0 93 59 196 156 196c45 0 74 -29 83 -57h3zM127 -35c50 0 70 66 70 110c0 32 -13 55 -42 55c-49 0 -69 -66 -69 -110c0 -32 13 -55 41 -55z" />
    <glyph glyph-name="r.subs" horiz-adv-x="304" 
d="M-38 -108l68 311h109l-17 -50h2c22 30 53 57 92 57c36 0 57 -26 57 -61c0 -26 -8 -48 -13 -62l-108 -51c10 23 18 48 18 68c0 13 -5 22 -19 22c-21 0 -33 -23 -42 -62l-39 -172h-108z" />
    <glyph glyph-name="uni209B" unicode="&#x209b;" horiz-adv-x="333" 
d="M51 7c10 -31 31 -50 66 -50c20 0 37 9 37 25c0 20 -36 27 -71 38c-41 12 -82 34 -82 85c0 68 70 105 143 105c72 0 121 -28 149 -72l-91 -42c-7 24 -28 42 -60 42c-17 0 -34 -8 -34 -22c0 -18 34 -20 77 -36c40 -15 78 -35 78 -87c0 -68 -72 -108 -146 -108
c-79 0 -134 28 -158 79z" />
    <glyph glyph-name="uni209C" unicode="&#x209c;" horiz-adv-x="246" 
d="M150 -17l23 -74c-16 -11 -46 -24 -85 -24c-54 0 -88 28 -88 72c0 10 1 21 4 32l29 138h-48l17 76h49l13 59l119 55l-25 -114h68l-17 -76h-69l-28 -130c0 -4 -2 -9 -2 -14c0 -10 7 -15 16 -15c12 0 19 9 24 15z" />
    <glyph glyph-name="u.subs" horiz-adv-x="367" 
d="M-14 9l43 194h109l-40 -178c-2 -11 -3 -19 -3 -26c0 -18 7 -31 30 -31c33 0 46 29 53 62l38 173h108l-68 -311h-109l18 50h-3c-22 -30 -53 -57 -100 -57c-50 0 -81 33 -81 83c0 11 2 27 5 41z" />
    <glyph glyph-name="v.subs" horiz-adv-x="334" 
d="M26 -108l-29 311h111l2 -126v-94h3s22 56 39 94l58 126h116l-166 -311h-134z" />
    <glyph glyph-name="w.subs" horiz-adv-x="497" 
d="M223 113c0 0 -18 -46 -32 -81l-57 -140h-133l6 311h107l-9 -106c-3 -42 -11 -113 -11 -113h2s32 84 48 125l37 94h122l-3 -106c-1 -41 -8 -113 -8 -113h3c0 1 30 87 43 125l33 94h108l-132 -311h-129l5 140c1 35 2 81 2 81h-2z" />
    <glyph glyph-name="uni2093" unicode="&#x2093;" horiz-adv-x="338" 
d="M118 7c0 0 -11 -24 -31 -56l-38 -59h-121l118 158l-42 153h113l9 -57c6 -33 9 -56 9 -56h3s10 23 30 56l35 57h120l-114 -156l52 -155h-114l-17 58c-7 31 -11 57 -11 57h-1z" />
    <glyph glyph-name="y.subs" horiz-adv-x="335" 
d="M116 3h3s20 49 38 88l52 112h118l-183 -327c-27 -48 -57 -99 -116 -112l-84 67c38 8 74 22 95 59l5 8l-47 305h112l5 -108c1 -35 2 -92 2 -92z" />
    <glyph glyph-name="z.subs" horiz-adv-x="321" 
d="M5 127l17 76h265l-12 -56l-167 -179h135l-17 -76h-276l13 56l166 179h-124z" />
    <glyph glyph-name="uni2080" unicode="&#x2080;" horiz-adv-x="411" 
d="M203 237c-70 0 -100 -128 -100 -191c0 -40 10 -72 50 -72c71 0 101 128 101 191c0 40 -10 72 -51 72zM-11 47c0 127 67 279 222 279c101 0 157 -71 157 -162c0 -127 -67 -279 -222 -279c-101 0 -157 71 -157 162z" />
    <glyph glyph-name="uni2081" unicode="&#x2081;" horiz-adv-x="263" 
d="M106 192h-2c-15 -16 -38 -29 -68 -34l-33 94c57 9 112 31 153 67h84l-95 -427h-108l52 237c7 29 17 63 17 63z" />
    <glyph glyph-name="uni2082" unicode="&#x2082;" horiz-adv-x="361" 
d="M117 115l-103 46s-2 11 -2 21c0 86 75 144 174 144c81 0 149 -54 149 -124c0 -137 -185 -186 -213 -217v-1h161l-21 -92h-299v10c0 160 260 192 260 292c0 25 -16 43 -44 43c-47 0 -64 -46 -64 -90c0 -12 2 -31 2 -32z" />
    <glyph glyph-name="uni2083" unicode="&#x2083;" horiz-adv-x="359" 
d="M116 -115c-84 0 -141 44 -151 106l104 48v-11c0 -32 18 -54 54 -54c38 0 66 30 66 68c0 27 -19 47 -49 47c-29 0 -50 -11 -72 -20l-22 86l121 75h-137l20 89h298l-15 -76l-94 -57c-31 -19 -76 -35 -76 -35c0 -1 1 -2 1 -3c2 0 7 1 12 1c72 0 121 -45 121 -110
c0 -86 -83 -154 -181 -154z" />
    <glyph glyph-name="uni2084" unicode="&#x2084;" horiz-adv-x="380" 
d="M162 -6h-171l-12 62c54 66 97 153 116 270l101 -50c-19 -88 -57 -143 -97 -195h82l53 238h106l-52 -238h45l-19 -87h-46l-22 -102h-107z" />
    <glyph glyph-name="uni2085" unicode="&#x2085;" horiz-adv-x="365" 
d="M119 -115c-83 0 -142 44 -152 106l105 48v-11c0 -28 16 -52 48 -52c42 0 78 32 78 81c0 34 -21 49 -44 49c-24 0 -51 -13 -64 -42l-88 39l76 216h255l-20 -89h-165l-11 -31c-8 -25 -22 -45 -21 -45l1 -1c19 15 47 30 81 30c71 0 108 -60 108 -126
c0 -88 -77 -172 -187 -172z" />
    <glyph glyph-name="uni2086" unicode="&#x2086;" horiz-adv-x="377" 
d="M219 326c64 0 124 -30 140 -87l-103 -51s1 1 1 3c0 26 -15 50 -47 50c-44 0 -81 -38 -103 -104c1 0 2 -1 3 -1c22 29 60 41 95 41c68 0 118 -51 118 -125c0 -92 -72 -167 -178 -167c-107 0 -156 65 -156 154c0 136 69 287 230 287zM145 -34c47 0 75 38 75 82
c0 32 -19 56 -54 56c-47 0 -75 -36 -75 -79c0 -33 19 -59 54 -59z" />
    <glyph glyph-name="uni2087" unicode="&#x2087;" horiz-adv-x="347" 
d="M360 319l-13 -68c-81 -103 -151 -233 -178 -359h-125c29 133 119 261 177 335h-105l-21 -98l-90 55l30 135h325z" />
    <glyph glyph-name="uni2088" unicode="&#x2088;" horiz-adv-x="385" 
d="M133 -115c-93 0 -161 47 -161 116c0 71 64 110 117 118v3c-33 14 -59 42 -59 83c0 76 82 121 171 121c80 0 146 -46 146 -106c0 -56 -44 -92 -99 -105l-1 -3c31 -13 71 -39 71 -90c0 -85 -87 -137 -185 -137zM78 13c0 -29 26 -47 62 -47c38 0 74 22 74 60
c0 29 -27 47 -62 47c-39 0 -74 -22 -74 -60zM128 193c0 -23 21 -39 52 -39c33 0 67 16 67 52c0 23 -21 39 -52 39c-33 0 -67 -16 -67 -52z" />
    <glyph glyph-name="uni2089" unicode="&#x2089;" horiz-adv-x="379" 
d="M119 -115c-64 0 -126 30 -142 88l102 51v-3c0 -27 15 -51 48 -51c47 0 74 39 91 105c-1 0 -1 1 -2 1c-22 -24 -54 -37 -91 -37c-73 0 -124 51 -124 125c0 91 73 162 177 162c106 0 157 -65 157 -156c0 -132 -50 -285 -216 -285zM177 245c-45 0 -73 -35 -73 -79
c0 -32 20 -54 55 -54c46 0 75 33 75 77c0 32 -21 56 -57 56z" />
    <glyph glyph-name="dollar.subs" horiz-adv-x="403" 
d="M76 -165l14 66c-66 16 -108 58 -119 111l97 50s0 -2 1 -4c0 -34 15 -64 44 -79l20 90c-61 21 -114 57 -114 122c0 74 76 122 164 126l12 57h87l-16 -67c53 -15 94 -48 111 -93l-98 -50c-1 8 -1 14 -3 22c-2 19 -14 35 -32 44l-19 -86c58 -25 118 -51 118 -120
c0 -75 -76 -124 -168 -130l-13 -59h-86zM242 14c0 19 -16 30 -37 40l-18 -84c33 4 55 20 55 44zM121 199c0 -18 13 -29 32 -38l18 79c-29 -5 -50 -20 -50 -41z" />
    <glyph glyph-name="cent.subs" horiz-adv-x="382" 
d="M71 -165l14 64c-61 14 -102 58 -102 128c0 91 69 161 169 175l14 61h87l-14 -64c49 -11 82 -40 89 -70c3 -7 4 -14 4 -19l-93 -40c1 3 1 8 1 15c0 16 -8 29 -24 37l-32 -147c25 9 40 30 44 55l85 -44c-20 -45 -74 -80 -142 -89l-12 -62h-88zM83 28c0 -25 8 -42 25 -51
l33 146c-37 -15 -58 -54 -58 -95z" />
    <glyph glyph-name="Euro.subs" horiz-adv-x="425" 
d="M248 118h-102c-2 -11 -4 -23 -5 -33h93l-33 -65h-60c4 -33 19 -54 52 -54c43 0 69 40 78 94l92 -62c-15 -46 -80 -113 -174 -113c-84 0 -144 46 -155 135h-56l14 65h41c2 11 3 22 6 33h-40l15 64h45c35 81 102 144 203 144c82 0 138 -45 147 -112l-104 -56c0 2 4 16 4 30
c0 34 -15 57 -55 57c-38 0 -66 -27 -85 -63h112z" />
    <glyph glyph-name="yen.subs" horiz-adv-x="414" 
d="M313 -18h-106l-20 -90h-108l20 90h-107l15 65h106c0 2 1 3 1 5l-10 32h-89l15 65h53l-53 170h115l26 -118c7 -31 12 -61 12 -61c3 0 9 14 28 42l90 137h124l-128 -170h53l-14 -65h-89l-19 -25l-7 -12h107z" />
    <glyph glyph-name="sterling.subs" horiz-adv-x="390" 
d="M246 60h-82c-6 -33 -21 -60 -46 -79h194l-20 -89h-320l16 71c42 17 64 54 69 97h-67l16 76h53c0 10 1 21 1 30c0 99 58 160 167 160c70 0 135 -36 147 -103l-99 -52c0 1 1 14 1 22c0 25 -14 47 -46 47c-41 0 -61 -30 -61 -75v-29h115z" />
    <glyph glyph-name="uni208A" unicode="&#x208a;" horiz-adv-x="393" 
d="M80 -80l28 131h-123l20 87h123l28 128h98l-29 -128h124l-21 -87h-123l-29 -131h-96z" />
    <glyph glyph-name="uni208B" unicode="&#x208b;" horiz-adv-x="393" 
d="M318 50h-322l20 89h322z" />
    <glyph glyph-name="multiply.subs" horiz-adv-x="393" 
d="M36 -66l-60 66l127 97l-83 100l74 55l80 -99l119 96l60 -66l-125 -97l87 -100l-74 -55l-83 101z" />
    <glyph glyph-name="divide.subs" horiz-adv-x="393" 
d="M319 51h-322l20 87h321zM78 -38c0 35 29 60 68 60c33 0 55 -21 55 -49c0 -34 -28 -60 -68 -60c-32 0 -55 21 -55 49zM133 218c0 35 28 61 68 61c32 0 55 -21 55 -50c0 -34 -29 -60 -68 -60c-33 0 -55 21 -55 49z" />
    <glyph glyph-name="uni208C" unicode="&#x208c;" horiz-adv-x="393" 
d="M303 -15h-322l20 83h320zM332 116h-321l19 82h321z" />
    <glyph glyph-name="period.subs" horiz-adv-x="193" 
d="M-32 -63c0 38 30 65 72 65c34 0 58 -23 58 -53c0 -37 -30 -64 -72 -64c-33 0 -58 22 -58 52z" />
    <glyph glyph-name="comma.subs" horiz-adv-x="193" 
d="M95 -64c0 -63 -33 -115 -93 -142l-50 41c35 12 69 26 85 63c-4 -1 -9 -1 -16 -1c-29 0 -50 18 -50 44c0 35 28 61 65 61s59 -24 59 -66z" />
    <glyph glyph-name="hyphen.subs" horiz-adv-x="236" 
d="M162 32h-177l19 83h177z" />
    <glyph glyph-name="uni208D" unicode="&#x208d;" horiz-adv-x="246" 
d="M167 369l81 -42c-95 -96 -148 -192 -148 -329c0 -68 14 -124 37 -168l-87 -42c-28 44 -59 127 -59 213c0 150 59 273 176 368z" />
    <glyph glyph-name="uni208E" unicode="&#x208e;" horiz-adv-x="246" 
d="M0 -213l-81 43c96 96 148 191 148 329c0 68 -14 123 -37 168l87 42c29 -44 59 -128 59 -213c0 -151 -58 -272 -176 -369z" />
    <glyph glyph-name="a.sups" horiz-adv-x="379" 
d="M243 699c43 0 70 -27 78 -56h3l11 49h107l-49 -225c-5 -24 -12 -52 -12 -68c0 -9 2 -18 2 -18h-81c-10 14 -13 29 -13 44v4h-2c-19 -28 -47 -55 -96 -55c-69 0 -104 66 -104 129c0 93 59 196 156 196zM237 454c50 0 70 66 70 110c0 32 -13 55 -42 55
c-49 0 -69 -66 -69 -110c0 -32 13 -55 41 -55z" />
    <glyph glyph-name="b.sups" horiz-adv-x="376" 
d="M168 828h109l-24 -104c-8 -34 -23 -78 -23 -78h2c19 24 46 53 89 53c69 0 104 -66 104 -129c0 -94 -59 -196 -157 -196c-45 0 -72 28 -81 60h-3l-11 -53h-104zM275 619c-49 0 -70 -66 -70 -110c0 -32 13 -55 42 -55c49 0 69 66 69 110c0 32 -13 55 -41 55z" />
    <glyph glyph-name="c.sups" horiz-adv-x="336" 
d="M260 623c-48 0 -67 -71 -67 -120c0 -31 10 -53 39 -53c35 0 50 35 53 71l93 -48c-16 -47 -73 -99 -155 -99s-139 57 -139 131c0 106 67 194 185 194c75 0 130 -44 131 -102l-106 -44c0 1 5 15 5 31c0 22 -13 39 -39 39z" />
    <glyph glyph-name="d.sups" horiz-adv-x="375" 
d="M279 427h-2c-20 -24 -46 -53 -89 -53c-69 0 -104 66 -104 129c0 93 59 196 156 196c43 0 70 -27 78 -56h3l41 185h108l-99 -447h-107zM234 454c50 0 70 66 70 110c0 32 -13 55 -42 55c-49 0 -69 -66 -69 -110c0 -32 13 -55 41 -55z" />
    <glyph glyph-name="e.sups" horiz-adv-x="348" 
d="M382 508h-200v-8c0 -28 16 -52 46 -52s49 15 60 42l87 -48c-32 -44 -89 -68 -149 -68c-87 0 -142 51 -142 132c0 105 68 193 187 193c77 0 131 -45 131 -115c0 -30 -10 -55 -20 -76zM263 628c-34 0 -55 -25 -67 -55h108c1 2 2 8 2 14c0 25 -15 41 -43 41z" />
    <glyph glyph-name="f.sups" horiz-adv-x="246" 
d="M333 733c0 14 -7 26 -23 26c-21 0 -31 -14 -36 -37l-7 -30h66l-17 -76h-66l-52 -235h-106l51 235h-47l18 76h46l8 35c16 73 69 108 145 108c54 0 96 -25 114 -59l-94 -50v7z" />
    <glyph glyph-name="g.sups" horiz-adv-x="353" 
d="M99 393v2c-18 6 -35 23 -35 44c0 42 50 63 89 68l1 2c-24 12 -47 40 -47 75c0 73 72 115 151 115c29 0 51 -3 71 -3c43 0 44 44 44 73l86 -51c-7 -34 -32 -63 -72 -63c-7 0 -17 1 -22 2l-1 -2c14 -13 28 -33 28 -62c0 -75 -89 -111 -162 -111c-31 0 -70 -5 -70 -25
c0 -10 11 -14 28 -14c25 0 53 4 86 4c68 0 112 -28 112 -75c0 -95 -112 -116 -205 -116c-89 0 -161 25 -161 72c0 39 40 59 79 65zM211 368c-37 0 -97 -2 -97 -28c0 -17 29 -23 74 -23c30 0 90 3 90 32c0 17 -28 19 -67 19zM257 634c-30 0 -54 -20 -54 -50
c0 -24 17 -37 41 -37c30 0 55 20 55 50c0 24 -18 37 -42 37z" />
    <glyph glyph-name="h.sups" horiz-adv-x="370" 
d="M410 575l-43 -194h-108l39 178c2 9 3 19 3 26c0 18 -9 31 -31 31c-33 0 -47 -29 -54 -62l-39 -173h-108l99 447h109l-25 -110c-9 -38 -23 -76 -23 -76h2c23 30 55 57 102 57c50 0 82 -33 82 -83c0 -11 -1 -27 -5 -41z" />
    <glyph glyph-name="uni2071" unicode="&#x2071;" horiz-adv-x="183" 
d="M147 771c0 35 28 60 68 60c31 0 55 -21 55 -49c0 -34 -29 -59 -69 -59c-31 0 -54 20 -54 48zM69 381l68 311h110l-68 -311h-110z" />
    <glyph glyph-name="j.sups" horiz-adv-x="188" 
d="M153 771c0 35 28 60 68 60c32 0 55 -21 55 -49c0 -34 -29 -59 -68 -59c-32 0 -55 20 -55 48zM60 253l-83 69c53 7 89 22 104 87l62 283h109l-66 -304c-17 -75 -56 -123 -126 -135z" />
    <glyph glyph-name="k.sups" horiz-adv-x="365" 
d="M461 692l-137 -124l74 -187h-114l-44 113l-49 -48l-14 -65h-108l99 447h109l-42 -190c-9 -39 -22 -76 -22 -76h2s26 33 48 56l70 74h128z" />
    <glyph glyph-name="l.sups" horiz-adv-x="183" 
d="M69 381l98 447h110l-98 -447h-110z" />
    <glyph glyph-name="m.sups" horiz-adv-x="540" 
d="M581 575l-43 -194h-106l39 178c2 11 3 19 3 26c0 18 -8 31 -28 31c-33 0 -44 -29 -51 -62l-39 -173h-106l39 178c3 11 4 19 4 26c0 18 -8 31 -28 31c-33 0 -44 -29 -51 -62l-39 -173h-106l68 311h108l-18 -50h3c22 30 52 57 99 57c39 0 65 -22 73 -55h3
c21 30 48 55 100 55c53 0 80 -33 80 -83c0 -11 -1 -27 -4 -41z" />
    <glyph glyph-name="uni207F" unicode="&#x207f;" horiz-adv-x="370" 
d="M410 575l-43 -194h-108l39 178c2 11 3 19 3 26c0 18 -9 31 -31 31c-33 0 -47 -29 -54 -62l-39 -173h-108l68 311h109l-17 -50h2c23 30 55 57 102 57c50 0 82 -33 82 -83c0 -11 -2 -27 -5 -41z" />
    <glyph glyph-name="o.sups" horiz-adv-x="364" 
d="M84 506c0 106 68 193 186 193c82 0 143 -54 143 -132c0 -106 -68 -193 -186 -193c-82 0 -143 54 -143 132zM193 503c0 -31 13 -53 41 -53c49 0 70 71 70 120c0 31 -13 53 -41 53c-50 0 -70 -71 -70 -120z" />
    <glyph glyph-name="p.sups" horiz-adv-x="376" 
d="M229 646h3c19 24 46 53 89 53c69 0 104 -66 104 -129c0 -94 -59 -196 -157 -196c-42 0 -69 27 -78 56h-2l-38 -170h-108l95 432h109zM275 619c-49 0 -70 -66 -70 -110c0 -32 13 -55 42 -55c49 0 69 66 69 110c0 32 -13 55 -41 55z" />
    <glyph glyph-name="q.sups" horiz-adv-x="376" 
d="M326 642l10 50h105l-96 -432h-108l20 92c9 39 22 75 22 75h-2c-20 -24 -46 -53 -89 -53c-69 0 -104 66 -104 129c0 93 59 196 156 196c45 0 74 -29 83 -57h3zM234 454c50 0 70 66 70 110c0 32 -13 55 -42 55c-49 0 -69 -66 -69 -110c0 -32 13 -55 41 -55z" />
    <glyph glyph-name="r.sups" horiz-adv-x="304" 
d="M69 381l68 311h109l-17 -50h2c22 30 53 57 92 57c36 0 57 -26 57 -61c0 -26 -8 -48 -13 -62l-108 -51c10 23 18 48 18 68c0 13 -5 22 -19 22c-21 0 -33 -23 -42 -62l-39 -172h-108z" />
    <glyph glyph-name="s.sups" horiz-adv-x="333" 
d="M158 496c10 -31 31 -50 66 -50c20 0 37 9 37 25c0 20 -36 27 -71 38c-41 12 -82 34 -82 85c0 68 70 105 143 105c72 0 121 -28 149 -72l-91 -42c-7 24 -28 42 -60 42c-17 0 -34 -8 -34 -22c0 -18 34 -20 77 -36c40 -15 78 -35 78 -87c0 -68 -72 -108 -146 -108
c-79 0 -134 28 -158 79z" />
    <glyph glyph-name="t.sups" horiz-adv-x="246" 
d="M257 472l23 -74c-16 -11 -46 -24 -85 -24c-54 0 -88 28 -88 72c0 10 1 21 4 32l29 138h-48l17 76h49l13 59l119 55l-25 -114h68l-17 -76h-69l-28 -130c0 -4 -2 -9 -2 -14c0 -10 7 -15 16 -15c12 0 19 9 24 15z" />
    <glyph glyph-name="u.sups" horiz-adv-x="367" 
d="M93 498l43 194h109l-40 -178c-2 -11 -3 -19 -3 -26c0 -18 7 -31 30 -31c33 0 46 29 53 62l38 173h108l-68 -311h-109l18 50h-3c-22 -30 -53 -57 -100 -57c-50 0 -81 33 -81 83c0 11 2 27 5 41z" />
    <glyph glyph-name="v.sups" horiz-adv-x="334" 
d="M133 381l-29 311h111l2 -126v-94h3s22 56 39 94l58 126h116l-166 -311h-134z" />
    <glyph glyph-name="w.sups" horiz-adv-x="497" 
d="M330 602c0 0 -18 -46 -32 -81l-57 -140h-133l6 311h107l-9 -106c-3 -42 -11 -113 -11 -113h2s32 84 48 125l37 94h122l-3 -106c-1 -41 -8 -113 -8 -113h3c0 1 30 87 43 125l33 94h108l-132 -311h-129l5 140c1 35 2 81 2 81h-2z" />
    <glyph glyph-name="x.sups" horiz-adv-x="338" 
d="M225 496c0 0 -11 -24 -31 -56l-38 -59h-121l118 158l-42 153h113l9 -57c6 -33 9 -56 9 -56h3s10 23 30 56l35 57h120l-114 -156l52 -155h-114l-17 58c-7 31 -11 57 -11 57h-1z" />
    <glyph glyph-name="y.sups" horiz-adv-x="335" 
d="M223 492h3s20 49 38 88l52 112h118l-183 -327c-27 -48 -57 -99 -116 -112l-84 67c38 8 74 22 95 59l5 8l-47 305h112l5 -108c1 -35 2 -92 2 -92z" />
    <glyph glyph-name="z.sups" horiz-adv-x="321" 
d="M112 616l17 76h265l-12 -56l-167 -179h135l-17 -76h-276l13 56l166 179h-124z" />
    <glyph glyph-name="uni2070" unicode="&#x2070;" horiz-adv-x="411" 
d="M310 726c-70 0 -100 -128 -100 -191c0 -40 10 -72 50 -72c71 0 101 128 101 191c0 40 -10 72 -51 72zM96 536c0 127 67 279 222 279c101 0 157 -71 157 -162c0 -127 -67 -279 -222 -279c-101 0 -157 71 -157 162z" />
    <glyph glyph-name="onesuperior" unicode="&#xb9;" horiz-adv-x="263" 
d="M213 681h-2c-15 -16 -38 -29 -68 -34l-33 94c57 9 112 31 153 67h84l-95 -427h-108l52 237c7 29 17 63 17 63z" />
    <glyph glyph-name="twosuperior" unicode="&#xb2;" horiz-adv-x="361" 
d="M224 604l-103 46s-2 11 -2 21c0 86 75 144 174 144c81 0 149 -54 149 -124c0 -137 -185 -186 -213 -217v-1h161l-21 -92h-299v10c0 160 260 192 260 292c0 25 -16 43 -44 43c-47 0 -64 -46 -64 -90c0 -12 2 -31 2 -32z" />
    <glyph glyph-name="threesuperior" unicode="&#xb3;" horiz-adv-x="359" 
d="M223 374c-84 0 -141 44 -151 106l104 48v-11c0 -32 18 -54 54 -54c38 0 66 30 66 68c0 27 -19 47 -49 47c-29 0 -50 -11 -72 -20l-22 86l121 75h-137l20 89h298l-15 -76l-94 -57c-31 -19 -76 -35 -76 -35c0 -1 1 -2 1 -3c2 0 7 1 12 1c72 0 121 -45 121 -110
c0 -86 -83 -154 -181 -154z" />
    <glyph glyph-name="uni2074" unicode="&#x2074;" horiz-adv-x="380" 
d="M269 483h-171l-12 62c54 66 97 153 116 270l101 -50c-19 -88 -57 -143 -97 -195h82l53 238h106l-52 -238h45l-19 -87h-46l-22 -102h-107z" />
    <glyph glyph-name="uni2075" unicode="&#x2075;" horiz-adv-x="365" 
d="M226 374c-83 0 -142 44 -152 106l105 48v-11c0 -28 16 -52 48 -52c42 0 78 32 78 81c0 34 -21 49 -44 49c-24 0 -51 -13 -64 -42l-88 39l76 216h255l-20 -89h-165l-11 -31c-8 -25 -22 -45 -21 -45l1 -1c19 15 47 30 81 30c71 0 108 -60 108 -126
c0 -88 -77 -172 -187 -172z" />
    <glyph glyph-name="uni2076" unicode="&#x2076;" horiz-adv-x="377" 
d="M326 815c64 0 124 -30 140 -87l-103 -51s1 1 1 3c0 26 -15 50 -47 50c-44 0 -81 -38 -103 -104c1 0 2 -1 3 -1c22 29 60 41 95 41c68 0 118 -51 118 -125c0 -92 -72 -167 -178 -167c-107 0 -156 65 -156 154c0 136 69 287 230 287zM252 455c47 0 75 38 75 82
c0 32 -19 56 -54 56c-47 0 -75 -36 -75 -79c0 -33 19 -59 54 -59z" />
    <glyph glyph-name="uni2077" unicode="&#x2077;" horiz-adv-x="347" 
d="M467 808l-13 -68c-81 -103 -151 -233 -178 -359h-125c29 133 119 261 177 335h-105l-21 -98l-90 55l30 135h325z" />
    <glyph glyph-name="uni2078" unicode="&#x2078;" horiz-adv-x="385" 
d="M240 374c-93 0 -161 47 -161 116c0 71 64 110 117 118v3c-33 14 -59 42 -59 83c0 76 82 121 171 121c80 0 146 -46 146 -106c0 -56 -44 -92 -99 -105l-1 -3c31 -13 71 -39 71 -90c0 -85 -87 -137 -185 -137zM185 502c0 -29 26 -47 62 -47c38 0 74 22 74 60
c0 29 -27 47 -62 47c-39 0 -74 -22 -74 -60zM235 682c0 -23 21 -39 52 -39c33 0 67 16 67 52c0 23 -21 39 -52 39c-33 0 -67 -16 -67 -52z" />
    <glyph glyph-name="uni2079" unicode="&#x2079;" horiz-adv-x="379" 
d="M226 374c-64 0 -126 30 -142 88l102 51v-3c0 -27 15 -51 48 -51c47 0 74 39 91 105c-1 0 -1 1 -2 1c-22 -24 -54 -37 -91 -37c-73 0 -124 51 -124 125c0 91 73 162 177 162c106 0 157 -65 157 -156c0 -132 -50 -285 -216 -285zM284 734c-45 0 -73 -35 -73 -79
c0 -32 20 -54 55 -54c46 0 75 33 75 77c0 32 -21 56 -57 56z" />
    <glyph glyph-name="dollar.sups" horiz-adv-x="403" 
d="M183 324l14 66c-66 16 -108 58 -119 111l97 50s0 -2 1 -4c0 -34 15 -64 44 -79l20 90c-61 21 -114 57 -114 122c0 74 76 122 164 126l12 57h87l-16 -67c53 -15 94 -48 111 -93l-98 -50c-1 8 -1 14 -3 22c-2 19 -14 35 -32 44l-19 -86c58 -25 118 -51 118 -120
c0 -75 -76 -124 -168 -130l-13 -59h-86zM349 503c0 19 -16 30 -37 40l-18 -84c33 4 55 20 55 44zM228 688c0 -18 13 -29 32 -38l18 79c-29 -5 -50 -20 -50 -41z" />
    <glyph glyph-name="cent.sups" horiz-adv-x="382" 
d="M178 324l14 64c-61 14 -102 58 -102 128c0 91 69 161 169 175l14 61h87l-14 -64c49 -11 82 -40 89 -70c3 -7 4 -14 4 -19l-93 -40c1 3 1 8 1 15c0 16 -8 29 -24 37l-32 -147c25 9 40 30 44 55l85 -44c-20 -45 -74 -80 -142 -89l-12 -62h-88zM190 517c0 -25 8 -42 25 -51
l33 146c-37 -15 -58 -54 -58 -95z" />
    <glyph glyph-name="Euro.sups" horiz-adv-x="425" 
d="M355 607h-102c-2 -11 -4 -23 -5 -33h93l-33 -65h-60c4 -33 19 -54 52 -54c43 0 69 40 78 94l92 -62c-15 -46 -80 -113 -174 -113c-84 0 -144 46 -155 135h-56l14 65h41c2 11 3 22 6 33h-40l15 64h45c35 81 102 144 203 144c82 0 138 -45 147 -112l-104 -56c0 2 4 16 4 30
c0 34 -15 57 -55 57c-38 0 -66 -27 -85 -63h112z" />
    <glyph glyph-name="yen.sups" horiz-adv-x="414" 
d="M420 471h-106l-20 -90h-108l20 90h-107l15 65h106c0 2 1 3 1 5l-10 32h-89l15 65h53l-53 170h115l26 -118c7 -31 12 -61 12 -61c3 0 9 14 28 42l90 137h124l-128 -170h53l-14 -65h-89l-19 -25l-7 -12h107z" />
    <glyph glyph-name="sterling.sups" horiz-adv-x="390" 
d="M353 549h-82c-6 -33 -21 -60 -46 -79h194l-20 -89h-320l16 71c42 17 64 54 69 97h-67l16 76h53c0 10 1 21 1 30c0 99 58 160 167 160c70 0 135 -36 147 -103l-99 -52c0 1 1 14 1 22c0 25 -14 47 -46 47c-41 0 -61 -30 -61 -75v-29h115z" />
    <glyph glyph-name="uni207A" unicode="&#x207a;" horiz-adv-x="393" 
d="M187 409l28 131h-123l20 87h123l28 128h98l-29 -128h124l-21 -87h-123l-29 -131h-96z" />
    <glyph glyph-name="uni207B" unicode="&#x207b;" horiz-adv-x="393" 
d="M425 539h-322l20 89h322z" />
    <glyph glyph-name="multiply.sups" horiz-adv-x="393" 
d="M143 423l-60 66l127 97l-83 100l74 55l80 -99l119 96l60 -66l-125 -97l87 -100l-74 -55l-83 101z" />
    <glyph glyph-name="divide.sups" horiz-adv-x="393" 
d="M425 540h-322l20 87h321zM184 451c0 35 29 60 68 60c33 0 55 -21 55 -49c0 -34 -28 -60 -68 -60c-32 0 -55 21 -55 49zM239 707c0 35 28 61 68 61c32 0 55 -21 55 -50c0 -34 -29 -60 -68 -60c-33 0 -55 21 -55 49z" />
    <glyph glyph-name="uni207C" unicode="&#x207c;" horiz-adv-x="393" 
d="M410 474h-322l20 83h320zM439 605h-321l19 82h321z" />
    <glyph glyph-name="period.sups" horiz-adv-x="193" 
d="M75 426c0 38 30 65 72 65c34 0 58 -23 58 -53c0 -37 -30 -64 -72 -64c-33 0 -58 22 -58 52z" />
    <glyph glyph-name="comma.sups" horiz-adv-x="193" 
d="M202 425c0 -63 -33 -115 -93 -142l-50 41c35 12 69 26 85 63c-4 -1 -9 -1 -16 -1c-29 0 -50 18 -50 44c0 35 28 61 65 61s59 -24 59 -66z" />
    <glyph glyph-name="hyphen.sups" horiz-adv-x="236" 
d="M269 521h-177l19 83h177z" />
    <glyph glyph-name="uni207D" unicode="&#x207d;" horiz-adv-x="246" 
d="M272 858l81 -42c-95 -96 -148 -192 -148 -329c0 -68 14 -124 37 -168l-87 -42c-28 44 -59 127 -59 213c0 150 59 273 176 368z" />
    <glyph glyph-name="uni207E" unicode="&#x207e;" horiz-adv-x="246" 
d="M106 276l-81 43c96 96 148 191 148 329c0 68 -14 123 -37 168l87 42c29 -44 59 -128 59 -213c0 -151 -58 -272 -176 -369z" />
    <glyph glyph-name="fraction" unicode="&#x2044;" horiz-adv-x="210" 
d="M-212 50l603 659l76 -68l-603 -658z" />
    <glyph glyph-name="percent" unicode="%" horiz-adv-x="909" 
d="M454 545c0 -113 -86 -220 -211 -220c-93 0 -158 66 -158 158c0 119 86 221 212 221c93 0 157 -66 157 -159zM250 416c61 0 94 69 94 131c0 37 -17 66 -54 66c-62 0 -94 -69 -94 -130c0 -38 16 -67 54 -67zM870 209c0 -114 -87 -221 -212 -221c-92 0 -157 66 -157 159
c0 118 86 220 212 220c93 0 157 -66 157 -158zM665 79c62 0 94 69 94 131c0 37 -16 66 -53 66c-62 0 -94 -68 -94 -130c0 -38 16 -67 53 -67zM137 50l603 659l76 -68l-604 -658z" />
    <glyph glyph-name="perthousand" unicode="&#x2030;" horiz-adv-x="1316" 
d="M454 545c0 -113 -86 -220 -211 -220c-93 0 -158 66 -158 158c0 119 86 221 212 221c93 0 157 -66 157 -159zM250 416c61 0 94 69 94 131c0 37 -17 66 -54 66c-62 0 -94 -69 -94 -130c0 -38 16 -67 54 -67zM870 209c0 -114 -87 -221 -212 -221c-92 0 -157 66 -157 159
c0 118 86 220 212 220c93 0 157 -66 157 -158zM665 79c62 0 94 69 94 131c0 37 -16 66 -53 66c-62 0 -94 -68 -94 -130c0 -38 16 -67 53 -67zM1274 209c0 -114 -87 -221 -212 -221c-93 0 -157 66 -157 159c0 118 86 220 212 220c93 0 157 -66 157 -158zM1069 79
c62 0 94 69 94 131c0 37 -16 66 -54 66c-61 0 -94 -68 -94 -130c0 -38 17 -67 54 -67zM137 50l603 659l76 -68l-604 -658z" />
    <glyph glyph-name="onehalf" unicode="&#xbd;" horiz-adv-x="876" 
d="M88 50l603 659l76 -68l-603 -658zM170 577h-2c-15 -16 -38 -29 -68 -34l-33 94c57 9 112 31 153 67h84l-95 -427h-108l52 237c7 29 17 63 17 63zM645 223l-103 46s-2 11 -2 21c0 86 75 144 174 144c81 0 149 -54 149 -124c0 -137 -185 -186 -213 -217v-1h161l-21 -92
h-299v10c0 160 260 192 260 292c0 25 -16 43 -44 43c-47 0 -64 -46 -64 -90c0 -12 2 -31 2 -32z" />
    <glyph glyph-name="onethird" unicode="&#x2153;" horiz-adv-x="911" 
d="M88 50l603 659l76 -68l-603 -658zM175 577h-2c-15 -16 -38 -29 -68 -34l-33 94c57 9 112 31 153 67h84l-95 -427h-108l52 237c7 29 17 63 17 63zM674 -7c-84 0 -141 44 -151 106l104 48v-11c0 -32 18 -54 54 -54c38 0 66 30 66 68c0 27 -19 47 -49 47
c-29 0 -50 -11 -72 -20l-22 86l121 75h-137l20 89h298l-15 -76l-94 -57c-31 -19 -76 -35 -76 -35c0 -1 1 -2 1 -3c2 0 7 1 12 1c72 0 121 -45 121 -110c0 -86 -83 -154 -181 -154z" />
    <glyph glyph-name="twothirds" unicode="&#x2154;" horiz-adv-x="1000" 
d="M180 50l603 659l76 -68l-603 -658zM180 500l-103 46s-2 11 -2 21c0 86 75 144 174 144c81 0 149 -54 149 -124c0 -137 -185 -186 -213 -217v-1h161l-21 -92h-299v10c0 160 260 192 260 292c0 25 -16 43 -44 43c-47 0 -64 -46 -64 -90c0 -12 2 -31 2 -32zM763 -7
c-84 0 -141 44 -151 106l104 48v-11c0 -32 18 -54 54 -54c38 0 66 30 66 68c0 27 -19 47 -49 47c-29 0 -50 -11 -72 -20l-22 86l121 75h-137l20 89h298l-15 -76l-94 -57c-31 -19 -76 -35 -76 -35c0 -1 1 -2 1 -3c2 0 7 1 12 1c72 0 121 -45 121 -110
c0 -86 -83 -154 -181 -154z" />
    <glyph glyph-name="onequarter" unicode="&#xbc;" horiz-adv-x="896" 
d="M88 50l603 659l76 -68l-603 -658zM175 577h-2c-15 -16 -38 -29 -68 -34l-33 94c57 9 112 31 153 67h84l-95 -427h-108l52 237c7 29 17 63 17 63zM688 102h-171l-12 62c54 66 97 153 116 270l101 -50c-19 -88 -57 -143 -97 -195h82l53 238h106l-52 -238h45l-19 -87h-46
l-22 -102h-107z" />
    <glyph glyph-name="threequarters" unicode="&#xbe;" horiz-adv-x="967" 
d="M159 50l603 659l76 -68l-603 -658zM758 102h-171l-12 62c54 66 97 153 116 270l101 -50c-19 -88 -57 -143 -97 -195h82l53 238h106l-52 -238h45l-19 -87h-46l-22 -102h-107zM185 270c-84 0 -141 44 -151 106l104 48v-11c0 -32 18 -54 54 -54c38 0 66 30 66 68
c0 27 -19 47 -49 47c-29 0 -50 -11 -72 -20l-22 86l121 75h-137l20 89h298l-15 -76l-94 -57c-31 -19 -76 -35 -76 -35c0 -1 1 -2 1 -3c2 0 7 1 12 1c72 0 121 -45 121 -110c0 -86 -83 -154 -181 -154z" />
    <glyph glyph-name="uni2155" unicode="&#x2155;" horiz-adv-x="891" 
d="M88 50l603 659l76 -68l-603 -658zM175 577h-2c-15 -16 -38 -29 -68 -34l-33 94c57 9 112 31 153 67h84l-95 -427h-108l52 237c7 29 17 63 17 63zM657 -7c-83 0 -142 44 -152 106l105 48v-11c0 -28 16 -52 48 -52c42 0 78 32 78 81c0 34 -21 49 -44 49
c-24 0 -51 -13 -64 -42l-88 39l76 216h255l-20 -89h-165l-11 -31c-8 -25 -22 -45 -21 -45l1 -1c19 15 47 30 81 30c71 0 108 -60 108 -126c0 -88 -77 -172 -187 -172z" />
    <glyph glyph-name="uni2156" unicode="&#x2156;" horiz-adv-x="982" 
d="M180 50l603 659l76 -68l-603 -658zM180 500l-103 46s-2 11 -2 21c0 86 75 144 174 144c81 0 149 -54 149 -124c0 -137 -185 -186 -213 -217v-1h161l-21 -92h-299v10c0 160 260 192 260 292c0 25 -16 43 -44 43c-47 0 -64 -46 -64 -90c0 -12 2 -31 2 -32zM748 -7
c-83 0 -142 44 -152 106l105 48v-11c0 -28 16 -52 48 -52c42 0 78 32 78 81c0 34 -21 49 -44 49c-24 0 -51 -13 -64 -42l-88 39l76 216h255l-20 -89h-165l-11 -31c-8 -25 -22 -45 -21 -45l1 -1c19 15 47 30 81 30c71 0 108 -60 108 -126c0 -88 -77 -172 -187 -172z" />
    <glyph glyph-name="uni2157" unicode="&#x2157;" horiz-adv-x="966" 
d="M159 50l603 659l76 -68l-603 -658zM732 -7c-83 0 -142 44 -152 106l105 48v-11c0 -28 16 -52 48 -52c42 0 78 32 78 81c0 34 -21 49 -44 49c-24 0 -51 -13 -64 -42l-88 39l76 216h255l-20 -89h-165l-11 -31c-8 -25 -22 -45 -21 -45l1 -1c19 15 47 30 81 30
c71 0 108 -60 108 -126c0 -88 -77 -172 -187 -172zM185 270c-84 0 -141 44 -151 106l104 48v-11c0 -32 18 -54 54 -54c38 0 66 30 66 68c0 27 -19 47 -49 47c-29 0 -50 -11 -72 -20l-22 86l121 75h-137l20 89h298l-15 -76l-94 -57c-31 -19 -76 -35 -76 -35c0 -1 1 -2 1 -3
c2 0 7 1 12 1c72 0 121 -45 121 -110c0 -86 -83 -154 -181 -154z" />
    <glyph glyph-name="uni2158" unicode="&#x2158;" horiz-adv-x="988" 
d="M186 50l603 659l76 -68l-603 -658zM754 -7c-83 0 -142 44 -152 106l105 48v-11c0 -28 16 -52 48 -52c42 0 78 32 78 81c0 34 -21 49 -44 49c-24 0 -51 -13 -64 -42l-88 39l76 216h255l-20 -89h-165l-11 -31c-8 -25 -22 -45 -21 -45l1 -1c19 15 47 30 81 30
c71 0 108 -60 108 -126c0 -88 -77 -172 -187 -172zM230 379h-171l-12 62c54 66 97 153 116 270l101 -50c-19 -88 -57 -143 -97 -195h82l53 238h106l-52 -238h45l-19 -87h-46l-22 -102h-107z" />
    <glyph glyph-name="uni2159" unicode="&#x2159;" horiz-adv-x="882" 
d="M88 50l603 659l76 -68l-603 -658zM175 577h-2c-15 -16 -38 -29 -68 -34l-33 94c57 9 112 31 153 67h84l-95 -427h-108l52 237c7 29 17 63 17 63zM723 434c64 0 124 -30 140 -87l-103 -51s1 1 1 3c0 26 -15 50 -47 50c-44 0 -81 -38 -103 -104c1 0 2 -1 3 -1
c22 29 60 41 95 41c68 0 118 -51 118 -125c0 -92 -72 -167 -178 -167c-107 0 -156 65 -156 154c0 136 69 287 230 287zM649 74c47 0 75 38 75 82c0 32 -19 56 -54 56c-47 0 -75 -36 -75 -79c0 -33 19 -59 54 -59z" />
    <glyph glyph-name="uni215A" unicode="&#x215a;" horiz-adv-x="954" 
d="M160 50l603 659l76 -68l-603 -658zM795 434c64 0 124 -30 140 -87l-103 -51s1 1 1 3c0 26 -15 50 -47 50c-44 0 -81 -38 -103 -104c1 0 2 -1 3 -1c22 29 60 41 95 41c68 0 118 -51 118 -125c0 -92 -72 -167 -178 -167c-107 0 -156 65 -156 154c0 136 69 287 230 287z
M721 74c47 0 75 38 75 82c0 32 -19 56 -54 56c-47 0 -75 -36 -75 -79c0 -33 19 -59 54 -59zM186 270c-83 0 -142 44 -152 106l105 48v-11c0 -28 16 -52 48 -52c42 0 78 32 78 81c0 34 -21 49 -44 49c-24 0 -51 -13 -64 -42l-88 39l76 216h255l-20 -89h-165l-11 -31
c-8 -25 -22 -45 -21 -45l1 -1c19 15 47 30 81 30c71 0 108 -60 108 -126c0 -88 -77 -172 -187 -172z" />
    <glyph glyph-name="oneeighth" unicode="&#x215b;" horiz-adv-x="906" 
d="M88 50l603 659l76 -68l-603 -658zM175 577h-2c-15 -16 -38 -29 -68 -34l-33 94c57 9 112 31 153 67h84l-95 -427h-108l52 237c7 29 17 63 17 63zM662 -7c-93 0 -161 47 -161 116c0 71 64 110 117 118v3c-33 14 -59 42 -59 83c0 76 82 121 171 121c80 0 146 -46 146 -106
c0 -56 -44 -92 -99 -105l-1 -3c31 -13 71 -39 71 -90c0 -85 -87 -137 -185 -137zM607 121c0 -29 26 -47 62 -47c38 0 74 22 74 60c0 29 -27 47 -62 47c-39 0 -74 -22 -74 -60zM657 301c0 -23 21 -39 52 -39c33 0 67 16 67 52c0 23 -21 39 -52 39c-33 0 -67 -16 -67 -52z" />
    <glyph glyph-name="threeeighths" unicode="&#x215c;" horiz-adv-x="976" 
d="M159 50l603 659l76 -68l-603 -658zM733 -7c-93 0 -161 47 -161 116c0 71 64 110 117 118v3c-33 14 -59 42 -59 83c0 76 82 121 171 121c80 0 146 -46 146 -106c0 -56 -44 -92 -99 -105l-1 -3c31 -13 71 -39 71 -90c0 -85 -87 -137 -185 -137zM678 121
c0 -29 26 -47 62 -47c38 0 74 22 74 60c0 29 -27 47 -62 47c-39 0 -74 -22 -74 -60zM728 301c0 -23 21 -39 52 -39c33 0 67 16 67 52c0 23 -21 39 -52 39c-33 0 -67 -16 -67 -52zM185 270c-84 0 -141 44 -151 106l104 48v-11c0 -32 18 -54 54 -54c38 0 66 30 66 68
c0 27 -19 47 -49 47c-29 0 -50 -11 -72 -20l-22 86l121 75h-137l20 89h298l-15 -76l-94 -57c-31 -19 -76 -35 -76 -35c0 -1 1 -2 1 -3c2 0 7 1 12 1c72 0 121 -45 121 -110c0 -86 -83 -154 -181 -154z" />
    <glyph glyph-name="fiveeighths" unicode="&#x215d;" horiz-adv-x="977" 
d="M160 50l603 659l76 -68l-603 -658zM186 270c-83 0 -142 44 -152 106l105 48v-11c0 -28 16 -52 48 -52c42 0 78 32 78 81c0 34 -21 49 -44 49c-24 0 -51 -13 -64 -42l-88 39l76 216h255l-20 -89h-165l-11 -31c-8 -25 -22 -45 -21 -45l1 -1c19 15 47 30 81 30
c71 0 108 -60 108 -126c0 -88 -77 -172 -187 -172zM733 -7c-93 0 -161 47 -161 116c0 71 64 110 117 118v3c-33 14 -59 42 -59 83c0 76 82 121 171 121c80 0 146 -46 146 -106c0 -56 -44 -92 -99 -105l-1 -3c31 -13 71 -39 71 -90c0 -85 -87 -137 -185 -137zM678 121
c0 -29 26 -47 62 -47c38 0 74 22 74 60c0 29 -27 47 -62 47c-39 0 -74 -22 -74 -60zM728 301c0 -23 21 -39 52 -39c33 0 67 16 67 52c0 23 -21 39 -52 39c-33 0 -67 -16 -67 -52z" />
    <glyph glyph-name="seveneighths" unicode="&#x215e;" horiz-adv-x="945" 
d="M123 50l603 659l76 -68l-603 -658zM702 -7c-93 0 -161 47 -161 116c0 71 64 110 117 118v3c-33 14 -59 42 -59 83c0 76 82 121 171 121c80 0 146 -46 146 -106c0 -56 -44 -92 -99 -105l-1 -3c31 -13 71 -39 71 -90c0 -85 -87 -137 -185 -137zM647 121
c0 -29 26 -47 62 -47c38 0 74 22 74 60c0 29 -27 47 -62 47c-39 0 -74 -22 -74 -60zM697 301c0 -23 21 -39 52 -39c33 0 67 16 67 52c0 23 -21 39 -52 39c-33 0 -67 -16 -67 -52zM424 704l-13 -68c-81 -103 -151 -233 -178 -359h-125c29 133 119 261 177 335h-105l-21 -98
l-90 55l30 135h325z" />
    <glyph glyph-name="uni03A9" unicode="&#x3a9;" horiz-adv-x="726" 
d="M299 108l-23 -108h-272l26 122h46c48 0 83 -7 83 -7l1 2c-56 56 -94 136 -94 225c0 188 146 362 365 362c174 0 284 -123 284 -280c0 -129 -69 -236 -177 -309l1 -2s44 9 85 9h35l-26 -122h-282l23 106c108 54 190 162 190 306c0 89 -50 162 -144 162
c-136 0 -209 -141 -209 -269c0 -89 38 -154 88 -197z" />
    <glyph glyph-name="uni0394" unicode="&#x394;" horiz-adv-x="646" 
d="M-33 0l21 95l350 597h168l99 -597l-21 -95h-617zM350 453l-186 -327h291l-46 327c-6 40 -10 91 -10 91h-4s-24 -53 -45 -91z" />
    <glyph glyph-name="uni03BC" unicode="&#x3bc;" horiz-adv-x="552" 
d="M555 504l-107 -504h-142l27 83h-3c-32 -46 -82 -93 -159 -93c-13 0 -24 2 -35 5c-2 -29 -8 -86 -20 -141l-12 -50h-138l149 700h142l-63 -293c-3 -16 -5 -32 -5 -45c0 -37 17 -61 59 -61c60 0 91 52 105 115l60 284h142z" />
    <glyph glyph-name="uni00AD" unicode="&#xad;" horiz-adv-x="342" 
d="M310 241h-271l25 116h271z" />
    <glyph glyph-name="uni2219" unicode="&#x2219;" horiz-adv-x="274" 
d="M16 265l31 147h154l-31 -147h-154z" />
    <glyph glyph-name="uni02C9" unicode="&#x2c9;" horiz-adv-x="549" 
d="M213 580l22 107h276l-23 -107h-275z" />
    <glyph glyph-name="uni2215" unicode="&#x2215;" horiz-adv-x="209" 
d="M-204 50l603 659l76 -68l-603 -658z" />
    <glyph glyph-name="AEacute" unicode="&#x1fc;" horiz-adv-x="886" 
d="M380 0l34 161h-195l-111 -161h-168l490 692h513l-26 -123h-274l-33 -156h256l-26 -121h-255l-37 -169h282l-26 -123h-424zM443 483l-142 -204h138l62 290h-4s-26 -46 -54 -86zM591 731l-54 53c66 45 118 104 151 160l92 -89c-45 -52 -120 -100 -189 -124z" />
    <glyph glyph-name="Agrave" unicode="&#xc0;" horiz-adv-x="670" 
d="M471 0l-19 158h-256l-85 -158h-156l388 692h178l94 -692h-144zM359 457l-97 -178h175l-21 178c-4 34 -8 93 -8 93h-3s-25 -55 -46 -93zM508 774l-67 -43c-56 28 -121 81 -154 140l109 73c20 -54 63 -124 112 -170z" />
    <glyph glyph-name="Aacute" unicode="&#xc1;" horiz-adv-x="670" 
d="M471 0l-19 158h-256l-85 -158h-156l388 692h178l94 -692h-144zM359 457l-97 -178h175l-21 178c-4 34 -8 93 -8 93h-3s-25 -55 -46 -93zM431 731l-54 53c66 45 118 104 151 160l92 -89c-45 -52 -120 -100 -189 -124z" />
    <glyph glyph-name="Adieresis" unicode="&#xc4;" horiz-adv-x="670" 
d="M471 0l-19 158h-256l-85 -158h-156l388 692h178l94 -692h-144zM359 457l-97 -178h175l-21 178c-4 34 -8 93 -8 93h-3s-25 -55 -46 -93zM275 810c0 48 35 85 86 85c41 0 68 -27 68 -65c0 -48 -35 -85 -86 -85c-41 0 -68 27 -68 65zM476 810c0 48 34 85 85 85
c41 0 68 -27 68 -65c0 -48 -35 -85 -86 -85c-41 0 -67 27 -67 65z" />
    <glyph glyph-name="Acircumflex" unicode="&#xc2;" horiz-adv-x="670" 
d="M471 0l-19 158h-256l-85 -158h-156l388 692h178l94 -692h-144zM359 457l-97 -178h175l-21 178c-4 34 -8 93 -8 93h-3s-25 -55 -46 -93zM450 810h-3c-29 -34 -75 -69 -123 -87l-60 89c60 21 108 43 148 86h87c29 -40 72 -70 126 -94l-71 -82c-44 20 -82 56 -104 88z" />
    <glyph glyph-name="Amacron" unicode="&#x100;" horiz-adv-x="670" 
d="M471 0l-19 158h-256l-85 -158h-156l388 692h178l94 -692h-144zM359 457l-97 -178h175l-21 178c-4 34 -8 93 -8 93h-3s-25 -55 -46 -93zM306 760l22 107h276l-23 -107h-275z" />
    <glyph glyph-name="Atilde" unicode="&#xc3;" horiz-adv-x="670" 
d="M471 0l-19 158h-256l-85 -158h-156l388 692h178l94 -692h-144zM359 457l-97 -178h175l-21 178c-4 34 -8 93 -8 93h-3s-25 -55 -46 -93zM636 846c-12 -56 -58 -106 -113 -106c-61 0 -87 52 -126 52c-25 0 -34 -27 -39 -52l-85 50c12 57 58 106 113 106
c61 0 87 -51 126 -51c25 0 34 27 39 51z" />
    <glyph glyph-name="Aring" unicode="&#xc5;" horiz-adv-x="670" 
d="M471 0l-19 158h-256l-85 -158h-156l388 692h178l94 -692h-144zM359 457l-97 -178h175l-21 178c-4 34 -8 93 -8 93h-3s-25 -55 -46 -93zM331 828c0 67 55 121 135 121c63 0 112 -43 112 -99c0 -67 -55 -121 -135 -121c-63 0 -112 43 -112 99zM460 882
c-28 0 -48 -22 -48 -50c0 -21 14 -36 37 -36c29 0 49 22 49 50c0 21 -15 36 -38 36z" />
    <glyph glyph-name="Abreve" unicode="&#x102;" horiz-adv-x="670" 
d="M471 0l-19 158h-256l-85 -158h-156l388 692h178l94 -692h-144zM359 457l-97 -178h175l-21 178c-4 34 -8 93 -8 93h-3s-25 -55 -46 -93zM517 899l105 -33c-25 -85 -96 -132 -183 -132c-77 0 -137 47 -137 124c0 5 1 8 1 8l106 33c-2 -5 -5 -17 -5 -29c0 -26 16 -44 47 -44
c43 0 63 33 66 73z" />
    <glyph glyph-name="Aogonek" unicode="&#x104;" horiz-adv-x="670" 
d="M564 -84l79 -57c-27 -39 -79 -67 -142 -67c-64 0 -115 37 -115 87c0 51 41 88 85 116l-19 163h-256l-85 -158h-156l388 692h178l94 -692c-68 -24 -131 -62 -131 -101c0 -16 12 -26 29 -26c24 0 43 19 51 43zM359 457l-97 -178h175l-21 178c-3 34 -8 93 -8 93h-3
s-25 -55 -46 -93z" />
    <glyph glyph-name="Cacute" unicode="&#x106;" horiz-adv-x="658" 
d="M422 704c145 0 259 -101 259 -217v-6l-148 -80s4 17 4 37c0 75 -40 136 -126 136c-137 0 -209 -150 -209 -293c0 -96 48 -163 138 -163c98 0 155 84 169 178l127 -89c-33 -109 -144 -219 -308 -219c-172 0 -276 130 -276 292c0 224 140 424 370 424zM436 731l-54 53
c66 45 118 104 151 160l92 -89c-45 -52 -120 -100 -189 -124z" />
    <glyph glyph-name="Cdotaccent" unicode="&#x10a;" horiz-adv-x="658" 
d="M422 704c145 0 259 -101 259 -217v-6l-148 -80s4 17 4 37c0 75 -40 136 -126 136c-137 0 -209 -150 -209 -293c0 -96 48 -163 138 -163c98 0 155 84 169 178l127 -89c-33 -109 -144 -219 -308 -219c-172 0 -276 130 -276 292c0 224 140 424 370 424zM372 815
c0 50 37 87 92 87c44 0 76 -30 76 -71c0 -50 -39 -87 -93 -87c-44 0 -75 30 -75 71z" />
    <glyph glyph-name="Ccircumflex" unicode="&#x108;" horiz-adv-x="658" 
d="M422 704c145 0 259 -101 259 -217v-6l-148 -80s4 17 4 37c0 75 -40 136 -126 136c-137 0 -209 -150 -209 -293c0 -96 48 -163 138 -163c98 0 155 84 169 178l127 -89c-33 -109 -144 -219 -308 -219c-172 0 -276 130 -276 292c0 224 140 424 370 424zM455 810h-3
c-29 -34 -75 -69 -123 -87l-60 89c60 21 108 43 148 86h87c29 -40 72 -70 126 -94l-71 -82c-44 20 -82 56 -104 88z" />
    <glyph glyph-name="Ccaron" unicode="&#x10c;" horiz-adv-x="658" 
d="M422 704c145 0 259 -101 259 -217v-6l-148 -80s4 17 4 37c0 75 -40 136 -126 136c-137 0 -209 -150 -209 -293c0 -96 48 -163 138 -163c98 0 155 84 169 178l127 -89c-33 -109 -144 -219 -308 -219c-172 0 -276 130 -276 292c0 224 140 424 370 424zM450 828h3
c29 34 74 69 123 86l60 -88c-60 -22 -108 -44 -149 -87h-86c-29 40 -72 71 -126 95l70 82c45 -20 83 -56 105 -88z" />
    <glyph glyph-name="Ccedilla" unicode="&#xc7;" horiz-adv-x="658" 
d="M422 704c145 0 259 -101 259 -217v-6l-148 -80s4 17 4 37c0 75 -40 136 -126 136c-137 0 -209 -150 -209 -293c0 -96 48 -163 138 -163c98 0 155 84 169 178l127 -89c-32 -104 -135 -209 -287 -218l-11 -24c39 -8 74 -32 74 -75c0 -60 -61 -98 -127 -98
c-58 0 -98 26 -114 58l70 45c6 -21 21 -42 51 -42c23 0 39 13 39 35c0 15 -13 26 -30 26c-15 0 -26 -8 -26 -8l-40 44l36 43c-138 25 -219 143 -219 287c0 224 140 424 370 424z" />
    <glyph glyph-name="Dcaron" unicode="&#x10e;" horiz-adv-x="693" 
d="M292 0h-279l147 692h230c186 0 298 -123 298 -282c0 -221 -143 -410 -396 -410zM315 127c150 0 223 146 223 283c0 91 -55 155 -150 155h-108l-93 -438h128zM432 828h3c29 34 74 69 123 86l60 -88c-60 -22 -108 -44 -149 -87h-86c-29 40 -72 71 -126 95l70 82
c45 -20 83 -56 105 -88z" />
    <glyph glyph-name="Egrave" unicode="&#xc8;" horiz-adv-x="574" 
d="M13 0l147 692h471l-27 -126h-325l-32 -151h307l-27 -124h-307l-35 -165h334l-27 -126h-479zM472 774l-67 -43c-56 28 -121 81 -154 140l109 73c20 -54 63 -124 112 -170z" />
    <glyph glyph-name="Eacute" unicode="&#xc9;" horiz-adv-x="574" 
d="M13 0l147 692h471l-27 -126h-325l-32 -151h307l-27 -124h-307l-35 -165h334l-27 -126h-479zM395 731l-54 53c66 45 118 104 151 160l92 -89c-45 -52 -120 -100 -189 -124z" />
    <glyph glyph-name="Edotaccent" unicode="&#x116;" horiz-adv-x="574" 
d="M13 0l147 692h471l-27 -126h-325l-32 -151h307l-27 -124h-307l-35 -165h334l-27 -126h-479zM331 815c0 50 37 87 92 87c44 0 76 -30 76 -71c0 -50 -39 -87 -93 -87c-44 0 -75 30 -75 71z" />
    <glyph glyph-name="Edieresis" unicode="&#xcb;" horiz-adv-x="574" 
d="M13 0l147 692h471l-27 -126h-325l-32 -151h307l-27 -124h-307l-35 -165h334l-27 -126h-479zM239 810c0 48 35 85 86 85c41 0 68 -27 68 -65c0 -48 -35 -85 -86 -85c-41 0 -68 27 -68 65zM440 810c0 48 34 85 85 85c41 0 68 -27 68 -65c0 -48 -35 -85 -86 -85
c-41 0 -67 27 -67 65z" />
    <glyph glyph-name="Ecircumflex" unicode="&#xca;" horiz-adv-x="574" 
d="M13 0l147 692h471l-27 -126h-325l-32 -151h307l-27 -124h-307l-35 -165h334l-27 -126h-479zM414 810h-3c-29 -34 -75 -69 -123 -87l-60 89c60 21 108 43 148 86h87c29 -40 72 -70 126 -94l-71 -82c-44 20 -82 56 -104 88z" />
    <glyph glyph-name="Ecaron" unicode="&#x11a;" horiz-adv-x="574" 
d="M13 0l147 692h471l-27 -126h-325l-32 -151h307l-27 -124h-307l-35 -165h334l-27 -126h-479zM409 828h3c29 34 74 69 123 86l60 -88c-60 -22 -108 -44 -149 -87h-86c-29 40 -72 71 -126 95l70 82c45 -20 83 -56 105 -88z" />
    <glyph glyph-name="Emacron" unicode="&#x112;" horiz-adv-x="574" 
d="M13 0l147 692h471l-27 -126h-325l-32 -151h307l-27 -124h-307l-35 -165h334l-27 -126h-479zM270 760l22 107h276l-23 -107h-275z" />
    <glyph glyph-name="Ebreve" unicode="&#x114;" horiz-adv-x="574" 
d="M13 0l147 692h471l-27 -126h-325l-32 -151h307l-27 -124h-307l-35 -165h334l-27 -126h-479zM481 899l105 -33c-25 -85 -96 -132 -183 -132c-77 0 -137 47 -137 124c0 5 1 8 1 8l106 33c-2 -5 -5 -17 -5 -29c0 -26 16 -44 47 -44c43 0 63 33 66 73z" />
    <glyph glyph-name="Eogonek" unicode="&#x118;" horiz-adv-x="574" 
d="M13 0l147 692h471l-27 -126h-325l-32 -151h307l-27 -124h-307l-35 -165h334l-26 -122l13 -4l-52 -30c-38 -22 -79 -42 -79 -71c0 -16 12 -26 29 -26c25 0 43 19 52 43l78 -57c-27 -39 -79 -67 -142 -67c-64 0 -114 37 -114 87s41 83 88 110l19 11h-372z" />
    <glyph glyph-name="Gdotaccent" unicode="&#x120;" horiz-adv-x="693" 
d="M429 704c147 0 248 -73 269 -178c1 -5 1 -8 1 -8l-146 -80v15c0 66 -47 122 -134 122c-141 0 -217 -150 -217 -294c0 -99 43 -167 137 -167c96 0 155 79 170 158v1h-198l25 122h334l-84 -395h-128l29 88h-3c-32 -46 -91 -100 -188 -100c-146 0 -244 116 -244 284
c0 232 142 432 377 432zM368 815c0 50 37 87 92 87c44 0 76 -30 76 -71c0 -50 -39 -87 -93 -87c-44 0 -75 30 -75 71z" />
    <glyph glyph-name="Gcircumflex" unicode="&#x11c;" horiz-adv-x="693" 
d="M429 704c147 0 248 -73 269 -178c1 -5 1 -8 1 -8l-146 -80v15c0 66 -47 122 -134 122c-141 0 -217 -150 -217 -294c0 -99 43 -167 137 -167c96 0 155 79 170 158v1h-198l25 122h334l-84 -395h-128l29 88h-3c-32 -46 -91 -100 -188 -100c-146 0 -244 116 -244 284
c0 232 142 432 377 432zM451 810h-3c-29 -34 -75 -69 -123 -87l-60 89c60 21 108 43 148 86h87c29 -40 72 -70 126 -94l-71 -82c-44 20 -82 56 -104 88z" />
    <glyph glyph-name="Gbreve" unicode="&#x11e;" horiz-adv-x="693" 
d="M429 704c147 0 248 -73 269 -178c1 -5 1 -8 1 -8l-146 -80v15c0 66 -47 122 -134 122c-141 0 -217 -150 -217 -294c0 -99 43 -167 137 -167c96 0 155 79 170 158v1h-198l25 122h334l-84 -395h-128l29 88h-3c-32 -46 -91 -100 -188 -100c-146 0 -244 116 -244 284
c0 232 142 432 377 432zM518 899l105 -33c-25 -85 -96 -132 -183 -132c-77 0 -137 47 -137 124c0 5 1 8 1 8l106 33c-2 -5 -5 -17 -5 -29c0 -26 16 -44 47 -44c43 0 63 33 66 73z" />
    <glyph glyph-name="uni0122" unicode="&#x122;" horiz-adv-x="693" 
d="M429 704c147 0 248 -73 269 -178c1 -5 1 -8 1 -8l-146 -80v15c0 66 -47 122 -134 122c-141 0 -217 -150 -217 -294c0 -99 43 -167 137 -167c96 0 155 79 170 158v1h-198l25 122h334l-84 -395h-128l29 88h-3c-32 -46 -91 -100 -188 -100c-146 0 -244 116 -244 284
c0 232 142 432 377 432zM187 -217c35 5 79 13 96 56c-3 -1 -6 -1 -9 -1c-29 0 -51 17 -51 48c0 40 31 65 73 65c43 0 64 -34 64 -72c0 -74 -41 -128 -101 -146z" />
    <glyph glyph-name="Hcircumflex" unicode="&#x124;" horiz-adv-x="696" 
d="M435 0l61 287h-276l-61 -287h-147l147 692h147l-58 -274h275l59 274h146l-147 -692h-146zM465 810h-3c-29 -34 -75 -69 -123 -87l-60 89c60 21 108 43 148 86h87c29 -40 72 -70 126 -94l-71 -82c-44 20 -82 56 -104 88z" />
    <glyph glyph-name="Igrave" unicode="&#xcc;" horiz-adv-x="275" 
d="M13 0l147 692h149l-147 -692h-149zM314 774l-67 -43c-56 28 -121 81 -154 140l109 73c20 -54 63 -124 112 -170z" />
    <glyph glyph-name="Iacute" unicode="&#xcd;" horiz-adv-x="275" 
d="M13 0l147 692h149l-147 -692h-149zM237 731l-54 53c66 45 118 104 151 160l92 -89c-45 -52 -120 -100 -189 -124z" />
    <glyph glyph-name="Idotaccent" unicode="&#x130;" horiz-adv-x="275" 
d="M13 0l147 692h149l-147 -692h-149zM173 815c0 50 37 87 92 87c44 0 76 -30 76 -71c0 -50 -39 -87 -93 -87c-44 0 -75 30 -75 71z" />
    <glyph glyph-name="Idieresis" unicode="&#xcf;" horiz-adv-x="275" 
d="M13 0l147 692h149l-147 -692h-149zM81 810c0 48 35 85 86 85c41 0 68 -27 68 -65c0 -48 -35 -85 -86 -85c-41 0 -68 27 -68 65zM282 810c0 48 34 85 85 85c41 0 68 -27 68 -65c0 -48 -35 -85 -86 -85c-41 0 -67 27 -67 65z" />
    <glyph glyph-name="Icircumflex" unicode="&#xce;" horiz-adv-x="275" 
d="M13 0l147 692h149l-147 -692h-149zM256 810h-3c-29 -34 -75 -69 -123 -87l-60 89c60 21 108 43 148 86h87c29 -40 72 -70 126 -94l-71 -82c-44 20 -82 56 -104 88z" />
    <glyph glyph-name="Imacron" unicode="&#x12a;" horiz-adv-x="275" 
d="M13 0l147 692h149l-147 -692h-149zM112 760l22 107h276l-23 -107h-275z" />
    <glyph glyph-name="Itilde" unicode="&#x128;" horiz-adv-x="275" 
d="M13 0l147 692h149l-147 -692h-149zM442 846c-12 -56 -58 -106 -113 -106c-61 0 -87 52 -126 52c-25 0 -34 -27 -39 -52l-85 50c12 57 58 106 113 106c61 0 87 -51 126 -51c25 0 34 27 39 51z" />
    <glyph glyph-name="Ibreve" unicode="&#x12c;" horiz-adv-x="275" 
d="M13 0l147 692h149l-147 -692h-149zM323 899l105 -33c-25 -85 -96 -132 -183 -132c-77 0 -137 47 -137 124c0 5 1 8 1 8l106 33c-2 -5 -5 -17 -5 -29c0 -26 16 -44 47 -44c43 0 63 33 66 73z" />
    <glyph glyph-name="Iogonek" unicode="&#x12e;" horiz-adv-x="276" 
d="M111 -84l79 -57c-27 -39 -79 -67 -142 -67c-64 0 -115 37 -115 87c0 48 35 83 74 109l3 3l150 701h149l-147 -692c-68 -24 -131 -62 -131 -101c0 -16 12 -26 29 -26c24 0 43 19 51 43z" />
    <glyph glyph-name="Jcircumflex" unicode="&#x134;" horiz-adv-x="572" 
d="M47 277l163 83c-17 -46 -39 -96 -39 -157c0 -50 25 -85 79 -85c70 0 105 59 125 150l90 424h147l-90 -422c-40 -187 -129 -282 -285 -282c-130 0 -207 79 -207 198c0 42 13 82 17 91zM557 810h-3c-29 -34 -75 -69 -123 -87l-60 89c60 21 108 43 148 86h87
c29 -40 72 -70 126 -94l-71 -82c-44 20 -82 56 -104 88z" />
    <glyph glyph-name="uni0136" unicode="&#x136;" horiz-adv-x="646" 
d="M13 0l147 692h146l-44 -209c-14 -64 -32 -130 -32 -130h4s54 74 113 138l195 201h183l-283 -286l158 -406h-155l-114 295l-139 -139l-33 -156h-146zM184 -217c35 5 79 13 96 56c-3 -1 -6 -1 -9 -1c-29 0 -51 17 -51 48c0 40 31 65 73 65c43 0 64 -34 64 -72
c0 -74 -41 -128 -101 -146z" />
    <glyph glyph-name="Lacute" unicode="&#x139;" horiz-adv-x="528" 
d="M13 0l147 692h148l-119 -561h302l-28 -131h-450zM236 731l-54 53c66 45 118 104 151 160l92 -89c-45 -52 -120 -100 -189 -124z" />
    <glyph glyph-name="uni013B" unicode="&#x13b;" horiz-adv-x="528" 
d="M13 0l147 692h148l-119 -561h302l-28 -131h-450zM123 -217c35 5 79 13 96 56c-3 -1 -6 -1 -9 -1c-29 0 -51 17 -51 48c0 40 31 65 73 65c43 0 64 -34 64 -72c0 -74 -41 -128 -101 -146z" />
    <glyph glyph-name="Nacute" unicode="&#x143;" horiz-adv-x="709" 
d="M595 0h-187l-114 385c-14 47 -34 136 -34 136l-3 -1c-1 -3 -13 -84 -27 -147l-79 -373h-138l147 692h187l114 -385c14 -47 37 -136 37 -136h3s11 84 25 148l79 373h137zM447 731l-54 53c66 45 118 104 151 160l92 -89c-45 -52 -120 -100 -189 -124z" />
    <glyph glyph-name="Ncaron" unicode="&#x147;" horiz-adv-x="709" 
d="M595 0h-187l-114 385c-14 47 -34 136 -34 136l-3 -1c-1 -3 -13 -84 -27 -147l-79 -373h-138l147 692h187l114 -385c14 -47 37 -136 37 -136h3s11 84 25 148l79 373h137zM461 828h3c29 34 74 69 123 86l60 -88c-60 -22 -108 -44 -149 -87h-86c-29 40 -72 71 -126 95l70 82
c45 -20 83 -56 105 -88z" />
    <glyph glyph-name="Ntilde" unicode="&#xd1;" horiz-adv-x="709" 
d="M595 0h-187l-114 385c-14 47 -34 136 -34 136l-3 -1c-1 -3 -13 -84 -27 -147l-79 -373h-138l147 692h187l114 -385c14 -47 37 -136 37 -136h3s11 84 25 148l79 373h137zM652 846c-12 -56 -58 -106 -113 -106c-61 0 -87 52 -126 52c-25 0 -34 -27 -39 -52l-85 50
c12 57 58 106 113 106c61 0 87 -51 126 -51c25 0 34 27 39 51z" />
    <glyph glyph-name="uni0145" unicode="&#x145;" horiz-adv-x="709" 
d="M167 -217c35 5 79 13 96 56c-3 -1 -6 -1 -9 -1c-29 0 -51 17 -51 48c0 40 31 65 73 65c43 0 64 -34 64 -72c0 -74 -41 -128 -101 -146zM595 0h-187l-114 385c-14 47 -34 136 -34 136l-3 -1c-1 -3 -13 -84 -27 -147l-79 -373h-138l147 692h187l114 -385
c14 -47 37 -136 37 -136h3s11 84 25 148l79 373h137z" />
    <glyph glyph-name="Ograve" unicode="&#xd2;" horiz-adv-x="710" 
d="M332 -12c-174 0 -280 130 -280 292c0 224 142 424 373 424c174 0 281 -130 281 -292c0 -224 -142 -424 -374 -424zM202 281c0 -96 50 -163 141 -163c139 0 213 150 213 293c0 96 -51 163 -142 163c-138 0 -212 -150 -212 -293zM512 774l-67 -43c-56 28 -121 81 -154 140
l109 73c20 -54 63 -124 112 -170z" />
    <glyph glyph-name="Oacute" unicode="&#xd3;" horiz-adv-x="710" 
d="M332 -12c-174 0 -280 130 -280 292c0 224 142 424 373 424c174 0 281 -130 281 -292c0 -224 -142 -424 -374 -424zM202 281c0 -96 50 -163 141 -163c139 0 213 150 213 293c0 96 -51 163 -142 163c-138 0 -212 -150 -212 -293zM435 731l-54 53c66 45 118 104 151 160
l92 -89c-45 -52 -120 -100 -189 -124z" />
    <glyph glyph-name="Ohungarumlaut" unicode="&#x150;" horiz-adv-x="710" 
d="M332 -12c-174 0 -280 130 -280 292c0 224 142 424 373 424c174 0 281 -130 281 -292c0 -224 -142 -424 -374 -424zM202 281c0 -96 50 -163 141 -163c139 0 213 150 213 293c0 96 -51 163 -142 163c-138 0 -212 -150 -212 -293zM341 731l-50 49c62 48 105 109 137 166
l89 -82c-43 -54 -110 -106 -176 -133zM535 731l-51 49c62 48 108 109 139 166l89 -82c-42 -54 -111 -106 -177 -133z" />
    <glyph glyph-name="Odieresis" unicode="&#xd6;" horiz-adv-x="710" 
d="M332 -12c-174 0 -280 130 -280 292c0 224 142 424 373 424c174 0 281 -130 281 -292c0 -224 -142 -424 -374 -424zM202 281c0 -96 50 -163 141 -163c139 0 213 150 213 293c0 96 -51 163 -142 163c-138 0 -212 -150 -212 -293zM279 810c0 48 35 85 86 85
c41 0 68 -27 68 -65c0 -48 -35 -85 -86 -85c-41 0 -68 27 -68 65zM480 810c0 48 34 85 85 85c41 0 68 -27 68 -65c0 -48 -35 -85 -86 -85c-41 0 -67 27 -67 65z" />
    <glyph glyph-name="Ocircumflex" unicode="&#xd4;" horiz-adv-x="710" 
d="M332 -12c-174 0 -280 130 -280 292c0 224 142 424 373 424c174 0 281 -130 281 -292c0 -224 -142 -424 -374 -424zM202 281c0 -96 50 -163 141 -163c139 0 213 150 213 293c0 96 -51 163 -142 163c-138 0 -212 -150 -212 -293zM454 810h-3c-29 -34 -75 -69 -123 -87
l-60 89c60 21 108 43 148 86h87c29 -40 72 -70 126 -94l-71 -82c-44 20 -82 56 -104 88z" />
    <glyph glyph-name="Omacron" unicode="&#x14c;" horiz-adv-x="710" 
d="M332 -12c-174 0 -280 130 -280 292c0 224 142 424 373 424c174 0 281 -130 281 -292c0 -224 -142 -424 -374 -424zM202 281c0 -96 50 -163 141 -163c139 0 213 150 213 293c0 96 -51 163 -142 163c-138 0 -212 -150 -212 -293zM310 760l22 107h276l-23 -107h-275z" />
    <glyph glyph-name="Obreve" unicode="&#x14e;" horiz-adv-x="710" 
d="M332 -12c-174 0 -280 130 -280 292c0 224 142 424 373 424c174 0 281 -130 281 -292c0 -224 -142 -424 -374 -424zM202 281c0 -96 50 -163 141 -163c139 0 213 150 213 293c0 96 -51 163 -142 163c-138 0 -212 -150 -212 -293zM521 899l105 -33
c-25 -85 -96 -132 -183 -132c-77 0 -137 47 -137 124c0 5 1 8 1 8l106 33c-2 -5 -5 -17 -5 -29c0 -26 16 -44 47 -44c43 0 63 33 66 73z" />
    <glyph glyph-name="Otilde" unicode="&#xd5;" horiz-adv-x="710" 
d="M332 -12c-174 0 -280 130 -280 292c0 224 142 424 373 424c174 0 281 -130 281 -292c0 -224 -142 -424 -374 -424zM202 281c0 -96 50 -163 141 -163c139 0 213 150 213 293c0 96 -51 163 -142 163c-138 0 -212 -150 -212 -293zM640 846c-12 -56 -58 -106 -113 -106
c-61 0 -87 52 -126 52c-25 0 -34 -27 -39 -52l-85 50c12 57 58 106 113 106c61 0 87 -51 126 -51c25 0 34 27 39 51z" />
    <glyph glyph-name="Oslashacute" unicode="&#x1fe;" horiz-adv-x="725" 
d="M338 -12c-67 0 -123 18 -168 51l-69 -72l-86 86l77 80c-21 43 -33 93 -33 147c0 224 142 424 373 424c66 0 122 -19 166 -51l71 72l86 -85l-78 -81c22 -43 34 -93 34 -147c0 -224 -142 -424 -373 -424zM201 282c0 -17 1 -33 4 -48l306 321c-23 17 -52 27 -88 27
c-142 0 -222 -154 -222 -300zM259 136c22 -17 52 -26 88 -26c141 0 221 154 221 300c0 16 -1 32 -4 46zM443 731l-54 53c66 45 118 104 151 160l92 -89c-45 -52 -120 -100 -189 -124z" />
    <glyph glyph-name="Racute" unicode="&#x154;" horiz-adv-x="641" 
d="M13 0l147 692h274c135 0 232 -73 232 -190c0 -112 -73 -189 -185 -219l96 -283h-149l-89 270h-123l-57 -270h-146zM390 391c74 0 127 38 127 104c0 49 -33 74 -93 74h-144l-38 -178h148zM402 731l-54 53c66 45 118 104 151 160l92 -89c-45 -52 -120 -100 -189 -124z" />
    <glyph glyph-name="Rcaron" unicode="&#x158;" horiz-adv-x="641" 
d="M13 0l147 692h274c135 0 232 -73 232 -190c0 -112 -73 -189 -185 -219l96 -283h-149l-89 270h-123l-57 -270h-146zM390 391c74 0 127 38 127 104c0 49 -33 74 -93 74h-144l-38 -178h148zM416 828h3c29 34 74 69 123 86l60 -88c-60 -22 -108 -44 -149 -87h-86
c-29 40 -72 71 -126 95l70 82c45 -20 83 -56 105 -88z" />
    <glyph glyph-name="uni0156" unicode="&#x156;" horiz-adv-x="641" 
d="M13 0l147 692h274c135 0 232 -73 232 -190c0 -112 -73 -189 -185 -219l96 -283h-149l-89 270h-123l-57 -270h-146zM390 391c74 0 127 38 127 104c0 49 -33 74 -93 74h-144l-38 -178h148zM170 -217c35 5 79 13 96 56c-3 -1 -6 -1 -9 -1c-29 0 -51 17 -51 48
c0 40 31 65 73 65c43 0 64 -34 64 -72c0 -74 -41 -128 -101 -146z" />
    <glyph glyph-name="Sacute" unicode="&#x15a;" horiz-adv-x="614" 
d="M437 196c0 55 -82 84 -168 116c-84 31 -167 89 -167 183c0 130 115 209 254 209c135 0 252 -75 283 -188l-136 -77v4c0 71 -62 140 -152 140c-53 0 -102 -26 -102 -75c0 -55 82 -70 166 -107c91 -40 168 -88 168 -189c0 -136 -116 -224 -265 -224
c-159 0 -284 84 -303 217l138 77v-7c0 -86 64 -166 171 -166c62 0 113 30 113 87zM387 731l-54 53c66 45 118 104 151 160l92 -89c-45 -52 -120 -100 -189 -124z" />
    <glyph glyph-name="Scaron" unicode="&#x160;" horiz-adv-x="614" 
d="M437 196c0 55 -82 84 -168 116c-84 31 -167 89 -167 183c0 130 115 209 254 209c135 0 252 -75 283 -188l-136 -77v4c0 71 -62 140 -152 140c-53 0 -102 -26 -102 -75c0 -55 82 -70 166 -107c91 -40 168 -88 168 -189c0 -136 -116 -224 -265 -224
c-159 0 -284 84 -303 217l138 77v-7c0 -86 64 -166 171 -166c62 0 113 30 113 87zM401 828h3c29 34 74 69 123 86l60 -88c-60 -22 -108 -44 -149 -87h-86c-29 40 -72 71 -126 95l70 82c45 -20 83 -56 105 -88z" />
    <glyph glyph-name="Scircumflex" unicode="&#x15c;" horiz-adv-x="614" 
d="M437 196c0 55 -82 84 -168 116c-84 31 -167 89 -167 183c0 130 115 209 254 209c135 0 252 -75 283 -188l-136 -77v4c0 71 -62 140 -152 140c-53 0 -102 -26 -102 -75c0 -55 82 -70 166 -107c91 -40 168 -88 168 -189c0 -136 -116 -224 -265 -224
c-159 0 -284 84 -303 217l138 77v-7c0 -86 64 -166 171 -166c62 0 113 30 113 87zM406 810h-3c-29 -34 -75 -69 -123 -87l-60 89c60 21 108 43 148 86h87c29 -40 72 -70 126 -94l-71 -82c-44 20 -82 56 -104 88z" />
    <glyph glyph-name="uni0218" unicode="&#x218;" horiz-adv-x="614" 
d="M437 196c0 55 -82 84 -168 116c-84 31 -167 89 -167 183c0 130 115 209 254 209c135 0 252 -75 283 -188l-136 -77v4c0 71 -62 140 -152 140c-53 0 -102 -26 -102 -75c0 -55 82 -70 166 -107c91 -40 168 -88 168 -189c0 -136 -116 -224 -265 -224
c-159 0 -284 84 -303 217l138 77v-7c0 -86 64 -166 171 -166c62 0 113 30 113 87zM168 -217c35 5 79 13 96 56c-3 -1 -6 -1 -9 -1c-29 0 -51 17 -51 48c0 40 31 65 73 65c43 0 64 -34 64 -72c0 -74 -41 -128 -101 -146z" />
    <glyph glyph-name="uni015E" unicode="&#x15e;" horiz-adv-x="614" 
d="M437 196c0 55 -82 84 -168 116c-84 31 -167 89 -167 183c0 130 115 209 254 209c135 0 252 -75 283 -188l-136 -77v4c0 71 -62 140 -152 140c-53 0 -102 -26 -102 -75c0 -55 82 -70 166 -107c91 -40 168 -88 168 -189c0 -133 -111 -220 -255 -224l-11 -23
c39 -8 74 -32 74 -75c0 -60 -61 -98 -127 -98c-58 0 -98 26 -114 58l70 45c6 -21 21 -42 51 -42c23 0 39 13 39 35c0 15 -13 26 -30 26c-15 0 -26 -8 -26 -8l-40 44l36 44c-126 20 -219 97 -235 211l138 77v-7c0 -86 64 -166 171 -166c62 0 113 30 113 87z" />
    <glyph glyph-name="Tcaron" unicode="&#x164;" horiz-adv-x="564" 
d="M76 561l27 131h552l-28 -131h-202l-119 -561h-148l119 561h-201zM397 828h3c29 34 74 69 123 86l60 -88c-60 -22 -108 -44 -149 -87h-86c-29 40 -72 71 -126 95l70 82c45 -20 83 -56 105 -88z" />
    <glyph glyph-name="uni021A" unicode="&#x21a;" horiz-adv-x="564" 
d="M76 561l27 131h552l-28 -131h-202l-119 -561h-148l119 561h-201zM111 -217c35 5 79 13 96 56c-3 -1 -6 -1 -9 -1c-29 0 -51 17 -51 48c0 40 31 65 73 65c43 0 64 -34 64 -72c0 -74 -41 -128 -101 -146z" />
    <glyph glyph-name="uni0162" unicode="&#x162;" horiz-adv-x="564" 
d="M76 561l27 131h552l-28 -131h-202l-119 -561h-30l-16 -35c39 -8 74 -32 74 -75c0 -60 -61 -98 -127 -98c-58 0 -98 26 -114 58l70 45c6 -21 21 -42 51 -42c23 0 39 13 39 35c0 15 -13 26 -30 26c-15 0 -26 -8 -26 -8l-40 44l42 50h-41l119 561h-201z" />
    <glyph glyph-name="Ugrave" unicode="&#xd9;" horiz-adv-x="679" 
d="M630 281c-44 -196 -142 -293 -329 -293c-142 0 -240 89 -240 221c0 32 4 62 11 95l83 388h146l-87 -409c-5 -24 -7 -43 -7 -62c0 -66 37 -103 109 -103c97 0 146 57 167 157l88 417h147zM514 774l-67 -43c-56 28 -121 81 -154 140l109 73c20 -54 63 -124 112 -170z" />
    <glyph glyph-name="Uacute" unicode="&#xda;" horiz-adv-x="679" 
d="M630 281c-44 -196 -142 -293 -329 -293c-142 0 -240 89 -240 221c0 32 4 62 11 95l83 388h146l-87 -409c-5 -24 -7 -43 -7 -62c0 -66 37 -103 109 -103c97 0 146 57 167 157l88 417h147zM437 731l-54 53c66 45 118 104 151 160l92 -89c-45 -52 -120 -100 -189 -124z" />
    <glyph glyph-name="Uhungarumlaut" unicode="&#x170;" horiz-adv-x="679" 
d="M630 281c-44 -196 -142 -293 -329 -293c-142 0 -240 89 -240 221c0 32 4 62 11 95l83 388h146l-87 -409c-5 -24 -7 -43 -7 -62c0 -66 37 -103 109 -103c97 0 146 57 167 157l88 417h147zM343 731l-50 49c62 48 105 109 137 166l89 -82c-43 -54 -110 -106 -176 -133z
M537 731l-51 49c62 48 108 109 139 166l89 -82c-42 -54 -111 -106 -177 -133z" />
    <glyph glyph-name="Udieresis" unicode="&#xdc;" horiz-adv-x="679" 
d="M630 281c-44 -196 -142 -293 -329 -293c-142 0 -240 89 -240 221c0 32 4 62 11 95l83 388h146l-87 -409c-5 -24 -7 -43 -7 -62c0 -66 37 -103 109 -103c97 0 146 57 167 157l88 417h147zM281 810c0 48 35 85 86 85c41 0 68 -27 68 -65c0 -48 -35 -85 -86 -85
c-41 0 -68 27 -68 65zM482 810c0 48 34 85 85 85c41 0 68 -27 68 -65c0 -48 -35 -85 -86 -85c-41 0 -67 27 -67 65z" />
    <glyph glyph-name="Ucircumflex" unicode="&#xdb;" horiz-adv-x="679" 
d="M630 281c-44 -196 -142 -293 -329 -293c-142 0 -240 89 -240 221c0 32 4 62 11 95l83 388h146l-87 -409c-5 -24 -7 -43 -7 -62c0 -66 37 -103 109 -103c97 0 146 57 167 157l88 417h147zM456 810h-3c-29 -34 -75 -69 -123 -87l-60 89c60 21 108 43 148 86h87
c29 -40 72 -70 126 -94l-71 -82c-44 20 -82 56 -104 88z" />
    <glyph glyph-name="Umacron" unicode="&#x16a;" horiz-adv-x="679" 
d="M630 281c-44 -196 -142 -293 -329 -293c-142 0 -240 89 -240 221c0 32 4 62 11 95l83 388h146l-87 -409c-5 -24 -7 -43 -7 -62c0 -66 37 -103 109 -103c97 0 146 57 167 157l88 417h147zM312 760l22 107h276l-23 -107h-275z" />
    <glyph glyph-name="Utilde" unicode="&#x168;" horiz-adv-x="679" 
d="M630 281c-44 -196 -142 -293 -329 -293c-142 0 -240 89 -240 221c0 32 4 62 11 95l83 388h146l-87 -409c-5 -24 -7 -43 -7 -62c0 -66 37 -103 109 -103c97 0 146 57 167 157l88 417h147zM642 846c-12 -56 -58 -106 -113 -106c-61 0 -87 52 -126 52c-25 0 -34 -27 -39 -52
l-85 50c12 57 58 106 113 106c61 0 87 -51 126 -51c25 0 34 27 39 51z" />
    <glyph glyph-name="Ubreve" unicode="&#x16c;" horiz-adv-x="679" 
d="M630 281c-44 -196 -142 -293 -329 -293c-142 0 -240 89 -240 221c0 32 4 62 11 95l83 388h146l-87 -409c-5 -24 -7 -43 -7 -62c0 -66 37 -103 109 -103c97 0 146 57 167 157l88 417h147zM523 899l105 -33c-25 -85 -96 -132 -183 -132c-77 0 -137 47 -137 124c0 5 1 8 1 8
l106 33c-2 -5 -5 -17 -5 -29c0 -26 16 -44 47 -44c43 0 63 33 66 73z" />
    <glyph glyph-name="Uring" unicode="&#x16e;" horiz-adv-x="679" 
d="M630 281c-44 -196 -142 -293 -329 -293c-142 0 -240 89 -240 221c0 32 4 62 11 95l83 388h146l-87 -409c-5 -24 -7 -43 -7 -62c0 -66 37 -103 109 -103c97 0 146 57 167 157l88 417h147zM337 828c0 67 55 121 135 121c63 0 112 -43 112 -99c0 -67 -55 -121 -135 -121
c-63 0 -112 43 -112 99zM466 882c-28 0 -48 -22 -48 -50c0 -21 14 -36 37 -36c29 0 49 22 49 50c0 21 -15 36 -38 36z" />
    <glyph glyph-name="Wgrave" unicode="&#x1e80;" horiz-adv-x="857" 
d="M600 692l-3 -422c0 -40 -5 -102 -5 -116h3s17 65 32 107l158 431h158l-278 -692h-181l2 397c0 50 4 107 5 121h-4s-21 -65 -45 -121l-169 -397h-181l19 692h150l-27 -431c-3 -42 -10 -107 -10 -107h3s24 75 41 116l177 422h155zM599 774l-67 -43c-56 28 -121 81 -154 140
l109 73c20 -54 63 -124 112 -170z" />
    <glyph glyph-name="Wacute" unicode="&#x1e82;" horiz-adv-x="857" 
d="M600 692l-3 -422c0 -40 -5 -102 -5 -116h3s17 65 32 107l158 431h158l-278 -692h-181l2 397c0 50 4 107 5 121h-4s-21 -65 -45 -121l-169 -397h-181l19 692h150l-27 -431c-3 -42 -10 -107 -10 -107h3s24 75 41 116l177 422h155zM522 731l-54 53c66 45 118 104 151 160
l92 -89c-45 -52 -120 -100 -189 -124z" />
    <glyph glyph-name="Wdieresis" unicode="&#x1e84;" horiz-adv-x="857" 
d="M600 692l-3 -422c0 -40 -5 -102 -5 -116h3s17 65 32 107l158 431h158l-278 -692h-181l2 397c0 50 4 107 5 121h-4s-21 -65 -45 -121l-169 -397h-181l19 692h150l-27 -431c-3 -42 -10 -107 -10 -107h3s24 75 41 116l177 422h155zM366 810c0 48 35 85 86 85
c41 0 68 -27 68 -65c0 -48 -35 -85 -86 -85c-41 0 -68 27 -68 65zM567 810c0 48 34 85 85 85c41 0 68 -27 68 -65c0 -48 -35 -85 -86 -85c-41 0 -67 27 -67 65z" />
    <glyph glyph-name="Wcircumflex" unicode="&#x174;" horiz-adv-x="857" 
d="M600 692l-3 -422c0 -40 -5 -102 -5 -116h3s17 65 32 107l158 431h158l-278 -692h-181l2 397c0 50 4 107 5 121h-4s-21 -65 -45 -121l-169 -397h-181l19 692h150l-27 -431c-3 -42 -10 -107 -10 -107h3s24 75 41 116l177 422h155zM541 810h-3c-29 -34 -75 -69 -123 -87
l-60 89c60 21 108 43 148 86h87c29 -40 72 -70 126 -94l-71 -82c-44 20 -82 56 -104 88z" />
    <glyph glyph-name="Ygrave" unicode="&#x1ef2;" horiz-adv-x="608" 
d="M185 0l53 254l-145 438h154l64 -213c14 -46 23 -91 23 -91h3s25 42 58 90l150 214h166l-323 -434l-55 -258h-148zM473 774l-67 -43c-56 28 -121 81 -154 140l109 73c20 -54 63 -124 112 -170z" />
    <glyph glyph-name="Yacute" unicode="&#xdd;" horiz-adv-x="608" 
d="M185 0l53 254l-145 438h154l64 -213c14 -46 23 -91 23 -91h3s25 42 58 90l150 214h166l-323 -434l-55 -258h-148zM396 731l-54 53c66 45 118 104 151 160l92 -89c-45 -52 -120 -100 -189 -124z" />
    <glyph glyph-name="Ydieresis" unicode="&#x178;" horiz-adv-x="608" 
d="M185 0l53 254l-145 438h154l64 -213c14 -46 23 -91 23 -91h3s25 42 58 90l150 214h166l-323 -434l-55 -258h-148zM240 810c0 48 35 85 86 85c41 0 68 -27 68 -65c0 -48 -35 -85 -86 -85c-41 0 -68 27 -68 65zM441 810c0 48 34 85 85 85c41 0 68 -27 68 -65
c0 -48 -35 -85 -86 -85c-41 0 -67 27 -67 65z" />
    <glyph glyph-name="Ycircumflex" unicode="&#x176;" horiz-adv-x="608" 
d="M185 0l53 254l-145 438h154l64 -213c14 -46 23 -91 23 -91h3s25 42 58 90l150 214h166l-323 -434l-55 -258h-148zM415 810h-3c-29 -34 -75 -69 -123 -87l-60 89c60 21 108 43 148 86h87c29 -40 72 -70 126 -94l-71 -82c-44 20 -82 56 -104 88z" />
    <glyph glyph-name="Zacute" unicode="&#x179;" horiz-adv-x="575" 
d="M-24 0l19 90l415 472h-308l28 130h513l-21 -96l-410 -466h319l-27 -130h-528zM376 731l-54 53c66 45 118 104 151 160l92 -89c-45 -52 -120 -100 -189 -124z" />
    <glyph glyph-name="Zdotaccent" unicode="&#x17b;" horiz-adv-x="575" 
d="M-24 0l19 90l415 472h-308l28 130h513l-21 -96l-410 -466h319l-27 -130h-528zM312 815c0 50 37 87 92 87c44 0 76 -30 76 -71c0 -50 -39 -87 -93 -87c-44 0 -75 30 -75 71z" />
    <glyph glyph-name="Zcaron" unicode="&#x17d;" horiz-adv-x="575" 
d="M-24 0l19 90l415 472h-308l28 130h513l-21 -96l-410 -466h319l-27 -130h-528zM390 828h3c29 34 74 69 123 86l60 -88c-60 -22 -108 -44 -149 -87h-86c-29 40 -72 71 -126 95l70 82c45 -20 83 -56 105 -88z" />
    <glyph glyph-name="aeacute" unicode="&#x1fd;" horiz-adv-x="844" 
d="M794 214h-312v-23c0 -63 35 -99 86 -99c57 0 82 36 98 84l114 -69c-33 -65 -96 -119 -192 -119c-59 0 -104 26 -126 73h-3l-13 -62h-136l13 62h-3c-24 -38 -62 -73 -128 -73c-102 0 -162 101 -162 211c0 154 92 317 237 317c67 0 107 -36 127 -87h3l16 74h136l-12 -56h4
c33 41 76 69 130 69c92 0 152 -73 152 -167c0 -47 -10 -91 -29 -135zM247 101c84 0 122 113 122 198c0 60 -23 104 -76 104c-83 0 -122 -113 -122 -198c0 -60 24 -104 76 -104zM620 414c-59 0 -96 -49 -117 -106h188c0 5 3 17 3 30c0 43 -23 76 -74 76zM499 551l-54 53
c66 45 118 104 151 160l92 -89c-45 -52 -120 -100 -189 -124z" />
    <glyph glyph-name="agrave" unicode="&#xe0;" horiz-adv-x="569" 
d="M278 516c72 0 115 -50 129 -95h4l17 83h141l-79 -374c-8 -39 -17 -78 -17 -103c0 -14 3 -27 3 -27h-108c-13 21 -17 42 -17 64v10h-3c-27 -42 -71 -86 -148 -86c-108 0 -169 101 -169 211c0 154 97 317 247 317zM255 101c87 0 129 113 129 198c0 60 -27 104 -83 104
c-86 0 -129 -113 -129 -198c0 -60 27 -104 83 -104zM414 594l-67 -43c-56 28 -121 81 -154 140l109 73c20 -54 63 -124 112 -170z" />
    <glyph glyph-name="aacute" unicode="&#xe1;" horiz-adv-x="569" 
d="M278 516c72 0 115 -50 129 -95h4l17 83h141l-79 -374c-8 -39 -17 -78 -17 -103c0 -14 3 -27 3 -27h-108c-13 21 -17 42 -17 64v10h-3c-27 -42 -71 -86 -148 -86c-108 0 -169 101 -169 211c0 154 97 317 247 317zM255 101c87 0 129 113 129 198c0 60 -27 104 -83 104
c-86 0 -129 -113 -129 -198c0 -60 27 -104 83 -104zM337 551l-54 53c66 45 118 104 151 160l92 -89c-45 -52 -120 -100 -189 -124z" />
    <glyph glyph-name="adieresis" unicode="&#xe4;" horiz-adv-x="569" 
d="M278 516c72 0 115 -50 129 -95h4l17 83h141l-79 -374c-8 -39 -17 -78 -17 -103c0 -14 3 -27 3 -27h-108c-13 21 -17 42 -17 64v10h-3c-27 -42 -71 -86 -148 -86c-108 0 -169 101 -169 211c0 154 97 317 247 317zM255 101c87 0 129 113 129 198c0 60 -27 104 -83 104
c-86 0 -129 -113 -129 -198c0 -60 27 -104 83 -104zM181 630c0 48 35 85 86 85c41 0 68 -27 68 -65c0 -48 -35 -85 -86 -85c-41 0 -68 27 -68 65zM382 630c0 48 34 85 85 85c41 0 68 -27 68 -65c0 -48 -35 -85 -86 -85c-41 0 -67 27 -67 65z" />
    <glyph glyph-name="acircumflex" unicode="&#xe2;" horiz-adv-x="569" 
d="M278 516c72 0 115 -50 129 -95h4l17 83h141l-79 -374c-8 -39 -17 -78 -17 -103c0 -14 3 -27 3 -27h-108c-13 21 -17 42 -17 64v10h-3c-27 -42 -71 -86 -148 -86c-108 0 -169 101 -169 211c0 154 97 317 247 317zM255 101c87 0 129 113 129 198c0 60 -27 104 -83 104
c-86 0 -129 -113 -129 -198c0 -60 27 -104 83 -104zM356 630h-3c-29 -34 -75 -69 -123 -87l-60 89c60 21 108 43 148 86h87c29 -40 72 -70 126 -94l-71 -82c-44 20 -82 56 -104 88z" />
    <glyph glyph-name="amacron" unicode="&#x101;" horiz-adv-x="569" 
d="M278 516c72 0 115 -50 129 -95h4l17 83h141l-79 -374c-8 -39 -17 -78 -17 -103c0 -14 3 -27 3 -27h-108c-13 21 -17 42 -17 64v10h-3c-27 -42 -71 -86 -148 -86c-108 0 -169 101 -169 211c0 154 97 317 247 317zM255 101c87 0 129 113 129 198c0 60 -27 104 -83 104
c-86 0 -129 -113 -129 -198c0 -60 27 -104 83 -104zM212 580l22 107h276l-23 -107h-275z" />
    <glyph glyph-name="atilde" unicode="&#xe3;" horiz-adv-x="569" 
d="M278 516c72 0 115 -50 129 -95h4l17 83h141l-79 -374c-8 -39 -17 -78 -17 -103c0 -14 3 -27 3 -27h-108c-13 21 -17 42 -17 64v10h-3c-27 -42 -71 -86 -148 -86c-108 0 -169 101 -169 211c0 154 97 317 247 317zM255 101c87 0 129 113 129 198c0 60 -27 104 -83 104
c-86 0 -129 -113 -129 -198c0 -60 27 -104 83 -104zM542 666c-12 -56 -58 -106 -113 -106c-61 0 -87 52 -126 52c-25 0 -34 -27 -39 -52l-85 50c12 57 58 106 113 106c61 0 87 -51 126 -51c25 0 34 27 39 51z" />
    <glyph glyph-name="aring" unicode="&#xe5;" horiz-adv-x="569" 
d="M278 516c72 0 115 -50 129 -95h4l17 83h141l-79 -374c-8 -39 -17 -78 -17 -103c0 -14 3 -27 3 -27h-108c-13 21 -17 42 -17 64v10h-3c-27 -42 -71 -86 -148 -86c-108 0 -169 101 -169 211c0 154 97 317 247 317zM255 101c87 0 129 113 129 198c0 60 -27 104 -83 104
c-86 0 -129 -113 -129 -198c0 -60 27 -104 83 -104zM237 648c0 67 55 121 135 121c63 0 112 -43 112 -99c0 -67 -55 -121 -135 -121c-63 0 -112 43 -112 99zM366 702c-28 0 -48 -22 -48 -50c0 -21 14 -36 37 -36c29 0 49 22 49 50c0 21 -15 36 -38 36z" />
    <glyph glyph-name="abreve" unicode="&#x103;" horiz-adv-x="569" 
d="M278 516c72 0 115 -50 129 -95h4l17 83h141l-79 -374c-8 -39 -17 -78 -17 -103c0 -14 3 -27 3 -27h-108c-13 21 -17 42 -17 64v10h-3c-27 -42 -71 -86 -148 -86c-108 0 -169 101 -169 211c0 154 97 317 247 317zM255 101c87 0 129 113 129 198c0 60 -27 104 -83 104
c-86 0 -129 -113 -129 -198c0 -60 27 -104 83 -104zM423 719l105 -33c-25 -85 -96 -132 -183 -132c-77 0 -137 47 -137 124c0 5 1 8 1 8l106 33c-2 -5 -5 -17 -5 -29c0 -26 16 -44 47 -44c43 0 63 33 66 73z" />
    <glyph glyph-name="aogonek" unicode="&#x105;" horiz-adv-x="569" 
d="M424 -84l78 -57c-27 -39 -79 -67 -142 -67c-64 0 -114 37 -114 87s41 83 88 110l30 17c-10 19 -13 38 -13 58v10h-3c-27 -42 -71 -86 -148 -86c-108 0 -169 101 -169 211c0 154 97 317 247 317c72 0 115 -50 129 -95h4l17 83h141l-79 -374c-8 -39 -17 -78 -17 -103
c0 -14 3 -27 3 -27h-2l-52 -30c-38 -22 -79 -42 -79 -71c0 -16 12 -26 29 -26c25 0 43 19 52 43zM255 101c87 0 129 113 129 198c0 60 -27 104 -83 104c-86 0 -129 -113 -129 -198c0 -60 27 -104 83 -104z" />
    <glyph glyph-name="cacute" unicode="&#x107;" horiz-adv-x="511" 
d="M300 408c-87 0 -128 -119 -128 -209c0 -59 23 -103 79 -103c61 0 96 61 102 124l122 -69c-22 -75 -110 -163 -235 -163c-126 0 -209 91 -209 214c0 169 103 314 280 314c114 0 196 -74 196 -166v-2l-139 -63c1 6 6 24 6 47c0 41 -24 76 -74 76zM313 551l-54 53
c66 45 118 104 151 160l92 -89c-45 -52 -120 -100 -189 -124z" />
    <glyph glyph-name="cdotaccent" unicode="&#x10b;" horiz-adv-x="511" 
d="M300 408c-87 0 -128 -119 -128 -209c0 -59 23 -103 79 -103c61 0 96 61 102 124l122 -69c-22 -75 -110 -163 -235 -163c-126 0 -209 91 -209 214c0 169 103 314 280 314c114 0 196 -74 196 -166v-2l-139 -63c1 6 6 24 6 47c0 41 -24 76 -74 76zM249 635c0 50 37 87 92 87
c44 0 76 -30 76 -71c0 -50 -39 -87 -93 -87c-44 0 -75 30 -75 71z" />
    <glyph glyph-name="ccircumflex" unicode="&#x109;" horiz-adv-x="511" 
d="M300 408c-87 0 -128 -119 -128 -209c0 -59 23 -103 79 -103c61 0 96 61 102 124l122 -69c-22 -75 -110 -163 -235 -163c-126 0 -209 91 -209 214c0 169 103 314 280 314c114 0 196 -74 196 -166v-2l-139 -63c1 6 6 24 6 47c0 41 -24 76 -74 76zM332 630h-3
c-29 -34 -75 -69 -123 -87l-60 89c60 21 108 43 148 86h87c29 -40 72 -70 126 -94l-71 -82c-44 20 -82 56 -104 88z" />
    <glyph glyph-name="ccaron" unicode="&#x10d;" horiz-adv-x="511" 
d="M300 408c-87 0 -128 -119 -128 -209c0 -59 23 -103 79 -103c61 0 96 61 102 124l122 -69c-22 -75 -110 -163 -235 -163c-126 0 -209 91 -209 214c0 169 103 314 280 314c114 0 196 -74 196 -166v-2l-139 -63c1 6 6 24 6 47c0 41 -24 76 -74 76zM327 648h3
c29 34 74 69 123 86l60 -88c-60 -22 -108 -44 -149 -87h-86c-29 40 -72 71 -126 95l70 82c45 -20 83 -56 105 -88z" />
    <glyph glyph-name="ccedilla" unicode="&#xe7;" horiz-adv-x="511" 
d="M300 408c-87 0 -128 -119 -128 -209c0 -59 23 -103 79 -103c61 0 96 61 102 124l122 -69c-20 -69 -96 -149 -205 -161l-12 -25c39 -8 74 -32 74 -75c0 -60 -61 -98 -127 -98c-58 0 -98 26 -114 58l70 45c6 -21 21 -42 51 -42c23 0 39 13 39 35c0 15 -13 26 -30 26
c-15 0 -26 -8 -26 -8l-40 44l36 43c-98 20 -160 102 -160 209c0 169 103 314 280 314c114 0 196 -74 196 -166v-2l-139 -63c1 6 6 24 6 47c0 41 -24 76 -74 76z" />
    <glyph glyph-name="egrave" unicode="&#xe8;" horiz-adv-x="528" 
d="M484 214h-323v-18c0 -64 28 -104 90 -104c57 0 90 36 105 84l116 -70c-42 -70 -129 -118 -224 -118c-137 0 -216 83 -216 216c0 168 104 312 284 312c118 0 197 -73 197 -186c0 -45 -14 -84 -29 -116zM305 414c-61 0 -101 -49 -123 -106h201c1 6 3 14 3 27
c0 45 -27 79 -81 79zM399 594l-67 -43c-56 28 -121 81 -154 140l109 73c20 -54 63 -124 112 -170z" />
    <glyph glyph-name="eacute" unicode="&#xe9;" horiz-adv-x="528" 
d="M484 214h-323v-18c0 -64 28 -104 90 -104c57 0 90 36 105 84l116 -70c-42 -70 -129 -118 -224 -118c-137 0 -216 83 -216 216c0 168 104 312 284 312c118 0 197 -73 197 -186c0 -45 -14 -84 -29 -116zM305 414c-61 0 -101 -49 -123 -106h201c1 6 3 14 3 27
c0 45 -27 79 -81 79zM322 551l-54 53c66 45 118 104 151 160l92 -89c-45 -52 -120 -100 -189 -124z" />
    <glyph glyph-name="edotaccent" unicode="&#x117;" horiz-adv-x="528" 
d="M484 214h-323v-18c0 -64 28 -104 90 -104c57 0 90 36 105 84l116 -70c-42 -70 -129 -118 -224 -118c-137 0 -216 83 -216 216c0 168 104 312 284 312c118 0 197 -73 197 -186c0 -45 -14 -84 -29 -116zM305 414c-61 0 -101 -49 -123 -106h201c1 6 3 14 3 27
c0 45 -27 79 -81 79zM258 635c0 50 37 87 92 87c44 0 76 -30 76 -71c0 -50 -39 -87 -93 -87c-44 0 -75 30 -75 71z" />
    <glyph glyph-name="edieresis" unicode="&#xeb;" horiz-adv-x="528" 
d="M484 214h-323v-18c0 -64 28 -104 90 -104c57 0 90 36 105 84l116 -70c-42 -70 -129 -118 -224 -118c-137 0 -216 83 -216 216c0 168 104 312 284 312c118 0 197 -73 197 -186c0 -45 -14 -84 -29 -116zM305 414c-61 0 -101 -49 -123 -106h201c1 6 3 14 3 27
c0 45 -27 79 -81 79zM166 630c0 48 35 85 86 85c41 0 68 -27 68 -65c0 -48 -35 -85 -86 -85c-41 0 -68 27 -68 65zM367 630c0 48 34 85 85 85c41 0 68 -27 68 -65c0 -48 -35 -85 -86 -85c-41 0 -67 27 -67 65z" />
    <glyph glyph-name="ecircumflex" unicode="&#xea;" horiz-adv-x="528" 
d="M484 214h-323v-18c0 -64 28 -104 90 -104c57 0 90 36 105 84l116 -70c-42 -70 -129 -118 -224 -118c-137 0 -216 83 -216 216c0 168 104 312 284 312c118 0 197 -73 197 -186c0 -45 -14 -84 -29 -116zM305 414c-61 0 -101 -49 -123 -106h201c1 6 3 14 3 27
c0 45 -27 79 -81 79zM341 630h-3c-29 -34 -75 -69 -123 -87l-60 89c60 21 108 43 148 86h87c29 -40 72 -70 126 -94l-71 -82c-44 20 -82 56 -104 88z" />
    <glyph glyph-name="ecaron" unicode="&#x11b;" horiz-adv-x="528" 
d="M484 214h-323v-18c0 -64 28 -104 90 -104c57 0 90 36 105 84l116 -70c-42 -70 -129 -118 -224 -118c-137 0 -216 83 -216 216c0 168 104 312 284 312c118 0 197 -73 197 -186c0 -45 -14 -84 -29 -116zM305 414c-61 0 -101 -49 -123 -106h201c1 6 3 14 3 27
c0 45 -27 79 -81 79zM336 648h3c29 34 74 69 123 86l60 -88c-60 -22 -108 -44 -149 -87h-86c-29 40 -72 71 -126 95l70 82c45 -20 83 -56 105 -88z" />
    <glyph glyph-name="emacron" unicode="&#x113;" horiz-adv-x="528" 
d="M484 214h-323v-18c0 -64 28 -104 90 -104c57 0 90 36 105 84l116 -70c-42 -70 -129 -118 -224 -118c-137 0 -216 83 -216 216c0 168 104 312 284 312c118 0 197 -73 197 -186c0 -45 -14 -84 -29 -116zM305 414c-61 0 -101 -49 -123 -106h201c1 6 3 14 3 27
c0 45 -27 79 -81 79zM197 580l22 107h276l-23 -107h-275z" />
    <glyph glyph-name="ebreve" unicode="&#x115;" horiz-adv-x="528" 
d="M484 214h-323v-18c0 -64 28 -104 90 -104c57 0 90 36 105 84l116 -70c-42 -70 -129 -118 -224 -118c-137 0 -216 83 -216 216c0 168 104 312 284 312c118 0 197 -73 197 -186c0 -45 -14 -84 -29 -116zM305 414c-61 0 -101 -49 -123 -106h201c1 6 3 14 3 27
c0 45 -27 79 -81 79zM408 719l105 -33c-25 -85 -96 -132 -183 -132c-77 0 -137 47 -137 124c0 5 1 8 1 8l106 33c-2 -5 -5 -17 -5 -29c0 -26 16 -44 47 -44c43 0 63 33 66 73z" />
    <glyph glyph-name="gdotaccent" unicode="&#x121;" horiz-adv-x="540" 
d="M63 25l1 3c-28 10 -55 35 -55 70c0 66 73 100 134 108l1 3c-37 20 -71 65 -71 121c0 117 106 186 225 186c46 0 80 -9 116 -9c62 0 65 62 67 110l116 -74c-10 -53 -46 -97 -105 -97c-14 0 -31 2 -39 5l-1 -3c21 -19 42 -54 42 -100c0 -116 -125 -179 -237 -179
c-52 0 -119 -12 -119 -48c0 -18 19 -26 51 -26c42 0 82 7 135 7c98 0 167 -44 167 -120c0 -150 -169 -186 -313 -186c-134 0 -241 41 -241 118c0 66 65 101 126 111zM240 -10c-69 0 -179 -6 -179 -59c0 -32 54 -45 126 -45c54 0 163 9 163 64c0 35 -47 40 -110 40zM295 421
c-52 0 -97 -34 -97 -90c0 -44 34 -68 76 -68c52 0 96 34 96 90c0 44 -33 68 -75 68zM251 635c0 50 37 87 92 87c44 0 76 -30 76 -71c0 -50 -39 -87 -93 -87c-44 0 -75 30 -75 71z" />
    <glyph glyph-name="gcircumflex" unicode="&#x11d;" horiz-adv-x="538" 
d="M60 25l1 3c-28 10 -55 35 -55 70c0 66 77 100 139 108v3c-37 20 -73 65 -73 121c0 117 108 186 228 186c47 0 83 -12 120 -12c74 0 91 45 93 88l95 -57c-12 -49 -51 -89 -115 -89c-14 0 -30 2 -39 5l-1 -3c21 -19 44 -53 44 -99c0 -119 -126 -180 -239 -180
c-52 0 -123 -12 -123 -48c0 -18 19 -26 51 -26c42 0 82 7 135 7c98 0 167 -44 167 -120c0 -150 -169 -186 -313 -186c-134 0 -241 41 -241 118c0 66 65 101 126 111zM237 -10c-69 0 -179 -6 -179 -59c0 -32 54 -45 126 -45c54 0 163 9 163 64c0 35 -47 40 -110 40zM296 421
c-52 0 -97 -34 -97 -90c0 -44 34 -68 76 -68c52 0 98 34 98 90c0 44 -35 68 -77 68zM336 630h-3c-29 -34 -74 -69 -123 -87l-59 89c59 21 107 43 148 86h87c27 -38 70 -69 122 -92l-70 -82c-43 20 -81 55 -102 86z" />
    <glyph glyph-name="gbreve" unicode="&#x11f;" horiz-adv-x="538" 
d="M237 -10c-69 0 -179 -6 -179 -59c0 -32 54 -45 126 -45c54 0 163 9 163 64c0 35 -47 40 -110 40zM296 421c-52 0 -97 -34 -97 -90c0 -44 34 -68 76 -68c52 0 98 34 98 90c0 44 -35 68 -77 68zM60 25l1 3c-28 10 -55 35 -55 70c0 66 77 100 139 108v3
c-37 20 -73 65 -73 121c0 117 108 186 228 186c47 0 83 -12 120 -12c74 0 90 45 92 91l96 -60c-12 -49 -51 -89 -115 -89c-14 0 -30 2 -39 5l-1 -3c21 -19 44 -53 44 -99c0 -119 -126 -180 -239 -180c-52 0 -123 -12 -123 -48c0 -18 19 -26 51 -26c42 0 82 7 135 7
c98 0 167 -44 167 -120c0 -150 -169 -186 -313 -186c-134 0 -241 41 -241 118c0 66 65 101 126 111zM405 719l105 -33c-25 -85 -96 -132 -183 -132c-77 0 -137 47 -137 124c0 5 1 8 1 8l106 33c-2 -5 -5 -17 -5 -29c0 -26 16 -44 47 -44c44 0 63 33 66 73z" />
    <glyph glyph-name="uni0123" unicode="&#x123;" horiz-adv-x="540" 
d="M63 25l1 3c-28 10 -55 35 -55 70c0 66 73 100 134 108l1 3c-37 20 -71 65 -71 121c0 117 106 186 225 186c46 0 80 -9 116 -9c62 0 65 62 67 110l116 -74c-10 -53 -46 -97 -105 -97c-14 0 -31 2 -39 5l-1 -3c21 -19 42 -54 42 -100c0 -116 -125 -179 -237 -179
c-52 0 -119 -12 -119 -48c0 -18 19 -26 51 -26c42 0 82 7 135 7c98 0 167 -44 167 -120c0 -150 -169 -186 -313 -186c-134 0 -241 41 -241 118c0 66 65 101 126 111zM240 -10c-69 0 -179 -6 -179 -59c0 -32 54 -45 126 -45c54 0 163 9 163 64c0 35 -47 40 -110 40zM295 421
c-52 0 -97 -34 -97 -90c0 -44 34 -68 76 -68c52 0 96 34 96 90c0 44 -33 68 -75 68zM433 716c-35 -5 -80 -13 -96 -56c3 1 6 1 10 1c29 0 51 -17 51 -48c0 -40 -32 -65 -73 -65c-43 0 -64 34 -64 72c0 74 40 128 100 146z" />
    <glyph glyph-name="hcircumflex" unicode="&#x125;" horiz-adv-x="559" 
d="M520 306l-66 -306h-141l62 293c3 16 5 32 5 45c0 37 -21 61 -62 61c-61 0 -95 -52 -108 -115l-60 -284h-142l154 724h142l-39 -179c-11 -56 -35 -124 -35 -124h3c32 49 84 95 161 95c83 0 134 -55 134 -139c0 -18 -3 -49 -8 -71zM252 850h-3c-29 -34 -75 -69 -123 -87
l-60 89c60 21 108 43 148 86h87c29 -40 72 -70 126 -94l-71 -82c-44 20 -82 56 -104 88z" />
    <glyph glyph-name="igrave" unicode="&#xec;" horiz-adv-x="258" 
d="M8 0l107 504h143l-107 -504h-143zM266 594l-67 -43c-56 28 -121 81 -154 140l109 73c20 -54 63 -124 112 -170z" />
    <glyph glyph-name="iacute" unicode="&#xed;" horiz-adv-x="258" 
d="M8 0l107 504h143l-107 -504h-143zM189 551l-54 53c66 45 118 104 151 160l92 -89c-45 -52 -120 -100 -189 -124z" />
    <glyph glyph-name="idieresis" unicode="&#xef;" horiz-adv-x="258" 
d="M8 0l107 504h143l-107 -504h-143zM33 630c0 48 35 85 86 85c41 0 68 -27 68 -65c0 -48 -35 -85 -86 -85c-41 0 -68 27 -68 65zM234 630c0 48 34 85 85 85c41 0 68 -27 68 -65c0 -48 -35 -85 -86 -85c-41 0 -67 27 -67 65z" />
    <glyph glyph-name="icircumflex" unicode="&#xee;" horiz-adv-x="258" 
d="M8 0l107 504h143l-107 -504h-143zM208 630h-3c-29 -34 -75 -69 -123 -87l-60 89c60 21 108 43 148 86h87c29 -40 72 -70 126 -94l-71 -82c-44 20 -82 56 -104 88z" />
    <glyph glyph-name="imacron" unicode="&#x12b;" horiz-adv-x="258" 
d="M8 0l107 504h143l-107 -504h-143zM64 580l22 107h276l-23 -107h-275z" />
    <glyph glyph-name="itilde" unicode="&#x129;" horiz-adv-x="258" 
d="M8 0l107 504h143l-107 -504h-143zM394 666c-12 -56 -58 -106 -113 -106c-61 0 -87 52 -126 52c-25 0 -34 -27 -39 -52l-85 50c12 57 58 106 113 106c61 0 87 -51 126 -51c25 0 34 27 39 51z" />
    <glyph glyph-name="ibreve" unicode="&#x12d;" horiz-adv-x="258" 
d="M8 0l107 504h143l-107 -504h-143zM275 719l105 -33c-25 -85 -96 -132 -183 -132c-77 0 -137 47 -137 124c0 5 1 8 1 8l106 33c-2 -5 -5 -17 -5 -29c0 -26 16 -44 47 -44c43 0 63 33 66 73z" />
    <glyph glyph-name="iogonek" unicode="&#x12f;" horiz-adv-x="258" 
d="M100 -84l79 -57c-27 -39 -79 -67 -143 -67s-114 37 -114 87c0 48 36 83 75 109l10 7l1 5l107 504h143l-107 -504c-68 -24 -132 -62 -132 -101c0 -16 13 -26 29 -26c25 0 44 19 52 43zM127 633v4c1 49 38 85 92 85h1c28 0 51 -12 63 -32c8 -11 12 -25 12 -39
c0 -50 -39 -87 -93 -87h-2c-44 0 -73 29 -73 69z" />
    <glyph glyph-name="jcircumflex" unicode="&#x135;" horiz-adv-x="268" 
d="M-27 -208l-110 96c91 14 140 46 163 153l98 463h143l-105 -497c-26 -121 -85 -196 -189 -215zM218 630h-3c-29 -34 -75 -69 -123 -87l-60 89c60 21 108 43 148 86h87c29 -40 72 -70 126 -94l-71 -82c-44 20 -82 56 -104 88z" />
    <glyph glyph-name="uni0137" unicode="&#x137;" horiz-adv-x="538" 
d="M586 504l-213 -201l120 -303h-149l-81 203l-90 -90l-23 -113h-142l154 724h142l-69 -324c-13 -62 -34 -124 -34 -124h3s43 54 80 92l133 136h169zM124 -217c35 5 79 13 96 56c-3 -1 -6 -1 -9 -1c-29 0 -51 17 -51 48c0 40 31 65 73 65c43 0 64 -34 64 -72
c0 -74 -41 -128 -101 -146z" />
    <glyph glyph-name="lacute" unicode="&#x13a;" horiz-adv-x="258" 
d="M8 0l153 724h143l-153 -724h-143zM237 771l-54 53c66 45 118 104 151 160l92 -89c-45 -52 -120 -100 -189 -124z" />
    <glyph glyph-name="uni013C" unicode="&#x13c;" horiz-adv-x="258" 
d="M8 0l153 724h143l-153 -724h-143zM-42 -217c35 5 79 13 96 56c-3 -1 -6 -1 -9 -1c-29 0 -51 17 -51 48c0 40 31 65 73 65c43 0 64 -34 64 -72c0 -74 -41 -128 -101 -146z" />
    <glyph glyph-name="nacute" unicode="&#x144;" horiz-adv-x="559" 
d="M520 306l-66 -306h-141l62 293c3 16 5 32 5 45c0 37 -21 61 -62 61c-61 0 -95 -52 -108 -115l-60 -284h-142l107 504h142l-27 -83h3c32 49 84 95 161 95c83 0 134 -55 134 -139c0 -18 -3 -49 -8 -71zM338 551l-54 53c66 45 118 104 151 160l92 -89
c-45 -52 -120 -100 -189 -124z" />
    <glyph glyph-name="ncaron" unicode="&#x148;" horiz-adv-x="559" 
d="M520 306l-66 -306h-141l62 293c3 16 5 32 5 45c0 37 -21 61 -62 61c-61 0 -95 -52 -108 -115l-60 -284h-142l107 504h142l-27 -83h3c32 49 84 95 161 95c83 0 134 -55 134 -139c0 -18 -3 -49 -8 -71zM352 648h3c29 34 74 69 123 86l60 -88c-60 -22 -108 -44 -149 -87h-86
c-29 40 -72 71 -126 95l70 82c45 -20 83 -56 105 -88z" />
    <glyph glyph-name="ntilde" unicode="&#xf1;" horiz-adv-x="559" 
d="M520 306l-66 -306h-141l62 293c3 16 5 32 5 45c0 37 -21 61 -62 61c-61 0 -95 -52 -108 -115l-60 -284h-142l107 504h142l-27 -83h3c32 49 84 95 161 95c83 0 134 -55 134 -139c0 -18 -3 -49 -8 -71zM543 666c-12 -56 -58 -106 -113 -106c-61 0 -87 52 -126 52
c-25 0 -34 -27 -39 -52l-85 50c12 57 58 106 113 106c61 0 87 -51 126 -51c25 0 34 27 39 51z" />
    <glyph glyph-name="uni0146" unicode="&#x146;" horiz-adv-x="559" 
d="M520 306l-66 -306h-141l62 293c3 16 5 32 5 45c0 37 -21 61 -62 61c-61 0 -95 -52 -108 -115l-60 -284h-142l107 504h142l-27 -83h3c32 49 84 95 161 95c83 0 134 -55 134 -139c0 -18 -3 -49 -8 -71zM115 -217c35 5 79 13 96 56c-3 -1 -6 -1 -9 -1c-29 0 -51 17 -51 48
c0 40 31 65 73 65c43 0 64 -34 64 -72c0 -74 -41 -128 -101 -146z" />
    <glyph glyph-name="napostrophe" unicode="&#x149;" horiz-adv-x="808" 
d="M769 306l-66 -306h-141l62 293c3 16 5 32 5 45c0 37 -21 61 -62 61c-61 0 -95 -52 -108 -115l-60 -284h-142l107 504h142l-27 -83h3c32 49 84 95 161 95c83 0 134 -55 134 -139c0 -18 -3 -49 -8 -71zM306 611c0 -94 -46 -180 -135 -222l-70 65c51 19 102 41 125 97
c-7 -2 -14 -2 -23 -2c-40 0 -70 28 -70 65c0 52 38 90 91 90c51 0 82 -31 82 -93z" />
    <glyph glyph-name="ograve" unicode="&#xf2;" horiz-adv-x="551" 
d="M31 202c0 169 105 314 284 314c125 0 214 -89 214 -214c0 -169 -106 -314 -284 -314c-125 0 -214 89 -214 214zM172 198c0 -59 28 -102 82 -102c88 0 133 120 133 210c0 59 -28 102 -82 102c-89 0 -133 -120 -133 -210zM401 594l-67 -43c-56 28 -121 81 -154 140l109 73
c20 -54 63 -124 112 -170z" />
    <glyph glyph-name="oacute" unicode="&#xf3;" horiz-adv-x="551" 
d="M31 202c0 169 105 314 284 314c125 0 214 -89 214 -214c0 -169 -106 -314 -284 -314c-125 0 -214 89 -214 214zM172 198c0 -59 28 -102 82 -102c88 0 133 120 133 210c0 59 -28 102 -82 102c-89 0 -133 -120 -133 -210zM324 551l-54 53c66 45 118 104 151 160l92 -89
c-45 -52 -120 -100 -189 -124z" />
    <glyph glyph-name="ohungarumlaut" unicode="&#x151;" horiz-adv-x="551" 
d="M31 202c0 169 105 314 284 314c125 0 214 -89 214 -214c0 -169 -106 -314 -284 -314c-125 0 -214 89 -214 214zM172 198c0 -59 28 -102 82 -102c88 0 133 120 133 210c0 59 -28 102 -82 102c-89 0 -133 -120 -133 -210zM230 551l-50 49c62 48 105 109 137 166l89 -82
c-43 -54 -110 -106 -176 -133zM424 551l-51 49c62 48 108 109 139 166l89 -82c-42 -54 -111 -106 -177 -133z" />
    <glyph glyph-name="odieresis" unicode="&#xf6;" horiz-adv-x="551" 
d="M31 202c0 169 105 314 284 314c125 0 214 -89 214 -214c0 -169 -106 -314 -284 -314c-125 0 -214 89 -214 214zM172 198c0 -59 28 -102 82 -102c88 0 133 120 133 210c0 59 -28 102 -82 102c-89 0 -133 -120 -133 -210zM168 630c0 48 35 85 86 85c41 0 68 -27 68 -65
c0 -48 -35 -85 -86 -85c-41 0 -68 27 -68 65zM369 630c0 48 34 85 85 85c41 0 68 -27 68 -65c0 -48 -35 -85 -86 -85c-41 0 -67 27 -67 65z" />
    <glyph glyph-name="ocircumflex" unicode="&#xf4;" horiz-adv-x="551" 
d="M31 202c0 169 105 314 284 314c125 0 214 -89 214 -214c0 -169 -106 -314 -284 -314c-125 0 -214 89 -214 214zM172 198c0 -59 28 -102 82 -102c88 0 133 120 133 210c0 59 -28 102 -82 102c-89 0 -133 -120 -133 -210zM343 630h-3c-29 -34 -75 -69 -123 -87l-60 89
c60 21 108 43 148 86h87c29 -40 72 -70 126 -94l-71 -82c-44 20 -82 56 -104 88z" />
    <glyph glyph-name="omacron" unicode="&#x14d;" horiz-adv-x="551" 
d="M31 202c0 169 105 314 284 314c125 0 214 -89 214 -214c0 -169 -106 -314 -284 -314c-125 0 -214 89 -214 214zM172 198c0 -59 28 -102 82 -102c88 0 133 120 133 210c0 59 -28 102 -82 102c-89 0 -133 -120 -133 -210zM199 580l22 107h276l-23 -107h-275z" />
    <glyph glyph-name="obreve" unicode="&#x14f;" horiz-adv-x="551" 
d="M31 202c0 169 105 314 284 314c125 0 214 -89 214 -214c0 -169 -106 -314 -284 -314c-125 0 -214 89 -214 214zM172 198c0 -59 28 -102 82 -102c88 0 133 120 133 210c0 59 -28 102 -82 102c-89 0 -133 -120 -133 -210zM410 719l105 -33c-25 -85 -96 -132 -183 -132
c-77 0 -137 47 -137 124c0 5 1 8 1 8l106 33c-2 -5 -5 -17 -5 -29c0 -26 16 -44 47 -44c43 0 63 33 66 73z" />
    <glyph glyph-name="otilde" unicode="&#xf5;" horiz-adv-x="551" 
d="M31 202c0 169 105 314 284 314c125 0 214 -89 214 -214c0 -169 -106 -314 -284 -314c-125 0 -214 89 -214 214zM172 198c0 -59 28 -102 82 -102c88 0 133 120 133 210c0 59 -28 102 -82 102c-89 0 -133 -120 -133 -210zM529 666c-12 -56 -58 -106 -113 -106
c-61 0 -87 52 -126 52c-25 0 -34 -27 -39 -52l-85 50c12 57 58 106 113 106c61 0 87 -51 126 -51c25 0 34 27 39 51z" />
    <glyph glyph-name="oslashacute" unicode="&#x1ff;" horiz-adv-x="563" 
d="M77 -37l-79 80l60 59c-14 29 -21 63 -21 100c0 169 106 314 281 314c45 0 85 -12 118 -32l56 58l79 -80l-60 -60c14 -30 22 -63 22 -100c0 -169 -105 -314 -281 -314c-45 0 -86 12 -119 31zM166 198v-4l199 204c-14 9 -33 15 -57 15c-98 0 -142 -123 -142 -215zM204 106
c14 -10 33 -15 58 -15c97 0 142 123 142 215v3zM215 551l-54 53c66 45 118 104 151 160l92 -89c-45 -52 -120 -100 -189 -124z" />
    <glyph glyph-name="racute" unicode="&#x155;" horiz-adv-x="445" 
d="M8 0l107 504h142l-27 -83h3c31 49 80 93 140 93c58 0 90 -42 90 -100c0 -39 -11 -71 -20 -94l-143 -73c16 36 30 75 30 110c0 23 -11 39 -35 39c-44 0 -72 -51 -86 -118l-59 -278h-142zM297 551l-54 53c66 45 118 104 151 160l92 -89c-45 -52 -120 -100 -189 -124z" />
    <glyph glyph-name="rcaron" unicode="&#x159;" horiz-adv-x="445" 
d="M8 0l107 504h142l-27 -83h3c31 49 80 93 140 93c58 0 90 -42 90 -100c0 -39 -11 -71 -20 -94l-143 -73c16 36 30 75 30 110c0 23 -11 39 -35 39c-44 0 -72 -51 -86 -118l-59 -278h-142zM311 648h3c29 34 74 69 123 86l60 -88c-60 -22 -108 -44 -149 -87h-86
c-29 40 -72 71 -126 95l70 82c45 -20 83 -56 105 -88z" />
    <glyph glyph-name="uni0157" unicode="&#x157;" horiz-adv-x="445" 
d="M8 0l107 504h142l-27 -83h3c31 49 80 93 140 93c58 0 90 -42 90 -100c0 -39 -11 -71 -20 -94l-143 -73c16 36 30 75 30 110c0 23 -11 39 -35 39c-44 0 -72 -51 -86 -118l-59 -278h-142zM-42 -217c35 5 79 13 96 56c-3 -1 -6 -1 -9 -1c-29 0 -51 17 -51 48
c0 40 31 65 73 65c43 0 64 -34 64 -72c0 -74 -41 -128 -101 -146z" />
    <glyph glyph-name="sacute" unicode="&#x15b;" horiz-adv-x="504" 
d="M127 188c14 -61 53 -97 117 -97c38 0 73 18 73 52c0 39 -58 52 -115 71c-64 22 -132 57 -132 137c0 105 102 165 210 165c107 0 186 -46 224 -123l-122 -61c-10 50 -51 81 -105 81c-34 0 -66 -16 -66 -47c0 -34 58 -42 124 -68c64 -26 123 -57 123 -140
c0 -105 -104 -170 -216 -170c-124 0 -209 53 -238 138zM300 551l-54 53c66 45 118 104 151 160l92 -89c-45 -52 -120 -100 -189 -124z" />
    </font>
</defs>
</svg>
