<?xml version="1.0" standalone="no"?>
<!DOCTYPE svg PUBLIC "-//W3C//DTD SVG 1.1//EN" "http://www.w3.org/Graphics/SVG/1.1/DTD/svg11.dtd" >
<svg xmlns="http://www.w3.org/2000/svg" xmlns:xlink="http://www.w3.org/1999/xlink" version="1.1">
<metadata>
Created by FontForge 20170924 at Mon Feb 13 15:47:44 2017
 By www-data
Copyright (c) 2017. All rights reserved. Helsinki Grotesk is a customized version of Graebenbach for the City of Helsinki. Graebenbach is a design by Wolfgang Schwaerzler, published by Camelot Typefaces. www.camelot-typefaces.com
</metadata>
<defs>
<font id="HelsinkiGrotesk-Regular" horiz-adv-x="600" >
  <font-face 
    font-family="Helsinki Grotesk Regular"
    font-weight="400"
    font-stretch="normal"
    units-per-em="1000"
    panose-1="2 11 0 3 4 2 2 0 0 3"
    ascent="736"
    descent="-264"
    x-height="504"
    cap-height="692"
    bbox="-158 -247 1212 967"
    underline-thickness="50"
    underline-position="-200"
    stemh="72"
    stemv="84"
    unicode-range="U+0020-FEFF"
  />
<missing-glyph 
d="M80 0v692h440v-692h-440zM447 622h-243l243 -490v490zM153 554v-484h243z" />
    <glyph glyph-name="f_j" unicode="fj" horiz-adv-x="537" 
d="M112 0v432h-88v72h88v36c0 142 90 196 180 196c84 0 138 -37 171 -96l-82 -49c-12 52 -45 73 -89 73c-52 0 -98 -34 -98 -122v-38h122v-72h-122v-432h-82zM333 -208l-80 56c104 20 128 64 128 176v480h84v-508c0 -116 -40 -184 -132 -204z" />
    <glyph glyph-name="f_adieresis" unicode="f&#xe4;" horiz-adv-x="854" 
d="M256 664c-46 0 -62 -36 -62 -100v-60h126v-72h-126v-432h-82v432h-88v72h88v64c0 108 54 168 142 168c80 0 118 -53 138 -93l-79 -48c-2 31 -15 69 -57 69zM596 444c-84 0 -126 -60 -138 -132l-78 47c25 89 108 157 216 157c104 0 190 -52 190 -177v-231
c0 -56 5 -80 12 -108h-68c-16 28 -19 44 -22 68h-2c-24 -36 -75 -80 -155 -80c-93 0 -160 53 -160 148c0 108 104 135 192 153c76 16 119 25 119 68c0 52 -46 87 -106 87zM706 196v76c-16 -24 -53 -37 -105 -49c-60 -13 -126 -27 -126 -87c0 -44 31 -76 92 -76
c72 0 139 52 139 136zM495 704c34 0 58 -24 58 -58s-24 -58 -58 -58s-58 24 -58 58s24 58 58 58zM673 704c34 0 58 -24 58 -58s-24 -58 -58 -58s-58 24 -58 58s24 58 58 58z" />
    <glyph glyph-name="f_odieresis" unicode="f&#xf6;" horiz-adv-x="870" 
d="M256 664c-46 0 -62 -36 -62 -100v-60h126v-72h-126v-432h-82v432h-88v72h88v64c0 108 54 168 142 168c80 0 118 -53 138 -93l-79 -48c-2 31 -15 69 -57 69zM598 -12c-140 0 -228 112 -228 264s88 264 228 264s228 -112 228 -264s-88 -264 -228 -264zM454 252
c0 -104 48 -192 144 -192s144 88 144 192s-48 192 -144 192s-144 -88 -144 -192zM501 704c34 0 58 -24 58 -58s-24 -58 -58 -58s-58 24 -58 58s24 58 58 58zM679 704c34 0 58 -24 58 -58s-24 -58 -58 -58s-58 24 -58 58s24 58 58 58z" />
    <glyph glyph-name="f_udieresis" unicode="f&#xfc;" horiz-adv-x="890" 
d="M256 664c-46 0 -62 -36 -62 -100v-60h126v-72h-126v-432h-82v432h-88v72h88v64c0 108 54 168 142 168c80 0 118 -53 138 -93l-79 -48c-2 31 -15 69 -57 69zM418 188v316h84v-300c0 -100 36 -140 108 -140c78 0 124 64 124 142v298h84v-504h-84l6 88h-2
c-20 -44 -64 -100 -152 -100c-104 0 -168 68 -168 200zM521 704c34 0 58 -24 58 -58s-24 -58 -58 -58s-58 24 -58 58s24 58 58 58zM699 704c34 0 58 -24 58 -58s-24 -58 -58 -58s-58 24 -58 58s24 58 58 58z" />
    <glyph glyph-name="f_b" unicode="fb" horiz-adv-x="938" 
d="M256 664c-46 0 -62 -36 -62 -100v-60h126v-72h-126v-432h-82v432h-88v72h88v64c0 108 54 168 142 168c80 0 118 -53 138 -93l-79 -48c-2 31 -15 69 -57 69zM526 76v-76h-84v724h84v-184c0 -60 -6 -124 -6 -124h2c20 44 72 100 160 100c116 0 212 -108 212 -264
s-96 -264 -212 -264c-88 0 -136 56 -154 88h-2zM522 252c0 -104 48 -192 144 -192s144 88 144 192s-48 192 -144 192s-144 -88 -144 -192z" />
    <glyph glyph-name="f_h" unicode="fh" horiz-adv-x="918" 
d="M256 664c-46 0 -62 -36 -62 -100v-60h126v-72h-126v-432h-82v432h-88v72h88v64c0 108 54 168 142 168c80 0 118 -53 138 -93l-79 -48c-2 31 -15 69 -57 69zM850 316v-316h-84v300c0 100 -40 140 -112 140c-78 0 -128 -65 -128 -142v-298h-84v724h84v-184
c0 -60 -6 -124 -6 -124h2c20 44 68 100 156 100c104 0 172 -68 172 -200z" />
    <glyph glyph-name="f_k" unicode="fk" horiz-adv-x="869" 
d="M256 664c-46 0 -62 -36 -62 -100v-60h126v-72h-126v-432h-82v432h-88v72h88v64c0 108 54 168 142 168c80 0 118 -53 138 -93l-79 -48c-2 31 -15 69 -57 69zM846 504l-172 -200l199 -304h-96l-157 243l-94 -112v-131h-84v724h84v-368c0 -60 -6 -125 -6 -125h2s39 54 73 95
l150 178h101z" />
    <glyph glyph-name="f_t" unicode="ft" horiz-adv-x="663" 
d="M606 108l45 -69c-18 -24 -56 -51 -108 -51c-64 0 -117 28 -117 130v314h-78v72h78v112l82 52v-164h130v-72h-130v-307c0 -48 14 -65 44 -65c28 0 46 28 54 48zM256 664c-46 0 -62 -36 -62 -100v-60h106v-72h-106v-432h-82v432h-88v72h88v64c0 108 54 168 142 168
c80 0 118 -53 138 -93l-79 -48c-2 31 -15 69 -57 69z" />
    <glyph glyph-name="t_t" unicode="tt" horiz-adv-x="672" 
d="M615 108l45 -69c-18 -24 -56 -51 -108 -51c-64 0 -117 28 -117 130v314h-88v72h88v116l82 52v-168h130v-72h-130v-307c0 -48 14 -65 44 -65c28 0 46 28 54 48zM288 108l45 -69c-18 -24 -56 -51 -108 -51c-64 0 -117 28 -117 130v314h-92v72h92v116l82 52v-168h109v-72
h-109v-307c0 -48 14 -65 44 -65c28 0 46 28 54 48z" />
    <glyph glyph-name="f_f_j" unicode="ffj" horiz-adv-x="916" 
d="M256 664c-46 0 -62 -36 -62 -100v-60h112v-72h-112v-432h-82v432h-88v72h88v64c0 108 54 168 142 168c80 0 118 -53 138 -93l-79 -48c-2 31 -15 69 -57 69zM574 664c-46 0 -62 -36 -62 -100v-60h126v-72h-126v-432h-82v432h-76v72h76v64c0 108 54 168 142 168
c80 0 118 -53 138 -93l-79 -48c-2 31 -15 69 -57 69zM802 704c34 0 58 -24 58 -58s-24 -58 -58 -58s-58 24 -58 58s24 58 58 58zM712 -208l-80 56c104 20 128 64 128 176v480h84v-508c0 -116 -40 -184 -132 -204z" />
    <glyph glyph-name="f_f_adieresis" unicode="ff&#xe4;" horiz-adv-x="1172" 
d="M256 664c-46 0 -62 -36 -62 -100v-60h112v-72h-112v-432h-82v432h-88v72h88v64c0 108 54 168 142 168c80 0 118 -53 138 -93l-79 -48c-2 31 -15 69 -57 69zM574 664c-46 0 -62 -36 -62 -100v-60h126v-72h-126v-432h-82v432h-76v72h76v64c0 108 54 168 142 168
c80 0 118 -53 138 -93l-79 -48c-2 31 -15 69 -57 69zM914 444c-84 0 -126 -60 -138 -132l-78 47c25 89 108 157 216 157c104 0 190 -52 190 -177v-231c0 -56 5 -80 12 -108h-68c-16 28 -19 44 -22 68h-2c-24 -36 -75 -80 -155 -80c-93 0 -160 53 -160 148
c0 108 104 135 192 153c76 16 119 25 119 68c0 52 -46 87 -106 87zM1024 196v76c-16 -24 -53 -37 -105 -49c-60 -13 -126 -27 -126 -87c0 -44 31 -76 92 -76c72 0 139 52 139 136zM813 704c34 0 58 -24 58 -58s-24 -58 -58 -58s-58 24 -58 58s24 58 58 58zM991 704
c34 0 58 -24 58 -58s-24 -58 -58 -58s-58 24 -58 58s24 58 58 58z" />
    <glyph glyph-name="f_f_odieresis" unicode="ff&#xf6;" horiz-adv-x="1196" 
d="M256 664c-46 0 -62 -36 -62 -100v-60h112v-72h-112v-432h-82v432h-88v72h88v64c0 108 54 168 142 168c80 0 118 -53 138 -93l-79 -48c-2 31 -15 69 -57 69zM574 664c-46 0 -62 -36 -62 -100v-60h126v-72h-126v-432h-82v432h-76v72h76v64c0 108 54 168 142 168
c80 0 118 -53 138 -93l-79 -48c-2 31 -15 69 -57 69zM924 -12c-140 0 -228 112 -228 264s88 264 228 264s228 -112 228 -264s-88 -264 -228 -264zM780 252c0 -104 48 -192 144 -192s144 88 144 192s-48 192 -144 192s-144 -88 -144 -192zM827 704c34 0 58 -24 58 -58
s-24 -58 -58 -58s-58 24 -58 58s24 58 58 58zM1005 704c34 0 58 -24 58 -58s-24 -58 -58 -58s-58 24 -58 58s24 58 58 58z" />
    <glyph glyph-name="f_f_udieresis" unicode="ff&#xfc;" horiz-adv-x="1208" 
d="M256 664c-46 0 -62 -36 -62 -100v-60h112v-72h-112v-432h-82v432h-88v72h88v64c0 108 54 168 142 168c80 0 118 -53 138 -93l-79 -48c-2 31 -15 69 -57 69zM574 664c-46 0 -62 -36 -62 -100v-60h126v-72h-126v-432h-82v432h-76v72h76v64c0 108 54 168 142 168
c80 0 118 -53 138 -93l-79 -48c-2 31 -15 69 -57 69zM736 188v316h84v-300c0 -100 36 -140 108 -140c78 0 124 64 124 142v298h84v-504h-84l6 88h-2c-20 -44 -64 -100 -152 -100c-104 0 -168 68 -168 200zM839 704c34 0 58 -24 58 -58s-24 -58 -58 -58s-58 24 -58 58
s24 58 58 58zM1017 704c34 0 58 -24 58 -58s-24 -58 -58 -58s-58 24 -58 58s24 58 58 58z" />
    <glyph glyph-name="f_f_b" unicode="ffb" horiz-adv-x="1256" 
d="M256 664c-46 0 -62 -36 -62 -100v-60h112v-72h-112v-432h-82v432h-88v72h88v64c0 108 54 168 142 168c80 0 118 -53 138 -93l-79 -48c-2 31 -15 69 -57 69zM574 664c-46 0 -62 -36 -62 -100v-60h126v-72h-126v-432h-82v432h-76v72h76v64c0 108 54 168 142 168
c80 0 118 -53 138 -93l-79 -48c-2 31 -15 69 -57 69zM844 76v-76h-84v724h84v-184c0 -60 -6 -124 -6 -124h2c20 44 72 100 160 100c116 0 212 -108 212 -264s-96 -264 -212 -264c-88 0 -136 56 -154 88h-2zM840 252c0 -104 48 -192 144 -192s144 88 144 192
s-48 192 -144 192s-144 -88 -144 -192z" />
    <glyph glyph-name="f_f_h" unicode="ffh" horiz-adv-x="1236" 
d="M256 664c-46 0 -62 -36 -62 -100v-60h112v-72h-112v-432h-82v432h-88v72h88v64c0 108 54 168 142 168c80 0 118 -53 138 -93l-79 -48c-2 31 -15 69 -57 69zM574 664c-46 0 -62 -36 -62 -100v-60h126v-72h-126v-432h-82v432h-76v72h76v64c0 108 54 168 142 168
c80 0 118 -53 138 -93l-79 -48c-2 31 -15 69 -57 69zM1168 316v-316h-84v300c0 100 -40 140 -112 140c-78 0 -128 -65 -128 -142v-298h-84v724h84v-184c0 -60 -6 -124 -6 -124h2c20 44 68 100 156 100c104 0 172 -68 172 -200z" />
    <glyph glyph-name="f_f_k" unicode="ffk" horiz-adv-x="1187" 
d="M256 664c-46 0 -62 -36 -62 -100v-60h112v-72h-112v-432h-82v432h-88v72h88v64c0 108 54 168 142 168c80 0 118 -53 138 -93l-79 -48c-2 31 -15 69 -57 69zM574 664c-46 0 -62 -36 -62 -100v-60h126v-72h-126v-432h-82v432h-76v72h76v64c0 108 54 168 142 168
c80 0 118 -53 138 -93l-79 -48c-2 31 -15 69 -57 69zM1164 504l-172 -200l199 -304h-96l-157 243l-94 -112v-131h-84v724h84v-368c0 -60 -6 -125 -6 -125h2s39 54 73 95l150 178h101z" />
    <glyph glyph-name="f_f_t" unicode="fft" horiz-adv-x="981" 
d="M256 664c-46 0 -62 -36 -62 -100v-60h112v-72h-112v-432h-82v432h-88v72h88v64c0 108 54 168 142 168c80 0 118 -53 138 -93l-79 -48c-2 31 -15 69 -57 69zM924 108l45 -69c-18 -24 -56 -51 -108 -51c-64 0 -117 28 -117 130v314h-78v72h78v112l82 52v-164h130v-72h-130
v-307c0 -48 14 -65 44 -65c28 0 46 28 54 48zM574 664c-46 0 -62 -36 -62 -100v-60h106v-72h-106v-432h-82v432h-76v72h76v64c0 108 54 168 142 168c80 0 118 -53 138 -93l-79 -48c-2 31 -15 69 -57 69z" />
    <glyph glyph-name="f_f" unicode="ff" horiz-adv-x="662" 
d="M580 664c-46 0 -68 -36 -68 -100v-60h126v-72h-126v-432h-82v432h-76v72h76v64c0 108 60 168 148 168c80 0 124 -49 144 -93l-80 -48c-2 35 -20 69 -62 69zM256 664c-46 0 -62 -36 -62 -100v-60h112v-72h-112v-432h-82v432h-88v72h88v64c0 108 54 168 142 168
c80 0 118 -53 138 -93l-79 -48c-2 31 -15 69 -57 69z" />
    <glyph glyph-name="f_f_i" unicode="ffi" horiz-adv-x="916" 
d="M256 664c-46 0 -62 -36 -62 -100v-60h112v-72h-112v-432h-82v432h-88v72h88v64c0 108 54 168 142 168c80 0 118 -53 138 -93l-79 -48c-2 31 -15 69 -57 69zM574 664c-46 0 -62 -36 -62 -100v-60h126v-72h-126v-432h-82v432h-76v72h76v64c0 108 54 168 142 168
c80 0 118 -53 138 -93l-79 -48c-2 31 -15 69 -57 69zM760 0v504h84v-504h-84zM802 704c34 0 58 -24 58 -58s-24 -58 -58 -58s-58 24 -58 58s24 58 58 58z" />
    <glyph glyph-name="f_f_l" unicode="ffl" horiz-adv-x="916" 
d="M256 664c-46 0 -62 -36 -62 -100v-60h112v-72h-112v-432h-82v432h-88v72h88v64c0 108 54 168 142 168c80 0 118 -53 138 -93l-79 -48c-2 31 -15 69 -57 69zM574 664c-46 0 -62 -36 -62 -100v-60h126v-72h-126v-432h-82v432h-76v72h76v64c0 108 54 168 142 168
c80 0 118 -53 138 -93l-79 -48c-2 31 -15 69 -57 69zM760 0v724h84v-724h-84z" />
    <glyph glyph-name="f_i" unicode="fi" horiz-adv-x="537" 
d="M112 0v432h-88v72h88v36c0 142 90 196 180 196c84 0 138 -37 171 -96l-82 -49c-12 52 -45 73 -89 73c-52 0 -98 -34 -98 -122v-38h122v-72h-122v-432h-82zM381 0v504h84v-504h-84z" />
    <glyph glyph-name="f_l" unicode="fl" horiz-adv-x="545" 
d="M389 0v563c0 73 -44 101 -94 101c-64 0 -101 -35 -101 -119v-41h122v-72h-122v-432h-82v432h-88v72h88v48c0 134 88 184 160 184c74 0 105 -43 117 -59h2v47h82v-724h-84z" />
    <glyph glyph-name=".notdef" 
d="M80 0v692h440v-692h-440zM447 622h-243l243 -490v490zM153 554v-484h243z" />
    <glyph glyph-name="space" unicode=" " horiz-adv-x="230" 
 />
    <glyph glyph-name="at" unicode="@" horiz-adv-x="873" 
d="M446 393c-58 0 -89 -41 -96 -79l-70 39c25 53 80 106 168 106c81 0 139 -42 139 -134v-127c0 -38 18 -57 51 -57c56 0 97 64 97 147c0 168 -121 287 -289 287c-184 0 -308 -129 -308 -317c0 -193 126 -324 302 -324c99 0 186 33 227 96l75 -45
c-54 -57 -155 -119 -302 -119c-217 0 -380 155 -380 392c0 228 162 388 386 388c208 0 367 -150 367 -358c0 -149 -94 -212 -175 -212c-45 0 -93 12 -113 55h-1c-16 -23 -61 -55 -117 -55c-63 0 -117 44 -117 106c0 77 69 101 134 114c52 10 89 18 89 46c0 32 -31 51 -67 51
zM517 230v43c-10 -15 -40 -23 -75 -32c-35 -8 -79 -18 -79 -56c0 -28 25 -44 61 -44c45 0 93 30 93 89z" />
    <glyph glyph-name="A" unicode="A" horiz-adv-x="635" 
d="M532 0l-70 196h-290l-70 -196h-90l254 692h103l254 -692h-91zM282 504l-83 -232h236l-83 232c-13 36 -34 104 -34 104h-2s-21 -68 -34 -104z" />
    <glyph glyph-name="B" unicode="B" horiz-adv-x="621" 
d="M80 0v692h245c136 0 228 -65 228 -171c0 -86 -45 -131 -97 -153v-2c54 -15 125 -61 125 -169c0 -120 -84 -197 -232 -197h-269zM463 507c0 72 -51 105 -126 105h-169v-216h169c75 0 126 39 126 111zM491 201c0 75 -52 117 -132 117h-191v-238h191c80 0 132 46 132 121z
" />
    <glyph glyph-name="C" unicode="C" horiz-adv-x="668" 
d="M352 -12c-168 0 -304 136 -304 360c0 223 136 356 304 356c160 0 264 -116 276 -228l-84 -52c-8 112 -68 200 -192 200c-141 0 -214 -120 -214 -276s73 -280 214 -280c124 0 184 92 192 204l84 -52c-12 -112 -116 -232 -276 -232z" />
    <glyph glyph-name="D" unicode="D" horiz-adv-x="692" 
d="M80 692h232c196 0 332 -120 332 -344s-136 -348 -332 -348h-232v692zM554 348c0 152 -79 264 -217 264h-169v-532h169c138 0 217 116 217 268z" />
    <glyph glyph-name="E" unicode="E" horiz-adv-x="568" 
d="M80 0v692h436v-80h-348v-216h332v-80h-332v-236h356v-80h-444z" />
    <glyph glyph-name="F" unicode="F" horiz-adv-x="544" 
d="M80 0v692h428v-80h-340v-220h324v-80h-324v-312h-88z" />
    <glyph glyph-name="G" unicode="G" horiz-adv-x="704" 
d="M360 624c-145 0 -222 -120 -222 -276s68 -280 216 -280c116 0 190 80 190 208v20h-244v80h332v-376h-90l10 112h-2c-36 -67 -104 -124 -208 -124c-168 0 -294 136 -294 360s140 356 312 356c152 0 252 -94 280 -204l-84 -52c-16 96 -80 176 -196 176z" />
    <glyph glyph-name="H" unicode="H" horiz-adv-x="688" 
d="M520 0v316h-352v-316h-88v692h88v-296h352v296h88v-692h-88z" />
    <glyph glyph-name="I" unicode="I" horiz-adv-x="250" 
d="M80 0v692h90v-692h-90z" />
    <glyph glyph-name="J" unicode="J" horiz-adv-x="540" 
d="M380 692h88v-432c0 -177 -64 -272 -211 -272c-148 0 -213 103 -213 225c0 23 1 35 3 51l89 52s-6 -52 -6 -79c0 -102 39 -169 127 -169s123 65 123 182v442z" />
    <glyph glyph-name="K" unicode="K" horiz-adv-x="618" 
d="M80 0v692h86v-244c0 -68 -2 -128 -2 -128h2s34 51 86 112l220 260h108l-226 -263l268 -429h-101l-225 362l-130 -154v-208h-86z" />
    <glyph glyph-name="L" unicode="L" horiz-adv-x="512" 
d="M80 0v692h88v-612h332v-80h-420z" />
    <glyph glyph-name="M" unicode="M" horiz-adv-x="832" 
d="M417 112h2s15 60 35 116l164 464h134v-692h-86v468c0 68 2 128 2 128h-2s-22 -64 -42 -120l-168 -476h-80l-168 476c-20 56 -42 120 -42 120h-2s2 -60 2 -128v-468h-86v692h138l164 -464c20 -56 35 -116 35 -116z" />
    <glyph glyph-name="N" unicode="N" horiz-adv-x="696" 
d="M616 0h-128l-261 480c-26 48 -62 124 -62 124l-2 -1c0 -1 3 -64 3 -131v-472h-86v692h128l261 -480c26 -48 62 -124 62 -124h2c0 2 -3 65 -3 132v472h86v-692z" />
    <glyph glyph-name="O" unicode="O" horiz-adv-x="720" 
d="M360 -12c-172 0 -312 136 -312 360s140 356 312 356s312 -132 312 -356s-140 -360 -312 -360zM582 348c0 156 -77 276 -222 276s-222 -120 -222 -276s77 -280 222 -280s222 124 222 280z" />
    <glyph glyph-name="P" unicode="P" horiz-adv-x="618" 
d="M80 0v692h272c152 0 242 -72 242 -200s-90 -204 -242 -204h-184v-288h-88zM504 492c0 84 -52 120 -140 120h-196v-244h196c88 0 140 40 140 124z" />
    <glyph glyph-name="Q" unicode="Q" horiz-adv-x="720" 
d="M360 -12c-172 0 -312 136 -312 360s140 356 312 356s312 -132 312 -356c0 -153 -65 -261 -161 -314v-3h7c72 0 139 -33 171 -81l-58 -70c-34 49 -98 108 -271 108zM582 348c0 156 -77 276 -222 276s-222 -120 -222 -276s77 -280 222 -280s222 124 222 280z" />
    <glyph glyph-name="R" unicode="R" horiz-adv-x="626" 
d="M80 0v692h264c152 0 242 -76 242 -196c0 -96 -61 -166 -160 -191l180 -305h-96l-176 296h-166v-296h-88zM496 496c0 78 -52 116 -140 116h-188v-236h188c88 0 140 41 140 120z" />
    <glyph glyph-name="S" unicode="S" horiz-adv-x="616" 
d="M277 328c-88 28 -209 63 -209 187c0 116 97 189 220 189c112 0 227 -57 272 -191l-84 -52c-14 101 -88 165 -188 165c-72 0 -132 -39 -132 -103c0 -86 111 -99 207 -130c105 -34 213 -75 213 -203c0 -120 -101 -202 -245 -202c-140 0 -259 77 -287 220l84 52
c10 -104 74 -194 203 -194c88 0 157 44 157 120c0 98 -111 110 -211 142z" />
    <glyph glyph-name="T" unicode="T" horiz-adv-x="536" 
d="M4 612v80h528v-80h-220v-612h-88v612h-220z" />
    <glyph glyph-name="U" unicode="U" horiz-adv-x="669" 
d="M334 -12c-164 0 -262 99 -262 295v409h88v-413c0 -140 62 -211 174 -211s175 71 175 211v413h88v-409c0 -196 -99 -295 -263 -295z" />
    <glyph glyph-name="V" unicode="V" horiz-adv-x="627" 
d="M106 692l174 -496c13 -36 34 -103 34 -103h2s21 67 34 103l174 496h91l-249 -692h-105l-249 692h94z" />
    <glyph glyph-name="W" unicode="W" horiz-adv-x="840" 
d="M476 692l120 -506c8 -35 19 -98 19 -98h2s8 63 15 98l106 506h88l-153 -692h-112l-120 500c-12 49 -20 104 -20 104h-2s-8 -55 -20 -104l-120 -500h-112l-153 692h90l106 -506c7 -35 15 -98 15 -98h2s11 63 19 98l120 506h110z" />
    <glyph glyph-name="X" unicode="X" 
d="M300 305h-2s-25 -42 -49 -81l-136 -224h-101l229 360l-211 332h102l120 -196c24 -39 48 -79 48 -79h2s24 40 48 79l120 196h100l-212 -330l230 -362h-103l-136 224c-24 39 -49 81 -49 81z" />
    <glyph glyph-name="Y" unicode="Y" horiz-adv-x="562" 
d="M237 0v270l-237 422h95l139 -255c24 -44 47 -92 47 -92h2s23 48 47 92l140 255h92l-237 -422v-270h-88z" />
    <glyph glyph-name="Z" unicode="Z" horiz-adv-x="559" 
d="M28 0v64l390 548h-386v80h497v-64l-390 -548h396v-80h-507z" />
    <glyph glyph-name="ampersand" unicode="&#x26;" horiz-adv-x="665" 
d="M286 341c40 -73 92 -145 137 -195c41 53 75 136 82 254l78 -46c-14 -95 -51 -183 -113 -256c19 -19 43 -38 74 -38c32 0 42 25 49 50l52 -67c-22 -26 -49 -55 -103 -55c-59 0 -97 28 -125 54c-42 -30 -96 -54 -156 -54c-116 0 -217 67 -217 187c0 96 78 153 143 193
c-24 56 -39 111 -39 162c0 100 67 174 167 174c84 0 152 -55 152 -143c0 -90 -83 -157 -181 -220zM368 93c-55 61 -111 137 -153 216c-48 -33 -85 -67 -85 -129c0 -74 65 -120 135 -120c40 0 74 14 103 33zM227 530c0 -40 12 -85 31 -130c58 38 129 87 129 157
c0 44 -28 75 -72 75c-52 0 -88 -42 -88 -102z" />
    <glyph glyph-name="AE" unicode="&#xc6;" horiz-adv-x="908" 
d="M460 0v192h-252l-115 -192h-97l423 692h437v-78h-310v-219h294v-78h-294v-239h318v-78h-404zM414 534l-161 -268h207v348h-2s-20 -41 -44 -80z" />
    <glyph glyph-name="OE" unicode="&#x152;" horiz-adv-x="920" 
d="M876 0h-410c-31 -8 -65 -12 -98 -12c-176 0 -320 136 -320 360s144 356 320 356c33 0 67 -4 98 -12h402v-78h-310v-219h294v-78h-294v-239h318v-78zM472 609c-31 12 -66 19 -104 19c-150 0 -230 -124 -230 -280s80 -284 230 -284c38 0 73 7 104 18v527z" />
    <glyph glyph-name="Eth" unicode="&#xd0;" horiz-adv-x="736" 
d="M356 0h-232v322h-96v66h96v304h232c196 0 332 -120 332 -344s-136 -348 -332 -348zM372 322h-162v-242h162c145 0 226 112 226 268s-81 264 -226 264h-162v-224h162v-66z" />
    <glyph glyph-name="Dcroat" unicode="&#x110;" horiz-adv-x="736" 
d="M356 0h-232v322h-96v66h96v304h232c196 0 332 -120 332 -344s-136 -348 -332 -348zM372 322h-162v-242h162c145 0 226 112 226 268s-81 264 -226 264h-162v-224h162v-66z" />
    <glyph glyph-name="Hbar" unicode="&#x126;" horiz-adv-x="776" 
d="M748 505h-96v-505h-86v316h-356v-316h-86v505h-96v66h96v121h86v-121h356v121h86v-121h96v-66zM210 394h356v111h-356v-111z" />
    <glyph glyph-name="IJ" unicode="&#x132;" horiz-adv-x="576" 
d="M161 202v-4c0 -67 32 -130 122 -130c100 0 133 66 133 174v450h88v-435c0 -197 -89 -269 -221 -269s-200 81 -208 173zM72 264v428h88v-428h-88z" />
    <glyph glyph-name="Lslash" unicode="&#x141;" horiz-adv-x="541" 
d="M105 0v236l-73 -38l-32 60l105 55v379h86v-334l156 82l32 -61l-188 -98v-201h334v-80h-420z" />
    <glyph glyph-name="Ldot" unicode="&#x13f;" horiz-adv-x="516" 
d="M80 0v692h88v-612h332v-80h-420zM330 412c34 0 58 -24 58 -58s-24 -58 -58 -58s-58 24 -58 58s24 58 58 58z" />
    <glyph glyph-name="Lcaron" unicode="&#x13d;" horiz-adv-x="524" 
d="M80 0v692h88v-612h332v-80h-420zM282 545c27 7 61 25 66 63h-10c-28 0 -49 18 -49 46c0 30 22 46 50 46c32 0 57 -27 57 -75c0 -52 -20 -94 -56 -116z" />
    <glyph glyph-name="Eng" unicode="&#x14a;" horiz-adv-x="696" 
d="M273 -104l76 61c11 -53 42 -86 88 -86c55 0 93 43 93 130v9l-293 472c-29 47 -72 122 -72 122l-2 -1c0 -1 3 -64 3 -131v-472h-86v692h126l271 -436c29 -47 53 -95 53 -95h2s-2 64 -2 132v399h86v-672c0 -174 -92 -228 -181 -228c-77 0 -138 41 -162 104z" />
    <glyph glyph-name="Oslash" unicode="&#xd8;" horiz-adv-x="728" 
d="M364 -12c-66 0 -128 20 -178 57l-60 -81l-64 45l67 91c-48 61 -77 145 -77 248c0 224 140 356 312 356c65 0 126 -19 176 -55l62 84l64 -45l-68 -94c48 -60 78 -143 78 -246c0 -224 -140 -360 -312 -360zM588 348c0 71 -14 132 -41 179l-315 -420c34 -26 78 -41 132 -41
c145 0 224 126 224 282zM493 588c-33 24 -76 38 -129 38c-145 0 -224 -122 -224 -278c0 -71 13 -133 40 -181z" />
    <glyph glyph-name="Tbar" unicode="&#x166;" horiz-adv-x="552" 
d="M12 612v80h528v-80h-220v-229h126v-66h-126v-317h-88v317h-126v66h126v229h-220z" />
    <glyph glyph-name="Thorn" unicode="&#xde;" horiz-adv-x="618" 
d="M80 0v692h89v-106h183c152 0 242 -72 242 -200s-90 -204 -242 -204h-184v-182h-88zM504 386c0 84 -52 120 -140 120h-196v-244h196c88 0 140 40 140 124z" />
    <glyph glyph-name="Uogonek" unicode="&#x172;" horiz-adv-x="669" 
d="M489 -91l66 -48c-18 -30 -57 -69 -117 -69c-64 0 -106 36 -106 90c0 43 38 87 60 110v3c-19 -4 -38 -7 -58 -7c-164 0 -262 99 -262 295v409h88v-413c0 -140 62 -211 174 -211s175 71 175 211v413h88v-409c0 -181 -81 -230 -119 -269c-37 -37 -75 -84 -75 -119
c0 -24 13 -38 37 -38c26 0 43 26 49 52z" />
    <glyph glyph-name="a" unicode="a" horiz-adv-x="520" 
d="M262 444c-84 0 -126 -60 -138 -132l-78 47c25 89 108 157 216 157c104 0 190 -52 190 -177v-231c0 -56 5 -80 12 -108h-68c-16 28 -19 44 -22 68h-2c-24 -36 -75 -80 -155 -80c-93 0 -160 53 -160 148c0 108 104 135 192 153c76 16 119 25 119 68c0 52 -46 87 -106 87z
M372 196v76c-16 -24 -53 -37 -105 -49c-60 -13 -126 -27 -126 -87c0 -44 31 -76 92 -76c72 0 139 52 139 136z" />
    <glyph glyph-name="b" unicode="b" horiz-adv-x="568" 
d="M156 76v-76h-84v724h84v-184c0 -60 -6 -124 -6 -124h2c20 44 72 100 160 100c116 0 212 -108 212 -264s-96 -264 -212 -264c-88 0 -136 56 -154 88h-2zM152 252c0 -104 48 -192 144 -192s144 88 144 192s-48 192 -144 192s-144 -88 -144 -192z" />
    <glyph glyph-name="c" unicode="c" horiz-adv-x="508" 
d="M268 444c-96 0 -140 -88 -140 -192s44 -192 140 -192c84 0 124 72 124 144l80 -48c-12 -72 -76 -168 -204 -168c-140 0 -224 112 -224 264s84 264 224 264c128 0 192 -96 204 -168l-80 -48c0 72 -40 144 -124 144z" />
    <glyph glyph-name="d" unicode="d" horiz-adv-x="568" 
d="M418 88h-2c-20 -44 -72 -100 -160 -100c-116 0 -212 108 -212 264s96 264 212 264c88 0 136 -56 154 -88h2v296h84v-724h-84zM272 60c96 0 144 88 144 192s-48 192 -144 192s-144 -88 -144 -192s48 -192 144 -192z" />
    <glyph glyph-name="e" unicode="e" horiz-adv-x="524" 
d="M478 232h-353c6 -96 58 -172 149 -172c72 0 117 52 128 114l79 -47c-28 -72 -103 -139 -207 -139c-144 0 -230 108 -230 264c0 152 92 264 228 264c132 0 212 -96 212 -228c0 -32 -6 -56 -6 -56zM272 446c-82 0 -131 -64 -144 -146h273c0 76 -45 146 -129 146z" />
    <glyph glyph-name="f" unicode="f" horiz-adv-x="344" 
d="M262 664c-46 0 -68 -36 -68 -100v-60h126v-72h-126v-432h-82v432h-88v72h88v64c0 108 60 168 148 168c80 0 124 -53 144 -97l-80 -48c-2 35 -20 73 -62 73z" />
    <glyph glyph-name="g" unicode="g" horiz-adv-x="536" 
d="M70 348c0 108 90 168 190 168c48 0 76 -16 120 -16s56 20 56 44c0 16 -2 28 -4 44l92 -52c0 -60 -28 -84 -76 -84c-16 0 -36 4 -48 8v-2c19 -19 50 -54 50 -110c0 -100 -90 -168 -190 -168c-60 0 -124 -24 -124 -60c0 -24 20 -36 72 -36c48 0 92 8 148 8
c92 0 168 -44 168 -136c0 -120 -128 -164 -260 -164c-124 0 -248 40 -248 136c0 53 56 92 108 103v2c-36 12 -68 33 -68 77c0 54 50 81 106 97v2c-56 26 -92 73 -92 139zM92 -66c0 -50 84 -74 172 -74c92 0 180 28 180 92c0 48 -56 64 -120 64c-82 0 -232 -12 -232 -82z
M150 348c0 -64 50 -102 110 -102s110 38 110 102s-50 102 -110 102s-110 -38 -110 -102z" />
    <glyph glyph-name="h" unicode="h" horiz-adv-x="548" 
d="M480 316v-316h-84v300c0 100 -40 140 -112 140c-78 0 -128 -65 -128 -142v-298h-84v724h84v-184c0 -60 -6 -124 -6 -124h2c20 44 68 100 156 100c104 0 172 -68 172 -200z" />
    <glyph glyph-name="i" unicode="i" horiz-adv-x="228" 
d="M72 0v504h84v-504h-84zM114 704c34 0 58 -24 58 -58s-24 -58 -58 -58s-58 24 -58 58s24 58 58 58z" />
    <glyph glyph-name="j" unicode="j" horiz-adv-x="236" 
d="M32 -208l-80 56c104 20 128 64 128 176v480h84v-508c0 -116 -40 -184 -132 -204zM122 704c34 0 58 -24 58 -58s-24 -58 -58 -58s-58 24 -58 58s24 58 58 58z" />
    <glyph glyph-name="k" unicode="k" horiz-adv-x="499" 
d="M476 504l-172 -200l199 -304h-96l-157 243l-94 -112v-131h-84v724h84v-368c0 -60 -6 -125 -6 -125h2s39 54 73 95l150 178h101z" />
    <glyph glyph-name="l" unicode="l" horiz-adv-x="228" 
d="M72 0v724h84v-724h-84z" />
    <glyph glyph-name="m" unicode="m" horiz-adv-x="824" 
d="M72 0v504h84l-6 -88h2c20 44 64 100 144 100c70 0 118 -34 140 -100h2c20 44 66 100 154 100c100 0 164 -68 164 -188v-328h-84v308c0 92 -36 132 -100 132c-72 0 -116 -60 -116 -148v-292h-84v315c0 87 -38 125 -100 125c-70 0 -116 -57 -116 -142v-298h-84z" />
    <glyph glyph-name="n" unicode="n" horiz-adv-x="548" 
d="M480 316v-316h-84v300c0 100 -40 140 -112 140c-78 0 -128 -65 -128 -142v-298h-84v504h84l-6 -88h2c20 44 68 100 156 100c104 0 172 -68 172 -200z" />
    <glyph glyph-name="o" unicode="o" horiz-adv-x="544" 
d="M272 -12c-140 0 -228 112 -228 264s88 264 228 264s228 -112 228 -264s-88 -264 -228 -264zM128 252c0 -104 48 -192 144 -192s144 88 144 192s-48 192 -144 192s-144 -88 -144 -192z" />
    <glyph glyph-name="p" unicode="p" horiz-adv-x="568" 
d="M150 416h2c20 44 72 100 160 100c116 0 212 -108 212 -264s-96 -264 -212 -264c-88 0 -136 56 -154 88h-2v-272h-84v700h84zM152 252c0 -104 48 -192 144 -192s144 88 144 192s-48 192 -144 192s-144 -88 -144 -192z" />
    <glyph glyph-name="q" unicode="q" horiz-adv-x="568" 
d="M412 428v76h84v-700h-84v160c0 60 6 124 6 124h-2c-20 -44 -72 -100 -160 -100c-116 0 -212 108 -212 264s96 264 212 264c88 0 136 -56 154 -88h2zM416 252c0 104 -48 192 -144 192s-144 -88 -144 -192s48 -192 144 -192s144 88 144 192z" />
    <glyph glyph-name="r" unicode="r" horiz-adv-x="410" 
d="M72 0v504h84l-6 -88h2c20 56 63 96 123 96c69 0 115 -57 115 -130c0 -28 -3 -51 -3 -51l-82 -49s9 43 9 75c0 44 -20 79 -64 79c-66 0 -94 -69 -94 -148v-288h-84z" />
    <glyph glyph-name="s" unicode="s" horiz-adv-x="500" 
d="M275 56c52 0 100 25 100 77c0 59 -67 72 -138 92c-76 21 -174 53 -174 149c0 88 84 142 172 142c100 0 186 -53 218 -132l-78 -47c-10 56 -59 111 -136 111c-48 0 -95 -23 -95 -71c0 -57 83 -65 155 -88c84 -27 157 -59 157 -153c0 -92 -85 -148 -177 -148
c-128 0 -209 61 -238 155l80 48c8 -68 58 -135 154 -135z" />
    <glyph glyph-name="t" unicode="t" horiz-adv-x="345" 
d="M288 108l45 -69c-18 -24 -56 -51 -108 -51c-64 0 -117 28 -117 130v314h-92v72h92v116l82 52v-168h130v-72h-130v-307c0 -48 14 -65 44 -65c28 0 46 28 54 48z" />
    <glyph glyph-name="u" unicode="u" horiz-adv-x="540" 
d="M68 188v316h84v-300c0 -100 36 -140 108 -140c78 0 124 64 124 142v298h84v-504h-84l6 88h-2c-20 -44 -64 -100 -152 -100c-104 0 -168 68 -168 200z" />
    <glyph glyph-name="v" unicode="v" horiz-adv-x="476" 
d="M189 247c23 -67 50 -149 50 -149h2s27 82 50 149l87 257h86l-184 -504h-84l-184 504h90z" />
    <glyph glyph-name="w" unicode="w" horiz-adv-x="712" 
d="M404 504l60 -208c22 -75 53 -200 53 -200h2s25 124 41 200l44 208h84l-120 -504h-97l-64 232c-21 75 -49 182 -49 182h-2s-28 -107 -49 -182l-64 -232h-99l-120 504h88l44 -208c16 -76 41 -200 41 -200h2c0 1 31 125 53 200l60 208h92z" />
    <glyph glyph-name="x" unicode="x" horiz-adv-x="466" 
d="M440 504l-157 -243l171 -261h-91l-85 135c-28 44 -45 71 -45 71h-2s-17 -27 -45 -71l-85 -135h-89l170 261l-156 243h90l56 -89c29 -47 61 -99 61 -99h2s31 51 60 98l57 90h88z" />
    <glyph glyph-name="y" unicode="y" horiz-adv-x="464" 
d="M237 109h2s25 77 44 136l84 259h85l-180 -525c-23 -67 -62 -151 -149 -187l-68 60c67 19 116 63 138 130l5 17l-186 505h89l89 -259c19 -55 47 -136 47 -136z" />
    <glyph glyph-name="z" unicode="z" horiz-adv-x="460" 
d="M44 432v72h372v-52l-269 -380h277v-72h-384v52l268 380h-264z" />
    <glyph glyph-name="ae" unicode="&#xe6;" horiz-adv-x="818" 
d="M259 444c-79 0 -122 -58 -133 -130l-78 47c24 89 107 155 211 155c68 0 128 -27 157 -87c37 54 94 87 162 87c127 0 200 -96 200 -228c0 -32 -6 -56 -6 -56h-329c5 -96 51 -172 137 -172c67 0 106 52 116 114l79 -47c-27 -72 -95 -139 -195 -139c-80 0 -140 38 -176 102
c-27 -52 -89 -102 -177 -102c-95 0 -172 53 -172 148c0 108 100 135 184 153c71 16 119 23 119 67c0 52 -44 88 -99 88zM362 196v76c-15 -24 -55 -37 -103 -49c-56 -13 -120 -27 -120 -87c0 -44 35 -76 96 -76c64 0 127 52 127 136zM578 446c-77 0 -121 -64 -132 -146h249
c0 76 -38 146 -117 146z" />
    <glyph glyph-name="oe" unicode="&#x153;" horiz-adv-x="856" 
d="M264 -12c-135 0 -220 112 -220 264s85 264 220 264c80 0 141 -43 175 -112c36 69 99 112 177 112c127 0 200 -96 200 -228c0 -32 -6 -56 -6 -56h-329c5 -96 51 -172 137 -172c67 0 106 52 116 114l79 -47c-27 -72 -95 -139 -195 -139c-83 0 -145 41 -180 109
c-34 -67 -95 -109 -174 -109zM128 252c0 -104 45 -192 136 -192s136 88 136 192s-45 192 -136 192s-136 -88 -136 -192zM616 446c-77 0 -121 -64 -132 -146h249c0 76 -38 146 -117 146z" />
    <glyph glyph-name="germandbls" unicode="&#xdf;" horiz-adv-x="555" 
d="M273 379v70c65 16 108 62 108 120c0 60 -45 95 -107 95c-64 0 -118 -44 -118 -136v-528h-84v534c0 140 102 202 202 202s191 -59 191 -159c0 -80 -53 -128 -100 -150v-2c73 -19 150 -80 150 -208c0 -144 -78 -229 -186 -229c-60 0 -114 26 -136 58l47 69
c15 -26 42 -55 89 -55c68 0 102 61 102 157c0 104 -54 155 -158 162z" />
    <glyph glyph-name="dotlessi" unicode="&#x131;" horiz-adv-x="228" 
d="M72 0v504h84v-504h-84z" />
    <glyph glyph-name="dotlessj" unicode="&#xf6be;" horiz-adv-x="236" 
d="M32 -208l-80 56c104 20 128 64 128 176v480h84v-508c0 -116 -40 -184 -132 -204z" />
    <glyph glyph-name="eth" unicode="&#xf0;" horiz-adv-x="553" 
d="M458 672l-82 -50c82 -79 129 -184 129 -315c0 -205 -86 -319 -234 -319c-136 0 -227 108 -227 254s97 243 213 243c77 0 138 -50 158 -90h3c-15 78 -55 139 -109 186l-110 -67l-34 52l93 56c-38 26 -78 47 -120 64l71 50c43 -21 84 -44 119 -71l96 59zM128 238
c0 -102 55 -178 143 -178s143 77 143 179s-55 173 -143 173s-143 -72 -143 -174z" />
    <glyph glyph-name="dcroat" unicode="&#x111;" horiz-adv-x="589" 
d="M418 88h-2c-20 -44 -72 -100 -160 -100c-116 0 -212 108 -212 264s96 264 212 264c88 0 136 -56 154 -88h2v136h-112v64h112v96h82v-96h95v-64h-95v-564h-82zM272 60c96 0 144 88 144 192s-48 192 -144 192s-144 -88 -144 -192s48 -192 144 -192z" />
    <glyph glyph-name="dcaron" unicode="&#x10f;" horiz-adv-x="702" 
d="M418 88h-2c-20 -44 -72 -100 -160 -100c-116 0 -212 108 -212 264s96 264 212 264c88 0 136 -56 154 -88h2v296h84v-724h-84zM272 60c96 0 144 88 144 192s-48 192 -144 192s-144 -88 -144 -192s48 -192 144 -192zM569 577c27 7 61 25 66 63h-10c-28 0 -49 18 -49 46
c0 30 22 46 50 46c32 0 57 -27 57 -75c0 -52 -20 -94 -56 -116z" />
    <glyph glyph-name="hbar" unicode="&#x127;" horiz-adv-x="559" 
d="M-4 564v64h87v96h82v-96h120v-64h-120v-24c0 -60 -4 -124 -4 -124h2c20 44 68 100 156 100c104 0 172 -68 172 -200v-316h-84v300c0 100 -40 140 -112 140c-80 0 -128 -68 -128 -148v-292h-84v564h-87z" />
    <glyph glyph-name="ij" unicode="&#x133;" horiz-adv-x="456" 
d="M72 0v504h84v-504h-84zM252 -208l-80 56c104 20 128 64 128 176v480h84v-508c0 -116 -40 -184 -132 -204zM114 704c34 0 58 -24 58 -58s-24 -58 -58 -58s-58 24 -58 58s24 58 58 58zM342 704c34 0 58 -24 58 -58s-24 -58 -58 -58s-58 24 -58 58s24 58 58 58z" />
    <glyph glyph-name="lslash" unicode="&#x142;" horiz-adv-x="351" 
d="M351 379l-136 -71v-308h-82v265l-98 -51l-31 60l129 68v382h82v-339l105 55z" />
    <glyph glyph-name="ldot" unicode="&#x140;" horiz-adv-x="392" 
d="M72 0v724h84v-724h-84zM300 372c34 0 58 -24 58 -58s-24 -58 -58 -58s-58 24 -58 58s24 58 58 58z" />
    <glyph glyph-name="lcaron" unicode="&#x13e;" horiz-adv-x="362" 
d="M72 0v724h84v-724h-84zM226 577c27 7 61 25 66 63h-10c-28 0 -49 18 -49 46c0 30 22 46 50 46c32 0 57 -27 57 -75c0 -52 -20 -94 -56 -116z" />
    <glyph glyph-name="eng" unicode="&#x14b;" horiz-adv-x="548" 
d="M348 -208l-80 56c104 20 128 72 128 184v268c0 100 -40 140 -112 140c-80 0 -128 -68 -128 -148v-292h-84v504h84l-6 -88h2c20 44 68 100 156 100c104 0 172 -68 172 -200v-312c0 -116 -40 -192 -132 -212z" />
    <glyph glyph-name="oslash" unicode="&#xf8;" horiz-adv-x="552" 
d="M276 -12c-50 0 -93 14 -128 39l-45 -59l-59 43l53 67c-32 46 -49 106 -49 174c0 152 88 264 228 264c49 0 93 -14 128 -39l45 59l59 -43l-53 -68c31 -46 49 -106 49 -173c0 -152 -88 -264 -228 -264zM130 252c0 -41 6 -78 18 -108l212 276c-22 16 -50 25 -84 25
c-96 0 -146 -89 -146 -193zM192 84c22 -16 49 -25 84 -25c96 0 146 89 146 193c0 40 -6 77 -18 107z" />
    <glyph glyph-name="longs" unicode="&#x17f;" horiz-adv-x="240" 
d="M222 664c-46 0 -66 -36 -66 -100v-564h-84v568c0 108 60 168 148 168c80 0 124 -53 144 -97l-80 -48c-2 35 -20 73 -62 73z" />
    <glyph glyph-name="thorn" unicode="&#xfe;" horiz-adv-x="568" 
d="M156 76v-272h-84v920h84v-184c0 -60 -6 -124 -6 -124h2c20 44 72 100 160 100c116 0 212 -108 212 -264s-96 -264 -212 -264c-88 0 -136 56 -154 88h-2zM152 252c0 -104 48 -192 144 -192s144 88 144 192s-48 192 -144 192s-144 -88 -144 -192z" />
    <glyph glyph-name="tcaron" unicode="&#x165;" horiz-adv-x="450" 
d="M288 108l45 -69c-18 -24 -56 -51 -108 -51c-64 0 -117 28 -117 130v314h-92v72h92v116l82 52v-168h130v-72h-130v-307c0 -48 14 -65 44 -65c28 0 46 28 54 48zM345 540c27 7 61 25 66 63h-10c-28 0 -49 18 -49 46c0 30 22 46 50 46c32 0 57 -27 57 -75
c0 -52 -20 -94 -56 -116z" />
    <glyph glyph-name="tbar" unicode="&#x167;" horiz-adv-x="365" 
d="M24 260v64h102v108h-92v72h92v116l80 52v-168h132v-72h-132v-108h138v-64h-138v-135c0 -48 14 -65 44 -65c28 0 46 28 54 48l45 -69c-18 -24 -54 -51 -106 -51c-64 0 -117 28 -117 130v142h-102z" />
    <glyph glyph-name="eogonek" unicode="&#x119;" horiz-adv-x="524" 
d="M414 -91l63 -46c-18 -30 -54 -71 -114 -71c-64 0 -106 36 -106 90c0 43 32 84 54 107v2c-12 -2 -24 -3 -37 -3c-144 0 -230 108 -230 264c0 152 92 264 228 264c132 0 212 -96 212 -228c0 -32 -6 -56 -6 -56h-353c6 -96 58 -172 149 -172c72 0 117 52 128 114l76 -45
c-15 -42 -37 -73 -75 -112c-37 -37 -75 -87 -75 -122c0 -24 13 -38 37 -38c26 0 43 26 49 52zM272 446c-82 0 -131 -64 -144 -146h273c0 76 -45 146 -129 146z" />
    <glyph glyph-name="uniFB00" unicode="&#xfb00;" horiz-adv-x="662" 
d="M580 664c-46 0 -68 -36 -68 -100v-60h126v-72h-126v-432h-82v432h-76v72h76v64c0 108 60 168 148 168c80 0 124 -49 144 -93l-80 -48c-2 35 -20 69 -62 69zM256 664c-46 0 -62 -36 -62 -100v-60h112v-72h-112v-432h-82v432h-88v72h88v64c0 108 54 168 142 168
c80 0 118 -53 138 -93l-79 -48c-2 31 -15 69 -57 69z" />
    <glyph glyph-name="fi" unicode="&#xfb01;" horiz-adv-x="537" 
d="M112 0v432h-88v72h88v36c0 142 90 196 180 196c84 0 138 -37 171 -96l-82 -49c-12 52 -45 73 -89 73c-52 0 -98 -34 -98 -122v-38h122v-72h-122v-432h-82zM381 0v504h84v-504h-84z" />
    <glyph glyph-name="fl" unicode="&#xfb02;" horiz-adv-x="545" 
d="M389 0v563c0 73 -44 101 -94 101c-64 0 -101 -35 -101 -119v-41h122v-72h-122v-432h-82v432h-88v72h88v48c0 134 88 184 160 184c74 0 105 -43 117 -59h2v47h82v-724h-84z" />
    <glyph glyph-name="uniFB03" unicode="&#xfb03;" horiz-adv-x="916" 
d="M256 664c-46 0 -62 -36 -62 -100v-60h112v-72h-112v-432h-82v432h-88v72h88v64c0 108 54 168 142 168c80 0 118 -53 138 -93l-79 -48c-2 31 -15 69 -57 69zM574 664c-46 0 -62 -36 -62 -100v-60h126v-72h-126v-432h-82v432h-76v72h76v64c0 108 54 168 142 168
c80 0 118 -53 138 -93l-79 -48c-2 31 -15 69 -57 69zM760 0v504h84v-504h-84zM802 704c34 0 58 -24 58 -58s-24 -58 -58 -58s-58 24 -58 58s24 58 58 58z" />
    <glyph glyph-name="uniFB04" unicode="&#xfb04;" horiz-adv-x="916" 
d="M256 664c-46 0 -62 -36 -62 -100v-60h112v-72h-112v-432h-82v432h-88v72h88v64c0 108 54 168 142 168c80 0 118 -53 138 -93l-79 -48c-2 31 -15 69 -57 69zM574 664c-46 0 -62 -36 -62 -100v-60h126v-72h-126v-432h-82v432h-76v72h76v64c0 108 54 168 142 168
c80 0 118 -53 138 -93l-79 -48c-2 31 -15 69 -57 69zM760 0v724h84v-724h-84z" />
    <glyph glyph-name="t_f" horiz-adv-x="683" 
d="M288 108l45 -69c-18 -24 -56 -51 -108 -51c-64 0 -117 28 -117 130v314h-92v72h92v116l82 52v-168h117v-72h-117v-307c0 -48 14 -65 44 -65c28 0 46 28 54 48zM601 664c-46 0 -68 -36 -68 -100v-60h126v-72h-126v-432h-82v432h-84v72h84v64c0 108 60 168 148 168
c80 0 124 -53 144 -97l-80 -48c-2 35 -20 73 -62 73z" />
    <glyph glyph-name="grave" unicode="`" horiz-adv-x="544" 
d="M323 596l-35 -40c-58 28 -123 68 -171 124l64 67c33 -53 95 -115 142 -151z" />
    <glyph glyph-name="acute" unicode="&#xb4;" horiz-adv-x="544" 
d="M256 556l-35 40c47 36 109 98 142 151l64 -67c-48 -56 -113 -96 -171 -124z" />
    <glyph glyph-name="hungarumlaut" unicode="&#x2dd;" horiz-adv-x="544" 
d="M185 556l-35 40c47 36 99 99 132 152l62 -65c-48 -56 -101 -99 -159 -127zM342 556l-35 40c47 36 107 99 140 152l62 -65c-48 -56 -109 -99 -167 -127z" />
    <glyph glyph-name="dotaccent" unicode="&#x2d9;" horiz-adv-x="544" 
d="M272 704c34 0 58 -24 58 -58s-24 -58 -58 -58s-58 24 -58 58s24 58 58 58z" />
    <glyph glyph-name="dieresis" unicode="&#xa8;" horiz-adv-x="544" 
d="M183 704c34 0 58 -24 58 -58s-24 -58 -58 -58s-58 24 -58 58s24 58 58 58zM361 704c34 0 58 -24 58 -58s-24 -58 -58 -58s-58 24 -58 58s24 58 58 58z" />
    <glyph glyph-name="circumflex" unicode="&#x2c6;" horiz-adv-x="544" 
d="M273 642h-2c-28 -34 -64 -65 -104 -86l-51 58c60 31 88 51 124 96h64c36 -45 64 -65 124 -96l-51 -58c-40 21 -76 52 -104 86z" />
    <glyph glyph-name="caron" unicode="&#x2c7;" horiz-adv-x="544" 
d="M271 631h2c28 34 64 66 104 87l51 -57c-60 -32 -88 -51 -124 -97h-64c-36 46 -64 65 -124 97l51 57c40 -21 76 -53 104 -87z" />
    <glyph glyph-name="macron" unicode="&#xaf;" horiz-adv-x="544" 
d="M149 604v76h247v-76h-247z" />
    <glyph glyph-name="tilde" unicode="&#x2dc;" horiz-adv-x="544" 
d="M339 579c-64 0 -92 54 -128 54c-26 0 -31 -27 -33 -53l-62 35c8 44 38 89 90 89c64 0 92 -54 128 -54c26 0 31 27 33 53l62 -35c-8 -44 -38 -89 -90 -89z" />
    <glyph glyph-name="breve" unicode="&#x2d8;" horiz-adv-x="544" 
d="M272 563c-68 0 -128 39 -136 115l71 26v-3c0 -44 21 -74 65 -74s65 30 65 74v3l71 -26c-8 -76 -68 -115 -136 -115z" />
    <glyph glyph-name="ring" unicode="&#x2da;" horiz-adv-x="544" 
d="M272 714c-29 0 -49 -23 -49 -52s20 -52 49 -52s49 23 49 52s-20 52 -49 52zM272 768c58 0 109 -42 109 -106s-51 -106 -109 -106s-109 42 -109 106s51 106 109 106z" />
    <glyph glyph-name="caronquoteleft" horiz-adv-x="544" 
d="M329 711c-28 -8 -61 -26 -67 -64c4 1 7 1 11 1c28 0 49 -18 49 -46c0 -30 -22 -46 -50 -46c-32 0 -57 27 -57 75c0 52 20 94 56 116z" />
    <glyph glyph-name="caronquoteright" horiz-adv-x="544" 
d="M215 592c27 7 61 25 66 63h-10c-28 0 -49 18 -49 46c0 30 22 46 50 46c32 0 57 -27 57 -75c0 -52 -20 -94 -56 -116z" />
    <glyph glyph-name="uni0326" unicode="&#x326;" horiz-adv-x="544" 
d="M215 -211c27 8 61 26 66 64c-3 -1 -6 -1 -10 -1c-28 0 -49 18 -49 46c0 30 22 46 50 46c32 0 57 -27 57 -75c0 -52 -20 -94 -56 -116z" />
    <glyph glyph-name="cedilla" unicode="&#xb8;" horiz-adv-x="544" 
d="M254 16l50 -10l-13 -44c47 -5 88 -37 88 -85c0 -52 -49 -85 -101 -85s-88 25 -108 57l58 37c10 -26 26 -40 50 -40c20 0 36 13 36 33s-16 34 -36 34c-16 0 -27 -9 -27 -9l-38 35z" />
    <glyph glyph-name="ogonek" unicode="&#x2db;" horiz-adv-x="544" 
d="M367 -99l63 -46c-21 -32 -62 -63 -118 -63c-60 0 -99 37 -99 89c0 43 33 76 63 104l42 39l53 -24l-38 -34c-24 -21 -49 -49 -49 -75c0 -20 13 -34 35 -34c26 0 42 23 48 44z" />
    <glyph glyph-name="zero" unicode="0" horiz-adv-x="598" 
d="M142 348c0 -144 37 -280 157 -280s157 136 157 280s-37 276 -157 276s-157 -132 -157 -276zM52 348c0 228 95 356 247 356s247 -128 247 -356s-95 -360 -247 -360s-247 132 -247 360z" />
    <glyph glyph-name="one" unicode="1" horiz-adv-x="361" 
d="M192 573h-2c-24 -35 -86 -74 -132 -85l-42 69c88 28 165 87 199 135h62v-692h-87v466c0 57 2 107 2 107z" />
    <glyph glyph-name="two" unicode="2" horiz-adv-x="536" 
d="M171 354l-91 49s-16 41 -16 92c0 129 87 209 216 209c116 0 205 -82 205 -202c0 -219 -261 -324 -313 -419v-3h320v-80h-413s-2 11 -2 31c0 168 322 256 322 464c0 79 -47 133 -123 133c-81 0 -129 -54 -129 -139c0 -57 13 -106 24 -135z" />
    <glyph glyph-name="three" unicode="3" horiz-adv-x="534" 
d="M266 -12c-128 0 -210 83 -226 175l82 51c8 -76 52 -150 144 -150c84 0 138 63 138 155c0 88 -54 150 -138 150c-52 0 -92 -23 -118 -44l-31 73l234 214h-289v80h407v-65l-143 -133c-32 -29 -81 -68 -81 -68l1 -2s22 7 42 7c116 0 202 -88 202 -212
c0 -142 -96 -231 -224 -231z" />
    <glyph glyph-name="four" unicode="4" horiz-adv-x="556" 
d="M345 196h-293l-20 56c90 146 148 289 158 452l81 -43c-15 -166 -86 -299 -146 -385h220v416h83v-416h100v-80h-100v-196h-83v196z" />
    <glyph glyph-name="five" unicode="5" horiz-adv-x="542" 
d="M272 -12c-128 0 -208 83 -224 175l82 51c8 -76 50 -150 142 -150s140 82 140 174s-53 164 -137 164c-68 0 -110 -43 -130 -95l-78 40l45 345h341v-80h-271l-15 -112c-6 -49 -17 -89 -17 -89h1c28 35 75 67 139 67c116 0 208 -92 208 -240c0 -152 -94 -250 -226 -250z" />
    <glyph glyph-name="six" unicode="6" horiz-adv-x="563" 
d="M308 704c100 0 175 -66 196 -141l-82 -52c-8 66 -44 117 -114 117c-108 0 -164 -122 -175 -259h3c29 54 92 96 168 96c116 0 215 -97 215 -233s-91 -244 -227 -244c-156 0 -240 115 -240 336c0 208 80 380 256 380zM433 228c0 92 -54 162 -142 162s-144 -69 -144 -161
s57 -165 145 -165s141 72 141 164z" />
    <glyph glyph-name="seven" unicode="7" horiz-adv-x="504" 
d="M492 692v-62c-106 -176 -185 -394 -212 -630h-97c30 233 116 439 214 612h-281v-159l-80 43v196h456z" />
    <glyph glyph-name="eight" unicode="8" horiz-adv-x="568" 
d="M284 -12c-131 0 -236 79 -236 207c0 107 77 157 137 177v2c-56 22 -112 69 -112 150c0 104 87 180 211 180s211 -76 211 -180c0 -81 -56 -128 -112 -150v-2c60 -20 137 -70 137 -177c0 -128 -105 -207 -236 -207zM134 200c0 -84 70 -136 150 -136s150 52 150 136
s-70 133 -150 133s-150 -49 -150 -133zM157 518c0 -64 56 -110 127 -110c72 0 127 46 127 110s-55 110 -127 110c-71 0 -127 -46 -127 -110z" />
    <glyph glyph-name="nine" unicode="9" horiz-adv-x="559" 
d="M274 -12c-112 0 -183 62 -209 150l82 52c9 -65 45 -126 127 -126c114 0 145 113 150 265h-3c-29 -54 -90 -90 -166 -90c-116 0 -211 91 -211 227s89 238 225 238c156 0 238 -106 238 -327c0 -218 -51 -389 -233 -389zM130 470c0 -92 52 -156 140 -156s142 63 142 155
s-55 159 -143 159s-139 -66 -139 -158z" />
    <glyph glyph-name="zero.zero" horiz-adv-x="598" 
d="M142 348c0 -144 37 -280 157 -280s157 136 157 280s-37 276 -157 276s-157 -132 -157 -276zM52 348c0 228 95 356 247 356s247 -128 247 -356s-95 -360 -247 -360s-247 132 -247 360zM299 414c38 0 66 -28 66 -66s-28 -66 -66 -66s-66 28 -66 66s28 66 66 66z" />
    <glyph glyph-name="currency" unicode="&#xa4;" 
d="M110 355c0 37 11 73 30 104l-84 86l55 54l82 -84c31 21 68 34 107 34s76 -13 106 -34l83 84l55 -54l-85 -86c20 -31 31 -67 31 -104c0 -42 -14 -81 -37 -113l91 -91l-55 -54l-92 92c-29 -18 -62 -28 -97 -28s-69 10 -97 28l-92 -92l-55 54l91 91c-23 32 -37 71 -37 113z
M189 355c0 -68 43 -122 111 -122s111 54 111 122s-43 121 -111 121s-111 -53 -111 -121z" />
    <glyph glyph-name="dollar" unicode="$" horiz-adv-x="602" 
d="M269 -92v97c-125 12 -212 94 -229 219l81 52c3 -88 41 -183 148 -197v245c-91 28 -201 61 -201 185c0 100 86 168 201 178v95h77v-96c100 -9 192 -81 214 -178l-81 -52c-2 72 -41 147 -133 157v-220c109 -33 216 -77 216 -195c0 -105 -91 -185 -216 -194v-96h-77z
M478 194c0 67 -62 94 -132 115v-231c75 7 132 51 132 116zM151 517c0 -68 54 -89 118 -109v205c-74 -8 -118 -46 -118 -96z" />
    <glyph glyph-name="cent" unicode="&#xa2;" horiz-adv-x="566" 
d="M258 -92v99c-125 18 -198 116 -198 249c0 132 73 231 198 249v97h77v-96c110 -14 168 -93 183 -158l-80 -47c0 59 -33 118 -103 133v-357c70 15 103 75 103 134l80 -47c-15 -66 -73 -144 -183 -158v-98h-77zM142 256c0 -86 38 -158 116 -177v354
c-78 -19 -116 -92 -116 -177z" />
    <glyph glyph-name="Euro" unicode="&#x20ac;" horiz-adv-x="650" 
d="M386 237h-155c15 -97 58 -172 158 -172s131 88 139 169l82 -51c-20 -92 -89 -195 -221 -195c-135 0 -220 85 -245 249h-88v71h82c-1 13 -1 26 -1 40v29h-81v71h89c27 164 121 256 244 256c132 0 201 -95 221 -187l-82 -51c-8 81 -39 160 -139 160
c-94 0 -141 -79 -158 -178h234l-28 -71h-214v-29c0 -14 0 -27 1 -40h190z" />
    <glyph glyph-name="yen" unicode="&#xa5;" 
d="M536 199h-194v-199h-84v199h-194v71h194v2l-38 67h-156v71h116l-160 282h96l135 -255c23 -44 49 -95 49 -95h2s25 51 49 95l136 255h93l-160 -282h116v-71h-156l-38 -67v-2h194v-71z" />
    <glyph glyph-name="sterling" unicode="&#xa3;" horiz-adv-x="564" 
d="M386 303h-140c6 -24 11 -47 11 -69c0 -56 -15 -114 -64 -154h340v-80h-453v60c74 43 96 102 96 156c0 32 -6 60 -15 87h-117v73h91c-13 36 -23 74 -23 124c0 124 86 204 206 204c104 0 192 -67 222 -183l-83 -44c-10 94 -63 149 -139 149c-72 0 -122 -48 -122 -132
c0 -39 12 -79 25 -118h192z" />
    <glyph glyph-name="florin" unicode="&#x192;" horiz-adv-x="540" 
d="M434 375h-147l-14 -339c-6 -136 -74 -191 -163 -191c-72 0 -125 37 -150 98l81 49c5 -42 21 -75 69 -75s73 33 77 126l14 332h-92v73h95l3 70c6 134 89 186 174 186c76 0 139 -38 163 -100l-80 -48c-2 40 -28 76 -80 76s-87 -33 -91 -121l-3 -63h171z" />
    <glyph glyph-name="zero.tf" 
d="M150 348c0 -144 30 -280 150 -280s150 136 150 280s-30 276 -150 276s-150 -132 -150 -276zM60 348c0 228 88 356 240 356s240 -128 240 -356s-88 -360 -240 -360s-240 132 -240 360z" />
    <glyph glyph-name="one.tf" 
d="M297 569h-2c-34 -50 -109 -87 -170 -102l-41 71c111 30 199 93 236 154h62v-616h170v-76h-431v76h174v390c0 57 2 103 2 103z" />
    <glyph glyph-name="two.tf" 
d="M203 354l-91 49s-16 41 -16 92c0 129 87 209 216 209c116 0 205 -82 205 -202c0 -219 -261 -324 -313 -419v-3h320v-80h-413s-2 11 -2 31c0 168 322 256 322 464c0 79 -47 133 -123 133c-81 0 -129 -54 -129 -139c0 -57 13 -106 24 -135z" />
    <glyph glyph-name="three.tf" 
d="M304 -12c-128 0 -210 83 -226 175l82 51c8 -76 52 -150 144 -150c84 0 138 63 138 155c0 88 -54 150 -138 150c-52 0 -92 -23 -118 -44l-31 73l234 214h-289v80h407v-65l-143 -133c-32 -29 -81 -68 -81 -68l1 -2s22 7 42 7c116 0 202 -88 202 -212
c0 -142 -96 -231 -224 -231z" />
    <glyph glyph-name="four.tf" 
d="M353 196h-287l-20 56c85 143 143 289 152 452l81 -43c-14 -165 -83 -299 -139 -385h213v416h83v-416h100v-80h-100v-196h-83v196z" />
    <glyph glyph-name="five.tf" 
d="M302 -12c-128 0 -208 83 -224 175l82 51c8 -76 50 -150 142 -150s140 82 140 174s-53 164 -137 164c-68 0 -110 -43 -130 -95l-78 40l45 345h341v-80h-271l-15 -112c-6 -49 -17 -89 -17 -89h1c28 35 75 67 139 67c116 0 208 -92 208 -240c0 -152 -94 -250 -226 -250z" />
    <glyph glyph-name="six.tf" 
d="M325 704c100 0 175 -66 196 -141l-82 -52c-8 66 -44 117 -114 117c-108 0 -164 -122 -175 -259h3c29 54 92 96 168 96c116 0 215 -97 215 -233s-91 -244 -227 -244c-156 0 -240 115 -240 336c0 208 80 380 256 380zM450 228c0 92 -54 162 -142 162s-144 -69 -144 -161
s57 -165 145 -165s141 72 141 164z" />
    <glyph glyph-name="seven.tf" 
d="M556 692v-62c-110 -176 -192 -394 -220 -630h-97c31 233 120 439 222 612h-297v-159l-80 43v196h472z" />
    <glyph glyph-name="eight.tf" 
d="M300 -12c-131 0 -236 79 -236 207c0 107 77 157 137 177v2c-56 22 -112 69 -112 150c0 104 87 180 211 180s211 -76 211 -180c0 -81 -56 -128 -112 -150v-2c60 -20 137 -70 137 -177c0 -128 -105 -207 -236 -207zM150 200c0 -84 70 -136 150 -136s150 52 150 136
s-70 133 -150 133s-150 -49 -150 -133zM173 518c0 -64 56 -110 127 -110c72 0 127 46 127 110s-55 110 -127 110c-71 0 -127 -46 -127 -110z" />
    <glyph glyph-name="nine.tf" 
d="M295 -12c-112 0 -183 62 -209 150l82 52c9 -65 45 -126 127 -126c114 0 145 113 150 265h-3c-29 -54 -90 -90 -166 -90c-116 0 -211 91 -211 227s89 238 225 238c156 0 238 -106 238 -327c0 -218 -51 -389 -233 -389zM151 470c0 -92 52 -156 140 -156s142 63 142 155
s-55 159 -143 159s-139 -66 -139 -158z" />
    <glyph glyph-name="zero.tf.zero" 
d="M150 348c0 -144 30 -280 150 -280s150 136 150 280s-30 276 -150 276s-150 -132 -150 -276zM60 348c0 228 88 356 240 356s240 -128 240 -356s-88 -360 -240 -360s-240 132 -240 360zM307 414c38 0 66 -28 66 -66s-28 -66 -66 -66s-66 28 -66 66s28 66 66 66z" />
    <glyph glyph-name="currency.tf" 
d="M110 355c0 37 11 73 30 104l-84 86l55 54l82 -84c31 21 68 34 107 34s76 -13 106 -34l83 84l55 -54l-85 -86c20 -31 31 -67 31 -104c0 -42 -14 -81 -37 -113l91 -91l-55 -54l-92 92c-29 -18 -62 -28 -97 -28s-69 10 -97 28l-92 -92l-55 54l91 91c-23 32 -37 71 -37 113z
M189 355c0 -68 43 -122 111 -122s111 54 111 122s-43 121 -111 121s-111 -53 -111 -121z" />
    <glyph glyph-name="dollar.tf" 
d="M267 -92v97c-117 12 -198 92 -213 213l81 52c3 -84 36 -176 132 -191v244c-83 28 -190 63 -190 186c0 99 83 168 190 178v95h77v-96c92 -11 178 -82 198 -178l-81 -52c-2 71 -38 144 -117 156v-220c101 -33 202 -77 202 -194c0 -104 -88 -183 -202 -193v-97h-77zM462 194
c0 65 -55 92 -118 113v-229c66 9 118 52 118 116zM160 517c0 -67 49 -88 107 -107v203c-65 -8 -107 -47 -107 -96z" />
    <glyph glyph-name="cent.tf" 
d="M268 -92v99c-125 18 -198 116 -198 249c0 132 73 231 198 249v97h77v-96c110 -14 168 -93 183 -158l-80 -47c0 59 -33 118 -103 133v-357c70 15 103 75 103 134l80 -47c-15 -66 -73 -144 -183 -158v-98h-77zM152 256c0 -86 38 -158 116 -177v354
c-78 -19 -116 -92 -116 -177z" />
    <glyph glyph-name="Euro.tf" 
d="M336 237h-132c14 -97 53 -172 143 -172c94 0 118 88 127 169l82 -51c-19 -92 -82 -195 -209 -195c-126 0 -206 85 -229 249h-74v71h68c-1 13 -1 26 -1 40v29h-67v71h74c25 164 114 256 229 256c127 0 190 -95 209 -187l-82 -51c-8 81 -33 160 -127 160
c-85 0 -128 -79 -143 -178h211l-28 -71h-190v-29c0 -14 0 -27 1 -40h166z" />
    <glyph glyph-name="yen.tf" 
d="M536 194h-194v-194h-84v194h-194v71h194v3l-34 66h-160v71h124l-144 287h96l113 -245c21 -45 47 -105 47 -105h2s26 60 47 105l114 245h93l-145 -287h125v-71h-161l-33 -66v-3h194v-71z" />
    <glyph glyph-name="sterling.tf" 
d="M406 303h-140c6 -24 11 -47 11 -69c0 -56 -15 -114 -64 -154h340v-80h-453v60c74 43 96 102 96 156c0 32 -6 60 -15 87h-117v73h91c-13 36 -23 74 -23 124c0 124 86 204 206 204c104 0 192 -67 222 -183l-83 -44c-10 94 -63 149 -139 149c-72 0 -122 -48 -122 -132
c0 -39 12 -79 25 -118h192z" />
    <glyph glyph-name="florin.tf" 
d="M462 375h-147l-14 -339c-6 -136 -74 -191 -163 -191c-72 0 -125 37 -150 98l81 49c5 -42 21 -75 69 -75s73 33 77 126l14 332h-92v73h95l3 70c6 134 89 186 174 186c76 0 139 -38 163 -100l-80 -48c-2 40 -28 76 -80 76s-87 -33 -91 -121l-3 -63h171z" />
    <glyph glyph-name="plus" unicode="+" 
d="M260 60v230h-212v76h212v226h80v-226h212v-76h-212v-230h-80z" />
    <glyph glyph-name="minus" unicode="&#x2212;" 
d="M540 289h-480v78h480v-78z" />
    <glyph glyph-name="multiply" unicode="&#xd7;" 
d="M113 89l-52 52l187 187l-182 182l52 52l182 -182l182 182l52 -52l-182 -182l187 -187l-52 -52l-187 187z" />
    <glyph glyph-name="divide" unicode="&#xf7;" 
d="M540 290h-480v76h480v-76zM300 196c37 0 64 -27 64 -64s-27 -64 -64 -64s-64 27 -64 64s27 64 64 64zM300 588c37 0 64 -27 64 -64s-27 -64 -64 -64s-64 27 -64 64s27 64 64 64z" />
    <glyph glyph-name="equal" unicode="=" 
d="M536 200h-472v76h472v-76zM536 380h-472v76h472v-76z" />
    <glyph glyph-name="less" unicode="&#x3c;" 
d="M532 501l-372 -176l372 -176l-34 -71l-430 212v70l430 212z" />
    <glyph glyph-name="greater" unicode="&#x3e;" 
d="M440 325l-372 176l34 71l430 -212v-70l-430 -212l-34 71z" />
    <glyph glyph-name="plusminus" unicode="&#xb1;" 
d="M261 237v174h-201v74h201v176h79v-176h201v-74h-201v-174h-79zM540 88h-480v76h480v-76z" />
    <glyph glyph-name="lessequal" unicode="&#x2264;" 
d="M502 217l-430 149v80l430 149l24 -77l-341 -112l341 -112zM528 88h-456v76h456v-76z" />
    <glyph glyph-name="greaterequal" unicode="&#x2265;" 
d="M528 366l-430 -149l-24 77l341 112l-341 112l24 77l430 -149v-80zM528 88h-456v76h456v-76z" />
    <glyph glyph-name="notequal" unicode="&#x2260;" 
d="M536 204h-273l-97 -159l-62 35l75 124h-115v74h160l66 108h-226v74h271l98 160l63 -35l-77 -125h117v-74h-162l-66 -108h228v-74z" />
    <glyph glyph-name="logicalnot" unicode="&#xac;" 
d="M56 391h480v-258h-80v180h-400v78z" />
    <glyph glyph-name="asciicircum" unicode="^" 
d="M52 393l221 299h54l221 -299l-64 -44l-184 254l-184 -254z" />
    <glyph glyph-name="asciitilde" unicode="~" 
d="M405 238c-91 0 -149 90 -207 90c-44 0 -63 -43 -71 -87l-71 43c14 60 61 123 139 123c91 0 149 -90 207 -90c44 0 63 43 71 87l71 -43c-14 -60 -61 -123 -139 -123z" />
    <glyph glyph-name="approxequal" unicode="&#x2248;" 
d="M409 340c-91 0 -155 74 -213 74c-44 0 -61 -35 -69 -71l-71 43c14 52 57 107 135 107c91 0 155 -74 213 -74c44 0 61 35 69 71l71 -43c-14 -52 -57 -107 -135 -107zM409 153c-91 0 -155 74 -213 74c-44 0 -61 -35 -69 -71l-71 43c14 52 57 107 135 107
c91 0 155 -74 213 -74c44 0 61 35 69 71l71 -43c-14 -52 -57 -107 -135 -107z" />
    <glyph glyph-name="infinity" unicode="&#x221e;" horiz-adv-x="877" 
d="M238 510c89 0 156 -60 199 -122h2c43 62 110 122 200 122c103 0 182 -83 182 -182s-79 -182 -182 -182c-90 0 -157 60 -200 122h-2c-43 -62 -110 -122 -199 -122c-103 0 -182 83 -182 182s79 182 182 182zM481 328c32 -42 82 -104 154 -104c59 0 105 45 105 104
s-46 104 -105 104c-72 0 -122 -62 -154 -104zM396 328c-32 42 -82 104 -154 104c-59 0 -105 -45 -105 -104s46 -104 105 -104c72 0 122 62 154 104z" />
    <glyph glyph-name="numbersign" unicode="#" horiz-adv-x="690" 
d="M448 495l37 197h75l-37 -197h123v-69h-135l-28 -150h134v-69h-147l-38 -207h-75l38 207h-154l-38 -207h-75l38 207h-122v69h135l28 150h-134v69h146l37 197h75l-37 -197h154zM282 426l-28 -150h154l28 150h-154z" />
    <glyph glyph-name="radical" unicode="&#x221a;" horiz-adv-x="650" 
d="M32 285v77h177l56 -216c18 -69 38 -161 38 -161h2s28 87 51 154l206 609h84l-290 -856h-106l-103 393h-115z" />
    <glyph glyph-name="lozenge" unicode="&#x25ca;" horiz-adv-x="574" 
d="M32 348l215 344h80l215 -344l-215 -348h-80zM232 523l-108 -176l108 -178c30 -50 54 -93 54 -93h2s24 43 54 93l107 178l-107 176c-31 50 -54 93 -54 93h-2s-23 -43 -54 -93z" />
    <glyph glyph-name="Delta" unicode="&#x2206;" horiz-adv-x="635" 
d="M24 0v55l242 637h103l242 -637v-55h-587zM282 506l-159 -428h388l-159 428c-13 36 -34 102 -34 102h-2s-21 -66 -34 -102z" />
    <glyph glyph-name="Omega" unicode="&#x2126;" horiz-adv-x="728" 
d="M314 67v-67h-255v75h71c31 0 77 -4 77 -4v1c-84 56 -155 162 -155 296c0 219 140 336 312 336s312 -117 312 -336c0 -134 -71 -240 -156 -296l1 -1s46 4 77 4h71v-75h-255v67c90 48 172 161 172 301c0 150 -77 256 -222 256s-222 -106 -222 -256c0 -140 82 -253 172 -301
z" />
    <glyph glyph-name="summation" unicode="&#x2211;" horiz-adv-x="528" 
d="M351 316l-212 -366h377v-74h-476v62l220 378l-220 370v62h476v-74h-377z" />
    <glyph glyph-name="partialdiff" unicode="&#x2202;" horiz-adv-x="562" 
d="M100 627l53 77c248 0 361 -175 361 -419c0 -134 -55 -297 -239 -297c-146 0 -231 109 -231 243c0 160 113 243 233 243c72 0 117 -37 138 -57l1 1c-32 139 -126 210 -294 210c-14 0 -22 -1 -22 -1zM291 402c-117 0 -161 -94 -161 -176c0 -73 40 -162 145 -162
c128 0 155 131 155 224c0 25 -1 48 -4 71c-13 10 -61 43 -135 43z" />
    <glyph glyph-name="integral" unicode="&#x222b;" horiz-adv-x="350" 
d="M134 21v588c0 100 51 142 136 142c33 0 52 -4 52 -4l24 -71s-24 6 -51 6c-49 0 -79 -19 -79 -79v-588c0 -100 -51 -142 -136 -142c-33 0 -52 4 -52 4l-24 71s24 -6 51 -6c49 0 79 19 79 79z" />
    <glyph glyph-name="product" unicode="&#x220f;" horiz-adv-x="627" 
d="M463 -124v800h-299v-800h-80v872h459v-872h-80z" />
    <glyph glyph-name="pi" unicode="&#x3c0;" horiz-adv-x="622" 
d="M24 429v75h575v-75h-134v-301c0 -52 18 -68 46 -68c27 0 40 25 47 50l52 -67c-22 -26 -53 -55 -105 -55c-60 0 -122 28 -122 136v305h-178v-429h-81v429h-100z" />
    <glyph glyph-name="mu" unicode="&#xb5;" horiz-adv-x="544" 
d="M72 -196v700h84v-300c0 -100 36 -140 108 -140c80 0 124 68 124 148v292h84v-504h-84l6 88h-2c-20 -44 -64 -100 -152 -100c-34 0 -63 11 -86 32h-2s2 -74 2 -144v-72h-82z" />
    <glyph glyph-name="period" unicode="." horiz-adv-x="264" 
d="M132 120c38 0 66 -28 66 -66s-28 -66 -66 -66s-66 28 -66 66s28 66 66 66z" />
    <glyph glyph-name="comma" unicode="," horiz-adv-x="264" 
d="M126 120c40 0 72 -32 72 -96c0 -84 -34 -134 -70 -162l-58 37c37 22 69 56 73 104c-5 -1 -9 -1 -14 -1c-34 0 -63 22 -63 58s24 60 60 60z" />
    <glyph glyph-name="colon" unicode=":" horiz-adv-x="264" 
d="M132 516c38 0 66 -28 66 -66s-28 -66 -66 -66s-66 28 -66 66s28 66 66 66zM132 120c38 0 66 -28 66 -66s-28 -66 -66 -66s-66 28 -66 66s28 66 66 66z" />
    <glyph glyph-name="semicolon" unicode=";" horiz-adv-x="264" 
d="M126 120c40 0 72 -32 72 -96c0 -84 -34 -134 -70 -162l-58 37c37 22 69 56 73 104c-5 -1 -9 -1 -14 -1c-34 0 -63 22 -63 58s24 60 60 60zM132 516c38 0 66 -28 66 -66s-28 -66 -66 -66s-66 28 -66 66s28 66 66 66z" />
    <glyph glyph-name="exclam" unicode="!" horiz-adv-x="288" 
d="M190 692v-72c0 -144 -16 -422 -16 -422h-60s-16 278 -16 422v72h92zM144 116c37 0 64 -27 64 -64s-27 -64 -64 -64s-64 27 -64 64s27 64 64 64z" />
    <glyph glyph-name="question" unicode="?" horiz-adv-x="484" 
d="M251 628c-88 0 -131 -70 -143 -162l-80 48c20 91 92 190 223 190c104 0 189 -68 189 -168c0 -152 -181 -179 -181 -283c0 -34 6 -55 6 -55h-61s-20 25 -20 69c0 132 171 148 171 268c0 56 -44 93 -104 93zM237 116c37 0 64 -27 64 -64s-27 -64 -64 -64s-64 27 -64 64
s27 64 64 64z" />
    <glyph glyph-name="exclamdown" unicode="&#xa1;" horiz-adv-x="288" 
d="M190 -116v-72h-92v72c0 144 16 422 16 422h60s16 -278 16 -422zM144 388c-37 0 -64 27 -64 64s27 64 64 64s64 -27 64 -64s-27 -64 -64 -64z" />
    <glyph glyph-name="questiondown" unicode="&#xbf;" horiz-adv-x="484" 
d="M233 -124c88 0 131 70 143 162l80 -48c-20 -91 -92 -190 -223 -190c-104 0 -189 68 -189 168c0 152 181 179 181 283c0 34 -6 55 -6 55h61s20 -25 20 -69c0 -132 -171 -148 -171 -268c0 -56 44 -93 104 -93zM247 388c-37 0 -64 27 -64 64s27 64 64 64s64 -27 64 -64
s-27 -64 -64 -64z" />
    <glyph glyph-name="hyphen" unicode="-" horiz-adv-x="331" 
d="M295 273h-259v73h259v-73z" />
    <glyph glyph-name="endash" unicode="&#x2013;" horiz-adv-x="527" 
d="M491 273h-455v73h455v-73z" />
    <glyph glyph-name="emdash" unicode="&#x2014;" horiz-adv-x="762" 
d="M726 273h-690v73h690v-73z" />
    <glyph glyph-name="underscore" unicode="_" horiz-adv-x="480" 
d="M420 -49h-360v72h360v-72z" />
    <glyph glyph-name="bar" unicode="|" horiz-adv-x="266" 
d="M92 -124v872h82v-872h-82z" />
    <glyph glyph-name="brokenbar" unicode="&#xa6;" horiz-adv-x="266" 
d="M92 -124v349h82v-349h-82zM92 405v343h82v-343h-82z" />
    <glyph glyph-name="dagger" unicode="&#x2020;" horiz-adv-x="494" 
d="M28 504l57 -2c54 -2 102 -6 126 -8l2 3c-3 40 -9 146 -9 216v11h87v-11c0 -72 -8 -178 -11 -216l3 -3c23 2 71 6 126 8l57 2v-82l-57 2c-54 2 -102 5 -126 7l-3 -3c2 -57 7 -187 10 -351l2 -151h-89l2 151c3 164 6 294 8 351l-3 3c-23 -2 -71 -5 -125 -7l-57 -2v82z" />
    <glyph glyph-name="daggerdbl" unicode="&#x2021;" horiz-adv-x="518" 
d="M478 162l-57 2c-54 2 -102 5 -126 7l-3 -3c3 -43 11 -160 11 -231v-11h-87v11c0 71 7 188 10 231l-3 3c-24 -2 -71 -5 -126 -7l-57 -2v82l57 -2c53 -2 100 -6 124 -8l3 3v192l-3 2c-24 -2 -70 -5 -124 -7l-57 -2v82l57 -2c54 -2 102 -6 126 -8l2 3c-3 40 -9 146 -9 216
v11h87v-11c0 -72 -8 -178 -11 -216l3 -3c23 2 71 6 126 8l57 2v-82l-57 2c-53 2 -100 5 -125 7l-2 -2v-192l2 -3c24 2 71 6 125 8l57 2v-82z" />
    <glyph glyph-name="parenleft" unicode="(" horiz-adv-x="323" 
d="M80 316c0 208 82 360 166 448l65 -35c-80 -88 -147 -225 -147 -413s67 -333 147 -421l-65 -35c-84 88 -166 248 -166 456z" />
    <glyph glyph-name="parenright" unicode=")" horiz-adv-x="323" 
d="M243 316c0 -208 -82 -368 -166 -456l-65 35c80 88 147 233 147 421s-67 325 -147 413l65 35c84 -88 166 -240 166 -448z" />
    <glyph glyph-name="bracketleft" unicode="[" horiz-adv-x="331" 
d="M92 -124v872h219v-72h-139v-728h139v-72h-219z" />
    <glyph glyph-name="bracketright" unicode="]" horiz-adv-x="331" 
d="M239 748v-872h-219v72h139v728h-139v72h219z" />
    <glyph glyph-name="braceleft" unicode="{" horiz-adv-x="376" 
d="M129 317v-2c44 -15 108 -47 108 -155v-139c0 -60 31 -79 80 -79c23 0 43 6 43 6l-24 -71s-16 -4 -44 -4c-85 0 -135 42 -135 142v138c0 96 -49 118 -109 134v58c60 16 109 38 109 134v130c0 100 50 142 135 142c28 0 44 -4 44 -4l24 -71s-20 6 -43 6
c-49 0 -80 -19 -80 -79v-131c0 -108 -64 -140 -108 -155z" />
    <glyph glyph-name="braceright" unicode="}" horiz-adv-x="376" 
d="M247 315v2c-44 15 -108 47 -108 155v131c0 60 -31 79 -80 79c-23 0 -43 -6 -43 -6l24 71s16 4 44 4c85 0 135 -42 135 -142v-130c0 -96 49 -118 109 -134v-58c-60 -16 -109 -38 -109 -134v-138c0 -100 -50 -142 -135 -142c-28 0 -44 4 -44 4l-24 71s20 -6 43 -6
c49 0 80 19 80 79v139c0 108 64 140 108 155z" />
    <glyph glyph-name="slash" unicode="/" horiz-adv-x="391" 
d="M24 -124l259 872h84l-259 -872h-84z" />
    <glyph glyph-name="backslash" unicode="\" horiz-adv-x="391" 
d="M108 748l259 -872h-84l-259 872h84z" />
    <glyph glyph-name="quotesinglbase" unicode="&#x201a;" horiz-adv-x="264" 
d="M126 120c40 0 72 -32 72 -96c0 -84 -34 -134 -70 -162l-58 37c37 22 69 56 73 104c-5 -1 -9 -1 -14 -1c-34 0 -63 22 -63 58s24 60 60 60z" />
    <glyph glyph-name="quotedblbase" unicode="&#x201e;" horiz-adv-x="432" 
d="M126 120c40 0 72 -32 72 -96c0 -84 -34 -134 -70 -162l-58 37c37 22 69 56 73 104c-5 -1 -9 -1 -14 -1c-34 0 -63 22 -63 58s24 60 60 60zM294 120c40 0 72 -32 72 -96c0 -84 -34 -134 -70 -162l-58 37c37 22 69 56 73 104c-5 -1 -9 -1 -14 -1c-34 0 -63 22 -63 58
s24 60 60 60z" />
    <glyph glyph-name="quoteleft" unicode="&#x2018;" horiz-adv-x="264" 
d="M138 456c-40 0 -72 32 -72 96c0 84 34 134 70 162l58 -37c-37 -22 -69 -56 -73 -104c5 1 9 1 14 1c34 0 63 -22 63 -58s-24 -60 -60 -60z" />
    <glyph glyph-name="quotedblleft" unicode="&#x201c;" horiz-adv-x="432" 
d="M138 456c-40 0 -72 32 -72 96c0 84 34 134 70 162l58 -37c-37 -22 -69 -56 -73 -104c5 1 9 1 14 1c34 0 63 -22 63 -58s-24 -60 -60 -60zM306 456c-40 0 -72 32 -72 96c0 84 34 134 70 162l58 -37c-37 -22 -69 -56 -73 -104c5 1 9 1 14 1c34 0 63 -22 63 -58
s-24 -60 -60 -60z" />
    <glyph glyph-name="quoteright" unicode="&#x2019;" horiz-adv-x="264" 
d="M126 704c40 0 72 -32 72 -96c0 -84 -34 -134 -70 -162l-58 37c37 22 69 56 73 104c-5 -1 -9 -1 -14 -1c-34 0 -63 22 -63 58s24 60 60 60z" />
    <glyph glyph-name="quotedblright" unicode="&#x201d;" horiz-adv-x="432" 
d="M126 704c40 0 72 -32 72 -96c0 -84 -34 -134 -70 -162l-58 37c37 22 69 56 73 104c-5 -1 -9 -1 -14 -1c-34 0 -63 22 -63 58s24 60 60 60zM294 704c40 0 72 -32 72 -96c0 -84 -34 -134 -70 -162l-58 37c37 22 69 56 73 104c-5 -1 -9 -1 -14 -1c-34 0 -63 22 -63 58
s24 60 60 60z" />
    <glyph glyph-name="guilsinglleft" unicode="&#x2039;" horiz-adv-x="340" 
d="M132 274v-2c48 -44 116 -111 160 -191l-69 -45c-44 76 -91 144 -159 204v66c68 60 115 126 159 202l69 -45c-44 -80 -112 -145 -160 -189z" />
    <glyph glyph-name="guilsinglright" unicode="&#x203a;" horiz-adv-x="340" 
d="M208 272v2c-48 44 -116 109 -160 189l69 45c44 -76 91 -142 159 -202v-66c-68 -60 -115 -128 -159 -204l-69 45c44 80 112 147 160 191z" />
    <glyph glyph-name="guillemotleft" unicode="&#xab;" horiz-adv-x="525" 
d="M130 274v-2c44 -48 106 -115 146 -191l-69 -45c-40 76 -81 144 -143 204v66c62 60 103 126 143 202l69 -45c-40 -76 -102 -141 -146 -189zM323 274v-2c46 -44 112 -115 154 -191l-69 -45c-42 76 -86 144 -151 204v66c65 60 109 126 151 202l69 -45
c-42 -76 -108 -145 -154 -189z" />
    <glyph glyph-name="guillemotright" unicode="&#xbb;" horiz-adv-x="525" 
d="M395 272v2c-44 48 -106 113 -146 189l69 45c40 -76 81 -142 143 -202v-66c-62 -60 -103 -128 -143 -204l-69 45c40 76 102 143 146 191zM202 272v2c-46 44 -112 113 -154 189l69 45c42 -76 86 -142 151 -202v-66c-65 -60 -109 -128 -151 -204l-69 45
c42 76 108 147 154 191z" />
    <glyph glyph-name="quotesingle" unicode="'" horiz-adv-x="217" 
d="M157 692l-5 -80c-5 -72 -15 -176 -15 -176h-55s-12 104 -17 176l-5 80h97z" />
    <glyph glyph-name="quotedbl" unicode="&#x22;" horiz-adv-x="372" 
d="M157 692l-5 -80c-5 -72 -15 -176 -15 -176h-55s-12 104 -17 176l-5 80h97zM312 692l-5 -80c-5 -72 -15 -176 -15 -176h-55s-12 104 -17 176l-5 80h97z" />
    <glyph glyph-name="asterisk" unicode="*" horiz-adv-x="461" 
d="M53 595l53 -22c42 -17 78 -38 93 -47l3 2c-3 18 -9 58 -11 104l-3 60h84l-3 -60c-3 -46 -8 -87 -10 -104l2 -2c13 9 50 29 93 47l53 22l29 -77l-53 -16c-45 -13 -85 -22 -103 -26l-1 -4c12 -12 41 -41 72 -77l41 -48l-69 -51l-35 53c-28 42 -51 80 -57 90h-3
c-5 -9 -27 -46 -56 -90l-35 -53l-69 51l41 48c30 35 59 65 71 77l-1 4c-17 3 -57 13 -102 26l-53 16z" />
    <glyph glyph-name="degree" unicode="&#xb0;" horiz-adv-x="366" 
d="M183 704c76 0 143 -56 143 -140s-67 -140 -143 -140s-143 56 -143 140s67 140 143 140zM251 564c0 40 -28 73 -68 73s-66 -33 -66 -73s26 -73 66 -73s68 33 68 73z" />
    <glyph glyph-name="bullet" unicode="&#x2022;" horiz-adv-x="319" 
d="M159 400c52 0 91 -39 91 -91s-39 -90 -91 -90s-90 38 -90 90s38 91 90 91z" />
    <glyph glyph-name="periodcentered" unicode="&#xb7;" horiz-adv-x="264" 
d="M132 377c38 0 66 -28 66 -66s-28 -66 -66 -66s-66 28 -66 66s28 66 66 66z" />
    <glyph glyph-name="ellipsis" unicode="&#x2026;" horiz-adv-x="710" 
d="M132 120c38 0 66 -28 66 -66s-28 -66 -66 -66s-66 28 -66 66s28 66 66 66zM355 120c38 0 66 -28 66 -66s-28 -66 -66 -66s-66 28 -66 66s28 66 66 66zM578 120c38 0 66 -28 66 -66s-28 -66 -66 -66s-66 28 -66 66s28 66 66 66z" />
    <glyph glyph-name="paragraph" unicode="&#xb6;" horiz-adv-x="594" 
d="M401 -196v813h-115v-813h-79v528c-104 12 -171 72 -171 179c0 120 82 181 209 181h321v-75h-86v-813h-79z" />
    <glyph glyph-name="section" unicode="&#xa7;" horiz-adv-x="491" 
d="M455 281c0 -55 -41 -97 -96 -114v-1c43 -31 70 -68 70 -126c0 -80 -72 -143 -174 -143s-177 55 -207 144l82 46c9 -73 58 -120 125 -120c51 0 90 28 90 71c0 56 -68 83 -138 117c-79 39 -158 83 -158 165c0 55 41 97 96 114v1c-42 31 -68 67 -68 126c0 80 74 143 172 143
s165 -57 193 -144l-81 -46c-9 73 -49 120 -112 120c-49 0 -88 -28 -88 -71c0 -56 66 -83 136 -117c79 -39 158 -83 158 -165zM238 383c-18 8 -34 17 -50 25c-29 -11 -56 -33 -56 -70c0 -56 55 -84 134 -120c17 -9 34 -17 49 -26c29 12 57 33 57 71c0 56 -55 83 -134 120z
" />
    <glyph glyph-name="copyright" unicode="&#xa9;" horiz-adv-x="822" 
d="M60 346c0 208 147 358 351 358s351 -150 351 -358s-147 -358 -351 -358s-351 150 -351 358zM411 52c164 0 281 126 281 294s-117 294 -281 294s-281 -126 -281 -294s117 -294 281 -294zM417 467c-62 0 -97 -51 -97 -121c0 -69 35 -121 97 -121c57 0 89 40 89 89l73 -39
c-13 -55 -69 -117 -162 -117c-103 0 -173 76 -173 188c0 111 70 189 173 189c93 0 149 -64 162 -117l-73 -40c0 50 -32 89 -89 89z" />
    <glyph glyph-name="registered" unicode="&#xae;" horiz-adv-x="822" 
d="M60 346c0 208 147 358 351 358s351 -150 351 -358s-147 -358 -351 -358s-351 150 -351 358zM411 52c164 0 281 126 281 294s-117 294 -281 294s-281 -126 -281 -294s117 -294 281 -294zM572 418c0 -51 -30 -85 -75 -101l75 -139h-74l-70 129h-78v-129h-68v353h151
c80 0 139 -41 139 -113zM504 418c0 28 -19 50 -63 50h-91v-100h91c44 0 63 22 63 50z" />
    <glyph glyph-name="trademark" unicode="&#x2122;" horiz-adv-x="774" 
d="M12 622v70h301v-70h-117v-242h-71v242h-113zM539 454h1s5 23 11 40l63 198h100v-312h-66v175c0 39 1 64 1 64h-1s-9 -30 -16 -52l-61 -187h-64l-64 187c-7 22 -15 52 -15 52h-2s2 -25 2 -64v-175h-65v312h100l65 -198c7 -18 11 -40 11 -40z" />
    <glyph glyph-name="ordfeminine" unicode="&#xaa;" horiz-adv-x="345" 
d="M171 642c-45 0 -70 -29 -78 -69l-64 36c20 53 72 90 143 90c69 0 125 -35 125 -113v-131c0 -34 2 -53 8 -74h-56c-10 15 -13 25 -16 40h-1c-14 -20 -46 -47 -96 -47c-58 0 -102 33 -102 91c0 68 65 85 119 96c46 9 75 15 75 39c0 25 -25 42 -57 42zM230 500v40
c-9 -13 -31 -20 -60 -27c-33 -7 -66 -15 -66 -44c0 -23 17 -39 51 -39c39 0 75 26 75 70z" />
    <glyph glyph-name="ordmasculine" unicode="&#xba;" horiz-adv-x="357" 
d="M178 374c-88 0 -150 64 -150 162c0 99 62 163 150 163c89 0 151 -64 151 -163c0 -98 -62 -162 -151 -162zM100 536c0 -58 26 -105 78 -105c53 0 79 47 79 105c0 59 -26 106 -79 106c-52 0 -78 -47 -78 -106z" />
    <glyph glyph-name="hyphen.case" horiz-adv-x="331" 
d="M295 319h-259v73h259v-73z" />
    <glyph glyph-name="endash.case" horiz-adv-x="527" 
d="M491 319h-455v73h455v-73z" />
    <glyph glyph-name="emdash.case" horiz-adv-x="762" 
d="M726 319h-690v73h690v-73z" />
    <glyph glyph-name="periodcentered.case" horiz-adv-x="264" 
d="M132 422c38 0 66 -28 66 -66s-28 -66 -66 -66s-66 28 -66 66s28 66 66 66z" />
    <glyph glyph-name="bullet.case" horiz-adv-x="319" 
d="M159 447c52 0 91 -39 91 -91s-39 -90 -91 -90s-90 38 -90 90s38 91 90 91z" />
    <glyph glyph-name="guilsinglleft.case" horiz-adv-x="340" 
d="M132 357v-2c48 -44 116 -111 160 -191l-69 -45c-44 76 -91 144 -159 204v66c68 60 115 126 159 202l69 -45c-44 -80 -112 -145 -160 -189z" />
    <glyph glyph-name="guilsinglright.case" horiz-adv-x="340" 
d="M208 356v2c-48 44 -116 109 -160 189l69 45c44 -76 91 -142 159 -202v-66c-68 -60 -115 -128 -159 -204l-69 45c44 80 112 147 160 191z" />
    <glyph glyph-name="guillemotleft.case" horiz-adv-x="525" 
d="M130 358v-2c44 -48 106 -115 146 -191l-69 -45c-40 76 -81 144 -143 204v66c62 60 103 126 143 202l69 -45c-40 -76 -102 -141 -146 -189zM323 358v-2c46 -44 112 -115 154 -191l-69 -45c-42 76 -86 144 -151 204v66c65 60 109 126 151 202l69 -45
c-42 -76 -108 -145 -154 -189z" />
    <glyph glyph-name="guillemotright.case" horiz-adv-x="525" 
d="M395 356v2c-44 48 -106 113 -146 189l69 45c40 -76 81 -142 143 -202v-66c-62 -60 -103 -128 -143 -204l-69 45c40 76 102 143 146 191zM202 356v2c-46 44 -112 113 -154 189l69 45c42 -76 86 -142 151 -202v-66c-65 -60 -109 -128 -151 -204l-69 45
c42 76 108 147 154 191z" />
    <glyph glyph-name="exclamdown.case" horiz-adv-x="288" 
d="M190 72v-72h-92v72c0 144 16 422 16 422h60s16 -278 16 -422zM144 576c-37 0 -64 27 -64 64s27 64 64 64s64 -27 64 -64s-27 -64 -64 -64z" />
    <glyph glyph-name="questiondown.case" horiz-adv-x="484" 
d="M233 64c88 0 131 70 143 162l80 -48c-20 -91 -92 -190 -223 -190c-104 0 -189 68 -189 168c0 152 181 179 181 283c0 34 -6 55 -6 55h61s20 -25 20 -69c0 -132 -171 -148 -171 -268c0 -56 44 -93 104 -93zM247 576c-37 0 -64 27 -64 64s27 64 64 64s64 -27 64 -64
s-27 -64 -64 -64z" />
    <glyph glyph-name="parenleft.case" horiz-adv-x="327" 
d="M84 355c0 196 78 299 158 381l65 -35c-76 -82 -139 -170 -139 -346c0 -180 63 -280 139 -364l-65 -35c-80 84 -158 199 -158 399z" />
    <glyph glyph-name="parenright.case" horiz-adv-x="327" 
d="M243 355c0 -200 -78 -315 -158 -399l-65 35c76 84 139 184 139 364c0 176 -63 264 -139 346l65 35c80 -82 158 -185 158 -381z" />
    <glyph glyph-name="bracketleft.case" horiz-adv-x="335" 
d="M92 -32v756h219v-72h-139v-612h139v-72h-219z" />
    <glyph glyph-name="bracketright.case" horiz-adv-x="335" 
d="M243 724v-756h-219v72h139v612h-139v72h219z" />
    <glyph glyph-name="braceleft.case" horiz-adv-x="376" 
d="M129 356v-2c44 -15 108 -47 108 -155v-87c0 -60 31 -79 80 -79c23 0 43 6 43 6l-24 -71s-16 -4 -44 -4c-85 0 -135 42 -135 142v86c0 96 -49 118 -109 134v58c60 16 109 38 109 134v68c0 100 50 142 135 142c28 0 44 -4 44 -4l24 -71s-20 6 -43 6c-49 0 -80 -19 -80 -79
v-69c0 -108 -64 -140 -108 -155z" />
    <glyph glyph-name="braceright.case" horiz-adv-x="376" 
d="M247 354v2c-44 15 -108 47 -108 155v69c0 60 -31 79 -80 79c-23 0 -43 -6 -43 -6l24 71s16 4 44 4c85 0 135 -42 135 -142v-68c0 -96 49 -118 109 -134v-58c-60 -16 -109 -38 -109 -134v-86c0 -100 -50 -142 -135 -142c-28 0 -44 4 -44 4l-24 71s20 -6 43 -6
c49 0 80 19 80 79v87c0 108 64 140 108 155z" />
    <glyph glyph-name="colon.case" horiz-adv-x="264" 
d="M132 572c38 0 66 -28 66 -66s-28 -66 -66 -66s-66 28 -66 66s28 66 66 66zM132 274c38 0 66 -28 66 -66s-28 -66 -66 -66s-66 28 -66 66s28 66 66 66z" />
    <glyph glyph-name="plus.case" 
d="M260 87v230h-212v76h212v226h80v-226h212v-76h-212v-230h-80z" />
    <glyph glyph-name="minus.case" 
d="M540 316h-480v78h480v-78z" />
    <glyph glyph-name="multiply.case" 
d="M113 117l-52 52l187 187l-182 182l52 52l182 -182l182 182l52 -52l-182 -182l187 -187l-52 -52l-187 187z" />
    <glyph glyph-name="divide.case" 
d="M540 317h-480v76h480v-76zM300 223c37 0 64 -27 64 -64s-27 -64 -64 -64s-64 27 -64 64s27 64 64 64zM300 615c37 0 64 -27 64 -64s-27 -64 -64 -64s-64 27 -64 64s27 64 64 64z" />
    <glyph glyph-name="equal.case" 
d="M536 228h-472v76h472v-76zM536 408h-472v76h472v-76z" />
    <glyph glyph-name="less.case" 
d="M536 532l-372 -176l372 -176l-34 -71l-430 212v70l430 212z" />
    <glyph glyph-name="greater.case" 
d="M444 356l-372 176l34 71l430 -212v-70l-430 -212l-34 71z" />
    <glyph glyph-name="plusminus.case" 
d="M261 261v174h-201v74h201v176h79v-176h201v-74h-201v-174h-79zM540 112h-480v76h480v-76z" />
    <glyph glyph-name="lessequal.case" 
d="M502 241l-430 149v80l430 149l24 -77l-341 -112l341 -112zM528 112h-456v76h456v-76z" />
    <glyph glyph-name="greaterequal.case" 
d="M528 382l-430 -149l-24 77l341 112l-341 112l24 77l430 -149v-80zM528 104h-456v76h456v-76z" />
    <glyph glyph-name="notequal.case" 
d="M536 228h-273l-97 -159l-62 35l75 124h-115v74h160l66 108h-226v74h271l98 160l63 -35l-77 -125h117v-74h-162l-66 -108h228v-74z" />
    <glyph glyph-name="logicalnot.case" 
d="M56 394h480v-258h-80v180h-400v78z" />
    <glyph glyph-name="asciitilde.case" 
d="M405 271c-91 0 -149 90 -207 90c-44 0 -63 -43 -71 -87l-71 43c14 60 61 123 139 123c91 0 149 -90 207 -90c44 0 63 43 71 87l71 -43c-14 -60 -61 -123 -139 -123z" />
    <glyph glyph-name="approxequal.case" 
d="M409 371c-91 0 -155 74 -213 74c-44 0 -61 -35 -69 -71l-71 43c14 52 57 107 135 107c91 0 155 -74 213 -74c44 0 61 35 69 71l71 -43c-14 -52 -57 -107 -135 -107zM409 184c-91 0 -155 74 -213 74c-44 0 -61 -35 -69 -71l-71 43c14 52 57 107 135 107
c91 0 155 -74 213 -74c44 0 61 35 69 71l71 -43c-14 -52 -57 -107 -135 -107z" />
    <glyph glyph-name="infinity.case" horiz-adv-x="877" 
d="M238 538c89 0 156 -60 199 -122h2c43 62 110 122 200 122c103 0 182 -83 182 -182s-79 -182 -182 -182c-90 0 -157 60 -200 122h-2c-43 -62 -110 -122 -199 -122c-103 0 -182 83 -182 182s79 182 182 182zM481 356c32 -42 82 -104 154 -104c59 0 105 45 105 104
s-46 104 -105 104c-72 0 -122 -62 -154 -104zM396 356c-32 42 -82 104 -154 104c-59 0 -105 -45 -105 -104s46 -104 105 -104c72 0 122 62 154 104z" />
    <glyph glyph-name="uni2113" unicode="&#x2113;" horiz-adv-x="429" 
d="M49 109l-45 56l112 103v304c0 101 54 164 138 164s141 -62 141 -150c0 -109 -59 -196 -139 -286l-58 -65v-90c0 -54 19 -85 60 -85c47 0 65 43 70 82l73 -45c-21 -48 -61 -109 -145 -109c-83 0 -140 55 -140 153v29zM198 565v-227l15 19c61 76 101 143 101 224
c0 47 -18 83 -58 83c-44 0 -58 -43 -58 -99z" />
    <glyph glyph-name="uni2116" unicode="&#x2116;" horiz-adv-x="1110" 
d="M616 0h-128l-261 480c-26 48 -62 124 -62 124l-2 -1c0 -1 3 -64 3 -131v-472h-86v692h128l261 -480c26 -48 62 -124 62 -124h2c0 2 -3 65 -3 132v472h86v-692zM888 326c-110 0 -181 85 -181 189s71 189 181 189c112 0 182 -85 182 -189c0 -105 -70 -189 -182 -189z
M788 515c0 -64 32 -119 100 -119c69 0 101 54 101 119s-32 119 -101 119c-68 0 -100 -54 -100 -119zM1066 180h-355v72h355v-72z" />
    <glyph glyph-name="estimated" unicode="&#x212e;" horiz-adv-x="833" 
d="M176 332v-197c0 -7 4 -15 10 -23c60 -62 145 -103 241 -103c102 0 192 45 254 118h57c-71 -84 -186 -139 -312 -139c-217 0 -394 161 -394 358c0 195 177 358 394 358c218 0 394 -163 394 -358v-10h-637c-4 0 -7 -1 -7 -4zM183 358h489c2 0 5 2 5 6v194
c0 10 -4 17 -11 25c-61 61 -146 99 -239 99c-94 0 -179 -41 -240 -102c-7 -8 -11 -16 -11 -26v-190c0 -4 3 -6 7 -6z" />
    <glyph glyph-name="uni25A0" unicode="&#x25a0;" horiz-adv-x="844" 
d="M80 0v692h684v-692h-684z" />
    <glyph glyph-name="uni25A1" unicode="&#x25a1;" horiz-adv-x="844" 
d="M80 0v692h684v-692h-684zM163 612v-532h518v532h-518z" />
    <glyph glyph-name="uni25FC" unicode="&#x25fc;" horiz-adv-x="634" 
d="M72 0v504h490v-504h-490z" />
    <glyph glyph-name="uni25FB" unicode="&#x25fb;" horiz-adv-x="634" 
d="M72 0v504h490v-504h-490zM155 423v-342h324v342h-324z" />
    <glyph glyph-name="uni25B6" unicode="&#x25b6;" horiz-adv-x="592" 
d="M72 -19v543l2 1l502 -271v-2l-502 -272z" />
    <glyph glyph-name="uni25B7" unicode="&#x25b7;" horiz-adv-x="592" 
d="M72 -19v543l2 1l502 -271v-2l-502 -272zM156 387v-272l2 -1l249 138v2l-249 134z" />
    <glyph glyph-name="uni25C0" unicode="&#x25c0;" horiz-adv-x="592" 
d="M520 524v-543l-2 -1l-502 272v2l502 271z" />
    <glyph glyph-name="uni25C1" unicode="&#x25c1;" horiz-adv-x="592" 
d="M520 524v-543l-2 -1l-502 272v2l502 271zM436 115v272l-2 1l-249 -134v-2l249 -138z" />
    <glyph glyph-name="circle" unicode="&#x25cb;" horiz-adv-x="798" 
d="M48 346c0 208 147 358 351 358s351 -150 351 -358s-147 -358 -351 -358s-351 150 -351 358zM399 66c157 0 267 119 267 280s-110 280 -267 280s-268 -119 -268 -280s111 -280 268 -280z" />
    <glyph glyph-name="H18533" unicode="&#x25cf;" horiz-adv-x="798" 
d="M399 704c204 0 351 -150 351 -358s-147 -358 -351 -358s-351 150 -351 358s147 358 351 358z" />
    <glyph glyph-name="arrowleft" unicode="&#x2190;" horiz-adv-x="726" 
d="M341 -5l-323 360l321 350l53 -49l-245 -263h547v-76h-547l247 -273z" />
    <glyph glyph-name="arrowup" unicode="&#x2191;" horiz-adv-x="726" 
d="M363 682l348 -315l-48 -52l-261 239v-524h-78v524l-261 -239l-48 52z" />
    <glyph glyph-name="arrowright" unicode="&#x2192;" horiz-adv-x="726" 
d="M708 355l-323 -360l-53 49l247 273h-547v76h547l-245 263l53 49z" />
    <glyph glyph-name="arrowdown" unicode="&#x2193;" horiz-adv-x="726" 
d="M711 342l-348 -315l-348 315l48 52l261 -239v524h78v-524l261 239z" />
    <glyph glyph-name="uni2196" unicode="&#x2196;" horiz-adv-x="726" 
d="M602 74l-426 425v-410h-68v532h528v-68h-406l425 -426z" />
    <glyph glyph-name="uni2197" unicode="&#x2197;" horiz-adv-x="726" 
d="M550 499l-426 -425l-53 53l425 426h-406v68h528v-532h-68v410z" />
    <glyph glyph-name="uni2198" unicode="&#x2198;" horiz-adv-x="726" 
d="M124 640l426 -425v410h68v-532h-528v68h406l-425 426z" />
    <glyph glyph-name="uni2199" unicode="&#x2199;" horiz-adv-x="726" 
d="M176 215l426 425l53 -53l-425 -426h406v-68h-528v532h68v-410z" />
    <glyph glyph-name="uni2605" unicode="&#x2605;" horiz-adv-x="713" 
d="M281 381l74 263h2l75 -263l272 11l1 -3l-225 -150l96 -259l-2 -1l-218 167l-217 -167l-2 1l95 260l-224 149l1 3z" />
    <glyph glyph-name="a.dnom" horiz-adv-x="345" 
d="M171 261c-45 0 -70 -29 -78 -69l-64 36c20 53 72 90 143 90c69 0 125 -35 125 -113v-131c0 -34 2 -53 8 -74h-56c-10 15 -13 25 -16 40h-1c-14 -20 -46 -47 -96 -47c-58 0 -102 33 -102 91c0 68 65 85 119 96c46 9 75 15 75 39c0 25 -25 42 -57 42zM230 119v40
c-9 -13 -31 -20 -60 -27c-33 -7 -66 -15 -66 -44c0 -23 17 -39 51 -39c39 0 75 26 75 70z" />
    <glyph glyph-name="b.dnom" horiz-adv-x="371" 
d="M115 48v-48h-70v447h72v-112c0 -38 -4 -77 -4 -77h1c15 29 46 60 99 60c12 0 23 -2 34 -5c54 -17 96 -76 96 -158s-42 -140 -96 -157c-11 -3 -22 -5 -34 -5c-53 0 -83 31 -96 55h-2zM114 155c0 -58 27 -103 79 -103c51 0 78 45 78 103c0 59 -27 104 -78 104
c-52 0 -79 -45 -79 -104z" />
    <glyph glyph-name="c.dnom" horiz-adv-x="332" 
d="M176 261c-52 0 -76 -47 -76 -106c0 -58 24 -105 76 -105c46 0 67 39 67 81l67 -36c-11 -49 -56 -102 -134 -102c-89 0 -148 64 -148 162c0 99 59 163 148 163c78 0 123 -53 134 -102l-67 -36c0 42 -21 81 -67 81z" />
    <glyph glyph-name="d.dnom" horiz-adv-x="371" 
d="M258 53h-1c-15 -29 -46 -60 -99 -60c-70 0 -130 64 -130 162c0 99 60 163 130 163c53 0 82 -31 94 -51h2v180h71v-447h-71zM178 52c52 0 79 45 79 103c0 59 -27 104 -79 104c-51 0 -78 -45 -78 -104c0 -58 27 -103 78 -103z" />
    <glyph glyph-name="e.dnom" horiz-adv-x="343" 
d="M312 136h-216c4 -54 36 -87 83 -87c40 0 66 26 72 59l63 -37c-20 -41 -68 -78 -135 -78c-91 0 -151 63 -151 162s63 163 150 163c84 0 139 -59 139 -142c0 -23 -5 -40 -5 -40zM178 263c-43 0 -72 -29 -80 -75h151c0 42 -27 75 -71 75z" />
    <glyph glyph-name="f.dnom" horiz-adv-x="233" 
d="M178 397c-25 0 -38 -19 -38 -51v-35h75v-58h-75v-253h-70v253h-53v58h53v36c0 70 44 107 106 107c54 0 86 -30 103 -58l-65 -40c-1 20 -11 41 -36 41z" />
    <glyph glyph-name="g.dnom" horiz-adv-x="348" 
d="M41 215c0 63 57 103 126 103c30 0 47 -7 72 -7c28 0 36 14 36 34c0 11 -1 20 -2 28l70 -40c-1 -39 -19 -56 -53 -56c-9 0 -21 2 -28 4v-2c15 -13 36 -35 36 -70c0 -62 -59 -102 -129 -102c-37 0 -72 -12 -72 -31c0 -14 12 -20 42 -20c29 0 58 5 93 5
c64 0 111 -27 111 -86c0 -74 -82 -102 -172 -102c-83 0 -163 24 -163 81c0 33 35 55 68 61v1c-23 8 -44 22 -44 49c0 34 34 53 71 61v1c-35 15 -62 43 -62 88zM71 -39c0 -26 45 -38 100 -38c58 0 104 14 104 45c0 24 -33 32 -73 32c-46 0 -131 -4 -131 -39zM107 212
c0 -33 28 -54 63 -54c34 0 62 21 62 54c0 34 -28 55 -62 55c-35 0 -63 -21 -63 -55z" />
    <glyph glyph-name="h.dnom" horiz-adv-x="360" 
d="M317 198v-198h-71v183c0 50 -21 72 -60 72c-44 0 -69 -33 -69 -76v-179h-72v447h72v-112c0 -38 -4 -77 -4 -77h1c15 28 44 60 98 60c64 0 105 -42 105 -120z" />
    <glyph glyph-name="i.dnom" horiz-adv-x="163" 
d="M81 441c26 0 45 -18 45 -44c0 -25 -19 -43 -45 -43c-25 0 -44 18 -44 43c0 26 19 44 44 44zM45 0v311h72v-311h-72z" />
    <glyph glyph-name="j.dnom" horiz-adv-x="168" 
d="M86 441c26 0 45 -18 45 -44c0 -25 -19 -43 -45 -43c-25 0 -44 18 -44 43c0 26 19 44 44 44zM34 -128l-64 48c63 13 80 36 80 102v289h72v-301c0 -74 -25 -122 -88 -138z" />
    <glyph glyph-name="k.dnom" horiz-adv-x="338" 
d="M324 311l-110 -123l123 -188h-79l-91 136l-50 -60v-76h-72v447h72v-215c0 -38 -4 -77 -4 -77h1s23 34 43 59l82 97h85z" />
    <glyph glyph-name="l.dnom" horiz-adv-x="163" 
d="M45 0v447h72v-447h-72z" />
    <glyph glyph-name="m.dnom" horiz-adv-x="534" 
d="M45 0v311h71l-4 -53h2c14 28 41 60 91 60c43 0 72 -20 85 -59h2c16 29 45 59 98 59c62 0 101 -41 101 -114v-204h-71v190c0 44 -19 65 -54 65c-39 0 -62 -29 -62 -74v-181h-71v196c0 40 -22 59 -55 59c-38 0 -62 -29 -62 -74v-181h-71z" />
    <glyph glyph-name="n.dnom" horiz-adv-x="360" 
d="M317 198v-198h-71v183c0 50 -21 72 -60 72c-44 0 -69 -33 -69 -76v-179h-72v311h72l-4 -53h1c15 28 44 60 98 60c64 0 105 -42 105 -120z" />
    <glyph glyph-name="o.dnom" horiz-adv-x="357" 
d="M178 -7c-88 0 -150 64 -150 162c0 99 62 163 150 163c89 0 151 -64 151 -163c0 -98 -62 -162 -151 -162zM100 155c0 -58 26 -105 78 -105c53 0 79 47 79 105c0 59 -26 106 -79 106c-52 0 -78 -47 -78 -106z" />
    <glyph glyph-name="p.dnom" horiz-adv-x="371" 
d="M113 258c17 28 46 60 100 60c70 0 130 -64 130 -163c0 -98 -60 -162 -130 -162c-54 0 -82 32 -96 52v-166h-72v432h72zM114 155c0 -58 27 -103 79 -103c51 0 78 45 78 103c0 59 -27 104 -78 104c-52 0 -79 -45 -79 -104z" />
    <glyph glyph-name="q.dnom" horiz-adv-x="371" 
d="M255 263v48h71v-432h-72v97c0 38 4 77 4 77h-1c-15 -29 -46 -60 -99 -60c-70 0 -130 64 -130 162c0 99 60 163 130 163c53 0 82 -31 96 -55h1zM257 155c0 59 -27 104 -79 104c-51 0 -78 -45 -78 -104c0 -58 27 -103 78 -103c52 0 79 45 79 103z" />
    <glyph glyph-name="r.dnom" horiz-adv-x="280" 
d="M45 0v311h72l-4 -53h1c15 32 40 59 80 59c45 0 72 -37 72 -82c0 -19 -3 -34 -3 -34l-66 -40c0 6 5 29 5 50c0 23 -10 43 -35 43c-34 0 -50 -31 -50 -73v-181h-72z" />
    <glyph glyph-name="s.dnom" horiz-adv-x="328" 
d="M178 47c29 0 53 13 53 38c0 29 -41 36 -84 47c-48 13 -110 34 -110 94c0 57 56 92 118 92c64 0 120 -32 143 -74l-63 -37c-7 30 -35 57 -77 57c-27 0 -51 -12 -51 -35c0 -28 47 -31 94 -45c52 -16 100 -38 100 -95c0 -61 -57 -96 -120 -96c-79 0 -132 31 -157 85l64 38
c9 -37 38 -69 90 -69z" />
    <glyph glyph-name="t.dnom" horiz-adv-x="233" 
d="M192 76l32 -54c-11 -12 -38 -29 -73 -29c-49 0 -84 23 -84 88v172h-55v58h55v66l71 42v-108h77v-58h-77v-165c0 -26 8 -35 25 -35c15 0 25 14 29 23z" />
    <glyph glyph-name="u.dnom" horiz-adv-x="356" 
d="M43 113v198h72v-183c0 -50 18 -73 58 -73c43 0 66 34 66 77v179h72v-311h-72l4 53h-1c-15 -29 -41 -60 -96 -60c-64 0 -103 42 -103 120z" />
    <glyph glyph-name="v.dnom" horiz-adv-x="318" 
d="M119 0l-110 311h75l48 -145c13 -40 27 -93 27 -93h2s15 53 28 93l47 145h73l-110 -311h-80z" />
    <glyph glyph-name="w.dnom" horiz-adv-x="472" 
d="M236 241c0 0 -14 -58 -25 -99l-36 -142h-86l-72 311h74l23 -119c9 -45 22 -119 22 -119h2c0 3 26 115 36 149l24 89h80l31 -119c12 -44 29 -119 29 -119c1 0 22 114 29 149l18 89h70l-71 -311h-85l-36 142c-11 41 -25 99 -25 99h-2z" />
    <glyph glyph-name="x.dnom" horiz-adv-x="315" 
d="M298 311l-93 -151l101 -160h-78l-44 73c-17 29 -26 48 -26 48h-2s-9 -20 -26 -48l-45 -73h-76l100 160l-92 151h77l31 -55c17 -30 32 -59 32 -59h2s16 28 32 58l32 56h75z" />
    <glyph glyph-name="y.dnom" horiz-adv-x="313" 
d="M160 86c0 -2 26 85 37 120l34 105h74l-112 -323c-16 -48 -42 -96 -98 -116l-58 48c51 14 67 35 89 80l-117 311h75l48 -138c12 -36 28 -87 28 -87z" />
    <glyph glyph-name="z.dnom" horiz-adv-x="307" 
d="M31 253v58h245v-42l-158 -211h164v-58h-254v42l158 211h-155z" />
    <glyph glyph-name="zero.dnom" horiz-adv-x="395" 
d="M109 215c0 -79 21 -156 89 -156s89 77 89 156s-21 153 -89 153s-89 -74 -89 -153zM33 215c0 141 65 219 165 219s165 -78 165 -219c0 -142 -65 -222 -165 -222s-165 80 -165 222z" />
    <glyph glyph-name="one.dnom" horiz-adv-x="246" 
d="M122 333h-2c-15 -19 -50 -40 -78 -47l-32 63c54 14 104 45 129 78h54v-427h-73v268c0 32 2 65 2 65z" />
    <glyph glyph-name="two.dnom" horiz-adv-x="352" 
d="M120 218l-75 37s-9 21 -9 47c0 82 63 132 146 132c79 0 140 -50 140 -128c0 -130 -164 -192 -189 -237v-2h191v-67h-276s-2 9 -2 21c0 116 203 168 203 280c0 41 -26 69 -69 69c-46 0 -73 -31 -73 -80c0 -31 7 -56 13 -72z" />
    <glyph glyph-name="three.dnom" horiz-adv-x="351" 
d="M175 -7c-82 0 -138 47 -152 104l69 40c6 -43 31 -80 82 -80c48 0 77 33 77 80c0 46 -30 78 -78 78c-32 0 -55 -13 -72 -26l-26 62l133 110h-169v66h272v-54l-87 -71c-22 -18 -56 -39 -56 -39l1 -2s13 3 24 3c74 0 131 -51 131 -129c0 -85 -64 -142 -149 -142z" />
    <glyph glyph-name="four.dnom" horiz-adv-x="367" 
d="M220 113h-181l-17 46c52 81 85 166 89 275l69 -35c-7 -97 -47 -169 -83 -221h123v249h71v-249h57v-65h-57v-113h-71v113z" />
    <glyph glyph-name="five.dnom" horiz-adv-x="356" 
d="M179 -7c-83 0 -137 47 -150 104l69 40c5 -43 29 -80 80 -80s78 42 78 91s-29 87 -77 87c-39 0 -63 -25 -73 -53l-65 31l28 214h231v-66h-172l-7 -53c-4 -28 -11 -52 -11 -52l1 -1c17 20 46 38 86 38c72 0 131 -55 131 -145c0 -94 -62 -155 -149 -155z" />
    <glyph glyph-name="six.dnom" horiz-adv-x="369" 
d="M203 434c64 0 113 -37 132 -84l-67 -40c-4 34 -25 61 -65 61c-59 0 -94 -59 -102 -137h2c20 31 58 53 102 53c72 0 137 -55 137 -142c0 -88 -63 -152 -151 -152c-101 0 -158 71 -158 206s57 235 170 235zM271 142c0 49 -30 87 -80 87c-51 0 -82 -38 -82 -87
s32 -88 82 -88c51 0 80 39 80 88z" />
    <glyph glyph-name="seven.dnom" horiz-adv-x="334" 
d="M324 427v-48c-66 -117 -110 -244 -127 -379h-82c18 133 73 263 129 360h-153v-98l-69 36v129h302z" />
    <glyph glyph-name="eight.dnom" horiz-adv-x="374" 
d="M187 -7c-88 0 -158 48 -158 127c0 67 52 97 88 109v1c-34 13 -72 40 -72 92c0 67 60 112 142 112s142 -45 142 -112c0 -52 -38 -79 -72 -92v-1c36 -12 88 -42 88 -109c0 -79 -70 -127 -158 -127zM101 125c0 -45 40 -71 86 -71s86 26 86 71s-40 70 -86 70s-86 -25 -86 -70
zM113 314c0 -35 33 -58 74 -58s74 23 74 58c0 36 -33 59 -74 59s-74 -23 -74 -59z" />
    <glyph glyph-name="nine.dnom" horiz-adv-x="368" 
d="M180 -7c-71 0 -118 34 -140 88l67 41c5 -34 27 -66 74 -66c63 0 82 55 85 139c-1 0 -1 1 -2 1c-19 -31 -57 -49 -101 -49c-72 0 -136 52 -136 140c0 87 63 147 151 147c101 0 157 -66 157 -200c0 -141 -37 -241 -155 -241zM98 288c0 -49 30 -83 80 -83c51 0 81 34 81 83
s-31 85 -81 85c-51 0 -80 -35 -80 -85z" />
    <glyph glyph-name="dollar.dnom" horiz-adv-x="394" 
d="M172 -57v60c-76 7 -131 54 -144 123l65 42c2 -49 24 -96 80 -106v127c-63 18 -131 44 -131 120c0 63 57 108 130 115v58h61v-58c61 -8 116 -48 135 -104l-65 -41c-1 42 -25 79 -72 87v-117c70 -19 139 -48 139 -123c0 -65 -58 -116 -137 -123v-60h-61zM301 121
c0 34 -32 48 -70 59v-120c41 5 70 28 70 61zM110 316c0 -33 27 -46 63 -57v107c-39 -5 -63 -25 -63 -50z" />
    <glyph glyph-name="cent.dnom" horiz-adv-x="372" 
d="M165 -57v61c-78 12 -128 70 -128 154s50 140 128 152v61h61v-60c65 -10 104 -51 117 -94l-64 -34c0 31 -18 61 -55 71v-192c37 9 55 40 55 71l64 -34c-13 -43 -52 -86 -117 -95v-61h-61zM105 158c0 -47 19 -84 62 -96v191c-43 -11 -62 -48 -62 -95z" />
    <glyph glyph-name="Euro.dnom" horiz-adv-x="422" 
d="M249 138h-86c10 -49 35 -83 89 -83c58 0 77 48 80 98l67 -43c-16 -60 -63 -117 -147 -117s-142 49 -161 145h-57v53h50v39h-50v52h56c20 99 83 152 162 152c82 0 131 -53 147 -113l-67 -43c-3 50 -23 94 -80 94c-51 0 -78 -39 -90 -90h135l-18 -52h-123v-39h111z" />
    <glyph glyph-name="yen.dnom" horiz-adv-x="397" 
d="M352 109h-118v-109h-71v109h-118v53h118l-23 40h-95v53h65l-96 172h81l62 -117c15 -30 44 -82 42 -83c0 -1 26 49 42 82l63 118h79l-97 -172h66v-53h-96l-22 -40h118v-53z" />
    <glyph glyph-name="sterling.dnom" horiz-adv-x="374" 
d="M261 179h-84c1 -8 2 -16 2 -23c0 -40 -15 -71 -38 -90h210v-66h-299v51c44 23 57 57 57 91c0 13 -1 25 -4 37h-74v58h56c-7 21 -13 43 -13 70c0 83 63 127 139 127c67 0 124 -39 147 -106l-68 -40c-5 51 -34 83 -78 83c-40 0 -68 -25 -68 -69c0 -22 6 -44 14 -65h119z
" />
    <glyph glyph-name="plus.dnom" horiz-adv-x="390" 
d="M162 33v137h-131v64h131v135h66v-135h131v-64h-131v-137h-66z" />
    <glyph glyph-name="minus.dnom" horiz-adv-x="390" 
d="M350 170h-310v65h310v-65z" />
    <glyph glyph-name="multiply.dnom" horiz-adv-x="390" 
d="M82 49l-45 44l115 108l-112 107l44 44l111 -108l111 108l45 -44l-113 -107l115 -108l-45 -44l-113 108z" />
    <glyph glyph-name="divide.dnom" horiz-adv-x="390" 
d="M350 170h-310v64h310v-64zM195 125c27 0 47 -19 47 -47c0 -27 -20 -46 -47 -46c-26 0 -47 19 -47 46c0 28 21 47 47 47zM195 373c27 0 47 -19 47 -47c0 -27 -20 -46 -47 -46c-26 0 -47 19 -47 46c0 28 21 47 47 47z" />
    <glyph glyph-name="equal.dnom" horiz-adv-x="390" 
d="M348 111h-306v62h306v-62zM348 230h-306v62h306v-62z" />
    <glyph glyph-name="period.dnom" horiz-adv-x="182" 
d="M91 89c27 0 49 -20 49 -48c0 -29 -22 -48 -49 -48c-28 0 -49 19 -49 48c0 28 21 48 49 48z" />
    <glyph glyph-name="comma.dnom" horiz-adv-x="182" 
d="M86 89c31 0 54 -24 54 -68c0 -54 -24 -92 -53 -112l-43 27c23 13 50 33 54 68c-3 -1 -7 -1 -10 -1c-25 0 -46 17 -46 43c0 25 19 43 44 43z" />
    <glyph glyph-name="hyphen.dnom" horiz-adv-x="224" 
d="M196 156h-168v62h168v-62z" />
    <glyph glyph-name="parenleft.dnom" horiz-adv-x="224" 
d="M53 192c0 128 52 228 106 282l55 -29c-50 -57 -90 -141 -90 -253s40 -200 90 -257l-55 -29c-54 54 -106 158 -106 286z" />
    <glyph glyph-name="parenright.dnom" horiz-adv-x="224" 
d="M171 192c0 -128 -52 -232 -106 -286l-55 29c50 57 89 145 89 257s-39 196 -89 253l55 29c54 -54 106 -154 106 -282z" />
    <glyph glyph-name="a.numr" horiz-adv-x="345" 
d="M171 538c-45 0 -70 -29 -78 -69l-64 36c20 53 72 90 143 90c69 0 125 -35 125 -113v-131c0 -34 2 -53 8 -74h-56c-10 15 -13 25 -16 40h-1c-14 -20 -46 -47 -96 -47c-58 0 -102 33 -102 91c0 68 65 85 119 96c46 9 75 15 75 39c0 25 -25 42 -57 42zM230 396v40
c-9 -13 -31 -20 -60 -27c-33 -7 -66 -15 -66 -44c0 -23 17 -39 51 -39c39 0 75 26 75 70z" />
    <glyph glyph-name="b.numr" horiz-adv-x="371" 
d="M115 325v-48h-70v447h72v-112c0 -38 -4 -77 -4 -77h1c15 29 46 60 99 60c12 0 23 -2 34 -5c54 -17 96 -76 96 -158s-42 -140 -96 -157c-11 -3 -22 -5 -34 -5c-53 0 -83 31 -96 55h-2zM114 432c0 -58 27 -103 79 -103c51 0 78 45 78 103c0 59 -27 104 -78 104
c-52 0 -79 -45 -79 -104z" />
    <glyph glyph-name="c.numr" horiz-adv-x="332" 
d="M176 538c-52 0 -76 -47 -76 -106c0 -58 24 -105 76 -105c46 0 67 39 67 81l67 -36c-11 -49 -56 -102 -134 -102c-89 0 -148 64 -148 162c0 99 59 163 148 163c78 0 123 -53 134 -102l-67 -36c0 42 -21 81 -67 81z" />
    <glyph glyph-name="d.numr" horiz-adv-x="371" 
d="M258 330h-1c-15 -29 -46 -60 -99 -60c-70 0 -130 64 -130 162c0 99 60 163 130 163c53 0 82 -31 94 -51h2v180h71v-447h-71zM178 329c52 0 79 45 79 103c0 59 -27 104 -79 104c-51 0 -78 -45 -78 -104c0 -58 27 -103 78 -103z" />
    <glyph glyph-name="e.numr" horiz-adv-x="343" 
d="M312 413h-216c4 -54 36 -87 83 -87c40 0 66 26 72 59l63 -37c-20 -41 -68 -78 -135 -78c-91 0 -151 63 -151 162s63 163 150 163c84 0 139 -59 139 -142c0 -23 -5 -40 -5 -40zM178 540c-43 0 -72 -29 -80 -75h151c0 42 -27 75 -71 75z" />
    <glyph glyph-name="f.numr" horiz-adv-x="233" 
d="M178 674c-25 0 -38 -19 -38 -51v-35h75v-58h-75v-253h-70v253h-53v58h53v36c0 70 44 107 106 107c54 0 86 -30 103 -58l-65 -40c-1 20 -11 41 -36 41z" />
    <glyph glyph-name="g.numr" horiz-adv-x="348" 
d="M41 492c0 63 57 103 126 103c30 0 47 -7 72 -7c28 0 36 14 36 34c0 11 -1 20 -2 28l70 -40c-1 -39 -19 -56 -53 -56c-9 0 -21 2 -28 4v-2c15 -13 36 -35 36 -70c0 -62 -59 -102 -129 -102c-37 0 -72 -12 -72 -31c0 -14 12 -20 42 -20c29 0 58 5 93 5
c64 0 111 -27 111 -86c0 -74 -82 -102 -172 -102c-83 0 -163 24 -163 81c0 33 35 55 68 61v1c-23 8 -44 22 -44 49c0 34 34 53 71 61v1c-35 15 -62 43 -62 88zM71 238c0 -26 45 -38 100 -38c58 0 104 14 104 45c0 24 -33 32 -73 32c-46 0 -131 -4 -131 -39zM107 489
c0 -33 28 -54 63 -54c34 0 62 21 62 54c0 34 -28 55 -62 55c-35 0 -63 -21 -63 -55z" />
    <glyph glyph-name="h.numr" horiz-adv-x="360" 
d="M317 475v-198h-71v183c0 50 -21 72 -60 72c-44 0 -69 -33 -69 -76v-179h-72v447h72v-112c0 -38 -4 -77 -4 -77h1c15 28 44 60 98 60c64 0 105 -42 105 -120z" />
    <glyph glyph-name="i.numr" horiz-adv-x="163" 
d="M81 718c26 0 45 -18 45 -44c0 -25 -19 -43 -45 -43c-25 0 -44 18 -44 43c0 26 19 44 44 44zM45 277v311h72v-311h-72z" />
    <glyph glyph-name="j.numr" horiz-adv-x="168" 
d="M86 718c26 0 45 -18 45 -44c0 -25 -19 -43 -45 -43c-25 0 -44 18 -44 43c0 26 19 44 44 44zM34 149l-64 48c63 13 80 36 80 102v289h72v-301c0 -74 -25 -122 -88 -138z" />
    <glyph glyph-name="k.numr" horiz-adv-x="338" 
d="M324 588l-110 -123l123 -188h-79l-91 136l-50 -60v-76h-72v447h72v-215c0 -38 -4 -77 -4 -77h1s23 34 43 59l82 97h85z" />
    <glyph glyph-name="l.numr" horiz-adv-x="163" 
d="M45 277v447h72v-447h-72z" />
    <glyph glyph-name="m.numr" horiz-adv-x="534" 
d="M45 277v311h71l-4 -53h2c14 28 41 60 91 60c43 0 72 -20 85 -59h2c16 29 45 59 98 59c62 0 101 -41 101 -114v-204h-71v190c0 44 -19 65 -54 65c-39 0 -62 -29 -62 -74v-181h-71v196c0 40 -22 59 -55 59c-38 0 -62 -29 -62 -74v-181h-71z" />
    <glyph glyph-name="n.numr" horiz-adv-x="360" 
d="M317 475v-198h-71v183c0 50 -21 72 -60 72c-44 0 -69 -33 -69 -76v-179h-72v311h72l-4 -53h1c15 28 44 60 98 60c64 0 105 -42 105 -120z" />
    <glyph glyph-name="o.numr" horiz-adv-x="357" 
d="M178 270c-88 0 -150 64 -150 162c0 99 62 163 150 163c89 0 151 -64 151 -163c0 -98 -62 -162 -151 -162zM100 432c0 -58 26 -105 78 -105c53 0 79 47 79 105c0 59 -26 106 -79 106c-52 0 -78 -47 -78 -106z" />
    <glyph glyph-name="p.numr" horiz-adv-x="371" 
d="M113 535c17 28 46 60 100 60c70 0 130 -64 130 -163c0 -98 -60 -162 -130 -162c-54 0 -82 32 -96 52v-166h-72v432h72zM114 432c0 -58 27 -103 79 -103c51 0 78 45 78 103c0 59 -27 104 -78 104c-52 0 -79 -45 -79 -104z" />
    <glyph glyph-name="q.numr" horiz-adv-x="371" 
d="M255 540v48h71v-432h-72v97c0 38 4 77 4 77h-1c-15 -29 -46 -60 -99 -60c-70 0 -130 64 -130 162c0 99 60 163 130 163c53 0 82 -31 96 -55h1zM257 432c0 59 -27 104 -79 104c-51 0 -78 -45 -78 -104c0 -58 27 -103 78 -103c52 0 79 45 79 103z" />
    <glyph glyph-name="r.numr" horiz-adv-x="280" 
d="M45 277v311h72l-4 -53h1c15 32 40 59 80 59c45 0 72 -37 72 -82c0 -19 -3 -34 -3 -34l-66 -40c0 6 5 29 5 50c0 23 -10 43 -35 43c-34 0 -50 -31 -50 -73v-181h-72z" />
    <glyph glyph-name="s.numr" horiz-adv-x="328" 
d="M178 324c29 0 53 13 53 38c0 29 -41 36 -84 47c-48 13 -110 34 -110 94c0 57 56 92 118 92c64 0 120 -32 143 -74l-63 -37c-7 30 -35 57 -77 57c-27 0 -51 -12 -51 -35c0 -28 47 -31 94 -45c52 -16 100 -38 100 -95c0 -61 -57 -96 -120 -96c-79 0 -132 31 -157 85l64 38
c9 -37 38 -69 90 -69z" />
    <glyph glyph-name="t.numr" horiz-adv-x="233" 
d="M192 353l32 -54c-11 -12 -38 -29 -73 -29c-49 0 -84 23 -84 88v172h-55v58h55v66l71 42v-108h77v-58h-77v-165c0 -26 8 -35 25 -35c15 0 25 14 29 23z" />
    <glyph glyph-name="u.numr" horiz-adv-x="356" 
d="M43 390v198h72v-183c0 -50 18 -73 58 -73c43 0 66 34 66 77v179h72v-311h-72l4 53h-1c-15 -29 -41 -60 -96 -60c-64 0 -103 42 -103 120z" />
    <glyph glyph-name="v.numr" horiz-adv-x="318" 
d="M119 277l-110 311h75l48 -145c13 -40 27 -93 27 -93h2s15 53 28 93l47 145h73l-110 -311h-80z" />
    <glyph glyph-name="w.numr" horiz-adv-x="472" 
d="M236 518c0 0 -14 -58 -25 -99l-36 -142h-86l-72 311h74l23 -119c9 -45 22 -119 22 -119h2c0 3 26 115 36 149l24 89h80l31 -119c12 -44 29 -119 29 -119c1 0 22 114 29 149l18 89h70l-71 -311h-85l-36 142c-11 41 -25 99 -25 99h-2z" />
    <glyph glyph-name="x.numr" horiz-adv-x="315" 
d="M298 588l-93 -151l101 -160h-78l-44 73c-17 29 -26 48 -26 48h-2s-9 -20 -26 -48l-45 -73h-76l100 160l-92 151h77l31 -55c17 -30 32 -59 32 -59h2s16 28 32 58l32 56h75z" />
    <glyph glyph-name="y.numr" horiz-adv-x="313" 
d="M160 363c0 -2 26 85 37 120l34 105h74l-112 -323c-16 -48 -42 -96 -98 -116l-58 48c51 14 67 35 89 80l-117 311h75l48 -138c12 -36 28 -87 28 -87z" />
    <glyph glyph-name="z.numr" horiz-adv-x="307" 
d="M31 530v58h245v-42l-158 -211h164v-58h-254v42l158 211h-155z" />
    <glyph glyph-name="zero.numr" horiz-adv-x="395" 
d="M109 492c0 -79 21 -156 89 -156s89 77 89 156s-21 153 -89 153s-89 -74 -89 -153zM33 492c0 141 65 219 165 219s165 -78 165 -219c0 -142 -65 -222 -165 -222s-165 80 -165 222z" />
    <glyph glyph-name="one.numr" horiz-adv-x="246" 
d="M122 610h-2c-15 -19 -50 -40 -78 -47l-32 63c54 14 104 45 129 78h54v-427h-73v268c0 32 2 65 2 65z" />
    <glyph glyph-name="two.numr" horiz-adv-x="352" 
d="M120 495l-75 37s-9 21 -9 47c0 82 63 132 146 132c79 0 140 -50 140 -128c0 -130 -164 -192 -189 -237v-2h191v-67h-276s-2 9 -2 21c0 116 203 168 203 280c0 41 -26 69 -69 69c-46 0 -73 -31 -73 -80c0 -31 7 -56 13 -72z" />
    <glyph glyph-name="three.numr" horiz-adv-x="351" 
d="M175 270c-82 0 -138 47 -152 104l69 40c6 -43 31 -80 82 -80c48 0 77 33 77 80c0 46 -30 78 -78 78c-32 0 -55 -13 -72 -26l-26 62l133 110h-169v66h272v-54l-87 -71c-22 -18 -56 -39 -56 -39l1 -2s13 3 24 3c74 0 131 -51 131 -129c0 -85 -64 -142 -149 -142z" />
    <glyph glyph-name="four.numr" horiz-adv-x="367" 
d="M220 390h-181l-17 46c52 81 85 166 89 275l69 -35c-7 -97 -47 -169 -83 -221h123v249h71v-249h57v-65h-57v-113h-71v113z" />
    <glyph glyph-name="five.numr" horiz-adv-x="356" 
d="M179 270c-83 0 -137 47 -150 104l69 40c5 -43 29 -80 80 -80s78 42 78 91s-29 87 -77 87c-39 0 -63 -25 -73 -53l-65 31l28 214h231v-66h-172l-7 -53c-4 -28 -11 -52 -11 -52l1 -1c17 20 46 38 86 38c72 0 131 -55 131 -145c0 -94 -62 -155 -149 -155z" />
    <glyph glyph-name="six.numr" horiz-adv-x="369" 
d="M203 711c64 0 113 -37 132 -84l-67 -40c-4 34 -25 61 -65 61c-59 0 -94 -59 -102 -137h2c20 31 58 53 102 53c72 0 137 -55 137 -142c0 -88 -63 -152 -151 -152c-101 0 -158 71 -158 206s57 235 170 235zM271 419c0 49 -30 87 -80 87c-51 0 -82 -38 -82 -87
s32 -88 82 -88c51 0 80 39 80 88z" />
    <glyph glyph-name="seven.numr" horiz-adv-x="334" 
d="M324 704v-48c-66 -117 -110 -244 -127 -379h-82c18 133 73 263 129 360h-153v-98l-69 36v129h302z" />
    <glyph glyph-name="eight.numr" horiz-adv-x="374" 
d="M187 270c-88 0 -158 48 -158 127c0 67 52 97 88 109v1c-34 13 -72 40 -72 92c0 67 60 112 142 112s142 -45 142 -112c0 -52 -38 -79 -72 -92v-1c36 -12 88 -42 88 -109c0 -79 -70 -127 -158 -127zM101 402c0 -45 40 -71 86 -71s86 26 86 71s-40 70 -86 70
s-86 -25 -86 -70zM113 591c0 -35 33 -58 74 -58s74 23 74 58c0 36 -33 59 -74 59s-74 -23 -74 -59z" />
    <glyph glyph-name="nine.numr" horiz-adv-x="368" 
d="M180 270c-71 0 -118 34 -140 88l67 41c5 -34 27 -66 74 -66c63 0 82 55 85 139c-1 0 -1 1 -2 1c-19 -31 -57 -49 -101 -49c-72 0 -136 52 -136 140c0 87 63 147 151 147c101 0 157 -66 157 -200c0 -141 -37 -241 -155 -241zM98 565c0 -49 30 -83 80 -83c51 0 81 34 81 83
s-31 85 -81 85c-51 0 -80 -35 -80 -85z" />
    <glyph glyph-name="dollar.numr" horiz-adv-x="394" 
d="M172 220v60c-76 7 -131 54 -144 123l65 42c2 -49 24 -96 80 -106v127c-63 18 -131 44 -131 120c0 63 57 108 130 115v58h61v-58c61 -8 116 -48 135 -104l-65 -41c-1 42 -25 79 -72 87v-117c70 -19 139 -48 139 -123c0 -65 -58 -116 -137 -123v-60h-61zM301 398
c0 34 -32 48 -70 59v-120c41 5 70 28 70 61zM110 593c0 -33 27 -46 63 -57v107c-39 -5 -63 -25 -63 -50z" />
    <glyph glyph-name="cent.numr" horiz-adv-x="372" 
d="M165 220v61c-78 12 -128 70 -128 154s50 140 128 152v61h61v-60c65 -10 104 -51 117 -94l-64 -34c0 31 -18 61 -55 71v-192c37 9 55 40 55 71l64 -34c-13 -43 -52 -86 -117 -95v-61h-61zM105 435c0 -47 19 -84 62 -96v191c-43 -11 -62 -48 -62 -95z" />
    <glyph glyph-name="Euro.numr" horiz-adv-x="422" 
d="M249 415h-86c10 -49 35 -83 89 -83c58 0 77 48 80 98l67 -43c-16 -60 -63 -117 -147 -117s-142 49 -161 145h-57v53h50v39h-50v52h56c20 99 83 152 162 152c82 0 131 -53 147 -113l-67 -43c-3 50 -23 94 -80 94c-51 0 -78 -39 -90 -90h135l-18 -52h-123v-39h111z" />
    <glyph glyph-name="yen.numr" horiz-adv-x="397" 
d="M352 386h-118v-109h-71v109h-118v53h118l-23 40h-95v53h65l-96 172h81l62 -117c15 -30 44 -82 42 -83c0 -1 26 49 42 82l63 118h79l-97 -172h66v-53h-96l-22 -40h118v-53z" />
    <glyph glyph-name="sterling.numr" horiz-adv-x="374" 
d="M261 456h-84c1 -8 2 -16 2 -23c0 -40 -15 -71 -38 -90h210v-66h-299v51c44 23 57 57 57 91c0 13 -1 25 -4 37h-74v58h56c-7 21 -13 43 -13 70c0 83 63 127 139 127c67 0 124 -39 147 -106l-68 -40c-5 51 -34 83 -78 83c-40 0 -68 -25 -68 -69c0 -22 6 -44 14 -65h119z
" />
    <glyph glyph-name="plus.numr" horiz-adv-x="390" 
d="M162 310v137h-131v64h131v135h66v-135h131v-64h-131v-137h-66z" />
    <glyph glyph-name="minus.numr" horiz-adv-x="390" 
d="M350 447h-310v65h310v-65z" />
    <glyph glyph-name="multiply.numr" horiz-adv-x="390" 
d="M82 326l-45 44l115 108l-112 107l44 44l111 -108l111 108l45 -44l-113 -107l115 -108l-45 -44l-113 108z" />
    <glyph glyph-name="divide.numr" horiz-adv-x="390" 
d="M350 447h-310v64h310v-64zM195 402c27 0 47 -19 47 -47c0 -27 -20 -46 -47 -46c-26 0 -47 19 -47 46c0 28 21 47 47 47zM195 650c27 0 47 -19 47 -47c0 -27 -20 -46 -47 -46c-26 0 -47 19 -47 46c0 28 21 47 47 47z" />
    <glyph glyph-name="equal.numr" horiz-adv-x="390" 
d="M348 388h-306v62h306v-62zM348 507h-306v62h306v-62z" />
    <glyph glyph-name="period.numr" horiz-adv-x="182" 
d="M91 366c27 0 49 -20 49 -48c0 -29 -22 -48 -49 -48c-28 0 -49 19 -49 48c0 28 21 48 49 48z" />
    <glyph glyph-name="comma.numr" horiz-adv-x="182" 
d="M86 366c31 0 54 -24 54 -68c0 -54 -24 -92 -53 -112l-43 27c23 13 50 33 54 68c-3 -1 -7 -1 -10 -1c-25 0 -46 17 -46 43c0 25 19 43 44 43z" />
    <glyph glyph-name="hyphen.numr" horiz-adv-x="224" 
d="M196 433h-168v62h168v-62z" />
    <glyph glyph-name="parenleft.numr" horiz-adv-x="224" 
d="M53 469c0 128 52 228 106 282l55 -29c-50 -57 -90 -141 -90 -253s40 -200 90 -257l-55 -29c-54 54 -106 158 -106 286z" />
    <glyph glyph-name="parenright.numr" horiz-adv-x="224" 
d="M171 469c0 -128 -52 -232 -106 -286l-55 29c50 57 89 145 89 257s-39 196 -89 253l55 29c54 -54 106 -154 106 -282z" />
    <glyph glyph-name="uni2090" unicode="&#x2090;" horiz-adv-x="345" 
d="M171 153c-45 0 -70 -29 -78 -69l-64 36c20 53 72 90 143 90c69 0 125 -35 125 -113v-131c0 -34 2 -53 8 -74h-56c-10 15 -13 25 -16 40h-1c-14 -20 -46 -47 -96 -47c-58 0 -102 33 -102 91c0 68 65 85 119 96c46 9 75 15 75 39c0 25 -25 42 -57 42zM230 11v40
c-9 -13 -31 -20 -60 -27c-33 -7 -66 -15 -66 -44c0 -23 17 -39 51 -39c39 0 75 26 75 70z" />
    <glyph glyph-name="b.subs" horiz-adv-x="371" 
d="M115 -60v-48h-70v447h72v-112c0 -38 -4 -77 -4 -77h1c15 29 46 60 99 60c12 0 23 -2 34 -5c54 -17 96 -76 96 -158s-42 -140 -96 -157c-11 -3 -22 -5 -34 -5c-53 0 -83 31 -96 55h-2zM114 47c0 -58 27 -103 79 -103c51 0 78 45 78 103c0 59 -27 104 -78 104
c-52 0 -79 -45 -79 -104z" />
    <glyph glyph-name="c.subs" horiz-adv-x="332" 
d="M176 153c-52 0 -76 -47 -76 -106c0 -58 24 -105 76 -105c46 0 67 39 67 81l67 -36c-11 -49 -56 -102 -134 -102c-89 0 -148 64 -148 162c0 99 59 163 148 163c78 0 123 -53 134 -102l-67 -36c0 42 -21 81 -67 81z" />
    <glyph glyph-name="d.subs" horiz-adv-x="371" 
d="M258 -55h-1c-15 -29 -46 -60 -99 -60c-70 0 -130 64 -130 162c0 99 60 163 130 163c53 0 82 -31 94 -51h2v180h71v-447h-71zM178 -56c52 0 79 45 79 103c0 59 -27 104 -79 104c-51 0 -78 -45 -78 -104c0 -58 27 -103 78 -103z" />
    <glyph glyph-name="uni2091" unicode="&#x2091;" horiz-adv-x="343" 
d="M312 28h-216c4 -54 36 -87 83 -87c40 0 66 26 72 59l63 -37c-20 -41 -68 -78 -135 -78c-91 0 -151 63 -151 162s63 163 150 163c84 0 139 -59 139 -142c0 -23 -5 -40 -5 -40zM178 155c-43 0 -72 -29 -80 -75h151c0 42 -27 75 -71 75z" />
    <glyph glyph-name="f.subs" horiz-adv-x="233" 
d="M178 289c-25 0 -38 -19 -38 -51v-35h75v-58h-75v-253h-70v253h-53v58h53v36c0 70 44 107 106 107c54 0 86 -30 103 -58l-65 -40c-1 20 -11 41 -36 41z" />
    <glyph glyph-name="g.subs" horiz-adv-x="348" 
d="M41 107c0 63 57 103 126 103c30 0 47 -7 72 -7c28 0 36 14 36 34c0 11 -1 20 -2 28l70 -40c-1 -39 -19 -56 -53 -56c-9 0 -21 2 -28 4v-2c15 -13 36 -35 36 -70c0 -62 -59 -102 -129 -102c-37 0 -72 -12 -72 -31c0 -14 12 -20 42 -20c29 0 58 5 93 5
c64 0 111 -27 111 -86c0 -74 -82 -102 -172 -102c-83 0 -163 24 -163 81c0 33 35 55 68 61v1c-23 8 -44 22 -44 49c0 34 34 53 71 61v1c-35 15 -62 43 -62 88zM71 -147c0 -26 45 -38 100 -38c58 0 104 14 104 45c0 24 -33 32 -73 32c-46 0 -131 -4 -131 -39zM107 104
c0 -33 28 -54 63 -54c34 0 62 21 62 54c0 34 -28 55 -62 55c-35 0 -63 -21 -63 -55z" />
    <glyph glyph-name="uni2095" unicode="&#x2095;" horiz-adv-x="360" 
d="M317 90v-198h-71v183c0 50 -21 72 -60 72c-44 0 -69 -33 -69 -76v-179h-72v447h72v-112c0 -38 -4 -77 -4 -77h1c15 28 44 60 98 60c64 0 105 -42 105 -120z" />
    <glyph glyph-name="i.subs" horiz-adv-x="163" 
d="M81 333c26 0 45 -18 45 -44c0 -25 -19 -43 -45 -43c-25 0 -44 18 -44 43c0 26 19 44 44 44zM45 -108v311h72v-311h-72z" />
    <glyph glyph-name="j.subs" horiz-adv-x="168" 
d="M86 333c26 0 45 -18 45 -44c0 -25 -19 -43 -45 -43c-25 0 -44 18 -44 43c0 26 19 44 44 44zM34 -236l-64 48c63 13 80 36 80 102v289h72v-301c0 -74 -25 -122 -88 -138z" />
    <glyph glyph-name="uni2096" unicode="&#x2096;" horiz-adv-x="338" 
d="M324 203l-110 -123l123 -188h-79l-91 136l-50 -60v-76h-72v447h72v-215c0 -38 -4 -77 -4 -77h1s23 34 43 59l82 97h85z" />
    <glyph glyph-name="uni2097" unicode="&#x2097;" horiz-adv-x="163" 
d="M45 -108v447h72v-447h-72z" />
    <glyph glyph-name="uni2098" unicode="&#x2098;" horiz-adv-x="534" 
d="M45 -108v311h71l-4 -53h2c14 28 41 60 91 60c43 0 72 -20 85 -59h2c16 29 45 59 98 59c62 0 101 -41 101 -114v-204h-71v190c0 44 -19 65 -54 65c-39 0 -62 -29 -62 -74v-181h-71v196c0 40 -22 59 -55 59c-38 0 -62 -29 -62 -74v-181h-71z" />
    <glyph glyph-name="uni2099" unicode="&#x2099;" horiz-adv-x="360" 
d="M317 90v-198h-71v183c0 50 -21 72 -60 72c-44 0 -69 -33 -69 -76v-179h-72v311h72l-4 -53h1c15 28 44 60 98 60c64 0 105 -42 105 -120z" />
    <glyph glyph-name="uni2092" unicode="&#x2092;" horiz-adv-x="357" 
d="M178 -115c-88 0 -150 64 -150 162c0 99 62 163 150 163c89 0 151 -64 151 -163c0 -98 -62 -162 -151 -162zM100 47c0 -58 26 -105 78 -105c53 0 79 47 79 105c0 59 -26 106 -79 106c-52 0 -78 -47 -78 -106z" />
    <glyph glyph-name="uni209A" unicode="&#x209a;" horiz-adv-x="371" 
d="M113 150c17 28 46 60 100 60c70 0 130 -64 130 -163c0 -98 -60 -162 -130 -162c-54 0 -82 32 -96 52v-166h-72v432h72zM114 47c0 -58 27 -103 79 -103c51 0 78 45 78 103c0 59 -27 104 -78 104c-52 0 -79 -45 -79 -104z" />
    <glyph glyph-name="q.subs" horiz-adv-x="371" 
d="M255 155v48h71v-432h-72v97c0 38 4 77 4 77h-1c-15 -29 -46 -60 -99 -60c-70 0 -130 64 -130 162c0 99 60 163 130 163c53 0 82 -31 96 -55h1zM257 47c0 59 -27 104 -79 104c-51 0 -78 -45 -78 -104c0 -58 27 -103 78 -103c52 0 79 45 79 103z" />
    <glyph glyph-name="r.subs" horiz-adv-x="280" 
d="M45 -108v311h72l-4 -53h1c15 32 40 59 80 59c45 0 72 -37 72 -82c0 -19 -3 -34 -3 -34l-66 -40c0 6 5 29 5 50c0 23 -10 43 -35 43c-34 0 -50 -31 -50 -73v-181h-72z" />
    <glyph glyph-name="uni209B" unicode="&#x209b;" horiz-adv-x="328" 
d="M178 -61c29 0 53 13 53 38c0 29 -41 36 -84 47c-48 13 -110 34 -110 94c0 57 56 92 118 92c64 0 120 -32 143 -74l-63 -37c-7 30 -35 57 -77 57c-27 0 -51 -12 -51 -35c0 -28 47 -31 94 -45c52 -16 100 -38 100 -95c0 -61 -57 -96 -120 -96c-79 0 -132 31 -157 85l64 38
c9 -37 38 -69 90 -69z" />
    <glyph glyph-name="uni209C" unicode="&#x209c;" horiz-adv-x="233" 
d="M192 -32l32 -54c-11 -12 -38 -29 -73 -29c-49 0 -84 23 -84 88v172h-55v58h55v66l71 42v-108h77v-58h-77v-165c0 -26 8 -35 25 -35c15 0 25 14 29 23z" />
    <glyph glyph-name="u.subs" horiz-adv-x="356" 
d="M43 5v198h72v-183c0 -50 18 -73 58 -73c43 0 66 34 66 77v179h72v-311h-72l4 53h-1c-15 -29 -41 -60 -96 -60c-64 0 -103 42 -103 120z" />
    <glyph glyph-name="v.subs" horiz-adv-x="318" 
d="M119 -108l-110 311h75l48 -145c13 -40 27 -93 27 -93h2s15 53 28 93l47 145h73l-110 -311h-80z" />
    <glyph glyph-name="w.subs" horiz-adv-x="472" 
d="M236 133c0 0 -14 -58 -25 -99l-36 -142h-86l-72 311h74l23 -119c9 -45 22 -119 22 -119h2c0 3 26 115 36 149l24 89h80l31 -119c12 -44 29 -119 29 -119c1 0 22 114 29 149l18 89h70l-71 -311h-85l-36 142c-11 41 -25 99 -25 99h-2z" />
    <glyph glyph-name="uni2093" unicode="&#x2093;" horiz-adv-x="315" 
d="M298 203l-93 -151l101 -160h-78l-44 73c-17 29 -26 48 -26 48h-2s-9 -20 -26 -48l-45 -73h-76l100 160l-92 151h77l31 -55c17 -30 32 -59 32 -59h2s16 28 32 58l32 56h75z" />
    <glyph glyph-name="y.subs" horiz-adv-x="313" 
d="M160 -22c0 -2 26 85 37 120l34 105h74l-112 -323c-16 -48 -42 -96 -98 -116l-58 48c51 14 67 35 89 80l-117 311h75l48 -138c12 -36 28 -87 28 -87z" />
    <glyph glyph-name="z.subs" horiz-adv-x="307" 
d="M31 145v58h245v-42l-158 -211h164v-58h-254v42l158 211h-155z" />
    <glyph glyph-name="uni2080" unicode="&#x2080;" horiz-adv-x="395" 
d="M109 107c0 -79 21 -156 89 -156s89 77 89 156s-21 153 -89 153s-89 -74 -89 -153zM33 107c0 141 65 219 165 219s165 -78 165 -219c0 -142 -65 -222 -165 -222s-165 80 -165 222z" />
    <glyph glyph-name="uni2081" unicode="&#x2081;" horiz-adv-x="246" 
d="M122 225h-2c-15 -19 -50 -40 -78 -47l-32 63c54 14 104 45 129 78h54v-427h-73v268c0 32 2 65 2 65z" />
    <glyph glyph-name="uni2082" unicode="&#x2082;" horiz-adv-x="352" 
d="M120 110l-75 37s-9 21 -9 47c0 82 63 132 146 132c79 0 140 -50 140 -128c0 -130 -164 -192 -189 -237v-2h191v-67h-276s-2 9 -2 21c0 116 203 168 203 280c0 41 -26 69 -69 69c-46 0 -73 -31 -73 -80c0 -31 7 -56 13 -72z" />
    <glyph glyph-name="uni2083" unicode="&#x2083;" horiz-adv-x="351" 
d="M175 -115c-82 0 -138 47 -152 104l69 40c6 -43 31 -80 82 -80c48 0 77 33 77 80c0 46 -30 78 -78 78c-32 0 -55 -13 -72 -26l-26 62l133 110h-169v66h272v-54l-87 -71c-22 -18 -56 -39 -56 -39l1 -2s13 3 24 3c74 0 131 -51 131 -129c0 -85 -64 -142 -149 -142z" />
    <glyph glyph-name="uni2084" unicode="&#x2084;" horiz-adv-x="367" 
d="M220 5h-181l-17 46c52 81 85 166 89 275l69 -35c-7 -97 -47 -169 -83 -221h123v249h71v-249h57v-65h-57v-113h-71v113z" />
    <glyph glyph-name="uni2085" unicode="&#x2085;" horiz-adv-x="356" 
d="M179 -115c-83 0 -137 47 -150 104l69 40c5 -43 29 -80 80 -80s78 42 78 91s-29 87 -77 87c-39 0 -63 -25 -73 -53l-65 31l28 214h231v-66h-172l-7 -53c-4 -28 -11 -52 -11 -52l1 -1c17 20 46 38 86 38c72 0 131 -55 131 -145c0 -94 -62 -155 -149 -155z" />
    <glyph glyph-name="uni2086" unicode="&#x2086;" horiz-adv-x="369" 
d="M203 326c64 0 113 -37 132 -84l-67 -40c-4 34 -25 61 -65 61c-59 0 -94 -59 -102 -137h2c20 31 58 53 102 53c72 0 137 -55 137 -142c0 -88 -63 -152 -151 -152c-101 0 -158 71 -158 206s57 235 170 235zM271 34c0 49 -30 87 -80 87c-51 0 -82 -38 -82 -87s32 -88 82 -88
c51 0 80 39 80 88z" />
    <glyph glyph-name="uni2087" unicode="&#x2087;" horiz-adv-x="334" 
d="M324 319v-48c-66 -117 -110 -244 -127 -379h-82c18 133 73 263 129 360h-153v-98l-69 36v129h302z" />
    <glyph glyph-name="uni2088" unicode="&#x2088;" horiz-adv-x="374" 
d="M187 -115c-88 0 -158 48 -158 127c0 67 52 97 88 109v1c-34 13 -72 40 -72 92c0 67 60 112 142 112s142 -45 142 -112c0 -52 -38 -79 -72 -92v-1c36 -12 88 -42 88 -109c0 -79 -70 -127 -158 -127zM101 17c0 -45 40 -71 86 -71s86 26 86 71s-40 70 -86 70
s-86 -25 -86 -70zM113 206c0 -35 33 -58 74 -58s74 23 74 58c0 36 -33 59 -74 59s-74 -23 -74 -59z" />
    <glyph glyph-name="uni2089" unicode="&#x2089;" horiz-adv-x="368" 
d="M180 -115c-71 0 -118 34 -140 88l67 41c5 -34 27 -66 74 -66c63 0 82 55 85 139c-1 0 -1 1 -2 1c-19 -31 -57 -49 -101 -49c-72 0 -136 52 -136 140c0 87 63 147 151 147c101 0 157 -66 157 -200c0 -141 -37 -241 -155 -241zM98 180c0 -49 30 -83 80 -83
c51 0 81 34 81 83s-31 85 -81 85c-51 0 -80 -35 -80 -85z" />
    <glyph glyph-name="dollar.subs" horiz-adv-x="394" 
d="M172 -165v60c-76 7 -131 54 -144 123l65 42c2 -49 24 -96 80 -106v127c-63 18 -131 44 -131 120c0 63 57 108 130 115v58h61v-58c61 -8 116 -48 135 -104l-65 -41c-1 42 -25 79 -72 87v-117c70 -19 139 -48 139 -123c0 -65 -58 -116 -137 -123v-60h-61zM301 13
c0 34 -32 48 -70 59v-120c41 5 70 28 70 61zM110 208c0 -33 27 -46 63 -57v107c-39 -5 -63 -25 -63 -50z" />
    <glyph glyph-name="cent.subs" horiz-adv-x="372" 
d="M165 -165v61c-78 12 -128 70 -128 154s50 140 128 152v61h61v-60c65 -10 104 -51 117 -94l-64 -34c0 31 -18 61 -55 71v-192c37 9 55 40 55 71l64 -34c-13 -43 -52 -86 -117 -95v-61h-61zM105 50c0 -47 19 -84 62 -96v191c-43 -11 -62 -48 -62 -95z" />
    <glyph glyph-name="Euro.subs" horiz-adv-x="422" 
d="M249 30h-86c10 -49 35 -83 89 -83c58 0 77 48 80 98l67 -43c-16 -60 -63 -117 -147 -117s-142 49 -161 145h-57v53h50v39h-50v52h56c20 99 83 152 162 152c82 0 131 -53 147 -113l-67 -43c-3 50 -23 94 -80 94c-51 0 -78 -39 -90 -90h135l-18 -52h-123v-39h111z" />
    <glyph glyph-name="yen.subs" horiz-adv-x="397" 
d="M352 1h-118v-109h-71v109h-118v53h118l-23 40h-95v53h65l-96 172h81l62 -117c15 -30 44 -82 42 -83c0 -1 26 49 42 82l63 118h79l-97 -172h66v-53h-96l-22 -40h118v-53z" />
    <glyph glyph-name="sterling.subs" horiz-adv-x="374" 
d="M261 71h-84c1 -8 2 -16 2 -23c0 -40 -15 -71 -38 -90h210v-66h-299v51c44 23 57 57 57 91c0 13 -1 25 -4 37h-74v58h56c-7 21 -13 43 -13 70c0 83 63 127 139 127c67 0 124 -39 147 -106l-68 -40c-5 51 -34 83 -78 83c-40 0 -68 -25 -68 -69c0 -22 6 -44 14 -65h119z" />
    <glyph glyph-name="uni208A" unicode="&#x208a;" horiz-adv-x="390" 
d="M162 -75v137h-131v64h131v135h66v-135h131v-64h-131v-137h-66z" />
    <glyph glyph-name="uni208B" unicode="&#x208b;" horiz-adv-x="390" 
d="M350 62h-310v65h310v-65z" />
    <glyph glyph-name="multiply.subs" horiz-adv-x="390" 
d="M82 -59l-45 44l115 108l-112 107l44 44l111 -108l111 108l45 -44l-113 -107l115 -108l-45 -44l-113 108z" />
    <glyph glyph-name="divide.subs" horiz-adv-x="390" 
d="M350 62h-310v64h310v-64zM195 17c27 0 47 -19 47 -47c0 -27 -20 -46 -47 -46c-26 0 -47 19 -47 46c0 28 21 47 47 47zM195 265c27 0 47 -19 47 -47c0 -27 -20 -46 -47 -46c-26 0 -47 19 -47 46c0 28 21 47 47 47z" />
    <glyph glyph-name="uni208C" unicode="&#x208c;" horiz-adv-x="390" 
d="M348 3h-306v62h306v-62zM348 122h-306v62h306v-62z" />
    <glyph glyph-name="period.subs" horiz-adv-x="182" 
d="M91 -19c27 0 49 -20 49 -48c0 -29 -22 -48 -49 -48c-28 0 -49 19 -49 48c0 28 21 48 49 48z" />
    <glyph glyph-name="comma.subs" horiz-adv-x="182" 
d="M86 -19c31 0 54 -24 54 -68c0 -54 -24 -92 -53 -112l-43 27c23 13 50 33 54 68c-3 -1 -7 -1 -10 -1c-25 0 -46 17 -46 43c0 25 19 43 44 43z" />
    <glyph glyph-name="hyphen.subs" horiz-adv-x="224" 
d="M196 48h-168v62h168v-62z" />
    <glyph glyph-name="uni208D" unicode="&#x208d;" horiz-adv-x="224" 
d="M53 84c0 128 52 228 106 282l55 -29c-50 -57 -90 -141 -90 -253s40 -200 90 -257l-55 -29c-54 54 -106 158 -106 286z" />
    <glyph glyph-name="uni208E" unicode="&#x208e;" horiz-adv-x="224" 
d="M171 84c0 -128 -52 -232 -106 -286l-55 29c50 57 89 145 89 257s-39 196 -89 253l55 29c54 -54 106 -154 106 -282z" />
    <glyph glyph-name="a.sups" horiz-adv-x="345" 
d="M171 642c-45 0 -70 -29 -78 -69l-64 36c20 53 72 90 143 90c69 0 125 -35 125 -113v-131c0 -34 2 -53 8 -74h-56c-10 15 -13 25 -16 40h-1c-14 -20 -46 -47 -96 -47c-58 0 -102 33 -102 91c0 68 65 85 119 96c46 9 75 15 75 39c0 25 -25 42 -57 42zM230 500v40
c-9 -13 -31 -20 -60 -27c-33 -7 -66 -15 -66 -44c0 -23 17 -39 51 -39c39 0 75 26 75 70z" />
    <glyph glyph-name="b.sups" horiz-adv-x="371" 
d="M115 429v-48h-70v447h72v-112c0 -38 -4 -77 -4 -77h1c15 29 46 60 99 60c12 0 23 -2 34 -5c54 -17 96 -76 96 -158s-42 -140 -96 -157c-11 -3 -22 -5 -34 -5c-53 0 -83 31 -96 55h-2zM114 536c0 -58 27 -103 79 -103c51 0 78 45 78 103c0 59 -27 104 -78 104
c-52 0 -79 -45 -79 -104z" />
    <glyph glyph-name="c.sups" horiz-adv-x="332" 
d="M176 642c-52 0 -76 -47 -76 -106c0 -58 24 -105 76 -105c46 0 67 39 67 81l67 -36c-11 -49 -56 -102 -134 -102c-89 0 -148 64 -148 162c0 99 59 163 148 163c78 0 123 -53 134 -102l-67 -36c0 42 -21 81 -67 81z" />
    <glyph glyph-name="d.sups" horiz-adv-x="371" 
d="M258 434h-1c-15 -29 -46 -60 -99 -60c-70 0 -130 64 -130 162c0 99 60 163 130 163c53 0 82 -31 94 -51h2v180h71v-447h-71zM178 433c52 0 79 45 79 103c0 59 -27 104 -79 104c-51 0 -78 -45 -78 -104c0 -58 27 -103 78 -103z" />
    <glyph glyph-name="e.sups" horiz-adv-x="343" 
d="M312 517h-216c4 -54 36 -87 83 -87c40 0 66 26 72 59l63 -37c-20 -41 -68 -78 -135 -78c-91 0 -151 63 -151 162s63 163 150 163c84 0 139 -59 139 -142c0 -23 -5 -40 -5 -40zM178 644c-43 0 -72 -29 -80 -75h151c0 42 -27 75 -71 75z" />
    <glyph glyph-name="f.sups" horiz-adv-x="233" 
d="M178 778c-25 0 -38 -19 -38 -51v-35h75v-58h-75v-253h-70v253h-53v58h53v36c0 70 44 107 106 107c54 0 86 -30 103 -58l-65 -40c-1 20 -11 41 -36 41z" />
    <glyph glyph-name="g.sups" horiz-adv-x="348" 
d="M41 596c0 63 57 103 126 103c30 0 47 -7 72 -7c28 0 36 14 36 34c0 11 -1 20 -2 28l70 -40c-1 -39 -19 -56 -53 -56c-9 0 -21 2 -28 4v-2c15 -13 36 -35 36 -70c0 -62 -59 -102 -129 -102c-37 0 -72 -12 -72 -31c0 -14 12 -20 42 -20c29 0 58 5 93 5
c64 0 111 -27 111 -86c0 -74 -82 -102 -172 -102c-83 0 -163 24 -163 81c0 33 35 55 68 61v1c-23 8 -44 22 -44 49c0 34 34 53 71 61v1c-35 15 -62 43 -62 88zM71 342c0 -26 45 -38 100 -38c58 0 104 14 104 45c0 24 -33 32 -73 32c-46 0 -131 -4 -131 -39zM107 593
c0 -33 28 -54 63 -54c34 0 62 21 62 54c0 34 -28 55 -62 55c-35 0 -63 -21 -63 -55z" />
    <glyph glyph-name="h.sups" horiz-adv-x="360" 
d="M317 579v-198h-71v183c0 50 -21 72 -60 72c-44 0 -69 -33 -69 -76v-179h-72v447h72v-112c0 -38 -4 -77 -4 -77h1c15 28 44 60 98 60c64 0 105 -42 105 -120z" />
    <glyph glyph-name="uni2071" unicode="&#x2071;" horiz-adv-x="163" 
d="M81 822c26 0 45 -18 45 -44c0 -25 -19 -43 -45 -43c-25 0 -44 18 -44 43c0 26 19 44 44 44zM45 381v311h72v-311h-72z" />
    <glyph glyph-name="j.sups" horiz-adv-x="168" 
d="M86 822c26 0 45 -18 45 -44c0 -25 -19 -43 -45 -43c-25 0 -44 18 -44 43c0 26 19 44 44 44zM34 253l-64 48c63 13 80 36 80 102v289h72v-301c0 -74 -25 -122 -88 -138z" />
    <glyph glyph-name="k.sups" horiz-adv-x="338" 
d="M324 692l-110 -123l123 -188h-79l-91 136l-50 -60v-76h-72v447h72v-215c0 -38 -4 -77 -4 -77h1s23 34 43 59l82 97h85z" />
    <glyph glyph-name="l.sups" horiz-adv-x="163" 
d="M45 381v447h72v-447h-72z" />
    <glyph glyph-name="m.sups" horiz-adv-x="534" 
d="M45 381v311h71l-4 -53h2c14 28 41 60 91 60c43 0 72 -20 85 -59h2c16 29 45 59 98 59c62 0 101 -41 101 -114v-204h-71v190c0 44 -19 65 -54 65c-39 0 -62 -29 -62 -74v-181h-71v196c0 40 -22 59 -55 59c-38 0 -62 -29 -62 -74v-181h-71z" />
    <glyph glyph-name="uni207F" unicode="&#x207f;" horiz-adv-x="360" 
d="M317 579v-198h-71v183c0 50 -21 72 -60 72c-44 0 -69 -33 -69 -76v-179h-72v311h72l-4 -53h1c15 28 44 60 98 60c64 0 105 -42 105 -120z" />
    <glyph glyph-name="o.sups" horiz-adv-x="357" 
d="M178 374c-88 0 -150 64 -150 162c0 99 62 163 150 163c89 0 151 -64 151 -163c0 -98 -62 -162 -151 -162zM100 536c0 -58 26 -105 78 -105c53 0 79 47 79 105c0 59 -26 106 -79 106c-52 0 -78 -47 -78 -106z" />
    <glyph glyph-name="p.sups" horiz-adv-x="371" 
d="M113 639c17 28 46 60 100 60c70 0 130 -64 130 -163c0 -98 -60 -162 -130 -162c-54 0 -82 32 -96 52v-166h-72v432h72zM114 536c0 -58 27 -103 79 -103c51 0 78 45 78 103c0 59 -27 104 -78 104c-52 0 -79 -45 -79 -104z" />
    <glyph glyph-name="q.sups" horiz-adv-x="371" 
d="M255 644v48h71v-432h-72v97c0 38 4 77 4 77h-1c-15 -29 -46 -60 -99 -60c-70 0 -130 64 -130 162c0 99 60 163 130 163c53 0 82 -31 96 -55h1zM257 536c0 59 -27 104 -79 104c-51 0 -78 -45 -78 -104c0 -58 27 -103 78 -103c52 0 79 45 79 103z" />
    <glyph glyph-name="r.sups" horiz-adv-x="280" 
d="M45 381v311h72l-4 -53h1c15 32 40 59 80 59c45 0 72 -37 72 -82c0 -19 -3 -34 -3 -34l-66 -40c0 6 5 29 5 50c0 23 -10 43 -35 43c-34 0 -50 -31 -50 -73v-181h-72z" />
    <glyph glyph-name="s.sups" horiz-adv-x="328" 
d="M178 428c29 0 53 13 53 38c0 29 -41 36 -84 47c-48 13 -110 34 -110 94c0 57 56 92 118 92c64 0 120 -32 143 -74l-63 -37c-7 30 -35 57 -77 57c-27 0 -51 -12 -51 -35c0 -28 47 -31 94 -45c52 -16 100 -38 100 -95c0 -61 -57 -96 -120 -96c-79 0 -132 31 -157 85l64 38
c9 -37 38 -69 90 -69z" />
    <glyph glyph-name="t.sups" horiz-adv-x="233" 
d="M192 457l32 -54c-11 -12 -38 -29 -73 -29c-49 0 -84 23 -84 88v172h-55v58h55v66l71 42v-108h77v-58h-77v-165c0 -26 8 -35 25 -35c15 0 25 14 29 23z" />
    <glyph glyph-name="u.sups" horiz-adv-x="356" 
d="M43 494v198h72v-183c0 -50 18 -73 58 -73c43 0 66 34 66 77v179h72v-311h-72l4 53h-1c-15 -29 -41 -60 -96 -60c-64 0 -103 42 -103 120z" />
    <glyph glyph-name="v.sups" horiz-adv-x="318" 
d="M119 381l-110 311h75l48 -145c13 -40 27 -93 27 -93h2s15 53 28 93l47 145h73l-110 -311h-80z" />
    <glyph glyph-name="w.sups" horiz-adv-x="472" 
d="M236 622c0 0 -14 -58 -25 -99l-36 -142h-86l-72 311h74l23 -119c9 -45 22 -119 22 -119h2c0 3 26 115 36 149l24 89h80l31 -119c12 -44 29 -119 29 -119c1 0 22 114 29 149l18 89h70l-71 -311h-85l-36 142c-11 41 -25 99 -25 99h-2z" />
    <glyph glyph-name="x.sups" horiz-adv-x="315" 
d="M298 692l-93 -151l101 -160h-78l-44 73c-17 29 -26 48 -26 48h-2s-9 -20 -26 -48l-45 -73h-76l100 160l-92 151h77l31 -55c17 -30 32 -59 32 -59h2s16 28 32 58l32 56h75z" />
    <glyph glyph-name="y.sups" horiz-adv-x="313" 
d="M160 467c0 -2 26 85 37 120l34 105h74l-112 -323c-16 -48 -42 -96 -98 -116l-58 48c51 14 67 35 89 80l-117 311h75l48 -138c12 -36 28 -87 28 -87z" />
    <glyph glyph-name="z.sups" horiz-adv-x="307" 
d="M31 634v58h245v-42l-158 -211h164v-58h-254v42l158 211h-155z" />
    <glyph glyph-name="uni2070" unicode="&#x2070;" horiz-adv-x="395" 
d="M109 596c0 -79 21 -156 89 -156s89 77 89 156s-21 153 -89 153s-89 -74 -89 -153zM33 596c0 141 65 219 165 219s165 -78 165 -219c0 -142 -65 -222 -165 -222s-165 80 -165 222z" />
    <glyph glyph-name="onesuperior" unicode="&#xb9;" horiz-adv-x="246" 
d="M122 714h-2c-15 -19 -50 -40 -78 -47l-32 63c54 14 104 45 129 78h54v-427h-73v268c0 32 2 65 2 65z" />
    <glyph glyph-name="twosuperior" unicode="&#xb2;" horiz-adv-x="352" 
d="M120 599l-75 37s-9 21 -9 47c0 82 63 132 146 132c79 0 140 -50 140 -128c0 -130 -164 -192 -189 -237v-2h191v-67h-276s-2 9 -2 21c0 116 203 168 203 280c0 41 -26 69 -69 69c-46 0 -73 -31 -73 -80c0 -31 7 -56 13 -72z" />
    <glyph glyph-name="threesuperior" unicode="&#xb3;" horiz-adv-x="351" 
d="M175 374c-82 0 -138 47 -152 104l69 40c6 -43 31 -80 82 -80c48 0 77 33 77 80c0 46 -30 78 -78 78c-32 0 -55 -13 -72 -26l-26 62l133 110h-169v66h272v-54l-87 -71c-22 -18 -56 -39 -56 -39l1 -2s13 3 24 3c74 0 131 -51 131 -129c0 -85 -64 -142 -149 -142z" />
    <glyph glyph-name="uni2074" unicode="&#x2074;" horiz-adv-x="367" 
d="M220 494h-181l-17 46c52 81 85 166 89 275l69 -35c-7 -97 -47 -169 -83 -221h123v249h71v-249h57v-65h-57v-113h-71v113z" />
    <glyph glyph-name="uni2075" unicode="&#x2075;" horiz-adv-x="356" 
d="M179 374c-83 0 -137 47 -150 104l69 40c5 -43 29 -80 80 -80s78 42 78 91s-29 87 -77 87c-39 0 -63 -25 -73 -53l-65 31l28 214h231v-66h-172l-7 -53c-4 -28 -11 -52 -11 -52l1 -1c17 20 46 38 86 38c72 0 131 -55 131 -145c0 -94 -62 -155 -149 -155z" />
    <glyph glyph-name="uni2076" unicode="&#x2076;" horiz-adv-x="369" 
d="M203 815c64 0 113 -37 132 -84l-67 -40c-4 34 -25 61 -65 61c-59 0 -94 -59 -102 -137h2c20 31 58 53 102 53c72 0 137 -55 137 -142c0 -88 -63 -152 -151 -152c-101 0 -158 71 -158 206s57 235 170 235zM271 523c0 49 -30 87 -80 87c-51 0 -82 -38 -82 -87
s32 -88 82 -88c51 0 80 39 80 88z" />
    <glyph glyph-name="uni2077" unicode="&#x2077;" horiz-adv-x="334" 
d="M324 808v-48c-66 -117 -110 -244 -127 -379h-82c18 133 73 263 129 360h-153v-98l-69 36v129h302z" />
    <glyph glyph-name="uni2078" unicode="&#x2078;" horiz-adv-x="374" 
d="M187 374c-88 0 -158 48 -158 127c0 67 52 97 88 109v1c-34 13 -72 40 -72 92c0 67 60 112 142 112s142 -45 142 -112c0 -52 -38 -79 -72 -92v-1c36 -12 88 -42 88 -109c0 -79 -70 -127 -158 -127zM101 506c0 -45 40 -71 86 -71s86 26 86 71s-40 70 -86 70
s-86 -25 -86 -70zM113 695c0 -35 33 -58 74 -58s74 23 74 58c0 36 -33 59 -74 59s-74 -23 -74 -59z" />
    <glyph glyph-name="uni2079" unicode="&#x2079;" horiz-adv-x="368" 
d="M180 374c-71 0 -118 34 -140 88l67 41c5 -34 27 -66 74 -66c63 0 82 55 85 139c-1 0 -1 1 -2 1c-19 -31 -57 -49 -101 -49c-72 0 -136 52 -136 140c0 87 63 147 151 147c101 0 157 -66 157 -200c0 -141 -37 -241 -155 -241zM98 669c0 -49 30 -83 80 -83c51 0 81 34 81 83
s-31 85 -81 85c-51 0 -80 -35 -80 -85z" />
    <glyph glyph-name="dollar.sups" horiz-adv-x="394" 
d="M172 324v60c-76 7 -131 54 -144 123l65 42c2 -49 24 -96 80 -106v127c-63 18 -131 44 -131 120c0 63 57 108 130 115v58h61v-58c61 -8 116 -48 135 -104l-65 -41c-1 42 -25 79 -72 87v-117c70 -19 139 -48 139 -123c0 -65 -58 -116 -137 -123v-60h-61zM301 502
c0 34 -32 48 -70 59v-120c41 5 70 28 70 61zM110 697c0 -33 27 -46 63 -57v107c-39 -5 -63 -25 -63 -50z" />
    <glyph glyph-name="cent.sups" horiz-adv-x="372" 
d="M165 324v61c-78 12 -128 70 -128 154s50 140 128 152v61h61v-60c65 -10 104 -51 117 -94l-64 -34c0 31 -18 61 -55 71v-192c37 9 55 40 55 71l64 -34c-13 -43 -52 -86 -117 -95v-61h-61zM105 539c0 -47 19 -84 62 -96v191c-43 -11 -62 -48 -62 -95z" />
    <glyph glyph-name="Euro.sups" horiz-adv-x="422" 
d="M249 519h-86c10 -49 35 -83 89 -83c58 0 77 48 80 98l67 -43c-16 -60 -63 -117 -147 -117s-142 49 -161 145h-57v53h50v39h-50v52h56c20 99 83 152 162 152c82 0 131 -53 147 -113l-67 -43c-3 50 -23 94 -80 94c-51 0 -78 -39 -90 -90h135l-18 -52h-123v-39h111z" />
    <glyph glyph-name="yen.sups" horiz-adv-x="397" 
d="M352 490h-118v-109h-71v109h-118v53h118l-23 40h-95v53h65l-96 172h81l62 -117c15 -30 44 -82 42 -83c0 -1 26 49 42 82l63 118h79l-97 -172h66v-53h-96l-22 -40h118v-53z" />
    <glyph glyph-name="sterling.sups" horiz-adv-x="374" 
d="M261 560h-84c1 -8 2 -16 2 -23c0 -40 -15 -71 -38 -90h210v-66h-299v51c44 23 57 57 57 91c0 13 -1 25 -4 37h-74v58h56c-7 21 -13 43 -13 70c0 83 63 127 139 127c67 0 124 -39 147 -106l-68 -40c-5 51 -34 83 -78 83c-40 0 -68 -25 -68 -69c0 -22 6 -44 14 -65h119z
" />
    <glyph glyph-name="uni207A" unicode="&#x207a;" horiz-adv-x="390" 
d="M162 414v137h-131v64h131v135h66v-135h131v-64h-131v-137h-66z" />
    <glyph glyph-name="uni207B" unicode="&#x207b;" horiz-adv-x="390" 
d="M350 551h-310v65h310v-65z" />
    <glyph glyph-name="multiply.sups" horiz-adv-x="390" 
d="M82 430l-45 44l115 108l-112 107l44 44l111 -108l111 108l45 -44l-113 -107l115 -108l-45 -44l-113 108z" />
    <glyph glyph-name="divide.sups" horiz-adv-x="390" 
d="M350 551h-310v64h310v-64zM195 506c27 0 47 -19 47 -47c0 -27 -20 -46 -47 -46c-26 0 -47 19 -47 46c0 28 21 47 47 47zM195 754c27 0 47 -19 47 -47c0 -27 -20 -46 -47 -46c-26 0 -47 19 -47 46c0 28 21 47 47 47z" />
    <glyph glyph-name="uni207C" unicode="&#x207c;" horiz-adv-x="390" 
d="M348 492h-306v62h306v-62zM348 611h-306v62h306v-62z" />
    <glyph glyph-name="period.sups" horiz-adv-x="182" 
d="M91 470c27 0 49 -20 49 -48c0 -29 -22 -48 -49 -48c-28 0 -49 19 -49 48c0 28 21 48 49 48z" />
    <glyph glyph-name="comma.sups" horiz-adv-x="182" 
d="M86 470c31 0 54 -24 54 -68c0 -54 -24 -92 -53 -112l-43 27c23 13 50 33 54 68c-3 -1 -7 -1 -10 -1c-25 0 -46 17 -46 43c0 25 19 43 44 43z" />
    <glyph glyph-name="hyphen.sups" horiz-adv-x="224" 
d="M196 537h-168v62h168v-62z" />
    <glyph glyph-name="uni207D" unicode="&#x207d;" horiz-adv-x="224" 
d="M53 573c0 128 52 228 106 282l55 -29c-50 -57 -90 -141 -90 -253s40 -200 90 -257l-55 -29c-54 54 -106 158 -106 286z" />
    <glyph glyph-name="uni207E" unicode="&#x207e;" horiz-adv-x="224" 
d="M171 573c0 -128 -52 -232 -106 -286l-55 29c50 57 89 145 89 257s-39 196 -89 253l55 29c54 -54 106 -154 106 -282z" />
    <glyph glyph-name="fraction" unicode="&#x2044;" horiz-adv-x="209" 
d="M-158 26l490 678l55 -38l-490 -678z" />
    <glyph glyph-name="percent" unicode="%" horiz-adv-x="853" 
d="M813 174c0 -109 -67 -186 -167 -186s-167 77 -167 186s67 186 167 186s167 -77 167 -186zM374 518c0 -109 -67 -186 -167 -186s-167 77 -167 186s67 186 167 186s167 -77 167 -186zM154 26l490 678l55 -38l-490 -678zM207 641c-64 0 -93 -55 -93 -123s29 -123 93 -123
s93 55 93 123s-29 123 -93 123zM646 297c-64 0 -93 -55 -93 -123s29 -123 93 -123s93 55 93 123s-29 123 -93 123z" />
    <glyph glyph-name="perthousand" unicode="&#x2030;" horiz-adv-x="1242" 
d="M813 174c0 -109 -67 -186 -167 -186s-167 77 -167 186s67 186 167 186s167 -77 167 -186zM374 518c0 -109 -67 -186 -167 -186s-167 77 -167 186s67 186 167 186s167 -77 167 -186zM1202 174c0 -109 -67 -186 -167 -186s-167 77 -167 186s67 186 167 186
s167 -77 167 -186zM154 26l490 678l55 -38l-490 -678zM1035 297c-64 0 -93 -55 -93 -123s29 -123 93 -123s93 55 93 123s-29 123 -93 123zM646 297c-64 0 -93 -55 -93 -123s29 -123 93 -123s93 55 93 123s-29 123 -93 123zM207 641c-64 0 -93 -55 -93 -123s29 -123 93 -123
s93 55 93 123s-29 123 -93 123z" />
    <glyph glyph-name="onehalf" unicode="&#xbd;" horiz-adv-x="835" 
d="M106 26l490 678l55 -38l-490 -678zM140 610h-2c-15 -19 -50 -40 -78 -47l-32 63c54 14 104 45 129 78h54v-427h-73v268c0 32 2 65 2 65zM591 218l-75 37s-9 21 -9 47c0 82 63 132 146 132c79 0 140 -50 140 -128c0 -130 -164 -192 -189 -237v-2h191v-67h-276s-2 9 -2 21
c0 116 203 168 203 280c0 41 -26 69 -69 69c-46 0 -73 -31 -73 -80c0 -31 7 -56 13 -72z" />
    <glyph glyph-name="onethird" unicode="&#x2153;" horiz-adv-x="867" 
d="M106 26l490 678l55 -38l-490 -678zM140 610h-2c-15 -19 -50 -40 -78 -47l-32 63c54 14 104 45 129 78h54v-427h-73v268c0 32 2 65 2 65zM678 -7c-82 0 -138 47 -152 104l69 40c6 -43 31 -80 82 -80c48 0 77 33 77 80c0 46 -30 78 -78 78c-32 0 -55 -13 -72 -26l-26 62
l133 110h-169v66h272v-54l-87 -71c-22 -18 -56 -39 -56 -39l1 -2s13 3 24 3c74 0 131 -51 131 -129c0 -85 -64 -142 -149 -142z" />
    <glyph glyph-name="twothirds" unicode="&#x2154;" horiz-adv-x="971" 
d="M210 26l490 678l55 -38l-490 -678zM130 495l-75 37s-9 21 -9 47c0 82 63 132 146 132c79 0 140 -50 140 -128c0 -130 -164 -192 -189 -237v-2h191v-67h-276s-2 9 -2 21c0 116 203 168 203 280c0 41 -26 69 -69 69c-46 0 -73 -31 -73 -80c0 -31 7 -56 13 -72zM782 -7
c-82 0 -138 47 -152 104l69 40c6 -43 31 -80 82 -80c48 0 77 33 77 80c0 46 -30 78 -78 78c-32 0 -55 -13 -72 -26l-26 62l133 110h-169v66h272v-54l-87 -71c-22 -18 -56 -39 -56 -39l1 -2s13 3 24 3c74 0 131 -51 131 -129c0 -85 -64 -142 -149 -142z" />
    <glyph glyph-name="onequarter" unicode="&#xbc;" horiz-adv-x="836" 
d="M106 26l490 678l55 -38l-490 -678zM140 610h-2c-15 -19 -50 -40 -78 -47l-32 63c54 14 104 45 129 78h54v-427h-73v268c0 32 2 65 2 65zM679 113h-181l-17 46c52 81 85 166 89 275l69 -35c-7 -97 -47 -169 -83 -221h123v249h71v-249h57v-65h-57v-113h-71v113z" />
    <glyph glyph-name="threequarters" unicode="&#xbe;" horiz-adv-x="927" 
d="M197 26l490 678l55 -38l-490 -678zM770 113h-181l-17 46c52 81 85 166 89 275l69 -35c-7 -97 -47 -169 -83 -221h123v249h71v-249h57v-65h-57v-113h-71v113zM191 270c-82 0 -138 47 -152 104l69 40c6 -43 31 -80 82 -80c48 0 77 33 77 80c0 46 -30 78 -78 78
c-32 0 -55 -13 -72 -26l-26 62l133 110h-169v66h272v-54l-87 -71c-22 -18 -56 -39 -56 -39l1 -2s13 3 24 3c74 0 131 -51 131 -129c0 -85 -64 -142 -149 -142z" />
    <glyph glyph-name="uni2155" unicode="&#x2155;" horiz-adv-x="851" 
d="M106 26l490 678l55 -38l-490 -678zM140 610h-2c-15 -19 -50 -40 -78 -47l-32 63c54 14 104 45 129 78h54v-427h-73v268c0 32 2 65 2 65zM662 -7c-83 0 -137 47 -150 104l69 40c5 -43 29 -80 80 -80s78 42 78 91s-29 87 -77 87c-39 0 -63 -25 -73 -53l-65 31l28 214h231
v-66h-172l-7 -53c-4 -28 -11 -52 -11 -52l1 -1c17 20 46 38 86 38c72 0 131 -55 131 -145c0 -94 -62 -155 -149 -155z" />
    <glyph glyph-name="uni2156" unicode="&#x2156;" horiz-adv-x="955" 
d="M210 26l490 678l55 -38l-490 -678zM130 495l-75 37s-9 21 -9 47c0 82 63 132 146 132c79 0 140 -50 140 -128c0 -130 -164 -192 -189 -237v-2h191v-67h-276s-2 9 -2 21c0 116 203 168 203 280c0 41 -26 69 -69 69c-46 0 -73 -31 -73 -80c0 -31 7 -56 13 -72zM766 -7
c-83 0 -137 47 -150 104l69 40c5 -43 29 -80 80 -80s78 42 78 91s-29 87 -77 87c-39 0 -63 -25 -73 -53l-65 31l28 214h231v-66h-172l-7 -53c-4 -28 -11 -52 -11 -52l1 -1c17 20 46 38 86 38c72 0 131 -55 131 -145c0 -94 -62 -155 -149 -155z" />
    <glyph glyph-name="uni2157" unicode="&#x2157;" horiz-adv-x="942" 
d="M197 26l490 678l55 -38l-490 -678zM753 -7c-83 0 -137 47 -150 104l69 40c5 -43 29 -80 80 -80s78 42 78 91s-29 87 -77 87c-39 0 -63 -25 -73 -53l-65 31l28 214h231v-66h-172l-7 -53c-4 -28 -11 -52 -11 -52l1 -1c17 20 46 38 86 38c72 0 131 -55 131 -145
c0 -94 -62 -155 -149 -155zM191 270c-82 0 -138 47 -152 104l69 40c6 -43 31 -80 82 -80c48 0 77 33 77 80c0 46 -30 78 -78 78c-32 0 -55 -13 -72 -26l-26 62l133 110h-169v66h272v-54l-87 -71c-22 -18 -56 -39 -56 -39l1 -2s13 3 24 3c74 0 131 -51 131 -129
c0 -85 -64 -142 -149 -142z" />
    <glyph glyph-name="uni2158" unicode="&#x2158;" horiz-adv-x="958" 
d="M213 26l490 678l55 -38l-490 -678zM769 -7c-83 0 -137 47 -150 104l69 40c5 -43 29 -80 80 -80s78 42 78 91s-29 87 -77 87c-39 0 -63 -25 -73 -53l-65 31l28 214h231v-66h-172l-7 -53c-4 -28 -11 -52 -11 -52l1 -1c17 20 46 38 86 38c72 0 131 -55 131 -145
c0 -94 -62 -155 -149 -155zM234 390h-181l-17 46c52 81 85 166 89 275l69 -35c-7 -97 -47 -169 -83 -221h123v249h71v-249h57v-65h-57v-113h-71v113z" />
    <glyph glyph-name="uni2159" unicode="&#x2159;" horiz-adv-x="848" 
d="M106 26l490 678l55 -38l-490 -678zM140 610h-2c-15 -19 -50 -40 -78 -47l-32 63c54 14 104 45 129 78h54v-427h-73v268c0 32 2 65 2 65zM658 434c64 0 113 -37 132 -84l-67 -40c-4 34 -25 61 -65 61c-59 0 -94 -59 -102 -137h2c20 31 58 53 102 53c72 0 137 -55 137 -142
c0 -88 -63 -152 -151 -152c-101 0 -158 71 -158 206s57 235 170 235zM726 142c0 49 -30 87 -80 87c-51 0 -82 -38 -82 -87s32 -88 82 -88c51 0 80 39 80 88z" />
    <glyph glyph-name="uni215A" unicode="&#x215a;" horiz-adv-x="938" 
d="M196 26l490 678l55 -38l-490 -678zM748 434c64 0 113 -37 132 -84l-67 -40c-4 34 -25 61 -65 61c-59 0 -94 -59 -102 -137h2c20 31 58 53 102 53c72 0 137 -55 137 -142c0 -88 -63 -152 -151 -152c-101 0 -158 71 -158 206s57 235 170 235zM816 142c0 49 -30 87 -80 87
c-51 0 -82 -38 -82 -87s32 -88 82 -88c51 0 80 39 80 88zM189 270c-83 0 -137 47 -150 104l69 40c5 -43 29 -80 80 -80s78 42 78 91s-29 87 -77 87c-39 0 -63 -25 -73 -53l-65 31l28 214h231v-66h-172l-7 -53c-4 -28 -11 -52 -11 -52l1 -1c17 20 46 38 86 38
c72 0 131 -55 131 -145c0 -94 -62 -155 -149 -155z" />
    <glyph glyph-name="oneeighth" unicode="&#x215b;" horiz-adv-x="865" 
d="M106 26l490 678l55 -38l-490 -678zM140 610h-2c-15 -19 -50 -40 -78 -47l-32 63c54 14 104 45 129 78h54v-427h-73v268c0 32 2 65 2 65zM666 -7c-88 0 -158 48 -158 127c0 67 52 97 88 109v1c-34 13 -72 40 -72 92c0 67 60 112 142 112s142 -45 142 -112
c0 -52 -38 -79 -72 -92v-1c36 -12 88 -42 88 -109c0 -79 -70 -127 -158 -127zM580 125c0 -45 40 -71 86 -71s86 26 86 71s-40 70 -86 70s-86 -25 -86 -70zM592 314c0 -35 33 -58 74 -58s74 23 74 58c0 36 -33 59 -74 59s-74 -23 -74 -59z" />
    <glyph glyph-name="threeeighths" unicode="&#x215c;" horiz-adv-x="956" 
d="M197 26l490 678l55 -38l-490 -678zM757 -7c-88 0 -158 48 -158 127c0 67 52 97 88 109v1c-34 13 -72 40 -72 92c0 67 60 112 142 112s142 -45 142 -112c0 -52 -38 -79 -72 -92v-1c36 -12 88 -42 88 -109c0 -79 -70 -127 -158 -127zM671 125c0 -45 40 -71 86 -71
s86 26 86 71s-40 70 -86 70s-86 -25 -86 -70zM683 314c0 -35 33 -58 74 -58s74 23 74 58c0 36 -33 59 -74 59s-74 -23 -74 -59zM191 270c-82 0 -138 47 -152 104l69 40c6 -43 31 -80 82 -80c48 0 77 33 77 80c0 46 -30 78 -78 78c-32 0 -55 -13 -72 -26l-26 62l133 110h-169
v66h272v-54l-87 -71c-22 -18 -56 -39 -56 -39l1 -2s13 3 24 3c74 0 131 -51 131 -129c0 -85 -64 -142 -149 -142z" />
    <glyph glyph-name="fiveeighths" unicode="&#x215d;" horiz-adv-x="955" 
d="M196 26l490 678l55 -38l-490 -678zM189 270c-83 0 -137 47 -150 104l69 40c5 -43 29 -80 80 -80s78 42 78 91s-29 87 -77 87c-39 0 -63 -25 -73 -53l-65 31l28 214h231v-66h-172l-7 -53c-4 -28 -11 -52 -11 -52l1 -1c17 20 46 38 86 38c72 0 131 -55 131 -145
c0 -94 -62 -155 -149 -155zM756 -7c-88 0 -158 48 -158 127c0 67 52 97 88 109v1c-34 13 -72 40 -72 92c0 67 60 112 142 112s142 -45 142 -112c0 -52 -38 -79 -72 -92v-1c36 -12 88 -42 88 -109c0 -79 -70 -127 -158 -127zM670 125c0 -45 40 -71 86 -71s86 26 86 71
s-40 70 -86 70s-86 -25 -86 -70zM682 314c0 -35 33 -58 74 -58s74 23 74 58c0 36 -33 59 -74 59s-74 -23 -74 -59z" />
    <glyph glyph-name="seveneighths" unicode="&#x215e;" horiz-adv-x="892" 
d="M133 26l490 678l55 -38l-490 -678zM693 -7c-88 0 -158 48 -158 127c0 67 52 97 88 109v1c-34 13 -72 40 -72 92c0 67 60 112 142 112s142 -45 142 -112c0 -52 -38 -79 -72 -92v-1c36 -12 88 -42 88 -109c0 -79 -70 -127 -158 -127zM607 125c0 -45 40 -71 86 -71
s86 26 86 71s-40 70 -86 70s-86 -25 -86 -70zM619 314c0 -35 33 -58 74 -58s74 23 74 58c0 36 -33 59 -74 59s-74 -23 -74 -59zM334 704v-48c-66 -117 -110 -244 -127 -379h-82c18 133 73 263 129 360h-153v-98l-69 36v129h302z" />
    <glyph glyph-name="uni03A9" unicode="&#x3a9;" horiz-adv-x="728" 
d="M314 67v-67h-255v75h71c31 0 77 -4 77 -4v1c-84 56 -155 162 -155 296c0 219 140 336 312 336s312 -117 312 -336c0 -134 -71 -240 -156 -296l1 -1s46 4 77 4h71v-75h-255v67c90 48 172 161 172 301c0 150 -77 256 -222 256s-222 -106 -222 -256c0 -140 82 -253 172 -301
z" />
    <glyph glyph-name="uni0394" unicode="&#x394;" horiz-adv-x="635" 
d="M24 0v55l242 637h103l242 -637v-55h-587zM282 506l-159 -428h388l-159 428c-13 36 -34 102 -34 102h-2s-21 -66 -34 -102z" />
    <glyph glyph-name="uni03BC" unicode="&#x3bc;" horiz-adv-x="544" 
d="M72 -196v700h84v-300c0 -100 36 -140 108 -140c80 0 124 68 124 148v292h84v-504h-84l6 88h-2c-20 -44 -64 -100 -152 -100c-34 0 -63 11 -86 32h-2s2 -74 2 -144v-72h-82z" />
    <glyph glyph-name="uni00AD" unicode="&#xad;" horiz-adv-x="331" 
d="M295 273h-259v73h259v-73z" />
    <glyph glyph-name="uni2219" unicode="&#x2219;" horiz-adv-x="264" 
d="M80 300v112h104v-112h-104z" />
    <glyph glyph-name="uni02C9" unicode="&#x2c9;" horiz-adv-x="544" 
d="M149 604v76h247v-76h-247z" />
    <glyph glyph-name="uni2215" unicode="&#x2215;" horiz-adv-x="209" 
d="M-158 26l490 678l55 -38l-490 -678z" />
    <glyph glyph-name="AEacute" unicode="&#x1fc;" horiz-adv-x="908" 
d="M460 0v192h-252l-115 -192h-97l423 692h437v-78h-310v-219h294v-78h-294v-239h318v-78h-404zM414 534l-161 -268h207v348h-2s-20 -41 -44 -80zM485 736l-35 40c47 36 109 98 142 151l64 -67c-48 -56 -113 -96 -171 -124z" />
    <glyph glyph-name="Agrave" unicode="&#xc0;" horiz-adv-x="635" 
d="M532 0l-70 196h-290l-70 -196h-90l254 692h103l254 -692h-91zM282 504l-83 -232h236l-83 232c-13 36 -34 104 -34 104h-2s-21 -68 -34 -104zM368 776l-35 -40c-58 28 -123 68 -171 124l64 67c33 -53 95 -115 142 -151z" />
    <glyph glyph-name="Aacute" unicode="&#xc1;" horiz-adv-x="635" 
d="M532 0l-70 196h-290l-70 -196h-90l254 692h103l254 -692h-91zM282 504l-83 -232h236l-83 232c-13 36 -34 104 -34 104h-2s-21 -68 -34 -104zM301 736l-35 40c47 36 109 98 142 151l64 -67c-48 -56 -113 -96 -171 -124z" />
    <glyph glyph-name="Adieresis" unicode="&#xc4;" horiz-adv-x="635" 
d="M532 0l-70 196h-290l-70 -196h-90l254 692h103l254 -692h-91zM282 504l-83 -232h236l-83 232c-13 36 -34 104 -34 104h-2s-21 -68 -34 -104zM228 884c34 0 58 -24 58 -58s-24 -58 -58 -58s-58 24 -58 58s24 58 58 58zM406 884c34 0 58 -24 58 -58s-24 -58 -58 -58
s-58 24 -58 58s24 58 58 58z" />
    <glyph glyph-name="Acircumflex" unicode="&#xc2;" horiz-adv-x="635" 
d="M532 0l-70 196h-290l-70 -196h-90l254 692h103l254 -692h-91zM282 504l-83 -232h236l-83 232c-13 36 -34 104 -34 104h-2s-21 -68 -34 -104zM318 822h-2c-28 -34 -64 -65 -104 -86l-51 58c60 31 88 51 124 96h64c36 -45 64 -65 124 -96l-51 -58c-40 21 -76 52 -104 86z
" />
    <glyph glyph-name="Amacron" unicode="&#x100;" horiz-adv-x="635" 
d="M532 0l-70 196h-290l-70 -196h-90l254 692h103l254 -692h-91zM282 504l-83 -232h236l-83 232c-13 36 -34 104 -34 104h-2s-21 -68 -34 -104zM194 784v76h247v-76h-247z" />
    <glyph glyph-name="Atilde" unicode="&#xc3;" horiz-adv-x="635" 
d="M532 0l-70 196h-290l-70 -196h-90l254 692h103l254 -692h-91zM282 504l-83 -232h236l-83 232c-13 36 -34 104 -34 104h-2s-21 -68 -34 -104zM384 759c-64 0 -92 54 -128 54c-26 0 -31 -27 -33 -53l-62 35c8 44 38 89 90 89c64 0 92 -54 128 -54c26 0 31 27 33 53l62 -35
c-8 -44 -38 -89 -90 -89z" />
    <glyph glyph-name="Aring" unicode="&#xc5;" horiz-adv-x="635" 
d="M532 0l-70 196h-290l-70 -196h-90l254 692h103l254 -692h-91zM282 504l-83 -232h236l-83 232c-13 36 -34 104 -34 104h-2s-21 -68 -34 -104zM317 894c-29 0 -49 -23 -49 -52s20 -52 49 -52s49 23 49 52s-20 52 -49 52zM317 948c58 0 109 -42 109 -106s-51 -106 -109 -106
s-109 42 -109 106s51 106 109 106z" />
    <glyph glyph-name="Abreve" unicode="&#x102;" horiz-adv-x="635" 
d="M532 0l-70 196h-290l-70 -196h-90l254 692h103l254 -692h-91zM282 504l-83 -232h236l-83 232c-13 36 -34 104 -34 104h-2s-21 -68 -34 -104zM317 743c-68 0 -128 39 -136 115l71 26v-3c0 -44 21 -74 65 -74s65 30 65 74v3l71 -26c-8 -76 -68 -115 -136 -115z" />
    <glyph glyph-name="Aogonek" unicode="&#x104;" horiz-adv-x="635" 
d="M611 -99l63 -46c-21 -32 -62 -63 -118 -63c-60 0 -99 37 -99 89c0 43 29 78 57 104l17 16l-69 195h-290l-70 -196h-90l254 692h103l254 -692c-38 -24 -95 -69 -95 -109c0 -20 13 -34 35 -34c26 0 42 23 48 44zM282 504l-83 -232h236l-83 232c-13 36 -34 104 -34 104h-2
s-21 -68 -34 -104z" />
    <glyph glyph-name="Cacute" unicode="&#x106;" horiz-adv-x="668" 
d="M352 -12c-168 0 -304 136 -304 360c0 223 136 356 304 356c160 0 264 -116 276 -228l-84 -52c-8 112 -68 200 -192 200c-141 0 -214 -120 -214 -276s73 -280 214 -280c124 0 184 92 192 204l84 -52c-12 -112 -116 -232 -276 -232zM336 736l-35 40c47 36 109 98 142 151
l64 -67c-48 -56 -113 -96 -171 -124z" />
    <glyph glyph-name="Cdotaccent" unicode="&#x10a;" horiz-adv-x="668" 
d="M352 -12c-168 0 -304 136 -304 360c0 223 136 356 304 356c160 0 264 -116 276 -228l-84 -52c-8 112 -68 200 -192 200c-141 0 -214 -120 -214 -276s73 -280 214 -280c124 0 184 92 192 204l84 -52c-12 -112 -116 -232 -276 -232zM352 884c34 0 58 -24 58 -58
s-24 -58 -58 -58s-58 24 -58 58s24 58 58 58z" />
    <glyph glyph-name="Ccircumflex" unicode="&#x108;" horiz-adv-x="668" 
d="M352 -12c-168 0 -304 136 -304 360c0 223 136 356 304 356c160 0 264 -116 276 -228l-84 -52c-8 112 -68 200 -192 200c-141 0 -214 -120 -214 -276s73 -280 214 -280c124 0 184 92 192 204l84 -52c-12 -112 -116 -232 -276 -232zM353 822h-2c-28 -34 -64 -65 -104 -86
l-51 58c60 31 88 51 124 96h64c36 -45 64 -65 124 -96l-51 -58c-40 21 -76 52 -104 86z" />
    <glyph glyph-name="Ccaron" unicode="&#x10c;" horiz-adv-x="668" 
d="M352 -12c-168 0 -304 136 -304 360c0 223 136 356 304 356c160 0 264 -116 276 -228l-84 -52c-8 112 -68 200 -192 200c-141 0 -214 -120 -214 -276s73 -280 214 -280c124 0 184 92 192 204l84 -52c-12 -112 -116 -232 -276 -232zM351 811h2c28 34 64 66 104 87l51 -57
c-60 -32 -88 -51 -124 -97h-64c-36 46 -64 65 -124 97l51 57c40 -21 76 -53 104 -87z" />
    <glyph glyph-name="Ccedilla" unicode="&#xc7;" horiz-adv-x="668" 
d="M628 220c-12 -106 -105 -218 -249 -230l-8 -28c47 -5 88 -37 88 -85c0 -52 -49 -85 -101 -85s-88 25 -108 57l58 37c10 -26 26 -40 50 -40c20 0 36 13 36 33s-16 34 -36 34c-16 0 -27 -9 -27 -9l-38 35l27 51c-153 16 -272 148 -272 358c0 223 136 356 304 356
c160 0 264 -116 276 -228l-84 -52c-8 112 -68 200 -192 200c-141 0 -214 -120 -214 -276s73 -280 214 -280c124 0 184 92 192 204z" />
    <glyph glyph-name="Dcaron" unicode="&#x10e;" horiz-adv-x="692" 
d="M80 692h232c196 0 332 -120 332 -344s-136 -348 -332 -348h-232v692zM554 348c0 152 -79 264 -217 264h-169v-532h169c138 0 217 116 217 268zM328 811h2c28 34 64 66 104 87l51 -57c-60 -32 -88 -51 -124 -97h-64c-36 46 -64 65 -124 97l51 57c40 -21 76 -53 104 -87z
" />
    <glyph glyph-name="Egrave" unicode="&#xc8;" horiz-adv-x="568" 
d="M80 0v692h436v-80h-348v-216h332v-80h-332v-236h356v-80h-444zM353 776l-35 -40c-58 28 -123 68 -171 124l64 67c33 -53 95 -115 142 -151z" />
    <glyph glyph-name="Eacute" unicode="&#xc9;" horiz-adv-x="568" 
d="M80 0v692h436v-80h-348v-216h332v-80h-332v-236h356v-80h-444zM286 736l-35 40c47 36 109 98 142 151l64 -67c-48 -56 -113 -96 -171 -124z" />
    <glyph glyph-name="Edotaccent" unicode="&#x116;" horiz-adv-x="568" 
d="M80 0v692h436v-80h-348v-216h332v-80h-332v-236h356v-80h-444zM302 884c34 0 58 -24 58 -58s-24 -58 -58 -58s-58 24 -58 58s24 58 58 58z" />
    <glyph glyph-name="Edieresis" unicode="&#xcb;" horiz-adv-x="568" 
d="M80 0v692h436v-80h-348v-216h332v-80h-332v-236h356v-80h-444zM213 884c34 0 58 -24 58 -58s-24 -58 -58 -58s-58 24 -58 58s24 58 58 58zM391 884c34 0 58 -24 58 -58s-24 -58 -58 -58s-58 24 -58 58s24 58 58 58z" />
    <glyph glyph-name="Ecircumflex" unicode="&#xca;" horiz-adv-x="568" 
d="M80 0v692h436v-80h-348v-216h332v-80h-332v-236h356v-80h-444zM303 822h-2c-28 -34 -64 -65 -104 -86l-51 58c60 31 88 51 124 96h64c36 -45 64 -65 124 -96l-51 -58c-40 21 -76 52 -104 86z" />
    <glyph glyph-name="Ecaron" unicode="&#x11a;" horiz-adv-x="568" 
d="M80 0v692h436v-80h-348v-216h332v-80h-332v-236h356v-80h-444zM301 811h2c28 34 64 66 104 87l51 -57c-60 -32 -88 -51 -124 -97h-64c-36 46 -64 65 -124 97l51 57c40 -21 76 -53 104 -87z" />
    <glyph glyph-name="Emacron" unicode="&#x112;" horiz-adv-x="568" 
d="M80 0v692h436v-80h-348v-216h332v-80h-332v-236h356v-80h-444zM179 784v76h247v-76h-247z" />
    <glyph glyph-name="Ebreve" unicode="&#x114;" horiz-adv-x="568" 
d="M80 0v692h436v-80h-348v-216h332v-80h-332v-236h356v-80h-444zM302 743c-68 0 -128 39 -136 115l71 26v-3c0 -44 21 -74 65 -74s65 30 65 74v3l71 -26c-8 -76 -68 -115 -136 -115z" />
    <glyph glyph-name="Eogonek" unicode="&#x118;" horiz-adv-x="568" 
d="M80 0v692h436v-80h-348v-216h332v-80h-332v-236h356v-80l-38 -34c-24 -21 -49 -49 -49 -75c0 -20 13 -34 35 -34c26 0 42 23 48 44l63 -46c-21 -32 -62 -63 -118 -63c-60 0 -99 37 -99 89c0 43 33 76 63 104l16 15h-365z" />
    <glyph glyph-name="Gdotaccent" unicode="&#x120;" horiz-adv-x="704" 
d="M360 624c-145 0 -222 -120 -222 -276s68 -280 216 -280c116 0 190 80 190 208v20h-244v80h332v-376h-90l10 112h-2c-36 -67 -104 -124 -208 -124c-168 0 -294 136 -294 360s140 356 312 356c152 0 252 -94 280 -204l-84 -52c-16 96 -80 176 -196 176zM360 884
c34 0 58 -24 58 -58s-24 -58 -58 -58s-58 24 -58 58s24 58 58 58z" />
    <glyph glyph-name="Gcircumflex" unicode="&#x11c;" horiz-adv-x="704" 
d="M360 624c-145 0 -222 -120 -222 -276s68 -280 216 -280c116 0 190 80 190 208v20h-244v80h332v-376h-90l10 112h-2c-36 -67 -104 -124 -208 -124c-168 0 -294 136 -294 360s140 356 312 356c152 0 252 -94 280 -204l-84 -52c-16 96 -80 176 -196 176zM361 822h-2
c-28 -34 -64 -65 -104 -86l-51 58c60 31 88 51 124 96h64c36 -45 64 -65 124 -96l-51 -58c-40 21 -76 52 -104 86z" />
    <glyph glyph-name="Gbreve" unicode="&#x11e;" horiz-adv-x="704" 
d="M360 624c-145 0 -222 -120 -222 -276s68 -280 216 -280c116 0 190 80 190 208v20h-244v80h332v-376h-90l10 112h-2c-36 -67 -104 -124 -208 -124c-168 0 -294 136 -294 360s140 356 312 356c152 0 252 -94 280 -204l-84 -52c-16 96 -80 176 -196 176zM360 743
c-68 0 -128 39 -136 115l71 26v-3c0 -44 21 -74 65 -74s65 30 65 74v3l71 -26c-8 -76 -68 -115 -136 -115z" />
    <glyph glyph-name="uni0122" unicode="&#x122;" horiz-adv-x="704" 
d="M360 624c-145 0 -222 -120 -222 -276s68 -280 216 -280c116 0 190 80 190 208v20h-244v80h332v-376h-90l10 112h-2c-36 -67 -104 -124 -208 -124c-168 0 -294 136 -294 360s140 356 312 356c152 0 252 -94 280 -204l-84 -52c-16 96 -80 176 -196 176zM297 -211
c27 8 61 26 66 64c-3 -1 -6 -1 -10 -1c-28 0 -49 18 -49 46c0 30 22 46 50 46c32 0 57 -27 57 -75c0 -52 -20 -94 -56 -116z" />
    <glyph glyph-name="Hcircumflex" unicode="&#x124;" horiz-adv-x="688" 
d="M520 0v316h-352v-316h-88v692h88v-296h352v296h88v-692h-88zM345 822h-2c-28 -34 -64 -65 -104 -86l-51 58c60 31 88 51 124 96h64c36 -45 64 -65 124 -96l-51 -58c-40 21 -76 52 -104 86z" />
    <glyph glyph-name="Igrave" unicode="&#xcc;" horiz-adv-x="250" 
d="M80 0v692h90v-692h-90zM176 776l-35 -40c-58 28 -123 68 -171 124l64 67c33 -53 95 -115 142 -151z" />
    <glyph glyph-name="Iacute" unicode="&#xcd;" horiz-adv-x="250" 
d="M80 0v692h90v-692h-90zM109 736l-35 40c47 36 109 98 142 151l64 -67c-48 -56 -113 -96 -171 -124z" />
    <glyph glyph-name="Idotaccent" unicode="&#x130;" horiz-adv-x="250" 
d="M80 0v692h90v-692h-90zM125 884c34 0 58 -24 58 -58s-24 -58 -58 -58s-58 24 -58 58s24 58 58 58z" />
    <glyph glyph-name="Idieresis" unicode="&#xcf;" horiz-adv-x="250" 
d="M80 0v692h90v-692h-90zM36 884c34 0 58 -24 58 -58s-24 -58 -58 -58s-58 24 -58 58s24 58 58 58zM214 884c34 0 58 -24 58 -58s-24 -58 -58 -58s-58 24 -58 58s24 58 58 58z" />
    <glyph glyph-name="Icircumflex" unicode="&#xce;" horiz-adv-x="250" 
d="M80 0v692h90v-692h-90zM126 822h-2c-28 -34 -64 -65 -104 -86l-51 58c60 31 88 51 124 96h64c36 -45 64 -65 124 -96l-51 -58c-40 21 -76 52 -104 86z" />
    <glyph glyph-name="Imacron" unicode="&#x12a;" horiz-adv-x="250" 
d="M80 0v692h90v-692h-90zM2 784v76h247v-76h-247z" />
    <glyph glyph-name="Itilde" unicode="&#x128;" horiz-adv-x="250" 
d="M80 0v692h90v-692h-90zM192 759c-64 0 -92 54 -128 54c-26 0 -31 -27 -33 -53l-62 35c8 44 38 89 90 89c64 0 92 -54 128 -54c26 0 31 27 33 53l62 -35c-8 -44 -38 -89 -90 -89z" />
    <glyph glyph-name="Ibreve" unicode="&#x12c;" horiz-adv-x="250" 
d="M80 0v692h90v-692h-90zM125 743c-68 0 -128 39 -136 115l71 26v-3c0 -44 21 -74 65 -74s65 30 65 74v3l71 -26c-8 -76 -68 -115 -136 -115z" />
    <glyph glyph-name="Iogonek" unicode="&#x12e;" horiz-adv-x="250" 
d="M158 -99l63 -46c-21 -32 -62 -63 -118 -63c-60 0 -99 37 -99 89c0 43 36 80 64 106l12 11v694h90v-692c-38 -24 -95 -69 -95 -109c0 -20 13 -34 35 -34c26 0 42 23 48 44z" />
    <glyph glyph-name="Jcircumflex" unicode="&#x134;" horiz-adv-x="540" 
d="M380 692h88v-432c0 -177 -64 -272 -211 -272c-148 0 -213 103 -213 225c0 23 1 35 3 51l89 52s-6 -52 -6 -79c0 -102 39 -169 127 -169s123 65 123 182v442zM425 822h-2c-28 -34 -64 -65 -104 -86l-51 58c60 31 88 51 124 96h64c36 -45 64 -65 124 -96l-51 -58
c-40 21 -76 52 -104 86z" />
    <glyph glyph-name="uni0136" unicode="&#x136;" horiz-adv-x="618" 
d="M80 0v692h86v-244c0 -68 -2 -128 -2 -128h2s34 51 86 112l220 260h108l-226 -263l268 -429h-101l-225 362l-130 -154v-208h-86zM282 -211c27 8 61 26 66 64c-3 -1 -6 -1 -10 -1c-28 0 -49 18 -49 46c0 30 22 46 50 46c32 0 57 -27 57 -75c0 -52 -20 -94 -56 -116z" />
    <glyph glyph-name="Lacute" unicode="&#x139;" horiz-adv-x="512" 
d="M80 0v692h88v-612h332v-80h-420zM108 736l-35 40c47 36 109 98 142 151l64 -67c-48 -56 -113 -96 -171 -124z" />
    <glyph glyph-name="uni013B" unicode="&#x13b;" horiz-adv-x="512" 
d="M80 0v692h88v-612h332v-80h-420zM231 -211c27 8 61 26 66 64c-3 -1 -6 -1 -10 -1c-28 0 -49 18 -49 46c0 30 22 46 50 46c32 0 57 -27 57 -75c0 -52 -20 -94 -56 -116z" />
    <glyph glyph-name="Nacute" unicode="&#x143;" horiz-adv-x="696" 
d="M616 0h-128l-261 480c-26 48 -62 124 -62 124l-2 -1c0 -1 3 -64 3 -131v-472h-86v692h128l261 -480c26 -48 62 -124 62 -124h2c0 2 -3 65 -3 132v472h86v-692zM332 736l-35 40c47 36 109 98 142 151l64 -67c-48 -56 -113 -96 -171 -124z" />
    <glyph glyph-name="Ncaron" unicode="&#x147;" horiz-adv-x="696" 
d="M616 0h-128l-261 480c-26 48 -62 124 -62 124l-2 -1c0 -1 3 -64 3 -131v-472h-86v692h128l261 -480c26 -48 62 -124 62 -124h2c0 2 -3 65 -3 132v472h86v-692zM347 811h2c28 34 64 66 104 87l51 -57c-60 -32 -88 -51 -124 -97h-64c-36 46 -64 65 -124 97l51 57
c40 -21 76 -53 104 -87z" />
    <glyph glyph-name="Ntilde" unicode="&#xd1;" horiz-adv-x="696" 
d="M616 0h-128l-261 480c-26 48 -62 124 -62 124l-2 -1c0 -1 3 -64 3 -131v-472h-86v692h128l261 -480c26 -48 62 -124 62 -124h2c0 2 -3 65 -3 132v472h86v-692zM415 759c-64 0 -92 54 -128 54c-26 0 -31 -27 -33 -53l-62 35c8 44 38 89 90 89c64 0 92 -54 128 -54
c26 0 31 27 33 53l62 -35c-8 -44 -38 -89 -90 -89z" />
    <glyph glyph-name="uni0145" unicode="&#x145;" horiz-adv-x="696" 
d="M616 0h-128l-261 480c-26 48 -62 124 -62 124l-2 -1c0 -1 3 -64 3 -131v-472h-86v692h128l261 -480c26 -48 62 -124 62 -124h2c0 2 -3 65 -3 132v472h86v-692zM291 -211c27 8 61 26 66 64c-3 -1 -6 -1 -10 -1c-28 0 -49 18 -49 46c0 30 22 46 50 46c32 0 57 -27 57 -75
c0 -52 -20 -94 -56 -116z" />
    <glyph glyph-name="Ograve" unicode="&#xd2;" horiz-adv-x="720" 
d="M360 -12c-172 0 -312 136 -312 360s140 356 312 356s312 -132 312 -356s-140 -360 -312 -360zM582 348c0 156 -77 276 -222 276s-222 -120 -222 -276s77 -280 222 -280s222 124 222 280zM411 776l-35 -40c-58 28 -123 68 -171 124l64 67c33 -53 95 -115 142 -151z" />
    <glyph glyph-name="Oacute" unicode="&#xd3;" horiz-adv-x="720" 
d="M360 -12c-172 0 -312 136 -312 360s140 356 312 356s312 -132 312 -356s-140 -360 -312 -360zM582 348c0 156 -77 276 -222 276s-222 -120 -222 -276s77 -280 222 -280s222 124 222 280zM344 736l-35 40c47 36 109 98 142 151l64 -67c-48 -56 -113 -96 -171 -124z" />
    <glyph glyph-name="Ohungarumlaut" unicode="&#x150;" horiz-adv-x="720" 
d="M360 -12c-172 0 -312 136 -312 360s140 356 312 356s312 -132 312 -356s-140 -360 -312 -360zM582 348c0 156 -77 276 -222 276s-222 -120 -222 -276s77 -280 222 -280s222 124 222 280zM273 736l-35 40c47 36 99 99 132 152l62 -65c-48 -56 -101 -99 -159 -127zM430 736
l-35 40c47 36 107 99 140 152l62 -65c-48 -56 -109 -99 -167 -127z" />
    <glyph glyph-name="Odieresis" unicode="&#xd6;" horiz-adv-x="720" 
d="M360 -12c-172 0 -312 136 -312 360s140 356 312 356s312 -132 312 -356s-140 -360 -312 -360zM582 348c0 156 -77 276 -222 276s-222 -120 -222 -276s77 -280 222 -280s222 124 222 280zM271 884c34 0 58 -24 58 -58s-24 -58 -58 -58s-58 24 -58 58s24 58 58 58zM449 884
c34 0 58 -24 58 -58s-24 -58 -58 -58s-58 24 -58 58s24 58 58 58z" />
    <glyph glyph-name="Ocircumflex" unicode="&#xd4;" horiz-adv-x="720" 
d="M360 -12c-172 0 -312 136 -312 360s140 356 312 356s312 -132 312 -356s-140 -360 -312 -360zM582 348c0 156 -77 276 -222 276s-222 -120 -222 -276s77 -280 222 -280s222 124 222 280zM361 822h-2c-28 -34 -64 -65 -104 -86l-51 58c60 31 88 51 124 96h64
c36 -45 64 -65 124 -96l-51 -58c-40 21 -76 52 -104 86z" />
    <glyph glyph-name="Omacron" unicode="&#x14c;" horiz-adv-x="720" 
d="M360 -12c-172 0 -312 136 -312 360s140 356 312 356s312 -132 312 -356s-140 -360 -312 -360zM582 348c0 156 -77 276 -222 276s-222 -120 -222 -276s77 -280 222 -280s222 124 222 280zM237 784v76h247v-76h-247z" />
    <glyph glyph-name="Obreve" unicode="&#x14e;" horiz-adv-x="720" 
d="M360 -12c-172 0 -312 136 -312 360s140 356 312 356s312 -132 312 -356s-140 -360 -312 -360zM582 348c0 156 -77 276 -222 276s-222 -120 -222 -276s77 -280 222 -280s222 124 222 280zM360 743c-68 0 -128 39 -136 115l71 26v-3c0 -44 21 -74 65 -74s65 30 65 74v3
l71 -26c-8 -76 -68 -115 -136 -115z" />
    <glyph glyph-name="Otilde" unicode="&#xd5;" horiz-adv-x="720" 
d="M360 -12c-172 0 -312 136 -312 360s140 356 312 356s312 -132 312 -356s-140 -360 -312 -360zM582 348c0 156 -77 276 -222 276s-222 -120 -222 -276s77 -280 222 -280s222 124 222 280zM427 759c-64 0 -92 54 -128 54c-26 0 -31 -27 -33 -53l-62 35c8 44 38 89 90 89
c64 0 92 -54 128 -54c26 0 31 27 33 53l62 -35c-8 -44 -38 -89 -90 -89z" />
    <glyph glyph-name="Oslashacute" unicode="&#x1fe;" horiz-adv-x="728" 
d="M364 -12c-66 0 -128 20 -178 57l-60 -81l-64 45l67 91c-48 61 -77 145 -77 248c0 224 140 356 312 356c65 0 126 -19 176 -55l62 84l64 -45l-68 -94c48 -60 78 -143 78 -246c0 -224 -140 -360 -312 -360zM588 348c0 71 -14 132 -41 179l-315 -420c34 -26 78 -41 132 -41
c145 0 224 126 224 282zM493 588c-33 24 -76 38 -129 38c-145 0 -224 -122 -224 -278c0 -71 13 -133 40 -181zM348 736l-35 40c47 36 109 98 142 151l64 -67c-48 -56 -113 -96 -171 -124z" />
    <glyph glyph-name="Racute" unicode="&#x154;" horiz-adv-x="626" 
d="M80 0v692h264c152 0 242 -76 242 -196c0 -96 -61 -166 -160 -191l180 -305h-96l-176 296h-166v-296h-88zM496 496c0 78 -52 116 -140 116h-188v-236h188c88 0 140 41 140 120zM278 736l-35 40c47 36 109 98 142 151l64 -67c-48 -56 -113 -96 -171 -124z" />
    <glyph glyph-name="Rcaron" unicode="&#x158;" horiz-adv-x="626" 
d="M80 0v692h264c152 0 242 -76 242 -196c0 -96 -61 -166 -160 -191l180 -305h-96l-176 296h-166v-296h-88zM496 496c0 78 -52 116 -140 116h-188v-236h188c88 0 140 41 140 120zM293 811h2c28 34 64 66 104 87l51 -57c-60 -32 -88 -51 -124 -97h-64c-36 46 -64 65 -124 97
l51 57c40 -21 76 -53 104 -87z" />
    <glyph glyph-name="uni0156" unicode="&#x156;" horiz-adv-x="626" 
d="M80 0v692h264c152 0 242 -76 242 -196c0 -96 -61 -166 -160 -191l180 -305h-96l-176 296h-166v-296h-88zM496 496c0 78 -52 116 -140 116h-188v-236h188c88 0 140 41 140 120zM275 -211c27 8 61 26 66 64c-3 -1 -6 -1 -10 -1c-28 0 -49 18 -49 46c0 30 22 46 50 46
c32 0 57 -27 57 -75c0 -52 -20 -94 -56 -116z" />
    <glyph glyph-name="Sacute" unicode="&#x15a;" horiz-adv-x="616" 
d="M277 328c-88 28 -209 63 -209 187c0 116 97 189 220 189c112 0 227 -57 272 -191l-84 -52c-14 101 -88 165 -188 165c-72 0 -132 -39 -132 -103c0 -86 111 -99 207 -130c105 -34 213 -75 213 -203c0 -120 -101 -202 -245 -202c-140 0 -259 77 -287 220l84 52
c10 -104 74 -194 203 -194c88 0 157 44 157 120c0 98 -111 110 -211 142zM283 736l-35 40c47 36 109 98 142 151l64 -67c-48 -56 -113 -96 -171 -124z" />
    <glyph glyph-name="Scaron" unicode="&#x160;" horiz-adv-x="616" 
d="M277 328c-88 28 -209 63 -209 187c0 116 97 189 220 189c112 0 227 -57 272 -191l-84 -52c-14 101 -88 165 -188 165c-72 0 -132 -39 -132 -103c0 -86 111 -99 207 -130c105 -34 213 -75 213 -203c0 -120 -101 -202 -245 -202c-140 0 -259 77 -287 220l84 52
c10 -104 74 -194 203 -194c88 0 157 44 157 120c0 98 -111 110 -211 142zM298 811h2c28 34 64 66 104 87l51 -57c-60 -32 -88 -51 -124 -97h-64c-36 46 -64 65 -124 97l51 57c40 -21 76 -53 104 -87z" />
    <glyph glyph-name="Scircumflex" unicode="&#x15c;" horiz-adv-x="616" 
d="M277 328c-88 28 -209 63 -209 187c0 116 97 189 220 189c112 0 227 -57 272 -191l-84 -52c-14 101 -88 165 -188 165c-72 0 -132 -39 -132 -103c0 -86 111 -99 207 -130c105 -34 213 -75 213 -203c0 -120 -101 -202 -245 -202c-140 0 -259 77 -287 220l84 52
c10 -104 74 -194 203 -194c88 0 157 44 157 120c0 98 -111 110 -211 142zM300 822h-2c-28 -34 -64 -65 -104 -86l-51 58c60 31 88 51 124 96h64c36 -45 64 -65 124 -96l-51 -58c-40 21 -76 52 -104 86z" />
    <glyph glyph-name="uni0218" unicode="&#x218;" horiz-adv-x="616" 
d="M277 328c-88 28 -209 63 -209 187c0 116 97 189 220 189c112 0 227 -57 272 -191l-84 -52c-14 101 -88 165 -188 165c-72 0 -132 -39 -132 -103c0 -86 111 -99 207 -130c105 -34 213 -75 213 -203c0 -120 -101 -202 -245 -202c-140 0 -259 77 -287 220l84 52
c10 -104 74 -194 203 -194c88 0 157 44 157 120c0 98 -111 110 -211 142zM264 -211c27 8 61 26 66 64c-3 -1 -6 -1 -10 -1c-28 0 -49 18 -49 46c0 30 22 46 50 46c32 0 57 -27 57 -75c0 -52 -20 -94 -56 -116z" />
    <glyph glyph-name="uni015E" unicode="&#x15e;" horiz-adv-x="616" 
d="M277 328c-88 28 -209 63 -209 187c0 116 97 189 220 189c112 0 227 -57 272 -191l-84 -52c-14 101 -88 165 -188 165c-72 0 -132 -39 -132 -103c0 -86 111 -99 207 -130c105 -34 213 -75 213 -203c0 -115 -93 -195 -228 -201l-8 -27c47 -5 88 -37 88 -85
c0 -52 -49 -85 -101 -85s-88 25 -108 57l58 37c10 -26 26 -40 50 -40c20 0 36 13 36 33s-16 34 -36 34c-16 0 -27 -9 -27 -9l-38 35l27 52c-121 13 -220 88 -245 217l84 52c10 -104 74 -194 203 -194c88 0 157 44 157 120c0 98 -111 110 -211 142z" />
    <glyph glyph-name="Tcaron" unicode="&#x164;" horiz-adv-x="536" 
d="M4 612v80h528v-80h-220v-612h-88v612h-220zM267 811h2c28 34 64 66 104 87l51 -57c-60 -32 -88 -51 -124 -97h-64c-36 46 -64 65 -124 97l51 57c40 -21 76 -53 104 -87z" />
    <glyph glyph-name="uni021A" unicode="&#x21a;" horiz-adv-x="536" 
d="M4 612v80h528v-80h-220v-612h-88v612h-220zM211 -211c27 8 61 26 66 64c-3 -1 -6 -1 -10 -1c-28 0 -49 18 -49 46c0 30 22 46 50 46c32 0 57 -27 57 -75c0 -52 -20 -94 -56 -116z" />
    <glyph glyph-name="uni0162" unicode="&#x162;" horiz-adv-x="536" 
d="M4 612v80h528v-80h-220v-612h-14l-11 -38c47 -5 88 -37 88 -85c0 -52 -49 -85 -101 -85s-88 25 -108 57l58 37c10 -26 26 -40 50 -40c20 0 36 13 36 33s-16 34 -36 34c-16 0 -27 -9 -27 -9l-38 35l32 61h-17v612h-220z" />
    <glyph glyph-name="Ugrave" unicode="&#xd9;" horiz-adv-x="669" 
d="M334 -12c-164 0 -262 99 -262 295v409h88v-413c0 -140 62 -211 174 -211s175 71 175 211v413h88v-409c0 -196 -99 -295 -263 -295zM385 776l-35 -40c-58 28 -123 68 -171 124l64 67c33 -53 95 -115 142 -151z" />
    <glyph glyph-name="Uacute" unicode="&#xda;" horiz-adv-x="669" 
d="M334 -12c-164 0 -262 99 -262 295v409h88v-413c0 -140 62 -211 174 -211s175 71 175 211v413h88v-409c0 -196 -99 -295 -263 -295zM318 736l-35 40c47 36 109 98 142 151l64 -67c-48 -56 -113 -96 -171 -124z" />
    <glyph glyph-name="Uhungarumlaut" unicode="&#x170;" horiz-adv-x="669" 
d="M334 -12c-164 0 -262 99 -262 295v409h88v-413c0 -140 62 -211 174 -211s175 71 175 211v413h88v-409c0 -196 -99 -295 -263 -295zM247 736l-35 40c47 36 99 99 132 152l62 -65c-48 -56 -101 -99 -159 -127zM404 736l-35 40c47 36 107 99 140 152l62 -65
c-48 -56 -109 -99 -167 -127z" />
    <glyph glyph-name="Udieresis" unicode="&#xdc;" horiz-adv-x="669" 
d="M334 -12c-164 0 -262 99 -262 295v409h88v-413c0 -140 62 -211 174 -211s175 71 175 211v413h88v-409c0 -196 -99 -295 -263 -295zM245 884c34 0 58 -24 58 -58s-24 -58 -58 -58s-58 24 -58 58s24 58 58 58zM423 884c34 0 58 -24 58 -58s-24 -58 -58 -58s-58 24 -58 58
s24 58 58 58z" />
    <glyph glyph-name="Ucircumflex" unicode="&#xdb;" horiz-adv-x="669" 
d="M334 -12c-164 0 -262 99 -262 295v409h88v-413c0 -140 62 -211 174 -211s175 71 175 211v413h88v-409c0 -196 -99 -295 -263 -295zM335 822h-2c-28 -34 -64 -65 -104 -86l-51 58c60 31 88 51 124 96h64c36 -45 64 -65 124 -96l-51 -58c-40 21 -76 52 -104 86z" />
    <glyph glyph-name="Umacron" unicode="&#x16a;" horiz-adv-x="669" 
d="M334 -12c-164 0 -262 99 -262 295v409h88v-413c0 -140 62 -211 174 -211s175 71 175 211v413h88v-409c0 -196 -99 -295 -263 -295zM211 784v76h247v-76h-247z" />
    <glyph glyph-name="Utilde" unicode="&#x168;" horiz-adv-x="669" 
d="M334 -12c-164 0 -262 99 -262 295v409h88v-413c0 -140 62 -211 174 -211s175 71 175 211v413h88v-409c0 -196 -99 -295 -263 -295zM401 759c-64 0 -92 54 -128 54c-26 0 -31 -27 -33 -53l-62 35c8 44 38 89 90 89c64 0 92 -54 128 -54c26 0 31 27 33 53l62 -35
c-8 -44 -38 -89 -90 -89z" />
    <glyph glyph-name="Ubreve" unicode="&#x16c;" horiz-adv-x="669" 
d="M334 -12c-164 0 -262 99 -262 295v409h88v-413c0 -140 62 -211 174 -211s175 71 175 211v413h88v-409c0 -196 -99 -295 -263 -295zM334 743c-68 0 -128 39 -136 115l71 26v-3c0 -44 21 -74 65 -74s65 30 65 74v3l71 -26c-8 -76 -68 -115 -136 -115z" />
    <glyph glyph-name="Uring" unicode="&#x16e;" horiz-adv-x="669" 
d="M334 -12c-164 0 -262 99 -262 295v409h88v-413c0 -140 62 -211 174 -211s175 71 175 211v413h88v-409c0 -196 -99 -295 -263 -295zM334 894c-29 0 -49 -23 -49 -52s20 -52 49 -52s49 23 49 52s-20 52 -49 52zM334 948c58 0 109 -42 109 -106s-51 -106 -109 -106
s-109 42 -109 106s51 106 109 106z" />
    <glyph glyph-name="Wgrave" unicode="&#x1e80;" horiz-adv-x="840" 
d="M476 692l120 -506c8 -35 19 -98 19 -98h2s8 63 15 98l106 506h88l-153 -692h-112l-120 500c-12 49 -20 104 -20 104h-2s-8 -55 -20 -104l-120 -500h-112l-153 692h90l106 -506c7 -35 15 -98 15 -98h2s11 63 19 98l120 506h110zM471 776l-35 -40c-58 28 -123 68 -171 124
l64 67c33 -53 95 -115 142 -151z" />
    <glyph glyph-name="Wacute" unicode="&#x1e82;" horiz-adv-x="840" 
d="M476 692l120 -506c8 -35 19 -98 19 -98h2s8 63 15 98l106 506h88l-153 -692h-112l-120 500c-12 49 -20 104 -20 104h-2s-8 -55 -20 -104l-120 -500h-112l-153 692h90l106 -506c7 -35 15 -98 15 -98h2s11 63 19 98l120 506h110zM404 736l-35 40c47 36 109 98 142 151
l64 -67c-48 -56 -113 -96 -171 -124z" />
    <glyph glyph-name="Wdieresis" unicode="&#x1e84;" horiz-adv-x="840" 
d="M476 692l120 -506c8 -35 19 -98 19 -98h2s8 63 15 98l106 506h88l-153 -692h-112l-120 500c-12 49 -20 104 -20 104h-2s-8 -55 -20 -104l-120 -500h-112l-153 692h90l106 -506c7 -35 15 -98 15 -98h2s11 63 19 98l120 506h110zM331 884c34 0 58 -24 58 -58
s-24 -58 -58 -58s-58 24 -58 58s24 58 58 58zM509 884c34 0 58 -24 58 -58s-24 -58 -58 -58s-58 24 -58 58s24 58 58 58z" />
    <glyph glyph-name="Wcircumflex" unicode="&#x174;" horiz-adv-x="840" 
d="M476 692l120 -506c8 -35 19 -98 19 -98h2s8 63 15 98l106 506h88l-153 -692h-112l-120 500c-12 49 -20 104 -20 104h-2s-8 -55 -20 -104l-120 -500h-112l-153 692h90l106 -506c7 -35 15 -98 15 -98h2s11 63 19 98l120 506h110zM421 822h-2c-28 -34 -64 -65 -104 -86
l-51 58c60 31 88 51 124 96h64c36 -45 64 -65 124 -96l-51 -58c-40 21 -76 52 -104 86z" />
    <glyph glyph-name="Ygrave" unicode="&#x1ef2;" horiz-adv-x="562" 
d="M237 0v270l-237 422h95l139 -255c24 -44 47 -92 47 -92h2s23 48 47 92l140 255h92l-237 -422v-270h-88zM332 776l-35 -40c-58 28 -123 68 -171 124l64 67c33 -53 95 -115 142 -151z" />
    <glyph glyph-name="Yacute" unicode="&#xdd;" horiz-adv-x="562" 
d="M237 0v270l-237 422h95l139 -255c24 -44 47 -92 47 -92h2s23 48 47 92l140 255h92l-237 -422v-270h-88zM265 736l-35 40c47 36 109 98 142 151l64 -67c-48 -56 -113 -96 -171 -124z" />
    <glyph glyph-name="Ydieresis" unicode="&#x178;" horiz-adv-x="562" 
d="M237 0v270l-237 422h95l139 -255c24 -44 47 -92 47 -92h2s23 48 47 92l140 255h92l-237 -422v-270h-88zM192 884c34 0 58 -24 58 -58s-24 -58 -58 -58s-58 24 -58 58s24 58 58 58zM370 884c34 0 58 -24 58 -58s-24 -58 -58 -58s-58 24 -58 58s24 58 58 58z" />
    <glyph glyph-name="Ycircumflex" unicode="&#x176;" horiz-adv-x="562" 
d="M237 0v270l-237 422h95l139 -255c24 -44 47 -92 47 -92h2s23 48 47 92l140 255h92l-237 -422v-270h-88zM282 822h-2c-28 -34 -64 -65 -104 -86l-51 58c60 31 88 51 124 96h64c36 -45 64 -65 124 -96l-51 -58c-40 21 -76 52 -104 86z" />
    <glyph glyph-name="Zacute" unicode="&#x179;" horiz-adv-x="559" 
d="M28 0v64l390 548h-386v80h497v-64l-390 -548h396v-80h-507zM258 736l-35 40c47 36 109 98 142 151l64 -67c-48 -56 -113 -96 -171 -124z" />
    <glyph glyph-name="Zdotaccent" unicode="&#x17b;" horiz-adv-x="559" 
d="M28 0v64l390 548h-386v80h497v-64l-390 -548h396v-80h-507zM274 884c34 0 58 -24 58 -58s-24 -58 -58 -58s-58 24 -58 58s24 58 58 58z" />
    <glyph glyph-name="Zcaron" unicode="&#x17d;" horiz-adv-x="559" 
d="M28 0v64l390 548h-386v80h497v-64l-390 -548h396v-80h-507zM273 811h2c28 34 64 66 104 87l51 -57c-60 -32 -88 -51 -124 -97h-64c-36 46 -64 65 -124 97l51 57c40 -21 76 -53 104 -87z" />
    <glyph glyph-name="aeacute" unicode="&#x1fd;" horiz-adv-x="818" 
d="M259 444c-79 0 -122 -58 -133 -130l-78 47c24 89 107 155 211 155c68 0 128 -27 157 -87c37 54 94 87 162 87c127 0 200 -96 200 -228c0 -32 -6 -56 -6 -56h-329c5 -96 51 -172 137 -172c67 0 106 52 116 114l79 -47c-27 -72 -95 -139 -195 -139c-80 0 -140 38 -176 102
c-27 -52 -89 -102 -177 -102c-95 0 -172 53 -172 148c0 108 100 135 184 153c71 16 119 23 119 67c0 52 -44 88 -99 88zM362 196v76c-15 -24 -55 -37 -103 -49c-56 -13 -120 -27 -120 -87c0 -44 35 -76 96 -76c64 0 127 52 127 136zM578 446c-77 0 -121 -64 -132 -146h249
c0 76 -38 146 -117 146zM397 556l-35 40c47 36 109 98 142 151l64 -67c-48 -56 -113 -96 -171 -124z" />
    <glyph glyph-name="agrave" unicode="&#xe0;" horiz-adv-x="520" 
d="M262 444c-84 0 -126 -60 -138 -132l-78 47c25 89 108 157 216 157c104 0 190 -52 190 -177v-231c0 -56 5 -80 12 -108h-68c-16 28 -19 44 -22 68h-2c-24 -36 -75 -80 -155 -80c-93 0 -160 53 -160 148c0 108 104 135 192 153c76 16 119 25 119 68c0 52 -46 87 -106 87z
M372 196v76c-16 -24 -53 -37 -105 -49c-60 -13 -126 -27 -126 -87c0 -44 31 -76 92 -76c72 0 139 52 139 136zM309 596l-35 -40c-58 28 -123 68 -171 124l64 67c33 -53 95 -115 142 -151z" />
    <glyph glyph-name="aacute" unicode="&#xe1;" horiz-adv-x="520" 
d="M262 444c-84 0 -126 -60 -138 -132l-78 47c25 89 108 157 216 157c104 0 190 -52 190 -177v-231c0 -56 5 -80 12 -108h-68c-16 28 -19 44 -22 68h-2c-24 -36 -75 -80 -155 -80c-93 0 -160 53 -160 148c0 108 104 135 192 153c76 16 119 25 119 68c0 52 -46 87 -106 87z
M372 196v76c-16 -24 -53 -37 -105 -49c-60 -13 -126 -27 -126 -87c0 -44 31 -76 92 -76c72 0 139 52 139 136zM242 556l-35 40c47 36 109 98 142 151l64 -67c-48 -56 -113 -96 -171 -124z" />
    <glyph glyph-name="adieresis" unicode="&#xe4;" horiz-adv-x="520" 
d="M262 444c-84 0 -126 -60 -138 -132l-78 47c25 89 108 157 216 157c104 0 190 -52 190 -177v-231c0 -56 5 -80 12 -108h-68c-16 28 -19 44 -22 68h-2c-24 -36 -75 -80 -155 -80c-93 0 -160 53 -160 148c0 108 104 135 192 153c76 16 119 25 119 68c0 52 -46 87 -106 87z
M372 196v76c-16 -24 -53 -37 -105 -49c-60 -13 -126 -27 -126 -87c0 -44 31 -76 92 -76c72 0 139 52 139 136zM169 704c34 0 58 -24 58 -58s-24 -58 -58 -58s-58 24 -58 58s24 58 58 58zM347 704c34 0 58 -24 58 -58s-24 -58 -58 -58s-58 24 -58 58s24 58 58 58z" />
    <glyph glyph-name="acircumflex" unicode="&#xe2;" horiz-adv-x="520" 
d="M262 444c-84 0 -126 -60 -138 -132l-78 47c25 89 108 157 216 157c104 0 190 -52 190 -177v-231c0 -56 5 -80 12 -108h-68c-16 28 -19 44 -22 68h-2c-24 -36 -75 -80 -155 -80c-93 0 -160 53 -160 148c0 108 104 135 192 153c76 16 119 25 119 68c0 52 -46 87 -106 87z
M372 196v76c-16 -24 -53 -37 -105 -49c-60 -13 -126 -27 -126 -87c0 -44 31 -76 92 -76c72 0 139 52 139 136zM259 642h-2c-28 -34 -64 -65 -104 -86l-51 58c60 31 88 51 124 96h64c36 -45 64 -65 124 -96l-51 -58c-40 21 -76 52 -104 86z" />
    <glyph glyph-name="amacron" unicode="&#x101;" horiz-adv-x="520" 
d="M262 444c-84 0 -126 -60 -138 -132l-78 47c25 89 108 157 216 157c104 0 190 -52 190 -177v-231c0 -56 5 -80 12 -108h-68c-16 28 -19 44 -22 68h-2c-24 -36 -75 -80 -155 -80c-93 0 -160 53 -160 148c0 108 104 135 192 153c76 16 119 25 119 68c0 52 -46 87 -106 87z
M372 196v76c-16 -24 -53 -37 -105 -49c-60 -13 -126 -27 -126 -87c0 -44 31 -76 92 -76c72 0 139 52 139 136zM135 604v76h247v-76h-247z" />
    <glyph glyph-name="atilde" unicode="&#xe3;" horiz-adv-x="520" 
d="M262 444c-84 0 -126 -60 -138 -132l-78 47c25 89 108 157 216 157c104 0 190 -52 190 -177v-231c0 -56 5 -80 12 -108h-68c-16 28 -19 44 -22 68h-2c-24 -36 -75 -80 -155 -80c-93 0 -160 53 -160 148c0 108 104 135 192 153c76 16 119 25 119 68c0 52 -46 87 -106 87z
M372 196v76c-16 -24 -53 -37 -105 -49c-60 -13 -126 -27 -126 -87c0 -44 31 -76 92 -76c72 0 139 52 139 136zM325 579c-64 0 -92 54 -128 54c-26 0 -31 -27 -33 -53l-62 35c8 44 38 89 90 89c64 0 92 -54 128 -54c26 0 31 27 33 53l62 -35c-8 -44 -38 -89 -90 -89z" />
    <glyph glyph-name="aring" unicode="&#xe5;" horiz-adv-x="520" 
d="M262 444c-84 0 -126 -60 -138 -132l-78 47c25 89 108 157 216 157c104 0 190 -52 190 -177v-231c0 -56 5 -80 12 -108h-68c-16 28 -19 44 -22 68h-2c-24 -36 -75 -80 -155 -80c-93 0 -160 53 -160 148c0 108 104 135 192 153c76 16 119 25 119 68c0 52 -46 87 -106 87z
M372 196v76c-16 -24 -53 -37 -105 -49c-60 -13 -126 -27 -126 -87c0 -44 31 -76 92 -76c72 0 139 52 139 136zM258 714c-29 0 -49 -23 -49 -52s20 -52 49 -52s49 23 49 52s-20 52 -49 52zM258 768c58 0 109 -42 109 -106s-51 -106 -109 -106s-109 42 -109 106
s51 106 109 106z" />
    <glyph glyph-name="abreve" unicode="&#x103;" horiz-adv-x="520" 
d="M262 444c-84 0 -126 -60 -138 -132l-78 47c25 89 108 157 216 157c104 0 190 -52 190 -177v-231c0 -56 5 -80 12 -108h-68c-16 28 -19 44 -22 68h-2c-24 -36 -75 -80 -155 -80c-93 0 -160 53 -160 148c0 108 104 135 192 153c76 16 119 25 119 68c0 52 -46 87 -106 87z
M372 196v76c-16 -24 -53 -37 -105 -49c-60 -13 -126 -27 -126 -87c0 -44 31 -76 92 -76c72 0 139 52 139 136zM258 563c-68 0 -128 39 -136 115l71 26v-3c0 -44 21 -74 65 -74s65 30 65 74v3l71 -26c-8 -76 -68 -115 -136 -115z" />
    <glyph glyph-name="aogonek" unicode="&#x105;" horiz-adv-x="520" 
d="M460 -99l63 -46c-21 -32 -62 -63 -118 -63c-60 0 -99 37 -99 89c0 43 33 76 63 104l23 21c-13 24 -16 40 -18 62h-2c-24 -36 -75 -80 -155 -80c-93 0 -160 53 -160 148c0 108 104 135 192 153c76 16 119 25 119 68c0 52 -46 87 -106 87c-84 0 -126 -60 -138 -132l-78 47
c25 89 108 157 216 157c104 0 190 -52 190 -177v-231c0 -56 5 -80 12 -108l-38 -34c-24 -21 -49 -49 -49 -75c0 -20 13 -34 35 -34c26 0 42 23 48 44zM372 196v76c-16 -24 -53 -37 -105 -49c-60 -13 -126 -27 -126 -87c0 -44 31 -76 92 -76c72 0 139 52 139 136z" />
    <glyph glyph-name="cacute" unicode="&#x107;" horiz-adv-x="508" 
d="M268 444c-96 0 -140 -88 -140 -192s44 -192 140 -192c84 0 124 72 124 144l80 -48c-12 -72 -76 -168 -204 -168c-140 0 -224 112 -224 264s84 264 224 264c128 0 192 -96 204 -168l-80 -48c0 72 -40 144 -124 144zM248 556l-35 40c47 36 109 98 142 151l64 -67
c-48 -56 -113 -96 -171 -124z" />
    <glyph glyph-name="cdotaccent" unicode="&#x10b;" horiz-adv-x="508" 
d="M268 444c-96 0 -140 -88 -140 -192s44 -192 140 -192c84 0 124 72 124 144l80 -48c-12 -72 -76 -168 -204 -168c-140 0 -224 112 -224 264s84 264 224 264c128 0 192 -96 204 -168l-80 -48c0 72 -40 144 -124 144zM264 704c34 0 58 -24 58 -58s-24 -58 -58 -58
s-58 24 -58 58s24 58 58 58z" />
    <glyph glyph-name="ccircumflex" unicode="&#x109;" horiz-adv-x="508" 
d="M268 444c-96 0 -140 -88 -140 -192s44 -192 140 -192c84 0 124 72 124 144l80 -48c-12 -72 -76 -168 -204 -168c-140 0 -224 112 -224 264s84 264 224 264c128 0 192 -96 204 -168l-80 -48c0 72 -40 144 -124 144zM265 642h-2c-28 -34 -64 -65 -104 -86l-51 58
c60 31 88 51 124 96h64c36 -45 64 -65 124 -96l-51 -58c-40 21 -76 52 -104 86z" />
    <glyph glyph-name="ccaron" unicode="&#x10d;" horiz-adv-x="508" 
d="M268 444c-96 0 -140 -88 -140 -192s44 -192 140 -192c84 0 124 72 124 144l80 -48c-12 -72 -76 -168 -204 -168c-140 0 -224 112 -224 264s84 264 224 264c128 0 192 -96 204 -168l-80 -48c0 72 -40 144 -124 144zM263 631h2c28 34 64 66 104 87l51 -57
c-60 -32 -88 -51 -124 -97h-64c-36 46 -64 65 -124 97l51 57c40 -21 76 -53 104 -87z" />
    <glyph glyph-name="ccedilla" unicode="&#xe7;" horiz-adv-x="508" 
d="M268 444c-96 0 -140 -88 -140 -192s44 -192 140 -192c84 0 124 72 124 144l80 -48c-12 -68 -69 -156 -181 -167l-8 -27c47 -5 88 -37 88 -85c0 -52 -49 -85 -101 -85s-88 25 -108 57l58 37c10 -26 26 -40 50 -40c20 0 36 13 36 33s-16 34 -36 34c-16 0 -27 -9 -27 -9
l-38 35l27 52c-118 17 -188 122 -188 261c0 152 84 264 224 264c128 0 192 -96 204 -168l-80 -48c0 72 -40 144 -124 144z" />
    <glyph glyph-name="egrave" unicode="&#xe8;" horiz-adv-x="524" 
d="M478 232h-353c6 -96 58 -172 149 -172c72 0 117 52 128 114l79 -47c-28 -72 -103 -139 -207 -139c-144 0 -230 108 -230 264c0 152 92 264 228 264c132 0 212 -96 212 -228c0 -32 -6 -56 -6 -56zM272 446c-82 0 -131 -64 -144 -146h273c0 76 -45 146 -129 146zM323 596
l-35 -40c-58 28 -123 68 -171 124l64 67c33 -53 95 -115 142 -151z" />
    <glyph glyph-name="eacute" unicode="&#xe9;" horiz-adv-x="524" 
d="M478 232h-353c6 -96 58 -172 149 -172c72 0 117 52 128 114l79 -47c-28 -72 -103 -139 -207 -139c-144 0 -230 108 -230 264c0 152 92 264 228 264c132 0 212 -96 212 -228c0 -32 -6 -56 -6 -56zM272 446c-82 0 -131 -64 -144 -146h273c0 76 -45 146 -129 146zM256 556
l-35 40c47 36 109 98 142 151l64 -67c-48 -56 -113 -96 -171 -124z" />
    <glyph glyph-name="edotaccent" unicode="&#x117;" horiz-adv-x="524" 
d="M478 232h-353c6 -96 58 -172 149 -172c72 0 117 52 128 114l79 -47c-28 -72 -103 -139 -207 -139c-144 0 -230 108 -230 264c0 152 92 264 228 264c132 0 212 -96 212 -228c0 -32 -6 -56 -6 -56zM272 446c-82 0 -131 -64 -144 -146h273c0 76 -45 146 -129 146zM272 704
c34 0 58 -24 58 -58s-24 -58 -58 -58s-58 24 -58 58s24 58 58 58z" />
    <glyph glyph-name="edieresis" unicode="&#xeb;" horiz-adv-x="524" 
d="M478 232h-353c6 -96 58 -172 149 -172c72 0 117 52 128 114l79 -47c-28 -72 -103 -139 -207 -139c-144 0 -230 108 -230 264c0 152 92 264 228 264c132 0 212 -96 212 -228c0 -32 -6 -56 -6 -56zM272 446c-82 0 -131 -64 -144 -146h273c0 76 -45 146 -129 146zM183 704
c34 0 58 -24 58 -58s-24 -58 -58 -58s-58 24 -58 58s24 58 58 58zM361 704c34 0 58 -24 58 -58s-24 -58 -58 -58s-58 24 -58 58s24 58 58 58z" />
    <glyph glyph-name="ecircumflex" unicode="&#xea;" horiz-adv-x="524" 
d="M478 232h-353c6 -96 58 -172 149 -172c72 0 117 52 128 114l79 -47c-28 -72 -103 -139 -207 -139c-144 0 -230 108 -230 264c0 152 92 264 228 264c132 0 212 -96 212 -228c0 -32 -6 -56 -6 -56zM272 446c-82 0 -131 -64 -144 -146h273c0 76 -45 146 -129 146zM273 642
h-2c-28 -34 -64 -65 -104 -86l-51 58c60 31 88 51 124 96h64c36 -45 64 -65 124 -96l-51 -58c-40 21 -76 52 -104 86z" />
    <glyph glyph-name="ecaron" unicode="&#x11b;" horiz-adv-x="524" 
d="M478 232h-353c6 -96 58 -172 149 -172c72 0 117 52 128 114l79 -47c-28 -72 -103 -139 -207 -139c-144 0 -230 108 -230 264c0 152 92 264 228 264c132 0 212 -96 212 -228c0 -32 -6 -56 -6 -56zM272 446c-82 0 -131 -64 -144 -146h273c0 76 -45 146 -129 146zM271 631h2
c28 34 64 66 104 87l51 -57c-60 -32 -88 -51 -124 -97h-64c-36 46 -64 65 -124 97l51 57c40 -21 76 -53 104 -87z" />
    <glyph glyph-name="emacron" unicode="&#x113;" horiz-adv-x="524" 
d="M478 232h-353c6 -96 58 -172 149 -172c72 0 117 52 128 114l79 -47c-28 -72 -103 -139 -207 -139c-144 0 -230 108 -230 264c0 152 92 264 228 264c132 0 212 -96 212 -228c0 -32 -6 -56 -6 -56zM272 446c-82 0 -131 -64 -144 -146h273c0 76 -45 146 -129 146zM149 604
v76h247v-76h-247z" />
    <glyph glyph-name="ebreve" unicode="&#x115;" horiz-adv-x="524" 
d="M478 232h-353c6 -96 58 -172 149 -172c72 0 117 52 128 114l79 -47c-28 -72 -103 -139 -207 -139c-144 0 -230 108 -230 264c0 152 92 264 228 264c132 0 212 -96 212 -228c0 -32 -6 -56 -6 -56zM272 446c-82 0 -131 -64 -144 -146h273c0 76 -45 146 -129 146zM272 563
c-68 0 -128 39 -136 115l71 26v-3c0 -44 21 -74 65 -74s65 30 65 74v3l71 -26c-8 -76 -68 -115 -136 -115z" />
    <glyph glyph-name="gdotaccent" unicode="&#x121;" horiz-adv-x="536" 
d="M70 348c0 108 90 168 190 168c48 0 76 -16 120 -16s56 20 56 44c0 16 -2 28 -4 44l92 -52c0 -60 -28 -84 -76 -84c-16 0 -36 4 -48 8v-2c19 -19 50 -54 50 -110c0 -100 -90 -168 -190 -168c-60 0 -124 -24 -124 -60c0 -24 20 -36 72 -36c48 0 92 8 148 8
c92 0 168 -44 168 -136c0 -120 -128 -164 -260 -164c-124 0 -248 40 -248 136c0 53 56 92 108 103v2c-36 12 -68 33 -68 77c0 54 50 81 106 97v2c-56 26 -92 73 -92 139zM92 -66c0 -50 84 -74 172 -74c92 0 180 28 180 92c0 48 -56 64 -120 64c-82 0 -232 -12 -232 -82z
M150 348c0 -64 50 -102 110 -102s110 38 110 102s-50 102 -110 102s-110 -38 -110 -102zM261 704c34 0 58 -24 58 -58s-24 -58 -58 -58s-58 24 -58 58s24 58 58 58z" />
    <glyph glyph-name="gcircumflex" unicode="&#x11d;" horiz-adv-x="532" 
d="M524 536c0 -60 -28 -84 -76 -84c-16 0 -36 4 -48 8v-2c19 -19 50 -54 50 -110c0 -100 -90 -168 -190 -168c-60 0 -124 -24 -124 -60c0 -24 20 -36 72 -36c48 0 92 8 148 8c92 0 168 -44 168 -136c0 -120 -128 -164 -260 -164c-124 0 -248 40 -248 136c0 53 56 92 108 103
v2c-36 12 -68 33 -68 77c0 54 50 81 106 97v2c-56 26 -92 73 -92 139c0 108 90 168 190 168c48 0 76 -16 120 -16s56 20 56 44c0 11 -1 23 -2 29zM92 -66c0 -50 84 -74 172 -74c92 0 180 28 180 92c0 48 -56 64 -120 64c-82 0 -232 -12 -232 -82zM150 348
c0 -64 50 -102 110 -102s110 38 110 102s-50 102 -110 102s-110 -38 -110 -102zM261 642h-2c-28 -34 -64 -65 -104 -86l-51 58c60 31 88 51 124 96h64c36 -45 64 -65 124 -96l-51 -58c-40 21 -76 52 -104 86z" />
    <glyph glyph-name="gbreve" unicode="&#x11f;" horiz-adv-x="532" 
d="M524 536c0 -60 -28 -84 -76 -84c-16 0 -36 4 -48 8v-2c19 -19 50 -54 50 -110c0 -100 -90 -168 -190 -168c-60 0 -124 -24 -124 -60c0 -24 20 -36 72 -36c48 0 92 8 148 8c92 0 168 -44 168 -136c0 -120 -128 -164 -260 -164c-124 0 -248 40 -248 136c0 53 56 92 108 103
v2c-36 12 -68 33 -68 77c0 54 50 81 106 97v2c-56 26 -92 73 -92 139c0 108 90 168 190 168c48 0 76 -16 120 -16s56 20 56 44c0 11 -1 23 -2 29zM92 -66c0 -50 84 -74 172 -74c92 0 180 28 180 92c0 48 -56 64 -120 64c-82 0 -232 -12 -232 -82zM150 348
c0 -64 50 -102 110 -102s110 38 110 102s-50 102 -110 102s-110 -38 -110 -102zM260 563c-68 0 -128 39 -136 115l71 26v-3c0 -44 21 -74 65 -74s65 30 65 74v3l71 -26c-8 -76 -68 -115 -136 -115z" />
    <glyph glyph-name="uni0123" unicode="&#x123;" horiz-adv-x="536" 
d="M70 348c0 108 90 168 190 168c48 0 76 -16 120 -16s56 20 56 44c0 16 -2 28 -4 44l92 -52c0 -60 -28 -84 -76 -84c-16 0 -36 4 -48 8v-2c19 -19 50 -54 50 -110c0 -100 -90 -168 -190 -168c-60 0 -124 -24 -124 -60c0 -24 20 -36 72 -36c48 0 92 8 148 8
c92 0 168 -44 168 -136c0 -120 -128 -164 -260 -164c-124 0 -248 40 -248 136c0 53 56 92 108 103v2c-36 12 -68 33 -68 77c0 54 50 81 106 97v2c-56 26 -92 73 -92 139zM92 -66c0 -50 84 -74 172 -74c92 0 180 28 180 92c0 48 -56 64 -120 64c-82 0 -232 -12 -232 -82z
M150 348c0 -64 50 -102 110 -102s110 38 110 102s-50 102 -110 102s-110 -38 -110 -102zM318 711c-28 -8 -61 -26 -67 -64c4 1 7 1 11 1c28 0 49 -18 49 -46c0 -30 -22 -46 -50 -46c-32 0 -57 27 -57 75c0 52 20 94 56 116z" />
    <glyph glyph-name="hcircumflex" unicode="&#x125;" horiz-adv-x="548" 
d="M480 316v-316h-84v300c0 100 -40 140 -112 140c-78 0 -128 -65 -128 -142v-298h-84v724h84v-184c0 -60 -6 -124 -6 -124h2c20 44 68 100 156 100c104 0 172 -68 172 -200zM115 862h-2c-28 -34 -64 -65 -104 -86l-51 58c60 31 88 51 124 96h64c36 -45 64 -65 124 -96
l-51 -58c-40 21 -76 52 -104 86z" />
    <glyph glyph-name="igrave" unicode="&#xec;" horiz-adv-x="228" 
d="M72 0v504h84v-504h-84zM165 596l-35 -40c-58 28 -123 68 -171 124l64 67c33 -53 95 -115 142 -151z" />
    <glyph glyph-name="iacute" unicode="&#xed;" horiz-adv-x="228" 
d="M72 0v504h84v-504h-84zM98 556l-35 40c47 36 109 98 142 151l64 -67c-48 -56 -113 -96 -171 -124z" />
    <glyph glyph-name="idieresis" unicode="&#xef;" horiz-adv-x="228" 
d="M72 0v504h84v-504h-84zM25 704c34 0 58 -24 58 -58s-24 -58 -58 -58s-58 24 -58 58s24 58 58 58zM203 704c34 0 58 -24 58 -58s-24 -58 -58 -58s-58 24 -58 58s24 58 58 58z" />
    <glyph glyph-name="icircumflex" unicode="&#xee;" horiz-adv-x="228" 
d="M72 0v504h84v-504h-84zM115 642h-2c-28 -34 -64 -65 -104 -86l-51 58c60 31 88 51 124 96h64c36 -45 64 -65 124 -96l-51 -58c-40 21 -76 52 -104 86z" />
    <glyph glyph-name="imacron" unicode="&#x12b;" horiz-adv-x="228" 
d="M72 0v504h84v-504h-84zM-9 604v76h247v-76h-247z" />
    <glyph glyph-name="itilde" unicode="&#x129;" horiz-adv-x="228" 
d="M72 0v504h84v-504h-84zM181 579c-64 0 -92 54 -128 54c-26 0 -31 -27 -33 -53l-62 35c8 44 38 89 90 89c64 0 92 -54 128 -54c26 0 31 27 33 53l62 -35c-8 -44 -38 -89 -90 -89z" />
    <glyph glyph-name="ibreve" unicode="&#x12d;" horiz-adv-x="228" 
d="M72 0v504h84v-504h-84zM114 563c-68 0 -128 39 -136 115l71 26v-3c0 -44 21 -74 65 -74s65 30 65 74v3l71 -26c-8 -76 -68 -115 -136 -115z" />
    <glyph glyph-name="iogonek" unicode="&#x12f;" horiz-adv-x="228" 
d="M72 504h84v-504c-35 -24 -87 -69 -87 -109c0 -20 13 -34 35 -34c26 0 42 23 48 44l63 -46c-21 -32 -62 -63 -118 -63c-60 0 -99 37 -99 89c0 43 29 78 57 104l17 16v503zM114 704c34 0 58 -24 58 -58s-24 -58 -58 -58s-58 24 -58 58s24 58 58 58z" />
    <glyph glyph-name="jcircumflex" unicode="&#x135;" horiz-adv-x="236" 
d="M32 -208l-80 56c104 20 128 64 128 176v480h84v-508c0 -116 -40 -184 -132 -204zM123 642h-2c-28 -34 -64 -65 -104 -86l-51 58c60 31 88 51 124 96h64c36 -45 64 -65 124 -96l-51 -58c-40 21 -76 52 -104 86z" />
    <glyph glyph-name="uni0137" unicode="&#x137;" horiz-adv-x="499" 
d="M476 504l-172 -200l199 -304h-96l-157 243l-94 -112v-131h-84v724h84v-368c0 -60 -6 -125 -6 -125h2s39 54 73 95l150 178h101zM218 -211c27 8 61 26 66 64c-3 -1 -6 -1 -10 -1c-28 0 -49 18 -49 46c0 30 22 46 50 46c32 0 57 -27 57 -75c0 -52 -20 -94 -56 -116z" />
    <glyph glyph-name="lacute" unicode="&#x13a;" horiz-adv-x="228" 
d="M72 0v724h84v-724h-84zM98 776l-35 40c47 36 109 98 142 151l64 -67c-48 -56 -113 -96 -171 -124z" />
    <glyph glyph-name="uni013C" unicode="&#x13c;" horiz-adv-x="228" 
d="M72 0v724h84v-724h-84zM57 -211c27 8 61 26 66 64c-3 -1 -6 -1 -10 -1c-28 0 -49 18 -49 46c0 30 22 46 50 46c32 0 57 -27 57 -75c0 -52 -20 -94 -56 -116z" />
    <glyph glyph-name="nacute" unicode="&#x144;" horiz-adv-x="548" 
d="M480 316v-316h-84v300c0 100 -40 140 -112 140c-78 0 -128 -65 -128 -142v-298h-84v504h84l-6 -88h2c20 44 68 100 156 100c104 0 172 -68 172 -200zM260 556l-35 40c47 36 109 98 142 151l64 -67c-48 -56 -113 -96 -171 -124z" />
    <glyph glyph-name="ncaron" unicode="&#x148;" horiz-adv-x="548" 
d="M480 316v-316h-84v300c0 100 -40 140 -112 140c-78 0 -128 -65 -128 -142v-298h-84v504h84l-6 -88h2c20 44 68 100 156 100c104 0 172 -68 172 -200zM275 631h2c28 34 64 66 104 87l51 -57c-60 -32 -88 -51 -124 -97h-64c-36 46 -64 65 -124 97l51 57
c40 -21 76 -53 104 -87z" />
    <glyph glyph-name="ntilde" unicode="&#xf1;" horiz-adv-x="548" 
d="M480 316v-316h-84v300c0 100 -40 140 -112 140c-78 0 -128 -65 -128 -142v-298h-84v504h84l-6 -88h2c20 44 68 100 156 100c104 0 172 -68 172 -200zM343 579c-64 0 -92 54 -128 54c-26 0 -31 -27 -33 -53l-62 35c8 44 38 89 90 89c64 0 92 -54 128 -54c26 0 31 27 33 53
l62 -35c-8 -44 -38 -89 -90 -89z" />
    <glyph glyph-name="uni0146" unicode="&#x146;" horiz-adv-x="548" 
d="M480 316v-316h-84v300c0 100 -40 140 -112 140c-78 0 -128 -65 -128 -142v-298h-84v504h84l-6 -88h2c20 44 68 100 156 100c104 0 172 -68 172 -200zM219 -211c27 8 61 26 66 64c-3 -1 -6 -1 -10 -1c-28 0 -49 18 -49 46c0 30 22 46 50 46c32 0 57 -27 57 -75
c0 -52 -20 -94 -56 -116z" />
    <glyph glyph-name="napostrophe" unicode="&#x149;" horiz-adv-x="772" 
d="M126 704c40 0 72 -32 72 -96c0 -84 -34 -134 -70 -162l-58 37c37 22 69 56 73 104c-5 -1 -9 -1 -14 -1c-34 0 -63 22 -63 58s24 60 60 60zM704 316v-316h-84v300c0 100 -40 140 -112 140c-78 0 -128 -65 -128 -142v-298h-84v504h84l-6 -88h2c20 44 68 100 156 100
c104 0 172 -68 172 -200z" />
    <glyph glyph-name="ograve" unicode="&#xf2;" horiz-adv-x="544" 
d="M272 -12c-140 0 -228 112 -228 264s88 264 228 264s228 -112 228 -264s-88 -264 -228 -264zM128 252c0 -104 48 -192 144 -192s144 88 144 192s-48 192 -144 192s-144 -88 -144 -192zM323 596l-35 -40c-58 28 -123 68 -171 124l64 67c33 -53 95 -115 142 -151z" />
    <glyph glyph-name="oacute" unicode="&#xf3;" horiz-adv-x="544" 
d="M272 -12c-140 0 -228 112 -228 264s88 264 228 264s228 -112 228 -264s-88 -264 -228 -264zM128 252c0 -104 48 -192 144 -192s144 88 144 192s-48 192 -144 192s-144 -88 -144 -192zM256 556l-35 40c47 36 109 98 142 151l64 -67c-48 -56 -113 -96 -171 -124z" />
    <glyph glyph-name="ohungarumlaut" unicode="&#x151;" horiz-adv-x="544" 
d="M272 -12c-140 0 -228 112 -228 264s88 264 228 264s228 -112 228 -264s-88 -264 -228 -264zM128 252c0 -104 48 -192 144 -192s144 88 144 192s-48 192 -144 192s-144 -88 -144 -192zM185 556l-35 40c47 36 99 99 132 152l62 -65c-48 -56 -101 -99 -159 -127zM342 556
l-35 40c47 36 107 99 140 152l62 -65c-48 -56 -109 -99 -167 -127z" />
    <glyph glyph-name="odieresis" unicode="&#xf6;" horiz-adv-x="544" 
d="M272 -12c-140 0 -228 112 -228 264s88 264 228 264s228 -112 228 -264s-88 -264 -228 -264zM128 252c0 -104 48 -192 144 -192s144 88 144 192s-48 192 -144 192s-144 -88 -144 -192zM183 704c34 0 58 -24 58 -58s-24 -58 -58 -58s-58 24 -58 58s24 58 58 58zM361 704
c34 0 58 -24 58 -58s-24 -58 -58 -58s-58 24 -58 58s24 58 58 58z" />
    <glyph glyph-name="ocircumflex" unicode="&#xf4;" horiz-adv-x="544" 
d="M272 -12c-140 0 -228 112 -228 264s88 264 228 264s228 -112 228 -264s-88 -264 -228 -264zM128 252c0 -104 48 -192 144 -192s144 88 144 192s-48 192 -144 192s-144 -88 -144 -192zM273 642h-2c-28 -34 -64 -65 -104 -86l-51 58c60 31 88 51 124 96h64
c36 -45 64 -65 124 -96l-51 -58c-40 21 -76 52 -104 86z" />
    <glyph glyph-name="omacron" unicode="&#x14d;" horiz-adv-x="544" 
d="M272 -12c-140 0 -228 112 -228 264s88 264 228 264s228 -112 228 -264s-88 -264 -228 -264zM128 252c0 -104 48 -192 144 -192s144 88 144 192s-48 192 -144 192s-144 -88 -144 -192zM149 604v76h247v-76h-247z" />
    <glyph glyph-name="obreve" unicode="&#x14f;" horiz-adv-x="544" 
d="M272 -12c-140 0 -228 112 -228 264s88 264 228 264s228 -112 228 -264s-88 -264 -228 -264zM128 252c0 -104 48 -192 144 -192s144 88 144 192s-48 192 -144 192s-144 -88 -144 -192zM272 563c-68 0 -128 39 -136 115l71 26v-3c0 -44 21 -74 65 -74s65 30 65 74v3l71 -26
c-8 -76 -68 -115 -136 -115z" />
    <glyph glyph-name="otilde" unicode="&#xf5;" horiz-adv-x="544" 
d="M272 -12c-140 0 -228 112 -228 264s88 264 228 264s228 -112 228 -264s-88 -264 -228 -264zM128 252c0 -104 48 -192 144 -192s144 88 144 192s-48 192 -144 192s-144 -88 -144 -192zM339 579c-64 0 -92 54 -128 54c-26 0 -31 -27 -33 -53l-62 35c8 44 38 89 90 89
c64 0 92 -54 128 -54c26 0 31 27 33 53l62 -35c-8 -44 -38 -89 -90 -89z" />
    <glyph glyph-name="oslashacute" unicode="&#x1ff;" horiz-adv-x="552" 
d="M276 -12c-50 0 -93 14 -128 39l-45 -59l-59 43l53 67c-32 46 -49 106 -49 174c0 152 88 264 228 264c49 0 93 -14 128 -39l45 59l59 -43l-53 -68c31 -46 49 -106 49 -173c0 -152 -88 -264 -228 -264zM130 252c0 -41 6 -78 18 -108l212 276c-22 16 -50 25 -84 25
c-96 0 -146 -89 -146 -193zM192 84c22 -16 49 -25 84 -25c96 0 146 89 146 193c0 40 -6 77 -18 107zM260 556l-35 40c47 36 109 98 142 151l64 -67c-48 -56 -113 -96 -171 -124z" />
    <glyph glyph-name="racute" unicode="&#x155;" horiz-adv-x="410" 
d="M72 0v504h84l-6 -88h2c20 56 63 96 123 96c69 0 115 -57 115 -130c0 -28 -3 -51 -3 -51l-82 -49s9 43 9 75c0 44 -20 79 -64 79c-66 0 -94 -69 -94 -148v-288h-84zM212 556l-35 40c47 36 109 98 142 151l64 -67c-48 -56 -113 -96 -171 -124z" />
    <glyph glyph-name="rcaron" unicode="&#x159;" horiz-adv-x="410" 
d="M72 0v504h84l-6 -88h2c20 56 63 96 123 96c69 0 115 -57 115 -130c0 -28 -3 -51 -3 -51l-82 -49s9 43 9 75c0 44 -20 79 -64 79c-66 0 -94 -69 -94 -148v-288h-84zM227 631h2c28 34 64 66 104 87l51 -57c-60 -32 -88 -51 -124 -97h-64c-36 46 -64 65 -124 97l51 57
c40 -21 76 -53 104 -87z" />
    <glyph glyph-name="uni0157" unicode="&#x157;" horiz-adv-x="410" 
d="M72 0v504h84l-6 -88h2c20 56 63 96 123 96c69 0 115 -57 115 -130c0 -28 -3 -51 -3 -51l-82 -49s9 43 9 75c0 44 -20 79 -64 79c-66 0 -94 -69 -94 -148v-288h-84zM57 -211c27 8 61 26 66 64c-3 -1 -6 -1 -10 -1c-28 0 -49 18 -49 46c0 30 22 46 50 46
c32 0 57 -27 57 -75c0 -52 -20 -94 -56 -116z" />
    <glyph glyph-name="sacute" unicode="&#x15b;" horiz-adv-x="500" 
d="M275 56c52 0 100 25 100 77c0 59 -67 72 -138 92c-76 21 -174 53 -174 149c0 88 84 142 172 142c100 0 186 -53 218 -132l-78 -47c-10 56 -59 111 -136 111c-48 0 -95 -23 -95 -71c0 -57 83 -65 155 -88c84 -27 157 -59 157 -153c0 -92 -85 -148 -177 -148
c-128 0 -209 61 -238 155l80 48c8 -68 58 -135 154 -135zM232 556l-35 40c47 36 109 98 142 151l64 -67c-48 -56 -113 -96 -171 -124z" />
    <glyph glyph-name="scaron" unicode="&#x161;" horiz-adv-x="500" 
d="M275 56c52 0 100 25 100 77c0 59 -67 72 -138 92c-76 21 -174 53 -174 149c0 88 84 142 172 142c100 0 186 -53 218 -132l-78 -47c-10 56 -59 111 -136 111c-48 0 -95 -23 -95 -71c0 -57 83 -65 155 -88c84 -27 157 -59 157 -153c0 -92 -85 -148 -177 -148
c-128 0 -209 61 -238 155l80 48c8 -68 58 -135 154 -135zM247 631h2c28 34 64 66 104 87l51 -57c-60 -32 -88 -51 -124 -97h-64c-36 46 -64 65 -124 97l51 57c40 -21 76 -53 104 -87z" />
    <glyph glyph-name="scircumflex" unicode="&#x15d;" horiz-adv-x="500" 
d="M275 56c52 0 100 25 100 77c0 59 -67 72 -138 92c-76 21 -174 53 -174 149c0 88 84 142 172 142c100 0 186 -53 218 -132l-78 -47c-10 56 -59 111 -136 111c-48 0 -95 -23 -95 -71c0 -57 83 -65 155 -88c84 -27 157 -59 157 -153c0 -92 -85 -148 -177 -148
c-128 0 -209 61 -238 155l80 48c8 -68 58 -135 154 -135zM249 642h-2c-28 -34 -64 -65 -104 -86l-51 58c60 31 88 51 124 96h64c36 -45 64 -65 124 -96l-51 -58c-40 21 -76 52 -104 86z" />
    <glyph glyph-name="uni0219" unicode="&#x219;" horiz-adv-x="500" 
d="M275 56c52 0 100 25 100 77c0 59 -67 72 -138 92c-76 21 -174 53 -174 149c0 88 84 142 172 142c100 0 186 -53 218 -132l-78 -47c-10 56 -59 111 -136 111c-48 0 -95 -23 -95 -71c0 -57 83 -65 155 -88c84 -27 157 -59 157 -153c0 -92 -85 -148 -177 -148
c-128 0 -209 61 -238 155l80 48c8 -68 58 -135 154 -135zM208 -211c27 8 61 26 66 64c-3 -1 -6 -1 -10 -1c-28 0 -49 18 -49 46c0 30 22 46 50 46c32 0 57 -27 57 -75c0 -52 -20 -94 -56 -116z" />
    <glyph glyph-name="uni015F" unicode="&#x15f;" horiz-adv-x="500" 
d="M275 56c52 0 100 25 100 77c0 59 -67 72 -138 92c-76 21 -174 53 -174 149c0 88 84 142 172 142c100 0 186 -53 218 -132l-78 -47c-10 56 -59 111 -136 111c-48 0 -95 -23 -95 -71c0 -57 83 -65 155 -88c84 -27 157 -59 157 -153c0 -88 -77 -142 -164 -147l-8 -27
c47 -5 88 -37 88 -85c0 -52 -49 -85 -101 -85s-88 25 -108 57l58 37c10 -26 26 -40 50 -40c20 0 36 13 36 33s-16 34 -36 34c-16 0 -27 -9 -27 -9l-38 35l27 52c-102 13 -167 69 -192 152l80 48c8 -68 58 -135 154 -135z" />
    <glyph glyph-name="uni021B" unicode="&#x21b;" horiz-adv-x="345" 
d="M288 108l45 -69c-18 -24 -56 -51 -108 -51c-64 0 -117 28 -117 130v314h-92v72h92v116l82 52v-168h130v-72h-130v-307c0 -48 14 -65 44 -65c28 0 46 28 54 48zM156 -211c27 8 61 26 66 64c-3 -1 -6 -1 -10 -1c-28 0 -49 18 -49 46c0 30 22 46 50 46c32 0 57 -27 57 -75
c0 -52 -20 -94 -56 -116z" />
    <glyph glyph-name="uni0163" unicode="&#x163;" horiz-adv-x="345" 
d="M288 108l45 -69c-16 -22 -49 -46 -93 -50l-8 -27c47 -5 88 -37 88 -85c0 -52 -49 -85 -101 -85s-88 25 -108 57l58 37c10 -26 26 -40 50 -40c20 0 36 13 36 33s-16 34 -36 34c-16 0 -27 -9 -27 -9l-38 35l29 54c-44 12 -75 46 -75 125v314h-92v72h92v116l82 52v-168h130
v-72h-130v-307c0 -48 14 -65 44 -65c28 0 46 28 54 48z" />
    <glyph glyph-name="ugrave" unicode="&#xf9;" horiz-adv-x="540" 
d="M68 188v316h84v-300c0 -100 36 -140 108 -140c78 0 124 64 124 142v298h84v-504h-84l6 88h-2c-20 -44 -64 -100 -152 -100c-104 0 -168 68 -168 200zM319 596l-35 -40c-58 28 -123 68 -171 124l64 67c33 -53 95 -115 142 -151z" />
    <glyph glyph-name="uacute" unicode="&#xfa;" horiz-adv-x="540" 
d="M68 188v316h84v-300c0 -100 36 -140 108 -140c78 0 124 64 124 142v298h84v-504h-84l6 88h-2c-20 -44 -64 -100 -152 -100c-104 0 -168 68 -168 200zM252 556l-35 40c47 36 109 98 142 151l64 -67c-48 -56 -113 -96 -171 -124z" />
    <glyph glyph-name="uhungarumlaut" unicode="&#x171;" horiz-adv-x="540" 
d="M68 188v316h84v-300c0 -100 36 -140 108 -140c78 0 124 64 124 142v298h84v-504h-84l6 88h-2c-20 -44 -64 -100 -152 -100c-104 0 -168 68 -168 200zM181 556l-35 40c47 36 99 99 132 152l62 -65c-48 -56 -101 -99 -159 -127zM338 556l-35 40c47 36 107 99 140 152
l62 -65c-48 -56 -109 -99 -167 -127z" />
    <glyph glyph-name="udieresis" unicode="&#xfc;" horiz-adv-x="540" 
d="M68 188v316h84v-300c0 -100 36 -140 108 -140c78 0 124 64 124 142v298h84v-504h-84l6 88h-2c-20 -44 -64 -100 -152 -100c-104 0 -168 68 -168 200zM179 704c34 0 58 -24 58 -58s-24 -58 -58 -58s-58 24 -58 58s24 58 58 58zM357 704c34 0 58 -24 58 -58
s-24 -58 -58 -58s-58 24 -58 58s24 58 58 58z" />
    <glyph glyph-name="ucircumflex" unicode="&#xfb;" horiz-adv-x="540" 
d="M68 188v316h84v-300c0 -100 36 -140 108 -140c78 0 124 64 124 142v298h84v-504h-84l6 88h-2c-20 -44 -64 -100 -152 -100c-104 0 -168 68 -168 200zM269 642h-2c-28 -34 -64 -65 -104 -86l-51 58c60 31 88 51 124 96h64c36 -45 64 -65 124 -96l-51 -58
c-40 21 -76 52 -104 86z" />
    <glyph glyph-name="umacron" unicode="&#x16b;" horiz-adv-x="540" 
d="M68 188v316h84v-300c0 -100 36 -140 108 -140c78 0 124 64 124 142v298h84v-504h-84l6 88h-2c-20 -44 -64 -100 -152 -100c-104 0 -168 68 -168 200zM145 604v76h247v-76h-247z" />
    <glyph glyph-name="utilde" unicode="&#x169;" horiz-adv-x="540" 
d="M68 188v316h84v-300c0 -100 36 -140 108 -140c78 0 124 64 124 142v298h84v-504h-84l6 88h-2c-20 -44 -64 -100 -152 -100c-104 0 -168 68 -168 200zM335 579c-64 0 -92 54 -128 54c-26 0 -31 -27 -33 -53l-62 35c8 44 38 89 90 89c64 0 92 -54 128 -54c26 0 31 27 33 53
l62 -35c-8 -44 -38 -89 -90 -89z" />
    <glyph glyph-name="ubreve" unicode="&#x16d;" horiz-adv-x="540" 
d="M68 188v316h84v-300c0 -100 36 -140 108 -140c78 0 124 64 124 142v298h84v-504h-84l6 88h-2c-20 -44 -64 -100 -152 -100c-104 0 -168 68 -168 200zM268 563c-68 0 -128 39 -136 115l71 26v-3c0 -44 21 -74 65 -74s65 30 65 74v3l71 -26c-8 -76 -68 -115 -136 -115z" />
    <glyph glyph-name="uring" unicode="&#x16f;" horiz-adv-x="540" 
d="M68 188v316h84v-300c0 -100 36 -140 108 -140c78 0 124 64 124 142v298h84v-504h-84l6 88h-2c-20 -44 -64 -100 -152 -100c-104 0 -168 68 -168 200zM268 714c-29 0 -49 -23 -49 -52s20 -52 49 -52s49 23 49 52s-20 52 -49 52zM268 768c58 0 109 -42 109 -106
s-51 -106 -109 -106s-109 42 -109 106s51 106 109 106z" />
    <glyph glyph-name="uogonek" unicode="&#x173;" horiz-adv-x="540" 
d="M68 188v316h84v-300c0 -100 36 -140 108 -140c80 0 124 68 124 148v292h84v-504c-35 -24 -87 -69 -87 -109c0 -20 13 -34 35 -34c26 0 42 23 48 44l63 -46c-21 -32 -62 -63 -118 -63c-60 0 -99 37 -99 89c0 43 29 78 57 104l19 18l4 85h-2c-20 -44 -64 -100 -152 -100
c-104 0 -168 68 -168 200z" />
    <glyph glyph-name="wgrave" unicode="&#x1e81;" horiz-adv-x="712" 
d="M404 504l60 -208c22 -75 53 -200 53 -200h2s25 124 41 200l44 208h84l-120 -504h-97l-64 232c-21 75 -49 182 -49 182h-2s-28 -107 -49 -182l-64 -232h-99l-120 504h88l44 -208c16 -76 41 -200 41 -200h2c0 1 31 125 53 200l60 208h92zM407 596l-35 -40
c-58 28 -123 68 -171 124l64 67c33 -53 95 -115 142 -151z" />
    <glyph glyph-name="wacute" unicode="&#x1e83;" horiz-adv-x="712" 
d="M404 504l60 -208c22 -75 53 -200 53 -200h2s25 124 41 200l44 208h84l-120 -504h-97l-64 232c-21 75 -49 182 -49 182h-2s-28 -107 -49 -182l-64 -232h-99l-120 504h88l44 -208c16 -76 41 -200 41 -200h2c0 1 31 125 53 200l60 208h92zM340 556l-35 40
c47 36 109 98 142 151l64 -67c-48 -56 -113 -96 -171 -124z" />
    <glyph glyph-name="wdieresis" unicode="&#x1e85;" horiz-adv-x="712" 
d="M404 504l60 -208c22 -75 53 -200 53 -200h2s25 124 41 200l44 208h84l-120 -504h-97l-64 232c-21 75 -49 182 -49 182h-2s-28 -107 -49 -182l-64 -232h-99l-120 504h88l44 -208c16 -76 41 -200 41 -200h2c0 1 31 125 53 200l60 208h92zM267 704c34 0 58 -24 58 -58
s-24 -58 -58 -58s-58 24 -58 58s24 58 58 58zM445 704c34 0 58 -24 58 -58s-24 -58 -58 -58s-58 24 -58 58s24 58 58 58z" />
    <glyph glyph-name="wcircumflex" unicode="&#x175;" horiz-adv-x="712" 
d="M404 504l60 -208c22 -75 53 -200 53 -200h2s25 124 41 200l44 208h84l-120 -504h-97l-64 232c-21 75 -49 182 -49 182h-2s-28 -107 -49 -182l-64 -232h-99l-120 504h88l44 -208c16 -76 41 -200 41 -200h2c0 1 31 125 53 200l60 208h92zM357 642h-2
c-28 -34 -64 -65 -104 -86l-51 58c60 31 88 51 124 96h64c36 -45 64 -65 124 -96l-51 -58c-40 21 -76 52 -104 86z" />
    <glyph glyph-name="ygrave" unicode="&#x1ef3;" horiz-adv-x="464" 
d="M237 109h2s25 77 44 136l84 259h85l-180 -525c-23 -67 -62 -151 -149 -187l-68 60c67 19 116 63 138 130l5 17l-186 505h89l89 -259c19 -55 47 -136 47 -136zM283 596l-35 -40c-58 28 -123 68 -171 124l64 67c33 -53 95 -115 142 -151z" />
    <glyph glyph-name="yacute" unicode="&#xfd;" horiz-adv-x="464" 
d="M237 109h2s25 77 44 136l84 259h85l-180 -525c-23 -67 -62 -151 -149 -187l-68 60c67 19 116 63 138 130l5 17l-186 505h89l89 -259c19 -55 47 -136 47 -136zM216 556l-35 40c47 36 109 98 142 151l64 -67c-48 -56 -113 -96 -171 -124z" />
    <glyph glyph-name="ydieresis" unicode="&#xff;" horiz-adv-x="464" 
d="M237 109h2s25 77 44 136l84 259h85l-180 -525c-23 -67 -62 -151 -149 -187l-68 60c67 19 116 63 138 130l5 17l-186 505h89l89 -259c19 -55 47 -136 47 -136zM143 704c34 0 58 -24 58 -58s-24 -58 -58 -58s-58 24 -58 58s24 58 58 58zM321 704c34 0 58 -24 58 -58
s-24 -58 -58 -58s-58 24 -58 58s24 58 58 58z" />
    <glyph glyph-name="ycircumflex" unicode="&#x177;" horiz-adv-x="464" 
d="M237 109h2s25 77 44 136l84 259h85l-180 -525c-23 -67 -62 -151 -149 -187l-68 60c67 19 116 63 138 130l5 17l-186 505h89l89 -259c19 -55 47 -136 47 -136zM233 642h-2c-28 -34 -64 -65 -104 -86l-51 58c60 31 88 51 124 96h64c36 -45 64 -65 124 -96l-51 -58
c-40 21 -76 52 -104 86z" />
    <glyph glyph-name="zacute" unicode="&#x17a;" horiz-adv-x="460" 
d="M44 432v72h372v-52l-269 -380h277v-72h-384v52l268 380h-264zM214 556l-35 40c47 36 109 98 142 151l64 -67c-48 -56 -113 -96 -171 -124z" />
    <glyph glyph-name="zdotaccent" unicode="&#x17c;" horiz-adv-x="460" 
d="M44 432v72h372v-52l-269 -380h277v-72h-384v52l268 380h-264zM230 704c34 0 58 -24 58 -58s-24 -58 -58 -58s-58 24 -58 58s24 58 58 58z" />
    <glyph glyph-name="zcaron" unicode="&#x17e;" horiz-adv-x="460" 
d="M44 432v72h372v-52l-269 -380h277v-72h-384v52l268 380h-264zM229 631h2c28 34 64 66 104 87l51 -57c-60 -32 -88 -51 -124 -97h-64c-36 46 -64 65 -124 97l51 57c40 -21 76 -53 104 -87z" />
    <glyph glyph-name="uni00A0" unicode="&#xa0;" horiz-adv-x="230" 
 />
    <glyph glyph-name="uni00AD.case" horiz-adv-x="331" 
d="M295 319h-259v73h259v-73z" />
    <glyph glyph-name="Ldot.latn_CAT" horiz-adv-x="516" 
d="M80 0v692h88v-612h332v-80h-420zM330 412c34 0 58 -24 58 -58s-24 -58 -58 -58s-58 24 -58 58s24 58 58 58z" />
    <glyph glyph-name="ldot.latn_CAT" horiz-adv-x="392" 
d="M72 0v724h84v-724h-84zM300 372c34 0 58 -24 58 -58s-24 -58 -58 -58s-58 24 -58 58s24 58 58 58z" />
    <glyph glyph-name="i.latn_TRK" horiz-adv-x="228" 
d="M72 0v504h84v-504h-84zM114 704c34 0 58 -24 58 -58s-24 -58 -58 -58s-58 24 -58 58s24 58 58 58z" />
    <glyph glyph-name="uni2007" unicode="&#x2007;" horiz-adv-x="598" 
 />
    <glyph glyph-name="uni2007.tosf" horiz-adv-x="598" 
 />
    <glyph glyph-name="uni2008" unicode="&#x2008;" horiz-adv-x="264" 
 />
    <glyph glyph-name="space.frac" horiz-adv-x="230" 
 />
    <glyph glyph-name="uniFEFF" unicode="&#xfeff;" horiz-adv-x="0" 
 />
    <glyph glyph-name="uni200B" unicode="&#x200b;" horiz-adv-x="0" 
 />
    </font>
</defs>
</svg>
