<svg width="1440" height="730" viewBox="0 0 1440 730" fill="none" xmlns="http://www.w3.org/2000/svg">
<rect width="1440" height="730" fill="#FFDBEB"/>
<rect width="1440" height="148" fill="white"/>
<mask id="mask0" mask-type="alpha" maskUnits="userSpaceOnUse" x="0" y="28" width="1440" height="200">
<rect y="28" width="1440" height="200" fill="white"/>
</mask>
<g mask="url(#mask0)">
<path fill-rule="evenodd" clip-rule="evenodd" d="M2168 28H-728V143V227.998H-727.282C-719.815 227.031 -714.092 222.08 -710.853 215.027C-710.853 214.502 -696.363 171.915 -696.363 171.915C-696.363 171.915 -692.223 158.771 -677.733 158.771C-668.936 158.771 -662.209 164.028 -659.104 171.915L-644.614 216.079C-644.614 216.079 -641.486 226.521 -629.417 227.998H-623.784C-616.317 227.031 -610.594 222.08 -607.355 215.027C-607.355 214.502 -592.865 171.915 -592.865 171.915C-592.865 171.915 -588.725 158.771 -574.235 158.771C-565.438 158.771 -558.711 164.028 -555.606 171.915L-541.116 216.079C-541.116 216.079 -537.988 226.521 -525.919 227.998H-520.285C-512.819 227.031 -507.096 222.08 -503.857 215.027C-503.857 214.502 -489.367 171.915 -489.367 171.915C-489.367 171.915 -485.227 158.771 -470.737 158.771C-461.94 158.771 -455.213 164.028 -452.108 171.915L-437.618 216.079C-437.618 216.079 -434.49 226.521 -422.421 227.998H-416.787C-409.321 227.031 -403.598 222.08 -400.359 215.027C-400.359 214.502 -385.869 171.915 -385.869 171.915C-385.869 171.915 -381.729 158.771 -367.239 158.771C-358.442 158.771 -351.715 164.028 -348.61 171.915L-334.12 216.079C-334.12 216.079 -330.992 226.521 -318.923 227.998H-313.289C-305.823 227.031 -300.1 222.08 -296.861 215.027C-296.861 214.502 -282.371 171.915 -282.371 171.915C-282.371 171.915 -278.231 158.771 -263.741 158.771C-254.944 158.771 -248.217 164.028 -245.112 171.915L-230.622 216.079C-230.622 216.079 -227.494 226.521 -215.425 227.998H-209.791C-202.325 227.031 -196.602 222.08 -193.363 215.027C-193.363 214.502 -178.873 171.915 -178.873 171.915C-178.873 171.915 -174.733 158.771 -160.243 158.771C-151.446 158.771 -144.719 164.028 -141.614 171.915L-127.124 216.079C-127.124 216.079 -123.996 226.521 -111.927 227.998H-105.712C-98.2458 227.031 -92.5228 222.08 -89.2831 215.027C-89.2831 214.502 -74.7935 171.915 -74.7935 171.915C-74.7935 171.915 -70.6535 158.771 -56.1638 158.771C-47.3665 158.771 -40.6391 164.028 -37.5341 171.915L-23.0444 216.079C-23.0444 216.079 -19.9165 226.521 -7.84723 227.998H-2.21381C5.25226 227.031 10.9753 222.08 14.2149 215.027C14.2149 214.502 28.7046 171.915 28.7046 171.915C28.7046 171.915 32.8445 158.771 47.3343 158.771C56.1316 158.771 62.8589 164.028 65.9639 171.915L80.4536 216.079C80.4536 216.079 83.5815 226.521 95.6508 227.998H101.284C108.75 227.031 114.473 222.08 117.713 215.027C117.713 214.502 132.203 171.915 132.203 171.915C132.203 171.915 136.343 158.771 150.832 158.771C159.63 158.771 166.357 164.028 169.462 171.915L183.952 216.079C183.952 216.079 187.08 226.521 199.149 227.998H204.782C212.248 227.031 217.971 222.08 221.211 215.027C221.211 214.502 235.701 171.915 235.701 171.915C235.701 171.915 239.841 158.771 254.33 158.771C263.128 158.771 269.855 164.028 272.96 171.915L287.45 216.079C287.45 216.079 290.578 226.521 302.647 227.998H308.28C315.746 227.031 321.469 222.08 324.709 215.027C324.709 214.502 339.199 171.915 339.199 171.915C339.199 171.915 343.339 158.771 357.828 158.771C366.626 158.771 373.353 164.028 376.458 171.915L390.948 216.079C390.948 216.079 394.076 226.521 406.145 227.998H411.778C419.245 227.031 424.967 222.08 428.207 215.027C428.207 214.502 442.697 171.915 442.697 171.915C442.697 171.915 446.837 158.771 461.326 158.771C470.124 158.771 476.851 164.028 479.956 171.915L494.446 216.079C494.446 216.079 497.574 226.521 509.643 227.998H515.276C522.743 227.031 528.465 222.08 531.705 215.027C531.705 214.502 546.195 171.915 546.195 171.915C546.195 171.915 550.335 158.771 564.824 158.771C573.622 158.771 580.349 164.028 583.454 171.915L597.944 216.079C597.944 216.079 601.072 226.521 613.141 227.998H618.775C626.241 227.031 631.964 222.08 635.203 215.027C635.203 214.502 649.693 171.915 649.693 171.915C649.693 171.915 653.833 158.771 668.323 158.771C677.12 158.771 683.847 164.028 686.952 171.915L701.442 216.079C701.442 216.079 704.57 226.521 716.639 227.998H720H720.718C728.185 227.031 733.907 222.08 737.147 215.027C737.147 214.502 751.637 171.915 751.637 171.915C751.637 171.915 755.777 158.771 770.266 158.771C779.064 158.771 785.791 164.028 788.896 171.915L803.386 216.079C803.386 216.079 806.514 226.521 818.583 227.998H824.217C831.683 227.031 837.406 222.08 840.645 215.027C840.645 214.502 855.135 171.915 855.135 171.915C855.135 171.915 859.275 158.771 873.765 158.771C882.562 158.771 889.289 164.028 892.394 171.915L906.884 216.079C906.884 216.079 910.012 226.521 922.081 227.998H927.715C935.181 227.031 940.904 222.08 944.143 215.027C944.143 214.502 958.633 171.915 958.633 171.915C958.633 171.915 962.773 158.771 977.263 158.771C986.06 158.771 992.787 164.028 995.892 171.915L1010.38 216.079C1010.38 216.079 1013.51 226.521 1025.58 227.998H1031.21C1038.68 227.031 1044.4 222.08 1047.64 215.027C1047.64 214.502 1062.13 171.915 1062.13 171.915C1062.13 171.915 1066.27 158.771 1080.76 158.771C1089.56 158.771 1096.29 164.028 1099.39 171.915L1113.88 216.079C1113.88 216.079 1117.01 226.521 1129.08 227.998H1134.71C1142.18 227.031 1147.9 222.08 1151.14 215.027C1151.14 214.502 1165.63 171.915 1165.63 171.915C1165.63 171.915 1169.77 158.771 1184.26 158.771C1193.06 158.771 1199.78 164.028 1202.89 171.915L1217.38 216.079C1217.38 216.079 1220.51 226.521 1232.58 227.998H1238.21C1245.67 227.031 1251.4 222.08 1254.64 215.027C1254.64 214.502 1269.13 171.915 1269.13 171.915C1269.13 171.915 1273.27 158.771 1287.76 158.771C1296.55 158.771 1303.28 164.028 1306.39 171.915L1320.88 216.079C1320.88 216.079 1324 226.521 1336.07 227.998H1342.29C1349.75 227.031 1355.48 222.08 1358.72 215.027C1358.72 214.502 1373.21 171.915 1373.21 171.915C1373.21 171.915 1377.35 158.771 1391.84 158.771C1400.63 158.771 1407.36 164.028 1410.47 171.915L1424.96 216.079C1424.96 216.079 1428.08 226.521 1440.15 227.998H1445.79C1453.25 227.031 1458.98 222.08 1462.21 215.027C1462.21 214.502 1476.7 171.915 1476.7 171.915C1476.7 171.915 1480.84 158.771 1495.33 158.771C1504.13 158.771 1510.86 164.028 1513.96 171.915L1528.45 216.079C1528.45 216.079 1531.58 226.521 1543.65 227.998H1549.28C1556.75 227.031 1562.47 222.08 1565.71 215.027C1565.71 214.502 1580.2 171.915 1580.2 171.915C1580.2 171.915 1584.34 158.771 1598.83 158.771C1607.63 158.771 1614.36 164.028 1617.46 171.915L1631.95 216.079C1631.95 216.079 1635.08 226.521 1647.15 227.998H1652.78C1660.25 227.031 1665.97 222.08 1669.21 215.027C1669.21 214.502 1683.7 171.915 1683.7 171.915C1683.7 171.915 1687.84 158.771 1702.33 158.771C1711.13 158.771 1717.85 164.028 1720.96 171.915L1735.45 216.079C1735.45 216.079 1738.58 226.521 1750.65 227.998H1756.28C1763.75 227.031 1769.47 222.08 1772.71 215.027C1772.71 214.502 1787.2 171.915 1787.2 171.915C1787.2 171.915 1791.34 158.771 1805.83 158.771C1814.63 158.771 1821.35 164.028 1824.46 171.915L1838.95 216.079C1838.95 216.079 1842.08 226.521 1854.15 227.998H1859.78C1867.24 227.031 1872.97 222.08 1876.21 215.027C1876.21 214.502 1890.7 171.915 1890.7 171.915C1890.7 171.915 1894.84 158.771 1909.33 158.771C1918.12 158.771 1924.85 164.028 1927.96 171.915L1942.45 216.079C1942.45 216.079 1945.57 226.521 1957.64 227.998H1963.28C1970.74 227.031 1976.47 222.08 1979.71 215.027C1979.71 214.502 1994.19 171.915 1994.19 171.915C1994.19 171.915 1998.33 158.771 2012.82 158.771C2021.62 158.771 2028.35 164.028 2031.45 171.915L2045.94 216.079C2045.94 216.079 2049.07 226.521 2061.14 227.998H2066.77C2074.24 227.031 2079.96 222.08 2083.2 215.027C2083.2 214.502 2097.69 171.915 2097.69 171.915C2097.69 171.915 2101.83 158.771 2116.32 158.771C2125.12 158.771 2131.85 164.028 2134.95 171.915L2149.44 216.079C2149.44 216.079 2152.57 226.521 2164.64 227.998H2168V143V28Z" fill="white"/>
</g>
</svg>
