<svg width="1440" height="730" viewBox="0 0 1440 730" fill="none" xmlns="http://www.w3.org/2000/svg">
<rect width="1440" height="730" fill="#CCCCFF"/>
<mask id="mask0" mask-type="alpha" maskUnits="userSpaceOnUse" x="0" y="30" width="1440" height="200">
<rect y="30" width="1440" height="200" fill="white"/>
</mask>
<g mask="url(#mask0)">
<path fill-rule="evenodd" clip-rule="evenodd" d="M2160 30H-720V145V201.734L-719.974 199.522L-690.574 230L-659.975 199.522L-630.575 230L-599.976 199.522L-570.576 230L-539.977 199.522L-510.577 230L-479.978 199.522L-450.578 230L-419.979 199.522L-390.58 230L-359.98 199.522L-330.581 230L-299.981 199.522L-270.582 230L-239.982 199.522L-210.583 230L-179.983 199.522L-150.584 230L-119.985 199.522L-90.5851 230L-59.9857 199.522L-30.5862 230L0.0132446 199.522L29.4127 230L60.0121 199.522L89.4116 230L120.011 199.522L149.411 230L180.01 199.522L209.409 230L240.009 199.522L269.408 230L300.008 199.522L329.407 230L360.007 199.522L389.406 230L420.005 199.522L449.405 230L480.004 199.522L509.404 230L540.003 199.522L569.403 230L600.002 199.522L629.402 230L660.001 199.522L689.401 230L720 199.522V201.734L720.026 199.522L749.426 230L780.025 199.522L809.425 230L840.024 199.522L869.424 230L900.023 199.522L929.423 230L960.022 199.522L989.422 230L1020.02 199.522L1049.42 230L1080.02 199.522L1109.42 230L1140.02 199.522L1169.42 230L1200.02 199.522L1229.42 230L1260.02 199.522L1289.42 230L1320.02 199.522L1349.42 230L1380.01 199.522L1409.41 230L1440.01 199.522L1469.41 230L1500.01 199.522L1529.41 230L1560.01 199.522L1589.41 230L1620.01 199.522L1649.41 230L1680.01 199.522L1709.41 230L1740.01 199.522L1769.41 230L1800.01 199.522L1829.41 230L1860.01 199.522L1889.41 230L1920 199.522L1949.4 230L1980 199.522L2009.4 230L2040 199.522L2069.4 230L2100 199.522L2129.4 230L2160 199.522V145V30Z" fill="white"/>
</g>
<rect width="1440" height="186" fill="white"/>
</svg>
