<svg width="1440" height="730" viewBox="0 0 1440 730" fill="none" xmlns="http://www.w3.org/2000/svg">
<rect width="1440" height="730" fill="#B5DAF7"/>
<rect width="1440" height="187" fill="white"/>
<mask id="mask0" mask-type="alpha" maskUnits="userSpaceOnUse" x="0" y="26" width="1440" height="200">
<rect y="26" width="1440" height="200" fill="white"/>
</mask>
<g mask="url(#mask0)">
<path fill-rule="evenodd" clip-rule="evenodd" d="M2160 26H-720V181V190.365C-695.145 190.365 -673.818 205.052 -664.616 226C-655.412 205.052 -634.085 190.365 -609.23 190.365C-584.378 190.365 -563.048 205.052 -553.846 226C-544.645 205.052 -523.315 190.365 -498.463 190.365C-473.607 190.365 -452.281 205.052 -443.076 226C-433.875 205.052 -412.548 190.365 -387.693 190.365C-362.837 190.365 -341.51 205.052 -332.309 226C-323.105 205.052 -301.778 190.365 -276.925 190.365C-252.07 190.365 -230.74 205.052 -221.539 226C-212.334 205.052 -191.007 190.365 -166.155 190.365C-141.3 190.365 -119.973 205.052 -110.769 226C-101.567 205.052 -80.2403 190.365 -55.3851 190.365C-30.5298 190.365 -9.20294 205.052 -0.00146484 226C9.20294 205.052 30.5298 190.365 55.3851 190.365C80.2373 190.365 101.567 205.052 110.769 226C119.97 205.052 141.3 190.365 166.152 190.365C191.007 190.365 212.334 205.052 221.539 226C230.74 205.052 252.067 190.365 276.922 190.365C301.778 190.365 323.105 205.052 332.306 226C341.51 205.052 362.837 190.365 387.693 190.365C412.545 190.365 433.875 205.052 443.076 226C452.278 205.052 473.607 190.365 498.46 190.365C523.315 190.365 544.642 205.052 553.846 226C563.048 205.052 584.375 190.365 609.227 190.365C634.085 190.365 655.412 205.052 664.613 226C673.818 205.052 695.145 190.365 720 190.365C744.855 190.365 766.182 205.052 775.384 226C784.588 205.052 805.915 190.365 830.77 190.365C855.622 190.365 876.952 205.052 886.154 226C895.355 205.052 916.685 190.365 941.537 190.365C966.393 190.365 987.719 205.052 996.924 226C1006.13 205.052 1027.45 190.365 1052.31 190.365C1077.16 190.365 1098.49 205.052 1107.69 226C1116.9 205.052 1138.22 190.365 1163.07 190.365C1187.93 190.365 1209.26 205.052 1218.46 226C1227.67 205.052 1248.99 190.365 1273.84 190.365C1298.7 190.365 1320.03 205.052 1329.23 226C1338.43 205.052 1359.76 190.365 1384.61 190.365C1409.47 190.365 1430.8 205.052 1440 226C1449.2 205.052 1470.53 190.365 1495.39 190.365C1520.24 190.365 1541.57 205.052 1550.77 226C1559.97 205.052 1581.3 190.365 1606.15 190.365C1631.01 190.365 1652.33 205.052 1661.54 226C1670.74 205.052 1692.07 190.365 1716.92 190.365C1741.78 190.365 1763.1 205.052 1772.31 226C1781.51 205.052 1802.84 190.365 1827.69 190.365C1852.54 190.365 1873.87 205.052 1883.08 226C1892.28 205.052 1913.61 190.365 1938.46 190.365C1963.31 190.365 1984.64 205.052 1993.85 226C2003.05 205.052 2024.37 190.365 2049.23 190.365C2074.09 190.365 2095.41 205.052 2104.61 226C2113.82 205.052 2135.14 190.365 2160 190.365V181V26Z" fill="white"/>
</g>
</svg>
