<svg width="90" height="42" viewBox="0 0 90 42" fill="none" xmlns="http://www.w3.org/2000/svg">
<path d="M87.4077 2.62615V26.7757C87.4077 31.3852 83.6288 35.15 78.9736 35.15H53.288C50.2028 35.15 47.2819 36.2702 45 38.3454C42.7181 36.2886 39.7972 35.15 36.712 35.15H10.9716C6.35294 35.15 2.61055 31.4036 2.61055 26.7757V2.62615H87.4077ZM46.3692 40.641C48.213 38.7862 50.6775 37.7578 53.3063 37.7578H78.9736C85.0527 37.7578 90 32.836 90 26.7757V0H0V26.7573C0 32.8177 4.91075 37.7394 10.9716 37.7394H36.712C39.3225 37.7394 41.787 38.7678 43.6491 40.6227L45.0183 42L46.3692 40.641Z" fill="#444053"/>
<path d="M77.9103 13.6215C77.9103 14.4169 77.2685 14.9953 76.4617 14.9953C75.6549 14.9953 75.0132 14.4169 75.0132 13.6215C75.0132 12.8261 75.6549 12.2476 76.4617 12.2476C77.2685 12.2114 77.9103 12.7899 77.9103 13.6215ZM75.1965 24.8474H77.7086V16.0438H75.1965V24.8474ZM70.6858 19.5327L73.968 24.8474H71.2359L69.0355 21.3223L67.8436 22.8047V24.8474H65.3499V12.1934H67.8436V18.0323C67.8436 19.1169 67.7153 20.2016 67.7153 20.2016H67.7703C67.7703 20.2016 68.357 19.2435 68.8521 18.5565L70.7591 16.0438H73.6929L70.6858 19.5327ZM62.8194 19.2073C62.8194 17.02 61.7376 15.8269 60.014 15.8269C58.5471 15.8269 57.7769 16.6765 57.3369 17.49H57.2818L57.4102 16.0438H54.9165V24.8474H57.4102V19.6231C57.4102 18.6108 58.0153 17.9058 58.9505 17.9058C59.8856 17.9058 60.289 18.5204 60.289 19.6954V24.8474H62.8011L62.8194 19.2073ZM52.5144 13.6215C52.5144 14.4169 51.8726 14.9953 51.0658 14.9953C50.259 14.9953 49.6172 14.4169 49.6172 13.6215C49.6172 12.8261 50.259 12.2476 51.0658 12.2476C51.8909 12.2114 52.5144 12.7899 52.5144 13.6215ZM49.8006 24.8474H52.3127V16.0438H49.8006V24.8474ZM45.4732 22.3889C45.4732 21.6839 44.483 21.5393 43.3278 21.2139C41.9893 20.8704 40.3023 20.2016 40.3023 18.5204C40.3023 16.8573 41.9159 15.8088 43.8229 15.8088C45.6016 15.8088 47.2335 16.6404 47.9119 17.8154L45.7666 19.0085C45.5465 18.2311 44.8864 17.6165 43.8963 17.6165C43.2545 17.6165 42.7227 17.8877 42.7227 18.4119C42.7227 19.0808 43.8963 19.1531 45.2165 19.5689C46.6101 20.0027 47.8936 20.6354 47.8936 22.2443C47.8936 24.0158 46.225 25.0643 44.2997 25.0643C42.2093 25.0643 40.559 24.1966 39.8256 22.7866L42.0076 21.5754C42.2827 22.5335 43.0711 23.2566 44.263 23.2566C44.9781 23.2566 45.4732 22.9674 45.4732 22.3889ZM37.5335 12.2657H35.0214V22.407C35.0214 23.3108 35.2231 23.9797 35.6082 24.3955C36.0116 24.8112 36.6351 25.0101 37.4969 25.0101C37.7902 25.0101 38.102 24.9739 38.3953 24.9197C38.7071 24.8474 38.9454 24.757 39.1471 24.6486L39.3672 22.9854C39.1655 23.0578 39.0004 23.112 38.8354 23.1301C38.6887 23.1662 38.5054 23.1662 38.3037 23.1662C37.9736 23.1662 37.8269 23.0758 37.7169 22.9131C37.5885 22.7504 37.5335 22.4612 37.5335 22.0454V12.2657ZM29.1721 17.5984C28.2553 17.5984 27.5035 18.2492 27.3018 19.4423H30.8224C30.8407 18.3938 30.144 17.5984 29.1721 17.5984ZM33.0411 21.1054H27.2651C27.3752 22.5335 28.182 23.2385 29.2271 23.2385C30.1623 23.2385 30.8041 22.6239 30.9508 21.7924L33.0595 22.9674C32.436 24.0882 31.0975 25.0643 29.2271 25.0643C26.7334 25.0643 24.8998 23.347 24.8998 20.4546C24.8998 17.5804 26.7701 15.845 29.1721 15.845C31.5742 15.845 33.1695 17.5261 33.1695 19.9123C33.1511 20.6173 33.0411 21.1054 33.0411 21.1054ZM20.2606 24.8474H22.8644V12.7357H20.2606V17.5261H15.3648V12.7538H12.761V24.8474H15.3648V19.84H20.2606V24.8474Z" fill="#444053"/>
</svg>
