<svg width="1169" height="644" viewBox="0 0 1169 644" fill="none" xmlns="http://www.w3.org/2000/svg">
<path d="M1189 644V0H764.759C712.362 0 660.185 6.78182 609.528 20.1764C576.2 28.9891 551.253 56.6999 545.978 90.7673L544.547 100.007C538.359 139.968 506.046 170.756 465.833 175.006C427.227 179.086 395.701 207.685 387.892 245.713L384.807 260.734C377.54 296.118 350.463 324.106 315.339 332.54C279.194 341.22 251.674 370.566 245.332 407.193L245.069 408.717C238.987 443.844 213.839 472.655 179.857 483.43L155.921 491.019C122.593 501.586 97.3531 529.011 89.5825 563.099C82.2063 595.458 59.047 621.935 27.9582 633.552L0 644H1189Z" fill="#FAFAFB"/>
</svg>
